<svg id="Layer_1" data-name="Layer 1" xmlns="http://www.w3.org/2000/svg" width="886" height="219" viewBox="0 0 886 219"><title>Artboard 1</title><path d="M40.81,97.95H55V109.2H70V97.95H84.15V109.2h15V97.95h14.18V109.2h15V97.95h14.18V109.2h15V97.95h14.18V109.2h15V97.95h14.18V109.2h15V97.95H230V109.2h15V97.95h14.18V109.2h15V97.95h14.18V109.2h15V97.95h14.18V109.2h15V97.95h14.18V109.2h15V97.95H387.4V85.34H376.15V73.52H387.4V60.91H376.15V49.09H387.4V36.48H376.15V24.66H387.4V12.05H361.57V.8h-15V12.05H332.41V.8h-15V12.05H303.25V.8h-15V12.05H274.09V.8h-15V12.05H244.93V.8H230V12.05H215.77V.8h-15V12.05H186.61V.8h-15V12.05H157.45V.8h-15V12.05H128.29V.8h-15V12.05H99.13V.8h-15V12.05H70V.8H55V12.05H40.81V.8h-15V12.05H0V24.66H11.25V36.48H0V49.09H11.25V60.91H0V73.52H11.25V85.34H0V97.95H25.83V109.2h15Zm373.82,0h14.18V109.2h15V97.95H458V109.2h15V97.95h14.18V109.2h15V97.95h14.18V109.2h15V97.95h14.18V109.2h15V97.95h14.18V109.2h15V97.95h14.18V109.2h15V97.95h14.18V109.2h15V97.95h14.18V109.2h15V97.95h14.18V109.2h15V97.95h14.18V109.2h15V97.95h14.18V109.2H775.8V85.34H764.55V73.52H775.8V60.91H764.55V49.09H775.8V36.48H764.55V24.66H775.8V.8H749.57V12.05H735.39V.8h-15V12.05H706.23V.8h-15V12.05H677.07V.8h-15V12.05H647.91V.8h-15V12.05H618.75V.8h-15V12.05H589.59V.8h-15V12.05H560.43V.8h-15V12.05H531.27V.8h-15V12.05H502.11V.8h-15V12.05H473V.8H458V12.05H443.79V.8h-15V12.05H414.63V.8H388.4V24.66h11.25V36.48H388.4V49.09h11.25V60.91H388.4V73.52h11.25V85.34H388.4V109.2h26.23Zm447.11,0h12.21V85.74H885.2V73.12H873.95V61.31H885.2V48.69H873.95V36.88H885.2V24.26H873.95V12.05H861.74V.8H849.12V12.05H837.31V.8H824.69V12.05H812.88V.8H800.26V12.05H788.05V24.26H776.8V36.88h11.25V48.69H776.8V61.31h11.25V73.12H776.8V85.74h11.25V97.95h12.21V109.2h12.61V97.95h11.81V109.2h12.61V97.95h11.81V109.2h12.61ZM414.63,207.35h14.18V218.6h15V207.35H458V218.6h15V207.35h14.18V218.6h15V207.35h14.18V218.6h15V207.35h14.18V218.6h15V207.35h14.18V218.6h15V207.35h14.18V218.6h15V207.35h14.18V218.6h15V207.35h14.18V218.6h15V207.35h14.18V218.6h15V207.35h14.18V218.6h15V207.35h14.18V218.6H775.8V194.74H764.55V182.92H775.8V170.31H764.55V158.49H775.8V145.88H764.55V134.06H775.8V110.2H749.57v11.25H735.39V110.2h-15v11.25H706.23V110.2h-15v11.25H677.07V110.2h-15v11.25H647.91V110.2h-15v11.25H618.75V110.2h-15v11.25H589.59V110.2h-15v11.25H560.43V110.2h-15v11.25H531.27V110.2h-15v11.25H502.11V110.2h-15v11.25H473V110.2H458v11.25H443.79V110.2h-15v11.25H414.63V110.2H388.4v23.86h11.25v11.82H388.4v12.61h11.25v11.81H388.4v12.61h11.25v11.81H388.4V218.6h26.23Zm-373.82,0H55V218.6H70V207.35H84.15V218.6h15V207.35h14.18V218.6h15V207.35h14.18V218.6h15V207.35h14.18V218.6h15V207.35h14.18V218.6h15V207.35H230V218.6h15V207.35h14.18V218.6h15V207.35h14.18V218.6h15V207.35h14.18V218.6h15V207.35h14.18V218.6h15V207.35H387.4V194.74H376.15V182.92H387.4V170.31H376.15V158.49H387.4V145.88H376.15V134.06H387.4V121.45H361.57V110.2h-15v11.25H332.41V110.2h-15v11.25H303.25V110.2h-15v11.25H274.09V110.2h-15v11.25H244.93V110.2H230v11.25H215.77V110.2h-15v11.25H186.61V110.2h-15v11.25H157.45V110.2h-15v11.25H128.29V110.2h-15v11.25H99.13V110.2h-15v11.25H70V110.2H55v11.25H40.81V110.2h-15v11.25H0v12.61H11.25v11.82H0v12.61H11.25v11.81H0v12.61H11.25v11.81H0v12.61H25.83V218.6h15Zm796.5,0h11.81V218.6h12.61V207.35h12.21V195.14H885.2V182.52H873.95V170.71H885.2V158.09H873.95V146.28H885.2V133.66H873.95V121.45H861.74V110.2H849.12v11.25H837.31V110.2H824.69v11.25H812.88V110.2H800.26v11.25H788.05v12.21H776.8v12.62h11.25v11.81H776.8v12.61h11.25v11.81H776.8v12.62h11.25v12.21h12.21V218.6h12.61V207.35h11.81V218.6h12.61Z" fill="#d3d3d3" stroke="#3974c0" stroke-width="0.5"/><path d="M451.91,67.18l-.18-.17a17.67,17.67,0,0,1-2.25-2.51,7,7,0,0,1-1.14-2.23,5.68,5.68,0,0,1-.16-.89,1.67,1.67,0,0,1,.49-1.36,3.69,3.69,0,0,1,1.06-.76c.25-.12.51-.23.77-.34l.23-.1-.21-.19A14.44,14.44,0,0,1,449,57.08a4.3,4.3,0,0,1-.63-.95,1.39,1.39,0,0,1-.14-.88.83.83,0,0,1,1.17-.61,1.58,1.58,0,0,1,.65.61l-.37.34-.06.07a1,1,0,0,0,0,1.39,6.59,6.59,0,0,0,1.75,1.59.49.49,0,0,0,.26.06l1.12-.05,1.39-.1-.16-.15c-1-.85-2-1.72-3-2.65a18.23,18.23,0,0,1-1.85-2,6.56,6.56,0,0,1-.7-1.13,1.84,1.84,0,0,1,.54-2.32c.22-.18.47-.32.73-.49l-.14-.13a4,4,0,0,1-1-1.11,2.37,2.37,0,0,1-.32-1.54,1.45,1.45,0,0,1,.87-1.16,3.36,3.36,0,0,1,1.19-.28,5,5,0,0,1,3.39.94l.08.05h0a.74.74,0,0,0,0-.12,12.31,12.31,0,0,1-1.07-2,.4.4,0,0,0-.25-.22,7,7,0,0,1-3-2.27,7.71,7.71,0,0,1-1.48-3.55,9.25,9.25,0,0,1-.09-1.72,2.62,2.62,0,0,1,.18-.89,1.17,1.17,0,0,1,1.24-.78,2.26,2.26,0,0,1,1.66.84,4.7,4.7,0,0,1,.83,1.53A10.64,10.64,0,0,1,452.3,40c0,.41.05.82.07,1.23a.36.36,0,0,0,.13.28,2.89,2.89,0,0,0,1.29.63,7.27,7.27,0,0,0,2.18.17c.35,0,.69-.07,1-.11l.22,0c0-.25,0-.49,0-.73a1.47,1.47,0,0,1,.36-.89.6.6,0,0,1,.66-.23.59.59,0,0,1,.41.52,1.71,1.71,0,0,1-.27,1.31c-.09.14-.2.28-.29.42s0,0,0,0a7.82,7.82,0,0,0,2.41,1.84,5.19,5.19,0,0,0,2.71.4,3.88,3.88,0,0,0,1.26-.31,2.1,2.1,0,0,0,.83-.63c.14-.18.16-.2,0-.39a10.47,10.47,0,0,0-.77-.93,15.07,15.07,0,0,0-2.66-2.15,9,9,0,0,0-2.1-.94c-.8-.27-1.62-.5-2.42-.76a10.28,10.28,0,0,1-2.26-.92c-.71-.43-1.39-.91-2.06-1.41a14.39,14.39,0,0,1-2.86-2.76,11.1,11.1,0,0,1-2-4.37,16.11,16.11,0,0,1-.36-4.4,8.5,8.5,0,0,1,1.52-4.63,7,7,0,0,1,4.83-3A10.1,10.1,0,0,1,463,20.09a9.94,9.94,0,0,1,2.53,3.72,9.53,9.53,0,0,1,.58,4,7.5,7.5,0,0,1-.71,2.71.37.37,0,0,0,0,.42,11.38,11.38,0,0,1,1.73,3.62,13.69,13.69,0,0,1,.4,3.09,12.37,12.37,0,0,1-.33,3.44,10.53,10.53,0,0,1-1,2.56.52.52,0,0,0,0,.52,10.39,10.39,0,0,1,.66,2,8.94,8.94,0,0,1-.83,6.28,3.79,3.79,0,0,1-.75,1,2,2,0,0,1-1.21.55,1.16,1.16,0,0,1-.87-.28,3.14,3.14,0,0,1-.9-1.23c0-.06,0-.12-.07-.17a1,1,0,0,1,0-.95l.06.23a3.52,3.52,0,0,0,.87,1.59,1.13,1.13,0,0,0,1.28.27,1.91,1.91,0,0,0,.74-.51,4.65,4.65,0,0,0,.87-1.45,8.2,8.2,0,0,0,.64-2.87,6.94,6.94,0,0,0-.21-1.82,14.92,14.92,0,0,0-.78-2.34l-.2.17c-.38.34-.75.68-1.13,1a3.66,3.66,0,0,1-1.88.93,3.9,3.9,0,0,1-3.29-1,6.44,6.44,0,0,1-1-1.18c-.25-.36-.48-.73-.71-1.09l-.14-.21a6.78,6.78,0,0,1-4.36,1.35c0,.1.05.18.08.26A8.77,8.77,0,0,0,455,47.65a5.38,5.38,0,0,1,1.33,2.55,4.29,4.29,0,0,1,.08,1.6,1.35,1.35,0,0,1-.47.83l-.13.12a1.89,1.89,0,0,1,.22.16.56.56,0,0,1,.17.55c0,.21-.07.43-.11.64a.47.47,0,0,0,.12.45,4.1,4.1,0,0,1,.48.64l-.22-.11-6.07-3.23a8.29,8.29,0,0,0-.89-.4,1.34,1.34,0,0,0-.48-.08.41.41,0,0,0-.42.36.86.86,0,0,0,.08.59,6.41,6.41,0,0,0,.42.72,15.12,15.12,0,0,0,1.57,1.84,49.23,49.23,0,0,0,3.62,3.4.77.77,0,0,0,.63.21,2.57,2.57,0,0,1,.93,0,1.2,1.2,0,0,1,.24.09.47.47,0,0,1,.28.45c0,.23,0,.47,0,.7a.31.31,0,0,0,.18.33,3.84,3.84,0,0,1,.57.37c-1.09,0-2.18.07-3.31.08l.14.19c.49.59,1,1.18,1.46,1.78a6,6,0,0,1,.85,1.44,2.12,2.12,0,0,1,.14,1.32.65.65,0,0,1-.87.54,2.94,2.94,0,0,1-.81-.38l.1-.16c.11-.17.22-.34.32-.52a1.49,1.49,0,0,0,.12-1.24,6.31,6.31,0,0,0-.4-.94A10,10,0,0,0,453.69,61l-.22-.24a.55.55,0,0,0-.44-.17,13,13,0,0,0-2.78.28,6.18,6.18,0,0,0-.62.2,1.49,1.49,0,0,0-.25.13,1,1,0,0,0-.52,1.16,3.77,3.77,0,0,0,.38,1,10.7,10.7,0,0,0,1.33,1.91,24.18,24.18,0,0,0,2.28,2.36,1.28,1.28,0,0,0,.28.2l2.51,1.23.19.08V67.33l0,0a4.08,4.08,0,0,1,.32.35.41.41,0,0,1,0,.22c0,.56,0,1.12,0,1.68a.72.72,0,0,0,.14.43,10.17,10.17,0,0,0,2.52,2.57c.57.41,1.15.79,1.73,1.19a1.06,1.06,0,0,1,.18.15,1.06,1.06,0,0,1-.64-.09l-3.64-2.08-.25-.13a3.11,3.11,0,0,0,0,.63c0,.21,0,.42,0,.63v.62l0,0a3.67,3.67,0,0,1-.31-.3.34.34,0,0,1,0-.2c0-.47,0-.93,0-1.4a.27.27,0,0,0-.16-.28l-4.86-2.77a5.6,5.6,0,0,0-.78-.36,1.32,1.32,0,0,0-.48-.08.81.81,0,0,0-.82,1,2.31,2.31,0,0,0,.34.91,9.38,9.38,0,0,0,1.16,1.49A13,13,0,0,0,452,72.9c.49.38,1,.73,1.5,1.1a7.56,7.56,0,0,1,2.77,3.84,3.9,3.9,0,0,1,.17,1.24,1.48,1.48,0,0,1-1.7,1.45,2.51,2.51,0,0,1-1.5-.82,4.9,4.9,0,0,1-.78-1.13,9.73,9.73,0,0,1-1-2.63,6.76,6.76,0,0,1-.08-.69c0-.08,0-.15-.11-.18a4,4,0,0,0-2-.41,1.28,1.28,0,0,0-.29.06.59.59,0,0,0-.42.58,3,3,0,0,0,.17,1,7.66,7.66,0,0,0,1.21,2.19,19.92,19.92,0,0,0,2.93,3.15c.39.34.81.63,1.23,1a.81.81,0,0,1,.64-.46,1.71,1.71,0,0,1,.83.08,2.7,2.7,0,0,1,1.05.67,1,1,0,0,1,.31.8.54.54,0,0,1-.67.52,3,3,0,0,1-1.12-.49,1.32,1.32,0,0,0-.3-.16l.1.15c.33.41.67.82,1,1.24a3.34,3.34,0,0,1,.41.7.86.86,0,0,1-.17,1,1,1,0,0,1-1.09.24,7.55,7.55,0,0,1-.92-.45l-3.62-2.11a8.57,8.57,0,0,0-.79-.41.82.82,0,0,0-.38-.07.56.56,0,0,0-.57.59,1.91,1.91,0,0,0,.18.88,5,5,0,0,0,.76,1.2,14.08,14.08,0,0,0,2.14,2.07c.75.6,1.53,1.17,2.3,1.75l.22.17a1.06,1.06,0,0,1-.65-.12,22.48,22.48,0,0,1-3.51-2.77,8.88,8.88,0,0,1-1.45-1.79,4.19,4.19,0,0,1-.62-2.1,1.38,1.38,0,0,1,1.4-1.46,2.89,2.89,0,0,1,1.18.22,12.42,12.42,0,0,1,1.79.89l1.48.84a4,4,0,0,0,.47.21.54.54,0,0,0,.23,0c.1,0,.13-.07.09-.16a1.49,1.49,0,0,0-.12-.2c-.13-.2-.26-.39-.38-.59a1,1,0,0,1-.15-.34.47.47,0,0,0-.25-.34,15.18,15.18,0,0,1-2.33-2,18.59,18.59,0,0,1-2.29-2.67,6.66,6.66,0,0,1-1-2.08,2.85,2.85,0,0,1,0-1.45,2.24,2.24,0,0,1,1.87-1.63,4.74,4.74,0,0,1,1.41.07l.14,0h.09l-.2-.17c-.52-.42-1.05-.83-1.54-1.28a6,6,0,0,1-1.5-2.11,4.39,4.39,0,0,1-.34-1.61,1.22,1.22,0,0,1,.42-1,1.86,1.86,0,0,1,1.56-.45,4.89,4.89,0,0,1,1.39.46l.34.16ZM465,30.41l.08-.13a6.32,6.32,0,0,0,.7-2.35,8.32,8.32,0,0,0-.67-4.21,10.75,10.75,0,0,0-5.43-5.41,9.2,9.2,0,0,0-5.14-.76,7,7,0,0,0-2.71.88,7.12,7.12,0,0,0-3.17,3.89,9.42,9.42,0,0,0-.5,2.67,7.53,7.53,0,0,0,.06,1.56,8.85,8.85,0,0,0,.89,2.69,12.35,12.35,0,0,0,6,5.82c.87.4,1.78.74,2.68,1.07a14.49,14.49,0,0,1,5.48,3.57,11.27,11.27,0,0,1,2.39,3.53l.08.13c.15-.28.3-.52.43-.78a10.13,10.13,0,0,0,1-4.74,13.83,13.83,0,0,0-.24-2.45,10.76,10.76,0,0,0-1.81-4.15l-.12-.15-.19.29A9.66,9.66,0,0,1,463,33.53a6.71,6.71,0,0,1-4.1,1.57A4.8,4.8,0,0,1,457.6,35a1.14,1.14,0,0,0,.17.18c.32.2.64.41,1,.58a1.61,1.61,0,0,0,.58.13,3.36,3.36,0,0,0,1.89-.48l.19-.11a1,1,0,0,1-.46.58,2.89,2.89,0,0,1-2.75,0,5.6,5.6,0,0,1-1.31-1,1.4,1.4,0,0,0-.5-.32A5.72,5.72,0,0,1,454,32.93,5.41,5.41,0,0,1,452.77,30a1,1,0,0,1,.28-.73c0,.18,0,.31,0,.44s0,.26,0,.39a5,5,0,0,0,2.93,3.91l.14,0c-.09-.26-.18-.5-.26-.74a5.08,5.08,0,0,1-.13-1.83,3.63,3.63,0,0,1,1-2.36,4.41,4.41,0,0,1,2.89-1.35,5.24,5.24,0,0,1,3.53.94,8.84,8.84,0,0,1,1.62,1.47Zm-.14.41-.38-.45a8.13,8.13,0,0,0-1.67-1.44,4.94,4.94,0,0,0-3.6-.67,3.72,3.72,0,0,0-1.95.93,3.51,3.51,0,0,0-1.13,2.5,3.79,3.79,0,0,0,.32,1.86,1.88,1.88,0,0,0,1,1,2.8,2.8,0,0,0,1,.22,7.13,7.13,0,0,0,1.89-.2A6.55,6.55,0,0,0,464,32.14,8.84,8.84,0,0,0,464.9,30.81ZM449.45,47a4.38,4.38,0,0,0-.51.07.47.47,0,0,0-.39.59,1.73,1.73,0,0,0,.49,1,4.34,4.34,0,0,0,1,.83c1.46.86,2.92,1.72,4.43,2.48a4.81,4.81,0,0,0,.64.28.55.55,0,0,0,.78-.61,2.29,2.29,0,0,0-.42-1.14,4.79,4.79,0,0,0-1-1,13.56,13.56,0,0,0-3.5-2.07A4.74,4.74,0,0,0,449.45,47ZM452,41.33c0-.47,0-.88-.07-1.29a10.13,10.13,0,0,0-.43-2.35,4.5,4.5,0,0,0-.77-1.56,2,2,0,0,0-1.37-.75.76.76,0,0,0-.89.6,2.62,2.62,0,0,0,0,1.27,4.26,4.26,0,0,0,.88,1.8,10.32,10.32,0,0,0,2.41,2.14Zm.05,34.1c0,.12,0,.22,0,.32a2.8,2.8,0,0,0,.39.94,7.83,7.83,0,0,0,2,2.12,3.6,3.6,0,0,0,.61.34,1.06,1.06,0,0,0,.64.07.42.42,0,0,0,.38-.38,1.3,1.3,0,0,0,0-.41,1.32,1.32,0,0,0-.37-.61,7.88,7.88,0,0,0-.75-.69,17.13,17.13,0,0,0-2.77-1.67ZM454.65,83a4.22,4.22,0,0,0,1.44.83,1,1,0,0,0,.27.05c.18,0,.25-.07.25-.25a.64.64,0,0,0-.26-.47,2.25,2.25,0,0,0-1.34-.58m2.77-40.5a1.25,1.25,0,0,0,.47-.6.93.93,0,0,0,0-.36.23.23,0,0,0-.31-.21.35.35,0,0,0-.28.31A1.53,1.53,0,0,0,457.77,42.08Z"/><path d="M446.07,88.41l-.34-.71a.45.45,0,0,1,0-.16c0-.07,0-.14,0-.21q0-29.79,0-59.58V27.4a1.61,1.61,0,0,1,.21.35,1.69,1.69,0,0,1,.22.93q0,29.7,0,59.39v.32Z"/><path d="M443.68,37.21a1.56,1.56,0,0,1-1.85,1.59l-.3,0A1.54,1.54,0,0,1,440.32,37a1.5,1.5,0,0,1,1.44-1.42,2.55,2.55,0,0,1,.69,0A1.49,1.49,0,0,1,443.68,37.21ZM442,36.06a1.49,1.49,0,0,0-.84.2,1,1,0,0,0-.51,1,1,1,0,0,0,.54.94,1.73,1.73,0,0,0,1.55,0,1,1,0,0,0,.59-1,1,1,0,0,0-.59-1A1.52,1.52,0,0,0,442,36.06Z"/><path d="M443.58,67.38a.31.31,0,0,1,0,.08c0,.53,0,1.06,0,1.58a.92.92,0,0,1-1.41.68.75.75,0,0,1-.31-.37l-.09-.24-1.37.88c0-.17,0-.3,0-.43s.07-.13.14-.17l1-.64.21-.14V67.8h-1.33v-.41Zm-1.45.42c0,.39,0,.76,0,1.12a.49.49,0,0,0,.51.5.52.52,0,0,0,.57-.46,1.64,1.64,0,0,0,0-.28c0-.23,0-.47,0-.7a1.8,1.8,0,0,0,0-.18Z"/><path d="M442,65.81c-.18,0-.36,0-.53-.08a1.46,1.46,0,0,1-1.15-1.33,2.24,2.24,0,0,1,0-.62,1.4,1.4,0,0,1,1-1.1,2,2,0,0,1,1.28,0,1.47,1.47,0,0,1,1,1.31,2.24,2.24,0,0,1,0,.6A1.55,1.55,0,0,1,442,65.81Zm0-.49a1.55,1.55,0,0,0,.72-.14,1,1,0,0,0,.61-1,1,1,0,0,0-.6-1,1.7,1.7,0,0,0-1.5,0,1.11,1.11,0,0,0,0,2A1.65,1.65,0,0,0,442,65.32Z"/><path d="M440.42,71.88V71.5h3.15c.1.28.08.37-.15.52l-2.08,1.41-.24.17c.46,0,.87,0,1.27,0h1.23V74h-3.17c0-.06,0-.11,0-.16a.32.32,0,0,1,.18-.34L442.71,72a.88.88,0,0,0,.18-.16c-.41,0-.81,0-1.22,0Z"/><path d="M441.62,48.44l-.06.43a1.5,1.5,0,0,1-1.19-1.09,1.8,1.8,0,0,1,0-.76,1.46,1.46,0,0,1,1.25-1.24,2.06,2.06,0,0,1,1.1.08,1.4,1.4,0,0,1,1,1.29,2.41,2.41,0,0,1-.06.76,1.27,1.27,0,0,1-.9.91l-.1-.4.09-.06a1,1,0,0,0,.63-1,1.07,1.07,0,0,0-.78-1,1.85,1.85,0,0,0-1.17,0,1,1,0,0,0-.71,1.11,1,1,0,0,0,.79.95Z"/><path d="M440.42,52.62v-.45l1-.35c0-.08,0-.15,0-.23,0-.23,0-.47,0-.7s0-.27-.26-.38l-.7-.26v-.46c1.07.39,2.12.81,3.17,1.2,0,.06,0,.11,0,.15s0,.19,0,.3Zm1.35-1A5.16,5.16,0,0,0,443,51.2l-1.22-.45Z"/><path d="M441.38,78.25l-1-.36v-.45l.22.07,2.74,1c.25.1.23,0,.23.35,0,.06,0,.12,0,.2l-3.17,1.15V79.8l.76-.27c.2-.07.2-.07.2-.28S441.38,78.6,441.38,78.25Zm.38,1.07,1.29-.45c-.46-.17-.86-.33-1.29-.46Z"/><path d="M441.91,40.82h-1.48v-.43h3.17v2h-.38v-1.6h-.94v1.48h-.37C441.9,41.82,441.91,41.33,441.91,40.82Z"/><path d="M441.92,59.76h-1.49v-.41h3.17v2h-.37v-1.6h-.94v1.47h-.36Z"/><path d="M443.61,53.9v.41h-2.81v1.53h-.37V53.9Z"/><path d="M440.42,57.57v-.41h3.17v.41Z"/><path d="M440.42,76.17v-.41h3.17v.41Z"/><path d="M729.67,21.39v3.14c0,1.47-.68,2.44-2.11,2.44a1.82,1.82,0,0,1-1.94-1.35h0c-.1.64-.37,1.59-2.13,1.59-1,0-2.38-.44-2.38-2.84v-3Zm-7.09,2V24a1,1,0,0,0,1.12,1.09c.84,0,1.2-.43,1.2-1.06v-.65Zm3.66,0V24a.89.89,0,0,0,1,1,.87.87,0,0,0,.92-1v-.56Z"/><path d="M729.67,28.28v5H728V30.3h-1.72v2.76h-1.63V30.3h-2v3.08h-1.63v-5.1Z"/><path d="M723.71,36h-.3c-.65,0-1.14.18-1.14.88s.53.91,1,.91c1.85,0,.82-3.69,4-3.69,1.37,0,2.52.73,2.52,2.81s-1,2.74-2.34,2.74h-.2V37.66a1.77,1.77,0,0,0,.9-.17.64.64,0,0,0,.3-.61c0-.5-.3-.81-.93-.81-1.79,0-.89,3.69-3.92,3.69-1.95,0-2.73-1.08-2.73-2.93,0-1.47.44-2.82,2.24-2.82h.55Z"/><path d="M728,42v-1.8h1.63V45.8H728V44h-6.95V42Z"/><path d="M729.67,49.62v3.14c0,1.47-.68,2.44-2.11,2.44a1.82,1.82,0,0,1-1.94-1.35h0c-.1.64-.37,1.59-2.13,1.59-1,0-2.38-.44-2.38-2.84v-3Zm-7.09,2v.61a1,1,0,0,0,1.12,1.09c.84,0,1.2-.43,1.2-1.06v-.65Zm3.66,0v.55a.89.89,0,0,0,1,1,.87.87,0,0,0,.92-1v-.56Z"/><path d="M729.67,58.1v2.52l-8.58,2.14V60.67l1.63-.31V58.31l-1.63-.3V55.91Zm-1.56,1.23v0l-3.82-.71v1.47Z"/><path d="M729.67,63.41v3c0,2-1,2.85-4,2.85s-4.57-.4-4.57-3.05V63.41Zm-7.09,2V66c0,.94.37,1.26,2.94,1.26,2.09,0,2.66-.17,2.66-1.24v-.56Z"/><path d="M727.07,73.93c.55,0,1.43-.06,1.43-.81s-.84-.93-3.12-.93-3.1.12-3.1.93.62.92,1.8.92h.28V73.1h1.35v2.82h-4.6V74.54l.82,0v0a1.8,1.8,0,0,1-1-1.85c0-2.15,1.6-2.51,4.28-2.51s4.64.19,4.64,3.05c0,2.61-1.8,2.72-2.78,2.72Z"/><path d="M729.67,77v5H728V79h-1.72v2.76h-1.63V79h-2v3.08h-1.63V77Z"/><path d="M729.67,83v3.39a2.06,2.06,0,0,1-2.24,2.31c-1.25,0-1.86-.51-2.09-1.44h0c-.18,1.29-1,1.36-2.14,1.38-1.69,0-1.86.1-2,.38h-.11V86.83a4,4,0,0,1,1.74-.22c1.49,0,1.8-.2,1.8-.84V85h-3.54V83Zm-3.62,2v.62a1,1,0,0,0,1.12,1c.65,0,1.08-.24,1.08-1V85Z"/><path d="M709.3,22.67H709c-.65,0-1.14.18-1.14.88s.53.91,1,.91c1.85,0,.82-3.69,4-3.69,1.37,0,2.52.73,2.52,2.81s-1,2.74-2.34,2.74h-.2V24.38a1.77,1.77,0,0,0,.9-.17.64.64,0,0,0,.3-.61c0-.5-.3-.81-.92-.81-1.79,0-.89,3.69-3.92,3.69-1.95,0-2.73-1.08-2.73-2.93,0-1.47.44-2.82,2.24-2.82h.55Z"/><path d="M715.26,27.45v2h-3.21v1.61h3.21v2h-8.58v-2h3.67V29.47h-3.67v-2Z"/><path d="M715.26,35.93v2.52l-8.58,2.14V38.5l1.63-.31V36.14l-1.63-.3V33.74Zm-1.56,1.23v0l-3.82-.71v1.47Z"/><path d="M715.26,40.28v2.16l-6.63,1v0l6.63,1v2.16l-8.58-1.95V42.16Z"/><path d="M715.26,47.33v5h-1.64V49.35h-1.72v2.76h-1.63V49.35h-2v3.08h-1.63v-5.1Z"/><path d="M715.26,56.46v3.14c0,1.47-.69,2.44-2.12,2.44a1.82,1.82,0,0,1-1.93-1.35h0c-.1.64-.37,1.59-2.13,1.59-1,0-2.38-.44-2.38-2.84v-3Zm-7.09,2v.61a1,1,0,0,0,1.12,1.09c.84,0,1.2-.43,1.2-1.06v-.65Zm3.67,0V59a.89.89,0,0,0,1,1,.87.87,0,0,0,.93-1v-.56Z"/><path d="M715.26,63.35v3.39A2.06,2.06,0,0,1,713,69c-1.25,0-1.86-.51-2.09-1.44h0c-.18,1.29-1,1.36-2.14,1.38-1.69,0-1.86.1-2,.38h-.11V67.19a4,4,0,0,1,1.74-.22c1.49,0,1.8-.2,1.8-.84v-.77h-3.55v-2Zm-3.62,2V66a1,1,0,0,0,1.12,1c.65,0,1.08-.24,1.08-1v-.61Z"/><path d="M709.52,75.78c-1.68,0-3-.48-3-2.82s1.32-2.82,3-2.82h5.74v2h-6.33c-.67,0-1.07.26-1.07.81s.4.81,1.07.81h6.33v2Z"/><path d="M709.3,78.59H709c-.65,0-1.14.18-1.14.88s.53.91,1,.91c1.85,0,.82-3.69,4-3.69,1.37,0,2.52.73,2.52,2.81s-1,2.74-2.34,2.74h-.2V80.3a1.77,1.77,0,0,0,.9-.17.64.64,0,0,0,.3-.61c0-.5-.3-.81-.92-.81-1.79,0-.89,3.69-3.92,3.69-1.95,0-2.73-1.08-2.73-2.93,0-1.47.44-2.82,2.24-2.82h.55Z"/><path d="M715.26,83.37v2h-3.21V87h3.21v2h-8.58V87h3.67V85.39h-3.67v-2Z"/></svg>