<svg id="Layer_1" data-name="Layer 1" xmlns="http://www.w3.org/2000/svg" width="367.2" height="460.8" viewBox="0 0 367.2 460.8"><title>Artboard 1</title><path d="M160,134.42a46.94,46.94,0,0,0,4.46-3.56c1.33-1.34,3.54-1.9,3.81-4.23,2.46.25.88,2.25,1.6,3.32-3.94,3.12-7.85,6.28-11.82,9.36-2.26,1.75-4.62,3.36-6.92,5.06a14.52,14.52,0,0,0-2,1.66c-1.1,1.17-2.24,2.16-4.3,1.77l.48,1.47c-1.6,1.28-3.36,2.57-5,4-2.74,2.44-5.38,5-8.1,7.47-2.18,2-4.45,3.86-6.62,5.85-1.75,1.6-3.4,3.32-5.12,4.95-2.49,2.35-5,4.66-7.52,7-4.2,3.91-8.41,7.81-12.58,11.75-4.65,4.39-9.31,8.77-13.86,13.26-2.33,2.3-4.44,4.84-6.57,7.18l.73,2.18a8.84,8.84,0,0,1-2.21.71c-4.76.23-9.53.46-14.29.51-3.6,0-7.2-.17-10.8-.33-3.86-.17-7.75-.17-11.57-.68-5.1-.68-10.14,0-15.43-.17v7.46c-1.9.13-2.56-.35-2.57-2.12,0-2.28,0-4.57.18-6.84.37-4.47.86-8.93,1.36-13.38.14-1.25.63-2.47.77-3.72.34-3,.22-6.12,1-9,.47-1.85.16-3.67.61-5.48s.32-3.76.7-5.59c.27-1.28,0-2.66.91-3.88.38-.51-.26-1.93.14-2.27.83-.71.36-1.45.46-2.16a17.3,17.3,0,0,0,2.45-.17c2.23-.47,4.48-.21,6.72-.27,1.37,0,2.75-.36,4.1-.28,2.52.15,5.14-1.06,7.58.51a2.33,2.33,0,0,0,1.2.13l10.86-.22c.29,0,.59-.06,1.08-.11L60.66,162c-3.65.13-7.88.18-12.09.5-1.37.1-2.08-.34-2.43-1.45-.71-2.25-.88-4.47.79-6.49a10.18,10.18,0,0,0,1.7-2.69c2-5.19,5.93-8.58,10.56-11.32.71-.42,1.4-.86,2.15-1.32-.19-3.68,2-6.35,4.17-8.91,2.41-2.79,5-5.4,7.55-8.1,2.66-2.86,5.39-5.67,7.91-8.66a62.46,62.46,0,0,0,3.67-5.5,3.12,3.12,0,0,1,1.14-1.2,7,7,0,0,0,4.12-4c1.31.54,1.31,1.3.7,2.2a47.22,47.22,0,0,0-3.4,5.49l5.8-5.27a1.68,1.68,0,0,1,.13,2.53A42.71,42.71,0,0,1,87,114.53a4.08,4.08,0,0,0-1,1.81A12.39,12.39,0,0,0,92,113.11c1-1.09,2.81-1.3,3.57-2.82a13.91,13.91,0,0,1,1.23-1.72A8.41,8.41,0,0,1,97.92,107c.3-.26.87-.19,1.33-.27a3.89,3.89,0,0,1,.22,1.53c-.14.51-.66.9-1,1.37-2.6,3.67-4.63,7.75-8,10.85a10.38,10.38,0,0,0-1.42,2.18l.38.3c.8-.86,1.62-1.71,2.4-2.59,1.68-1.89,4.23-2.92,5.27-5.42,2.6-1,3.69-3.6,5.57-5.37.91-.85,1.49-.71,2.4,0a10.17,10.17,0,0,1-1.08,1.61c-.83.84-1.55,1.58-1.27,3,.11.55-.46,1.39-.95,1.88a82.56,82.56,0,0,0-6.87,8.27c-1.84,2.37-4.09,4.42-6.16,6.62l-1.65,1.74.3.38a6.45,6.45,0,0,0,1-.6c3.49-3,7-5.93,10.42-9.05a60.33,60.33,0,0,0,8.7-9.73c2-2.88,4.28-5.57,6.47-8.32.67-.84,1.44-1.7,2.74-.7-.19,2.15-1.79,3.6-2.88,5.28a47.94,47.94,0,0,1-4.21,5.46c-2,2.27-4.12,4.44-6.23,6.61-1.08,1.11-2.23,2.14-3.32,3.18,1.19,1.93,1.13,2.22-.25,3.42-.78.68-1.45,1.51-2.27,2.15-3.88,3-7.8,6-11.84,9,2.07,1.57,2.23,3.81,1.7,6.24-.5,2.24-.91,4.51-1.46,6.74a13.45,13.45,0,0,1-1.1,2.68c-1.06,2.13-2.27,4.18-3.2,6.36a3.1,3.1,0,0,1-2.95,2.13c-3.3.26-6.59.65-9.88,1-.18,0-.35.24-.9.64l11.94.7a24.84,24.84,0,0,1,2-2.9c.64-.71,1.69-1.06,2.31-1.78a23.65,23.65,0,0,0,1.61-2.72c2.26-3.46,5.8-5.86,7.88-9.45,1.42-2.46,3.33-4.56,4.93-6.88a21.34,21.34,0,0,1,2-2.16c3.82-4.16,7.58-8.38,11.48-12.47,2.15-2.25,4.55-4.25,6.78-6.42,4-3.88,7.91-7.83,11.9-11.71,1.52-1.48,3.16-2.82,4.73-4.25s2.82-2.68,4.27-4c.78-.69,1.7-1.21,2.48-1.91,4.12-3.68,8.25-7.36,12.31-11.11,1.78-1.65,3.44-3.43,5.11-5.2.56-.59,1.1-1,1.91-.63a2,2,0,0,1,1.3,2.12c-.34,5.24-.43,10.5-.88,15.73-.4,4.62-1.23,9.21-1.73,13.83-.29,2.69-.3,5.41-.43,8.12s-.29,5.57-.4,8.36c0,1.06,0,2.13,0,3.2ZM85.78,137a12.26,12.26,0,0,0-2.51.1c-.41.1-.71.71-1.05,1.09.44.26,1,.83,1.29.71.93-.37,2.1-.62,2.23-2,.88-.12,1.65-.38,1.58-1.62Zm67.11-10.62c-2.94-.64-3.47-2.34-3.33-4.55.1-1.62,0-3.24,0-4.87a1,1,0,0,0-.42.66c-.69,3.47-1.32,6.95-2.08,10.4-.66,3-1.46,6-2.23,9a11.43,11.43,0,0,1-1,2.7,2.58,2.58,0,0,1-3.77.61,3.38,3.38,0,0,1-1.18-3.74q1.6-8.19,3.17-16.39c.24-1.26.42-2.54.63-3.81a5,5,0,0,0-1.69,2.24c-1.43,3.56-2.86,7.13-4.2,10.73-1,2.75-1.86,5.58-2.86,8.34-.8,2.2-2.17,4.29-2.45,6.54s-1.5,3.74-2.07,5.66a2.85,2.85,0,0,1-3.15,1.58c-1.71-.37-2.36-1-2.33-2.55a34.69,34.69,0,0,1,.41-5.15c.61-3.54,1.37-7.06,2.06-10.59.17-.85.3-1.7.48-2.79-.4.29-.6.35-.64.47-1.62,4.94-3.28,9.86-4.81,14.83-.88,2.85-1.51,5.77-2.32,8.64a45.2,45.2,0,0,1-1.65,4.88,2.24,2.24,0,0,1-1.36,1.14c-1.62.39-2.63-.72-2.44-2.72.26-2.81.56-5.63,1-8.42.58-3.72,1.3-7.42,1.93-11.13a8.2,8.2,0,0,0-.23-1.78c-.59,1.35-1,2.15-1.28,3-.81,2-1.74,4.06-2.35,6.16-1,3.32-1.63,6.73-2.59,10.06s-2,6.38-3.15,9.5a7.87,7.87,0,0,1-2,2.65c-.38.36-1.13.33-1.93.53-1.58-7.23.15-14.11.47-21.13-.21.23-.35.32-.39.45-2.24,7.12-4.48,14.24-6.05,21.55a42.8,42.8,0,0,1-1.86,5.86c-.18.49-.94,1.19-1.3,1.11a2.46,2.46,0,0,1-1.58-1.25,19.77,19.77,0,0,1-1.54-8.14c.06-2,0-4.07,0-6.54-.65,1.83-1.22,3.27-1.67,4.75s-.87,3-1.21,4.52-.57,2.91-.79,4.37a45.35,45.35,0,0,1-.61,4.64c-.37,1.42.83,3-.59,4.58a5.52,5.52,0,0,1-.6-1.48c-.29-8.2,2.31-15.81,4.64-23.6l-7.22,8.69,3.52.87v.65l-3.05,1c-1,4.21-.93,8.68-1.54,13.05s-1.44,8.77-2,13.18-.85,8.77-1.27,13.13c-1.53,0-1.77-.8-1.6-1.82a7.12,7.12,0,0,0,.38-1.9c-.5-3.75.46-7.37,1-11,.68-4.58,1.7-9.11,2.41-13.69.42-2.72.52-5.49.77-8.23.08-.85.22-1.7.33-2.55L81.3,169l-2.87,3.87c-2.76-1.48-.44-2.93-.07-4.53a45.47,45.47,0,0,0-4.72-.54c-5.85-.07-11.7-.05-17.55,0-3.62,0-7.24,0-10.86.17-3,.14-5.89.38-8.82-.38a8.66,8.66,0,0,0-5.5.22c-.73,7.15-1.43,14.18-2.17,21.21S26.6,203,26.69,210.34c1.11,0,2,0,2.89,0,2.65-.11,5.32-.47,8-.32,3.81.21,7.6,1.06,11.41,1.1,2.88,0,5.73.54,8.66.25s5.95.2,8.92.33,5.94-.49,9-.05a4.07,4.07,0,0,0,4.07-2.15A41,41,0,0,1,83,205.07a37.37,37.37,0,0,1,2.6-3.14c2.11-2.1,4.32-4.08,6.45-6.16.64-.62,1-1.6,1.74-2,3-1.85,4.79-4.84,7.39-7,2-1.68,3.82-3.53,5.73-5.29s3.75-3.33,5.55-5.07c2-2,4-4,6-6,.22-.22.6-.28.85-.48,1-.84,2.41-1.52,3-2.61,1.18-2.22,4.13-2.76,4.79-5.35,0-.1.3-.12.42-.22q4.23-3.58,8.44-7.18a1.75,1.75,0,0,0,.32-.64c.74-1.71,2.31-2.38,3.87-3.06.23-.1.66-.18.66-.29.06-1,.5-1.57,1.58-1.47,1.06-2.38,3.44-3.16,5.4-4.46.25-.17.62-.32.7-.55.68-2.06,3.12-2.43,4-4.25.15-.3.66-.46,1-.59a8.53,8.53,0,0,0,5.08-4.22c-2.07-1-2.32-2.57-1.93-4.53a27.89,27.89,0,0,0,.38-4.14c.16-3.44.09-6.91.43-10.33.46-4.64,1.28-9.25,1.8-13.89.35-3.08.34-6.21.71-9.29.34-2.86.09-5.86,1.63-8.59a2.73,2.73,0,0,0-1.29.84c-3,3.91-6.8,6.92-10.41,10.16-4,3.56-8.13,6.92-12,10.6-6.16,5.91-12.17,12-18.19,18-4.4,4.43-8.74,8.92-13.08,13.41-1.13,1.17-2.19,2.4-3.38,3.71a3.59,3.59,0,0,1,2.17,3.86c-.16,2.29-.16,4.61-.53,6.87a85.66,85.66,0,0,0-.89,11.26c0,1.07.08,2.14.12,3.21.63-.22.89-.45,1-.73,1-2.85,2-5.7,2.84-8.57.46-1.48.64-3,1.11-4.51,1.16-3.6,2.82-7.08,3.53-10.76.67-3.47,2.48-6.38,3.56-9.62.16-.49.67-.86,1.3-1.64.53,1,1.3,1.75,1.25,2.45-.23,3.3-.64,6.6-1.07,9.89-.62,4.71-1.79,9.34-2.14,14.09a4.56,4.56,0,0,0,.35,1.38,27.71,27.71,0,0,0,1.6-5c.42-1.58.48-3.58,1.5-4.6,1.53-1.53.3-3.22,1-4.65a9.41,9.41,0,0,0,.32-.92c1.58-4.12,2.76-8.37,4.11-12.56.69-2.15,1.6-4.22,2.44-6.42,1.23.43,2,.67,2,2a29.56,29.56,0,0,1-.52,8A62.14,62.14,0,0,0,126,147.86a2.62,2.62,0,0,0,1,2.19c.32-.47.56-.79.76-1.14,2.64-4.51,3-9.81,5.11-14.53.55-1.26.89-2.61,1.32-3.93.75-2.31,1.44-4.63,2.24-6.91a8.7,8.7,0,0,1,1.46-3,5.93,5.93,0,0,0,1-1.45c1.23-2.45,2.54-4.86,3.84-7.3,1.31.53,2.28,1,2.08,2.38-.71,4.71-.66,9.58-2.72,14a3.7,3.7,0,0,0-.2,1c-.36,2.26-.77,4.51-1.05,6.78a3.27,3.27,0,0,0,1.35,3.58c.36-1.25.71-2.31,1-3.39.32-1.35.52-2.73.84-4.08.24-1,1.1-1.67,1-2.91a12.57,12.57,0,0,1,.65-3.52,9,9,0,0,0,.41-1.8,12.44,12.44,0,0,1,1.33-6.6,3,3,0,0,0,.52-1.88c-.72-3.33,1.14-5.58,3.23-8.21a9,9,0,0,1,1,2.08,24.88,24.88,0,0,1-.3,10.61c-.21.73-.45,1.4.72,1.8a24.82,24.82,0,0,1,4.14-9C155.12,117.09,154.91,122,152.88,126.42ZM94.1,174.69c.72-2.49,1.4-4.65,1.95-6.84s1-4.62,1.54-6.9c.64-2.53,1.36-5,2.11-7.54.93-3.11,2-6.2,2.89-9.32a8.47,8.47,0,0,0,.11-2l-.56-.19c-1.17,1.47-2.71,2.79-3.38,4.46a8.88,8.88,0,0,1-2.07,3.18c-2.46,2.42-4.25,5.06-4.09,8.79.13,3.1-.26,6.22-.25,9.32A12.62,12.62,0,0,0,94.1,174.69ZM69,133c-2.07,1.49-2.32,3.64-2.46,5.81,1.06-.1,2.13-.24,3.19-.3a3.41,3.41,0,0,0,3.13-2c.59-1.16,1.31-2.25,2-3.43l-1.05-2c-1.38,1.52-2.56,2.75-3.64,4.07-.23.28,0,.88-.13,1.32s-.26.91-.41.91c-.42,0-1.13-.11-1.22-.36a4.39,4.39,0,0,1-.23-2.09A8.74,8.74,0,0,1,69,133Zm10.18-2.43c3.17-1.21,4.13-1.88,5.09-4.1a12.78,12.78,0,0,1,2.28-3.94,18.91,18.91,0,0,0,1.87-3C86.59,120.32,82.08,125.82,79.16,130.56ZM70,159.89c4.44.57,7-1.11,8-4.83-1.52.46-3,.82-3.9,2.15S71.7,158.89,70,159.89Zm-22.77.81,3.38-.19,3.19-.19c1-.07,2.22.26,3.24-1-.8-.23-1.45-.66-1.82-.49-2,.94-4,.16-5.92-.18S47.2,158.5,47.22,160.7Zm39-30-.34-.46-6.59,5.53.67,1.72Zm-2.44,19.6L79.28,157C82.19,155.87,83.29,153.59,83.79,150.35Zm-21,2.08-4.75,2.89a6.35,6.35,0,0,0,4.72-1.12C63,154,62.82,153.39,62.82,152.43Zm6.39,7.64c-.4-.49-.69-1.13-.95-1.11-1.55.12-3.09.38-4.64.59l0,.52Zm5.68-23.69c1.79-.28,2.66-1,3.62-3A5.35,5.35,0,0,0,74.88,136.38Zm-9.76,4.94-.18-.56-3.91.88.93,1.25c.58-.34,1-.64,1.53-.88S64.57,141.55,65.12,141.32Zm9.54-16.18c2.21-.27,2.68-.8,3.08-3.52ZM62.48,162c1.76,1.59,2.21,1.61,3.91.51Zm-11-12.53c1.55,0,2.63-.54,2.65-1.33l-.93-.66Zm48.3-22.66-.48-.51c-1.06.82-2.18,1.59-2.28,3.27ZM69.47,131.5l.43.32,2-2.45-.45-.38A4.62,4.62,0,0,0,69.47,131.5Zm5.28,31.42-.12-.63-2.17.44.08.46ZM64,154l2.48-.88C65.47,152.54,64.65,152.43,64,154ZM82.1,144c.09-.76.13-1.58-1.34-2.22Zm-5.24,7.11.47.16.43-1.23-.49-.17Zm4.55-2.18c.11-.12.2-.17.21-.23.06-.52.1-1,.16-1.63C80.35,147.55,81.37,148.24,81.42,148.94Zm-27.27-2.25c1.68.23,1.61-.5,1.8-1.64Zm23.15,16-1.13-1.08-.79,1.08ZM64.36,137.55l-.5.19L64.2,139l.64-.22Zm6.78,15.33.25.51,1.32-.63-.18-.39ZM75.86,138v.29h1.78v-.16Z" fill="#3974c0"/><path d="M24.65,328.59c2.85,1.07,5.47.36,8.06.45.8,0,1.6-.15,2.4-.13,3.12.07,6.23.22,9.35.28s6,.11,9.06.1c4.43,0,8.85-.12,13.28-.14a11,11,0,0,1,2.33.61A5.76,5.76,0,0,1,65,331.53l-16.3.54a5.4,5.4,0,0,0-.89.21l1,4.73c1.38,0,2.9-1.49,3.43.44-.61.91-1.4,1.59-1.52,2.38-.49,3.24-.8,6.5-1.13,9.76a6.54,6.54,0,0,0,.28,2.68c.1-.39.23-.77.3-1.16.31-1.92.11-4.12,1-5.68a16.86,16.86,0,0,0,1.52-4.39,15.74,15.74,0,0,0,.3-2.14c.11-.81.11-.81,1.93-1.46l-.46,15.33c.48-.74.87-1.07.91-1.44.48-4,2-7.75,1.65-11.83-.13-1.39,0-1.42,1.77-1.37,1.2,3.27.22,6.43-.47,9.63-.45,2.07-.72,4.17-1.15,6.79,1.6-1.94,3.9-11.34,4.38-16.79l2.2-1.64c1.15.34,1.57,1,1.6,2.46.13,5.11-1.79,9.76-3,14.58-.61,2.55-1.29,5.08-2,7.6-.57,2-1.18,4.06-1.9,6a3.46,3.46,0,0,0,.73,4A13.68,13.68,0,0,1,63,383c-.76,4.61-1.06,9.3-2.74,13.85a19.05,19.05,0,0,1-3.53,1.62c-2.29.56-4.66.84-7,1.22-1.28.21-2.59.31-3.85.61a28,28,0,0,1-12.71.07,11.66,11.66,0,0,0-2.2-.16c-1.85,0-2.43-.67-2.34-2.59a1.72,1.72,0,0,0-.06-.73c-1-2.37.08-4.3,1.23-6.23a20.81,20.81,0,0,0,2.39-7.35,31.77,31.77,0,0,1,2.07-6.51,3,3,0,0,0-.05-2.5,61.42,61.42,0,0,1-3.74-13.72,169.92,169.92,0,0,1-1-17.2c-.11-2.87.85-5.8,1.46-8.67.1-.46.89-1,1.43-1.08.35-.06.92.54,1.23,1,.63.83,1.15,1.75,1.76,2.68-.54.42-1.15.69-1.41,1.15a4.66,4.66,0,0,0-.2,1.71L36,341.52c.27-.32.47-.78.81-.92,1.57-.66,1.75-2,1.79-3.43,0-1.18.12-2.33,1.68-2.75a1.54,1.54,0,0,1,1,1.85c-.15,1.14-.15,2.31-.35,3.44-1,5.72-.13,11.36.33,17l.52.05c.42-2.09.86-4.18,1.27-6.27.56-2.91,1.13-5.82,1.63-8.75a30.92,30.92,0,0,0,.22-3.14c0-.38-.08-.87.11-1.12a2.79,2.79,0,0,0,.26-2.51,9.87,9.87,0,0,1,.5-3c-1.82-.1-3.74-.27-5.65-.31-3.45-.07-6.91,0-10.36-.13a25.22,25.22,0,0,1-5-1,1.73,1.73,0,0,1-1-1.16c-.34-2.08-.55-4.19-.77-6.29-.1-1,.15-1.95-.71-2.76-.25-.24-.12-.92-.1-1.39a151,151,0,0,1,3.67-24.61c1.37-6.1,2.75-12.2,3.76-18.36a93.93,93.93,0,0,0,1-12.54c.12-4.26-.13-8.54-.21-12.81a3.11,3.11,0,0,1,.09-.61c5.64-.7,11.22-1.43,16.81-2.06,2.35-.27,4.72-.31,7.07-.49,3.65-.28,7.29-.61,10.94-.87a51.06,51.06,0,0,1,5.16-.15c1.52,0,2.1.69,2.29,2.32a23.28,23.28,0,0,1,0,2.7q0,1.9,0,3.81c0,1.62-.09,3.24-.08,4.86a30.33,30.33,0,0,0,.2,3.42,33.9,33.9,0,0,1-.32,10.3,41.36,41.36,0,0,0-.35,4.92c-.32,5.23-.44,10.48-1,15.68a91.85,91.85,0,0,0,.07,14.65c.07,1.47,0,3,.06,4.43.17,3.52.39,7,.56,10.56,0,.86.22,1.91-1.5,1.78-.37-2.57-.91-5.15-1.07-7.74-.28-4.44-.32-8.89-.45-13.34-.3-10.08,1.06-20.05,1.86-30.06a84,84,0,0,0,.28-13.81c-.27-3.2-.09-6.43-.11-9.65,0-.9,0-1.8,0-2.74l-4.57-.64-.51,1.25a45,45,0,0,1-6,0c-3.65-.51-7.22.18-10.8.46-5.56.43-11.11,1.15-16.77,1.76,0,2.74.1,5.59,0,8.44-.25,6-.39,12-1,18a123.79,123.79,0,0,1-2.52,12.82c-1.61,7.46-3.44,14.88-4,22.54-.15,2.29-.71,4.56-.7,6.84C24.05,322.85,24.44,325.78,24.65,328.59Zm10.48,28.55a25.83,25.83,0,0,0,.63-14c-.22-1-.87-1.27-2-1C32.62,347.32,34.1,352.23,35.13,357.14Zm-.73,10.07A6,6,0,0,0,37.48,373l1.9-1.61C36.44,371.29,35.81,368.88,34.4,367.21Zm6.3-.41,1.24,3.46,3.69-1.87Zm7.08-3.34c0,1.31-.52,2.71.51,3.9C49.77,366.55,49.77,366.55,47.78,363.46Zm-9.17,4.38L38,363.09C37.82,364.61,36.27,366.24,38.61,367.85Zm15.67,29.6c1-.75,2.09-.41,2.24-2C55.65,395.95,54.41,395.33,54.29,397.45Zm-23.77-.63c2.12.63,2.34.52,2.6-1.24ZM39,376.64l-.41-.41-2.35,2.14C37.69,378.45,38.22,377.4,39,376.64Zm16.89-4.13c-.34.77-.52,1.47.78,1.83Z" fill="#3974c0"/><path d="M127,355.57c-3.94.15-7.87.5-11.79.88-5.22.52-10.44,1.08-15.65,1.74s-10.57,1.5-15.84,2.27c-.82.11-1.62.33-2.42.5,1.36,1.06,2.63,1.74,4.14.78a3,3,0,0,1,1.18-.31c4.89-.65,9.78-1.31,14.67-1.92,2.13-.27,4.27-.42,6.41-.63a8,8,0,0,1-5.58,3c-3,.38-5.33,2.15-7.67,3.74-2,1.36-3.57,3.3-5.38,4.93a14.16,14.16,0,0,1-1.85,1.2c-.44.3-.88.61-1.37,1l1.35,1.06L84.62,376l1,.76a59.2,59.2,0,0,0-1.26,6.76c-.43,6.35,2.33,11.23,7.38,14.9a22,22,0,0,0,8.54,3.6,17,17,0,0,0,9.93-.61,20.69,20.69,0,0,0,6-3.84c2.82-2.45,5.18-5.27,7.81-7.86a4.71,4.71,0,0,0,.77-1.67c.13-.32.17-.68.3-1a19.31,19.31,0,0,0,1.55-9.33c-.38-4.63-3.44-7.8-6.26-11.06-2-2.3-4.77-3.35-7.56-4.26-1-.32-1.85-.61-2.14-1.69,1.29-1.65,2.72-2.85,5-2.43a5.52,5.52,0,0,0,1.22-.14l11.69-.69c1.3,2.77.62,5.47.54,8.07-.12,4.33-.69,8.66-1.16,13-.63,5.89-1.35,11.76-2,17.66-.33,3-1,6-.45,9.13h1.76c.71-5.43,1.47-10.77,2.09-16.14s1.21-10.54,1.58-15.82.5-10.74.72-16.16C130,355.71,129.72,355.46,127,355.57Zm-26.47,10.72-1.89,2.29C98.74,366.86,98.74,366.86,100.58,366.29Zm-7.33,4.81.56.53c-.31.35-.63.69-.95,1l-.53-.48ZM94,388.49c-.19.37-.36.74-.54,1.11l-.57-.3.58-1.08ZM87.53,387c.32,2.36,2.38,2.59,3.85,3.71l-2,1.84C88.59,390.77,87.07,389.41,87.53,387Zm2.85,6.46c1.73.26,3.89,0,5.17.93,1.86,1.35,4.72.78,5.87,3.3a3.27,3.27,0,0,0,1.64,1.23c.28.12.74-.17,1.29-.31l.79,1.7C100.94,402.11,92,397.94,90.38,393.43Zm29.21-23.94,1.68,2-1.57,1.64c-.37-.37-1.08-.76-1.06-1.1A9,9,0,0,1,119.6,369.49Zm-8.36-6.12-2.24,1.9C109.6,363.79,109.6,363.79,111.24,363.37Z" fill="#3974c0"/><path d="M292.08,250.42a38.09,38.09,0,0,1,3.68-1c1.11-.2,1.81-.6,2-1.81a29,29,0,0,0,.64-3.12c.05-3.52,2-6.53,2.58-9.88.07-.4.17-.79.25-1.13a1.92,1.92,0,0,0-3-.28c-2.14,1.62-4.77,1.78-7.29,1.87-4.43.16-8.88-.11-13.31.05-3.18.11-6.34.63-9.51.95a3,3,0,0,1-1.89-.39l1.45-.93c-1-.53-2.82,1.31-3.09-1.37,1.8-.25,3.55-.6,5.32-.71,2.6-.15,5.23,0,7.83-.2,3.78-.25,7.54-.62,11.31-1,4.65-.46,9.29-1.17,14-1a7.13,7.13,0,0,1,1.15.27c-.35,1-.7,1.84-1,2.72-.5,1.65-1,3.31-1.41,5a3.84,3.84,0,0,0-.31,1.67c.54,2.38-.18,4.53-1,6.68a6.06,6.06,0,0,0-.19,1l7.37-1.2v-4.17l1.81.48c2,.5,4,1.1,6,1.46a7.77,7.77,0,0,1,4.73,2.38,73.81,73.81,0,0,1-7.54,7.64,16.85,16.85,0,0,1-3,1.61c-2.64-1.9-2.82-4.22-2-7.11-2.85.37-5.53.42-8,1.64a111,111,0,0,1-4.08,17c-.73,2.16-1.18,4.43-1.82,6.62-.75,2.56-1.6,5.09-4,6.69-1.19-.6-.9-1.45-.54-2.46,1.18-3.29,2.33-6.6,3.39-9.94.76-2.41,1.83-4.86,1.88-7.3s1.69-4.31,2.1-6.58c.18-1,.34-2,.54-3.15-.67.08-1,.11-1.29.16-3.45.57-5.84,2.19-6.49,5.93s-1.54,7.52-2.29,11.28c-.34,1.69-.6,3.39-1,5.5-1.56.16-3.38.42-5.2.5-3.67.16-7.35.1-11,.35-2.19.15-4.35.74-6.53,1.08-1.76.27-2.23,0-2-1.68a32,32,0,0,1,1.4-6.17c.91-2.69,1.2-5.51,2-8.24,1.49-5.09,2.48-10.32,3.68-15.5,0-.16.13-.31.16-.47.38-2.11.76-4.21,1.13-6.3,2.47.32,4.71.72,7,.88a36,36,0,0,0,4.12-.28c4.16-.19,8.32-.41,12.48-.52,2.61-.07,3.12.74,2.22,3.33C294.23,244.42,293.11,247.53,292.08,250.42ZM270.16,267.2c-.92-2-1.76-3.62-2.47-5.35-.14-.35.15-.94.36-1.36.33-.66.75-1.28,1.17-2-1-2-.09-3.37,1.44-4.59.61-.49,1.35-.88,1.27-2.11-1.66,1.37-3.52,2.26-4.05,4.26-1.33,5.09-2.56,10.2-3.8,15.31a13.88,13.88,0,0,0-.15,2.28l1.85-.08c4-.2,8-.42,12-.6a40.52,40.52,0,0,0,4.39-.07c1.37-.21,1.86-.06,1.51-2.6a23.53,23.53,0,0,0-3.5.56c-1.32.41-2-.27-2.69-1.14a1.78,1.78,0,0,1,.1-2.46,9.14,9.14,0,0,0,.78-1.82c-3.06,1.48-4.38,4.35-7,5.48C269.09,269.51,269.09,269.51,270.16,267.2Zm23.27-26.31-.43-.5c-1.57.47-3.34.06-4.83,1.25l1.35,1.75-6.38,5.8,1.43,2.58-2.72,2.91,1.22,1.15c1.65-1.15,3-2.19,4.48-3.1a3.7,3.7,0,0,0,1.76-1.91c.77-2.07,1.71-4.08,2.56-6.11C292.41,243.45,292.91,242.17,293.43,240.89Zm16.94,4.3c-.2,2.16.24,4-.73,5.73-.21.37,0,1,.1,2.05,2.07-2.55,5-3.5,6.31-6.28Zm-30.17,23.33,4.09.22,1.08-6-.39-.2Zm1.93-23,5-3.28c-.84-1.93-2.28-1.76-3.43-1.56ZM270.26,244l2.57-3.53-2.22-.36Zm11.35-3.46-3.67.25.26,1.89Zm4.61,18.93.66-3.29-2.5,1.58Zm5.48-25.75a11.73,11.73,0,0,0,5.36-.6l-.1-.51Zm-15.6,7-2.76-.58C274,241.93,274.88,241.58,276.11,240.71Zm-5.59,7.2-.39-.33-1,1.18.38.33Z" fill="#3974c0"/><path d="M287.91,283.84c-.47-1-1-1.63-2.08-.87a3.58,3.58,0,0,1-3.46.22,6.69,6.69,0,0,0-4.23-.15c-1.79.72-3.38-.09-5.05,0-2.69.19-5.41.11-8.11.15a32.69,32.69,0,0,1-4.84,0,9.62,9.62,0,0,0-8.87,3.07c-4.47,4.62-9.21,9-13.76,13.5-2.56,2.56-5,5.28-7.41,7.95-4.11,4.48-8.24,8.95-12.29,13.48-2.42,2.7-4.74,5.48-7.06,8.26-2.73,3.27-5.41,6.58-8.12,9.88-.77-.08-1-.53-.66-1.18a16.79,16.79,0,0,1,1.85-3.18q5.84-6.88,11.83-13.63,4.94-5.58,10-11c3.85-4.14,7.69-8.3,11.68-12.3,3.83-3.83,7.85-7.47,11.8-11.17,1.32-1.24,2.77-2.35,4-3.65a3.8,3.8,0,0,0,1.12-2.25,31.37,31.37,0,0,1,2-9.21,5.08,5.08,0,0,0,.13-1.14,27.78,27.78,0,0,1,2.8-10.78,2.1,2.1,0,0,0,.29-.92c0-4.23,1.45-8.2,2.28-12.28,0-.16.14-.35.09-.48-1.13-2.61.4-4.78,1.13-7.09.38-1.21.75-2.42,1.18-3.81l1.7.69c-.46.94-.88,1.73-1.22,2.55a6.17,6.17,0,0,0-.7,4.21,10.62,10.62,0,0,1-.38,4.38c-.73,3.71-1.49,7.42-2.39,11.09s-2,7.14-2.9,10.72c-1,3.74-1.94,7.48-2.89,11.23a9,9,0,0,0-.13,1.29,8.55,8.55,0,0,0,1.51.19c3-.17,6.08-.44,9.12-.55s6,.08,9-.08a67.07,67.07,0,0,1,8.56.49,10.41,10.41,0,0,0,2.89-.39,1.82,1.82,0,0,1,2.3,1.24c.62,1.5,1.39,2.92,1.31,4.66-.2,4.43-.5,8.88-.37,13.31a75.42,75.42,0,0,1-1,12.47c-.5,3.66-.52,7.39-.72,11.09A3.93,3.93,0,0,0,288,325c.32,1.18-.08,2.91-1,3.42-3,1.73-5.3,4.22-7.84,6.46-1.34,1.19-2.75,2.3-4.08,3.5-2.28,2.08-4.52,4.21-6.77,6.32-.65.61-1.27,1.27-2,1.84-5.11,4.24-8.88,9.77-13.8,14.2a34,34,0,0,0-4,4.94c-1.93,2.55-4.66,3.65-7.65,4.25-.24,0-.54-.33-.83-.46a6.61,6.61,0,0,0-5,0l2.23,1-.05.45a3.28,3.28,0,0,1-1.22.29,29.62,29.62,0,0,0-8.45-.32,64.48,64.48,0,0,1-11.23-.09,48.42,48.42,0,0,0-10.27.71,10,10,0,0,0-1.71.21c-3,1-4.73-.83-6.21-3a2.51,2.51,0,0,1-.29-1.61c.6-4.64,1.22-9.28,1.92-13.91.27-1.77.77-3.51,1.11-5.27.38-2,.81-4.06-.89-6.06,2.52-.42,4.74-.76,7-1.17,2.63-.48,5.24-1.16,7.89-1.49a41.37,41.37,0,0,1,7.37-.33,53.91,53.91,0,0,0,10.54-.62c2.56-.36,5.19-1,7.81-.29,1.45.39,2.29-.29,3.09-1.4,3.73-5.2,7.4-10.44,11.31-15.5,2.37-3.07,5.1-5.87,7.74-8.73,3.17-3.44,6.41-6.81,9.64-10.19,2-2.07,4.13-4,6-6.16,2.58-3.07,4.93-6.34,7.39-9.51C286.42,285.61,287.17,284.74,287.91,283.84Zm.3,3.22-.53,0c-.72.78-1.45,1.55-2.16,2.33-1.14,1.26-2.33,2.49-3.4,3.81-2.25,2.77-4.33,5.69-6.69,8.35-2.15,2.42-4.57,4.59-6.49,7.24a26.78,26.78,0,0,1-2.69,2.75c-1.81,1.86-3.92,3.43-5.37,5.64-.57.87-1.23,1.69-1.86,2.52-1.74,2.33-4,4.2-5.37,6.88a16,16,0,0,1-2.88,4.54c-2.58,2.47-4.2,5.62-6.41,8.33a8,8,0,0,0-1.71,5.48c.06,3.37-.12,6.74-.28,10.11s-.48,6.73-.64,10.09a2.68,2.68,0,0,0,2.38,2.67,12.51,12.51,0,0,1,1.25-2.51c1.7-2.07,3.44-4.11,5.31-6,1.62-1.65,3.44-3.1,5.15-4.66a12.9,12.9,0,0,0,1.08-1.28c2.6-3.09,5-6.34,8.36-8.71a8,8,0,0,0,1-1.06A21.67,21.67,0,0,1,269,340.7c2.71-1.94,5-4.43,7.67-6.39a87.88,87.88,0,0,0,7.68-6.86,3,3,0,0,0,1-1.29,15.6,15.6,0,0,0,.25-2.91,115.66,115.66,0,0,1,1.19-14.14c.92-5.93,1-12,1.43-18C288.29,289.76,288.21,288.41,288.21,287.06Zm-47.62,53c-1.41.07-2.63.15-3.85.19-4.07.14-8,1.33-12.16,1a24.66,24.66,0,0,0-4.9,0c-5.51.66-11,1.46-16.35,2.18-.19,1.56-.43,2.84-.47,4.12-.07,2-1.41,4,.12,5.9.12.15,0,.48,0,.72-.19,1.46-.46,2.92-.56,4.39-.18,2.91-1,5.8-.57,8.66,1.48.83,2.83.41,4.21.16,2.09-.38,4.21-.57,6.31-.9a41,41,0,0,1,4.06-.77,82.34,82.34,0,0,1,10.75,0c2,.15,3.93.12,5.89.27s3.72.44,5.69.68a8.39,8.39,0,0,0,1-2.68c-.15-4.41,1.46-8.63,1.15-13.07-.18-2.54,1-5.09.28-7.72A30.83,30.83,0,0,1,240.59,340.07Zm-36.95,29.64c-1.63-1.18-1.63-1.18-2.36,0Z" fill="#3974c0"/><path d="M246.8,315.07c1.25-1,2.6-2.19,4-3.32.38-.31.78-.74,1.21-.79,1.24-.14,1.77-1.11,2.49-1.87a13.4,13.4,0,0,1,1.94-2.11c1.62-1.09,3.36-2,4.54-3.65.3-.43,1.32-.3,1.73-.7a21.6,21.6,0,0,0,2.5-3c1.37-1.92,2.62-3.93,4-5.8.28-.36,1.15-.27,1.75-.38.06.59.36,1.3.13,1.74a38.5,38.5,0,0,1-2.82,4.63c-2.4,3.33-4.83,6.62-7.37,9.84a21,21,0,0,1-3.34,3.19c-2.77,2.25-5.58,4.43-8.41,6.6a10.79,10.79,0,0,1-7,2.54c.06,1.2.15,2.4.16,3.6a8.26,8.26,0,0,1-1.53,5.08,38.11,38.11,0,0,0-2.63,5c-2.25.12-4.17.22-6.1.31a2.76,2.76,0,0,1-1-.09c-3.58-1.19-7.22-.88-10.88-.55a17.31,17.31,0,0,1-4.15-.24c-.62-.1-1.16-.65-2.11-1.22l3.67-.39-1.44-2.06c-.05-2,1.45-2.92,2.59-4.08.85-.86,1.61-1.82,2.49-2.64,1.82-1.71,3.65-3.4,5.55-5,.86-.72,2-1.15,2.89-1.83a1.87,1.87,0,0,0,.61-1.24c.27-3.63,2.39-6.39,4.29-9.24,1.22-1.83,2.56-3.57,3.86-5.35.23-.32.47-.78.79-.88,2-.63,3-2.53,4.24-3.9,1.68-1.83,4-2.47,5.63-4.48,1.24,1.94-.7,2.06-1.21,3.24l3,1.64c-.2,1-2,1.43-1.06,2.82a12.36,12.36,0,0,1,1.92-1.75c.47-.28,1.44-.44,1.74-.17a1.47,1.47,0,0,1-.12,2.19,46.1,46.1,0,0,0-3.2,3.4c-1.93,2.55-3.71,5.21-5.54,7.83a3.8,3.8,0,0,0-.33.83l.4.32,5.19-5a38.13,38.13,0,0,0,6.3-7.74,19.25,19.25,0,0,0,1.35-3.79c1.65.68,1.74.79,1.32,2.38a20.48,20.48,0,0,1-5.12,8.61C251.45,310.19,249.06,312.68,246.8,315.07ZM240,305.12c-.63-.26-1.18-.42-1.77.22a30.88,30.88,0,0,0-6,9,13,13,0,0,0-.53,2.23l3.61-.42c.48-1.87,1-4,1.58-6.08s1-4,3.14-4.93l2.78-3.93-.4-.3a28.55,28.55,0,0,0-2.44,2.66C239.73,303.88,240,304.59,240,305.12Zm-1.16,6.6a26.38,26.38,0,0,0,8.66-11.92C244.15,303.4,240.8,307,238.88,311.71Zm-8.45,22.36H236l1.31-2.78Zm6.6-16.17,2,.23,1.16-3.53-.33-.18Z" fill="#3974c0"/><path d="M198.67,259.19c3,.41,5.6.75,8.24,1.18.24,0,.39.63.8,1.36-1.16,0-2,.12-2.85.07-6.46-.39-12.91-.74-19.39-.91-8.16-.22-16.22.62-24.3,1.45-6.87.71-13.74,1.35-20.61,2-.68.07-1.51.43-1.86-.72,1.13-1.56,3.21-.08,4.56-1.48l-.72-6-.29.07a8.13,8.13,0,0,0,.83-2.11c.34-3.6.65-7.21.81-10.82.13-3.1-.07-6.22.07-9.33.22-4.82.62-9.63.91-14.45.06-1-.09-2-.09-2.95,0-4.85,0-9.69.12-14.54s.29-9.57.43-14.36c.09-3,.13-5.92.24-8.87.07-1.8.11-1.8,2.29-2.47-.08,1.09-.23,2.08-.22,3.07.12,6.69-.15,13.38-.52,20.06-.16,2.87-.15,5.75-.11,8.63s.24,5.72.32,8.58c0,1-.08,2.08-.13,3.12-.26,5.4-.56,10.8-.78,16.2-.14,3.52-.06,7-.26,10.56-.22,3.91,0,7.86-.91,11.74a17.49,17.49,0,0,0,0,3.67,23.79,23.79,0,0,0,6-.26q4-.62,8-1.19c1.36-.2,2.73-.34,4.09-.53.57-.08,1.13-.29,1.7-.32,5.75-.27,11.51-.6,17.27-.72,4.18-.09,8.36.1,12.54.15a10.29,10.29,0,0,0,1.14-.13c-.13-3.43-.32-6.76-.38-10.09-.07-4.26.11-8.53-.1-12.79-.18-3.67.2-7.37-.72-11a29.25,29.25,0,0,1-.32-5.6c-.1-2-.29-3.92-.3-5.89,0-1.72.21-3.43.22-5.15,0-2.18-.13-4.35-.16-6.53,0-4.27-.3-8.56,0-12.8.24-3.17.36-6.32.32-9.5,0-2.27.12-4.55.2-7.09-1.55,0-3.08-.11-4.6-.11-7.72,0-15.44.3-23.13,1-6.13.55-12.24,1.31-18.36,2-1.09.12-2.19.18-2.48-1.5,16.13-2.22,32.27-3.65,48.68-3.23l.42-.74c.64-1.1,1.16-1.27,1.65-.3a1.47,1.47,0,0,0,1.77.86c1.14-.11,2.28-.31,3.43-.36s2,0,3.54.09c-1.45,1.65-3,1.53-4.32,1.81a42,42,0,0,1-4.41.45c0,2.44,0,4.81,0,7.19,0,4.43,0,8.87-.15,13.3-.35,8.68.06,17.34.33,26,.16,5.1.74,10.18.92,15.27.25,6.94.29,13.88.44,20.82C198.51,256.35,198.6,257.74,198.67,259.19Z" fill="#3974c0"/><path d="M148.06,252.38a6.55,6.55,0,0,1,.19-1.73,44,44,0,0,1,2.82-6.73A36.38,36.38,0,0,0,153,239c.63-1.51.81-1.74,2.49-1.39,4,.83,4.85,2.7,2.57,6a46.22,46.22,0,0,1-3,3.62l1.81,3.23c1,0,1.58-.69,2.13-1.55.7-1.11,1.49-2.17,2.24-3.25a2,2,0,0,1,2.59-.72,2.16,2.16,0,0,1,1.6,2.23c0,.72-.16,1.44-.31,2.74,1.26-1.29,2.23-2.14,3-3.14,1.2-1.5,1.15-1.54,2.74-.26,1.13-.41,2.38-.69,2.63-2.21-.83-.9-2.83,1-3.11-1.56a11.28,11.28,0,0,1,2.34-.91,4.33,4.33,0,0,0,3.63-2.57,5.37,5.37,0,0,1,1.35-1.74,1.44,1.44,0,0,1,1.28-.24c.25.12.39.81.32,1.21a13.14,13.14,0,0,1-.77,2.12L189.84,238c.62,1.45.28,2-1,2.31-2.57.56-5.1,1.33-7.68,1.86-2.38.49-4.66,1-5.31,4,1,.2,2.18.53,1.94,2.62,1.34-1.34,2.28-2.24,3.16-3.19.62-.67,1.29-1.11,2.14-.54s.52,1.24.18,2c-.42.89-.74,1.82-1.1,2.75,2.08.34,2.44.12,6.12-3.6,1.18.71.53,1.66.08,2.27a11.82,11.82,0,0,1-4.69,3.87c-2.52,1.14-3.56.57-4.17-2.46a20.84,20.84,0,0,0-3.31,1.29c-2.21,1.32-2.34,1.37-4.43-.29-1.7.78-3.36,2-5.22.79a18.92,18.92,0,0,0-2.81.24,5,5,0,0,0-1.6.94c-1.61,1.13-3.1,1-4.6-.48-1.77,1.76-3.75.63-5.69.36C150.76,252.56,149.66,252.52,148.06,252.38Zm7-12.74-2.83,6.57c3.06-1.39,4.33-3.58,5.13-6.37Zm-5.34,11.93a25.24,25.24,0,0,0,3.39-.59,1.55,1.55,0,0,0,.31-2.73,20,20,0,0,0-1.79-1Zm10.29-.1c2.7-.89,3-1.37,2.61-3.48C160.54,249.45,160.54,249.45,160,251.47Zm15.19-3.92c-1.7,1.3-1.71,1.46-.27,2.5Z" fill="#3974c0"/><path d="M119.68,45.29l4.6-.41c.34,2.26.53,4.33-.71,6.27-.62,1-2.63,2.17-3.82,1.93s-1.5-1.41-1.88-2.38a16.23,16.23,0,0,1-.51-2c-.38-.07-.84-.13-1.29-.23s-.75-.19-1.14-.29c-.15,1.19-.21,2.26-.43,3.3-.48,2.24-1.34,2.66-3.48,1.83a6.68,6.68,0,0,0-.95-.22l-1.7,5.18c-1.4-.2-1.63-.75-1.47-1.79.26-1.69.3-3.41.48-5.66-.7.69-1,1-1.34,1.33a3.89,3.89,0,0,1-5.28.86,3.06,3.06,0,0,0-2.93-.28c-1.88.59-3.88.69-5.49-.88l-1,1.11c-1.93-1.09-.3-3.87-2.37-4.8-2.9,1.61-2.53,5.16-4.75,7.76l-.67-1.83c.38-1.06.91-2.5,1.44-3.95a6.21,6.21,0,0,1,.82-2c.8-.88,1.77-2.11,2.76-2.19,1.46-.13,2.67,1.07,3.39,2.46a5.47,5.47,0,0,1,.29,1.2c.8-1,1.51-1.85,2.27-2.7a7.81,7.81,0,0,1,1.28-1.16c.85-.61,1.82-1,2.73-.22s.53,1.74,0,2.69c-1,.17-1.62-1.69-2.49-.48-.7,1-2.39,1.35-2,3,3.18.57,4.75-.07,6.42-2.68a9.17,9.17,0,0,1,4-3.21,2.25,2.25,0,0,1,1.63,0,1,1,0,0,1,.23,1.77c-1.08.84-2.24,1.57-3.38,2.32-.27.17-.74.12-.9.34a11.57,11.57,0,0,0-.87,1.64,4.92,4.92,0,0,0,1.68.59,6,6,0,0,0,4.38-2.72c1-1.38,1.52-3.2,2.23-4.83.13-.3.12-.69.31-.92.49-.61,1-1.4,1.63-1.67.85-.35,1.55.29,1.94,1.11.62,1.29,1.23,2.59,2,4.17l1.92-.47c.33-2.18.63-4.28,1-6.37a16.68,16.68,0,0,1,.51-1.9c.19-.64.37-1.35,1.26-1.22s.71,1,.64,1.58c-.23,1.93-.57,3.84-.86,5.76C119.69,44.33,119.7,44.65,119.68,45.29Zm-7.76-.83a9.93,9.93,0,0,0-1.57,6.72l2.09.67A12.43,12.43,0,0,0,111.92,44.47Zm7.93,6.13c2.12-.29,2.52-.77,3-3.6l-3,1.14Z" fill="#3974c0"/><path d="M96.21,82.35a6.56,6.56,0,0,1-.52.92c-4,5.07-8.12,10.13-12.16,15.2-2.39,3-4.5,6.29-7.17,9-3,3.07-5.08,6.77-7.92,9.93-3.53,3.92-6.63,8.24-9.94,12.36-4.27,5.32-8.57,10.6-12.83,15.92-3.43,4.27-6.88,8.53-10.21,12.87-1.37,1.79-2.47,3.79-3.79,5.84l-1.33-.94c.34-2.87,1.92-4.89,3.64-6.87s3.09-3.93,4.67-5.87c.9-1.11,1.94-2.12,2.84-3.23,2.1-2.59,4.12-5.23,6.22-7.81,2.69-3.31,5.1-6.85,8.23-9.81a57.93,57.93,0,0,0,4-4.9c2.33-2.75,4.84-5.37,7-8.24a40.3,40.3,0,0,1,5.2-6.05c.27-2.31,2.41-3.19,3.66-4.74,3.42-4.25,6.83-8.52,10.26-12.77.72-.89,1.53-1.69,2.28-2.56,2.13-2.48,4.23-5,6.37-7.44a12.15,12.15,0,0,1,1.17-1.05Z" fill="#3974c0"/><path d="M50.46,319.55l1.86.8c.58-.53,1.14-1.13,1.78-1.62a1.26,1.26,0,0,1,2.18.77c.12.47.15,1,.29,1.44s.36.91.55,1.39a8.28,8.28,0,0,1,1.54-.67,1.19,1.19,0,0,1,1,.27,1.07,1.07,0,0,1-.17,1,8.25,8.25,0,0,1-2.84,1.16c-1.12.11-1.33-1-1.57-1.9-.11-.4-.17-.8-.3-1.4-1.66,1.12-2.93,2.82-5.45,2.67l-1.08-2.19-4.93,2.85-1-1.39-5.72,2.48-.78-2.95c-2.15,2-4.27,3.77-7.77,3.16L31.5,324a2.29,2.29,0,0,0,1.63-2.24,1.93,1.93,0,0,0-1.89-1.85c-.12,0-.2-.24-.42-.5,1.47-2.17,4.14-3.68,4.4-6.89h-2.9l-5,14.5c-1.34-.88-.89-1.77-.62-2.53.87-2.49,1.87-4.93,2.69-7.43a16.43,16.43,0,0,0,.8-4.05c.06-1,.33-1.58,1.32-1.71a15.25,15.25,0,0,1,2.93-.29c1.86.12,2.74,1.4,2,3.08a57.68,57.68,0,0,1-3.11,5.27l1.6,1.87c.88-.5,1.81-1,2.69-1.52,2.14-1.33,2.59-1.16,3.34,1.58a15.61,15.61,0,0,1,1.27-1.53,8.64,8.64,0,0,1,1.29-.84,11.23,11.23,0,0,1,.77,1.38,2.78,2.78,0,0,1,0,1c2.3-.38,4.19-2.18,5.75-5.5-.71-.92-2.67.91-2.84-1.53l4.5-1.14,2.52-4.68,1.75.75-1.63,3.17h6.14c.2,1.18-.33,1.38-1.07,1.46-1.39.16-2.77.41-4.15.54a4.31,4.31,0,0,0-3.69,2.77Z" fill="#3974c0"/><path d="M313.72,214.57c-2.22-1.16-2.92-2.39-2.5-4.28.37-1.66,2-2.83,4.18-2.89l.84-2.74c-2.24.29-3.5,1.82-5.27,2.72-.43-.83-.87-1.57,0-2.18a42.27,42.27,0,0,1,5.22-3.15c1-.5,2.24.89,2,2.3-.19,1.21-.6,2.39-.9,3.59a8.38,8.38,0,0,0-.33,2.72l4.62-5c2,.42,1.33,2.07,1.77,3.52.85-.86,1.56-1.61,2.3-2.32s1.55-1.43,2.54-2.34l1.08,2.11c2.89-.74,4.67-3,6.67-5.08,1.95.94,2.64,2.72,1.76,5.19s-3.89,5.86-7,4.66c-2.38,2.18-2.08,5.82-4.65,8.13a7.34,7.34,0,0,1-.16-2.17c.48-2.08,1.05-4.15,1.72-6.18a2.92,2.92,0,0,0-.26-2.91c-1.62.38-2.33,1.9-3.46,2.85a15.83,15.83,0,0,1-1.53,1,18.46,18.46,0,0,1-.94-1.86,6.73,6.73,0,0,1-.11-1.61,39.68,39.68,0,0,1-3.56,3.5A35.93,35.93,0,0,1,313.72,214.57Zm22.69-9.94c-2.47,1.08-4.37,3-4.73,4.82C334.57,209.15,335.38,206.94,336.41,204.63ZM314,212.43l.54-.23c-.06-.88.79-1.72,0-2.79a1.89,1.89,0,0,0-1.35,2.08C313.24,211.82,313.75,212.11,314,212.43Z" fill="#3974c0"/><path d="M305.32,146.68a9.14,9.14,0,0,0-1.08,1.63c-.85,2.16-3,2.91-4.6,4.22a2.33,2.33,0,0,1-2,.21,3.14,3.14,0,0,1-1-4.9c.46-.55,1-1,1.46-1.58s.75-1,1.16-1.61l-1.59-2c.5-.57,1-1.61,1.5-1.6a2.68,2.68,0,0,1,2.09,1.24,5.53,5.53,0,0,1-.15,2.8c-.15.85-.41,1.64.82,2.12.64-.54,1.35-1.19,2.12-1.75s1.47-1.19,2.67-.7c.57.24,1.46-.29,2.28-.49a26.86,26.86,0,0,1,2.59-12.88,8.17,8.17,0,0,1,1.41,5.11,37.2,37.2,0,0,1-.3,4.42c-.22,2.7-.46,5.39-.65,8.09-.07,1,0,2,0,3.19-1.2.43-1.29-1.32-2.09-1.5l-3.57,3.3c-1.59-1.57-1.65-2.76-.49-6.92Z" fill="#3974c0"/><path d="M296.4,209.05c-.45-1.24-.19-1.89.92-2.2,1.89-.53,3.74-1.17,5.87-1.84l1.54-7.36c.62-.1,1.15.08,1.15.95,0,1.15-.06,2.3-.12,3.44,0,.71-.11,1.42-.18,2.18l3,.23c-.13,2.67-2.65,1.69-4.05,3.08-.12,1-.37,2.47-.41,3.92a2.21,2.21,0,0,0,.71,1.68c.77.5,1.57.06,2.17-.61l1.64-1.88c1.16,1.32.52,2.38-.31,3.12a4,4,0,0,1-4.31.87c-1.38-.58-1.78-1.78-1.74-3.23,0-1.12-.11-2.25-.19-3.6l-5.1,1.47c1.78.92,3,1.71,2.55,3.51a6.48,6.48,0,0,1-3.83,4.79,25,25,0,0,1-5.92,1c-1,.11-1-.06-2-1.66a10.16,10.16,0,0,0,8.4-2.17,3,3,0,0,0,1.52-3,15,15,0,0,0-5.67-.92A7.19,7.19,0,0,1,287,209.4c-.56-.42-1.35-1.09-1.33-1.62.06-2-.28-4,1.54-5.65,1.11-1,2.05-2.1,3.55-2.5a4.66,4.66,0,0,1,4.63,1.55,1.78,1.78,0,0,1,0,2.48c-.26-.18-.5-.27-.62-.45-1.48-2.23-2.58-2.48-4.86-1.19a5.43,5.43,0,0,0-2.38,3.33c-.64,2,.07,2.93,2.14,3.13S293.91,208.85,296.4,209.05Z" fill="#3974c0"/><path d="M264.11,184.41c0-1.06-.2-1.73,0-2.07.46-.64,1.14-1.46,1.81-1.54a3.17,3.17,0,0,1,2.39.88c.54.59.58,1.64.94,2.8a12.24,12.24,0,0,0,2.33-1.75c1.35-1.66,3.2-1.39,4.95-1.51.29,0,.6.43,1,.72l-7,3.93,3.61,1.9c.93.49,2.14.83,2.07,2.15a3,3,0,0,1-2.12,2.48,13,13,0,0,1-4.66,1.12l-.19-.48c.9-.48,1.82-.92,2.69-1.45s1.51-1.06,2.47-1.74l-5-2.85c.43,1.81.38,1.77-1.09,3.69a1.54,1.54,0,0,1-2.21.55v-2.68c-1.44,1-1.44,1-1.8,3.34l2.18.25c-1.51,1.73-2.79,1.94-4,.48a2,2,0,0,0-2.16-.6c-2.44.36-4.87.75-7.31,1.1-2.83.4-3.28-.1-2.25-2.9,1.48-4,3.1-8,4.69-11.94.6-1.51,1.27-3,1.91-4.51,1.23.48,1,1.29.66,2.07-1.15,2.9-2.36,5.78-3.47,8.7-.84,2.22-1.57,4.48-2.37,6.8,3.44.81,6.48-1.93,9.82-.17a8.85,8.85,0,0,1,4.31-5.55c1.21-.66.86-2,.48-3.41Z" fill="#3974c0"/><path d="M80.18,278.77c1.47,0,1.76.9,1.68,2-.28,3.6-.56,7.2-.91,10.8-.47,5-1,9.93-1.5,14.9a5.78,5.78,0,0,0,.1,1.14c2.06,1.19,4.46-1.08,6.5,1a18,18,0,0,0-3.58,11.8c-1.79.25-3.07-.06-3.93-1.37q-2.57-3.9-5.06-7.85a3.65,3.65,0,0,1-.27-1c.82-.55,1.26-.29,1.79.46,1.47,2.07,3.06,4.07,4.61,6.08a5.86,5.86,0,0,0,.75.67l2.1-7.66c-.94.08-1.88.13-2.82.26-2.14.28-4.12,0-5.68-1.66-.09-.1-.09-.3-.16-.57l3.52.26c.08-2.12.09-4.06.25-6a78.74,78.74,0,0,1,.94-8.75,60.38,60.38,0,0,0,1.37-13.85C79.88,279.25,80,279.1,80.18,278.77Z" fill="#3974c0"/><path d="M146.94,368.87a5.68,5.68,0,0,0,.52-1.81,25.67,25.67,0,0,1,.9-10.36,9.81,9.81,0,0,0-.1-2.65c0-1.19-.59-2.76.79-3.35,1.67-.71,3.51-1.48,5.38-.24a5.28,5.28,0,0,1,2.3,5.91c-.23.94-.73,1.82-1,2.74-.37,1.12-.67,2.2.72,3a3.78,3.78,0,0,1,1.24,1.49c1,1.85-.3,5-2.34,5.59a39.77,39.77,0,0,1-4,.85A4.44,4.44,0,0,1,146.94,368.87Zm3.38-16.16v15c4.38-.52,5.57-1.62,5-4.68a7.79,7.79,0,0,0-.86-.28c-2.68-.55-3-1.21-1.65-3.66A15.26,15.26,0,0,0,154.3,356c.3-1.11,1.36-2.32.23-3.46s-2.61-.32-3.92,0C150.54,352.52,150.48,352.6,150.32,352.71Z" fill="#3974c0"/><path d="M126.47,406.56a2.08,2.08,0,0,1-1.86,2.16,5.09,5.09,0,0,1-2,.14c-4.73-.89-9.49-.41-14.25-.37-3.75,0-7.51-.22-11.27-.29-4.8-.09-9.44,1-14.11,1.9-1.94.37-2,.3-2.47-1.9,1.8-.39,3.6-.87,5.42-1.16a103.39,103.39,0,0,1,11.31-1.29c3.51-.17,7,.48,10.45.17,2.82-.25,5.67-.35,8.51-.35a51.34,51.34,0,0,1,5.15.47Z" fill="#3974c0"/><path d="M77.76,63.43c7.57-.86,14.65-1.8,21.76-2.42,8-.69,16.07-1.08,24.1-1.62,2.86-.19,5.72-.52,8.59-.62a25.13,25.13,0,0,1,4.63.38c.4.06.73.64,1.31,1.19a5.21,5.21,0,0,1-1.41.55c-5.76-.07-11.48.43-17.22.84-7.37.52-14.77.76-22.15,1.18-1.72.1-3.43.42-5.14.62q-5.87.67-11.75,1.31a6.37,6.37,0,0,1-2,0C78.29,64.74,78.16,64.18,77.76,63.43Z" fill="#3974c0"/><path d="M224.7,103.72l1.85-4.59c2.26-.81,2.7,1.7,4.23,2.06l4.15-3L236,92.12c1.43-.06,1.93.5,1.82,1.62-.14,1.47-.32,2.94-.43,4.41-.16,2.09-.31,4.18-.38,6.27a3.88,3.88,0,0,1-1.39,3.26l-.76-3.87c-1.47,1.11-2.33,3-4.49,2.29-1-1.09-.93-2.3-.09-3.69l-2.45-1c-.43,1.09-.82,2.14-1.25,3.17a4,4,0,0,1-.58,1c-.59.72-1.58-1.37-2.25.36-.2.51-1.6.64-2.48.79-1.88.33-2.6-.62-1.93-2.43.54-1.45,1.4-2.14,3.52-2.69l-.17-2.83L218.56,101c-.11-.26-.47-.69-.37-.9a4.74,4.74,0,0,1,3.44-2.53c1.69-.36,2.67.58,2.86,2.44a18,18,0,0,1,.1,2c0,.56-.09,1.12-.14,1.68Z" fill="#3974c0"/><path d="M217.17,126.75l-2.49-.42-2.25,4.35a6.29,6.29,0,0,1-.83,1.51,4.89,4.89,0,0,1-1.38.73,6,6,0,0,1-.37-1.48,2.83,2.83,0,0,1,.45-1.14c.89-1.76,1.79-3.51,2.87-5.64l-4.8,1c-.08,0-.15.07-.23.09C204,127,204,127,202.72,131.14L201.54,135c-1.25-.6-1.55-1.28-1.19-2.3.57-1.63,1-3.3,1.67-4.9,1.25-3.21,2.57-6.38,3.94-9.77,2.35-.31,4.93-.7,7.53-1a7.81,7.81,0,0,1,2.44.21c.3.06.51.53.76.81-.3.22-.58.59-.9.64-2.26.32-4.53.63-6.81.82a2.06,2.06,0,0,0-2.09,1.69c-.29,1-.76,2-1.22,3.13,2.3-.37,4.44-1.18,6.41-.9s3.84,1.66,6,2.66l1.66-1.27c1.82.63,2.38,1.4,2.36,3.32a4.19,4.19,0,0,1-2.59,3.84c-1.17.35-2,.06-2.25-1.18A22.18,22.18,0,0,1,217.17,126.75Zm1.24,3.26c2.13-1.22,2.26-1.75,1.15-3.46Z" fill="#3974c0"/><path d="M163.51,331.62c-3.08-1.64-.76-4.33-2.08-6.16-1.08.53-2.32,1.54-3.68.09a4,4,0,0,1-.86-4.74,17.91,17.91,0,0,1,1.94-3.42,4.79,4.79,0,0,1,1.93-1.43,1.79,1.79,0,0,1,1.48.33c.19.15,0,.85-.08,1.28a2,2,0,0,0-.07,1.33l1.29-1,1.22,2c.82-1.14,1.6-2.26,2.42-3.34.49-.65,1.08-1.6,1.94-1.07a2.94,2.94,0,0,1,1.34,2.15c-.19,2.47-.65,5.11-3.07,6.38-2.15,1.13-2.4,3-3,4.93C164.06,329.66,163.85,330.42,163.51,331.62Zm-3.13-11.9c-1.47,1.89-1.47,1.89-.91,3.73Zm8.22-1.4-.47-.24c-1.45,1.67-1.64,2.05-1.42,3.68Z" fill="#3974c0"/><path d="M349.47,141.18c-.6.37-1.16.53-1.44.9a25.65,25.65,0,0,1-2.14,3.27c-2.42,2.41-1.48,4.75,0,7.08.37.56,1.31.94.22,2-.51-.39-1.07-.79-1.6-1.21s-1-.84-1.59-1.32l-1.07.37c-.19-.2-.41-.34-.39-.43.43-2.19-.43-4.48.32-6.91l1.82,1,2.84-4.22c-1.11-.24-2.88,1-3-1.41,2-1.66,4.6-1,7.15-1.61l1.29-3.49c1.41.57,1.41.57,1.1,3.29.8,0,1.56,0,2.33,0s1.66-.16,1.79.83-.81,1.25-1.65,1.37l-3.45.46a12.93,12.93,0,0,0-.72,6.57c.32,2.08,1.07,2.54,3,1.73a40.37,40.37,0,0,0,3.62-2,5.33,5.33,0,0,1-3.69,4c-1.45.56-2.78.61-3.81-.64a4.35,4.35,0,0,1-1.11-2.29C349.26,146.25,349.41,144,349.47,141.18Z" fill="#3974c0"/><path d="M109.19,306.86c-1.37-.1-1.93-.54-2.2-1.61a9.24,9.24,0,0,1,.22-5.34c.69-2,1.56-3.94,2.32-5.91a2.71,2.71,0,0,0,.32-1.38c-.31-1.39.59-2.23,1.17-3.28.79-1.42,2-1.51,3.31-1.41s1.71,1.15,2.28,2.22c1.34,2.49.44,4.73-.37,7a16.44,16.44,0,0,1-.89,1.8c.25.38.46.72.7,1,1,1.38.83,2.8-.7,3.59a15.07,15.07,0,0,1-3.43,1.25C110.68,305.12,109.55,305.42,109.19,306.86Zm1.45-3.58,3.76-1.84-2.17-1.59,3.38-7.32-1.63-2.2a2.15,2.15,0,0,0-2.22,2C111.37,295.8,111,299.27,110.64,303.28Z" fill="#3974c0"/><path d="M81.34,406.9c-2,.1-2.29-.92-2.2-2.22.21-3.2.48-6.39.61-9.59.11-2.69,0-5.38.07-8.08,0-3.43.19-6.86.18-10.29,0-4.56.87-9.13-.21-13.67a3.05,3.05,0,0,1,.12-1c1.38-.23,1.83.55,2,1.65.14,1.31.31,2.62.32,3.93,0,5.6,0,11.21,0,16.81,0,3.7.15,7.4,0,11.1S81.64,403,81.34,406.9Z" fill="#3974c0"/><path d="M274.18,145.92a7.2,7.2,0,0,0,2-5.32,7.93,7.93,0,0,1,.4-2.67,1.6,1.6,0,0,1,1.17-.93c.36,0,.93.59,1.05,1a14.61,14.61,0,0,1-.08,7.55,5.84,5.84,0,0,0,.22,3.57,27.18,27.18,0,0,1,.67,2.88c-1.7.21-1.4-1.63-2-1.79l-3.16,1-1.57-3.81-1.26-.43-1.72,4.28-3.53-2.13c-1,1,.49,1.43,1.12,2.16a1.35,1.35,0,0,1-2.29,0c-1.51-1.71-.94-3.81,1.26-4.75,1.42-.61,1.42-.61,1-2.38l-3,2.3c-.67-.3-1.13-.65-.68-1.47.73-1.34,3-2.68,4.06-2.36s1.53,1.34,1.4,3.9c.76-1.69,1.68-1.87,3-1A5.69,5.69,0,0,0,274.18,145.92Z" fill="#3974c0"/><path d="M2.59,309.69,7.71,309c.11-6.72,2.16-13.25,1.12-20.47,1.4,1.22,2.1,2.24,2,3.65q-.27,4.18-.63,8.35c-.23,2.69-.5,5.37-.78,8.36a13.41,13.41,0,0,1,2.68-.23,5.2,5.2,0,0,1,1.57.67c-1,3.71-1.94,7.09-2.78,10.49a22,22,0,0,0-.07,2.35,4.3,4.3,0,0,1-.59,1.22c-.4-.22-.81-.42-1.19-.67-.11-.07-.11-.3-.16-.46a46.16,46.16,0,0,0-5.82-11.39A8.05,8.05,0,0,1,2.59,309.69Zm8.46,1.47-.59-.35c-.47.28-.93.76-1.4.77s-1.13-.5-1.71-.53a6.74,6.74,0,0,0-1.82.42l3.65,6Z" fill="#3974c0"/><path d="M213.53,80.87c.8.65,1.79,1.36,2.68,2.19,2,1.87,1.52,4.65-1.12,5.41a56.71,56.71,0,0,1-6.47,1,26.4,26.4,0,0,0-2.63.73,3.8,3.8,0,0,1-.5-3.74,41.42,41.42,0,0,1,3.77-9.07,6.12,6.12,0,0,0,.66-2.52c.11-1.82,1.09-2.95,3.39-3.57,1.29-.35,3.59.56,3.89,1.88a5.11,5.11,0,0,1-.56,3.26A41.52,41.52,0,0,1,213.53,80.87Zm-6.39,6.6.58.43c2.78-.85,6.2.08,8.19-2.89-1-3-4.21-2.51-6-4.68Zm3.5-8.19.46.33A9.7,9.7,0,0,0,215.28,75c.74-1.48.25-1.94-1.63-1.75Z" fill="#3974c0"/><path d="M161,81c-2.86,0-5.73,0-8.59,0-3.36-.07-6.72-.33-10.08-.32-5.08,0-10.17.15-15.25.32-8.78.29-17.55.66-26.33,1a34.5,34.5,0,0,1-3.8-.28l0-.5c2.54-.2,5.07-.45,7.62-.6,4-.24,8-.39,12-.62,3.75-.21,7.5-.65,11.25-.69,6.56-.08,13.12.07,19.68.11,3,0,6,0,9,0C158.16,79.4,159.86,79.13,161,81Z" fill="#3974c0"/><path d="M71.94,40.45a3.58,3.58,0,0,1-.28-.67c-.35-2.94-1.83-3.94-4.52-2.78a20.56,20.56,0,0,0-4.62,2.81,24.59,24.59,0,0,0-7.88,10.24,13,13,0,0,0-.47,1.4c-.79,3,.74,5.09,3.89,4.94a17.61,17.61,0,0,0,5.49-1.16c2.43-1,4.71-2.29,7.06-3.47.36-.18.7-.39,1.12-.62.57.73.71,1.41,0,1.94a28.4,28.4,0,0,1-3.27,2.14,23.37,23.37,0,0,1-9,3.16,10,10,0,0,1-3.42,0c-2.69-.69-4-2.9-3.69-5.8.46-4.09,2.6-7.38,5.22-10.37A22.1,22.1,0,0,1,64,36.68a9.39,9.39,0,0,1,5.89-1.25C72.62,35.88,73.43,37.82,71.94,40.45Z" fill="#3974c0"/><path d="M357.21,250.61c-1-.07-1.86-.13-2.67-.17-1.25,0-2.43-1.6-2.28-3.25a33,33,0,0,1,.74-3.63l-1.18-.35c-1.75,2.38-.23,5.89-2.67,8.12-1.31-2.15-.87-5.88,1.16-10.26l3.8,1a2,2,0,0,1,2.94-.82l.79,4.19,2.51-4.86a5.41,5.41,0,0,1,3.49,1.32c.56.41,1.06.9.59,1.64s-1.09.55-1.72.17a6.36,6.36,0,0,0-1-.38Z" fill="#3974c0"/><path d="M279.27,84.77c-2.48,0-3.21-.93-2.22-2.79a12.94,12.94,0,0,1,2.73-3.08c.31-.29,1-.17,1.57-.25a15.8,15.8,0,0,1-1.33,8.8c-1.47,3-1.53,3.11-5,3a54.53,54.53,0,0,0-1.19,12.92l-1.57-.8-3.65,2.83a2.6,2.6,0,0,1-.78-3.46,9.63,9.63,0,0,1,2.48-3.58,5.33,5.33,0,0,0,2.09-3.95c.17-1.94.4-3.88.59-5.68,1.5-.59,2.26,1.34,3.69.37S278.63,86.53,279.27,84.77Z" fill="#3974c0"/><path d="M284.38,135.64l-.65,9.25c2,.2,3.83.55,4.81,2.66a26.4,26.4,0,0,1,2-2.77c1.24-1.34,2.68-1,3.43.65s1.22,3.19.34,4.94a3.37,3.37,0,0,1-2.56,2c-1.29.2-1.93-.63-2.41-1.66-.1-.22-.25-.42-.15-.24l-6.63.59c-1.27-4.2-1.27-4.2,0-15.44Zm6.69,14.78c1.25-1.44,1.93-2.76,1.21-4.57C290.35,147.84,290.29,148,291.06,150.42Zm-7.28-1.49.36.58,3.42-1.17-1.75-1.74Z" fill="#3974c0"/><path d="M271.81,214.45l1.08-.32c-.67,1.71-2,2.88-3.12,2.77s-2.33-.16-2.94-1.43c-1.16-2.42.44-3.85,2-5.38-1-.95-1.16-2.1-.25-3a3,3,0,0,1,2.34-.87c1.73.54,1.36,2.09,1,3.53l2.44,1.58a36.08,36.08,0,0,1,1.4-3.43c.57-1.07,1.33-2,2.05-3.13.91.33,1.36.75.81,1.8a39.76,39.76,0,0,0-1.88,4c-.71,1.81-.56,2.12,1,3.29a10.82,10.82,0,0,1,1.1,1c.09.09.06.31.1.56-.93,1.33-2,0-3.26.15l-.56,3.48c-1,.19-1.54-.15-1.55-1.08a24,24,0,0,1,.18-3.19,1.94,1.94,0,0,0-1.55-2.49c-.46.65-.93,1.27-.34,2.15-1.57.28-2.13-.78-2.88-2l-.61,2.46Z" fill="#3974c0"/><path d="M129.59,50.82a8.11,8.11,0,0,1,1.57,0,12.53,12.53,0,0,0,5.36.14c2.45-.56,3.18-2.54,1.63-4.56a5.84,5.84,0,0,0-1-.82L135.39,47a1.17,1.17,0,0,1-.42-.07c-1.09-.65-1.13-1.37-.36-2.4,1.45-2,2.77-4,4.42-6.42-1.49.1-2.58.17-3.68.26s-2.12.2-3.18.29c-.76.07-1.33-.2-1.4-1s.59-1.09,1.27-1.16c3-.3,6-.58,9.06-.86a.86.86,0,0,1,.49,0c.45.28.88.61,1.46,1l-5.64,7.09c2.15,1.23,3.24,2.77,3.28,5.09a4.33,4.33,0,0,1-4.15,4.33c-1.89.17-3.86-.49-5.78-.9-.49-.1-.9-.62-1.34-.94Z" fill="#3974c0"/><path d="M252.66,214.39a13.88,13.88,0,0,0,4-7.07c.29-1.32.9-1.37,1.92-.8.22,2.37-1.46,4.89.57,7a3,3,0,0,0,2.67-1.63c1.63-2.4,3-4.92,2.82-8a5.32,5.32,0,0,1,.08-1.72c.1-.37.53-.66,1.09-1.3a12,12,0,0,1,.32,1.69c0,1.4,0,2.8,0,4.2a11.93,11.93,0,0,1-3.87,7.77,3.26,3.26,0,0,1-5.07-.87c-.18-.36-.3-.75-.6-1.53l-3.84,5.73a16.56,16.56,0,0,1-1.82-3.36,14.26,14.26,0,0,1-.3-7c.47-1.82.81-3.68,1.22-5.6,1.23-.11,1.36.64,1.2,1.52-.35,1.95-.8,3.87-1.13,5.82A7.25,7.25,0,0,0,252.66,214.39Z" fill="#3974c0"/><path d="M322.47,142.29c2.19.35,4-.55,5.93.59-1.81,1.83-4.27,1.14-6.46,2.23l-.45,5.23c3.23-.5,4.76-3,7.12-4.35a1.37,1.37,0,0,1,0,1.92c-.73,1-1.46,2-2.21,2.94a4.12,4.12,0,0,1-4.4,1.21,3.25,3.25,0,0,1-2.13-3.24c0-1.06.09-2.12.16-3.34h-4l-.49-1.77a3.51,3.51,0,0,1,.72-.27,11.19,11.19,0,0,1,1.23-.07c2.06,0,3.51-.62,4-3,.4-1.89,1.52-3.62,2.27-5.44.51-1.26.92-2.56,1.38-3.84.89.18,1.35.55,1.09,1.39-.34,1.09-.67,2.19-1.08,3.25C324.32,137.84,323.43,139.94,322.47,142.29Z" fill="#3974c0"/><path d="M323.52,251.33a5.89,5.89,0,0,1-.24-2.24,20.08,20.08,0,0,1,3.19-6.86c.5-.63.87-1.26,1.71-1s1.92.58,2,1.87a17.9,17.9,0,0,0,.42,2.16l2.62-4.55c2.22.38,2.32.45,2.33,2.38s0,3.76-.15,5.62c-.05.61-.59,1.18-1,2-1.62-1.93-1.41-3.78-1.38-5.8l-3.6,7.46c-1.64-.9-1.47-2.16-1.17-3.37a12.47,12.47,0,0,0,.13-6c-2.5,2.37-2.81,5.62-4.13,8.35Z" fill="#3974c0"/><path d="M179.7,255.67a7.3,7.3,0,0,1-7.36,1.67,2,2,0,0,1-.67-.31c-3-2.49-6-.9-9-.05-1.65.46-3.34.81-5,1.11a5.16,5.16,0,0,1-2-.14c-1.15-.26-1.68-1-1.44-1.88.29-1.08,1-.94,1.95-.91a16.91,16.91,0,0,0,4.1-.34c2.65-.57,5.28-1.28,7.9-2a3,3,0,0,1,2.81.42,8,8,0,0,0,6.65,1.64,10.74,10.74,0,0,1,2,0Z" fill="#3974c0"/><path d="M162.33,301.58l-1.07-.88-2.49,1.68c-1.67-.76-3.21-1.74-2.74-3.58.63-2.47,1.18-5.22,4-6.3a2.58,2.58,0,0,0,1.62-2c.54-1.8,1.17-3.57,1.75-5.3,2.1-.06,2.34.08,2,1.7-.62,3.36-.72,6.81-2.41,10C162.4,298.13,162.57,299.81,162.33,301.58Zm-1.43-7.18c-2,0-1.88,1.75-2.54,2.77-.54.83-1.1,1.89,0,2.92C160.19,298.72,160.79,296.79,160.9,294.4Z" fill="#3974c0"/><path d="M201,143.12c-1.43,2.21-2.58,4-3.7,5.74a18,18,0,0,1-.94,1.73c-.25.31-.77.4-1.16.58-.15-.43-.32-.85-.44-1.29a.73.73,0,0,1,.12-.47,47.84,47.84,0,0,1,5.85-8.5c1.85,0,2.52,1,3.15,2.71l.94-1.54c3.15,1.34,3.82,2.91,2.74,5.82-.45,1.21-.76,2.47-1.12,3.69-.9.18-1.37-.16-1.34-1a24.58,24.58,0,0,1,.26-2.45c.11-.8.26-1.6.45-2.76-2.51,1.57-2.57,4.83-5.2,6.29C199.85,148.67,201.67,146.31,201,143.12Z" fill="#3974c0"/><path d="M160.73,184.64c-1.65.67-2.83,2.65-5.22,1.11l4.38-3.45,3.66,2.74a8,8,0,0,0,1.78-.86,3.67,3.67,0,0,1,3.87-.57,4.94,4.94,0,0,0,2.77-.39,8.19,8.19,0,0,0,1.78-1.1c1,.64,2,1.65,2.89,1.66s2-.92,3.14-1.5l1.38.89a3.33,3.33,0,0,0,3.47.46c1.26-.63,1.77.15,2.43,1.12-2.32,2.14-4.54,1.24-6.75-.09-2.07,1.43-4.13,1.68-6.21-.09a5.31,5.31,0,0,1-5.54.71,1.91,1.91,0,0,0-1.37.22C163.53,187.28,163.43,187.28,160.73,184.64Z" fill="#3974c0"/><path d="M127.72,324.42c-.72.77-.68,2.35-2.28,2.2-1.06-.1-2.52-1.77-2.6-3.26a29.32,29.32,0,0,1,.27-3.89c-2.32-.3-2.49-.17-2.78,2.18a19.1,19.1,0,0,1-.43,2.43c-.22.86-.56,1.69-.86,2.6-1.3,0-1.69-.74-1.57-1.71.24-1.95.65-3.88,1-5.82a1.53,1.53,0,0,1,1.7-1.41c.25,0,.5,0,.74,0,1.88.15,3.59-.17,4.78-1.68a2.22,2.22,0,0,1,2.37,2.61c-.07,1.95-.23,3.89-.35,5.83Zm-1.54-4.67c-1.5,1.74-1.5,1.74-.74,4.1Z" fill="#3974c0"/><path d="M245.52,126.43c-.67-1-.49-1.66.34-2.06s1.64-.74,2.48-1.07a5.34,5.34,0,0,0,3.17-3.15,38.39,38.39,0,0,1,2.8-4.76c1.14-.09,1.71.28,1.38,1.25a12.66,12.66,0,0,1-1.16,2.14c-.48.83-1,1.65-1.51,2.55,1.44.88,3.3-.65,4.48,1.27a18.06,18.06,0,0,1-3,.82c-3.36.32-4.66,1.83-5.32,6.89,2.2,1.14,4.23-1.66,6.68-.67-1.08,2.18-2.94,2.16-4.54,2.62-.21.06-.48-.12-.72-.11-3.07.11-4.11-1.21-3.26-4.17.24-.82.58-1.61,1-2.81Z" fill="#3974c0"/><path d="M151.91,323.57l2-2.69c1.38,1.05.45,2.26.19,3.16-.2.69-1.22,1.24-2,1.63-.94.47-2.69-1.65-2.82-2.89-.08-.8-.15-1.6-.22-2.34-1.2-.81-3.17-.34-3.48-2.55h3.71c1-3.51,2.14-6.92,4.55-9.78,1.22.49,1.89,1,.87,2.34-1.64,2.14-1.87,4.8-2.75,7.54l4.87.37,0,.48a20.84,20.84,0,0,1-2.92.8c-2.22.29-2.44.47-2.32,2.72C151.69,322.6,151.77,322.84,151.91,323.57Z" fill="#3974c0"/><path d="M127.67,324.49c1.62-2.15,3.34-4.24,4.84-6.47,1.26-1.88,2.76-2.78,4.94.2l1.13-1.18c1-1,2.76-.77,3.07.53.4,1.67,1.25,3.42,0,5.29-1.55-.66-1.16-2.28-1.75-3.76-.87,1.47-2.58,1.76-2.9,3.52-.09.46-1.06,1-1.67,1-.31,0-.87-.87-1-1.43a13.07,13.07,0,0,1,0-2.75l-5,6.6c-1.05,0-1.1-1-1.51-1.66Z" fill="#3974c0"/><path d="M111,319.22c3.39-1.72,3.76-1.78,6.33-1.09l-5.07,2.69c-1.67.88-1.87,1.28-1.27,3.1.35,1.07.93,2.06,1.34,3.12a9.43,9.43,0,0,1,.3,1.71c-1.8-.87-2.52-2.07-3.71-5.94-1.22-.11-2.95,1.67-3.76-.69,1.22-.66,2.69-1,3.38-2s.39-2.36.64-3.55a44.87,44.87,0,0,1,1.22-4.77,4.69,4.69,0,0,1,4.3-3.35,3.48,3.48,0,0,1,3.25,2.79c-.58-.25-1.07-.45-1.54-.68-1.94-.93-2.41-.83-3.59,1A14.23,14.23,0,0,0,111,319.22Z" fill="#3974c0"/><path d="M214.15,97.45a3,3,0,0,1-.08-.59c.16-.67.67-1.74.44-1.92a4.43,4.43,0,0,0-2.39-.91,3.73,3.73,0,0,0-2.05.69,15.8,15.8,0,0,0-6.23,7.73,4.68,4.68,0,0,0-.27,1.45c-.11,2.09.94,3,2.9,2.25,2.67-1,5.27-2.26,7.89-3.42.71-.32,1.39-.7,2.09-1.05l.36.37c-.23.43-.34,1-.7,1.27a25.3,25.3,0,0,1-9.22,4.45c-3.75.86-6-1.52-4.78-5.23a16.31,16.31,0,0,1,8-9.52,4.91,4.91,0,0,1,5,.14,2.52,2.52,0,0,1,1.16,1.92C216.13,96.09,215.8,97.35,214.15,97.45Z" fill="#3974c0"/><path d="M178.28,317.59c-1.57-.57-2.14-1.66-1.24-3.42a21.37,21.37,0,0,1,2.77-4c1.42-1.68,3-3.23,4.46-4.86a14.83,14.83,0,0,0,1.08-1.59c-3.54-2.39-6.1-.72-8.57,1.91-.62-1.31-.61-2.09.37-3a6.57,6.57,0,0,1,6.78-1.63c1.58.48,3,2.41,2.84,3.78a4.35,4.35,0,0,1-.85,1.94c-1.89,2.46-3.9,4.82-5.75,7.3A27.34,27.34,0,0,0,178.28,317.59Z" fill="#3974c0"/><path d="M222.14,141.42c.63,1.35,1.4,2.21,1.34,3-.16,2.44-.63,4.86-1,7.54-1.15-1.21-1.15-1.21-1.72-4.87L219,150.28c-1.06.4-1.6-.11-1.6-1.41s0-2.89,0-4.84c-1.95,2-2.36,4.39-3.64,6.31l-1.9-.73a23.88,23.88,0,0,1,4.13-7.77,5.5,5.5,0,0,1,3.25,3.35Z" fill="#3974c0"/><path d="M280.68,124.24c.13,1.63.24,2.92.32,4.22s-.3,1.72-1.86,2.06l-.34-5.76-3.38.65c-.58-.68-.93-1.27.36-1.73a17.59,17.59,0,0,0,2.07-1c.2-2.78.32-5.22.58-7.65,0-.42.63-1.09,1-1.11.7,0,1,.4.93,1.31-.16,2.08-.05,4.18-.05,6.54l1.65-.44c.67-.18,1.18-.45,2,.12s1.88.23,2.85.21c.81,0,1.49,0,1.61,1.16Z" fill="#3974c0"/><path d="M163.18,360.2c1.24-1.92-.83-2.66-1.16-4a3.86,3.86,0,0,1,3.53,3.2,24.92,24.92,0,0,1,0,3.2c0,2.11-.09,4.22-.14,6.24-1.33.73-2.37,1.21-3.68.53a7.66,7.66,0,0,1-3.3-3.83c-.11-.23.06-.64.17-.93C159.48,362.45,160.77,360.75,163.18,360.2Zm-2,6.51c1.18.86,1.93.47,2.8-.34l-1.69-2Z" fill="#3974c0"/><path d="M238.79,124.24a16.27,16.27,0,0,1-3.07,1.19,1.27,1.27,0,0,0-1,1.36,41.74,41.74,0,0,0,.38,4.61l1.69-1.47c.92.47,1.49,1,.43,1.93a6,6,0,0,1-1.21.85c-1.69.87-3.15,0-3.23-1.9-.06-1.37,0-2.74,0-4.08-1.14-.34-2.69,1.34-3.35-1a6.45,6.45,0,0,1,1.92-1.06c1.66-.25,2-1.36,2.31-2.72.46-2.15,1-4.27,1.58-6.59l2,.54-1.84,6.85Z" fill="#3974c0"/><path d="M178.07,293.92a7.66,7.66,0,0,1-1.47.87c-1.58.44-2.28,1.62-1.23,2.68,1.76,1.78,1,3.19-.17,4.7-.87,1.08-1.73,2.16-2.67,3.19-.24.27-.74.3-1.12.44l-.35-.39,3.67-5.84-1.58-1.73c-1.72.93-3.36,1.75-4.94,2.68-1.08.64-2.11.67-2.85-.33a2.38,2.38,0,0,1,.21-3c1.69-2.37,3.19-2.76,5.16-1.28-.19,2.18-3,1.54-4.07,3.53,1.9-.68,3.31-.85,4.61-1.83a4.61,4.61,0,0,0,1.81-2.38C173.87,293,175.45,292.53,178.07,293.92Z" fill="#3974c0"/><path d="M183.08,359.67c-1.2.32-2.22.62-3.25.84-3.06.66-3.47,1.27-2.92,4.57,1.32.78,2.48,0,3.64-.5,1.14,1.79,1.14,1.79-1.4,3.59-.82-.34-1.72-.69-2.6-1.09a4.77,4.77,0,0,1-2.31-6.37,7.45,7.45,0,0,1,4.43-4C181.18,355.82,182.56,356.73,183.08,359.67Z" fill="#3974c0"/><path d="M41.31,264.35c-.46-1.38-.37-2.12.92-2.57,2.48-.87,4.88-2,7.37-2.86a4.42,4.42,0,0,1,5,1,2.55,2.55,0,0,0,2.9.65c1.55-.51,3.1-1,4.66-1.5.51-.16,1-.22,2-.42-.32.83-.37,1.42-.69,1.7a12.49,12.49,0,0,1-6.91,2.87,3.48,3.48,0,0,1-2.37-1,4.44,4.44,0,0,0-5.18-.83C46.52,262.39,44,263.32,41.31,264.35Z" fill="#3974c0"/><path d="M299.65,171.59c-.66-1.83-.06-3.28,1.5-3.83a5.07,5.07,0,0,1,5,1,1.76,1.76,0,0,1,.38,2.6c-1.29,2-2.5,4.14-3.74,6.21-1.1,1.82-2.25,3.6-3.28,5.46a11.34,11.34,0,0,0-.71,2.27c-1.83-.15-2.22-.37-2-1.64a8.7,8.7,0,0,1,1.29-3.11c1.83-2.8,3.78-5.53,5.67-8.29,1.12-1.65,1.19-2.32.33-3s-1.81-.46-3,.67C300.62,170.39,300.24,170.92,299.65,171.59Z" fill="#3974c0"/><path d="M195.65,265.87c.17,3.39-3,1.3-3.92,3.29.07.52-1,1.63.42,2.75l2.69-1.51c.86.48.88,1.05.3,1.81-.73,1-1.49,1.78-2.86,1.45-2.25-.55-1.83-2.64-2.45-4.36l-1.75.18v5c-1.71-1.62-.67-3.48-1.56-5-.94.38-1.38,1.26-1.85,2.48-1.29-2.48.33-3.79,1.2-5.31,3.29,1,4.17.37,5.13-3.34,1.25,1.06,1.25,1.06,1.28,2.56Z" fill="#3974c0"/><path d="M166.8,193.63c2.34,3.17,4.79.35,7.61.32l.88,1.5a5.46,5.46,0,0,0,1-.25c1.71-1,3.35-1.46,5.35-.52.88.41,2.17,0,3.41-.09.81,1.12.72,1.8-.6,1.95a19.14,19.14,0,0,1-3.39-.25c-.88-.06-1.91-.36-2.61,0-1.69.82-3.13.87-4.34-.52-2.65.78-5.15,2.32-7.18.08-2.59.57-4.88,1.11-7.18,1.52-.39.07-.89-.44-1.34-.68.37-.37.82-1.1,1.1-1,2,.43,3.51-.5,5.13-1.29A16.9,16.9,0,0,1,166.8,193.63Z" fill="#3974c0"/><path d="M244.12,84c-1.69.4-1.66,2-2.25,3.19-.42.81-.66,1.54-2,.85.57-5.89,2-11.75,2.61-17.86,1.6,1.06,1.71,1.57,1.37,3.26-.59,2.88-1.08,5.78-1.7,9.12l2.3-2.08a5.27,5.27,0,0,1,.08,7.72C243.32,86.85,244.81,85.32,244.12,84Z" fill="#3974c0"/><path d="M76.9,55.38c-2.3-.06-3.83-1.94-3-3.82a21.39,21.39,0,0,1,3.1-5.47C78.73,44,82.52,45,83.32,47.7A5.41,5.41,0,0,1,81.63,53C80.15,54.13,78.76,55.48,76.9,55.38Zm2.57-8.86c-.37.61.1,1.81-1.27,1.34a1.21,1.21,0,0,0-1,.48,18.45,18.45,0,0,0-1.73,2.94,1.64,1.64,0,0,0,.18,1.51,2.05,2.05,0,0,0,1.75.44A10.19,10.19,0,0,0,80.58,51C82.28,49.08,82,48,79.47,46.52Z" fill="#3974c0"/><path d="M347.45,191.51a21.32,21.32,0,0,0-2.64,1.59,22.58,22.58,0,0,0-2.2,2.38c-.45-1.59-.28-2.71.8-3.55a31.82,31.82,0,0,1,3-2.12,2.24,2.24,0,0,1,2.9.49,2.2,2.2,0,0,1,.38,2.71,4.86,4.86,0,0,1-.78,1.23,37.42,37.42,0,0,0-5.53,8.42c-.18.42-.78.65-1.18,1-.26-.45-.76-.93-.73-1.35a5,5,0,0,1,.74-2.46c1.5-2,3.17-3.94,4.74-5.93a13.75,13.75,0,0,0,1-1.83Z" fill="#3974c0"/><path d="M219,88.26c-.67-3.47,1.33-5.58,2.28-8.23l3.87,2.31.74-1.69c.85.28,1.57.38,1.28,1.61a14.13,14.13,0,0,0,0,2.85c1.66-1,2.3-2.54,3.05-4,1.13.12,1.87.65,1.32,1.72a23.49,23.49,0,0,1-2.8,4.3c-.71.85-2.13.44-2.68-.62a7.08,7.08,0,0,1-.53-1.64c-.13-.56-.2-1.13-.31-1.82-.39-.06-.77-.13-1.16-.17s-.81-.07-1.19-.1C221.18,84.17,221.61,86.9,219,88.26Z" fill="#3974c0"/><path d="M243.44,93.19l1.71.83c-.33,1.24-.63,2.34-.91,3.44s-.49,2.08-.72,3.11a19.28,19.28,0,0,1,3.2,1,1.91,1.91,0,0,1,.63,3.11c-1.64,1.94-2.3,3-6.33.94C240.6,101.35,242.59,97.5,243.44,93.19Zm-.94,11.9c3.05-.17,3.35-.42,2.84-2.47A4.26,4.26,0,0,0,242.5,105.1Z" fill="#3974c0"/><path d="M333,147.54c.32.59.5,1.45.91,1.59a12.12,12.12,0,0,0,3.33.48c.91,0,1.74-.91,2.94-.34a3,3,0,0,1-2.41,2.14,13,13,0,0,1-3.16.22c-2.59-.31-3.73-2.24-2.94-4.74.72-2.28,3.39-4.25,5.63-4a2.46,2.46,0,0,1,1.72,1,1.47,1.47,0,0,1-1,2C336.52,146.48,335,146.91,333,147.54Z" fill="#3974c0"/><path d="M175.71,264.76c-2.42,1.7-4.89,1-7,1.77-.31,1.73-.14,2.05,1.3,1.74a4.32,4.32,0,0,1,3.44.53c-1.69,1.45-3.72,1.39-5.51,1.84l-.58,3.92c-1.72-1.67-1.46-3.34-1.4-4.93,0-1.22.27-2.43.34-3.64s.42-1.66,1.71-1.64c2.12,0,4.23,0,6.35,0A7.59,7.59,0,0,1,175.71,264.76Z" fill="#3974c0"/><path d="M178.34,268.76l-2.51.83-.52,4.43c-1.32-1.43-1.95-4.83-1.15-5.85,1.15-1.48,3-1.26,4.49-1.17.66,0,2-.31,2.49,1,.11.28,1.17.07,1.52.38a1.71,1.71,0,0,1,.39,2.24c-.59,1-.81,2.49-2.32,2.57a1.92,1.92,0,0,1-1.51-.92A22.19,22.19,0,0,1,178.34,268.76Zm3.25.74-.38-.38-1,1.32.36.27Z" fill="#3974c0"/><path d="M261.11,143.25a5.05,5.05,0,0,0-5.55,6.72c2,.52,3.25-2.33,5.52-1.2a5.59,5.59,0,0,1-4.18,3.1c-1.75.39-3.86-1.69-3.58-3.74a15,15,0,0,1,1.75-5.25c.45-.79,1.85-1.17,2.89-1.44a3.53,3.53,0,0,1,2.12.42C260.48,142,260.68,142.64,261.11,143.25Z" fill="#3974c0"/><path d="M172.66,357.55c-2.35.71-2.35.71-3.15,3.28a32.59,32.59,0,0,1,2.94,2.46c1.25,1.31,1.2,2.42-.21,3.52-.89.69-1.69,2.35-3.33.8.46-.58,1-1.15,1.39-1.78,1-1.52.88-2.15-.53-3.33a10.93,10.93,0,0,1-2.08-2c-1.08-1.56-1-2,.18-3.5,1.54-1.93,2.4-2,4.12-.18C172.2,357,172.41,357.28,172.66,357.55Z" fill="#3974c0"/><path d="M266.74,124.26a6.76,6.76,0,0,1-3.81,1.94,1.5,1.5,0,0,0-1.58,1.65c1.65.83,3.09-.06,4.58-.69-.18,1.17-1.6,2.93-2.86,3.08a6,6,0,0,1-3.24-.52c-1-.51-1.27-2.59-.37-3.55a19.12,19.12,0,0,1,4.16-3.36C264.89,122.07,265.82,122.65,266.74,124.26Z" fill="#3974c0"/><path d="M258.06,98.26c-.28-.45-.86-1-.78-1.34a1.33,1.33,0,0,1,1.91-1,2,2,0,0,1,1.24,2.13,14.71,14.71,0,0,0,.42,3.32,3.22,3.22,0,0,1-3.38,4,10.35,10.35,0,0,1-1.37-.28c-1.15-2.5-1.1-2.53.74-4.19a16.25,16.25,0,0,0,1.83-2.38Z" fill="#3974c0"/><path d="M140.8,295.89c.85,2.29,3.6,1.83,4.63,3.58-.92,3.28-4.08,4.85-7.48,3.36a20.53,20.53,0,0,0,3.32-1.05c.88-.46,2.06-.76,2.25-2.23-.41-.18-.83-.33-1.23-.54a9.63,9.63,0,0,1-1.88-1.08c-2-1.72-1.87-3,.33-4.43a5.82,5.82,0,0,1,5.57-.88c.32.13.55.46,1.31,1.13C144.61,293.3,142.47,293.73,140.8,295.89Z" fill="#3974c0"/><path d="M235.57,142.16a13.67,13.67,0,0,0-4.68,7c2.62,1.05,2.89-2.07,4.62-2.41a4.82,4.82,0,0,1-2,4.66,3.21,3.21,0,0,1-4.5-2.9c.24-3,2.25-5,4.54-6.69C233.83,141.62,234.51,142,235.57,142.16Z" fill="#3974c0"/><path d="M41.83,274.12c-.21-2.5-.1-2.67,2.25-2.82s4.42-.27,6.63-.3a1.67,1.67,0,0,1,1.32.77,1.49,1.49,0,0,1-.64,1.33,9.75,9.75,0,0,1-3.23,1C46.07,274.23,44,274.12,41.83,274.12Z" fill="#3974c0"/><path d="M240.3,144.31c2.35,1.76,3.07,3.59,2.24,6-1.57.05-3.09,1-5,.62.73-1.83,2.83-1.11,3.65-2.42.18-2.18-2.53-2.69-2.79-5,1-.7,2.11-1.59,3.32-2.36a2,2,0,0,1,1.41-.2c.39.1.91.51,1,.85a1.44,1.44,0,0,1-.61,1.17A29.85,29.85,0,0,1,240.3,144.31Z" fill="#3974c0"/><path d="M255.36,79.72c2.37-2.12,4.92-2.41,5.92-.44-1.63-.21-3.17-.28-4.61,1.17,1.08.39,2,.76,3,1.07,2.23.73,2.74,2.38,1.16,4.07a9.87,9.87,0,0,1-6.32,3,3.09,3.09,0,0,1-1.78-.6c2.72-1.2,6-1.26,7.69-4.28C259.24,81.69,255.6,82.82,255.36,79.72Z" fill="#3974c0"/><path d="M128.54,301.35c-.44,1.34-.42,2.9-1.94,4.23-.84-2.21.39-3.9.61-5.64l-2-2.63.35-.43,2.4.88,2-3.88c1.88.54.94,1.51.63,2.31s-.77,1.8-1.23,2.85l2.07,2.78C130.07,303.16,129.58,301.05,128.54,301.35Z" fill="#3974c0"/><path d="M151,301c-1.4-1.12-.94-2.31-.72-3.36.64-3.13,1.39-6.25,2.08-9.37.21-.94.36-1.89.55-2.91,1.72.2,1.52,1.42,1.41,2.39-.13,1.21-.52,2.39-.76,3.59-.58,2.85-1.12,5.71-1.72,8.55C151.77,300.21,151.38,300.49,151,301Z" fill="#3974c0"/><path d="M223,131.73c-.16-3.36,1.95-5.15,3.66-7.31,1.67,1.2,2.62,2.37,1.86,4.4a31.61,31.61,0,0,0-.63,3.33,2,2,0,0,1-1.19,1.17v-5.1C224.75,128.62,225.19,131.12,223,131.73Z" fill="#3974c0"/><path d="M229.92,87.74l3.26-1c.2-1.69.44-3.3.56-4.92a3.76,3.76,0,0,1,1.66-2.59c1.1-1,1.74-.51,2.46,1a12.92,12.92,0,0,0-1.11.68c-1.92,1.42-2.3,3.18-1.42,5.41.7,1.78.23,2.48-1.66,2.58C232.48,88.92,231,89.53,229.92,87.74Z" fill="#3974c0"/><path d="M285.08,185.23c-.65,1.4-1.83,1.18-2.84,1.4-1.26.28-2.57.5-2.93,2.13-.31,1.4-.13,1.79,1.38,2.21l1,.28c-2.64,1.21-4.38.09-4.21-2.51a5.44,5.44,0,0,1,3.32-4.56A3.41,3.41,0,0,1,285.08,185.23Z" fill="#3974c0"/><path d="M297.82,81.57c-1.41,1.48-1.18,3.35-2.6,4.35-.69-2-.61-2.35,2.12-8.16.49.44,1.12.74,1.28,1.2a21.24,21.24,0,0,1,1,8.79c-1.83-.25-1.31-1.65-1.47-2.62S298,83.05,297.82,81.57Z" fill="#3974c0"/><path d="M344.13,240.94c3.12-.12,3.49,0,4.07,1.67l-2.17-.14c-.4,2-.78,3.94-1.15,5.85a3.65,3.65,0,0,1-.21,1.2,8.89,8.89,0,0,1-1.2,1.29c-.37-.56-1.11-1.19-1-1.68C342.88,246.4,343.54,243.71,344.13,240.94Z" fill="#3974c0"/><path d="M292.9,183.24a5.09,5.09,0,0,1-1.37,1,4.43,4.43,0,0,0-3.22,3.67,10,10,0,0,1-1,2.52,6.88,6.88,0,0,1-1.25,1.28c-.33-.57-.74-1-.67-1.23.44-1.82.66-3.81,1.57-5.38C288.38,182.66,290.05,182.22,292.9,183.24Z" fill="#3974c0"/><path d="M270.66,124c.81-.64,0-2.54,2.18-2.31,0,.81.29,1.76-.06,2.33a4.71,4.71,0,0,0,0,4.82c-1.38,0-2.25.36-2.15,1.81,0,.42-.5.88-.82,1.4a2,2,0,0,1-.47-2.64,3.37,3.37,0,0,0-.47-4.26,6.61,6.61,0,0,1-.61-1.51Z" fill="#3974c0"/><path d="M226.16,150.85a1.74,1.74,0,0,1-1.18-2.24c.19-1.54.59-3.05.81-4.59.16-1.13,1-2.23-.08-3.47-.33-.39.16-1.48.28-2.34,2.07,1.28,1.89,1.25,1.54,3.44-.21,1.29.27,2.66-.14,4C226.89,147.32,226.59,149,226.16,150.85Z" fill="#3974c0"/><path d="M253.52,101.73a2.7,2.7,0,0,1-2.83,2.71,2.25,2.25,0,0,1-2.38-2c-.15-1.59,1.45-3.64,2.87-3.67C252.45,98.77,253.44,100,253.52,101.73Zm-1.9-1.11c-1.15.88-1.15.88-1,2.18Z" fill="#3974c0"/><path d="M123.32,297.22c.36,1.7,1.23,3.46-.32,5a6.29,6.29,0,0,1-2.18,1.42,2.18,2.18,0,0,1-2.54-1.67c-.27-1.9,1.2-2.92,2.21-4.14A2.06,2.06,0,0,1,123.32,297.22ZM120,302.4c2.43-1.08,2.73-1.69,2-4.12C120.89,299.44,119.53,300.28,120,302.4Z" fill="#3974c0"/><path d="M106.42,299.17c-3.55.65-6.81,2.54-10.62,2.14l-.13-1.3a18.48,18.48,0,0,1,3.1-1.43,14.9,14.9,0,0,1,3-.12,3.88,3.88,0,0,0,1.62-.18C104.6,297.6,105.5,298.06,106.42,299.17Z" fill="#3974c0"/><path d="M201.7,83.3c-1.22,1.17-2.72.79-3.94.42a16,16,0,0,0-4.84-.72,6.13,6.13,0,0,1-1.8-.65c1.51-1.87,3.48-1.38,4.68-1.08C197.75,81.76,200.49,80.4,201.7,83.3Z" fill="#3974c0"/><path d="M264.1,86.88c-.13-.28-.43-.61-.36-.83.56-1.87,1.12-3.74,1.85-5.55.19-.46,1.07-1,1.44-.94A2.59,2.59,0,0,1,268.43,81a8.46,8.46,0,0,1,.19,2.19c.06.6.2,1.19.33,1.92-.32.11-.8.44-1,.31a1.72,1.72,0,0,1-.76-1.1,22.92,22.92,0,0,1,0-2.76l-.51-.09-2,5.51Z" fill="#3974c0"/><path d="M338.2,251.31a15.49,15.49,0,0,1,.79-8.48,1.26,1.26,0,0,1,1-.67,1.46,1.46,0,0,1,.78,1,4.54,4.54,0,0,1-.26,1.42c-.27,1.51-.54,3-.77,4.53C339.64,250,339.63,251,338.2,251.31Z" fill="#3974c0"/><path d="M154.31,292.58c.67,0,.94-.13,1.13,0a13.41,13.41,0,0,1,1.29.7c-.55,1.42-1.11,2.75-1.57,4.13a4.36,4.36,0,0,0-.08,1.6c.08,1.33.1,1.33-1.3,2.7-1.38-.67-1.5-1.85-1.15-3.11a10.3,10.3,0,0,1,1.07-2.48C154.34,295,155.48,294.1,154.31,292.58Z" fill="#3974c0"/><path d="M265.3,97.34l3,2.75-2.41.5a10.89,10.89,0,0,1-1.41,2.91c-.47.5-1.21,1.51-2.59.57Z" fill="#3974c0"/><path d="M273.16,80.06l-.35,3.42c2.2-.71,1.93-2.53,2.53-3.94.31.07.77,0,.85.22a3.8,3.8,0,0,1-2.15,5c-1,.29-2.47-.35-2.49-1.31a12.43,12.43,0,0,1,.63-3.26C272.21,80.07,272.75,80.1,273.16,80.06Z" fill="#3974c0"/><path d="M136,362.25a12.34,12.34,0,0,1,8.76-.53,8.41,8.41,0,0,1-1.36.61c-1.58.4-3.21.64-4.75,1.13C137.34,363.89,136.74,363.22,136,362.25Z" fill="#3974c0"/><path d="M211.06,142.67c.42.57.88.92.92,1.3a18,18,0,0,1-1.79,6.29C208.63,148.42,208.84,146.17,211.06,142.67Z" fill="#3974c0"/><path d="M197.94,126.33c-2.88.48-5.35.91-7.82,1.3-1,.15-1.57-.24-1.57-1.31C195.61,125.15,195.61,125.15,197.94,126.33Z" fill="#3974c0"/><path d="M240,209c2.11-.1,4.24-.64,6.28,1.37a13.18,13.18,0,0,1-5.34.71C240,211.06,239.88,210.12,240,209Z" fill="#3974c0"/><path d="M174.87,324.3c-1.37-2.59-1.3-2.87.93-4.41C178.18,322,178,323.09,174.87,324.3Z" fill="#3974c0"/><path d="M290.17,86.91a13.2,13.2,0,0,1,2-8.18,13.14,13.14,0,0,1,0,2.39C291.46,84.87,291,86.19,290.17,86.91Z" fill="#3974c0"/><path d="M294.43,189.9c-.24-2.8.26-3.23,2.41-2.29C296.56,189.89,296.56,189.89,294.43,189.9Z" fill="#3974c0"/><path d="M213,141.26l-2.77-2.86,3.46-.36Z" fill="#3974c0"/><path d="M249.14,185.3c-2,1-3.7.76-5.76.31C245.11,184.79,246.35,184.74,249.14,185.3Z" fill="#3974c0"/><path d="M341.42,209.88c-1.91-.84-2.31-1.38-1.89-2.35a1.22,1.22,0,0,1,.83-.68,1.08,1.08,0,0,1,.82.64A16,16,0,0,1,341.42,209.88Z" fill="#3974c0"/><path d="M341.58,238.93c-1.92.28-1.9-1-2.22-2C341.06,236.68,341.06,236.68,341.58,238.93Z" fill="#3974c0"/><path d="M292.45,74.68l-1,2.16-.87-2.16Z" fill="#3974c0"/><path d="M337.88,177.69l.6-.86c.18.13.53.33.51.39a6.49,6.49,0,0,1-.52,1Z" fill="#3974c0"/><path d="M61.94,187.42c-3.26-.17-6.54-.55-9.79-.45-3,.09-6.05.71-9.08,1.05a12,12,0,0,1-2.22,0,1.22,1.22,0,0,1-1.27-1.24c0-.74-.22-1.52.72-1.87a14.18,14.18,0,0,1,2.55-.91c5.93-1,11.88-1.89,17.82-2.83.85-.13,1.69-.32,2.53-.47l-.07-.47c-1.52,0-3.05.06-4.57,0-1.12-.06-2.23-.4-3.35-.41s-2.29.25-3.43.35c-2.78.22-5.57.47-8.36.59-1.26.05-1.34-.17-1.94-2.44,3.79-2.21,8.24-1.5,12.33-2.9-.64-.1-1.27-.23-1.92-.29s-1.32,0-2,0a30,30,0,0,1-3.68-.34c-.44-.08-1.14-.76-1.09-1,.11-.55.61-1.39,1-1.44,1.73-.23,3.69-.72,5.21-.16,2.18.8,4.28.35,6.35.32a39,39,0,0,1,7.5.71c1.46.26,1.56.63,1,2.19a12.19,12.19,0,0,0-.32,1.5l-2.82.68,6.07,1.44L69,181.75l-10.71,2.58,6.26,1.21c1.24,2.72.78,4.22-2.07,5.1a87.59,87.59,0,0,1-14.21,3.63,15.26,15.26,0,0,0-4.17,1.25c7.7-.2,15.36-.81,23,.58.46,2.12.28,2.62-1.4,3.38a11.66,11.66,0,0,1-2.34.74,2.57,2.57,0,0,0-1.59,1.24,7.56,7.56,0,0,1-3.2,2.39,60.69,60.69,0,0,1-6.16,1.59c-1.81.47-1.9.56-3,2.18-1.15-2.21-1.08-2.51,1.06-4.09a5.39,5.39,0,0,1-1-.51,6.94,6.94,0,0,1-.8-.9,16,16,0,0,1-7.86,2c-1.1,0-1.8-.38-2-1.36s.75-1.32,1.59-1.48l16.63-3.06c.5-.09,1.28.16,1.05-.68a20.89,20.89,0,0,1-4.62.23c-3-.52-5.94,0-8.9.41a40.54,40.54,0,0,1-5.82.13c-1,0-1.31-.89-1.5-1.69a1.65,1.65,0,0,1,.92-2.06,14.36,14.36,0,0,1,2.75-1.09c3.1-.73,6.23-1.32,9.33-2,3.44-.8,6.86-1.67,10.28-2.57A7.88,7.88,0,0,0,62.1,188Z" fill="#3974c0"/><path d="M266.64,316.16c1.57-.84,2.75-.95,3.51,1.06,1-1.31,1.87-2.39,2.75-3.41a11.86,11.86,0,0,1,1.73-1.7c.78-.6,1.53-.5,2.19.57l-4,5.35,3,.44,1.15-4.28c1.92-.23,2.14-.1,2.56,1.62.21.85.34,1.71.51,2.57h.53l.57-3c.56.16,1.24.16,1.49.48.48.62,1.12,1.53,1,2.13a14.44,14.44,0,0,1-1.77,3.76c-.89,1.46-2.33.49-3.66.45a4.48,4.48,0,0,1-2.52,4c-.68.39-1,1.41-1.47,2.17-.78,1.33-1.58,2.58-3.52,2-.2,1.69-.67,3.13-2.69,3.31l-.15,2.13-1.67-.33-.45,2.35a2.31,2.31,0,0,0-2.24,2.13c-.09.54-.69,1.37-1.11,1.41a2.58,2.58,0,0,0-2.39,2.87c.05,3.52-2.82,4.79-4.75,6.76-.7.71-1.45.1-1.72-.66-.67-1.85-1.32-3.71-1.81-5.61s-.42-3.89-2.36-5.11c-.31-.2-.43-1.11-.28-1.58a19.31,19.31,0,0,1,1.6-3.82,2.47,2.47,0,0,1,4.49.28,14.58,14.58,0,0,1,.8,3.08,19.17,19.17,0,0,1,.19,2.08l2.59.59c-.06-1-.07-1.9-.17-2.76-.11-1.07-.37-2.32.85-2.78s2.52-1.2,3.47.51c2.2-1.42-.7-3.09.62-4.53,1.2.39,2.34-2.64,3.85,0,1.44-2.66-.44-4-1.82-5.37,1-2.33,2.14-4.4,1.08-6.91A6.23,6.23,0,0,1,266.64,316.16ZM255,348.92l.6,0a17.26,17.26,0,0,0,1.58-2.69,12.33,12.33,0,0,0,.78-3.52c.06-1-.63-1.4-1.61-1.07-.57,3-.57,3-2.57,3.73Zm-1.82-14.19c-1.75,2.84-1.75,2.84.42,6.77C254.63,339.2,254.21,337.16,253.23,334.73Zm17.93-7.54c1.42-1.24,1.42-1.24.32-2.59Z" fill="#3974c0"/></svg>