<?xml version="1.0" encoding="utf-8"?>
<!-- Generator: Adobe Illustrator 21.1.0, SVG Export Plug-In . SVG Version: 6.00 Build 0)  -->
<svg version="1.1" id="Layer_1" xmlns="http://www.w3.org/2000/svg" xmlns:xlink="http://www.w3.org/1999/xlink" x="0px" y="0px"
	 viewBox="0 0 367.2 460.8" style="enable-background:new 0 0 367.2 460.8;" xml:space="preserve">
<style type="text/css">
	.st0{fill:#3974C0;}
</style>
<title>Artboard 1</title>
<path class="st0" d="M363.4,460.8l0.7-0.4l1.6-0.3v0.7L363.4,460.8z"/>
<path class="st0" d="M119.2,120.9c-0.2,1.4-0.7,1.7-1.8,1.4c-0.5-0.1-1.1-0.1-1.6-0.1c-0.5-0.4-1-0.6-1.6-0.8l-7.5-0.7l-8.6-0.8
	c-0.3,0-0.7-0.2-0.9-0.4c-0.7-1.3-0.3-2.9,0.8-3.8l-0.7-1.6h-0.3l0.2,0.6c-0.6-0.9-1.3-1.5-2.3-0.8c-1,0.7-2.2-0.2-1.6,1.5l-0.6,0.2
	l-0.9-0.8c-0.2,0.3-0.4,0.6-0.4,0.9c0.1,0.7,0.2,1.3,0.3,2c-1.3,0.4-2.3,1-3.2,1c-2.1-0.2-4.2-0.5-6.3-0.9l-6.2-1.5l-9.6-2.1
	l-11-2.5l-7.8-1.6c-0.3,0-0.6,0.2-0.6,0.5c0,0.2,0,0.3,0.2,0.5c0.2,0.2,0.5,0.3,0.8,0.4c0,0.3-0.1,0.5-0.1,0.8c0,0.3,1,0.8,1.4,1.2
	c0.4,0.4,2.7,2.3,3.9,3.5c0.5,0.6,0.9,1.3,1.2,2l2.6,2.3l4.1,3.5c0.8,0.6,1.6,1.1,2.5,1.5l0.9,0.3c0.1-0.4,0.1-0.7,0.1-1.1
	c0-0.3-0.3-0.5-0.5-0.8l-6.6-7.2c-1.7-1.9-3.2-4.1-5.9-4.8c0,0-0.1-0.1-0.2-0.5c1.3,0.1,2.5,0.3,3.8,0.5c1.5,0.4,2.9,1.1,4.4,1.4
	l8.3,1.5l20.3,4.2c2.6,0.5,2.6,0.5,2.3,2.3l0.2,0.2l1.8-1l2.4,2c0.7,2.5,0,4.3-2.5,4.8l2.2,0.9c0,0.3,0,0.5-0.1,0.8
	c-1,2.1-0.5,4.3-0.7,6.5c-0.2,2.2-0.1,6.7-0.2,10.1c-0.1,3.4-0.4,5.8-0.4,8.7s0.1,4.9,0.1,7.4c0,2.5-0.1,4.5-0.1,6.7
	c0,0.7-0.4,1-1.2,1.1c-3,0.5-6,0-9,0.8c-3,0.8-4.6,0.4-7.1,0.5c0.1-0.3,0.2-0.5,0.3-0.8c-0.1-1-0.1-2.1-0.1-3.1
	c0.1-0.5,0.4-0.8,0.9-1l4.7-0.2h0.7c-0.1-0.3-0.1-0.7-0.2-0.7c-0.6-0.4-1.3-0.7-2.1-0.9c-0.8,0-1.7,0.1-2.5,0.3
	c-0.3,0-0.9-0.2-1-0.4c-0.4-1.5-0.7-3-0.7-4.6c0-0.3,0-0.8,0.2-0.9c0.2-0.1,0.8-1.3-0.3-1.7c-1.1-0.4-0.4-0.3-0.5-0.5
	c-0.5,0.2-1,0.3-1.5,0.3l-4.7-0.5c-1.6-0.2-1.8-0.5-1.8-2.1c0-3.2-0.2-6.5,0-9.7c0.2-3.2,0.8-7.9,1.2-11.9c0.1-1.2,0.7-1.5,1.9-1.5
	l9.4-0.3c1.5-0.1,1.9-0.6,1.5-2.1l-0.3-0.7c-0.4,0.2-0.9,0.3-1.4,0.4l-9.9,0.4c-0.3,0-0.7-0.4-0.9-0.6c-0.2-0.3-0.4-0.7-0.6-1.1
	l-0.9,1.1c-0.1,0.2-0.2,0.5-0.2,0.7c-0.9-0.6-1.1,0-1.2,0.7c-0.4,3.3-0.7,6.7-1.1,10c-0.4,3.3-1.2,7.9-1.5,11.8
	c-0.3,3.9-0.2,7.3-0.2,11s-0.1,5.4-0.2,8.1c0,0.4-0.2,0.9-0.5,1.2c-2.8,2.1-5.3,4.5-7.5,7.2c-2.5,3.2-5.2,6.2-6.7,10
	c-0.2,0.7-1,1.1-1.7,1c-1.2,0-2.3,0-3.5,0.2c-0.7,0.1-1.4,0.7-2.2,0.9c-0.5,0-1,0.5-0.9,1c0,0.1,0,0.2,0,0.2h0.4
	c2.5,0.5,4.8-0.3,7.2-0.5c0.3,0,0.5-0.5,0.7-0.8l1.2-1.5c0.3-0.3,0.7-0.5,0.9-0.9l3.2-4.9c0.7-0.9,1.4-1.8,2.2-2.7l6-7.2
	c0.3-0.3,0.7-0.6,1.1-0.9v9.4l1,0.4l-0.4,2.4h-0.8l-0.8,0.5c0.3,0.3,0.6,0.9,0.8,0.9s1.4,0.9,1.5,1.9c0,0.4,0,0.9,0.1,1.3
	c0.1,0.3,0.2,0.6,0.4,0.8c0.3-0.2,0.7-0.3,0.8-0.6c0.1-0.3,0.2-1.2,0.4-1.7c0.2-0.5,0.5-1.1,0.9-1.2L72,187c0.9,0,1.4,0.3,1.5,1.3
	c0.1,0.5,0.3,0.9,0.5,1.3h0.4l1.8-4.7c-0.9-0.3-0.6-1.2-0.5-2.2c0.1-3.1,0.2-6.1,0.3-9.2c0-1,0.6-1.1,1.3-1.1l7.5-0.3h6.7
	c1.6,0,1.8,0.3,1.6,1.9c-0.2,1.6-0.5,3.4-0.5,5.1c0,1.7-0.2,5-0.2,7.5c0.1,0.5,0.4,0.9,0.9,1.1c0.7,0.3,3-1.6,3-2.4
	s-0.1-1.7-0.1-2.6c0-2.6-0.1-5.2-0.1-7.8c0.1-1.1,0.2-2.3,0.4-3.4l3.7,0.2l10-0.3c0.3,0,0.5-0.3,0.8-0.5c0.3-0.2-0.4-0.6-0.7-0.7
	l-2-0.6v-0.6h-1.6l-2.4-0.3c-2-0.5-3.9,0.2-5.8,0.5c-1.9,0.3-2.2-0.1-2.1-1.9s0.4-3.6,0.4-5.5s-0.1-4.1-0.3-6.2
	c-0.3-4.2-0.4-8.4-0.1-12.6c0.4-5,0.6-10,0.9-15c0.1-2,0.1-4.1-0.1-6.1c-0.1-1.5-0.3-1.6,1.3-1.5c1.6,0.1,5.1,0.3,7.6,0.6l11.1,1.8
	h1.9l1.1,2.4h0.3L119.2,120.9z M73.2,179c-0.1,1.5-0.3,3-0.4,4.5c-0.1,1.5-0.3,1.4-1.3,1.5l-3,0.3c-0.3-0.1-0.6-0.4-0.7-0.7
	c0-3-0.1-6,0-9c0-0.4,0.4-0.7,0.6-1.3c0.2-0.6-1-1.7-1-3c0-0.6,0.3-1.1,0.8-1.3l4.9-2.5c0,0.9,0.1,1.4,0.1,1.9
	c0,2.4,0.1,4.8,0.1,7.1C73.4,177.5,73.3,178.2,73.2,179z M70.2,167.2c-1,0.4-2,0.9-2.9,1.6c0-3.6,0-7,0-10.3c0-0.4,0.3-0.7,0.6-0.8
	c0.8-0.1,1.5-0.1,2.3,0c2.5,0.3,3.4,1.9,3.4,4.4C73.6,164.6,72.9,166.5,70.2,167.2z"/>
<path class="st0" d="M231,32.7h-0.4l-0.7-0.6c0.2-0.2,0.4-0.6,0.7-0.7l4-1c0.8-0.3,1.5-0.6,2.2-1c0.8,0.8,1,2,0.6,3.1
	c-0.2,0.4-0.2,0.9-0.2,1.4c0.1,2.9,0.2,5.7,0.2,8.6c0,1,0.5,1.2,1.3,1.2l17.7-0.2c2.8,0,5.7-0.2,8.5,0c2.8,0.2,7.9-0.7,11.9-0.7h8.3
	l8.7,0.2h9.1l4.4-0.3c-0.1-1.1-0.1-2.1-0.2-3.1c-0.5-3,0.5-5.9,0.8-8.9c0.2-0.7,0.6-1.4,1.1-1.9c0.3-0.2,0.6-0.3,1-0.3h3.6
	c0.8,0,1,0.2,1,0.9c-0.1,1.2-0.2,2.3-0.2,3.5c0,4.7,0.1,9.4,0.1,14s-0.1,9.2-0.1,13.7c0,1.6,0.1,3.2,0.1,4.8c0,1.6-0.5,1.4-1.5,1.2
	l-4.1-0.8c-0.4-0.2-0.7-0.5-0.9-0.9c-0.8-4.3-1.1-8.7-0.8-13c0.1-1-0.4-1.4-1.3-1.4l-13,0.4c-1.7,0-3.3,0-5,0.2
	c-8.4,1.2-16.6,0.2-25,0.4c-8.4,0.2-15.5,0-23.3,0c-1,0-1.5,0.4-1.5,1.4c0,1,0.1,4.8,0,7.2c-0.1,2.4-0.3,3.7-0.5,5.6
	c-0.1,1.7-1.4,3-3.1,3h-1.7c-0.9,0.1-1-0.5-1.4-1.2c-1.3-3.3-0.1-6.6-0.4-9.9s0.1-5.9,0.1-8.8s-0.2-4.4-0.2-6.6c0-2.2,0.2-2,0.2-3
	C230.9,38.2,231,35,231,32.7z M284.7,45.1h-2.2l-2,0.2H266c-1.6,0-3.2-0.2-4.9-0.2l-5.6,0.5c-5.8,0.5-11.6,0.9-17.3-0.1
	c-0.2,0-0.8,0.3-0.8,0.4c0,1.1,0.1,2.3,0.3,3.4c0,0.2,0.5,0.4,0.7,0.5h6.2l7.8-0.3h18.9l6.9-0.2c4.7,0.1,9.4,0.4,14,0.4
	c4.7,0,9.2-0.2,13.6-0.4c0.3,0,0.8-0.3,0.8-0.5s0.3-2.6,0.5-3.9h-0.6c-4.1,0.5-8.3,0.5-12.3-0.1c-0.2,0-0.6,0-0.7,0.1
	c-0.1,0.1-1.4,0.4-2.1,0.5c-0.7,0.1-1.3-0.2-2-0.2L284.7,45.1L284.7,45.1z M311,45.2l-1.2-0.8c-0.2,0.4-0.3,0.8-0.4,1.2
	c0,1.4-0.5,3,0.9,4.2c1.4,1.2,0.2,1.1-0.5,1.1s-1.1,0.5-1.2,1.2c-0.6,3.7-0.5,7.5,0.3,11.2c0.2,0.5,0.6,1,1.1,1.2
	c0.8,0.2,1.6,0.2,2.4,0.2c0-0.2,0.1-0.5,0.1-0.7c0.2-5.1,0.3-10.3,0.5-15.3c0-1.7,0-3.4-0.2-5.1c-0.2-2.3-0.6-4.5-0.7-6.8
	c0-1.6,0-3.3,0.2-4.9c0.1-1-0.4-1.4-1.3-1.4s-1.9-0.1-1.7,1.3c0.1,1,0.1,1.9,0,2.9c-0.1,0.5-0.3,0.9-0.5,1.3
	c0.2,0.1,0.3,0.3,0.4,0.5c0.1,1,0.3,1.9,0.6,2.9c0.4,1.3,0.4,2.9,2,3.5c1.6,0.6,0.2,0.8,0.1,1.2C311.7,44.5,311.3,44.9,311,45.2
	L311,45.2z M232.3,32.6c0.2,1.3,0.3,2.4,0.5,3.5l1.4,8.7c0.5,3,0.5,5.9-1.2,8.7c-0.4,0.7-0.7,1.5-0.7,2.3c0,2.9,0.1,5.9,0.2,8.8
	c0.1,0.6,0.2,1.1,0.3,1.7l1.2-0.4c1.3-0.1,1.6-0.7,1.5-1.9c-0.1-1,0-2,0.1-3c0.2-3,0.6-5.9,0.7-8.9c0.1-3-0.2-5.5-0.2-8.2
	s0.1-6.5,0.1-9.8c0-0.7,0.1-1.3,0.1-2.2L232.3,32.6z M232.3,41.8v10.5C233.9,48.9,232.6,45.5,232.3,41.8L232.3,41.8z M236.4,59.7
	h-0.2v4.6h0.2V59.7z"/>
<path class="st0" d="M265.5,366.7c0.8-0.4,1.7-0.6,2.6-0.8c3.7-0.4,7.4-0.7,11.1-0.8c3.7-0.1,7.2-0.4,10.6,0.2
	c2.9,0.4,5.8,0.6,8.8,0.4c1.6,0,3.1,0.2,4.7,0.3l4.3-0.2h9l7.6-0.3l3.9,0.2h7.9l3.9,0.3c0.4,0.2,0.6,0.5,0.7,0.9
	c0.2,1.2,0.2,2.4,0.1,3.6c0,0.8-0.6,1.4-1.4,1.4c-0.2,0-0.3,0-0.5-0.1l0.7,0.5l-2.1,0.2h-37.4l-17.2-0.2l-14.4-0.2
	c-0.7,0-1.1-0.2-1.1-1c0-0.9-0.2-1.9-0.4-2.8C266.3,367.7,265.9,367.2,265.5,366.7z"/>
<path class="st0" d="M248,278.9l-6.4,1.4l-1.8,0.2c-0.8,0.1-1.5-0.4-1.6-1.2c0,0,0,0,0,0c-0.9-2.6-1.7-5.2-3.5-7.3l-0.2-0.3
	c-0.1-2.9-2.4-4.7-3.7-7.1s-1.9-2.8-2.8-4.3c-0.1-0.4,0-0.8,0.2-1.1c2.6-2.1,5.3-4.2,8-6.1c1.2-0.8,2.6-1.4,4-1.8
	c0.7-0.2,1.4-0.2,2.1-0.2c-0.1,1.1-0.8,2.1-1.8,2.6l-9.1,5.7l-1.6,0.6l1.2,1.5c0.8,1.2,1.5,2.4,2.4,3.5c0.4,0.4,0.9,0.5,1.4,0.5
	c1.6-0.2,3.3-0.5,4.9-0.9c1.8-0.5,3.5-1.2,5.2-1.9c0.4-0.2,0.6-0.9,1-1.4c0.4-0.5,1.8,1.4,2.1,2.3c1,2.8,1.6,5.7,2.4,8.6
	c0.1,0.4,0.1,0.8,0,1.2c-0.2,0.8-0.4,1.6-0.5,2.5c0,0.8,0.2,1.7,0.4,2.5l6.4-0.6c4.7-0.3,9.4,0.1,13.9,1.2c1.9,0.4,3.8,0.5,5.6,1.1
	c2.1,0.8,4.1,1.7,6.1,2.8c0.1,0.1,0.2,0.7,0.1,0.9c-0.4,0.7-1.3,1-2.1,0.6l-2.8-1.1c-3.1-1.4-6.5-1.4-9.7-1.8
	c-3.2-0.4-7.7-0.8-11.5-1.1c-3.1-0.1-6.2,0.4-9.1,1.6c-2,0.7-4.1,1.2-5.9,2.6c-1.8,1.4-2.2,0.5-3.4,0.6s-0.8-0.3-1.2-0.5
	c-0.4-0.2,0.3-1,0.6-1.1l7.7-3.6c0.9-0.3,1.8-0.6,2.8-0.9L248,278.9z M235.9,269.3l4.3,7.4c0.1,0.2,0.6,0.2,0.9,0.1
	c1.8-0.6,3.6-1.4,5.4-1.9c1.8-0.5,1.1-0.8,0.9-1.7s-0.9-4.5-1.3-6.8c-0.4-2.3-0.5-1.4-1.5-0.8l-1.1,0.5l-5.7,3.3L235.9,269.3z"/>
<path class="st0" d="M96.7,43.1c-0.2,0.4-0.5,0.8-0.9,1.1c-0.4,0.3-0.9,0.4-1.4,0.3c-2-0.3-4.1-0.7-6.1-0.9c-1.3,0-2.6,0.1-3.9,0.5
	c-0.5,0.2-0.9,0.7-1,1.2c-0.6,3.9-1.3,7.8-1.6,11.7c-0.1,2.5-0.1,5,0.1,7.6c0,1,0.8,0.9,1.5,0.9s3.5,0.1,5.2,0.4
	c1.7,0.3,3,1.9,2.9,3.7c0,1,0.6,2.1,0.6,3.1c0.1,3-0.2,6-0.8,8.9c-0.1,0.5-0.1,0.9-0.1,1.4c0.2,1.6-1,3.1-2.6,3.4l-5,1l-0.9,0.2
	c-1.2,0.4-2.5-0.1-3-1.3c-0.1-0.2-0.1-0.4-0.1-0.6c-0.2-1.1-0.6-2.2-0.8-3.3c-0.2-1.1-0.2-2.3-0.4-3.4c-0.2-1.1-0.4-1.4-0.5-2.2
	c-0.1-0.6-0.1-1.3-0.1-1.9c0-3.4,0-6.8,0.2-10.2c0.2-3.4,0.6-6.6,0.7-9.8c0.1-3.2,1.3-7,0.3-10.6c-0.5-1.7-0.1-1.9,1.7-2.1
	c1.8-0.2,3.9-0.1,5.8-1.1c1.4-0.7,3.1-0.7,4.6-0.1c0.8,0.3,1.8,0.2,2.6,0.4c0.8,0.2,2.2,0.9,3.3,1.3L96.7,43.1z M81.6,81.1
	c0.1,0.7,0.2,1.6,0.2,2.4c0,0.8,0.5,1,1.2,0.9c3.5-0.6,6.1-3.4,6.4-7c0.2-2.2,0.4-4.4,0.5-6.7c0-0.4-0.2-0.8-0.6-1.1
	c-1.9-1.1-4.1-1.3-6.3-1.4c-0.2,0-0.6,0.4-0.7,0.6c-0.2,0.9-0.3,1.8-0.3,2.7C81.8,74.7,81.7,77.8,81.6,81.1z M88.7,82.5l-2.9,2.3
	C87.9,84.8,88.8,84.1,88.7,82.5z M80.5,67.4h-0.6v4.3h0.3L80.5,67.4z M80.7,62h-0.4c-0.2,1-0.5,2.1-0.6,3.1c-0.1,1,0.2,0.4,0.3,0.5
	s0.5-0.3,0.5-0.5S80.7,63,80.7,62L80.7,62z M82.7,44.9c-1.2,0.8-1.1,2-0.7,3.5L82.7,44.9z"/>
<path class="st0" d="M119,186.7l-2.4-0.3c-2.2-0.4-4.5-0.3-6.8,0.2c-0.3,0.1-0.7,0.2-1.1,0.1c-0.4-0.2-0.6-0.5-0.8-0.9
	c0-0.1,0.4-0.5,0.6-0.7c1.5-0.7,3.1-1,4.7-0.9c2.2,0,2.5-0.4,2.4-2.7c-0.1-2.3-0.2-3.7-0.1-5.6c0.1-0.8,0.2-1.6,0.4-2.4
	c0.2-1.3,0.4-2.6,0.5-4c0.1-2.6,0-5.2,0-7.8c0-1-0.5-1.4-1.3-1.5h-5.5c-0.3,0-0.5,0.5-0.8,0.6l-1.2,0.3c-0.1-0.4-0.1-0.7-0.1-1.1
	c1.2-4.2,3.4-8,5.3-11.9c2.2-4.8,4.8-9.5,7.6-14c0.7-1,1.1-2.2,1.7-3.4l-0.9-0.3l-5.6,0.2c-1,0-1.9-0.2-2.9-0.3l-5-0.3
	c-0.4,0-0.8-0.5-1.2-0.8c-0.4-0.3,0.7-0.7,1-0.7c3.4-0.5,6.9-1.1,10.3-1.4c1.7-0.1,3.3,0,5,0.2c0.9,0.2,1.8-0.2,2.3-1
	c0.3-0.3,0.6-0.6,1-0.8l0.4,0.3l-1,3l1.6,1c-0.6,0.2-1.2,0.3-1.8,0.4c-0.7-0.1-1.3,0.4-1.5,1.1c-0.6,1.8-1.1,3.6-1.9,5.4
	c-0.9,2.4-2,4.7-3.2,6.9c-2.6,4.4-5.4,8.6-8.1,12.8c-0.3,0.5-0.5,1-0.7,1.5l4-0.3h1c2.9-0.1,3,0.2,3,2.8s0.4,3,0.5,4.5
	c0.1,1.5,0.3,5.3,0.3,8c0,2.5-0.3,4.9-0.7,7.4c-0.1,0.8,0,1.6,0.2,2.4C118.9,184.1,118.9,185.3,119,186.7z"/>
<path class="st0" d="M342,365.1c0-3.2,0-6.4,0-9.6c0-3.2-0.2-3.8-0.2-5.7c0-1.9,0.5-1.6,1.6-1.5h1.4c0.8,0.1,2.1,0,2.4,0.5
	c0.9,1.1,1.3,2.5,1.2,3.9c-0.3,2.9-0.2,5.8-0.3,8.7c-0.1,2.9-0.2,3.5-0.3,5.3c-0.1,1.8,0.2,1.1,0.1,1.7c-0.1,0.6-0.3,3.4-0.3,5.2
	s0,6.4,0,9.6c0.1,0.9,0.1,1.7,0,2.6c-0.1,0.9-0.8,1.2-1.7,1.2l-3.2,0.2c-1.7,0.2-2.3-0.3-2.2-1.9c0.5-5.2,1.2-10.3,0.9-15.4
	c0-1.6,0-3.1,0.2-4.7L342,365.1z"/>
<path class="st0" d="M127.9,86.6c-3.1-0.7-5.9,0.6-9.2,1.6c0.3-0.6,0.4-1.2,0.7-1.3l3-1.4c0.7-0.4,1.4-0.7,2.2-1
	c0.6-0.1,1.2-0.1,1.8,0l7.1-0.7c0.5-0.2,0.9-0.6,1.1-1.1c1.2-4.3,1.4-8.9,0.7-13.3c-0.2-1.6-0.3-3.2-0.3-4.9c0-0.7-0.1-1.3-0.2-2
	c-0.1-0.4-0.4-0.6-0.8-0.7c-1.6-0.1-3.3-0.1-4.9,0c-0.7,0.2-1.2,0.6-1.7,1.1c-0.7,0.6-1.3,1.3-2.3,0.3l-0.9,2.5
	c-0.6-1-0.9-1.7-1.9-1.4c-1,0.3-0.8-0.5-0.4-1.1l1.2-1.5c-1-0.3-1.4-0.8-1.1-1.8c0.2-1,0.9-1.7,1.9-2c2-0.6,3.8-1.8,5.8-2.4
	s2.7-2.2,3.7-3.6c1-1.4,1.8-2.9,2.8-4.3c-2.8-1-5.7-1.4-8.7-1.4c-1.2,0.1-2.4,0.5-3.7,0c-0.9-0.3-1.4-1.2-1.2-2.1
	c0-0.1,0.1-0.3,0.2-0.4c2.9,0.6,5.8,0.8,8.7,0.6c1.1,0,2.3,0.1,3.4,0.3l3.1,0.7c0.4,0.1,0.6,0.5,0.9,0.8c0.3,0.3,0,0.2,0,0.2
	s1,1.7-0.8,1.5c-1.8-0.2-0.9,0.7-1.2,1.2l-6.4,9.7c-0.2,0.3-0.3,0.7-0.4,1l2.7-0.3h3.9c0.3,0,0.8,0.6,0.9,0.9
	c1.1,3.7,0.8,7.4,0.4,11.2c-0.2,1.8,0.6,3.7,0.9,5.5c0.3,1.8,0.9,4,1.2,6c0.3,2-0.1,1.7-1.5,1.7c-0.7-0.1-1.4,0.2-1.7,0.8
	c-0.2,0.3-0.6,0.4-0.9,0.5l-6.9,2.4c-0.5,0.2-1,0.1-1.4-0.1C127.7,88.1,127.9,87.4,127.9,86.6z M137.8,75.1h-0.5
	c-0.1,1.1-0.2,2.2-0.3,3.4s-0.3,2.5-0.3,3.8c0,1.3,0.8,1.3,1.8,1.2c1-0.1,1.1-0.2,0.9-0.9L137.8,75.1z M126.3,58l-3.4,1.8
	C124.2,60.4,125.2,59.9,126.3,58z M135.9,69.9h0.2l-0.4-7.8h-0.3L135.9,69.9z"/>
<path class="st0" d="M258.5,382.9c0-2.1,0-4.4,0-6.7c0-2.3,0.1-4.8,0.3-7.2s0.4-7.2,0.7-10.8c0.3-3.6,0.7-5.3,1.1-7.9
	c0.1-0.8,0.7-0.9,1.4-0.8c1,0.1,1.9,0.3,2.9,0.5c0.5,0.2,0.8,0.7,0.9,1.3c0,1.6-0.3,3.2-0.4,4.7c-0.1,1.5-0.4,6.1-0.5,9.2
	c-0.1,3.1-0.3,6.4-0.5,9.7s0.3,6.1-0.4,9.1c-0.1,1.1-0.1,2.2,0.1,3.3c0.1,0.8-0.3,1.1-1,1.1c-0.8,0.2-1.6,0.3-2.4,0.3
	c-0.6-0.1-1.1-0.4-1.4-0.9C258.9,386.2,258.7,384.6,258.5,382.9z"/>
<path class="st0" d="M265.2,68.9l1.6,0.7V55.4l1.2,0.5c1.7,1.2,3.6,1.1,5.6,1c2-0.1,4.9,0,7.4,0l0.8,0.3c-0.5,1.2-1.1,1.4-2.7,1.3
	h-2.6l-6.4,0.2c-1,0-1.8,0.8-1.8,1.8c0,2.8,0,5.7-0.1,8.5c-0.1,1.3,0.6,1.6,1.5,1.6c1.8,0,3.7-0.1,5.5-0.3c1.1-0.2,1.7,0.2,1.8,1.1
	c0.1,0.9-1,1.1-1.5,1.1c-2.2,0-4.5-0.1-6.7-0.2H268v1l-1.2,12c0,0.4-0.1,0.7-0.2,1.1c-0.2,0.3-0.4,0.6-0.6,0.8
	c-0.3-0.2-0.7-0.4-0.7-0.7c-0.4-1.1-0.6-2.2-0.6-3.3c0.4-3.3,1-6.6,1.6-9.9c0.2-1.2,0.3-2.2-1.3-3l0.7,1.5c-1.3,1.1-0.6,2.7-0.8,4.1
	c-0.2,1.4-0.8,5.7-1.2,8.5c-0.1,0.3-0.2,0.7-0.4,1c-1.3-1.3-1.1-3-1.8-4.5c-0.6,1.8,0.2,3.8-0.8,5.5h-0.4c-0.3-0.6-0.5-1.2-0.7-1.8
	c-0.3-1.1-0.5-2.1-0.6-3.2c-0.1-0.5-0.1-1.1,0.1-1.6c0.9-2.4,1.2-4.9,0.9-7.4c-0.1-2.2,0-4.3,0.4-6.5c0.3-1.9,0.9-3.7,0.2-5.5
	s0.4-2.3,0.9-3.4c1.7,0.7,0.5,2.7,1.8,3.6l0.2-4.2h0.4c0.1,0.3,0.4,0.5,0.4,0.8c0.2,3.2,0.2,6.4,0.4,9.5
	C264.8,67.4,265,68.2,265.2,68.9z M263.5,66.7l-0.2,0.4c-0.6,3.2-1.2,6.3-1.6,9.5c0,1.6,0.2,3.1,0.5,4.7
	C263.6,76.5,264,71.6,263.5,66.7z M262.4,65.3c0.4-0.9,0.9-1.7,0-2.6V65.3z"/>
<path class="st0" d="M261.6,233.3c0,0.3,0,0.6,0,0.9c-0.1,0.3-0.3,0.6-0.5,0.8c-0.9-0.5-1.3,0.2-1.9,0.6c-0.6,0.4-0.9-0.2-1-0.4
	c-0.1-0.2-0.9-2.2-1.6-3.2l-0.3,2.7c-1.5,0.1-3.2,0.8-3.4-1.7c-1,0.3-1.9,0.6-1.7,1.9c0.2,1.3-0.1,0.5-0.2,0.5
	c-0.7,0.2-1.5,0.3-2.3,0.2c-0.8-0.2-2-0.4-2.1-1.5s0.2-3.2,0.2-4.8c0-1.6,1-1.2,1.6-1.2s0.7,0.9,0.9,1.4c0.2,0.5,0,0.6,0.1,0.8
	s0.3,0.9,0.6,1c0.3,0.1,0.7-0.2,1.1-0.5c0.4-0.3,0.3-0.5,0.4-0.5s1.6-1,1.9-2.3l2.6,1.5c0.6,0.3,1.3,0.5,2,0.6
	c0.1,0,0.4-0.5,0.4-0.7c0-0.5,0-1.1-0.1-1.6c1.4-0.4,1.5-0.3,2.2,1.7c0.2-0.4,0.4-0.9,0.6-1.4c0-0.3,0-0.5-0.2-0.7
	c-1.1-0.5-2.3-0.5-3.4,0c-0.8-0.6-1.3-1.3-0.7-2.4c0.2-0.3,0.3-0.6,0.3-0.9c0.2-3,0.4-6,0.6-9.1c0.1-1.8,0.1-3.7,0.3-5.5
	c0.2-1.8-0.3-2.1,1.6-1.5c1.9,0.6,2.6-0.3,3.9-0.4c1.5-0.1,3-0.2,4.5-0.1c1,0.1,1.8,1,1.7,2.1c0,0,0,0,0,0c-0.1,1.3-0.3,2.7-0.6,4
	c-0.2,1.2-0.9,1.2-1.9,0.9l-2.9-0.8v2.3c0.5,0.1,1,0.2,1.5,0.4c1,0.6,1.1,1.9,0.4,3.8c-0.7,1.9-1.2,1.2-2.1,0.9s-1.4,0.2-1.5,1.2
	c-0.1,1-0.3,5-0.3,7.5c0,0.9,0.1,1.8,0.3,2.7l1.1-0.2v0.4L261.6,233.3z M259.8,210.3c-0.1,0.2-0.1,0.5-0.1,0.7
	c0.3,3.3,0,6.6-0.8,9.9c-0.2,1-0.3,2.1-0.3,3.2c-0.1,1.3,1,1,1.7,1.1c0.4-0.1,0.8-0.4,1-0.8c0.2-1,0.3-2.1,0.3-3.1
	c0-1.8,0.6-2.3,2.3-2.1h1.5l-0.2-0.5h-0.6c-1.3-0.1-2.2-1.1-2.2-2.4c0,0,0,0,0,0c0-1.1,0-2.2-0.1-3.3c-0.1-1.1,0.3-1.2,1.1-1.2
	l2.8,0.2l1.7,0.2c0.1-0.7,0.1-1.2,0.2-1.6c0.1-0.4-0.4-1.4-1.5-1.2L259.8,210.3z"/>
<path class="st0" d="M250.9,370.3c0.2,2.4-1.6,2.3-3,2.6l-2.4,0.3c-1.2,0.1-1.7-0.3-1.6-1.5c0.1-1.2,0.4-3.7,0.7-5.6
	c0.1-0.4,0.4-0.7,0.8-0.8c1.2-0.2,2.4-0.4,3.7-0.4c1,0,1.5,0.7,1.7,1.7c0.2,1,0.3,1.7,0.4,2.6h0.5c0-2.4,0-4.9,0-7.3
	s0.2-3.2,0.4-4.7c0.2-1.5,0.4-0.6,0.7-0.7l2-1h0.5c1.7,0.3,2.9,1.9,2.7,3.6c-0.3,2.1-0.4,4.3-0.6,6.4c-0.2,2.1-0.5,6.7-0.7,10
	c-0.1,1.6-0.1,3.2-0.2,4.8c0,1.5-1.2,2.7-2.7,2.7c-0.2,0-0.4,0-0.6-0.1c-0.9-0.5-1.6-1.4-1.8-2.4c0-2.8,0.1-5.7,0.1-8.5
	c0-0.5,0-1-0.1-1.5L250.9,370.3z"/>
<path class="st0" d="M108.9,44c0.2-0.5,0.4-1.1,0.5-1.7c0.2-3.1,0.3-6.2,0.5-9.3c0-0.4,0-0.8,0-1.4c-1.2,0.5-2.2,1.4-2.8,2.6
	c-0.4,0.8-0.8,1.6-1.3,2.4c-0.1,0.2-0.7,0.2-1,0.3c-0.3,0.1-0.2-0.7,0-0.9c1-2,2-4.1,3.1-6.1c0.6-1.4,1.8-2.5,3.3-2.9
	c0.9-0.2,1.3,0,1.4,0.9c0.2,0.9,0.3,1.8,0.3,2.7c0.1,3.1-0.1,6.1-0.4,9.2c-0.4,3.2-0.1,6.5-0.2,9.7c-0.1,3.2-0.1,5.8-0.3,8.7
	c-0.2,2.9-0.1,3.8-0.3,5.7c-0.4,4.2-0.9,8.4-1.2,12.5c0,1.7,0.1,3.3,0.3,5c0,0.9,0.5,2.2-1.3,2h-0.2c-0.9,0.8-1.5,0.6-1.6-0.6
	c-0.2-1.1-0.2-2.2-0.2-3.3c0.2-4.8,0.4-9.6,0.6-14.3c0.1-2.1-0.2-4.3,0-6.4c0.2-2.1,0.6-6.7,0.8-10C109.1,47.3,108.9,45.7,108.9,44z
	 M109.8,60.3c0.7-1.6,1.1-8.4,0.5-9.2L109.8,60.3z"/>
<path class="st0" d="M237,196c-0.6-1.2-0.1-1.4,0.8-1.4c2.5,0.1,5.1,0.3,7.6,0.3l19.6-0.6h7.2l14.8,0.4c0.2,1.3,0.4,2.7,0.6,4
	c0.2,1.3-0.6,2.4-2.2,2.8c-4,0.8-7.9,0.6-11.9,0.6l-15.6,0.3c-3.9,0.1-7.7,0.1-11.6,0.4c-4.7,0.4-9.5,0.5-14.2,0.3
	c-2.9-0.2-3-0.1-3.3-3.1c0-1.1,0.2-2.2,0.6-3.2c0-0.1,0.4-0.3,0.6-0.3l2.8-0.4L237,196z M237.4,197c0.2,1.2,0,1.4-1,1.1
	c-1.5-0.5-3.1-0.6-4.6-0.1c-0.7,0.2-1.1,0.5-1,1.4c0,0.4,0,0.9,0,1.3c0,0.6,0.1,0.9,0.8,0.9h3L250,201l17.5-0.4l12-0.2
	c1.9-0.1,3.7-0.3,5.6-0.5c1.9-0.2,1.5-0.8,1.2-1.9c-0.3-1.1-1-2.3-3-2.4H282l-13.2,0.3l-11.5,0.4c-3.1,0.2-6.1,0.7-9.2,0.8
	C245.1,197.2,241,197,237.4,197z"/>
<path class="st0" d="M53.2,424.8c-0.1-0.6-0.2-1.2-0.2-1.8c0-6.7-0.1-13.3-0.1-20c0-4.2,0.2-8.3,0.2-12.4s-0.2-6.6,0-9.9
	c0.3-5,0.8-10,1.1-14.9c0.2-3.3,0.1-6.7,0.1-10c0-0.3-0.1-0.6-0.3-0.9c0.2-0.5,0.3-1,0.4-1.6c-0.1-3.7-0.4-7.5-0.4-11.2
	s0.1-5.6,0.2-8.3c0-0.9-0.1-1.7-0.2-2.6c-0.3-3.4,0.3-6.9,0.2-10.3c-0.1-3.4,0.5-5-0.7-7.4c-0.2-0.4,0.1-1,0.1-1.3
	c0.8,0.2,1.6,0.3,2.4,0.3c2.4-0.3,4.8-0.5,7.3-0.5c1.6,0.1,3.1-0.5,4.7-0.5c1.6,0,0.6,0.3,0.9,0.4c0.3,0.1-0.5,0.5-0.9,0.6
	c-1.1,0.4-2.3,0.6-3.5,0.8l-7.2,0.6l-2.2,0.2c0.1,1.5,0.2,2.9,0.2,4.4c0,3.6-0.2,7.2-0.2,10.8c0,3.6,0.1,8.7,0.2,12.9
	c0.1,4.3,0.1,6.5,0.1,9.7c0,5.1,0,10.1-0.1,15.1c0,1.1,0.5,1.3,1.4,1.3h4.4c0.7,0,1,0.4,0.9,1.1c-0.1,2.6-0.2,5.2-0.4,7.8l-0.7,15.3
	c0,0.7-0.2,1.5,1.1,1.6c-1.3,0.3-1.3,1.1-1.3,2.1c0,4.3-0.1,8.6-0.1,12.8c0,4.3,0,9.1,0.1,13.5c0.1,4.5-0.5,3.9-3.9,2.9
	c-0.8-0.1-1.5-0.2-2.3-0.2c0.4-0.6,1.2-1,1.9-0.8l2.4,0.3c0.9,0.2,1.2-0.2,1.2-1.1c-0.1-2.8-0.2-5.5-0.2-8.3c0-2.8,0.2-6.1,0.3-9.1
	s0-6,0.2-9.1c0.2-3.1,0.4-8.7,0.6-12.9c0.2-4.3,0.3-8.5,0.5-12.6c0-0.1,0-0.2,0-0.4c0-2.4,0-2.5-2.5-2.3l-1.9,0.2
	c-1.7,0.1-1.6,0-1.7,1.8s-0.2,3.9-0.3,5.9c-0.1,2,0,2.3-0.1,3.5c-0.1,1.2-0.2,3.3-0.3,5c-0.1,1.7-0.4,4.1-0.5,6.2
	c-0.2,4.2-0.3,8.5-0.3,12.6s0,9.1,0.1,13.5c0,2,0,4,0,6.1c0,0.4,0,0.7-0.1,1.1L53.2,424.8z"/>
<path class="st0" d="M263.9,1.3c-0.4,0.2-0.7,0.5-1.1,0.5h-11c-0.9,0-1.3,0.3-1.2,1.2c0.1,3.1,0.1,6.3,0.2,9.4c0,0.8,0,1.9,0.4,2.3
	c0.4,0.4,1.6,0.1,2.4,0.1l9.1,0.3c1.3,0.1,2.2,1.2,2.1,2.5c0,0,0,0.1,0,0.1c-0.4,2.5-0.4,5.1,0,7.7c0.2,1.4,0.4,2.8,0.4,4.2
	c0,0.8-0.1,1.6-0.3,2.4c-0.2,0.4-0.6,0.6-1,0.7c-3,0.3-5.9,0.7-8.9,0.7s-3.9,0.1-5.5-1c-0.3-0.2-0.5-0.5-0.6-0.9
	c-0.1-2.4-0.1-4.9-0.1-7.3s-0.1-5.2-0.1-7.9s0.1-6.8,0.2-10.2c0-1,0-2,0-3c0-0.7,0.2-1.4,0.4-2c0.3-0.9,0.9-1.1,2-0.9
	s5.1,0.1,7.6,0.3l5,0.5L263.9,1.3z M250.9,23.9h0.2c0,1.5,0,3,0,4.4c0,1.4,0,2.7,2.8,2.4l8.3-0.7c1-0.1,1.2-0.6,1.2-1.4l-0.7-10.7
	c-0.1-1-0.6-1.3-1.6-1.3l-9,0.2c-0.8,0-1.1,0.2-1.1,1.1C251,18.8,250.9,22,250.9,23.9z"/>
<path class="st0" d="M253.2,188.5c-0.2-2.7-0.2-5.3-0.4-8c-0.2-2.7-0.5-2-2-2H244c-0.9,0-1.3-0.2-1.3-1.2c0.1-1.6,0.2-3.1,0.1-4.7
	c-0.1-0.8,0.2-1.3,0.9-1.5l4.2-0.9c1.4-0.2,1.7-0.6,1.5-2c-0.2-0.7-0.2-1.5-0.2-2.2c0.3-1.9-0.3-2.6-2.2-2.4
	c-4.2,0.6-8.4,1.1-12.5,0.2c-0.3,0-0.6,0-0.9,0.2c0,0.7,0.1,1.4,0.3,2.1c0.2,0.6,0.7,0.8,1.3,0.5c0.6-0.3,1.5-0.1,1.6,1
	c0.3,4,0.6,8,0.7,12s-0.3,7-0.5,10.5c-0.1,1.5,0.4,2.1,1.9,2.3l4,0.4v0.3l9.5-1.2c0.3-0.1,0.5-0.3,0.7-0.5
	C253.8,190.4,253.2,189.5,253.2,188.5z M238.6,188.6c0.4-4.2,0.5-8.4,0.3-12.6c-0.2-2.7-0.5-5.5-0.7-8.2c-0.2-2.7,0.2-1.6,1.5-1.6
	l6.1-0.6c1.7-0.2,1.6-0.3,2,1.4l0.3,1.3l-5.6,1.3c-0.7,0.1-1.2,0.7-1.1,1.4c0,0,0,0.1,0,0.1c0.1,1.3,0.1,2.7,0,4
	c-0.2,0.8-0.4,1.6-0.7,2.4c-0.3,1.2,0.5,2.5,1.7,2.7c0.2,0,0.4,0.1,0.6,0.1l6.9-0.4c1-0.1,1.3,0.3,1.3,1.2s-0.3,4.7-0.4,7
	c0,0.6-0.4,1-1,1l-9.6,1C238.7,190.2,238.4,189.9,238.6,188.6L238.6,188.6z"/>
<path class="st0" d="M290.7,3.2h-7.3c-1,0-2.2,0.4-2.9-0.8s-0.6-0.2-1-0.3c-0.4-0.1,0.3-1.2,1.1-1.3l4-0.2l8.2-0.2
	c1.6,0,2.7,0.8,2.3,1.8c-0.4,0.8-0.9,1.5-1.6,2c-2.8,2.4-5.1,5.2-7,8.4l6.9,1c1.2,0.1,1.9,0.7,2.1,1.9c0.3,3,1,6,0.3,9
	c-0.1,1.1,0,2.1,0.2,3.2c0.3,1.9-0.2,2.7-2.1,2.8l-8.1,0.2c-1.7,0-3.3-0.2-5-0.5c-0.6-0.1-1-0.7-1.6-1.1c-0.6-0.4,1.4-1.5,2.3-1.2
	c3.1,1.2,6.3,0.7,9.5,0.8c3.2,0.1,3.2,0.4,3.1-3.1c-0.1-3.5-0.1-5.6-0.1-8.4c0-1.1-0.2-1.5-1.4-1.5h-9.5l-2.3,0.2
	c-1.1,0.1-1.6-0.6-0.9-1.5c0.7-0.9,2.4-2.6,3.7-3.9l5.6-5.6C289.8,4.3,290.2,3.8,290.7,3.2z"/>
<path class="st0" d="M351.8,381.2h-0.9c-1,0-1.7-0.3-1.6-1.5c0.1-1.2,0.3-4.5,0.4-6.8c0.1-2.3,0.1-4.9,0.1-7.4
	c0-0.7,0.1-1.5,0.1-2.2c0.1-2.7,0.2-5.3,0.3-8c0-0.3,0.6-0.6,0.9-0.7c0.3-0.1,2,0.7,2.8-0.3c0.6,0.6,1.5,1.1,1.7,1.7
	c0.2,1.2,0.2,2.3,0.1,3.5c0,1.9-0.1,3.8-0.2,5.7c-0.2,3.9-0.4,7.7-0.7,11.5c-0.1,0.9-0.2,1.9-0.4,2.8
	C354.2,381,353.8,381.2,351.8,381.2z"/>
<path class="st0" d="M270.6,276.8c0.8-0.7,1.3-1.4,1.9-1.4c1-0.1,2.1,0,3.1,0.3c1.5,0.5,3,1.1,4.4,1.8c0.5,0.3,1.1,0.2,1.4-0.3
	c0-0.1,0.1-0.1,0.1-0.2l4.7-8.8c0.3-0.4,0.2-1-0.2-1.3c-0.1-0.1-0.2-0.1-0.3-0.1c-1.8-0.7-3.6-1.4-5.5-1.9c-1.1-0.2-2.1-0.8-2.9-1.6
	c-0.8-0.9-0.6-1.7,0.5-2.2c0.7-0.1,1.3-0.4,1.8-0.9c0.8-1,1.9-1.1,2.9-1.6l5.1-2.3c-1.2-0.3-2.4-0.5-3.6-0.6c-2.2,0-3.8-1.3-5.6-2.2
	c-0.3-0.3-0.5-0.8-0.4-1.3c0.1-0.3,0.8-0.6,1.1-0.5l8.5,2.1l4.6,1.4l2.1,0.2c-0.5,0.5-0.7,1.1-1.1,1.3l-10,4.3l-1.1,0.6l5.4,3.8
	c0.3,0.3,0.6,0.7,0.6,1.2c0.2,2.4-1.2,4.2-2.5,6c-0.6,1.1-1.1,2.2-1.5,3.4l-0.9,2.1c-0.5,1.2-1.8,1.9-3.1,1.6l-8.3-2.1
	C271.4,277.3,271,277.1,270.6,276.8z"/>
<path class="st0" d="M281.8,170.3l-3.9,5.5h2.2c1.1-0.1,1.5,0.5,1.6,1.5c0.1,1,0.2,4.9,0.3,7.4c0,0.9-0.2,1.8-0.1,2.7
	c0.1,0.9-0.4,1.4-1.5,1.4s-4.1,0.4-6.2,0.6c-0.7,0.1-1.4,0-2.1-0.2c-0.5-0.3-0.9-0.8-1-1.4c0-1,0-2.1,0.1-3.1
	c-0.1-0.9,0.6-1.6,1.5-1.7c0,0,0.1,0,0.1,0l2.9-0.2c0.7,0,1.2-0.2,1.2-1s-0.7-0.7-1.2-0.7l-3.8,0.2c-0.9,0.1-1.4-0.8-1.1-1.9
	s1.3-3.3,1.9-4.9l1.7-4.2c-1.6,0.7-2.3-0.1-2.9-1.1s-0.2-2,0.1-3.1c0.2-1.3,1.4-2.1,2.6-1.9c0.1,0,0.1,0,0.2,0l7.4,0.4
	c0.5-0.1,1.1,0.3,1.1,0.8c0,0.2,0,0.3,0,0.5c-0.2,0.9-0.4,1.7-0.6,2.6C282.1,169.4,281.8,169.9,281.8,170.3z M272.4,179.7h2.4
	c0.7,0,1.4,0.1,2.1,0.2c0.5,0.1,0.9,0.5,1.2,0.9c0.7,1.1,0.3,2.5-0.8,3.2c-0.4,0.2-0.9,0.4-1.3,0.3h-0.7c-2.5,0.2-2.5,0.2-2.6,2.6
	c0,0.8,0.3,1,1,0.9l1.8-0.2l3.6-0.2c1.1-0.1,1.6-0.7,1.4-1.8c-0.5-2.3-0.6-4.6-0.4-6.9c0-0.2,0-0.4,0-0.6c0-0.2-0.1-1-1-0.9
	c-1,0.1-1.9,0-2.9-0.1c-0.9,0-1.1-0.6-0.8-1.3c0.4-0.8,0.8-1.6,1.3-2.4l4.3-7l-0.3-0.4l-6.8,0.3c-0.8,0.1-1.3,0.8-1.2,1.6
	c0,0,0,0,0,0c0,0.4,0.7,0.7,1.1,1l1,0.4c1,0.3,1.5,1,1.1,2l-2.6,6.4C273.2,178.3,272.8,178.8,272.4,179.7z"/>
<path class="st0" d="M270,353.1h7.3l4.9,0.3c0.4,0,1,0.7,1,1c0,2.3-0.2,4.6-0.4,6.9c0,0.3-0.5,0.7-0.8,1l1,0.2l-0.7,0.2h-11L269,363
	c-0.8,0.1-1.4-0.3-1.4-1.1s0.2-2.4,0.3-3.5c0.1-1.1,0.1-0.5,0.1-0.8c0.1-2.9,0.1-5.8,0.1-8.7c0-2.9-0.1-5.3-0.1-8c0-0.3,0-0.6,0-1
	c0-0.4,0.2-1.7,1.9-1.6c1.7,0.1,2.7-0.2,4-0.2l6.6,0.3c0.4,0,0.7,0.2,1,0.4c0.2,0.3,0.4,0.6,0.5,0.9l-0.8,0.3l-5.8,0.5
	c-1.3,0-2.5-0.1-3.8-0.3c-1.1-0.2-1.5,0.2-1.5,1.2c-0.1,3.3-0.2,6.5-0.3,9.8C269.9,352.1,270,352.7,270,353.1z M281.2,360.3
	c-0.1-1.4-0.2-2.5-0.2-3.7c0-1.2-0.6-1.6-1.7-1.4l-9.2,0.7l-0.6,4.4H281.2z"/>
<path class="st0" d="M293.7,198.1c0-3.6,0-7.2,0-10.7c0-1.1,0.1-2.1,0.2-3.2c0.1-1.1,0.4-0.9,1-0.8l4.8,0.4c1.6,0.1,2.1,0.4,2.2,2
	c0.1,1.6,0.7,5.8,0.3,8.7c-0.4,2.9,0.2,7.1-0.4,10.6c-0.2,1.1-0.4,2.3-0.5,3.4s-0.2,2-0.2,3c0.1,0.7-0.4,1.4-1.1,1.6l-3.3,0.9
	c-1,0.2-2-0.4-2.2-1.5c0-0.1,0-0.3,0-0.4c0-1-0.1-1.9-0.4-2.9c-1-2.9-0.3-5.8-0.1-8.7c0-0.8,0.2-1.6,0.3-2.4L293.7,198.1z
	 M300.7,191.9c-0.1-2.1-0.3-4-0.4-5.9c-0.1-1.9-0.4-0.8-1-0.7c-0.7,0.1-1.3,0.2-2,0.2c-1.4-0.1-1.6,0-1.5,1.3c0.1,1.3,0.2,1.3,0.2,2
	s0,1.9,0,2.9s-0.2,4-0.2,5.9s0.3,1,0.1,1.7c-0.3,1.4-0.5,2.9-0.5,4.4c-0.1,1.2,0.2,2.4,0.1,3.6c-0.1,1.2,0.4,2.8,0.9,4.1
	c0.1,0.2,0.2,0.3,0.4,0.4c1.1,0.2,2.2-0.5,2.5-1.6c0-0.1,0-0.2,0-0.2c0-0.8,0.2-1.5,0.3-2.3C300,202.3,300.4,197,300.7,191.9z"/>
<path class="st0" d="M325.5,362.5c2.3-1,4.7-1.5,7.2-1.4h5c0.7,0,1-0.2,0.9-0.9c-0.1-0.7-0.2-3.7-0.5-5.6c0-0.3-0.9-0.7-1.4-0.7
	l-5.4,0.3h-5.4l-1.1-0.3l12.1-13.6c-1.1,0.2-2.2,0.4-3.4,0.4l-6.5-0.5h-1.2l-1.1-0.6c0.3-0.3,0.6-0.7,0.9-0.8h4.4l7.1,0.2
	c1,0.1,2,0.3,3,0.6c-3.4,5-8,8.4-11.6,12.8h8.5c1.9,0,2.7,0.8,2.7,2.7s0,4.5-0.1,6.7s-0.4,1.9-1.9,1.9l-7.4,0.2
	C328.8,363.7,327,364.3,325.5,362.5z"/>
<path class="st0" d="M216.2,208.3c0.2-2.1,0.6-4.8,0.8-7.5c0.1-1.7,0.2-3.4,0.1-5.1c-0.1-3.1-0.4-6.3-0.6-9.4
	c-0.1-1.1,0.3-1.7,1.5-1.9l4.6-0.7c0.6-0.1,1.2,0.3,1.3,0.9c0,0.1,0,0.2,0,0.3c-0.2,2,0,4.1,0.4,6.1c0.4,1.5,0,3.2,0.4,4.7
	c0.2,1.5,0.3,3,0.3,4.6c0.1,1.7,0.3,3.5,0.3,5.2c0,1.7-0.3,3.4-0.5,5.1c0,0.4,0,0.9,0,1.3c0.1,1.2-0.3,1.7-1.5,1.6l-6.1-0.4
	c-0.3,0-0.7-0.5-0.7-0.8S216.3,210,216.2,208.3z M218,211.7h4c0.9,0,1.2-0.3,1.2-1.2c-0.1-3.4,0-6.8-0.1-10.3s-0.4-7-0.6-10.4
	c0-0.9,0-1.8,0-2.7s-0.3-1.4-1.4-1.1l-1,0.3c-1.5,0.6-1.5,0.7-1.4,2.3c0.2,1.6,0.3,3.2,0.3,4.8c-0.3,4.3-0.7,8.6-1,12.9
	C217.9,208.1,218,209.8,218,211.7L218,211.7z"/>
<path class="st0" d="M195.6,425.6l5.7,0.4c0.8,0.1,1.1-0.3,1.1-1.1c0.2-4.9,0.5-9.8,0.6-14.6c0.1-1.5-0.1-3.1-0.1-4.6
	c0-5.1,0.2-10.2,0.2-15.2c0-5.1-0.4-7.7-0.3-11.6s0.4-6,0.7-9.1c0.1-1.4,0.1-1.5-1.3-1.6l-3-0.3c-0.7,0.1-1.4,0.2-2.1,0.4h-0.9
	c1.4-5.6,3-11,4.2-16.5c1.2-5.6,1.9-9.9,2.9-14.7c0.5-2.7,1.2-5.4,1.8-8l3.8-16.1l-13.1-1v-0.3l0.9-0.3l7.3,0.2h5.8l0.8,0.3
	c0.1,0.1,0,0.4-0.1,0.6c-0.5,1-0.9,2-1.3,3.1c-1,4.1-1.9,8.3-2.9,12.4s-1.5,5.8-2.1,8.7c-0.6,2.9-1.4,8.8-2.3,13
	c-0.9,4.3-2.3,9-3.4,13.3l-1,3.6c-0.2,0.8,0.3,1,0.9,1h4.3c1.3,0,1.6,0.3,1.6,1.7c-0.1,3.2-0.4,6.4-0.4,9.6c0,3.2,0.2,7,0.3,10.5
	c0.1,3.5-0.1,5.4-0.1,8.1c0,2.7,0.1,6.7,0.1,10s-0.1,5.2-0.2,7.8s-0.1,6.8-0.2,10.2c0,1.5-0.3,1.9-1.7,1.8c-1.7-0.1-3.3-0.2-5-0.5
	C196.5,426.3,196.2,426,195.6,425.6z"/>
<path class="st0" d="M264.9,190l-5.2-0.4c-0.6,0.1-1.3-0.3-1.4-1c0-0.1,0-0.3,0-0.4c0.1-2.4,0.2-4.8,0.3-7.3s0-3.9-0.1-5.9
	c-0.1-2,0-2.5,0-4l-2.4,0.5c-0.8,0.2-1.2-0.1-1.2-0.8c-0.2-2.4,0.2-4.7,1.2-6.9c0.3-0.3,0.8-0.4,1.2-0.3c2.2,0.8,4.5,1.1,6.8,1.1
	c0.3,0,0.6,0.6,0.7,0.9c0.1,0.9,0.3,1.9,0.6,2.8c1.3,3,1,6.1,1,9.2s-0.6,4.1-0.5,6.2C265.8,185.9,265.4,188,264.9,190z M264,188.2
	c0.1-1,0.2-2,0.2-2.9c0.1-3.6,0.2-7.2,0.3-10.7c0.2-2.5-0.1-4.9-0.9-7.3c-0.1-0.8-0.9-1.3-1.6-1.1c0,0,0,0-0.1,0l-4.3,0.3
	c-0.4,0.1-0.7,0.4-0.8,0.8c-0.3,1.4-0.1,1.6,1.3,1.7c1.4,0.1,1.9,0,2.1,1.1c0.3,1.1,0.5,2.3,0.5,3.5c0,2.7-0.2,5.3-0.3,8
	c0,0.3-0.1,0.6-0.2,0.9c-0.1,0.3-0.4,2.7-0.4,4s0.2,1.7,1.8,1.7H264z"/>
<path class="st0" d="M243,223.4h-1l-2.5-0.6c-0.3-0.1-0.6-0.4-0.7-0.8c0-2.2,0-4.4,0.1-6.6c0.2-2.4-0.3-4.8-1.6-6.8
	c-0.4-0.5-0.9-0.9-1.5-1.1c-2.7-0.8-3.3-0.3-3.5,2.5c-0.2,2.8-0.6,6.3-1,9.5c-0.4,3.2-0.7,5-0.9,7c-0.2,2,0.5,2.9,1.9,2.8l8.3-0.9
	c0.5,0,0.9-0.2,1.3-0.5c0.9-1.1,1.6-2.3,2.3-3.5C244.5,223.7,243.9,223.2,243,223.4z M240.3,226.7l-8.3-0.3c0.4-3.1,0.9-6.2,1.3-9.4
	c0.4-3.2,0.4-3.9,0.6-5.8s0.4-1.3,0.7-1.4c0.3-0.1,1.2,0.7,1.2,1.4s0.1,3.1,0.1,4.6s0,4.3,0,6.4c-0.1,1.3,0.8,2.4,2.1,2.5
	c0.2,0,0.4,0,0.5,0c0.6-0.1,1.2-0.1,1.8,0c0.4,0.2,0.6,0.5,0.7,0.9C241.1,226.2,240.6,226.8,240.3,226.7L240.3,226.7z"/>
<path class="st0" d="M283.2,220.2c-0.3,2.2-0.5,4.4-0.8,6.6s-2.4,2.1-3.6,1.7c-1.2-0.4-1.9-1.4-1.5-3c0.2-1,0.3-1.9,0.4-2.9
	c0.2-2.5,0.3-4.9,0.6-7.4c0.3-2.5-0.2-1.8-1.4-2l-2.6-0.6c-0.4-0.1-0.9-0.4-1-0.7c-0.3-1-0.4-2.1-0.5-3.2c0-0.3,0.4-0.7,0.8-0.8
	c2.7-0.8,5.5-1.1,8.3-0.8c1.3,0.1,2.5,0,3.8,0.1c1.3,0.1,2,0.7,2,2.4c0,1.7-0.1,2.1-0.2,3.2c-0.1,1.1-0.5,1-1.3,0.8
	c-2.6-0.7-2.6-0.7-3,1.9c-0.1,0.8-0.2,1.6-0.2,2.4s0,1.5,0,2.3H283.2z M285.5,211.7c0.1-0.7,0.1-1.3,0-2c-0.2-0.4-0.6-0.6-1-0.7
	h-7.2c-1.1,0-1.2,0.9-1.9,1.4c-0.7,0.5,0.4,0.7,0.6,0.8l1.8,0.2c0.8,0.2,1.7,0.4,1.8,1.5c0.1,1.1,0.1,4.1,0,6.1
	c-0.1,2-0.3,4.4-0.4,6.6h1.9c0.1-1.2,0.3-2.3,0.4-3.5c0.1-1.2,0.4-4.6,0.5-6.9c0-0.8,0-1.6,0-2.4C282,212,283.9,211.4,285.5,211.7
	L285.5,211.7z"/>
<path class="st0" d="M262.1,249.9l1.8,2.1c-1.1,0.3-0.6,1.5-0.3,2.2c0.9,3,0,5.7-0.7,8.5c-0.7,2.8-1.2,5.6-1.8,8.4
	c-0.2,0.8-0.3,1.5-0.4,2.3c-0.1,0.8,0.3,1,1,1.1l5.5,1.1l0.6,0.5l-1.2,0.3l-8.4,0.6c-1.3,0.1-2.7-0.2-3.9-0.8
	c0.5-1.1,1.7-1.8,2.9-1.7c0.9,0.1,1.5-0.2,1.6-1.1c0.1-0.9,0.3-2.6,0.4-3.9c0.1-1.3,0.3-2,0.4-3.1l1.4-10.1c0.1-0.9,0.2-1.8,0.3-2.7
	c0.1-0.9-0.2-1.2-1.1-1.2l-5.2-0.4c-0.5-0.1-1.2-0.5-1.3-0.9c-0.1-0.4,0.6-1.1,1.3-1.2l7.2-0.4L262.1,249.9z"/>
<path class="st0" d="M296.5,60.8c0.3,0.7,0.5,1.5,0.6,2.3c0,2.1-0.3,4.1-0.3,6.2c0,2.1,0.1,5.7,0,8.6c-0.1,2.9-0.4,5.7-0.6,8.6
	c-0.1,0.4-0.3,0.8-0.6,1.1c-1.4-0.6-1.4-1.8-1.4-2.9s0-2.5,0.1-3.7c0.1-1.2,0.2-5.4,0.4-8.1c0.3-3,0.1-6.1-0.6-9.1
	c-0.3-1.2-0.3-2.4-0.1-3.6c0.1-1.1-0.3-1.4-1.2-1.3l-5.5,0.2h-0.2l-1.6-0.7c0.6-0.3,1.2-0.9,1.8-0.9l13.2-0.7
	c1.5-0.1,2.9,0.5,3.8,1.7c-1.5,0.3-3,0.4-4.6,0.5C297.9,58.9,296.4,58.8,296.5,60.8z"/>
<path class="st0" d="M243,58.6c1.5-0.1,1.7,0.6,1.7,1.9c0,1.3,0.2,2.9,0.2,4.3c0,1.1,0,2.1-0.2,3.2c-0.8,5.3-0.2,10.5,0.4,15.6
	c0.1,0.7,0.4,0.9,1.1,1l6.6,0.5l4,0.7l0.5,0.3l0.6,0.9c-0.3,0.2-0.6,0.4-0.9,0.5l-4.7,0.7c-1.1,0.1-2.2,0.1-3.2,0.3
	c-4.5,0.9-6-1.6-6.3-5.6c-0.3-4,0.1-6.3,0.1-9.4c0-4.8-0.1-9.5-0.1-14.2C242.8,59,242.9,58.8,243,58.6z"/>
<path class="st0" d="M123.3,313.6c0.1-1,0.9-1.7,1.9-1.8c1.3-0.2,2.6-0.2,3.9-0.2c0.8,0,1.1-0.1,1.1-1c-0.1-2.7,0-5.4,0.1-8.1
	c0.1-2.7,0-3.3,0-5c0-3.4,0-6.9,0-10.3c0-3.4-0.1-7.6,0-11.3c0-2,0.3-3.9,0.4-5.8c0.2-3.9,0.3-7.7,0.4-11.6
	c-0.1-0.8-0.3-1.6-0.6-2.3l-2.8,0.4c-0.6,0.1-1.3,0.2-1.9,0.1c-0.5-0.1-1.5-0.5-1.5-0.7c0-0.2,0.9-0.8,1.5-0.9h4.3
	c1,0,1.4,0.3,1.7,1.4c0.7,3.5,0.1,7,0,10.5c-0.1,3.5-0.2,7.5-0.3,11.3s-0.2,6.8-0.2,10.2c0,3.4,0.2,7.4,0.2,11.1s0,7.2,0,10.7
	c0,1.2,0.5,1.7,1.7,1.6l5.3-0.5c0.9-0.1,1,0.3,0.9,1.1L123.3,313.6z"/>
<path class="st0" d="M301.8,340.6c-1.6-0.6-3.7,1-5.3-1c2.3-0.6,4.7-0.7,7-0.3c0.7,0,1.2,0.6,1.1,1.3c0,0.1,0,0.2,0,0.2
	c-0.3,2.6-0.6,5.2-0.8,7.8s-0.1,3.3-0.1,5c0,1.7,0,4.8,0,7.2h3.9c1.7-0.1,2.4,0.4,2.9,1.8c-2.4,0.8-6.5,0.9-14.8,0.1
	c1.1-0.5,2.2-1,3.3-1.3c1.2-0.2,2.4-0.3,3.6-0.3c-0.1-0.9-0.2-1.7-0.4-2.6c-0.7-2.2-0.2-4.4-0.1-6.6c0.1-2.2,0.6-6.6,0-9.9
	C301.9,341.5,301.8,341.1,301.8,340.6z"/>
<path class="st0" d="M271.3,3.5h-2c0.2-0.6,0.4-1.2,0.8-1.7c0.7-0.4,1.4-0.8,2.2-1.1c1-0.6,1.7-0.3,1.8,0.8c0.3,2.7,0.4,5.4,0.3,8.1
	c-0.2,4.4-0.7,8.8-1.2,13.1c-0.2,1.4-0.5,2.9-0.8,4.3c-0.5,2.2-0.2,2.6,1.9,2.9l2,0.3c0.3,0.1,0.5,0.4,0.7,0.6l-0.7,0.4l-1.3,0.6
	c-0.7,0.2-1.4,0.4-2.2,0.4l-5.4-0.3c-0.4-0.1-0.7-0.3-1-0.5l0.7-0.7c0.7-0.6,1.6-0.9,2.5-0.8c0.3,0,0.9-0.5,1-0.9
	c0.3-1.2,0.6-2.5,0.7-3.8c0.4-3.4,0.8-6.7,1.1-10.1c0.2-1.8,0.1-3.6,0.2-5.4c0-0.4,0-0.8,0.1-1.2C273.1,6.3,272.9,5.7,271.3,3.5z"/>
<path class="st0" d="M35.5,112.8c0.3-0.1,0.7-0.2,0.7-0.3c0-0.1,0.2-3.1,0.3-4.7h-0.4c-0.3,0.7-0.6,1.5-0.8,2.2
	c-0.2,0.9-0.5,1.7-0.8,2.6c-0.2,0.3-0.9,0.4-1.5,0.7v-6.1h-0.4c-0.8,1.6-1.1,3.3-1.1,5.1c0,0.7-0.1,1.5-0.3,2.2
	c-0.1,0.3-0.6,0.4-0.9,0.6s-0.6-0.7-0.6-0.9c0.3-2.1,0.7-4.1,1.2-6.1c0.2-0.7,0.4-1.3,0.7-1.9c0.6-1.4,1.7-1.6,2.6-0.4
	c0.9,1.2,0.9,0.5,1.5,0.2c0.6-0.3,1.5-0.2,1.6,0.9c0.1,1.1,0.3,2.7,0.3,4c0,1.3,0.3,1.3,1.4,1.1c0.7-0.1,1.5-0.1,2.2,0
	c1,0,1.3-0.3,0.8-1.2c-0.5-0.8-1.2-1.6-2-2.1c-0.8-0.5-1.7-0.8-1.7-1.9c0-1.1,0.7-2.1,1.8-2.4c0.7-0.3,1.5-0.4,2.3-0.5
	c0.8-0.1,2.2,1.6,1.9,2.3c-0.2,0.3-0.6,0.4-0.9,0.3c-0.4-0.1-0.7-0.4-0.9-0.7c-0.7-0.9-1.4-0.6-2,0c-0.3,0.3-0.6,0.7-0.6,1.1
	c0,0.2,0.5,0.5,0.9,0.6c1.7,0.6,2.8,2.2,2.9,4c0,0.9-0.6,1.8-1.5,2.1c-0.8,0.3-1.7,0.4-2.5,0.2c-0.8,0-1.6,0.1-2.4,0.2
	c-0.4,0.1-0.8,0-1.1-0.2C35.9,113.5,35.7,113.2,35.5,112.8z"/>
<path class="st0" d="M309.2,191.8c-0.1,2.7-0.2,5.4-0.2,8.2c0,1,0.2,2.1,0.4,3.1c0.5,2.6,0.2,3.5-2.3,3.8h-3.3
	c-0.9,0-1.4-0.4-1.3-1.4l0.7-7.7c0.2-2.2,0.4-4.3,0.6-6.5s0.2-1.6,1.2-1.7c0.9-0.1,1.7-0.1,2.6-0.1
	C309.1,189.7,309.3,190,309.2,191.8z M306.1,205.2c1.8,0,1.9,0,1.7-1.8s-0.6-5.2-0.8-7.9c-0.2-2.7,0.2-2.4,0.3-3.7
	c0.1-1.3-0.3-0.6-0.5-0.9c-0.2-0.3-0.7,0.4-0.8,0.7c-0.1,0.3-0.1,1.4-0.2,2.1c-0.4,3.2-0.9,6.3-1.3,9.5S304.4,205.2,306.1,205.2z"/>
<path class="st0" d="M215.8,194.5l-1.1,9.5c0,0.2,0,0.5,0,0.7c0,2.8-0.3,2.8-2.8,2.6l-3-0.2c-0.9-0.1-1.5-0.5-1.2-1.5
	c1.4-4.6,1.4-9.3,1.5-14c-0.1-1.1,0.7-2,1.7-2.2c0.9-0.2,1.8-0.4,2.8-0.4c0.4,0,0.8,0.2,1,0.6C215,191.3,215.4,193,215.8,194.5z
	 M213.4,190.4c-0.6,0.3-1.8,0.4-1.9,0.9c-0.3,1.6-0.6,3.2-0.7,4.8c-0.1,1-0.2,2-0.3,3.1s-0.8,4.1-1.2,6.3l3.5,0.3
	C213.1,200.6,214.9,195.7,213.4,190.4L213.4,190.4z"/>
<path class="st0" d="M252,212.8c-0.2,0.6-0.4,1.2-0.5,1.8c-0.3,2.6-0.4,5.3-0.3,8c0.1,1.2-0.4,2.5-1.2,3.4l-0.3,0.3l-3.7,1
	c-1.4,0.3-2-0.2-1.7-1.7c0.6-3.1,1.2-6.1,1.7-9.1c0.2-1,0.2-2.1,0.3-3.1s0.4-3.5,0.7-5.3c0.1-0.3,0.3-0.5,0.5-0.6l1.5-0.3
	c3,0,3.5,0.6,2.6,3.5C251.5,211.4,251.2,212.3,252,212.8z M246.1,225.4c1.7-0.2,3.1-1.3,3.2-2.4c0.5-4.4,1-8.9,1.4-13.2
	c0-0.3-0.5-0.9-0.7-0.9c-0.7,0.1-1.4,0.3-2,0.6c-0.2,0.1-0.1,0.8-0.1,1.2c0,0.4,0,0.2,0,0.4l-1.3,9.8L246.1,225.4z"/>
<path class="st0" d="M302.8,397.7c-0.3-0.4-0.7-0.8-0.7-1.2s0.1-3.6,0.2-5.4c0.3-3.8,0.6-7.5,0.8-11.3c0-0.6-0.2-1.2-0.5-1.7
	c-0.4-0.7-0.3-1,0.6-1l9.1-0.7c0.8,0,1.6,0.2,2.3,0.6c0.2,0.1,0.4,0.5,0.3,0.8c-0.1,0.3-0.4,0.4-0.6,0.4l-5.8,0.2h-1.7
	c-0.9,0-1.7,0.8-1.7,1.7c0,0,0,0.1,0,0.1c-0.1,1.1-0.3,2.1-0.5,3.2s0.4,1.3,1.3,1.3l3.3,0.3c0.4,0.1,0.8,0.2,1.1,0.4
	c0.2,0.1,0.4,0.4,0.4,0.6c0,0.1-0.3,0.4-0.5,0.4H305c-0.2,0-0.5,0.5-0.5,0.7c-0.4,2.7-0.7,5.3-1,8l-0.3,2.3L302.8,397.7z"/>
<path class="st0" d="M330.9,379.5l-1.4,18.1c-1,0-1.6-0.5-1.6-1.8s0.2-4.3,0.3-6.4c0.1-2.1,0.4-6,0.6-9c0.1-0.8-0.3-1.1-1-1h-1.3
	c-1.7,0.3-3.3,0.3-4.7-1.1c0.4-0.2,0.8-0.4,1.2-0.5l8.3-0.5h3.5c0.4,0,0.8,0,1.2,0.2c0.4,0.3,0.8,0.6,1.2,1
	c-0.4,0.2-0.8,0.6-1.3,0.7L330.9,379.5z"/>
<path class="st0" d="M268.6,375.6c0.2,0.4,0.4,0.9,0.5,1.4c0.1,2.4,0.2,4.8,0.2,7.3s-0.2,6.9-0.4,10.4c0,0.9,0.2,1.2,1.1,1.2h4.9
	c0.8,0.1,1.6,0.3,2.4,0.6c0.2,0.1,0.4,0.6,0.4,0.9c0,0.3-0.4,0.3-0.6,0.4c-2.4,0.2-4.7,0.4-7.1,0.4c-1-0.2-1.9-0.5-2.8-1
	c-0.2-0.1-0.3-0.5-0.2-0.7c0.1-0.2,0.4-1.8,0.4-2.6c0.1-3.4,0.2-6.8,0.1-10.2c-0.1-3.4,0.4-4.5,0.5-6.8c0.1-0.4,0.2-0.9,0.4-1.3
	L268.6,375.6z"/>
<path class="st0" d="M241,292.8c-0.2,0.3-0.3,0.8-0.5,0.8c-0.8,0.2-1.7,0.3-2.6,0.1c-0.6-0.2-1.1-1-1.6-1.6l-6-8
	c-0.5-0.6-0.9-1.2-1.2-1.9c-0.5-1.3,0.7-1.8,1.4-2.4c0.7-0.6,0.9,0.2,1.2,0.6l5.8,7.3l3.1,4.2C240.8,292.2,240.9,292.5,241,292.8z"
	/>
<path class="st0" d="M349.4,109.4c-0.1,0.6-0.6,1.2-1.3,1.3c-0.5,0.2-0.8,0.7-0.9,1.2c0,0.9,0,1.7,0.1,2.6c-0.1,0.4-0.2,0.7-0.3,1.1
	c-0.4-0.2-0.9-0.2-1.1-0.5c-0.4-0.8-0.8-1.6-1.1-2.5c-0.6,0-1.4,0.3-1.6,0c-0.2-0.3,1-0.8,0.8-1.6l-1.6-0.5c0.2-0.3,0.3-0.6,0.5-0.6
	c0.2,0,1.2-1,1.2-2c-0.2-2.3,1.4-4.4,3.7-4.8c2.4-0.5,2.8-0.3,3,2.3c0.2,2.6,0,2.1,0,3.1C350.8,109.5,350.3,109.8,349.4,109.4
	l-1-3.1c-0.3,0.3-0.5,0.7-0.6,1.1C347.2,109.5,347.3,109.5,349.4,109.4z M345.5,107.7h0.4l0.7-2.4h-0.3L345.5,107.7z"/>
<path class="st0" d="M172.9,159.5h1.9c0.3,0,0.5,0.3,0.8,0.5l-0.6,0.6h-0.5c-1,0.3-1.8,0.8-1.6,2.2c0,1-0.1,2-0.3,3
	c-0.1,0.7-0.4,0.9-1.2,0.8c-0.8-0.1-1.9-0.7-1.6-2.1c0-0.6,0-1.1-0.1-1.7h-0.4c-0.2,0.5-0.4,0.9-0.6,1.3c-0.3,0.3-0.6,0.6-1,0.9
	c-0.3-0.3-0.5-0.7-0.7-1.1c-0.3-0.9-0.4-1.9-0.4-2.9c0.2-1.4,0.4-2.7,0.8-4.1c0.2-1,0.4-2,0.7-3c0.1-0.3,0.7-0.5,1.2-0.8l-0.9,8.1
	l0.4,0.2l0.9-0.8l1.4-1c0.3-0.2,0.5-0.5,0.6-0.9c0.3-1.2,0.5-2.4,0.9-3.6c0.4-1.2,0.6-0.5,1-0.7c0.2,0.3,0.3,0.7,0.4,1.1
	c0,0.6-0.5,1.2,0.4,1.5s0.3,0.9-0.4,0.4L172.9,159.5z"/>
<path class="st0" d="M278,88.5l1,0.9l0.4-2.4c1,0.7,1.4,1.3,1.3,2.2c-0.1,0.9-0.4,4.2-0.8,6.3c-0.2,0.7,0.3,1.4,0.9,1.6
	c0,0,0.1,0,0.1,0l0.6-1.2l0.6,2.1c-1.2,0.3-2.2,0.5-2.4,1.9c-0.2,1.4-0.4,0.5-0.6,0.8c-0.2,0.3-0.5-0.6-0.6-0.9
	c-0.1-0.3,0-1.2-0.1-1.8c-0.1-0.4-0.2-0.7-0.4-1.1l-1,0.5v0.2c-0.7,0.6-1.5,1.6-2.3,0.9c-0.7-0.7-1.1-1.6-1.1-2.6
	c0-1.6,1-3.1,2.5-3.6c1-0.2,1.6-1.1,1.4-2.1c0,0,0-0.1,0-0.1c0-0.5,0-1.1,0-1.6L278,88.5z M276.4,94.6c-1.3,0.3-1.6,1-1.3,2.3
	L276.4,94.6z"/>
<path class="st0" d="M362.2,368.9c0.1,1,0.1,1.9,0.2,2.9c0.1,1-0.1,1.1-0.8,1.1l-2.5,0.3c-1.4,0.2-2.6-0.7-2.9-2.1
	c0-0.1,0-0.2,0-0.2c-0.1-1.7-0.1-3.4-0.1-5.1c0-1.7,0.4-1.2,1.2-1.1h2.7c1.1-0.1,2.2,0.7,2.3,1.8c0,0.2,0,0.4,0,0.7
	C362.3,367.8,362.3,368.3,362.2,368.9L362.2,368.9z"/>
<path class="st0" d="M285.8,287.7l-1.9,1.8c-0.7,0.9-1.5,1.7-2.4,2.5c-0.7,0.4-1.4,0.6-2.2,0.7c-0.1,0-0.6-0.6-0.5-0.7
	c0.2-0.9,0.6-1.8,1.1-2.6c2.3-2.9,4.7-5.6,7-8.4c0.7-0.8,1.9-1,2.8-0.4c0.4,0.3,0.7,0.8,0.7,1.3c-0.1,0.5-0.3,1-0.7,1.4l-3.7,4
	c-0.1,0.1-0.1,0.4-0.1,0.6L285.8,287.7z"/>
<path class="st0" d="M16.4,191.6l-0.4,0.2l-0.4,0.2v-0.2c0.1-0.6,0.2-1.2,0.4-1.8c0.1-0.4,0.3-0.7,0.6-1c1.5-1.4,5.5-1.4,7,0
	c0.8,0.7,1,2,0.4,2.9c-0.4,0.6-1,1.2-1.6,1.7c-0.7,0.5-0.7,1-0.1,1.4c0.6,0.4,1.3,2.2,0.8,3.6c-0.2,0.8-0.9,1.3-1.7,1.5
	c-1.2,0.3-1.4,0.1-1.8-1.1c-0.2-0.6-0.4-1.3-0.7-1.9L16.4,191.6z M19.2,194.1l3.2-2.3c0.3-0.3,0.5-0.7,0.5-1.1
	c-0.1-0.3-0.6-0.8-0.9-0.8c-1.2,0.2-2.5,0.5-3.7,0.8c-0.1,0-0.2,0.4-0.2,0.6L19.2,194.1z M20.2,195.5l-0.5,0.4l1,2.3h0.5
	c0.2-0.4,0.6-1,0.4-1.3C21.2,196.4,20.8,195.9,20.2,195.5L20.2,195.5z"/>
<path class="st0" d="M25.3,168.1l-1.1-0.4c-0.8,0-1.5-0.7-1.4-1.5c0-0.1,0-0.2,0.1-0.4c0.3-1.4,0.7-2.9,2-3.8
	c0.5-0.3,1.1-0.4,1.7-0.2c0.7,0.2,1.1,0.9,1.1,1.6c0.1,2.5-0.2,5.1-0.9,7.5c0,0.1,0,0.2-0.1,0.2c-0.1,0-1.9,3.2-3,4.6
	c-1.1,1.4-1.3,0.4-1.9,0.4c-0.7,0-1.4-0.2-2.1-0.5c-0.4-0.2-0.7-0.6-0.8-1c0-0.2,0.5-0.6,0.8-0.8l1-0.3
	C24,173.3,24.8,170.9,25.3,168.1z M26.1,164.1c-1.6,0.6-2.1,1.5-1.4,2.4L26.1,164.1z"/>
<path class="st0" d="M305.4,108.8l3-0.4v-0.3l-2.1-0.8l1.1-0.5c0.5-0.1,1-0.7,1-0.7c1.7-0.4,2.5-2,3.9-2.7l0.2,0.2l-0.9,2.6
	c2.3-0.1,3.8-2.4,6.4-1.5l-1.6,1.1l1.2,1.1l-4.4,1.4c0.4,0.4,0.7,0.9,1,1.4c0.1,0.4,0.2,0.9,0.3,1.3h-1.3l-0.4-0.2
	c-0.8,1.4-1.9,1.4-2.7,0c-0.8-1.4-1-0.5-1.6-0.3c-0.6,0.2-1.5,0.2-1.3-0.9l-2-0.2L305.4,108.8z"/>
<path class="st0" d="M1.5,158c2.6,1.8,2.3,4.8,3.8,7.1c0.1-0.3,0.2-0.5,0.2-0.8c0-0.7,0.4-1.1,1-1c0.6,0.1,1.2,0.2,1.3,1.1
	c0.2,0.7,0.4,1.4,0.8,2H9l4.1-8.2c1.8,1.4,0.6,2.7,0,3.9s-2.1,4.1-3.2,6.1c-0.2,0.3-0.6,0.5-1,0.9l-2-2.6c-0.2,0.6-0.4,1.1-0.7,1.6
	c-0.4,0.4-0.8,0.8-1.3,1.2c-0.4-0.4-0.7-0.9-0.9-1.4c-0.7-2.2-1.1-4.5-2-6.6C1.5,160.3,1.3,159.2,1.5,158z"/>
<path class="st0" d="M161.9,111.9c0,0.4,0,0.7,0,1.1c-0.1,0.4-0.3,0.8-0.5,1.2c-0.3-0.2-0.6-0.4-0.9-0.5h-1.3
	c-1.3,0.3-2.6,0.6-3.9,0.7c-0.7-0.2-1.2-0.7-1.4-1.3c-0.4-1.6-0.6-3.3,0.6-4.6c1-0.9,2.1-1.7,3.4-2.2c0.2-0.1,1.1,0.8,1.3,1.4
	c0.2,0.7,0.2,1.4,0.1,2.1c-0.1,0.4-0.4,0.6-0.8,0.7c-0.7,0.1-1.5,0-2.3,0.1s-1.1,0.5-1.2,0.8c-0.1,0.3,0.7,2.2,1.4,2.2l2.3-0.4
	c0.9-0.2,1.5-0.9,1.4-1.8c0.1-1.1,0.2-2.1,0.5-3.2c0.3-1.3,1.4-1.9,2.4-2.5s2-1.2,2.9,1c0.2,0.6,0.4,1.2,0.4,1.9
	c0,0.3-0.3,0.6-0.5,0.9c-0.3-0.2-0.5-0.5-0.7-0.8c-0.1-0.2,0-0.6-0.2-0.8l-1.4-1.1c-0.4,0.4-0.7,0.8-0.9,1.3
	C162.3,109.4,162.1,110.7,161.9,111.9L161.9,111.9z M155.4,108.9l0.2,0.3c0.6-0.1,1.3-0.3,1.9-0.6c0.2-0.1,0.3-0.6,0.4-1
	c0.1-0.4-0.8-0.4-1-0.3C156.3,107.7,155.8,108.3,155.4,108.9L155.4,108.9z"/>
<path class="st0" d="M114.1,199.9c-0.1-1.4-0.2-3-0.2-4.7c0-1.7,0-2.2-2-3.1c-0.5-0.3-0.8-0.8-0.9-1.4c0-0.4,0.7-1,1.2-1.1
	c0.9-0.1,1.9-0.1,2.8,0h3c0.6,0.1,1.1,0.3,1.6,0.6c-0.3,0.5-0.4,1.2-0.8,1.4c-2.6,1.2-1.5,3.2-1.3,5c0.2,1.8,0.2,1,0.2,1.5
	c0,0.5-0.2,1.2-1.3,0.9S115,199.6,114.1,199.9z"/>
<path class="st0" d="M20,109.1l0.7,4.1c0,0.2,0.2,0.4,0.1,0.6c-0.1,0.4-0.2,0.8-0.4,1.2c-0.3-0.3-0.8-0.5-0.9-0.9
	c-0.3-0.7-0.4-1.5-0.5-2.3c-0.1-1.2-0.9-1.3-1.7-1.4c-0.8-0.1-1.7-0.2-2,1c-0.2,0.9-0.5,1.7-0.8,2.6c-0.1,0.4-0.6,0.6-0.9,0.9
	c-0.3,0.3-0.5-0.9-0.4-1.3c0.8-2.8,1.7-5.6,2.5-8.3c0.8-2.7,0.8-2.6,1.1-3.9c0.3-1.3,0.7-1.1,1.4-0.9s0.4,0.8,0.3,1.2
	c-0.2,1.3,0,2.6,0.6,3.7c0.5,1.2,0.8,2.4,1.1,3.6L20,109.1z M17.6,105.7h-0.3l-1,3.4c2.3-0.5,2.3-0.5,1.7-2.3L17.6,105.7z"/>
<path class="st0" d="M320.2,113.1l2.6-0.4c1,0,1.9,0,2.9-0.1c0.5-0.1,0.9-0.7,1.3-1c0.4-0.3-0.7-1-1.2-1.2l-5-2
	c-0.6-0.3-1.1-0.7-1.6-1.2l1.6-0.7l5.2-1.7c1.3-0.5,2.8-0.2,4,0.6c0.3,0.2,0.4,0.6,0.5,0.9l-1,0.3l-5.9,0.2l-0.2,0.4
	c0.5,0.4,1,0.8,1.6,1.1l2.7,1.2c1.2,0.6,1.3,1.6,0.6,2.7c-0.7,1.1-2.5,2-4.3,1.9l-3.1-0.2c-0.3-0.1-0.6-0.2-0.8-0.4L320.2,113.1z"/>
<path class="st0" d="M148.7,161.7l1.7-2.9l2-3.3c0.2-0.3,0.5-0.4,0.9-0.4c0.3,0.2,0.4,0.5,0.4,0.8c-0.3,2.4-1.1,4.6-2.4,6.7
	c-0.3,0.5-0.7,0.9-1.2,1.3c-0.5,0.6-1.5,0.7-2.1,0.1c-0.2-0.1-0.3-0.3-0.4-0.5l-0.7-1l-0.4,1.1c-0.4,0.9-1.3,1-1.7,0.2
	c-1.3-2.5-2.4-5.1-3.6-7.7c0.5-0.4,1.2-0.3,1.5,0.2c0.1,0.1,0.1,0.2,0.2,0.3l2.1,4l0.5,1C146.7,160.1,146.7,160.1,148.7,161.7z"/>
<path class="st0" d="M342.5,287.8c0,1.9-0.5,3.8-1.3,5.6l-1,1.8c-0.6,1.4-0.9,2.8,0.8,3.9c-1.4,0.4-1.9-0.2-2.3-1.6l-1.9,2.2
	l-1.1,0.9c-0.3-0.4-0.5-0.8-0.7-1.2c-0.1-0.5-0.2-0.9-0.2-1.4l-2.7,1.2c-0.6,0.3-1.2,0.5-1.9,0.6c-1.3,0.1-1.9-1.3-1.3-2.6
	c0.4-0.7,0.9-1.2,1.5-1.7c0.7-0.5,1.5-1,2.3-1.5l0.3-0.3l-1-1.3c0.3-0.2,0.7-0.3,1.1-0.3c0.2,0,0.4,0.4,0.5,0.7
	c0.1,0.3,0.4,3,0.7,4.6c1.5-1.5,3.1-3,4.8-4.3C341.1,292,340.4,289.2,342.5,287.8z M339.4,294.4l-0.4-0.2c-1.6,0.8-2.8,2.2-3.3,4
	c-0.1,0.2,0.1,0.5,0.2,0.7l0.7-0.3c0.7-0.7,1.3-1.4,1.9-2.2C338.9,295.8,339.2,295.1,339.4,294.4L339.4,294.4z M332.9,295
	c-1.1,0.9-2.1,1.6-3,2.4c-0.9,0.8-0.1,0.7,0.4,0.9S333.5,297.6,332.9,295L332.9,295z"/>
<path class="st0" d="M310.9,195.5h6.7c1.7,0,3.3,1.5,3.1,3.1c-0.2,1.2-0.7,2.4-1.2,3.5c-0.1,0.2-0.6,0.3-0.9,0.4
	c-0.7,0-1.4,0.1-2.1,0.2c-1.4,0.4-2.8,0.1-4-0.6c-0.4-0.2-0.7-0.6-0.9-1C311.2,199.1,311.1,197.3,310.9,195.5z M315.1,201
	c2.1-0.1,2.5-0.3,2.9-2.2c0.4-1.9,0.1-1.6-1-1.8c-1-0.2-1.9-0.3-2.9-0.3c-0.5,0-1,0.3-1.3,0.7C312,198.8,313.5,201,315.1,201
	L315.1,201z"/>
<path class="st0" d="M285.8,287.8c1.5-0.4,1.8-1.9,2.8-2.9c0.4-0.6,1.3-0.8,1.9-0.3c0.1,0.1,0.2,0.1,0.2,0.2c1,0.8,0.9,1.3-0.1,2.1
	l-2.1,2l0.3,0.3l1.7-1.2c0.4,1,0.8,2.1,1,3.2c0.2,1.3-0.4,1.7-1.6,1.2h-0.8c-1.4-0.2-1.7-0.9-1.4-1.8l-2.7,2.6h-0.6
	c-1.8-1.4-1.8-1.4-0.4-3.2l1.5-2.1L285.8,287.8z"/>
<path class="st0" d="M123.6,166.6l1,0.8l-0.2,0.2l-2.4-1.9c0.7-0.6,1.5-1.2,2.3-1.6c2.8-1.1,5.7-2.3,8.6-3.2s4.3-1.1,6.5-1.6h1.3
	c-0.6,0.8-0.7,1.5-1.7,1.9c-4.5,1.7-9.1,3.1-13.6,4.7L123.6,166.6z"/>
<path class="st0" d="M97.3,194.2h2.2c0.4,0.1,0.7,0.4,1,0.7c0.3,0.3-0.5,0.8-0.8,0.8c-3.2,0.4-2.4,0.7-2.6,3.2c0,0.4,0,0.8-0.2,1.2
	c-0.3,0.4-0.6,0.7-1,1c-0.3-0.4-0.8-0.8-0.8-1.2s-0.1-3.3-0.1-5c0.1-0.9,0.2-1.8,0.3-2.7c0.1-1.2,0.7-1.9,1.9-1.8
	c1.7,0.2,3.4,0.4,5.1,0.8c0.2,0,0.6,0.5,0.6,0.7c-0.1,0.3-0.4,0.5-0.7,0.6l-3.5,0.4C98,192.9,97.3,192.9,97.3,194.2z"/>
<path class="st0" d="M30.7,194.5c0.1-1-0.1-1.9-1.1-2.2s-2,0.7-2.7,2l-0.3-1.5v0.2c-0.3-0.3-1-0.7-0.9-0.9c0.1-0.4,0.5-0.8,0.9-1
	l3.4-1.3c0.5-0.3,1.1-0.1,1.3,0.4c0,0,0,0.1,0,0.1c0.9,1.5,1.1,3.3,0.8,5.1c-0.1,0.6-0.4,1.1,0.5,1.4c0.9,0.3,0.2,0.5,0.2,0.7
	s-0.3,0.4-0.6,0.5l-0.6,0.3c-0.8,0.6-1.7,1.1-2.7,1.4c-0.5,0.1-1.4-0.5-1.8-1c-0.6-1.2-0.1-2.7,1.2-3.3c0,0,0.1,0,0.1-0.1
	L30.7,194.5z"/>
<path class="st0" d="M288.6,376.4c1.8,0.3,2,0.5,1.8,2.2c-0.3,3.6-0.6,7.3-0.9,10.9c-0.2,2.1-0.4,4.1-0.7,6.2
	c-0.1,0.5-0.3,1.1-0.6,1.6c-0.7-0.1-1.2-0.7-1.2-1.4c0-0.1,0-0.2,0.1-0.3c0.3-3.4,0.6-6.8,0.8-10.1s0.4-5.6,0.6-8.5
	C288.5,376.9,288.6,376.7,288.6,376.4z"/>
<path class="st0" d="M269.3,91.3c-0.3-1.2,0.5-2.5,1.7-2.7c0.1,0,0.2,0,0.4-0.1c1.7,0,0.9,1.7,1.5,2.7h0.5l1.1,0.7l-1,0.8
	c-0.4,0.3-0.9,0.7-1,1.1c-0.1,0.4,0,2.2-0.1,3.2c-0.2,0.6-0.5,1.2-0.9,1.7c-0.1,0.1-0.7,0-0.7,0s-2.2-0.3-1.9-1.9
	c0.1-0.8,0.2-1.7,0.2-2.5c0-0.3-0.2-0.7-0.4-0.9c-1.3-1-1.3-1.4,0.3-2.1L269.3,91.3z"/>
<path class="st0" d="M358.8,107.1c0.9-0.6,0.9-1.1-0.1-1.6c-1-0.5-1.9-0.6-2.5,0.4c-0.6,0.8-1,1.7-1.4,2.7c-0.3,0.9,0.4,0.8,1,0.9
	c0.6,0,1.1,0.2,1.6,0.4c-0.1,1-0.9,0.7-1.5,0.8c-0.9,0-1.6,0.7-1.7,1.6c-0.1,0.7-0.4,1.4-0.7,2c-0.1,0.3-0.6,0.4-0.9,0.5
	s-0.6-1-0.5-1.3c0.1-0.3,0.6-1.7-0.9-2.8l-0.3-0.3c-0.1-0.2-0.2-0.4-0.2-0.6c2.3,0.2,2.6-1.5,3.1-3c0.3-0.6,0.6-1.1,0.9-1.7
	c0.9-1.8,3-2.5,4.8-1.6c0.3,0.1,0.5,0.3,0.8,0.5c0.7,0.7,0.8,1.8,0.2,2.6c-0.2,0.4-0.9,0.5-1.4,0.8L358.8,107.1z"/>
<path class="st0" d="M69.4,203.8c0.2-1.2-0.1-1.9-1.4-2.1c-1.3-0.2-1.4-1.4-1.6-2.3c-0.2-0.9-0.4-4.4-0.5-6.7c0-0.4,0.4-0.8,0.5-1.2
	c1.7,0.5,1.8,0.7,1.7,2.1c-0.1,1.2,0,2.3,0.2,3.5c0,1.1,0.9,2,2,2c0,0,0.1,0,0.1,0c1.2,0.1,2.4,0.6,3.7,0c1.3-0.6,0.5,0.2,0.5,0.3
	c0,0.1-0.2,0.9-0.4,1c-0.6,0.3-1.2,0.5-1.8,0.6C71.1,201.5,69.7,202.1,69.4,203.8z"/>
<path class="st0" d="M206.9,196.6c0,1,0,1.8,0,2.5c0,0.7-0.4,0.9-1.1,0.8l-5.7-0.2c-0.6,0-1.2-0.1-1.7-0.5c-0.2-0.3,0-1.1,0.2-1.6
	c0.2-0.5,0.4-1.5,0.5-2.2c0.1-1.2,1.1-2.2,2.4-2.2l3.6-0.4c0.7-0.1,1.4,0.4,1.5,1.1c0,0.1,0,0.1,0,0.2
	C206.7,195.2,206.8,196,206.9,196.6z M204.9,194.1l-1.6,0.2c-2.5,0.2-2.5,0.2-2.5,2.7c0,0.1,0,0.2,0,0.2s0.3,0.9,0.9,0.9h2.4
	c1,0.1,1.3-0.3,1.1-1.1L204.9,194.1z"/>
<path class="st0" d="M158.9,170.5l0.6,1c1.1-0.4,1.9-1.2,2.4-2.3l0.8-2.1c0.3-0.8,0.3-1.3-0.7-1.8c-0.6-0.4-1-1.1-1-1.8
	c0-2,1.5-3.2,3.1-4.1c0.6-0.3,1.3,0,1.6,0.6c0.1,0.2,0.1,0.4,0.1,0.6c-0.8,2.9-1.5,5.7-2.4,8.5c-0.5,1.7-1.8,2.9-3.5,3.4
	c-0.6,0.1-1.2-0.2-1.6-0.6c-0.2-0.3,0-1,0.1-1.5L158.9,170.5z M163.7,161.4c-1.2,0.9-1.5,1.7-1,2.8
	C163.7,163.7,164.2,162.5,163.7,161.4L163.7,161.4z"/>
<path class="st0" d="M147,109.7l-1.6,0.6l-0.2-0.3c0.4-0.7,0.8-1.4,1.8-1.7c0.5-0.1,0.9-0.5,1.1-0.9c0.9-2.3,1.6-4.6,2.4-6.9
	c1,0.4,1.2,1.1,0.8,1.9c-0.8,1.6-1.4,3.4-1.6,5.3l2.7-0.2c-0.4,1.2-1.4,1.1-2.1,1.3c-0.7,0.2-0.9,0.2-1.1,0.5
	c-0.4,1.1-0.8,2.2-1,3.4c-0.2,1.2,0.3,1.7,1.6,1.5l2.9-0.5l0.2,0.4l-1.3,0.8l-1.2,0.5c-1,0.5-2,0.9-3,0c-1-0.9-0.8-2-0.6-3.1
	c0.2-1.1,0.4-1.5,0.7-2.3L147,109.7z"/>
<path class="st0" d="M308.9,293.1l0.8-1.4l0.4,1.1l0.5,0.3l3.1-3.8l0.4,0.3c-0.1,0.4-0.3,0.7-0.5,1c-0.8,0.9-1.9,1.6-2.1,3
	c-0.2,1.4-0.5,0.6-0.9,0.7c-0.4,0.1-1.3,1.2-1.2,2.2c0.1,1,0.5,2-0.5,3c-0.2-0.6-0.4-1.2-0.8-1.7c-0.3-0.3-1-0.2-1.6-0.2v0.3
	c-0.1-0.2-0.3-0.3-0.3-0.5s-0.3-2.2-1.8-2.2c0-0.4,0-0.8,0.1-1.2c1.5-0.1,1.8-1,1.6-2.3s0.2-0.6,0.6-0.9l0.3,2.1h0.5v-4.8h0.4
	l0.5,4.8L308.9,293.1z"/>
<path class="st0" d="M229.7,284.1c0.1,0.4,0.2,0.8,0.4,1.1l4.8,6.3c0.5,0.7,1.2,1.4,0.4,2.4c-0.8,1-1.1,1-2,0
	c-0.9-1-2.5-2.7-3.7-4.1c-0.8-1-1.4-2.1-1.8-3.3c-0.3-0.8,0.1-1.6,0.9-1.9c0.1,0,0.3-0.1,0.4-0.1L229.7,284.1z"/>
<path class="st0" d="M263.5,288.3c2.8,0.7,3.2,1,2.8,2.2l-2.3-0.4c-1-0.2-1.4,0.2-1.4,1.2c0,0.5-0.1,1.1-0.3,1.6
	c-0.1,0.3-0.6,0.8-0.8,0.8c-0.5-0.2-0.8-0.5-1.1-0.9c-0.2-0.2,0-0.7,0.1-1c0.4-2.2,0.9-4.4,1.3-6.5c0.4-2.1,0.7-1.5,1.7-1.3l4.8,1.1
	c0.4,0.1,0.8,0.7,1.1,1c-0.5,0.2-1,0.3-1.5,0.3l-3.4-0.8c-0.9-0.2-1.3,0.1-1.1,1.1C263.5,287.2,263.5,287.8,263.5,288.3z"/>
<path class="st0" d="M147.2,105.1c-0.3-0.8-0.6-1.4-0.9-2c-0.3-0.6-0.5-0.8-0.8-0.9c-0.3-0.1-0.8,0.4-0.9,0.7
	c-0.1,0.3-1.2,3.6-1.9,5.6c1.1,0.2,2.1-0.5,2.3,0.9l-0.9,0.4c-1.2,0.1-1.5,0.9-1.5,1.9c0,0.6,0,1.2-0.1,1.8
	c-0.1,0.3-0.3,0.6-0.5,0.9c-0.3-0.3-0.7-0.5-0.8-0.9c-0.1-0.5-0.1-1,0-1.5c0-0.7,0.1-1.4-1-1.4c-0.4-0.1-0.7-0.6-0.5-1
	c0.1-0.2,0.2-0.4,0.4-0.5c1.1-0.2,1.3-0.9,1.4-1.9c0.1-1.9,0.7-3.8,1.9-5.4c0.4-0.5,1-0.8,1.7-0.9c0.5,0,1.1,0.7,1.5,1.2
	C147,102.6,147.9,103.7,147.2,105.1z"/>
<path class="st0" d="M158.4,161.6l-3.9,0.5c-0.2,0-0.4,0.7-0.4,0.8c0.5,0.6,1,1.1,1.6,1.6c0.3,0.2,0.6,0.3,1,0.3
	c-0.8,1.4-2.7,1.2-3.7-0.3c-0.6-1.3-0.5-2.7,0.3-3.9c1.4-1.7,2.4-2.1,3.9-1.4c1.5,0.7,1.7,1.4,3,1.3s0.4,0.5,0.4,0.7
	c-0.1,1.1-0.3,2.3-0.6,3.4c-0.1,0.3-0.5,0.6-0.7,0.9c-0.2,0.3-0.8-0.6-0.8-0.9C158.4,163.6,158.3,162.6,158.4,161.6z"/>
<path class="st0" d="M265.2,97l0.9-0.4h1.1c-0.1,0.4-0.2,0.9-0.5,1.1c-0.6,0.3-1.2,0.6-1.9,0.7l-2,0.3c-1,0.1-1.5-0.3-2.1-1.3
	c-0.6-1-0.7-3.7-0.6-5.7c0-0.6-0.1-1.1-0.2-1.7c0-0.5,0-1,0-1.7l1.7,1.2c0,1.5-0.1,2.9,0,4.3c0.1,1.4,0.8,1.5,1.9,1.3
	C264.6,94.9,265.6,95.4,265.2,97z"/>
<path class="st0" d="M134.2,96.8c-0.2,1.1-0.3,1.9-0.5,2.8c-0.9,4.6-1.2,9.3-1.1,13.9c0,1.2,0.3,2.6-1.8,2.6
	c-0.1-0.3-0.2-0.6-0.2-0.9c0.4-4.8,0.9-9.6,1.3-14.3c0-0.2,0.1-0.4,0-0.6c-0.1-0.2,0.9-2.2,1.3-3.3L134.2,96.8z"/>
<path class="st0" d="M38.1,161.7c-1.9-0.2-2.2,0.8-2.2,2.3c0,1.3-0.2,2.7-0.5,4c-0.1,0.4-0.6,0.8-0.9,1.1c-0.3,0.3-0.7-0.8-0.7-1.2
	c0-1.3,0.1-2.6,0.3-3.9c0.1-0.8,0.1-1.3-0.9-1.3s-0.8-0.6-1.2-0.9c0.4-0.2,0.8-0.4,1.2-0.5c0.7-0.1,1.2-0.3,1.3-1.1
	c0.1-0.8,0.1-2.2,0.2-3.2c0.1-1,0.5-0.8,0.7-1.2c0.2-0.4,0.8,0.7,0.9,1.2c0,0.7,0,1.4-0.1,2.1c0,0.8,0,1.5,1.1,1.6s0.5,0.4,0.8,0.6
	V161.7z"/>
<path class="st0" d="M57.7,166.2l-15.4-0.6c-0.4,0-0.7-0.4-1-0.7s0.7-0.5,1-0.6c3.7-0.1,7.5-0.3,11.2-0.3c1.2,0.1,2.3,0.4,3.4,0.9
	C57.1,165.2,57.3,165.6,57.7,166.2z"/>
<path class="st0" d="M246.6,294l3.6-1.1c0.6-0.2,1.2-0.1,1.6,0.4c0.2,0.2,0.4,0.5,0.4,0.6c-0.1,0.3-0.3,0.5-0.6,0.6l-4.7,1.7
	c-0.7,0.4-1.5,0.1-1.9-0.6c0-0.1-0.1-0.2-0.1-0.2c-0.2-0.5-0.4-1.1-0.6-1.5l-2.4-4.6c-0.1-0.5-0.2-0.9-0.2-1.4
	c0.5,0.1,1.3,0.1,1.5,0.5c0.2,0.4,2,3.1,2.9,4.6C246.3,293.3,246.4,293.6,246.6,294z"/>
<path class="st0" d="M30.8,154c0.1,0.5,0.2,0.9,0.2,1.4c0.1,1.1,0.1,2.2,0.1,3.3c0,0.5-0.1,0.9-0.2,1.4c-0.4,1.3-0.2,2.7,0.4,3.9
	c0.4,1.2,0.6,2.5,0.6,3.8c0,0.3-0.5,0.7-0.7,1.1l-0.7-1.2c-0.1-0.2,0-0.5-0.2-0.7c-0.1,0.2-0.2,0.4-0.3,0.6
	c-0.2,0.2-0.6,0.6-0.8,0.5c-0.3-0.1-0.6-0.4-0.7-0.8c0-0.5,0.1-1.1,0.3-1.6c0.2-0.9,0.4-1.9,0.5-2.8c0.2-2.5,0.3-5.1,0.5-7.6
	c0.1-0.4,0.2-0.8,0.4-1.2L30.8,154z"/>
<path class="st0" d="M331.7,109.7c-2.1,0.9-2-0.7-2.4-2.1c0.5-0.2,1-0.3,1.5-0.3c0.6,0.2,1.3-0.1,1.5-0.7c0.1-0.2,0.1-0.3,0.1-0.5
	c0.1-0.6,0.2-1.3,0.4-1.9c0.1-0.8,0.9-1.3,1.6-1.1c0,0,0,0,0.1,0c-0.1,0.4-0.1,0.8-0.2,1.2c-0.1,0.4-0.3,1.1-0.4,1.6
	c-0.1,0.5,0.3,1.3,1.2,1.2h1.8l0.2,0.4l-1.2,0.8l-1.7,0.5c-0.3,0.2-0.6,0.4-0.7,0.8c-0.2,0.9-0.2,1.8-0.4,2.7s-0.4,0.5-0.6,0.8
	c-0.2,0.3-0.5-0.4-0.5-0.7C332,112.1,331.8,110.8,331.7,109.7z"/>
<path class="st0" d="M16.5,167.7c-0.6,1.2-2,1.7-3.3,1.3c-0.9-0.3-1.4-1.2-1.3-2.2c0.2-2.5,2.3-4.5,4.8-4.5c0.9,0,1.6,0.7,1.6,1.6
	c0,0,0,0.1,0,0.1c0.1,1-0.5,1.2-1.3,1.4c-0.9,0.2-1.8,0.5-2.7,0.9c-0.3,0.1-0.4,0.7-0.6,1l1,0.3L16.5,167.7z"/>
<path class="st0" d="M331,282.3l-5.4,1.4c-0.9,0.2-1.5-0.5-1.4-1.6c0.1-2.8,3.3-6.3,6.5-5.7c0.8,0.1,1.4,0.4,1.4,1.3
	c0.1,0.8-0.5,1.6-1.3,1.7c0,0,0,0,0,0l-3.9,0.5c-0.5,0.1-1.1,0.1-1.3,0.4c-0.4,0.4-0.5,1-0.4,1.6c0.1,0.3,0.9,0.6,1.4,0.6
	s2.1-0.4,3.2-0.6h1.1L331,282.3z M330.7,278.3v-0.5c-1.1-0.3-2.2-0.1-3.1,0.5v0.3L330.7,278.3z"/>
<path class="st0" d="M26.1,108.9l-1,5.9c0,0.2,0,0.4-0.1,0.6l-0.9,1.7c-0.3-0.6-0.8-1.2-0.8-1.8c0.2-2.6,0.6-5.2,0.9-7.8
	c0.3-1,1.2-1.7,2.3-1.6c0.5,0.3,0.9,0.8,1.1,1.4c0.1,0.5,0.1,1-0.2,1.5C27.4,109,26.7,108.8,26.1,108.9z"/>
<path class="st0" d="M173.7,166.4c1.6,0.4,2.8,0.7,3.7-0.6c-0.9-0.9-1.9-1.6-2.7-2.5c-0.8-0.9-0.7-1.8,0.7-2.2
	c0.5-0.2,1.1-0.4,1.7-0.5c0.5,0.1,1,0.3,1.5,0.6l-1.2,0.7l-0.8,0.2l1.3,1.1c1.2,0.9,1.6,2.6,0.9,3.9c-0.9,1.2-3.4,1.8-4.6,0.9
	C173,167.1,173.9,167,173.7,166.4z"/>
<path class="st0" d="M322.3,308.2l-0.4,4.8h-0.3c-0.2-0.3-0.3-0.6-0.4-0.9c-0.5-5.3,0.6-9.6,3-11.5c0.8,1.3,1.7,2.6,2.5,3.9
	c0.7,1,0.5,2.4-0.4,3.2c-0.8,1-2.2,1.2-3.3,0.6L322.3,308.2z M324.2,302.5h-0.4c-0.4,0.8-0.7,1.6-1,2.5c-0.5,2,0.3,2.7,2.3,2
	c2-0.7,1.5-0.9,0.9-2C325.5,304.1,324.9,303.2,324.2,302.5L324.2,302.5z"/>
<path class="st0" d="M273.7,288.6l-2.6-1.5c-0.2-0.1-0.2-0.5-0.3-0.8c-0.1-0.3,0.6-0.2,0.8-0.2l5,1.9c0.3,0.1,0.6,0.3,0.8,0.6
	c0.1,0.3,0.1,0.6,0,0.9c-0.1,0.1-0.6,0.2-0.7,0c-0.1-0.2-1.4-0.2-1.9,0.7s-1.9,3.3-3,4.9s-0.7,0.3-1.1,0.5s-0.2-0.8-0.1-1.1
	L273.7,288.6z"/>
<path class="st0" d="M304.7,276.8h5.6c0.3,0,0.6,0.6,0.9,1s-0.7,0.8-1.1,0.8l-7.4,0.3c-0.6,0-1.2-0.3-1.6-0.7
	c-0.2-0.2-0.2-0.9-0.1-1.2c0.1-0.3,0.6-0.3,1-0.3L304.7,276.8L304.7,276.8z"/>
<path class="st0" d="M294.7,99.2c0.9-0.1,1.7-0.1,2.6-0.1l11.5,1.7l1.7,0.4c0.4,0.1,0.7,0.4,0.6,0.8c-0.1,0.4-0.4,0.7-0.8,0.6l0,0
	c-0.7,0.1-1.4,0-2.1-0.2c-4-1.4-8.3-1.5-12.3-2.2c-0.4-0.1-0.8-0.3-1.1-0.5V99.2z"/>
<path class="st0" d="M360.3,284.2h-0.8c-0.8-0.5-1.8-0.2-2.3,0.6c0,0.1-0.1,0.1-0.1,0.2c-0.5,1-1.4,1.6-2.5,1.7
	c-1.1,0.1-1.7-0.3-1.8-1.4s-0.2-2-0.3-2.9l4.2-1.7c0.5,1.4,0.2,2-1.3,2.7s-0.7,0.1-0.9,0.3c-0.3,0.3-0.6,0.6-0.8,1
	c0.4,0.2,1,0.7,1.2,0.6c0.8-0.5,1.4-1.1,2-1.8c0.5-0.6,0.8-1.3,1.7-1C359.5,282.7,360.2,283.3,360.3,284.2z"/>
<path class="st0" d="M35.9,198.9c-1.9-3.4-2.3-6.8-0.7-10.4c0.3-0.7,0.9-1.1,1.6-0.3c0.7,0.9,1.4,1.8,2,2.8c0.1,0.2-0.1,0.6-0.1,0.9
	l-0.8-0.4c-0.5-0.6-1.1-1.1-1.7-1.6C35.4,192.9,36.3,195.9,35.9,198.9z"/>
<path class="st0" d="M339,280.3l0.3-2.2c-1.3-0.4-1.9,0.6-2.7,1.2c-0.2-1.3,1.8-3.2,2.8-2.8c0.3,0.2,0.5,0.6,0.5,1
	c-0.1,1.8-0.3,3.6-0.5,5.5c0,0.3-0.4,0.6-0.7,0.7c-0.8,0.3-1.6,0.6-2.4,0.8c-0.6,0.1-1.4,0.2-1.7-0.1c-0.4-0.5-0.6-1.2-0.5-1.9
	c0.2-1.3,1.4-2.3,2.8-2.2H339z M338.9,282.6l-0.7-0.8c-1-0.4-2.1-0.2-3,0.4c-0.1,0.1-0.3,0.5-0.2,0.5c0.1,0,0.9,1,1.3,0.9
	C337.3,283.4,338.2,283.1,338.9,282.6L338.9,282.6z"/>
<path class="st0" d="M42.3,161.9v0.2c-0.7,0.1-1.8,0.2-1.9,0.4c-0.1,1.1-0.1,2.3,0,3.4c0,0.6,0.2,1.4-0.1,1.9
	c-0.3,0.5-1.2,1.4-1.7,1.3c-0.8-0.3-1.5-0.9-1.9-1.6c-0.4-0.6,0.2-0.8,0.7-0.8c0.5,0,1.9-0.3,1.3-1.9c-0.5-0.9-0.5-2-0.1-3
	c0.4-0.8,1.3-1.3,2.2-1.2C41.6,160.6,42.2,161.2,42.3,161.9z"/>
<path class="st0" d="M319,278.4l0.9-1.2c1.2,1.6,0.9,5.9-0.6,8.2l0.6-5.9h-0.4c-1.6,1.3-1.2,3.6-2.4,5.1c-0.6-1.3,3-14.3,4.6-15.9
	l-2.9,9.7L319,278.4z"/>
<path class="st0" d="M81.5,200.5c-0.3-0.9-0.5-1.9-0.7-2.9c-0.1-1.2-0.1-2.3,0-3.5c-0.1-1,0.5-2,1.4-2.4l0.8-0.3
	c0.1,0.3,0.2,0.7,0.2,1c0,0.6-0.3,1.2-0.3,1.8c-0.1,1-0.1,2,0,3C83.1,198.5,82.5,199.7,81.5,200.5z"/>
<path class="st0" d="M256.9,293.2c-0.2,0.2-0.4,0.8-0.6,0.8c-0.4-0.1-0.8-0.3-1-0.7c-0.4-1.2-0.7-2.5-1-3.8s-0.6-2.3-0.8-3.5
	c0-0.5,0.1-0.9,0.3-1.3c0.5-0.8,1-0.5,1.2,0.2C255.8,287.6,256.3,290.3,256.9,293.2z"/>
<path class="st0" d="M324.4,293.2c0.6,1.3,0.2,2.1-1.3,2.5c-0.5,0.2-1,0.5-1.4,1c2,1,3.9-0.1,5.9,0.1c-0.3,0.2-0.5,0.5-0.7,0.5
	c-1.5,0.4-3,0.8-4.5,1.1c-1.2,0.2-1.7-0.4-1.5-1.7c0.2-0.8,0.4-1.6,0.7-2.4c0.1-0.2,0.2-0.3,0.4-0.4L324.4,293.2z"/>
<path class="st0" d="M324.6,287.3c-2.8,4.1-6.3,7.7-7.6,12.6l-0.5-0.2c0-0.6,0.1-1.1,0.3-1.7c1-2,1.9-4,3.1-5.9c1-1.5,2.1-3,3.3-4.4
	c0.3-0.3,0.6-0.6,1-0.9L324.6,287.3z"/>
<path class="st0" d="M226.3,290.9l1.7-0.4c0.9-0.2,1.8-0.2,2.3,0.8c0.3,0.5,0.6,1,0.8,1.5c0.1,0.4,0,0.8-0.2,1.2
	c-0.3,0.3-1.1,0.4-1.4,0.2S227.4,292.2,226.3,290.9z"/>
<path class="st0" d="M263.4,301.3c-0.4-0.1-0.8-0.1-1.2,0c-0.9,0.4-1.1,0-1.2-0.8c-0.1-1.1,0.5-2.1,1.4-2.6c0.5-0.2,0.8-0.8,0.7-1.3
	c0-0.8,0.1-1.5,0.2-2.3c0.9,1.2,1,6.4,0.3,7.3L263.4,301.3z"/>
<path class="st0" d="M320,302.7c-0.3,0.9-0.6,1.7-1.1,2.5c-0.9,1.3-1.9,2.5-3,3.7c-0.6,0.7-1.3,0.4-1.4-0.4c-0.3-1.9,0-3.8,1-5.5
	h0.4l-0.9,4.6c2.5-1,3.4-3.2,4.6-5.1L320,302.7z"/>
<path class="st0" d="M20.3,169.1c-1.2-1-1.2-1.4-0.7-2.6c0.4-1,0.6-2,0.8-3.1c0.1-0.4,0.1-0.8,0.2-1.2c0.1-0.4,1.2,0.7,1.2,1.5
	C21.9,165.6,21.4,167.5,20.3,169.1z"/>
<path class="st0" d="M101,114.4c1-2,12.4-7.5,15.9-7.3c-3,1.2-5.7,2.2-8.4,3.4S103.4,113.2,101,114.4z"/>
<path class="st0" d="M342.4,282.9l4.1-4.5l0.3,0.3l-2.4,3.2l-1.8,2.3c-0.2,0.2-0.5,0.4-0.8,0.4c-0.2-0.1-0.4-0.3-0.5-0.5
	c-0.1-2-0.4-4,0.7-5.9h0.3l-0.4,4.5L342.4,282.9z"/>
<path class="st0" d="M254,296.2c0.1,0.6,0.1,1.3,0.1,1.9c-0.1,0.9,0.2,1.3,1.1,1.2c0.3,0,0.6,0,0.9,0.1c0.3,0.1,0.4,0.4,0.5,0.7
	c0,0.2-0.3,0.6-0.4,0.6c-1,0.1-2.1-0.1-3.1-0.4C252.1,299.6,252.6,297,254,296.2z"/>
<path class="st0" d="M352,279.5c0,0.5-0.1,0.9-0.3,1.4c-1.8,2.7-3.1,5.7-3.9,8.9l-0.4,0.3c-0.1-0.4-0.2-0.8-0.2-1.2
	c0.7-3.2,2.2-6.3,4.2-8.9L352,279.5z"/>
<path class="st0" d="M301.1,398.3c0.2,0.3,0.3,0.6,0.4,0.9c0.1,0.3,0,0.7,0.1,0.9c0.1,0.2-0.1,2.4-0.6,3.6c-0.1,0.5-0.6,0.8-1,0.7
	c-0.2,0-0.3-0.1-0.5-0.2c-0.3-0.3-0.3-1-0.3-1.5c0-0.5,0.4-0.5,0.6-0.7c0.8-0.7,1.1-1.8,0.8-2.8c-0.1-0.2,0.1-0.5,0.1-0.8
	L301.1,398.3z"/>
<path class="st0" d="M343.6,299.3c0.4-0.1,0.9-0.2,1.1-0.4c0.6-0.6,1.1-1.3,1.5-2.1c0.3-0.7,0.6-1.5,1-2.2c0.4-0.6,1.1-0.6,1.7,0.2
	l-0.8,0.5c-0.4,0.5-0.8,1-1.1,1.5c-0.5,0.9-0.7,1.8-1.3,2.7C345.1,300.4,344.8,300.6,343.6,299.3z"/>
<path class="st0" d="M340.4,108.9c-0.2,1.3-0.3,2.4-0.5,3.6s-0.5,0.6-0.8,0.9c-0.2-0.3-0.4-0.6-0.6-0.9c-0.1-0.5-0.1-1-0.1-1.5
	C338.4,109.4,338.8,109.1,340.4,108.9z"/>
<path class="st0" d="M137.9,114.8l-0.6,0.2l-0.9,0.5c-0.2-0.4-0.3-0.8-0.3-1.2c0.2-1.7,0.4-3.4,0.6-5.1h0.5c0.1,0.4,0.2,0.7,0.2,1.1
	c-0.1,0.8-0.2,1.7-0.3,2.5C137.3,113.5,137.6,114.2,137.9,114.8z"/>
<path class="st0" d="M258.5,296.6l1.3,1.7c0.1,0.1,0.1,0.5,0,0.5c-0.1,0-1.1,1.5-1.3,2.4l-0.3,0.2c-0.6-0.6,1-2.4-1.4-2.1
	L258.5,296.6z"/>
<path class="st0" d="M340.5,103.7c-0.1,0.9-0.3,1.7-0.6,2.5c-0.2,0.3-0.9,0.4-1.3,0.6c-0.1-0.4-0.2-0.8-0.2-1.2
	C338.6,104.4,339,104,340.5,103.7z"/>
<path class="st0" d="M295.4,401.3c1.7,0,0.2-2,1.5-2.5l0.5,3.2l-0.8,1.9L295.4,401.3z"/>
<path class="st0" d="M292.2,403.1h2.5v0.3c-0.7,0.3-1.5,0.5-2.3,0.6c-0.2,0-0.7-0.5-0.7-0.8s0-2,0-3.1s0,2.3,2.1,1.4L292.2,403.1z"
	/>
<path class="st0" d="M137.5,104.7c0.3,0.7,0.6,1.4,0.7,2.1c0,0.5-0.4,0.9-0.6,1.4c-0.2,0.5-0.7-0.6-0.9-1
	C136.4,106.2,136.8,105.2,137.5,104.7z"/>
<path class="st0" d="M20.8,161c-0.2-0.4-0.3-0.9-0.4-1.4c0.1-0.4,0.2-0.7,0.4-1c0,0,0.5,0.1,0.6,0.2c0.2,0.4,0.4,0.8,0.4,1.2
	c-0.1,0.4-0.3,0.7-0.5,1H20.8z"/>
<path class="st0" d="M350.8,279c0.4,1.2-1.1,1.1-1.1,2l-0.4-0.3l1.1-2L350.8,279z"/>
<path class="st0" d="M161,157.7l-1.1,0.6c-0.1,0-0.5-0.5-0.4-0.6c0.1-0.3,0.4-0.6,0.7-0.7C160.3,157.1,160.6,157.5,161,157.7z"/>
<path class="st0" d="M241.8,184.3c0-0.4,0-0.9,0-1.3c0.1-0.3,0.2-0.6,0.5-0.8c1.6-0.6,3.5-0.4,4.9,0.7c0.2,0.2,0.3,0.5,0.4,0.8
	c0.1,0.9,0.2,1.7,0.3,2.6c0,0.3-0.2,0.7-0.4,0.7c-1.5,0.4-3,0.7-4.5,0.9c-0.3,0-1-0.6-1.1-1c-0.2-0.9-0.3-1.8-0.3-2.7L241.8,184.3z
	 M243.1,183.2c-0.7,0.7-0.9,2.6-0.2,3.4s1.3,0.2,2,0.3c0.4-0.1,0.7-0.2,1.1-0.3c0.9-0.2,1.1-0.8,1-1.6c-0.1-0.8-1-1.3-2.3-1.1h-2
	L243.1,183.2z"/>
</svg>
