<svg id="Layer_1" data-name="Layer 1" xmlns="http://www.w3.org/2000/svg" width="7.14in" height="4in" viewBox="0 0 514.38 288.33"><title>Artboard 1</title><g opacity="0.5"><path d="M55.18,211c2.55.21,63.18.21,65.73.21,7.45,0,13.41-2.77,13.41-14.26V55.32h23.42v140c0,29.8-16,37.47-33.63,37.47-4.26,0-65.1,0-68.93-.43Z" fill="#fff"/><path d="M125.22,89.59v5.32c0,15.33-4.68,25.12-15.11,30,12.56,4.9,17.46,16.18,17.46,31.93V169c0,23-12.13,35.34-35.55,35.34H55.18v-149H90.52C114.79,55.32,125.22,66.6,125.22,89.59ZM78.6,76.6V116h9.15c8.73,0,14-3.83,14-15.75v-8.3c0-10.64-3.62-15.33-11.92-15.33Zm0,60.67V183H92c7.88,0,12.13-3.62,12.13-14.69v-13c0-13.84-4.47-18.09-15.11-18.09Z" fill="#fff"/><path d="M335.3,96.4V204.33H314.23v-149h29.38l24.05,89.19V55.32h20.86v149H364.47Z" fill="#fff"/><path d="M418.74,118.11h33.43V139.4H418.74V183h40.45v21.29H395.33v-149h63.86V76.6H418.74Z" fill="#fff"/><path d="M177.86,227.95c0,4.74-2.73,5-7,5-5.78,0-7-1.84-7-7.67,0-5.4.86-7.76,7-7.76s7,1.81,7,8.39H167.48c0,3.25.09,4.28,3.33,4.28,2,0,3.42,0,3.42-2.21Zm-3.62-4.37c0-3.1-.46-3.33-3.42-3.33-3.13,0-3.33.66-3.33,3.33Z" fill="#fff"/><path d="M197.54,232.75h-3.62V211.19h3.62Z" fill="#fff"/><path d="M227.59,227.95c0,4.74-2.73,5-7,5-5.78,0-7-1.84-7-7.67,0-5.4.86-7.76,7-7.76s7,1.81,7,8.39H217.22c0,3.25.09,4.28,3.33,4.28,2,0,3.42,0,3.42-2.21ZM224,223.58c0-3.1-.46-3.33-3.42-3.33-3.13,0-3.33.66-3.33,3.33Z" fill="#fff"/><path d="M256.88,227c0,4.94-1.78,5.92-6.87,5.92-5.55,0-6.75-1.61-6.75-7.7,0-5.29.83-7.73,6.75-7.73,4.48,0,6.87.69,6.87,5.46h-3.62c0-2.3-.72-2.7-3.25-2.7-3.1,0-3.13,1.09-3.13,5s-.06,4.94,3.13,4.94c3,0,3.25-.52,3.25-3.16Z" fill="#fff"/><path d="M271.63,217.66h1.9v-3.42h3.62v3.42h5.78v2.76h-5.78v7.73c0,1.38,0,2,1.55,2,2,0,1.81-1.61,1.81-3.19h3.19c.06,4.57-1.09,5.95-5,5.95s-5.17-.92-5.17-4.74v-7.76h-1.9Z" fill="#fff"/><path d="M302.52,217.66l-.09,2h.14c.72-1.67,2.27-2.16,4-2.16,3.19,0,4,1.9,4,4.74v1.21h-3.39v-.78c0-1.52-.14-2.41-1.84-2.41-2.16,0-2.79,1.24-2.73,3.19v9.31H299V217.66Z" fill="#fff"/><path d="M329.62,214.27H326v-3.07h3.62Zm0,18.48H326V217.66h3.62Z" fill="#fff"/><path d="M359.24,227c0,4.94-1.78,5.92-6.87,5.92-5.55,0-6.75-1.61-6.75-7.7,0-5.29.83-7.73,6.75-7.73,4.48,0,6.87.69,6.87,5.46h-3.62c0-2.3-.72-2.7-3.25-2.7-3.1,0-3.13,1.09-3.13,5s-.06,4.94,3.13,4.94c3,0,3.25-.52,3.25-3.16Z" fill="#fff"/><path d="M402.4,232.75h-3.62V211.19h3.62Z" fill="#fff"/><path d="M417.68,217.66h1.9v-3.42h3.62v3.42H429v2.76H423.2v7.73c0,1.38,0,2,1.55,2,2,0,1.81-1.61,1.81-3.19h3.19c.06,4.57-1.09,5.95-5,5.95s-5.17-.92-5.17-4.74v-7.76h-1.9Z" fill="#fff"/><path d="M455.47,230.48h-.11c-.92,2-2.59,2.44-4.71,2.44-5.6,0-5.78-3.53-5.78-8.16,0-4.43.6-7.27,5.78-7.27,1.84,0,3.77.34,4.54,2.18h.14v-8.48h3.62v21.55h-3.62Zm-7-5.72c0,3.42-.09,5.4,3.22,5.4,3.71,0,3.56-1.81,3.56-5.4,0-3.22-.43-4.51-3.56-4.51C449.2,220.25,448.48,221,448.48,224.76Z" fill="#fff"/><path d="M285.91,55.32H251.64l-19.7,123.16-22.38-56.75,32.57-66.41H212.67l-10.76,22h8.18l-21.75,44.42L195,91.22h-8.11l7.23-35.9H164.64v149h23.41V158.56l7.24-13.63,22.77,59.39H249.3l4-27h28.74l4,27h23.63ZM256.32,157.07,267.6,81.72l11.29,75.35Z" fill="#fff"/></g><rect x="38.37" y="143.83" width="320.45" height="0.41" transform="translate(-18.35 258.57) rotate(-63.79)" fill="#ed1c24" stroke="#ed1c24" stroke-miterlimit="10" stroke-width="0.25"/><rect x="157.58" y="0.26" width="0.41" height="287.55" fill="#ed1c24" stroke="#ed1c24" stroke-miterlimit="10" stroke-width="0.25"/><rect x="164.39" y="0.26" width="0.41" height="287.55" fill="#ed1c24" stroke="#ed1c24" stroke-miterlimit="10" stroke-width="0.25"/><rect x="388.32" y="0.26" width="0.41" height="287.55" fill="#ed1c24" stroke="#ed1c24" stroke-miterlimit="10" stroke-width="0.25"/><rect x="395.12" y="0.26" width="0.41" height="287.55" fill="#ed1c24" stroke="#ed1c24" stroke-miterlimit="10" stroke-width="0.25"/><rect x="127.35" y="0.26" width="0.41" height="287.55" fill="#ed1c24" stroke="#ed1c24" stroke-miterlimit="10" stroke-width="0.25"/><rect x="134.16" y="0.26" width="0.41" height="287.55" fill="#ed1c24" stroke="#ed1c24" stroke-miterlimit="10" stroke-width="0.25"/><rect x="452.18" y="0.26" width="0.41" height="287.55" fill="#ed1c24" stroke="#ed1c24" stroke-miterlimit="10" stroke-width="0.25"/><rect x="458.98" y="0.26" width="0.41" height="287.55" fill="#ed1c24" stroke="#ed1c24" stroke-miterlimit="10" stroke-width="0.25"/><rect x="54.98" y="0.26" width="0.41" height="287.55" fill="#ed1c24" stroke="#ed1c24" stroke-miterlimit="10" stroke-width="0.25"/><rect x="8.94" y="143.89" width="320.45" height="0.41" transform="translate(-34.84 232.21) rotate(-63.79)" fill="#ed1c24" stroke="#ed1c24" stroke-miterlimit="10" stroke-width="0.25"/><rect x="16.87" y="143.96" width="320.75" height="0.41" transform="translate(-30.39 239.5) rotate(-63.79)" fill="#ed1c24" stroke="#ed1c24" stroke-miterlimit="10" stroke-width="0.25"/><rect x="0.13" y="204.12" width="514.13" height="0.41" fill="#ed1c24" stroke="#ed1c24" stroke-miterlimit="10" stroke-width="0.25"/><rect x="0.13" y="210.93" width="514.13" height="0.41" fill="#ed1c24" stroke="#ed1c24" stroke-miterlimit="10" stroke-width="0.25"/><rect x="0.13" y="232.54" width="514.13" height="0.41" fill="#ed1c24" stroke="#ed1c24" stroke-miterlimit="10" stroke-width="0.25"/><rect x="0.13" y="55.11" width="514.13" height="0.41" fill="#ed1c24" stroke="#ed1c24" stroke-miterlimit="10" stroke-width="0.25"/></svg>