<?xml version="1.0" encoding="utf-8"?>
<!-- Generator: Adobe Illustrator 21.1.0, SVG Export Plug-In . SVG Version: 6.00 Build 0)  -->
<svg version="1.1" id="Layer_1" xmlns="http://www.w3.org/2000/svg" xmlns:xlink="http://www.w3.org/1999/xlink" x="0px" y="0px"
	 viewBox="0 0 367.2 460.8" style="enable-background:new 0 0 367.2 460.8;" xml:space="preserve">
<style type="text/css">
	.st0{fill:#ED1C24;}
</style>
<title>Artboard 1</title>
<path class="st0" d="M233.4,384.6c0.1,1.3,0.1,2.7,0.4,4.1c0.5,3.4,0.2,6.9-1.1,10.2c-0.5,1.8-0.8,3.6-0.7,5.4
	c-0.1,7.8,0,15.6,0,23.7c-1-0.8-1.6-2-1.4-3.3c-0.1-6.2-0.3-12.4-0.4-18.6c0-0.5-0.1-1-0.2-2.2c-2.6,3.1-6,3.1-9,4
	c-0.5,0.1-1,0.2-1.6,0.1c-6.4-0.9-10.6-5.9-9.8-12.3c0.3-2.5,1-4.9,2-7.2c1.3-2.6,3.6-4.5,6.4-5.2c2.1-0.6,4.3-0.9,6.4-1
	c2.1-0.2,4.2,0.2,5.9,1.3C231.3,384,232.3,384.3,233.4,384.6z M216.4,404.8c2,0.1,3.9,0.7,5.3,0.2c3.2-0.9,5.5-3.8,5.7-7.2
	c0.2-2.7,0.3-5.4,0.3-8.1s-0.5-3.4-3.2-3.9c-1.5-0.3-3-0.4-4.5-0.3c-2.3,0.1-3.5,1.4-3.5,3.7C216.4,394.1,216.4,399.1,216.4,404.8
	L216.4,404.8z"/>
<path class="st0" d="M251.1,385.5c1.6-0.5,3.7-1.3,5.8-2c3.7-1.2,7.1,0.2,10.3,1.9c2.5,1.3,2.4,1.5,5,1.3c0.4,1.8,0.8,3.5,1,5.3
	c0.2,1.1,0.2,2.2,0,3.2c-1.8,4.3-1.1,8.8-1,13.2c0.2,5.4,0.4,10.8-0.6,16.2c-0.1,0.4-0.3,0.8-0.5,1.1c0,0-0.2,0-0.6,0
	c-0.9-3.8,0.4-7.6,0.2-11.4s0-7.7,0-12c-1.2,1.1-2,1.9-2.9,2.7c-4.5,3.8-11,4.3-16,1.1c-1.3-0.8-1.3-1.9-1.8-2.9
	c-1.9-4.2-2.3-8.5-0.4-12.9C250.2,388.9,250.7,387.2,251.1,385.5z M264.9,402.1c0.2-3.1,0.4-6,0.7-8.9c0.5-4.6-3-9.6-9.1-6.9
	c-0.6,0.3-1.2,0.5-1.6,0.8l-0.5,15.8C258.3,405.4,261.8,405,264.9,402.1L264.9,402.1z"/>
<path class="st0" d="M76.5,425.8c-1.3,1-2.9,1.3-4.5,0.9c-4.9-1-9.9-1.1-14.8-0.2c-0.5,0-0.9-0.1-1.4-0.2
	c0.2-10.6,0.5-21.1,0.6-31.5c0-1.9-0.2-3.9-0.4-5.8c-0.2-1.9,0.5-3.2,2.2-3.3c5.5-0.3,11-0.4,16.6-0.6c1.3,0,2.1,0.5,1.6,2L63,388
	c-1,6-1.2,12.1-0.4,18.1c2.5,1,5.1-0.3,7.8,1.4c-2.9,1.5-5.4,0.4-8.2,1.2l-0.8,14.5C66.5,424.2,71.8,422.6,76.5,425.8z"/>
<path class="st0" d="M289,418.5c4.5,6.5,9.9,6.5,15.2,4.1l1-17.3c-5.3-1.9-10.5,0-16.6,1.3c0.6-1.2,1.3-2.4,2.1-3.5
	c1.9-2,3.9-3.8,5.8-5.7c2.8-2.8,5.6-5.7,8.8-8.9c-5.3-0.4-10.2-0.7-15.1,0.4l-0.9-3h19.9l0.8,1.5l-13.6,12.6
	c0.5,0.3,0.6,0.5,0.8,0.5c5-1,8.2,2.5,12,4.6c0.2,0.1,0.3,0.5,0.4,0.8c1.6,3.7,2.2,7.8,1.8,11.8c-0.4,3.7-2,6.6-5.9,7.8
	c-4.8,1.5-9.4,2-13.7-1.3c-1.1-1-2.1-2.1-2.9-3.4C288.6,420.5,288.9,419.8,289,418.5z"/>
<path class="st0" d="M84.6,417.4c-0.6,1.9-1.7,3.6,0.3,4.9c2.2,1.5,4.4,2.2,7,1.1c1.2-3.9,1.7-7.9,1.5-12c-0.1-3.9-1.7-7.5-4.5-10.1
	c-2.3-2.1-3.4-5.1-3.3-8.2c0-3,1.1-5.3,4.2-6.6c4.3-1.9,9.8-1.7,12.5,0.8c1.7,1.6,1.8,2.3,0.1,4.9c-0.2-2-0.3-3.8-2.3-4.4
	c-2.4-0.8-5-0.7-7.3,0.1c-0.6,0.3-1,0.8-1.1,1.4c-0.3,2.8-0.5,5.6-0.7,8.4c-0.1,1.6,0.7,3.2,2.1,4.1c5.5,4.5,7.1,10.5,5.8,17.2
	c-1,4.7-5.5,7.7-10.2,6.7c-0.3-0.1-0.6-0.1-0.9-0.3l-2.2-0.7c-1.8-0.5-2.5-2-3-3.6S82.9,418.5,84.6,417.4z"/>
<path class="st0" d="M123.4,425.3c-1.1-5.5,0.4-11,0.2-16.5s-0.1-11.2-0.1-17.3H115l-1.1-4.7c0.5-0.3,1.1-0.5,1.7-0.6
	c4-0.3,7.9-0.5,11.9-0.7c2.2-0.1,4.3,0,6.5-0.1c2.5-0.1,2.6,0,2.2,2.6c-0.1,0.8-0.1,1.5-0.2,2.6l-10.4,1l-1.3,33.6L123.4,425.3z"/>
<path class="st0" d="M153.1,406.3v-20.9c1.5,0.3,2.7,0.3,3.6,0.8c5.8,3.2,7.1,12.5,2.9,17.5C157.9,405.8,155.8,405.9,153.1,406.3z
	 M155.3,387l-1,17.2c2-0.1,3.6-1.6,3.9-3.5c1.2-4.3-0.1-8.3-1.3-12.3C156.7,388,156.1,387.7,155.3,387z"/>
<path class="st0" d="M192.3,425.8c-0.4-0.4-1.1-0.8-1.1-1.3c-0.1-1.6-0.1-3.3,0-4.9c0.8-8.2,1-16.5,0.5-24.8l-4.8-0.3
	c1.4-2.9,2.5-5.6,3.8-8.1c0.3-0.6,1.4-0.9,2.1-1.3c1.4,1.7,1,3.5,1,5.2c0,5.3-0.2,10.6-0.4,15.9s-0.6,10.4-0.9,15.5
	c0,1.2,0.1,2.4,0.3,3.5L192.3,425.8z"/>
<path class="st0" d="M166.2,413.6c-1.2,0.7-2,1.5-2.4,1.3c-4.3-1.6-8.8-0.6-13.1-1.1c-1-0.1-2.1,0-3.2-1.4
	C153.7,412.5,159.6,411.8,166.2,413.6z"/>
<path class="st0" d="M36.7,231.1h-1.5v26.3l-6.7,1.4v8.8h-0.3c-0.2-0.4-0.4-0.9-0.5-1.4c0-2.9,0.3-5.9,0.2-8.8
	c-0.1-2.2-0.1-4.6-2.5-6c-0.7-0.6-1.4-1.3-1.9-2.1c0.9-0.8,1.8-1.5,2.8-2.2c1.5-0.8,1.8-2,1.8-3.6c0-2.5,0.4-4.9,0.4-7.4
	s0.5-5.1,0.1-7.9l-3.6-1.8l0.1-0.3c1,0.5,2,1.1,3.1,1.5c2.2,0.9,4.5,1.7,6.7,2.6C35.5,230.5,36.1,230.8,36.7,231.1L36.7,231.1z"/>
<path class="st0" d="M43.2,262.4l4.9-0.3c-0.1-3.2,0.1-6.3,0.8-9.4c1.2,0.3,2,1.5,1.8,2.7c0,2.1,0,4.1,0,6.2l5.8-0.3
	c0-2.4-0.1-4.7,0-7c0-0.8-0.4-1.5-1-2c-1.1-1.1-2.1-2.3-3.3-3.6l4.4-3.7v-10.4l-4.4-0.4v-0.4H65v0.2l-7.7,0.5
	c-0.4,9-0.3,17.8,0.1,26.8l4.7,0.3c1-3-1-6.6,1.8-9.8c0.9,3.5-0.2,6.8,0.7,10.1l6.4,0.8v-27.2h0.6l0.4,27.5l3.5,0.7
	c0.2-2.8,0.4-5.4,0.6-8s-0.8-5,0.3-7.4c1.1,0.2,1.2,0.8,1.1,1.6c0,4.7,0,9.4,0,14.4l5,1.9l-0.1,0.4c-0.6-0.1-1.2-0.3-1.8-0.4
	c-1.3-0.3-2.3-1.3-3.9-0.8c-0.5,0.1-1.2-0.9-2-1c-5-1-10.1-2.2-15.2-2.2c-1.3,0-1.3,0-2.2,1.1c-0.8-1.4-2.1-1.1-3.3-1
	c-3.5,0.4-7.1,0.8-10.6,1.3C43.2,263.1,43.2,262.7,43.2,262.4L43.2,262.4z"/>
<path class="st0" d="M95.3,273.8l-2.8-2.4v0c1.9,1.1,3.8,2.1,5.8,3.3c0.7,0.4,1.3,0.9,2.2,1.5c0.5-6.5,0.8-12.8,0.7-19.3l-9.2-0.8
	c0.1-1.3-0.3-2.4,1.5-2.2c0.5,0.1,1.2-0.5,2.1-1l5.8,2c-0.3-3.7-0.1-7.4,0.6-11.1c-5.3,0.5-6.9,0.4-9.4-0.9c2.6-2.6,5.8-0.8,8.8-1.4
	c0.9-7-0.8-14-0.3-21.4c-4.2,1.6-7.1,4.9-11.2,6l11.2-7.3c0.2,0.3,0.4,0.5,0.4,0.7c0.2,2.3,0.3,4.6,0.6,6.9
	c0.6,5.8,0.4,11.6,0.4,17.4c0,5.1-0.2,10.2-0.2,15.3c0,2.9,0,5.7-0.1,8.6c0,2.5,0,4.9-0.2,7.4s-1.1,2.5-2.7,1.2
	c-1.1-0.8-2.2-1.5-3.4-2.1L95.3,273.8z"/>
<path class="st0" d="M17.9,233.1c3.1-0.6,4,0,3.9,2.6c-0.1,2.4-0.5,4.9-0.8,7.6l-2.2,0.2C17.4,240,19,236.5,17.9,233.1z"/>
<path class="st0" d="M85.4,266.8c-0.1-0.4-0.1-0.8-0.1-1.1c0-5.9-0.4-11.8,0.2-17.6c0.6-5.4,0.2-10.8,0.6-16.2
	c0-1.3-0.1-2.5-0.3-3.8c0-0.1,0.3-0.2,0.8-0.6c0.7,13.3-0.8,26.3-0.5,39.3L85.4,266.8z"/>
<path class="st0" d="M80.5,249c-1.2-0.4-1.1-1.3-1.1-2.3c0-4.7-0.1-9.4-0.1-14.1c0-0.4-0.1-0.8-0.2-1.5l-8.2,2v-0.2l12.9-4
	c-0.1,0.3-0.1,0.4-0.2,0.4c-3,0.6-3.3,3-3.1,5.3c0.2,2.1-0.8,4.3,0.6,6.3C80,243.4,81.7,246.3,80.5,249z"/>
<path class="st0" d="M39.8,264.6L33,266c2.7-1.6,5.8-2,8.9-3.1c0.1-4.9,0.2-9.8,0.2-14.7s0-9.8,0-14.6h0.5c0,0.9,0,1.7,0,2.5
	c0.1,3.6,0.3,7.2,0.3,10.7c0,3.8-0.3,7.6-0.4,11.5c0,1.4-0.6,2.9,0.6,4.1v-0.1l-0.7,1.4L39.8,264.6L39.8,264.6z"/>
<path class="st0" d="M20.5,266l-2.1,0.4c-1.4-1.1-0.7-2.6-0.9-3.9s-0.2-2.5-0.3-4.1c0.8,0,1.5-0.1,2.3-0.1c1,0,1.4,0.6,1.4,1.6
	C20.8,261.9,20.7,263.9,20.5,266z"/>
<path class="st0" d="M36.6,231.2c0.8,0,1.6,0.1,2.3,0.2c3.3,0.6,6.5,1.2,9.8,1.8c0.5,0.1,0.9,0.2,1.4,0.4l-0.4,11.3
	c-0.3-0.3-0.9-0.5-0.9-0.9c-0.3-1.2-0.4-2.5-0.4-3.8c0-2,0.2-4.1,0.3-6L36.6,231.2L36.6,231.2z"/>
<path class="st0" d="M64.6,239.5l-0.5,7.7c-0.5-0.5-1.1-0.8-1.1-1.1c0.1-2.1,0.2-4.2,0.4-6.4c0-0.2,0.4-0.3,0.7-0.5L64.6,239.5z"/>
<path class="st0" d="M12,239.1v-18.7h0.3v18.7H12z"/>
<path class="st0" d="M39.7,264.7l1.8,0.7c-0.8,0.5-1.6,0.8-1.8,1.4c-0.2,0.9-0.2,1.8-0.1,2.6l1.7-1.2l0.3,0.2
	c-0.2,0.7-0.6,1.3-1,1.9c-0.5,0.2-1,0.2-1.4,0c-0.3-1.2-0.4-2.5-0.6-3.7C38.5,265.5,39.1,265.1,39.7,264.7L39.7,264.7z"/>
<path class="st0" d="M95.3,273.8l0.5,0.4c0.3,1.2,0.8,2.4,0,3.6c-0.3,0.8-1.3,1.3-2.1,0.9c-0.1,0-0.1-0.1-0.2-0.1
	c-0.8-0.2-1.2-1.1-1-1.9c0-0.1,0.1-0.2,0.1-0.3C93.4,275.6,93.8,274.1,95.3,273.8z M95.3,275.3l-0.6-0.1l-1.9,2.4h2.6L95.3,275.3z"
	/>
<path class="st0" d="M30,269.2c0.9-0.8,1.6-1.7,3-1l-1.8,1.5l0.9,1.2l1.8-1c-1.2,2-1.2,2-0.3,3.4c-0.6,0.5-1.1,0.6-1.5-0.2
	c-0.3-0.6-0.5-1.4-0.8-2S30.5,269.9,30,269.2z"/>
<path class="st0" d="M13.8,277.4l0.8,0.2c0,0.8-1.7,1.4-0.2,2.4l1.9-1.1l0.2,0.3l-1.6,1.8l0.3,0.4c0.4-0.1,0.8-0.2,1.1-0.4
	c0.4-0.2,0.6-0.4,1.2-0.6c-0.8,1.3-0.8,1.3-2.5,2.2c-0.3-0.3-0.5-0.5-0.7-0.8c-0.5-0.9-1-1.8-1.5-2.6L13.8,277.4L13.8,277.4z"/>
<path class="st0" d="M25.7,275.4l2.1-0.7l0.2,0.4l-2.6,2c-1.6-1-1.9-2.9-3.3-4.5C24.2,272.8,24.4,274.7,25.7,275.4z"/>
<path class="st0" d="M55.4,264.6c-0.5,0.8-1.3,1.5-1.4,2.3c-0.1,1.3-2.1-0.7-1.4,1.6L52,268l0.7-4.5C54.1,263,55,263.3,55.4,264.6
	l-2.1-1.1l0.2,2.4L55.4,264.6z"/>
<path class="st0" d="M66.5,262.8l1.5,1.3l-0.5,0.6l-1.3-0.6c-0.9,1.1-1.4,2.5-1.4,3.9l1.6-0.2c0,0.2,0.2,0.6,0.1,0.7
	c-0.4,0.3-1,0.9-1.2,0.8c-0.5-0.3-0.9-0.7-1.1-1.3C64.1,266,64.9,264.1,66.5,262.8z"/>
<path class="st0" d="M80.8,272.2l-3.4-1.1l2.8-4.7c0,1.8,0,1.8-1.3,3.6l2.2,1.8L80.8,272.2z"/>
<path class="st0" d="M15.2,275.3c0.7-0.7,1.4-1.3,2.2-1.9c1.2-0.9,2.5-1.6,4-2.5c0.3,1.5-1,1.3-1.5,1.8c-0.7,0.6-1.5,1.2-2.3,1.7
	C16.8,274.7,16,275,15.2,275.3L15.2,275.3z"/>
<path class="st0" d="M89.2,272.3c-1.6-0.9-2.4-0.1-3.4,0.8l0.8-2.3l-0.9-0.9C86.4,269.3,87.9,270.3,89.2,272.3z"/>
<path class="st0" d="M47.4,269.3c-1.4-1.3,0.2-4-2.5-4.8l2.4-0.9l0.4,0.3C46.1,265.6,47.9,267.4,47.4,269.3z"/>
<path class="st0" d="M92.5,271.4c-0.7-0.3-1.4-0.5-2.1-0.8c-1.8-0.8-3.5-1.8-5.2-2.8C87.7,268.6,90.4,269.4,92.5,271.4L92.5,271.4z"
	/>
<path class="st0" d="M11.5,249c-0.1-0.2-0.1-0.4-0.1-0.7c0-2.3,0-4.6,0-7.4c1.1,1.5,0.4,2.9,0.5,4.1s0,2.6,0,3.9H11.5z"/>
<path class="st0" d="M61.2,263.4l-0.9,5.1l-0.6-0.1l0.8-5.1L61.2,263.4z"/>
<path class="st0" d="M11.6,251v6h-0.2v-6H11.6z"/>
<path class="st0" d="M11,268.4V263h0.2v5.2L11,268.4z"/>
<path class="st0" d="M13.9,277.4l-1.9-0.5l0,0l3.2-1.6l0,0L13.9,277.4L13.9,277.4z"/>
<path class="st0" d="M10.9,275.2v-2.6h0.2v2.6H10.9z"/>
<path class="st0" d="M99.6,279.6l-1,1.4c-0.2-0.2-0.4-0.3-0.4-0.4C98.2,279.9,98.3,279.3,99.6,279.6z"/>
<path class="st0" d="M68.3,233.1l1.3-0.2l0.1,0.3l-1.3,0.4L68.3,233.1z"/>
<path class="st0" d="M12,276.9c0.5,1.6-0.7,1-1.6,1.4C11.2,277.7,11.6,277.3,12,276.9L12,276.9z"/>
<path class="st0" d="M99.1,21.1c0.3,1.2,0.5,2.3,0.5,3.5c0,3.3-0.1,6.7-0.3,10s-0.4,6.7-0.5,10c0,0.8,0.2,1.6,0.4,2.4
	c-1.9,0.8-4,0.1-6,0.2c-5.3,0.1-10.5,0-15.8,0.2c-0.8,0.2-1.6,0.5-2.3,1c-1.4-1.8-3.8-1.2-5.8-1.4c-3.4-0.1-6.8-0.1-10.2,0.2
	c-0.9,0.1-1.7,0.1-2.6,0.1c-3.4-0.6-6.8,0.1-10.3,0.1c-0.2,0-0.3,0-0.5,0c-5.5,1.3-10.9,0.2-16.4,0.2c-4.1,0-8.3,0.1-12.4,0.2
	c-1.3,0-2.5-0.1-3.7-0.2V17.8c5.2-1,10.2-1.7,15.4-0.8c3.3,0.5,6.7,0.7,10,0.6c5.7,0.1,11.5,0,17.2,0c3,0,6,0.2,9,0.3
	c1.1,0,2.2-0.1,3.3-0.2c0.6-0.1,1.3-0.1,1.9,0c3.9,0.7,7.8,0,11.7-0.4c1-0.2,2.1-0.2,3.1,0c1.9,0.4,3.9,0,5.9,0
	c2.2-0.1,4.4-0.2,6.7-0.3c1.2,0,1.8,0.4,1.6,1.7C99,19.6,99.1,20.4,99.1,21.1L98,18.1c-0.4,0-0.9-0.1-1.4-0.1
	c-2.9,0-5.7,0.1-8.6,0.1c-2.2,0-2.2,0-3,1.9c-0.4-2.2-0.7-2.4-3-1.9c-0.5,0.1-1,0.3-1.8,0.5v13l-0.6,0.1c-0.3-0.5-0.8-1-0.9-1.5
	c-0.3-3.9-0.2-7.7,0.2-11.6h-7.3c-1.2,4.4-0.3,8.7-0.6,12.9s-0.5,8.6-0.7,13.1c-1-0.8-0.7-1.7-0.8-2.5c-0.2-5.8,1.1-11.5,0.6-17.3
	c0-0.3,0-0.7,0.1-1c0.1-1.7,0.2-3.3,0.3-5.1c-0.8-0.1-1.3-0.1-1.8-0.1c-3.3-0.1-6.7-0.3-10-0.3c-1,0-2.3-0.7-3,0.7
	c-0.5-0.2-1-0.7-1.5-0.7c-3.6-0.1-7.2-0.2-11-0.3c0.8,2.1,1.1,4.4,0.9,6.7c-0.5,5.3-0.8,10.7-1.1,16c-0.1,1.9,0,3.8,0,5.9l5.2-0.5
	c-0.8-2.7-0.6-7.3,0.2-9.2c1,1.4,2,2.6,1.5,4.5c-0.2,1.5-0.2,3,0,4.4h5.8c1.1-5.2-0.9-9.2-4-12.7c1-1.6,1.8-3.1,2.8-4.4
	c0.8-1,1.1-2.3,1-3.6c0-2,0.1-4.1,0.1-6.2c0.2,0.4,0.6,0.8,0.7,1.2c0.2,3.3,0.4,6.5,0.5,9.8c0.1,3.8,0,7.7,0,11.5c0,1.5,0,3,0,4.6
	l4-0.3c0-3.7-0.3-7.2,1-10.5h0.5v10.6h11.7c0.1-0.8,0.2-1.6,0.3-2.4c0.2-3.4,0.4-6.8,0.5-10.3c0-0.7-0.1-1.4,0.9-1.8
	c1.6,4.8,0.9,9.7,1,14.6h21l0.5-8.9h-6.2c0.5-0.3,1-0.7,1.5-1.1c0.2-0.3,0.5-0.5,0.7-0.8l4.1,0.9l0.3-7.3l-7,0.4
	c1-1.8,2.3-1.3,3.4-1.4s2.3-0.1,3.6-0.2c0-1.3,0-2.3,0-3.3S99.1,22.3,99.1,21.1z M14.4,18c1.1,9.6,0.1,19-0.5,28.8l11.9-1v0.4
	l-2.1,0.3c3.1,0.6,3.3,0.6,5.1-0.5c0.1-4.2-0.5-8.4-0.8-12.6c-1.9-0.2-3.5,0.2-5-0.3v-0.6l4.8-0.3c0.2-4.8,0.8-9.6-0.2-14.5
	c-2.1-0.1-4-0.3-5.8-0.2C19.5,17.5,17.1,17.8,14.4,18z M41.9,46.6c0.1-0.4,0.2-0.9,0.2-1.3c0.1-2.9,0.2-5.7,0.2-8.6
	c0-1.4-0.3-2.8-0.4-4.3s-0.4-2.9,0.3-4.3l1.1,0.2c0-2.5,0-4.8,0-7.1c0.1-1.4-0.9-2.6-2.3-2.8c-1.7-0.1-3.3,0-5,0
	c0.2,3.7,0.7,7.2,0.6,10.6s0.7,7.1-0.7,10.2l-6.1,0.4v7.5h3.7l-0.1-0.5L41.9,46.6z"/>
<path class="st0" d="M54.8,47.8c1.7,1.8,1.6,2.4-0.5,4.1l0.4,1.4l-2.6,2C51.8,52.5,52.8,49.8,54.8,47.8z"/>
<path class="st0" d="M95.1,49.1c1,1.4,0.7,2.8,0.2,4.3c-0.4,1.2-1.7,1.8-2.9,1.4c-0.9-0.3-1.6-0.8-1.3-1.9s0.5-2.3,0.7-3.5
	c0.2-0.9,0.6-1.7,1.6-1.8C94.2,47.6,95,48.2,95.1,49.1C95.1,49.1,95.1,49.2,95.1,49.1l-1.7-1c-1.3,1.9-1.1,3.9-1.5,5.8
	c2,0.2,2.8-0.4,3-2.1C95,50.9,95.1,50,95.1,49.1z"/>
<path class="st0" d="M28.2,56.4l0.8-6.9l3.8-0.3c-0.9,1.3-3.4,0.3-2.8,2.8l2.7-0.4c-1.6,1.1-3.9,1.1-3.3,3.7l1.6,0.3v0.3L28.2,56.4z
	"/>
<path class="st0" d="M39,49.9c-1.8,0.6-3.1,2-3.7,3.8l3.5,0.5c-1,0.9-2.6,0.9-3.6,0c-0.3-0.3-0.5-0.8-0.4-1.2c0.5-1.7,1.8-3,3.5-3.5
	C38.3,49.4,38.5,49.6,39,49.9z"/>
<path class="st0" d="M62.2,53.4l2.8-0.5c-0.4,1.1-1,1.5-2,1.2c-0.9-0.1-1.6-1-1.4-1.9c0,0,0,0,0,0c0.2-1.7,0.9-3.3,2.1-4.6l0.9,0.8
	c-0.7,0.6-1.4,1.3-1.9,2.1C62.3,51.5,62.2,52.5,62.2,53.4z"/>
<path class="st0" d="M24.5,55.6l-3.3,0.2c0.4-2.5,0.7-4.6,2.2-6.4l-1.3,5.3l2.4,0.3L24.5,55.6z"/>
<path class="st0" d="M78.5,53h4c-1.6,1.4-3.1,0.6-4.5,0.9c-0.4-1.9,0.2-3.4,0.4-5.2c1.1,0.6,0.3,1.3,0.3,1.9
	C78.7,51.5,78.6,52.2,78.5,53z"/>
<path class="st0" d="M85.3,54l0.6-4.6l-1.4-0.2c0.3-0.3,0.5-0.7,0.7-0.7c0.9,0,1.8,0.2,2.8,0.3C86,50,87,52.3,85.3,54z"/>
<path class="st0" d="M14.8,51c-0.7,1.2-0.2,1.9,1.1,2.3c-1.3-0.1-1.5,0.8-1.5,1.6c0.1,0.5,0.2,0.9,0.5,1.3l-1.4,0.6
	c0.2-1.8,0.4-3.4,0.7-5C14.1,51.5,14.5,51.3,14.8,51L14.8,51z"/>
<path class="st0" d="M46.6,50.1L45.6,54l-0.4-0.1v-2.7l-2-0.3C44.3,49.8,45.6,50.2,46.6,50.1z"/>
<path class="st0" d="M59.4,49.4l-0.4,4h-0.5c-0.2-1.3-0.1-2.7,0.3-4H59.4z"/>
<path class="st0" d="M14.8,51l-0.4-1.2l3.1-0.7l0.1,0.5c-0.7,0.1-1.4,0.2-2.1,0.4C15.2,50.2,15,50.6,14.8,51L14.8,51z"/>
<path class="st0" d="M98.2,53l-0.6,0.8c-0.2-0.2-0.4-0.4-0.5-0.6s0.2-0.5,0.3-0.5C97.6,52.7,97.9,52.8,98.2,53z"/>
<path class="st0" d="M85.6,23c0.1,0.4,0.2,0.8,0.2,1.2c-0.1,5.4-0.3,10.9-0.4,16.3c0,0.7,0,1.4,0,2.1c-0.1,0.8-0.3,1.6-0.8,2.4
	c-0.9-2.4,0-4.8-0.1-7.2c-0.1-2.5,0.1-5.1,0.3-7.6c0.1-2.4,0.3-4.7,0.4-7.1L85.6,23z"/>
<path class="st0" d="M62.4,32.3c-1-1.8-0.7-6.4,0.4-8.3C64.3,26.9,63.2,29.3,62.4,32.3z"/>
<path class="st0" d="M21,37.2c0.8,1.7,1,3.6,0.5,5.4c-0.4-0.2-1-0.2-1-0.4C20,40.6,20.2,38.8,21,37.2z"/>
<path class="st0" d="M21,28.2c-0.9-1.9-1-2.2-0.7-4.6C21.3,24.2,21.3,24.2,21,28.2z"/>
<path class="st0" d="M49.6,19c0.5,2.8,0.5,5.6,0.1,8.5C48.7,25.3,48.6,20.7,49.6,19z"/>
<path class="st0" d="M87.5,335.2c-0.1-0.4-0.4-1-0.3-1.2c1.3-2.1,1.1-4.4,1-6.6c-0.1-1.7,0.1-3.5,0.2-5.2c0-2.1,0-4.2,0.1-6.3
	c0.1-3.1,0.4-6.1,0.6-9.4h10.6c4,0.1,3.7,0.1,3.6,3.6c0,1.3-0.1,2.7-0.2,4.1h-8.3c-1.2,2.3-0.4,4.6-0.4,7.2c1,0,2,0,2.9,0
	c1.5,0.1,1.7,0.4,1.6,1.9c-0.1,1.1-0.1,2.2-0.2,3.4c-1.2,0.7-2.7,1-4.1,0.9c-1.1,0-1.5,0.4-1,1.7c2.5-0.5,5,0.9,7.6,0.3
	c1.4-0.3,2.1,0.7,2,2.4c-0.1,3.3-2.3,5.2-4.8,7.1l2.4,1.1c-0.4,0.4-0.8,0.7-1.2,1c-4.9,2.4-9.8,4.7-14.7,7c-0.2,0-0.3,0-0.5,0l0.1,0
	c0.5-1.5,2-1.7,3.1-2.3c3-1.5,6.2-2.9,9.2-4.4c0.6-0.3,1.2-0.7,1.8-1.1l-3.7-0.8c0.8-0.4,1.5-0.8,2.2-1.3c1.3-1.1,2.4-2.4,3.7-3.4
	c1.3-0.9,1.9-2.6,1.3-4.1c-2.6-0.2-5.2-0.4-7.8-0.6c-1.6-0.1-2-0.4-2.1-2c0-0.5,0-1,0.1-1.5l5.5-1.1V322c-1,0-1.9,0-2.9,0
	c-1.2,0.1-1.8-0.4-1.8-1.6c0-2.3,0-4.6,0-7c2.9-1.1,5.7-0.2,8.8-0.5l0.3-5.6H90c0.6,2.8,1.2,5.3,0.3,7.8c-0.6,2-0.8,4.2-0.5,6.3
	l0.8-3.5c0.2,0.5,0.2,1,0.2,1.5c-0.5,4.3-0.9,8.6-1.5,12.8C89.1,333.2,88.1,334.1,87.5,335.2L87.5,335.2z"/>
<path class="st0" d="M78.4,329.3l-1.3-1.4l-0.7,5.1h-9.6l-1.1-4.7c-0.4,0.7-0.8,1.1-0.8,1.4c0.2,2-1.2,2.6-2.6,3.2
	c-1.3,0.8-2.9,0.6-3.9-0.5c-0.2-0.2-0.5-0.4-0.8-0.7c1.2-4.1,2.5-8.1,3.5-12.3c0.8-3.2,2.4-6.1,2.5-9.5c0-2.9,0.7-3.2,3.6-3.5
	c1.3-0.1,2.7-0.2,3.8-0.3c0.9,1.1,1.2,2.4,1,3.8c-0.1,4.7-0.3,9.4-0.5,14.1c0,1.2-0.1,2.4-0.1,3.5c0,0.3,0.2,0.6,0.4,0.8
	c0.7-4.4,1.2-8.9,1.2-13.5c0.1-2.4-0.5-4.8,0.5-7.1l0.7-1.5l3.3,0.3l1.5,7.4l1.2-0.3l-0.1-0.1c-0.2,1.6,0.4,3.4-1.3,4.8l-2.2-10.7
	c-1.9,0.5-2,0.4-2.3,1.6c-0.2,0.8-0.3,1.7-0.4,2.6c-0.4,5.4-0.7,10.8-1.1,16.1c-0.1,1.2-0.2,2.5-0.3,3.9l3.4,0.2v-11.3
	C77.7,323.3,77.2,326.6,78.4,329.3L78.4,329.3z M65.6,321.9l0.6-0.1c0.2,3.3-0.3,6.8,1.5,10.1l2.8-0.7c0-2.1-0.1-3.9,0-5.7
	c0.2-5.2,0.5-10.5,0.7-15.7c0-0.9-0.1-1.9-0.3-2.8l-6.1,0.7c-0.2,1.2-0.3,2.2-0.5,3.1c-0.2,1.4-0.5,2.8-0.8,4.2
	c-1.1,3.8-2.4,7.6-3.6,11.3c-0.4,1.2-0.8,2.4-1.1,3.6c-0.1,0.5,0,1,0.3,1.5c1.3,1.1,4.8-0.2,5.1-2C64.7,326.9,65.1,324.4,65.6,321.9
	z"/>
<path class="st0" d="M60,312.2c-0.3,1.1-0.6,2.1-0.9,3.2c-0.2,1-0.8,1.9-1.8,2.4c-2.2,1.3-3.4,3.8-3,6.4c0.5,2.4,1.1,4.8,1.4,7.2
	c0.4,3.1-0.2,3.5-3.7,2.9l-2.5-7c-0.2,1.4-0.3,2.2-0.4,3.1s0.1,1.5,0.1,2.3c0.1,2-0.3,2.2-2.1,1.8c-1.2-0.2-2.5-0.3-3.7-0.3
	c-0.2-0.4-0.3-0.8-0.3-1.2c0.3-5.3,0.7-10.6,1-16c0.2-3.3,0.3-6.7,0.5-10.2h5.1c1.1,2.9,0.4,5.8,0.4,8.7c2.2-3,2.8-6.7,4.2-10
	c2.4,0.1,4.9-1.2,7.2,0.8C61.1,308.3,60.5,310.2,60,312.2c-0.6,0-1.2-0.4-1.6,0.5c-0.5,1.1-0.7,1.9-0.5,2.4L60,312.2z M55.5,332.8
	c-0.7-3-1.3-5.7-1.9-8.4c-0.3-0.9-0.3-1.9,0-2.8c1.5-3.7,3.3-7.4,5-11.1c0.1-0.1,0.2-0.2,0.3-0.4c0.6-1.2,1.2-2.3,2-4l-5.9,0.6
	c-1.4,4.3-2.4,8.7-5.5,12.2c-0.2-0.8-0.3-1.6-0.3-2.4c0.2-2.5,0.5-4.9,0.6-7.4c-0.1-0.6-0.3-1.2-0.5-1.7l-3.6,0.7l-1.6,24.6l4.1,0.4
	c0.2-2.6,0.3-5.1,0.5-7.6c0-0.6,0-1.3,0.9-1.4c1.2,3,1.5,6.3,3.4,9.2L55.5,332.8z"/>
<path class="st0" d="M10.7,335.1c-1-0.4-1.1-1.2-1.1-2.1c0.2-6,0.3-12.1,0.5-18.1c0.1-2.8,0.3-5.5,0.5-8.3c0-0.4-0.1-0.8-0.3-1.2
	c0.2-0.2,0.3-0.4,0.4-0.4c3.2,0,6.4-0.3,9.5,0.3c2.3,0.3,4.3,2.1,4.8,4.4c0.5,2.6,0.8,5.2,0.9,7.8c0,1.1-0.8,2.2-1.3,3.4
	c1.7,2.3,1.2,5.3,1.2,8c-0.1,3.3,0,6.5,0.3,9.8c0,0.5,0,1.1-0.1,1.6c-0.7,0.3-1.4,0.5-2.2,0.7c-0.9,0.1-1.8,0.2-2.7,0.1
	c2.3,3.1,4,6.5,5,10.2c-2.3-1.2-4-2.2-5.8-3c-2.4-1.1-4.9-2-7.3-2.9c-1.4-0.3-2.6-1.2-3.3-2.4l3-1C12.1,339.6,10.4,337.6,10.7,335.1
	l3.1,7.7l-2.4,0.7l13.3,5.8c-0.9-3.2-2.7-6.2-5-8.6l5.9-1.2l-1.5-4.7c0.3-0.8,0.5-1.6,0.7-2.5c0.1-1.1,0-2.2,0-3.3
	c0.1-2.7,0.5-5.4-0.9-7.9c-0.6-0.7-0.4-1.8,0.3-2.4c0.8-0.8,1.2-1.9,0.9-3c-0.2-1.6-0.2-3.2-0.5-4.8c-0.3-2.2-3-4.8-5.1-4.9
	c-2.6-0.2-5.2-0.2-7.8-0.3c-0.1,0.8-0.2,1.5-0.2,2.3c-0.3,5.5-0.6,11-0.8,16.5c0.3-0.9,0.5-1.8,0.6-2.7c0.9-4.6,0.6-9.2,0.2-13.8
	c0.2,0.3,0.6,0.6,0.6,1c0.4,2.7,0.5,5.5,0.5,8.3c-0.2,4.4-0.9,8.7-1.3,13C11,331.8,10.8,333.5,10.7,335.1z"/>
<path class="st0" d="M41.1,306c1.7,3.3,1.2,6.8,1.2,10.2c0,4.2-0.3,8.4-0.4,12.6c-0.1,1.4-0.2,2.9-0.3,4.2c-0.9,0.4-1.6,0.8-2.3,1.2
	c-0.1,0.1-0.4,0.1-0.4,0c-0.8-1.4-2.1-0.7-3.3-0.7s-2.4-0.2-3.5-0.2c-1,0-2,0-3.2,0l-1-4.9h7.7c0-2.3,0-4.3,0-6.2
	c-0.1-4.5-0.3-9-0.3-13.6c0-1.5,0.2-2.1,2-2.3C38.4,306,39.6,305.5,41.1,306z M41.1,332c0.1-7.3,0.3-14.2,0.4-21
	c0.1-1.5-0.2-2.9-0.9-4.2c-1,0.2-1.9,0.3-2.9,0.5c-1.9,0.4-2.1,0.7-2,2.5c0.1,2.2,0.3,4.5,0.4,6.7c0.1,3.4,0.1,6.9,0.2,10.3
	c0,2.2-0.3,2.5-2.6,2.6c-1.5,0.1-3.1,0-4.9,0l0.7,2.6H41.1z"/>
<path class="st0" d="M80.3,313.6c0-0.9-0.1-1.9-0.1-2.8c0-1.5,0-3,0-4.8c1.6-1.4,4-1.4,5.7,0c0.6,0.7,1,1.6,1,2.6
	c0.2,2.8,0.2,5.6,0,8.4c-0.3,4.4-0.9,8.9-1.3,13.3c-0.1,1.1,0,2.2,0,3.4l-6.6-0.6l-0.5-3.7h-0.1l1.3,2.4h4.8c0.4-3.7,0.8-7.2,1-10.7
	c0.3-3.9,0.4-7.7,0.5-11.6c0-1.1-0.4-1.7-1.5-2.4C83,306,82,307,81,306.9L80.3,313.6L80.3,313.6z"/>
<path class="st0" d="M84.6,348c-0.7,1.4-1.7,0.7-2.8,0.3l7.1-8.4c-1-0.1-1.9-0.2-2.7-0.4c-0.4-0.1-0.8-0.4-1.1-0.7
	c-0.4-1,1.1-3.3,2.4-3.7v-0.1l-0.9,3.4c0.8,0.2,1.6,0.3,2.4,0.5s1.3,0.5,2.1,0.8c-2.2,2.4-4.2,4.5-6.2,6.6c-0.5,0.5-1.1,1.1-0.2,1.7
	L84.6,348z"/>
<path class="st0" d="M33.6,337l2,1.1c-1,1.4-2.1,1.3-3.2,1.4s-2,0.1-3.2,0.2c1,1.5,2.3,1.1,3.6,1.3c-0.2,0.2-0.4,0.3-0.6,0.4
	c-0.2,0-0.5,0.1-0.7,0c-1.7-0.1-2.7-0.6-3-1.5s0.6-2.3,2-2.9C31.5,336.5,32.6,336,33.6,337c-1.6-0.1-3.1,0.7-3.9,2.1l4.7-0.8
	L33.6,337z"/>
<path class="st0" d="M55.9,345.9c1.1-0.4,1.9-1.5,1.8-2.7c0.1-0.6,0.3-1.2,0.7-1.7c1.2,2,0.5,4-0.3,5.7c-0.9,2.1-3.1,2-5.1,1.3
	l1.3-0.9c0.4,0.6,1.1,0.8,1.6,0.3c0.4-0.5,0.7-1,0.9-1.6L55.9,345.9z"/>
<path class="st0" d="M57.8,333.7c0.5,1.6-0.4,3.3,1.5,3.9c-2.7,0.4-1.3,3-3,4c0.2-0.9,0.3-1.7,0.3-2.6
	C56.7,336.4,56.7,336.2,57.8,333.7z"/>
<path class="st0" d="M45.4,338.5l-3.1,1.9l2.3,0.3c-1,0.8-2,0.9-2.6-0.1s0.1-1.8,0.9-2.4C43.8,337.3,44.5,337.4,45.4,338.5z"/>
<path class="st0" d="M50,349.3c-0.9-2.4,0-4.4,1.1-6.7c0.4,1.3-1,2.9,1.3,3.4c-1.5,0.2-2.6,1.6-2.4,3.1C50,349.2,50,349.2,50,349.3z
	"/>
<path class="st0" d="M76.1,340.9c-2,0.4-2.5,0.1-3.2-1.1c-0.6-1.1,0.1-1.7,0.8-2.2c0.7-0.5,1.3-0.9,2.1-1.2l0.3,0.5
	c-0.5,0.4-1,0.9-1.5,1.3c-1.2,1.2-1,1.8,0.7,2.3C75.5,340.6,75.8,340.7,76.1,340.9z"/>
<path class="st0" d="M50.8,337.8l-2,2.1c0.5,1.6,1.8,0.9,2.7,1.2c-0.8,0.9-1.3,1-2.4,0.2c-0.5-0.4-0.9-1-1-1.6
	C48.1,338.6,49.5,337.7,50.8,337.8z"/>
<path class="st0" d="M39.3,340.5l1-6.5c1.5,1.2,0.4,2.3,0.3,3.3s-0.5,2.2-0.7,3.2L39.3,340.5z"/>
<path class="st0" d="M62.6,340.7l0.6-3.6l1.6,0.2c0,0.3,0.1,0.4,0.1,0.5c-0.6,1.1-1.1,2.1-1.7,3.2L62.6,340.7z"/>
<path class="st0" d="M46.2,343.4c1.1,2.3-0.9,3.9,0.2,6C44.8,348.5,44.8,347.4,46.2,343.4z"/>
<path class="st0" d="M67,340.9c-0.3-1.4-0.1-2.8,0.7-3.9C68.3,338.5,68.3,338.5,67,340.9z"/>
<path class="st0" d="M61.3,350.1c-1.1-0.6-0.8-1.8-1.2-2.8C61.5,348,61.5,348,61.3,350.1z"/>
<path class="st0" d="M65.3,318.1l-0.7-0.1c0.3-0.8,0.7-1.6,1.2-2.3c1.1-1.2,1.8-2.8,1.7-4.5c1,1.1,1,6,0.2,8.8l-2.2-0.5
	C65.4,318.9,65.3,318.4,65.3,318.1l1.6,1.1c0.5-1.2,0.6-2.6,0.3-3.9L65.3,318.1z"/>
<path class="st0" d="M20,323.5c0.5,2.7,0,5.1,0.1,7.8l-3.3-0.5v-7.1L20,323.5z M17.6,324.7v5.5l1.6-0.1l0.4-5.5L17.6,324.7z"/>
<path class="st0" d="M16.7,310.6l3.4,0.2v6.9l-0.5,0.1c-0.2-0.3-0.7-0.8-0.7-0.8c1.4-1.4,0.5-3.2,0.9-5l-2.3-0.4l0.4,4.8l-0.6,0.1
	L16.7,310.6z"/>
<path class="st0" d="M74.2,155.9c1.6,0.7,3.2-0.3,4.7,1.2H75c0,1.1-0.1,2,0,2.9c0.2,1.9,0.9,3.9-0.1,5.8c0,0.2,0,0.4,0.1,0.6
	c1.2,0.2,0.7,1.1,0.6,1.7c0,3.7-0.2,7.5-0.3,11.2c0,0.7,0,1.4,0,2.4l4.4,0.7l-1.2-16.1c1.3,0.5,1.3,1.3,1.5,2
	c0.9,2.8,1.7,5.6,2.5,8.4c0.3,1.3,0.8,2.6,1.2,3.9c0.3,0.5,0.8,1,1.3,1.1c1.4,0.3,2.8,0.3,4.3,0.5c0.2-2.1,0.3-4.2,0.5-6.2
	c0.5-5.6,1.1-11.1,1.6-16.7c0.2-2.6-0.5-3.2-3.5-2.6c0,3,0.1,6.1-0.1,9.2s0.2,6.1-0.7,9l-0.7,0.1c-0.4-1.5-0.8-3.1-1.3-4.6
	c-1-3.7-2.1-7.5-3.2-11.2c-0.3-1.1-0.7-2.2-2.3-2.2c2-0.8,2.6-0.6,3.1,1.1c1.2,3.8,2.2,7.6,3.3,11.3c0.1,0.2,0.2,0.4,0.7,0.6
	l0.2-14.5c1.3,0,2.6,0.1,3.9,0.3c1,0.2,1.4,1,1.4,2c0,1.4,0.1,2.9-0.1,4.3c-0.5,5.6-1.1,11.2-1.6,16.9c-0.1,1.2-0.1,2.4-0.1,3.6
	c-0.1,0.5-0.2,0.9-0.4,1.4c-2-0.3-3.9-0.5-5.7-0.9c-0.7-0.2-1.2-0.7-1.6-1.3c-0.6-1.3-1-2.6-1.4-4c-0.3-1.1-0.8-2.2-1.4-3.2l0.4,8.7
	c-2.4,1-4.4-0.1-6.7-0.5c0.2-1.2,0.3-2.3,0.4-3.5c-0.1-4,0.7-7.9-0.3-11.9c-0.5-2.2-0.1-4.6-0.1-6.9C74,158.9,74.1,157.6,74.2,155.9
	z"/>
<path class="st0" d="M21.6,157.5l7.1-0.8c0.2,0.8,0.3,1.7,0.4,2.6c0.5,7.6,0.4,15.2-0.3,22.7c-0.1,1.2-0.3,2.4-0.6,3.6
	c-0.1,0.4-0.2,0.8-0.5,1.1c-1.8,2-3.5,4.1-5.1,5.8c-4.7,0.2-9,0-13.3,1.5c-1.4,0.5-3.1,0.4-5,0.6c0-0.7,0-1.4,0-2.1
	c0.1-1,0.2-2.1,0.2-3.1c0.1-1.9,0.2-2,2-2.2c2.9-0.2,5.9-0.5,8.8-0.6c2,0,3.9-1,4.9-2.7c0.5-0.8,0.8-1.7,0.9-2.6
	c0.1-6.2,0.1-12.4,0.2-18.6C21.6,160.8,21.6,159,21.6,157.5z M25.8,159.6L25.8,159.6c-0.3-0.8,0.5-1.2,1.4-1.9l-5.1,0.7
	c0.1,2.2,0.3,4.3,0.3,6.4c0,5.9-0.1,11.8-0.1,17.7c0.1,1-0.4,1.9-1.2,2.5c-0.5,0.3-1,0.8-1.4,1.3c-0.6,0.8-1.6,1.3-2.7,1.2
	c-3.8,0.2-7.5,0.6-11.4,0.9v4.8l6.7-1.7l0.3-1.5l2.9,0.5l-1.7,1.1c1,0,1.6,0.1,2.1,0.1c1.7-0.1,3.3-0.2,5-0.1c0.9,0.1,1.7-0.3,2.2-1
	c0.5-0.6,1-1.3,1.6-1.8c2.1-1.9,3.2-4.6,3.1-7.4c-0.1-1.2-0.4-2.6-0.1-3.7c0.7-3,1-6.1,0.6-9.1c-0.1-1.9-0.1-3.8-0.1-5.7
	c0-1.5,0-3,0-4.6L25.8,159.6z"/>
<path class="st0" d="M65.3,173l-4.5,0.6v8.9c-4.2,1.9-5.6,2.1-6.9,1.3l5.9-2c0.4-2.9,0-5.9-0.3-9l6.7-0.8c1,3.3,0.1,6.4,0.5,9.6h4.5
	c0.1-0.7,0.2-1.3,0.3-2c0-3,0-5.9-0.1-8.9c-0.1-2.5-0.3-4.9-0.3-7.4c0.1-1.1-0.4-2.2-1.3-2.9c-0.8-0.7-1.5-1.4-2.1-2.3
	c-0.5-0.7-1.4-1.1-2.3-0.9l-5.6,0.6c-1.5,1.7-3.1,3.5-4.7,5.3c-0.6,0.6-1,1.4-1,2.3c0,2.8-0.2,5.5-0.6,8.3c-0.1-0.2-0.3-0.5-0.3-0.7
	c0-2.2,0.2-4.5,0.2-6.7c-0.1-2.3,0.8-4.6,2.5-6.2c0.6-0.6,1.2-1.2,1.8-1.9c0.8-0.9,1.8-1,2.8-1.3c2.2-0.7,4.5,0.5,6.7-0.7
	c1.6,1.6,3.1,3.2,4.6,4.8c0.3,0.4,0.5,1,0.5,1.5c0.1,5,0.2,10,0.3,15.1c0,1.3-0.1,2.6-0.1,3.8s-0.6,1.7-1.8,1.7h-5.1
	C65.2,179.9,66.3,176.5,65.3,173z"/>
<path class="st0" d="M4.2,185.8l1.4-29.1c3.5-1.6,7.2-0.1,10.5-0.9c3.6,4.9,3.3,10.1,2,15.9c1.1,0.7,1,2,0.8,3.6
	c-0.2,1.9-0.3,3.8-0.1,5.7c0.2,1.7-0.6,3.4-1.9,4.4c-0.4,0.4-0.9,0.6-1.4,0.7C11.9,185.9,8.2,185.9,4.2,185.8z M5.1,184.8
	c3.4,0,6.3,0,9.2,0c2.5,0,4.3-1.8,3.6-4.3c-0.4-1.4-0.4-2.8-0.1-4.2c0.4-2,0.7-3.7-0.9-4.9c0.5-1,0.9-2,1.1-3
	c0.2-2.1,0.2-4.3,0.1-6.4c-0.1-1.9-1.5-3.2-2.4-4.7c-0.1-0.2-0.6-0.2-0.9-0.2c-1.6-0.1-3.1-0.1-4.7-0.1c-1.1,0-2.2,0.1-3.2,0.2
	c-0.2,1.8-0.4,3.2-0.6,4.7c-0.1,0.9,0.3,1.4,1.3,1.2c-0.8,1.3-1.4,2.3-1,4c0.4,1.4-0.4,3-0.6,4.6c-0.2,2.3-0.4,4.6-0.6,6.9
	c0,0.3,0,0.8,0.1,0.8c0.8,0.4,0.4,0.9,0.3,1.4C5.7,181.9,5.4,183.1,5.1,184.8L5.1,184.8z"/>
<path class="st0" d="M47.3,156.6l-1.8,4l2.6,1.1c-1.8,3.9-4.7,7.2-8.5,9.4c-0.6-1-0.6-1,1.4-6.1c-0.7-0.2-1.3-0.4-1.9-0.6
	c-1.5-0.4-1.8-0.7-1.6-2.1s0.3-2.8,0.5-4.4l0.6,0.5l0.8-1.5l0.3,0.1l-0.4,5.5h3.5l0.7,2.1l1-2c-0.4-0.6-1.1-1.1-1.2-1.6
	c0.1-0.7,0.3-1.3,0.7-1.9c0.5-0.9,1-1.8,1.6-2.7c3.4-0.9,6.9-0.8,10.2,0.2L47.3,156.6z M43.4,165.7c-1.6,0.4-1.8,0.7-1.3,1.2
	L43.4,165.7z"/>
<path class="st0" d="M100,167.2l-0.2,3l3.9,0.4c-0.2,1.6-0.3,3-0.6,4.5s-1.6,1-2.5,1.2l-1.3,3.2c1.2,0,2.1,0,3,0
	c1.8,0,2.3,0.5,2.3,2.3c0,1.3,0,2.7,0,4c-1.9,0.8-3.5-0.4-5.3-0.5c-0.6,1.5-1.2,3.2-1.9,4.7c-0.4,1.1-1.2,2.1-2.2,2.7
	c-1.2,0.7-1.7,0.3-2.1-1c1.4,0.6,2.5-0.2,2.6-1.1c0.2-1.7,1.6-2.5,1.9-4c0.1-0.4,0.2-0.7,0.4-1.3c-1.6-0.2-3,1.2-4.4,0.1
	c3.3-1.6,6.6-1.5,10.3-0.6l-0.4-4.8l-5.4,0.7l0.5-6h3.5l0.6-3.4l-2.4,0.1c-1.2,0.1-1.7-0.3-1.5-1.5C99,169.1,98.5,167.8,100,167.2z"
	/>
<path class="st0" d="M32.2,184.5l6.3-0.2v-10c2,1.4,2.4,3.4,3.4,5s1.8,3.5,2.8,5.5l6-0.4c-0.9-2.1-2.4-3.6-2-5.7l-0.1,0.1L52,185
	c-2.8,1.1-5.5,0.3-8,0.7l-4.2-8.5l-0.5,0.1c0,1.5,0,3.1,0,4.6c0,3.1-0.3,3.4-3.3,3.5c-0.7,0-1.4,0.1-2.1,0.2c-1,0.2-1.5-0.3-1.6-1.3
	L32.2,184.5z"/>
<path class="st0" d="M32.3,184.4l-1.1,0.6c-0.5-4.8,0.7-9.4,0.4-14.1s-0.5-9.2-0.7-13.8c2.4-1.6,5-1,7.6-1.1c-1.7,1.7-4,0.3-6.2,1.5
	c0,1.1,0,2.3,0,3.6c0.1,5.7,0.3,11.5,0.3,17.2C32.5,180.4,32.3,182.5,32.3,184.4L32.3,184.4z"/>
<path class="st0" d="M99.8,157.4l-4,0.7c0.1,4.5,0.3,8.9,0.2,13.3c-0.2,4.5-1,8.9-2.2,13.2c-1.1-1.3-0.6-2.2-0.5-2.9
	c0.6-3.9,1.3-7.9,1.7-11.8c0.1-2.4,0-4.8-0.2-7.1c-0.1-1.9-0.2-3.8-0.3-5.7c1.2-0.1,2.4-0.2,3.7-0.1C98.6,157,99.2,157.1,99.8,157.4
	L99.8,157.4z"/>
<path class="st0" d="M99.7,157.4c2.6-1,5.5-1.3,8.2-0.9c0.8,0.1,1,0.7,1,1.4c-0.1,2-0.3,4.1-0.4,6.1c-2.7,1.1-5.1-0.2-7.6,0l-1,3.2
	c-0.8-1.7-0.2-2.9,0.2-4.3c1.2,0.1,2.4,0.2,3.6,0.2s2.3,0,3.6,0c0.7-1.8,0.3-3.4,0.5-5.4c-2.1,0-4.1,0-6.1,0
	c-0.6-0.1-1.2-0.2-1.8-0.3L99.7,157.4z"/>
<path class="st0" d="M69.3,189.6c1.2-0.6,1.8-2.2,3.6-2c-1,1.4-3,1.9-3,4l1.5-0.1l-2.2,1.1L69,191l-1.2,1l0.5-3.4
	c-2.4-0.4-2.5-0.3-3.5,1.5c-0.3,0.6-0.4,1.6-1.5,1.6c1.2-4.1,1.5-4.3,5.2-4.2L69.3,189.6z"/>
<path class="st0" d="M66,161c0.2,1.9,0.4,3.6,0.6,5.2c0.2,2.5,0.1,2.5-2.6,2.9c1.7-0.7,2-1.9,1.7-3.5c-0.2-1.2-0.4-2.3-0.6-3.7h-3.4
	l-0.3,3c-1.2-1-0.7-2.1-0.5-3.2c0.1-0.3,0.3-0.5,0.6-0.6C62.9,160.8,64.5,160.7,66,161z"/>
<path class="st0" d="M52.1,163.4c-0.6,0.6-1.3,1.1-1.8,1.8c-1.7,1.9-3.3,3.8-5,5.7c-0.8,0.8-0.8,2.4-2.6,2.2c0.1-0.4,0.2-0.7,0.4-1
	c2.4-2.6,4.8-5.3,7.1-7.9C50.7,163.5,51.2,162.8,52.1,163.4L52.1,163.4z"/>
<path class="st0" d="M43.2,194c-0.6-1-1.9-1.7-1.2-3c0.9-1.6,2.6-2.6,4.5-2.4c-1.8,0.5-3.3,1.7-4.2,3.3l2.7,1L43.2,194z"/>
<path class="st0" d="M30,189.2l-0.7,0.1c1.8-1.6,2.8-1.6,4.6-0.1C31.9,190.6,31.5,190.6,30,189.2l3.1,0
	C31.4,188.4,31.4,188.4,30,189.2z"/>
<path class="st0" d="M52.5,192.3c-0.7,0.6-1.5,1.3-2.3,0.6c-0.6-0.5-0.9-1.2-1-1.9c0-0.5,0.9-1,1.7-1.8l-1,2.2L52.5,192.3z"/>
<path class="st0" d="M92.2,189.9c-1.3-0.1-2.8,1.3-3.8-0.2l2-1.9C90.2,188.9,90.8,189.6,92.2,189.9z"/>
<path class="st0" d="M60.9,188.4l-1.3,1.9l-2.5-1.5L60.9,188.4z"/>
<path class="st0" d="M37.5,193l1.3-4.3l0.5,0.2l-1.2,4.3L37.5,193z"/>
<path class="st0" d="M28.9,191.9H32C30.5,193.1,30.3,193.1,28.9,191.9z"/>
<path class="st0" d="M48.7,178.6c-0.1,0.1-0.3,0.2-0.4,0.2c-1.4-0.6-2.1-2.1-1.5-3.5c0,0,0-0.1,0.1-0.1l0,0
	C47.4,176.3,48,177.5,48.7,178.6L48.7,178.6z"/>
<path class="st0" d="M61,168.8l-0.3-2.8h0.6v2.8L61,168.8z"/>
<path class="st0" d="M52.2,163.4c-0.7-1.2,0.3-1.8,1.2-2.4C52.9,161.8,52.5,162.6,52.2,163.4L52.2,163.4z"/>
<path class="st0" d="M54.1,176.7v2.2h-0.3l-0.2-2.2H54.1z"/>
<path class="st0" d="M46.8,175.2c-1.3,0.8-1.5,0-1.9-1.5C45.8,174.4,46.3,174.8,46.8,175.2L46.8,175.2z"/>
<path class="st0" d="M39.2,187.8l0.7-1.6l0.4,0.1l-0.6,1.6L39.2,187.8z"/>
<path class="st0" d="M84.5,186.9l-0.3,1.8l-0.4-0.1l0.3-1.8L84.5,186.9z"/>
<path class="st0" d="M25.8,159.6l-0.4,4.2c-0.8-0.9-1.3-1.3-0.7-1.9s0.2-1.3,0.1-2l1-0.2L25.8,159.6z"/>
<path class="st0" d="M20,189.7l2-1.5l0.3,0.3l-1.8,1.7L20,189.7z"/>
<path class="st0" d="M10.6,174l2.4-0.6c0.6,2.7,0.5,5.4-0.4,8c-0.2,0.9-1.1,1.5-2,1.3c0,0,0,0,0,0c-1-0.2-1.2-1.2-1-2.1
	C9.9,178.4,10.3,176.3,10.6,174z M10.8,181.6c2.2-1.5,1.4-3.8,1.9-6.1C10,177.1,10.8,179.5,10.8,181.6L10.8,181.6z"/>
<path class="st0" d="M11.9,169.3c-1.5-1.2-2.1-3.2-1.6-5.1c0.1-1.2,0.1-2.4,0-3.6l3.4,0.7c-0.2,2.3-0.3,4.4-0.6,6.4
	C13.1,168.2,12.4,168.7,11.9,169.3z M11.9,161.4l-0.7,0.3v5.8c0.5-0.3,1.1-0.4,1.1-0.7c0.3-1.4,0.5-2.8,0.6-4.2
	C12.9,162.2,12.2,161.8,11.9,161.4L11.9,161.4z"/>
<path class="st0" d="M89.8,112.3c-0.9,1.4-2.2,0.7-3.3,0.4l-5.8-1.1l-2.3-3.2l-3-4.1l-0.6,6.8c-1.2,0.2-2.5,0.4-3.7,0.5
	c-1.9,0.1-3.9,0.1-5.8,0c-2-0.2-2.4-0.8-2.3-2.8c0.1-2.8,0.3-5.6,0.4-8.5c0-0.3,0-0.6-0.1-0.9l-2.6-0.4c-0.8,4-1,8.1-0.8,12.2
	c-1.6,0-3.2,0.1-4.8,0.3c-2.5,0.4-4.9-0.4-7.3,0c-1.6,0.2-2.1-0.8-2.6-1.9c-0.7-1.7-1.3-3.3-2-5c-0.1-0.4-0.5-0.7-0.9-0.9l-0.6,7.5
	c-2.6,0.6-5.2-0.1-7.9,0.4c-0.2,0.9-1,1.4-2,2.1c-1.3,0.8-2.1,2.5-2.9,3.9c-0.5,1-1.6,1.6-2.7,1.6c-3.4,0.2-6.7,0.5-10.1,0.7
	c-0.2,0-0.5,0.1-0.7,0.1c-2.8-0.1-3.2-0.7-2.9-3.5c0.1-0.8,0.1-1.7,0-2.6c-0.7-5.9-0.1-11.7,0.1-17.6c0.1-4.1-0.1-8.2-0.1-12.2
	c0-0.3,0-0.6,0-1.1c0.4-0.1,0.8-0.2,1.2-0.1c2.3,0.6,4.5,0,6.7-0.3c3.5-0.5,4-0.4,5.9,2.6l1.1,1.7c0.1-0.9,0.2-1.5,0.2-2.1
	s0.1-1.2,0.1-1.9H44l-1,8l0.4,0.2c0.8-1.1,1.7-2.2,2.5-3.4s1.7-2.5,2.5-3.6c0.3-0.4,0.7-0.7,1.1-0.8c2.8-0.3,5.5-0.7,8.3-0.8
	c1.1,0,2.2,0.7,3.3,0.7c2.2,0,4.4-0.2,6.5-0.3c0.4,0,0.8,0,0.8,0l1.4,3l0.4-0.1v-2.5l6.1,0.4l2.8,17h0.2l1.2-17.3
	c4-1.2,8-0.2,12.1-0.4c-0.4,1.7-1.5,1-2.3,1c-1,0-1.9-0.1-2.8-0.3c-0.1,0.5-0.2,1-0.2,1.6c0.4,8.7,0.7,17.3,0.3,26
	c0,0.3,0.2,0.6,0.4,0.9C88.7,112.6,89.4,111.1,89.8,112.3L89.8,112.3z M40.2,91.9h-5.1l-2.2,4.6l2.8,0.4l-2.6,4.7
	c2.6-1.1,4.9-2.7,6.8-4.8l-2-0.4C38.2,94.4,39.3,93.2,40.2,91.9l-1.3,3.7l2.7,0.7c-1.9,1.7-3.8,3.3-5.5,5c-0.6,0.5-1.1,1.1-1.4,1.8
	c-0.5,2.5-0.7,5.1-0.5,7.7h6.5l1.1-9.1c1.3,0.5,1.4,0.5,1.7,1.3c0.8,1.4,1.4,3,1.9,4.5c0.6,3.3,2.8,3.4,5.4,3.1
	c0.2-0.1,0.4-0.1,0.6-0.2c-1.4-5.2-3.1-10.2-5.3-15.1l9.7-11c-1.6-0.2-2.8-0.4-3.9-0.5c-1.2-0.2-2.4,0.3-3,1.3
	c-1.2,1.8-2.6,3.5-4,5.3c-0.6,0.8-1.2,1.7-2.4,1.7c-0.8-2.9,0.9-5.6,0.6-8.4c-2.6-0.1-5.2-0.7-7.7,0.2l-0.6,7c0.9,0,1.8,0.1,2.6,0.2
	C38.3,91.3,39.3,91.6,40.2,91.9z M71.8,84.4l-1.6,26.2h3.6c0.2-1.9,0.2-3.7,0.5-5.5s-0.3-3.4,0.4-5c1.1,1.4,2,2.7,3,3.9
	s2.3,2.4,3.3,3.7c0.7,1,1.4,2.1,2,3.2l3.9,0.4c0-2.7,0-5,0-7.3c-0.1-5.6-0.2-11.1-0.2-16.7c0-3.6-0.5-4.1-4.1-3.2
	c-0.3,0.1-0.7,0.2-1,0.3c-0.3,5.2-0.6,10.3-1,15.4c-0.1,1.4-0.1,2.9-1.7,4.2c-1.3-6.6-1.6-13.1-3.1-19.3L71.8,84.4z M67.9,84.1H57.5
	c-0.6,0.8-1.1,1.7-1.5,2.7c-0.5,2.6-0.8,5.3-1.1,7.9c-0.6,4.2-1.1,8.4-1.7,12.6c-0.1,1.1-0.2,2.1-0.3,3.4l5.9-0.4
	c0.1-0.8,0.2-1.3,0.2-1.8c0.1-2.3,0.1-4.6,0.4-6.8c0.5-3.8,0.5-3.8,4.4-3.2c0.1,0,0.3,0.2,0.6,0.4c0,3.8-1,7.6-0.4,11.5l5.1,0.4
	c0.4-7.3,0.8-14.4,1.2-21.5c0-0.8-0.1-1.5-0.4-2.2C69.2,86,68.6,85,67.9,84.1z M24.9,98.8c1.6-0.8,2.5-2.5,2.1-4.3
	c-0.1-1-0.1-2,0.1-3c0.5-2.7-0.7-4.6-2.2-6.6c-0.5-0.8-1.4-1.2-2.4-1.1c-2.9,0.3-5.9,0.5-8.8,0.8v26.6c2.6,0,5.3,0.3,7.8-0.1
	c2.3-0.4,3.7-2.5,4.6-4.5c0.6-1.2,0.4-2.8,0.7-4.2c0.3-0.8-0.1-1.8-0.8-2.3C25.5,99.7,25.2,99.3,24.9,98.8L24.9,98.8z M13.3,118.6
	c0.2,0.1,0.5,0.2,0.7,0.3c1.6,0,3.1,0,4.7-0.1c2.6-0.1,5.2-0.3,7.8-0.5c0.4,0,0.9,0,1.1-0.3c1.8-2.3,4.1-4.5,5.2-7.1
	c1-2.2,0.7-5,0.9-7.6l-3,1.2c0.5-2.8,2.5-4.5,3.4-7l-3,0.4c0.1-0.6,0.2-1.2,0.4-1.7c0.7-1.4,1.8-2.7,2.1-4.2
	c0.4-2.7,0.6-5.5,0.7-8.2c-0.8,0-1.4-0.1-1.9-0.1s-1.1-0.2-1.6-0.2c-1.7-0.1-2.1,0.2-2.1,1.9c-0.2,7.3-0.5,14.6-0.7,21.8
	c0,0.7-0.1,1.3-0.2,2.2c-1-0.5-1.7-0.6-2.3,0.2c-0.4,0.4-0.7,0.8-1,1.3c-0.4,0.9-0.9,1.2-2,1.1c-2.8-0.1-5.6,0-8.4,0
	c-0.3,0-0.5,0.1-0.8,0.2L13.3,118.6z M55,87.4l-0.4-0.1c-2.2,2.4-4.3,4.9-6.5,7.3c-0.7,0.6-0.8,1.6-0.3,2.3c1,2.4,1.9,4.9,2.9,7.4
	c0.5,1.1,1,2.2,1.7,3.8L55,87.4z"/>
<path class="st0" d="M89.8,112.3L89.8,112.3c2.7-0.9,5.4-0.3,8.2-0.3c0.9-1.7,1.2-3.7,0.8-5.6h-6.7c-0.3-2.2-0.4-4.4-0.2-6.7
	l6.3-0.3l0.2-3.9l-5.9,0.6c-1-1.9-1.4-4-1.2-6.1l7.6-0.6l1-4.6L93.5,84c2.3-0.8,4.8-0.9,7.2-0.3l-0.7,6.5l-7.7,0.9l0.6,3.4
	c2.4,0.6,4.7-0.9,6.9,0.4l-0.7,5.5l-6.2,0.5v4.2h6.8c0.5,2.8-0.2,5.3-0.7,7.8l-2.9,0.2l0.1-0.1c-1.4,0-2.9-0.1-4.4,0.1
	C91,113.2,90.3,112.9,89.8,112.3z"/>
<path class="st0" d="M33.5,117.4c1.2,1.5,2.3,0,3.3,0.5c-0.7,0.9-1.9,1.3-2.9,0.9c-1.2-0.6-0.7-1.7-0.7-2.5c0.7-0.5,1.5-0.9,2.3-1.3
	c0.4-0.2,1-0.3,1.4-0.1c0.4,0.3,0.6,0.8,0.5,1.3c-0.1,0.4-0.7,0.8-1.2,0.9s-0.9-0.1-1.3-0.1C34.3,117.1,33.9,117.2,33.5,117.4z"/>
<path class="st0" d="M96.1,113.1c1.1,2.3,0.1,5.3-2,6.1c-0.1,0-0.3-0.1-0.3-0.2s0.1-0.2,0.2-0.3l1-2c-1.6,0.2-1.1,1.2-1.1,2
	c-0.3-0.4-1-0.9-0.9-1.1c0.3-0.7,0.8-1.7,1.3-1.8C96,115.5,95.8,114.2,96.1,113.1L96.1,113.1z"/>
<path class="st0" d="M46.5,117.8l1.8,0.9c-0.6,0.5-1.2,1-1.9,0.1s-0.6-2.5,0.1-3c0.6-0.5,1.3-0.7,2.1-0.8c0.4,0,1,0.7,1.1,1.2
	c0.3,0.8-0.5,1.1-1.1,1.1c-0.6,0-1.3,0-1.9-0.2L46.5,117.8z M49.1,116.1v-0.5l-1.2,0.2v0.3H49.1z"/>
<path class="st0" d="M61.3,112.2c0.5,1.4-0.6,2.8,1.3,3.5c-1.9,0.4-1.2,1.9-2.1,2.9l-0.1-2l-1.7-0.3l-0.1-0.4l1.8-0.7L61.3,112.2z"
	/>
<path class="st0" d="M88.8,116.1c1.8,0.2,0.9-2.1,2.4-2.6c0.1,1.1-0.7,2.2,0.5,3l-1.3,2.1L88.8,116.1z"/>
<path class="st0" d="M55.4,115.3l-2.1,2.3l2,1c-0.3,0.2-0.6,0.3-0.9,0.4c-1.1,0-1.4-0.9-1.5-1.7S54,115.4,55.4,115.3z"/>
<path class="st0" d="M76.8,118.3c-1.6,0.3-2-0.5-2-1.6s0.8-1.9,2.4-1.9l-2.1,2.1L76.8,118.3z"/>
<path class="st0" d="M65.6,118.4c-1-3-0.6-3.5,2.1-3.5C65.9,116.2,65.9,116.2,65.6,118.4z"/>
<path class="st0" d="M86.2,117.9l0.6-4.4c0.4,1.5,0.4,3-0.1,4.5L86.2,117.9z"/>
<path class="st0" d="M42.4,115.7l-0.7,2.8C41.4,116.6,41.4,116.6,42.4,115.7L42.4,115.7z"/>
<path class="st0" d="M99,118.6l-0.3-1.2c0.1,0,0.3-0.1,0.4-0.1c0.1,0.4,0.2,0.8,0.3,1.2L99,118.6z"/>
<path class="st0" d="M42.4,115.7l-0.2-2.2h0.4C42.6,114.2,42.5,114.9,42.4,115.7L42.4,115.7z"/>
<path class="st0" d="M60.2,86.5c1.2-1,2.4-0.4,3.4,0c0.5,0.3,0.8,0.8,0.8,1.3c0.1,1.8,0.2,3.6,0.1,5.4c0,0.6-0.4,1.6-0.8,1.7
	c-1,0.2-2.1,0.2-3.2,0.1c-0.2,0-0.4-0.7-0.4-1C60.2,91.4,60.2,88.9,60.2,86.5z M63.5,94.1c0-1.8,0-3.4,0-5c0-1.9-0.1-1.9-2.3-1.8
	v6.9L63.5,94.1z"/>
<path class="st0" d="M22.3,108.6c-0.8,0.2-1.5,0.3-2.2,0.4c-1.6,0.4-2.1,0-2.1-1.7c0-2,0-4,0-6.3l4.7-0.9
	C23.4,103.3,21.9,105.9,22.3,108.6z M19.3,101.9v6.4c0.9-0.6,1.8-0.8,1.9-1.2c0.4-1.8,0.5-3.6,0.7-5.6L19.3,101.9z"/>
<path class="st0" d="M22.9,96.7c-1,0-1.5,0-2,0c-1.6,0-2.1-0.8-2-2.3c0.1-2.2,0-4.3,0-6.7c0.4-0.2,0.8-0.3,1.3-0.4
	c1.5-0.3,2,0,2.2,1.6C22.6,91.3,22.7,93.9,22.9,96.7z M21.8,95.6c-0.1-2.7,0.2-5.1-0.6-7.6l-1.6,0.6l0.3,6.9L21.8,95.6z"/>
<path class="st0" d="M277.7,15l2.1,1.3c1.2,2.4,0.6,3.6-2.8,4.9c1.1,1.8,0,3.2-1,4.5c-0.4,0.5-1.1,0.9-1.8,0.9
	c-1.2-0.1-2.3-0.4-3.4-1c-1.5-0.9-1.6-2.4-0.5-3.8c1.4-1.8,2.8-3.7,4.3-5.4c0.8-0.8,1.8-1.4,2.8-2L277.7,15z M270.9,23.3
	c1.2,0.9,1.9,2.7,3.5,2.1c2.1-0.7,1-2.6,1.2-4l-2.4-1.3L270.9,23.3z M275,19l2.9,0.6l0.3-0.5l-1.5-3L275,19z"/>
<path class="st0" d="M319.8,20.4c2.2,0.7,2.1,3.4,4,3.9c0.9-1.6-1.4-3.6,0.9-5.5c0.7,2.8,1.4,5.2,2,7.8c0.1,0.6-0.3,1.3-0.6,2.4
	l-3.2-3.7V30c-1.3-0.4-1.5-1.3-1.7-2.4C320.8,25.4,320.3,23.1,319.8,20.4z"/>
<path class="st0" d="M307.4,20.7c0.9,2.1-0.5,3-1.4,4s-2.1,1.9-3.2,2.8l3.6,5.4l-0.4,0.4c-0.6-0.5-1.2-1-1.7-1.5
	c-0.5-0.6-0.4-1.6-1.5-1.7l-1.4,2.9l-0.4-0.1l1-12.3l0.5-0.1c0.4,0.7,1.1,1.5,0.9,2.2s-1,1.4-0.2,2.4L307.4,20.7z"/>
<path class="st0" d="M331.5,20.6h3.2l-2.4,1.9c0.1,0.8,0.4,1.2,1.2,0.7c1.2-0.8,2.7-1.2,4.2-1.2c-1.8,1.8-4,2.3-5.9,3.8
	c-0.4-0.5-0.8-1-1.1-1.5c-0.7-1.6-1.2-3.3-1.8-4.9c-0.1-0.5,0-0.9,0.2-1.3c1.4-2,3.5-2.7,6.6-2.1c-1.4,0.8-2.4,1.4-3.4,2
	C331.1,18.8,331.1,18.8,331.5,20.6z"/>
<path class="st0" d="M315.1,28.7c-1,0.3-2.2,0.4-2.9,1s-1.1,1.8-1.6,2.9c-1.1-1-0.6-1.9-0.3-2.6c0.8-1.7,1.7-3.3,2.5-5.1
	c0.3-0.8,0.5-1.7,0.7-2.5c0.2-0.8,0.5-1.6,0.8-2.8c0.5,0.6,1,0.9,1.1,1.3c0.6,3.6,1.1,7.2,1.6,10.9c0,0.1-0.1,0.2-0.5,0.7
	L315.1,28.7z M314.7,24l-0.5-0.1l-1.5,4l2.2-0.7L314.7,24z"/>
<path class="st0" d="M283.9,30.6c-2-1.8-2.2-3.7-0.4-4.8c0,0.9,0.1,1.8,0.1,2.7c0,0,0.1,0.1,0.2,0.1c2.5-0.9,4-4.1,3.8-7.9
	c-1-0.7-2.6-0.1-3.4-1.9c2.8-0.2,5.6,0.4,8,1.7c-1,1.2-2.1,0.3-3.1,0.4C288.4,24.8,287.8,28.6,283.9,30.6z"/>
<path class="st0" d="M338.8,39.2v-7.5l-2.3,1.7c-2.1-3-1.1-5.3,2.9-6.4c0.3,0.6,0.6,1.2,0.7,1.9c-0.2,3.3-0.5,6.6-0.8,10
	C339.3,38.9,339.2,39,338.8,39.2z M336.8,32.4c1-0.9,1.4-2.3,1-3.5C337,29.7,336,30.5,336.8,32.4z"/>
<path class="st0" d="M315.8,52.4l1,2.4c-1.5-0.2-2-1.3-2.8-2.1l-1.7,1.3c0.5-1.9,1.4-3.8,2.7-5.3c0.6-0.5,1.3-0.8,2-1
	c0.8-0.3,1.6,0.2,1.9,1c0,0,0,0,0,0c0.4,1,0,2.1-0.9,2.7c-0.4,0.2-0.8,0.2-1.1,0.4S316.3,52.2,315.8,52.4z M318.1,48.7
	c-2.1,0.3-2.1,0.3-2.5,2.1C318.2,50.5,318.2,50.5,318.1,48.7L318.1,48.7z"/>
<path class="st0" d="M270.5,63.8c-0.9-1-1.6-1.9-2.4-2.8s-1.3-1.8-2-2.8c1.4-1.4,3.1-2.5,4.9-3.2l0.4,0.5l-2.8,2.1
	c-0.6,0.5-1,1-0.2,1.8l3.2-0.8l-2.3,2.5c0.5,1.1,1.3,1.2,2.3,0.6c0.8-0.5,1.4-1.2,3-0.8L270.5,63.8z"/>
<path class="st0" d="M336.2,47.8c1.9,1.1,3.3,1,3.7,0.2s-0.4-1.6-2.1-2.3l1.7-3.5l-3.3-0.6c1.6-0.9,3.5-1,5.1-0.2l-1.7,2.7
	c1.9,2.4,2.1,3.9,0.6,5C338.9,50,337.4,49.7,336.2,47.8z"/>
<path class="st0" d="M267.4,38.2l-0.6,10h-0.7l0.2-4.5c-0.5,0.4-0.9,0.7-1.4,0.9c-0.7,0.5-1.6,0.4-2.1-0.3c-0.1-0.1-0.2-0.3-0.2-0.4
	c-0.7-1.7,1.3-5.5,3.1-5.8C266.3,38,266.8,38,267.4,38.2z M263.2,43.4c1.6,0.3,2.2-0.6,2.7-1.6s1-2-0.1-3.1
	C264.4,40,263.1,41.2,263.2,43.4z"/>
<path class="st0" d="M290.7,51l-1.6,2.6l2.1-0.3l0.1,0.4l-2.4,1.6c-0.6-1.8-1.2-3.5-1.7-5.2c-0.1-1.1,0.6-2,1.7-2.2
	c0.8-0.1,1.6-0.2,2.4-0.3c0.1,0,0.2,0.2,0.4,0.3c-0.5,1.6-3.5,0.9-3.4,3.4L290.7,51z"/>
<path class="st0" d="M306.1,48.8l-2.4-1.5c1.9-0.7,4-0.6,5.9,0.2c-0.9,0.9-1.8,1.8-2.5,2.8c-0.6,1.1-1,2.2-1.3,3.4l-0.5-0.1
	L306.1,48.8z"/>
<path class="st0" d="M280.6,56.6c3.8-1.6,3.8-1.6,4.4-1.1l-4,3.1c-1.8-1.3-1.7-3.8-3.5-5.5C278.9,53.3,278.9,53.3,280.6,56.6z"/>
<path class="st0" d="M296.5,52.7l2.2-0.7c-0.4,1.2-1.5,2.2-2.3,1.9c-0.5-0.3-0.9-0.8-1-1.4c0.1-2.1,0.9-4.1,2.4-5.5
	c0.2-0.2,0.6-0.3,0.9-0.3c0.3,0.1,0.5,0.3,0.7,0.5c0,0.3-0.1,0.5-0.4,0.7C296.9,49.1,296.1,50.4,296.5,52.7z"/>
<path class="st0" d="M329,57.8l2-1.3c-0.2,2-0.2,2-2.6,2.2c-0.8-1.3-0.3-2.6,0.2-3.8c0.5-1,1.1-1.9,1.8-2.7c0.9-1,1.9-0.8,2.7,0.4
	C330.8,52.3,329,54.4,329,57.8z"/>
<path class="st0" d="M326.4,49.6c-0.3,2-1.5,3.7-2.6,5.4c-0.1,0.1-0.6,0-1.3,0l3.4-5.7L326.4,49.6z"/>
<path class="st0" d="M264.4,32.4l0.5-5.1l-1.6,0.6l-0.3-0.3l2.3-2.8C265.7,27.4,265.4,30,264.4,32.4z"/>
<path class="st0" d="M309.3,191.6c-0.7,0.8-1.3,1.5-2,2.3s-2.2,0.8-2.6,2.4c-0.3,1.1-1.6,1.9-2.4,2.8c-0.2,0.4-0.4,0.7-0.5,1.1
	c4-1.1,6.9-3.7,10.3-5.7c-0.8,2.1-4.3,4.9-8.8,7.2v3.5c2.4-0.1,4.7-0.9,6.5-2.4c1.2-0.7,2.4-1.4,3.7-2c1.1-0.6,2.4-0.4,3.4,0.3
	l-2.7,3.5l0.2,0.3c1.2-0.6,2.3-1.3,3.5-1.9s2.4-1.1,3.6-1.8s1.8-0.3,2.3,0.9c0.8-0.4,1.4-0.8,2-1.1s1.1-0.5,1.8-0.7
	c0.9,2.1-1.1,2.9-1.7,4.2c1.5,0.8,2.8,0.4,3.6-1.3c1-2,2.7-3.6,4.8-4.5c0.2-0.1,0.4-0.1,0.7-0.2c1.2,1.9,0.7,2.7-3.5,5.7
	c1.7,0.7,3.2,0.1,4.5-0.6s2.3-1.7,3.5-2.4c2-1.2,4.1-2.3,6.3-3.4c0.6-0.3,1.4-0.5,2.1-0.5c1,0.1,1.9-0.3,2.5-1
	c0.8-0.8,1.9-1,2.9-0.6c0.9,0.2,1.5,1.1,1.3,2c0,0.1-0.1,0.3-0.1,0.4c-0.3,0.9-0.6,1.8-1,2.7c-3.7,0.9-4.7,0.4-4.7-2.7
	c-3.2,0.7-6.3,1.6-8.7,4.1c-2.1,2.1-4.8,3.5-7.7,3.9c-1.2,0.1-2.2,0.2-2.9-0.9c-0.7,0.3-1.5,0.6-2.3,0.8c-0.6,0.1-1.2-0.1-1.6-0.4
	c-0.3-0.6-0.3-1.2,0-1.8c0.4-0.8,1-1.5,1.6-2.1c-3.3,0.4-4.6,3.2-7,4.8c-0.6-2.3,2.5-2.4,2.3-4.6c-0.7,0.2-1.3,0.5-1.9,0.8
	c-1.6,0.9-3.1,1.9-4.8,2.7c-0.7,0.3-1.7,1.6-2.6,0.1c0,0-0.5,0.2-0.7,0.3c-1.3,0.3-2.7,0.7-3.7-0.6c-1.2,0.4-2.2,0.8-3.3,1.1
	c-1.9,0.4-2.4,0.1-3-1.7c-0.4-1.1-0.6-2.3-0.9-3.5l-4.6,5.9c-0.8-1-0.2-1.5,0.2-2.1c1.9-2.5,3.8-5.1,5.7-7.6l-0.3-0.4l-5.4,2
	c-0.2,1-0.5,1.9-0.7,2.8s-1.5-0.3-1.7,1c-0.1,0.6-1.3,1.2-2.1,1.4c-0.9,0.1-1.8,0-2.7-0.2c-1.5,1.1-3.1,2.1-4.5,3.3
	c-0.5,0.5-0.8,1.1-0.9,1.8c-0.6,3-1.9,5.8-3.9,8.1c-0.9,1.3-2.4,2-4,1.9c-1.5,0-2.5-0.9-2.2-2.4c0.1-1,0.6-2,1.2-2.8
	c1.9-2,3.7-4.1,5.9-5.5c2-1.1,3.3-3.1,3.5-5.4l-6.7,1.6c-0.9,0.8-2.1,2-3.4,3.1s-2.7,1.4-3.8,0l-9.6,5.1c-0.4,0.3-0.8,0.5-1.3,0.6
	c-1.9,0.1-3.5,1.3-4.2,3c-0.3,0.8-1.5,1.3-2.4,1.7c-0.3,0.2-1.2,0-1.3-0.2c-0.4-0.9-1.3-1.4-2.2-1.4c-0.1,0-0.2-0.5-0.4-0.9l2.2-0.5
	v-0.4h-2.4c-0.4-1.9,1.1-1.7,2.1-1.9l0.5-1.6c2.1,0,3.2,1.3,4.3,2.9c2.9-1.3,5.9-2.5,8.8-3.9c0.9-0.4,1.9-0.9,2.7-1.5
	c1.6-0.9,2.6-2.5,2.8-4.3c0.7-4.7,2.9-8.8,7.6-10.8c0.3-0.1,0.7-0.2,1-0.2c0.6,1.1,0.6,2.5-0.1,3.6c-1.4,3.3-3.4,6.3-6.1,8.7
	c-0.4,0.4-0.8,0.9-1.1,1.3c3-0.1,5-2,5.6-5.2c3.4,2.6,6.1-0.1,9.4-1.2l-1.7,5.4c2.3-1.1,4.1-2.2,4.8-4.6c0.4-1.5,1.5-2.7,2.9-3.3
	c1-0.4,2.4,0,3.6,0.5c1.7-0.7,3.4-1.4,5.1-2c1.8-0.5,3.2-1.8,4-3.4c0.1-0.3,0.5-0.5,0.8-0.8l0,0l-0.2,1.8l3-2.3L309.3,191.6z
	 M275,217.1c4.1,0.8,8.5-4.1,8-8.6C279.5,210.5,276.5,212.9,275,217.1z M279,194.3c-3.8,0.9-8.1,7.4-7.3,10.7
	C274.8,202.9,277.7,198.6,279,194.3L279,194.3z M314.7,202.3c-2,0.2-3.8,1.2-5,2.8C312.2,205.3,313.5,203.9,314.7,202.3L314.7,202.3
	z M334.8,199.8c-1.7,0.6-3.2,1.9-4,3.6C332.1,202.4,334.4,202.4,334.8,199.8L334.8,199.8z"/>
<path class="st0" d="M288.1,212.8c0.3,1.2,0.7,1.9,1.9,1.7c0.7-0.2,1.4-0.4,2.5-0.8c-1.6,1.7-2.6,2.1-3.7,1.6
	c-1.1-0.6-1.6-1.9-1.3-3.1c0.5-1.8,4.2-3.3,5.8-2.3c0.5,0.2,0.7,0.8,0.5,1.3c-0.1,0.2-0.2,0.4-0.4,0.5c-0.8,0.4-1.6,0.7-2.4,0.8
	C290.1,212.6,289.2,212.7,288.1,212.8z M289.2,211.4c1.6,1.1,2.6-0.1,4.3-0.5C291.6,209.9,290.5,210.6,289.2,211.4L289.2,211.4z"/>
<path class="st0" d="M345,214.7l-0.6-1.6c0.6-0.2,1.4-0.2,1.7-0.6c1.2-1.2,2.1-2.8,2.4-4.5c0.2-1.4,0.5-2.7,1.1-3.9
	c0.1,0.4,0.5,0.8,0.4,1.1c-0.3,2.1-0.3,4.4-1.2,6.2C348.3,212.7,346.5,213.5,345,214.7z"/>
<path class="st0" d="M305.9,212c-0.6,0.9-1.7,1.3-2.7,1.1c-1-0.1-1.2,0.4-1.2,1.5h2c-0.5,1.2-1.4,1.4-2.2,1c-0.4-0.2-0.6-1-0.7-1.6
	c0-0.6,0.1-1.2,0.2-1.8c1-0.7,2-1.4,3.1-1.9c0.6-0.1,1.2,0,1.7,0.4c0.2,0.1-0.1,0.9-0.2,1.4l-0.5-1.3c-0.9,0.5-2,0.3-2.1,1.7
	L305.9,212z"/>
<path class="st0" d="M311.8,210.8c-3,1.9-3,1.9-3.6,3.2c0.8,1.3,1.9-0.3,3.2,0.5c-0.4,0.2-0.7,0.3-1,0.5c-1.1,0.6-2.3,0.6-2.8-0.1
	c-0.6-1-0.3-2.3,0.7-2.9c0,0,0,0,0,0C309.3,211.4,310,210.2,311.8,210.8z"/>
<path class="st0" d="M313.1,212c2.7,0.2,2.7-2.1,3.6-3.6c0.6,1.1-1.3,2.5,0.3,3.3l-1.7,2c-0.2-0.3-0.4-0.9-0.8-1.1s-0.9,0-1.3,0
	L313.1,212z"/>
<path class="st0" d="M288.6,194.4c-0.8,0.6-1.2,1.2-1.7,1.2c-1,0.1-1.3-0.7-1.2-1.6s0.6-1.6,1.5-1.4
	C287.6,192.7,288,193.6,288.6,194.4z"/>
<path class="st0" d="M297.1,214.9c-0.2-2.4,0.4-4.9,1.8-6.9C298.9,210.5,298,212.7,297.1,214.9z"/>
<path class="st0" d="M322.2,209.6c-2.1,1-1.8,3.4-2.9,4.8c-0.3-1.7,0.2-3.4,1.4-4.6C320.9,209.5,321.7,209.6,322.2,209.6z"/>
<path class="st0" d="M328.4,214.8c-1,0.3-1.4-0.1-1.5-0.9c-0.2-1.9,1.3-2.7,2.7-3.7c0.1,1.1-0.7,1.3-1.1,1.8
	C327.5,213,327.5,213.4,328.4,214.8z"/>
<path class="st0" d="M337.4,213l1.7-5.9l0.3,0.1l-1.2,6L337.4,213z"/>
<path class="st0" d="M306.4,192c0.4-0.9,1-1.7,1.6-2.5c0.4-0.4,1.1-0.5,1.6-0.4c0.8,0.3,0.6,1.2,0.4,1.9c-0.1,0.3-0.4,0.4-0.6,0.7
	l-0.1-0.1l0.2-1.7l-0.4-0.2L306.4,192L306.4,192z"/>
<path class="st0" d="M341,210.3c0.4,1.1,0.4,1.1-0.2,4l-0.9-2.3L341,210.3z"/>
<path class="st0" d="M324.6,211.7l-0.5,2.6c-0.8-1-0.1-1.8-0.1-2.7L324.6,211.7z"/>
<path class="st0" d="M345.3,211.2l1.3-1.4l0.3,0.3l-1.1,1.6L345.3,211.2z"/>
<path class="st0" d="M351.3,213.8l-0.2-1.5l0.4-0.1l0.4,1.5L351.3,213.8z"/>
<path class="st0" d="M319.3,264.6c-0.7,0.7-1.5,1.3-2.3,1.8c-2.9,1.6-4.5,0.7-4.6-3c-0.8,1-1.4,1.7-1.9,2.5
	c-1.7,2.6-5.2,3.1-7.2,0.6c-1.7-2.4-3.3-4.9-4.7-7.5c-0.3-0.5-0.5-1-0.9-1.6c-1.3,1.4-1.2,3.1-1.7,4.6c-0.5,1.5-1.1,3-1.8,4.5
	c-0.2,0.4-0.8,0.6-1.2,0.4c-0.2-0.1-0.4-0.3-0.5-0.6c-0.2-0.7-0.2-1.5,0-2.3c1.3-4.1,2.7-8.2,4-12.2c0.6-1.9,1.2-3.9,1.9-5.9h-5.1
	l-0.2-0.5c0.6-0.5,1.2-0.9,1.8-1.2c2.4-0.8,4.7-2.1,6.5-3.9c0.2-0.2,0.8-0.2,1.4-0.3c-1,1.9-1.8,3.8-2.5,5.8
	c-0.4,2.1-0.7,4.2-0.8,6.3c6.1-2.5,10.1-7.1,14.5-11.7h2.2c0,0.5-0.1,0.9-0.3,1.3c-0.6,0.8-1.2,1.4-1.9,2.2
	c-1.6,1.8-3.3,3.7-4.9,5.5c-0.5,0.5-1,1-1.6,1.4c-2.4,1.7-4.8,3.4-7.4,5.2c0.2,0.7,0.4,1.4,0.7,2c1,2.3,1.9,4.5,3.1,6.7
	c1.2,2.4,2.9,2.6,4.7,0.6c1.5-1.7,2.8-3.5,4-5.3c1.8-2.9,4.6-5,7.9-5.8c0.8-0.2,1.6-0.6,2.3,0.5c0.2,0.4,1,0.4,1.7,0.7l-1,2.1
	c-0.7,1.5-1.5,3-2.2,4.5c-0.3,0.9-0.6,1.9-0.8,2.9c1,0.6,2.3,0.4,3.1-0.5c1.6-1.8,3.2-3.7,5-5.5c0.9-1,1.9-1.9,3-2.7
	c2.3-1.6,2.6-1.5,4.8,0.2l5-2.2c0.6,0.5,1.1,1,1.6,1.5c0.7,0.5,0.8,1.5,0.2,2.2c-0.1,0.1-0.2,0.2-0.3,0.3c-1.5,1.5-2.9,3.2-4.2,4.8
	c-0.5,0.7-0.9,1.4-1.2,2.1c1.8,0.6,2.8-0.8,4-1.3c0.7-0.4,1.2-1.1,1.3-1.9c0.7-2.8,2-5.4,3.9-7.6c1.4-1.7,3.4-1.3,4.2,0.8
	c0.1,0.4,0,0.9-0.2,1.3c-0.2,0.3-0.9,0.4-0.9,0.7c-0.5,3.1-3.6,4.5-5,6.9c0,0,0,0.1,0.1,0.3c1,0.5,1.9-0.1,2.8-0.6
	c2.9-2.1,5.5-4.6,7.6-7.5c0.9-1.1,1.5-2.5,3.5-2.4c-0.5,2-1.6,3.8-3.3,5c-1.1,1-2.2,2.1-3.1,3.2c-0.9,0.8-1.9,1.6-2.9,2.3
	c-0.4,0.3-1,0.6-1.4,0.9c-1.3,1.1-2.7,1.4-4.1,0.3c-0.6-0.5-1.5-0.5-2.2,0c-1.7,1-3.4,2-5.2,3.1c-0.1-0.5-0.3-0.9-0.6-1.3
	c-0.9-1-0.8-2.5,0.2-3.5c1.3-1.7,2.6-3.4,3.9-5.1c0.7-0.7,1.1-1.7,0.9-2.6c-5.1,2.1-7.5,6.9-11.3,10.5c-0.1,0-0.4-0.1-0.7-0.2
	s-0.6-0.3-0.9-0.4c0-0.3,0-0.6,0.1-0.7c1.1-1.3,2.2-2.7,3.5-4c1.2-1.2,1.9-2.8,2-4.5c-1.8,1.1-3.5,2.5-4.9,4.2
	c-1.6,1.7-3.1,3.4-4.8,4.9s-2.6,1.5-4.1-0.3C319.7,265.2,319.5,264.9,319.3,264.6z M314.1,266c3.6-2.3,6.4-5.6,8.3-9.4
	C318.5,256.4,314.1,261.3,314.1,266z M349.2,255.1c-1.8,1-3.2,2.7-3.6,4.7C347.2,258.6,348.5,257,349.2,255.1L349.2,255.1z"/>
<path class="st0" d="M245.1,267.5c-0.2-1.6,0.1-3.2,0.9-4.5c1.8-3.5,3.7-7.1,5.5-10.6c0.9-1.7,1.5-3.5,2.5-5.7
	c-1.3,0.5-2,0.8-2.8,1.1c-2.7,1.2-3.2,1-4.7-1.9c0.5-0.1,1-0.2,1.6-0.2c2.4,0.3,4.7-0.7,6.2-2.5c3-3.3,6.8-3.5,10.7-3.4
	c0.5,0,1,0.6,1.5,1c3.4,2.9,3.8,6.2,1.2,9.8c-0.3,0.4-0.8,0.8-1,1.3c-0.5,0.8-1,1.6-1.5,2.5l-0.9-0.1c1,1.6,1.9,3.1,1.6,4.8
	c0,0.6-0.2,1.2-0.5,1.8c-1.7,2.6-4.1,4.7-6.8,6.1c-3.9,2-8.5,2.4-12.7,1C245.5,267.8,245.3,267.6,245.1,267.5z M254.5,255.4
	l-5.8,11.1c1.4,0,2.8,0.3,3.9-0.1c2.9-0.8,5.7-2.3,8-4.2c0.8-0.8,1.5-1.7,2-2.7c0.8-1.7,0.4-2.5-1.5-3
	C259,256.1,256.8,255.8,254.5,255.4L254.5,255.4z M265.8,242.1c-1.5-1-3.1-0.6-4.9-0.2c-1,0.2-1.8,1-2,1.9c-0.7,2.1-1.5,4.2-2.2,6.2
	c-0.3,0.8-0.6,1.6-1,2.5c2.9,1.2,4.9,0,6.9-1.5C265.6,248.9,266.9,246,265.8,242.1L265.8,242.1z"/>
<path class="st0" d="M271.6,259.9l3.3,5.5c5-0.7,7.2-3.1,7.4-7.9c0.1-2.1,0.1-4.3,0.4-6.4s0.8-4.2,1.2-6.3c-1-0.5-2.1-0.9-3.1-1.2
	c-1.1-0.3-2.3-0.4-3.5-0.4c-0.5,0.1-1,0.4-1.3,0.9c-0.7,1.5-2,2.6-2.3,4.4c-0.1,0.5-0.6,1-1.2,2c-0.3-1-0.6-1.5-0.5-1.9
	c0.5-1.9,1.1-3.8,1.9-5.6c0.5-1.6,2.2-2.5,3.8-2.2c3.3,0.8,6.7,0.8,10-0.1c0.2,0.9,0.9,1.5-0.2,2.1c-0.4,0.4-0.7,0.8-0.8,1.4
	c-1.5,4.3-2.2,8.8-2.2,13.3c0.1,2.5-0.4,4.9-1.5,7.1c-1.2,2.3-3.6,3.7-6.2,3.5c-2.1-0.2-4.2-0.5-5.1-2.8
	C270.9,263.5,270.9,261.6,271.6,259.9z"/>
<path class="st0" d="M251.9,106.6c0.3,0.7,0.6,1.4,0.9,2.2c0.8,2,0.5,3.2-1.2,4.6c-0.4,0.3-0.9,0.7-1.5,1.1c-0.5-0.3-1-0.6-1.4-1
	c-1.8-1.9-3.6-3.9-5.3-5.8c-0.6-0.6-1.2-1.3-1.7-2c-0.8-1.2-0.8-2.7-0.1-3.9c0.7-1.3,1.9-1.3,3.1-1.2c0.7,0.1,1.4,0.3,2.1,0.5
	l-0.1-0.1l1.5,4.2c0.5,0.4,2-0.5,2.4,1l-2.5-0.4l-0.9,1.9l3.4,5.2c2.3-1.7,2.4-2.2,1.1-4.5c-0.4-0.8-0.8-1.5-1.2-2.3l1.5,0.6
	L251.9,106.6z M246.3,106.6c0.2-0.3,0.3-0.3,0.3-0.4c0.1-0.7,0.1-1.4,0.2-2.1c0.2-1.7-0.2-2.4-1.8-2.8s-2.4,0.1-3,1.7L246.3,106.6z"
	/>
<path class="st0" d="M274.6,88.8l3,8.4l-0.6,0.3c-1-1.1-1.1-2.8-1.8-4.1c-0.7-1.4-1.3-2.7-1.8-4.2c-0.6-1.5-1-3-1.2-4.5
	c3.2,2.7,5.2,6.2,7.6,9.5c-1.1-4.2-1.9-8.5-2.3-12.8c1.2,0.1,1.1,0.9,1.2,1.6c0.7,3.2,1.4,6.4,2,9.6c0.2,1.3,0.3,2.6,0.5,4.4
	C278,94.7,277.1,91.2,274.6,88.8z"/>
<path class="st0" d="M357.1,118.2c-0.7,0.2-1.4,0.4-2,0.7c-1,0.4-2.1,0.3-3-0.3c0-1.5,0.7-2.9,2-3.8c2-1.6,3.9-3.3,5.6-5.2
	c0.6-0.6,1.2-1.3,1.8-1.9c1.6,1.5,1.8,4.1,0.3,5.8c-1.2,1.5-2.3,3.2-4.3,4C357.3,117.5,357.2,118,357.1,118.2L357.1,118.2z
	 M353.1,117.7c3.3-0.2,5.3-2.3,7.3-4.3c1-1,2-2.2,1.4-4L353.1,117.7z"/>
<path class="st0" d="M333,87.4c2.5,1.3,2.8,3.3,0.5,4.8c-1.5,1.1-3.4,1.6-5.2,1.4l-0.4,7c-0.7-1.1-0.7-1.1-0.7-3.1
	c0-1.1,0-2.2,0-3.8l-3.7,4.9l-0.5-0.4c0.7-2.3,2.6-4,3.7-6.1s2.2-4.2,3.5-6.5c1.1,0.5,2.6,0.2,3,1.8l-2.6-0.7
	c-0.4,1-0.8,1.9-1.1,2.8s-0.9,1.7-1.3,2.5c1,0.8,2.3,0.9,3.4,0.2C334.5,90.7,334.7,90.1,333,87.4z"/>
<path class="st0" d="M294.5,80c2.6,0.6,4.6-0.9,7.3-0.4c-2,1.4-4,1.2-6,1.8v5h4c-0.3,1.3-1.2,0.8-1.8,1c-1.9,0.4-2.1,0.5-2.3,2.4
	c-0.1,1.2-0.3,2.3-0.4,3.8c0.9,0,1.6,0,2.3,0s1.4,0.1,2.2,0.2c-0.2,0.4-0.2,0.8-0.3,0.8c-1.6,0-3.1,0-4.7-0.1c-0.3,0-0.7-0.6-0.8-1
	c-0.1-0.4,0-0.8,0.1-1.2c0.6-2.8,0.7-5.7,0.4-8.5C294.3,82.5,294.3,81.3,294.5,80z"/>
<path class="st0" d="M246.8,101c-0.1-0.5-0.5-1.2-0.3-1.5c1-1.1,2.1-2.2,3.2-3.2c0.7-0.4,1.5-0.7,2.3-0.9l-1.8,2.7
	c3.5,3,7.6,5.4,7.2,10.9c-1.1,0.8-2.6,0.5-3.4-0.6c-0.7-0.7-1.4-1.2-2.1-1.9l0.1,0.1c0.7-1.4,1.4-0.5,2,0c0.8,0.7,1.5,1.4,2.8,0.6
	c-1.6-3.4-4.1-6.4-7.3-8.4l-2.9,2L246.8,101z"/>
<path class="st0" d="M259.7,90.6c2.2,1.5,2.1,4.3,4.1,5.8c1-2.4,0.1-5.2,2.1-7.3l-0.5,9.2c1.4,1.4,3.8,1,4.6,3.2l-4.2-1.7l1.2,3.3
	c-1.2-0.5-1.2-0.6-3-3.6c-0.8-1.4-1.8-2.7-2.5-4S259.8,92.7,259.7,90.6z"/>
<path class="st0" d="M311.4,83.4c0.2,0.3,0.6,0.6,0.6,1c0,1.9,0.7,3.7,1.9,5.1l-3.4-0.4l-1.2,4.4c1.3,0.9,3,0.1,4.5,1.9l-5.8-0.4
	l2.8-14.2c1.4,0.1,2.9-0.3,4.2,1.4l-3.2-0.2C311.6,82.5,311.5,83,311.4,83.4c-0.2,1.2-0.5,2.4-0.8,3.5
	C311.8,85.9,311.5,84.7,311.4,83.4z"/>
<path class="st0" d="M342,96.9l0.7-3.4c-3.8,2.4-5.3,6.1-7.4,10l4.1-1.2c-0.2,0.6-0.2,1.2-0.5,1.5c-1.5,1.4-3.2,1.2-4-0.3
	c-0.3-0.5-0.3-1.2-0.1-1.8c1.9-3.1,3.3-6.6,6.4-8.7c0.6-0.4,1.3-1,1.9-0.4c0.6,0.5,0.9,1.2,0.9,2C344.1,95.6,343.2,96.7,342,96.9z"
	/>
<path class="st0" d="M282.2,81.5l1.4,6.5l2.7-1.1c-0.1,1.6-1.5,1.5-2.4,2.5c0.4,1.4,0.7,3,1.2,4.7c0.3,1,0.1,1.5-1,1.9
	c-0.8-3.3-1.6-6.6-2.4-9.9c-0.3-1.2-0.6-2.5-0.9-3.7s0-1.7,1.2-2s2.5-0.6,4.2-0.9C285.3,81.2,283.7,80.9,282.2,81.5z"/>
<path class="st0" d="M271.8,94.9c-2.1,2,0.2,3.6,0.3,5.5c-0.5-0.3-0.8-0.4-0.9-0.6c-0.4-0.5-0.6-1.1-0.8-1.7c-1-3.8-2-7.6-3-11.4
	l0.5-0.3c0.4,0.4,1,0.6,1.3,1.1c2.2,3.8,4.3,7.7,6.4,11.6c0.1,0.1-0.1,0.4-0.3,1L271.8,94.9z M269.5,91.8l1,2.8l0.5-0.2
	C271.3,93.2,270.6,92.4,269.5,91.8z"/>
<path class="st0" d="M351.5,99.2c0.9,0.9,0.8,1.6,0.1,2.2c-0.8,0.8-1.7,1.7-2.6,2.4c-1.8,1.4-3.7,2.7-5.6,4c0.4,1.3,2.4,1.6,2.4,3.4
	c-1.2-0.7-2.4-1.4-3.5-2.2c-0.4-0.3-0.3-1.1-0.3-1.7c0-0.2,0.3-0.4,0.4-0.5c2.5-2,5.1-3.9,7.6-5.9C350.5,100.3,351,99.8,351.5,99.2z
	"/>
<path class="st0" d="M316,94.8l3-0.8c-1.3,2.8-1.6,2.9-4.1,2.3c-0.1-5.2,1.8-12.9,3.9-15.3c1.3,0.2,1.6,1.1,1.7,2.4l-1.7-0.8
	C317.1,86.5,316.2,90.6,316,94.8z"/>
<path class="st0" d="M348.9,112.9c1.3-3.3,5.1-4.3,6.8-7.5l-1.7-2.2c2.3,0.7,4.4,2.1,5.7,4.2c-0.5,0-0.7,0.1-0.9,0
	c-1.8-1-1.8-0.9-3.1,0.5c-1.7,1.8-3.5,3.4-5.4,5.1c-0.3,0.2-0.6,0.4-1,0.5L348.9,112.9z"/>
<path class="st0" d="M324.1,85.2l-2-2.2l0.4-0.5c1.8,0.7,3.5,1.7,5,3l-2-0.2L320.6,97c-1-0.4-1.2-0.7-0.7-1.6
	c1.3-2.6,2.3-5.2,3.4-7.8C323.6,86.7,323.9,85.9,324.1,85.2z"/>
<path class="st0" d="M304.4,79c0.2,5-1.4,9.5-1.8,14c1.3,0.9,3.1-0.3,4.5,1.3c-1.9,0.7-3.5-0.5-5.3-0.2c-0.1-0.7-0.1-1.5,0-2.2
	C302.9,87.8,301.5,83.2,304.4,79z"/>
<path class="st0" d="M331.2,102c0.1-0.9-0.1-1.4,0.1-1.8c1.7-3.1,3.4-6.1,5.2-9.1c0.2-0.3,0.6-0.4,1-0.7
	C337.6,92.7,333.8,99.7,331.2,102z"/>
<path class="st0" d="M278.1,112.5l1.4-6.1h4.2c-0.5,0.9-1.3,0.8-2,0.8c-1.2,0.1-2,0.6-1.8,2l1.4,0.7c-0.6,0.8-2,0.3-1.9,1.8l3.2,0.6
	C281.3,113.4,279.5,113.4,278.1,112.5z"/>
<path class="st0" d="M293.5,112.6l-0.7-4.1l-2.4-0.5c1.9-1.4,3.3-1.4,6.3-0.1l-2.4,0.8l-0.2,3.9L293.5,112.6z"/>
<path class="st0" d="M284.5,112.1h2.9c-0.7-0.6-1.4-1.3-2.1-2c-0.6-1.1-0.4-2.4,0.6-3.2c0.9-0.6,1.5-0.4,2.5,1.2
	c-1.5-0.6-2.5-0.5-2.6,1.3c0.3,0.3,0.7,0.6,1.1,1c1,1,1.2,2.3,0.5,2.9C286.5,114,285.8,113.7,284.5,112.1z"/>
<path class="st0" d="M298,107.1c1.3,0.1,2.3-0.5,3,0.8s-0.2,2-1,2.8l1.4,1.7l-3.7-0.3l1-1.1L298,107.1z M299.1,109.4l0.6,0.2
	c0.3-0.5,0.5-0.9,0.6-1.4c-0.4-0.3-0.8-0.5-1.2-0.6V109.4z"/>
<path class="st0" d="M312.4,125.3l3.4-6.3c1,0.7,0.2,1.7,0,2.4C315.4,124,315.3,124,312.4,125.3z"/>
<path class="st0" d="M284.5,125.7c-1.2-1.3,0-2.4,0.1-3.5c0-0.3,1.1-0.5,1.8-0.8C286.9,124.5,286.9,124.5,284.5,125.7z"/>
<path class="st0" d="M316.5,110.8c-1.2-1-1.5-1.8-0.6-2.6l-1.4-1l0.1-0.4l2.6-0.2l-0.7,2.7l0.7,1.2c-1.5,2.2-1.5,2.2-2.9,0.8
	L316.5,110.8z"/>
<path class="st0" d="M309.5,111.7c-0.4-0.9-0.2-1.7-1.6-2.3s-0.8-2.1,1.4-3.1C310.1,108,309.6,109.9,309.5,111.7z"/>
<path class="st0" d="M312.7,112.1c-0.7-1.1-1.2-1.9-1.6-2.8c-0.4-0.7-0.2-1.7,0.5-2.2c0.3-0.2,0.7-0.3,1.1-0.2
	c0.3,0.3,0.5,0.7,0.5,1.1C313.1,109.3,312.9,110.5,312.7,112.1z"/>
<path class="st0" d="M260.5,124.8l1.4-2.4l3.5-0.4v2.3h-0.2l-0.5-1.4l-1.3,2.2l-0.5-2.3l-2,2.4L260.5,124.8z"/>
<path class="st0" d="M336.6,125.5c0-1.7,1.3-1.6,2.7-1.9l-2-1.2l2.5-0.6c-0.1,1.1-0.4,2.2-0.8,3.3
	C338.5,126.2,337.5,125.8,336.6,125.5z"/>
<path class="st0" d="M256.9,123.8l-1.3,1.6c-0.1-2.9,1.8-2.9,3.7-3.5l0.8,2.8l-0.5,0.2l-0.5-2.2l-1.5,2L256.9,123.8z"/>
<path class="st0" d="M296.2,120.4c0.2,0.9,0.4,1.8,0.5,2.7c-0.1,0.5-0.3,1-0.8,1.3c-0.6,0.2-1.2,0.3-1.8,0.2
	C293.8,123,294.6,121.5,296.2,120.4z M295.4,122.5l-1.5,1.3l2.4,0.2L295.4,122.5z"/>
<path class="st0" d="M268.5,124.3l2,0.6l-2.3,0.8l-0.5-2.7c1.1-0.6,2-1.7,3.6-0.1l-2.7,0.9L268.5,124.3z"/>
<path class="st0" d="M280,122c-1.6,0.2-3,0.1-3.5,1.5c0.3,1.4,1.5,0.3,2.2,0.7c-1.1,0.9-2,1-2.6,0.2s-0.3-1.9,0.9-2.6
	C277.9,121.3,279.1,121.4,280,122z"/>
<path class="st0" d="M322.8,125.1l-2.5-1.9l2.3-1.3l0.4,0.5l-1.3,0.7c0.6,1,2.5,1,1.8,2.6c-0.2,0.7-1,1.1-1.7,0.9
	c-0.2-0.1-0.4-0.2-0.5-0.3L322.8,125.1z"/>
<path class="st0" d="M325.9,123.8l2-3.1c0.6,0.8-0.7,2.1,0.6,2.6l-1.6,2.2L325.9,123.8z"/>
<path class="st0" d="M253.2,122.2c0.8,0.8,1.7,1.5,1,2.6c-0.4,0.5-1.1,0.8-1.8,0.8c-0.4,0-1-0.8-1.1-1.3
	C251.3,123.2,252.1,122.6,253.2,122.2z M251.8,124.6c1,0.4,1.7,0.7,1.8-0.4c0.1-0.3-0.3-0.8-0.7-1.4L251.8,124.6z"/>
<path class="st0" d="M305.3,112.1c0.1-1,0.1-2,0-3c-0.3-0.9-0.7-1.7-1.1-2.5l2.1,0.1l-0.4,5.3L305.3,112.1z"/>
<path class="st0" d="M319.5,122.5c0.1,2.2,0.1,2.2-2.4,2.8c-0.4-0.8-1.1-1.5,0-2.6l0.2,1.5C318.9,125,318.6,123.1,319.5,122.5z"/>
<path class="st0" d="M309.9,123.1l-2.4,1.7c0.3-1.2,1.3-2.2,2.5-2.6c1,0.8,0.8,1.6,0.1,3L309.9,123.1z"/>
<path class="st0" d="M332.5,122.2l-1.8,2.4C330,122.4,330.3,122,332.5,122.2z"/>
<path class="st0" d="M245.8,125.4c-1-0.7-0.3-1.4,0.1-2c0.5-0.8,1.1-1.5,1.6-2.3l0.9,0.7C246.9,122.4,245.9,123.8,245.8,125.4
	L245.8,125.4z"/>
<path class="st0" d="M342.9,120.7c-0.2,1.1-0.4,2.3-0.6,3.4c-0.1,0.3-0.2,0.7-0.3,1l-0.5-0.1l0.7-4.4L342.9,120.7z"/>
<path class="st0" d="M288.4,120.9l-0.6,4.2c-1.4-0.5-0.5-1.4-0.4-2.1s0.3-1.4,0.5-2.1L288.4,120.9z"/>
<path class="st0" d="M245.7,125.4h3.3C247.5,126.7,247,126.7,245.7,125.4L245.7,125.4z"/>
<path class="st0" d="M306.7,121l-1.4,3.5c-0.4-1.5,0.4-2.6,1-3.8L306.7,121z"/>
<path class="st0" d="M272.7,124.5c-0.2-2.3-0.2-2.3,1.3-2.6L272.7,124.5z"/>
<path class="st0" d="M335.2,122.9l-0.6,2.4l-0.6-0.1l0.5-2.4L335.2,122.9z"/>
<path class="st0" d="M357,118.2l1.1-0.1l-0.9,1.8l-0.4-0.1L357,118.2L357,118.2z"/>
<path class="st0" d="M281.7,122.4l-0.5,1.7h-0.3l0.2-1.9L281.7,122.4z"/>
<path class="st0" d="M277.4,155.4c2.8,2.9,2.5,7.2-0.3,10.3c6.2-2.3,11.4-6.7,14.7-12.4c0.3,0.1,0.5,0.2,0.5,0.2
	c0.1,0.2,0.2,0.4,0.3,0.6l-2.4,3.6c2-0.6,3.1-2.4,4.7-3.4s2.8-2.7,4.3-4.1c-0.9,1.8-1.3,3.8-3.1,5.2c-2,1.5-3.8,3.2-5.8,4.7
	c-2.5,1.8-3.2,4.4-3.5,7.2c-0.4,5.6-1.9,11-4.4,16c-1.1,1.9-2.6,3.4-4.5,4.5c-1.1,0.7-2.6,0.8-3.8,0.2c-1.1-0.4-1.9-1.5-1.9-2.7
	c0-1.9,0.6-3.8,1.6-5.5c3.3-6.3,7.4-12.1,12.1-17.4c0.4-0.5,0.7-1.1,1.1-1.6c-0.5,0.2-0.9,0.4-1.3,0.7c-2.1,2.1-4.8,3.2-7.4,4.4
	c-1.3,0.5-2.7,0.7-4.1,0.8c-1.6,0.2-3.3,0.2-4.9,0.3c-0.7,0.1-1.5-0.1-2.1-0.5c-0.4-0.2-1,0-1.7,0c-0.5-0.7-0.6-1.7-0.3-2.5
	c0.6-2.2,1.1-4.4,1.4-6.6c0.1-0.8,0.1-1.6,0.1-2.4c0-0.2-0.1-0.4,0-0.6c1.9-2.8,1.2-6,1.3-9.2c-2,2.9-4.6,5.3-7.5,7.2
	c-3,1.8-6.3,3.1-9.7,3.7c-1.8,4.1-2.6,4.6-6.2,4l-0.1-2c-1.3-0.2-2.5-0.4-3.7-0.6c-0.2,0-0.3-0.6-0.4-1c1.2-0.1,2.3-0.2,3.4-0.3
	s1.2-0.5,0.8-1.5h-4l0.2-2.1l3.9,0.4V151c2.7-1,4.4-0.1,6.2,3.4c2.7-0.2,5.2-1.2,7.3-2.8c3.3-2.5,6.3-5.4,8.9-8.7
	c1.5-1.9,3.9-2.9,6.4-2.6c3.2,0.3,6.1,2.2,7.7,5c1.2,1.9,1.5,5.6-0.6,7.7C279.6,153.9,278.5,154.6,277.4,155.4z M269,152.6
	c2,0.6,3.6,1,5.2,1.5c1,0.4,2.2,0.3,3.1-0.3c0.5-0.3,0.9-0.6,1.3-1c3.2-2.3,3.6-5.7,1.1-8.7c-1.8-2.2-6.1-3.4-8.6-2.5
	c-1.3,0.3-2.2,1.7-1.8,3c0,0,0,0.1,0,0.1c0.1,0.6,0.1,1.2,0.1,1.8C269.2,148.7,269.1,150.8,269,152.6z M286.3,165.1l-0.5-0.2
	c-1.5,2-2.9,4-4.4,5.9c-2.4,3-4.5,6.3-6.1,9.8c-0.6,1.2-1.1,2.5-1.4,3.9c-0.4,2.3,0.7,3.2,3,2.6c0.3-0.1,0.7-0.2,0.9-0.4
	c1.1-0.9,2.1-1.9,3-3.1c1.2-2.2,2.2-4.4,3.1-6.7C285.5,173.1,285.7,169,286.3,165.1L286.3,165.1z M268.7,156.1l-1.9,8.9
	c1.4,0.8,3,1.1,4.5,0.7c0.7-0.1,1.4-0.3,2-0.3c4.1-0.4,5.8-3.9,5-7.6c-0.2-1.1-1.3-2.1-2.1-1.9C273.8,156.6,271.3,156.4,268.7,156.1
	L268.7,156.1z M269,154.5v0.6h4.8C272.2,153.9,270.6,154.1,269,154.5L269,154.5z"/>
<path class="st0" d="M306.1,155.1c0.3,0.1,0.7,0.2,0.8,0.4c1.2,1.7,2,3.6,2.2,5.7c0.2,1.1,0.2,2.2,0.4,3.3c0.2,1.3,1,1.8,2.2,1.2
	c2.1-0.9,3.7-2.8,4.3-5c0.3-1.3,0.7-2.5,1.3-3.7c0.3-0.6,0.7-1,1.1-1.4c1.7-1.7,3-1.6,4.6,0.1c-1,2.7-1.6,5.6-1.8,8.5
	c0.9-0.5,1.7-1.3,2.1-2.3c0.8-1.4,1.5-2.9,2.2-4.4c0.9-1.7,1.8-3.5,4.3-3.2l1.6,2.8l3.5-2.6c0.8,0.9,1.1,2.1,0.7,3.2
	c-0.5,1.8-1.1,3.7-1.6,5.5c1.9,0.2,2.7-0.4,2.8-1.9c0.2-2.4,1.2-4.6,2.9-6.2c0.6-0.6,1.2-1.4,2.3-1.2c0.5,1.3,0.7,2.6-0.3,3.9
	c-1.4,1.7-2.7,3.4-4.2,5.2c0.3,1.2,0.6,1.5,1.9,1.3c0.9-0.2,1.9-0.4,2.7-0.9c1.2-0.6,2.3-1.3,3.5-1.9l0.2,0.4
	c-1.1,0.8-2.2,1.6-3.4,2.4c-0.5,0.3-1,0.5-1.5,0.7c-1.9,0.8-2.9,0.5-4.2-1.2c-0.6,0.2-1.1,0.4-1.7,0.5c-0.5,0-1.1,0-1.6,0
	c-0.5-3.1,1.5-5.4,1.6-8.2c-0.7-0.3-1.6-0.1-2,0.6c-0.9,1.1-1.9,2.1-1.9,3.8c-0.1,0.7-0.4,1.5-0.8,2.1c-0.5,1-1,1.9-1.5,2.9
	c-0.9-0.3-0.7-1-0.5-1.5c0.4-1.1,0.9-2.2,1.4-3.2c0.6-1.1,0.8-2.4,0.6-3.6c-0.2-0.8-0.4-1.5-1.3-1.7c-0.8-0.1-1.7,0.3-2,1.1
	c-0.7,1.3-1.2,2.6-1.9,3.9c-0.9,2-2.1,3.9-3.6,5.5l-1.6-1.8c-2.3,1.8-2.4,1.8-4.4,0.2c-0.6,0.4-1.1,0.9-1.5,1.5
	c-0.9,1.4-2.7,1.9-4.1,1c-0.9-0.6-1.5-1.6-1.5-2.7c0-1.1-0.2-2.2-0.4-3.3C307.5,158.8,306.8,156.9,306.1,155.1L306.1,155.1z
	 M316.7,164c1.1,0.6,1.7,0,2.2-0.6c1.8-2,2-4.5,2.1-7.2c-0.6,0.4-1.1,0.5-1.2,0.8C318.9,159.3,317.4,161.5,316.7,164z M337.6,161.3
	c2.9-1.8,4.5-4.3,3.9-6.3C339.2,156.3,337.8,158.7,337.6,161.3L337.6,161.3z"/>
<path class="st0" d="M306.1,155c-0.3,1-0.6,2-0.8,3.1c-0.7,4.9-1,6.3-4.8,9.7l-0.9-0.6c1.7-1.7,3.1-3.5,3.7-5.8
	c0.5-2.1,1.5-4.2,0.2-6.6c1-0.8,0.9-1.9,0.7-3.1c-0.4-2.5-0.9-5-1.3-7.5c-0.2-1-0.2-1.8,0.9-2c0.2,1.8,0.3,3.5,0.6,5.2
	s0.7,3.3,1.1,5.3c3.2-3.3,5.8-7.1,7.8-11.4c0.6,0.9,0.5,2.1-0.2,2.9c-1.3,2.2-2.7,4.4-4.1,6.6c-0.4,0.6-1,1.1-1.6,1.6
	C306.6,153,306.1,154,306.1,155L306.1,155z"/>
<path class="st0" d="M357.9,152h-1.6c0.1-0.3,0.1-0.5,0.2-0.6c0.8-0.6,1.6-0.7,2.1-1.9c0.3-0.8,1.7-1.3,2.9-1s1.4,1,1.4,2
	s0.2,1.8,0.2,2.6c0.1,1.3-0.7,1.8-1.7,2.2c-1.8,0.6-2.7,0.1-3.1-1.8C358.2,153.1,358.1,152.7,357.9,152z"/>
<path class="st0" d="M355.9,152l-1.3,0.8c-1.9,1.3-3.4,3.2-4.2,5.4c-0.3,0.7-0.6,1.1-1.6,1.1c1-2.5,2.4-4.8,4.2-6.8
	c0.7-0.8,1.7-1.1,2.7-1L355.9,152z"/>
<path class="st0" d="M294.2,148.1c-0.1-0.6-0.4-0.9-0.3-1.3c0.8-2.6,2.4-4.9,4.5-6.7c-0.3,1.8-1.7,2.6-2.3,3.8
	S294.9,146.5,294.2,148.1z"/>
<path class="st0" d="M290.1,144.6l2.3,4.4C291,148.8,290,147.2,290.1,144.6z"/>
<path class="st0" d="M290.2,151l-3.7-0.6C288,149.9,288.5,149.9,290.2,151z"/>
<path class="st0" d="M297.7,148.5l-2.1-0.3l0-0.3l2.1,0.4L297.7,148.5z"/>
<path class="st0" d="M293.5,153.7l-0.5-1.2l0.4-0.2l0.5,1.1L293.5,153.7z"/>
<path class="st0" d="M276.2,303.2c1.5,1.1,3.2,0.4,4.8,0.2c1.8-0.2,3.6-0.6,5.4-0.7c3.7-0.1,7.4,0,11.1,0l16.6,0.1
	c4.3,0,8.6,0,12.8,0c0.7,0,1.4-0.1,2.5-0.2l-3.9-2.7c1.7,0.9,3.4,1.7,5,2.7c0.4,0.3,0.6,1.3,0.6,1.9c-0.1,6.1-0.2,12.3-0.3,18.4
	c0.1,2.1-0.1,4.2-0.5,6.3v-23.4c-1.1-0.1-2.1-0.1-3-0.2c-12.3-0.1-24.6-0.3-36.9-0.4c-1.6,0-3.2,0.2-4.8,0.5
	c1.6,0.4,1.6,1.6,1.4,2.7c-0.4,1.1-0.9,2.2-1.5,3.3l1.8,1.2c-0.3,1-0.7,2-1.3,2.9c-1.9,2.1-4.3,1.4-6.8,0.9l1.5-11.1l-4.6,0.5V333
	c9.2-0.3,18.3-0.8,27.4-1s18.1-0.2,27.2-0.2c0.5,1,0.4,2.3-0.3,3.1l0,0c-0.6-0.9-1.5-0.7-2.4-0.7c-2,0.1-4,0.4-6,0.5
	c-4.1,0.1-8.3,0.1-12.4,0.1c-6.3,0-12.6,0.1-18.9,0c-4.1,0-8.2-0.3-12.3-0.4c-0.8,0-1.5,0-2.5,0c0.5,1.8,1.9,2.1,3.1,2.6l0,0
	c-1.4,0.3-2.9-0.3-3.7-1.5c-0.4-0.5-0.8-1.1-1.3-1.8c1.6-1.5,1-3.5,1-5.3c0.1-7.7-0.1-15.5-0.1-23.2
	C275.2,304.4,274.9,303.4,276.2,303.2z M281.4,311.2c3.1,0.1,4.1-0.5,4.5-2.6c0.2-0.8,0-1.5-0.8-1.7c-1.1-0.3-2.2-0.4-3.3-0.5
	L281.4,311.2z M280.4,316.4c1.9-0.4,3.2-0.7,4.5-1.1c0.8-0.3,1.5-1,1.1-1.8c-0.4-0.6-0.9-1-1.6-1.1c-1.1-0.2-2.1-0.2-3.2-0.2
	L280.4,316.4z"/>
<path class="st0" d="M317.1,294.6c-2.5-1.3-5.1-2.6-7.6-3.9c-1.5-0.8-2.9-1.7-4.3-2.6c-1.1-0.8-2.6-0.8-3.7,0.1
	c-7.2,4.4-14.4,8.7-21.6,13c-1.2,0.7-2.5,1.4-3.7,2.1c0.3-0.4,0.5-1,0.9-1.2c7.9-4.8,15.9-9.4,23.8-14.2c1.4-1.1,3.4-1.1,4.9-0.1
	C309.4,290.1,313.3,292.3,317.1,294.6z"/>
<path class="st0" d="M320.4,315.6l-1.5-4.4l-1.2,4.9L317,316c0-2.9,0.9-5.7,1.1-8.9c1.7,1.1,1.9,2.9,2.8,4.5c1-1.6,0.4-3.6,2-4.9
	c0.2,0.5,0.4,0.8,0.4,1c-0.6,2.7-1.3,5.3-2,8L320.4,315.6z"/>
<path class="st0" d="M289.6,306.9h7.9c-0.3,0.2-0.5,0.5-0.9,0.6c-1.2,0.5-1.6,1.4-1.8,2.7c-0.4,2.1-1.1,4.1-2,6
	c-0.3,0.7-0.9,1.6-2,1.1c-1-0.5-1.5-1.5-1.2-2.6c0.1-0.3,0.2-0.6,0.4-0.8c0.1-0.1,0.3-0.1,0.6-0.2c0.2,0.3,0.3,0.6,0.4,0.9
	c0.1,0.4,0.1,0.7,0.2,1.1c0.4-0.2,0.7-0.3,0.9-0.5c1.4-2.2,1.3-4.6,1.2-7C292.1,307.5,290.5,308.6,289.6,306.9z"/>
<path class="st0" d="M305.6,311.2l2.3,4.8c-2.2-0.6-2-3-3.8-3.3l-0.9,4.1c-1.6-1.2-0.8-2.3-0.7-3.4c0.1-1.3,0.3-2.5,0.5-3.8
	c0.2-1.1-0.2-2.4,1.1-3.3c1.3,1,0,2.4,0.7,3.6l3.5-3.2C308.3,309,306.5,309.6,305.6,311.2z"/>
<path class="st0" d="M315.6,306.3c-0.1,3.4,0.2,6.7-0.8,10.2c-1.4-0.6-0.6-1.7-1.1-2.5c-2.2-1.5-2.5,1.7-4.6,1.8l5.8-9.7
	L315.6,306.3z M314.2,309.8l-1.7,2.8C314.2,312.5,314.2,312.5,314.2,309.8L314.2,309.8z"/>
<path class="st0" d="M325.2,315.1c0.3-0.1,0.7-0.1,1-0.2c0.3,0,0.6,0,1.1,0c-0.3,0.3-0.4,0.6-0.5,0.6c-0.9,0.1-2,0.5-2.7,0.1
	c-1-0.6-0.1-1.7,0-2.6c0.2-1.2,0.3-2.4,0.5-3.5c0.1-0.8,0.3-1.6,0.5-2.7c1.4,0.7,2.8,0,4.3,1.3l-2.8,0.6l-0.6,2.9l1.8,0.4
	c-0.2,0.3-0.2,0.5-0.4,0.6C326.5,313.2,325.1,313.1,325.2,315.1z"/>
<path class="st0" d="M293.3,319.3l3.8-0.2c-1,1.3-3.9,0.4-2.9,3.2h2.3l0.1,0.3l-3.3,1.1c1.2,1.2,2.2-0.4,3.4,0.3
	c-1.2,1.1-3,1.2-4.4,0.3L293.3,319.3z"/>
<path class="st0" d="M314.5,317.3l2,1.1c-0.6,1-1.2,2.1-1.6,3.2c-0.1,0.3,0.4,0.9,0.8,1.7l-1.9-1l-0.7,1.4
	C311.9,323.3,312.6,320.3,314.5,317.3z M314.2,320.4l0.7,0.1l0.2-1.6l-0.4-0.1L314.2,320.4z"/>
<path class="st0" d="M281,321.3l1.9,0.3v0.4l-2.4,0.5c0,1.2,0,1.2,1.7,1.8l-2.9,0.2c0.2-1.1,0.3-2,0.4-2.8s0.3-1.6,0.5-2.6l3.5-0.5
	l0.2,0.5C282.9,319.8,280.6,318.8,281,321.3z"/>
<path class="st0" d="M300.8,320.6l-0.5,2.8l2.3-1c-0.2,1.5-0.9,1.9-2,1.8c-0.8,0-1.5-0.7-1.5-1.6c0-0.1,0-0.2,0-0.2
	c0.1-2.3,1.2-3.4,3.3-3.2C302.9,320.8,301.8,320.6,300.8,320.6z"/>
<path class="st0" d="M316.1,289.6c1.2-0.4,2.5-1.6,4.1,0.1l-3.4,3.1L316.1,289.6z"/>
<path class="st0" d="M292.1,291.2c-0.3,0.9-1.2,1.6-2.2,1.5c0.1-1.2,0.1-2.5,0-3.7c-0.3-1.1-0.6-2.2-1.1-3.3l0.5-0.2L292.1,291.2z"
	/>
<path class="st0" d="M306.5,318.7h4.4l0.1,0.4l-2.1,0.7l-0.7,4.1c-1.2-0.4-0.9-1.1-0.8-1.8c0.1-1.1,0.6-2.4-1.2-3L306.5,318.7z"/>
<path class="st0" d="M321.3,292.6l1.3-0.7l-1.4-0.5c0.4-0.9,1.1-0.8,1.5-0.3c0.4,0.5,0.7,1.2,0.7,1.8c-0.1,0.7-0.4,1.3-0.7,1.9
	c-0.5,1.2-1.3,1.4-2.2,0.5c-0.5-0.5-0.8-1.2-0.9-1.9l1.6,1.4C322.6,294.2,321.6,293.5,321.3,292.6z"/>
<path class="st0" d="M324.1,319c-2,1.3-2.1,1.3-1.3,3.7l2.8-1.4c0,1.4-1,2.2-2.7,2c-1.2-0.1-1.8-1.2-1.6-2.7S322.5,318.6,324.1,319z
	"/>
<path class="st0" d="M317.2,287.3l-3.5,3.8c-0.1-1.2,0.4-2.2,0.1-3.4S315.4,286.2,317.2,287.3z"/>
<path class="st0" d="M293,348.7l-2.7,0.4l0.1-0.7c-1-0.6-1.7,0.1-2.4,0.9c-0.8-1.4-0.3-2,0.7-2.3C290.1,346.6,292,347.4,293,348.7
	L293,348.7z"/>
<path class="st0" d="M313.7,344.5c-0.4,0.9-0.3,1.9,0.2,2.7c0.7,1.2,0.6,2.7-0.2,3.8c-0.9-0.4-1.4-1.4-1-2.3
	c0.1-0.1,0.1-0.3,0.2-0.4c0.7-1.2,0.1-1.9-1-2.5L313.7,344.5z"/>
<path class="st0" d="M281.8,298c-0.8,1.5-1.7,0.4-2.6,0.2c-0.2-1.3,0.2-2.7,1.1-3.7l1.7,0.7l-2,2.6L281.8,298z"/>
<path class="st0" d="M307.4,325.7c0.8,0.7,1.2,1.7,0.4,2.4c-0.6,0.6-1.7,0.6-2.8,1c0.1-1.2,0.3-2.3,0.5-3.4c0.1-0.4,0.8-0.7,1.2-0.9
	C306.8,324.8,307.2,325.4,307.4,325.7c-1.4,0-1.3,1-1.4,2.5c0.7-0.5,1.3-0.6,1.4-1C307.4,326.7,307.4,326.2,307.4,325.7z"/>
<path class="st0" d="M289.1,324.1c-1.6,0.6-1.6,0.6-3.5-0.2l1.3-4.8c0.9,1.6-0.1,3-0.3,4.6L289.1,324.1z"/>
<path class="st0" d="M284.9,343.8c0.8,0.6,1.6,1.2,2.2,1.9c0.2,0.2-0.2,0.9-0.5,1.4c0.2-1.6-1.8-0.4-1.9-1.8l-1.2,1l-0.4-0.3
	L284.9,343.8z"/>
<path class="st0" d="M326.4,342.4c-1.1-0.8-0.8-1.9-0.4-2.8c0.3-0.6,0.9-0.5,1.3,0s0.6,1,1,1.6L326.4,342.4z"/>
<path class="st0" d="M318.1,318.7c1.3,1.6,0,3.2,0.3,5.2C317,322.6,317,322.6,318.1,318.7z"/>
<path class="st0" d="M309.8,288.4l2-3.9l1.4,0.1C313.6,285.5,311.6,287.6,309.8,288.4z"/>
<path class="st0" d="M280.8,342.3c0.3,1.1,2.5,0.2,1.9,2.3c-1.2-0.7-2.8-0.7-4,0c0-0.1-0.1-0.3-0.1-0.4c0.5-0.6,1-1.2,1.5-1.9
	L280.8,342.3z"/>
<path class="st0" d="M294.4,351.8c0.8-0.6,1.6-1.3,3-1l-0.7,1.4l-0.9,1.8c-0.1-1.2-1.6-1-1.2-2.2L294.4,351.8z"/>
<path class="st0" d="M274.8,342.1c-1.9-0.6-2.4-1.2-2-2.3c0.4-1.4,1.9-1.8,3.8-1c-0.7,0.1-1.5,0.2-2.2,0.4c-1.3,0.5-1.4,1.1-0.4,2.2
	C274.1,341.5,274.3,341.6,274.8,342.1z"/>
<path class="st0" d="M287.6,291.8l-1.3,1.5l-1.5-4.4C286.3,289.6,285.4,292.1,287.6,291.8z"/>
<path class="st0" d="M276.3,342.9c-0.4-0.9,0-1.9,0.8-2.3c0.9-0.4,1.9,0,2.3,0.8c0.4,0.9,0,1.9-0.8,2.3c-0.5,0.2-1,0.2-1.5,0
	C276.8,343.7,276.5,343.2,276.3,342.9l2.2-0.5l-0.2-0.6L276.3,342.9z"/>
<path class="st0" d="M293.9,345.9c-2.3-0.4-4-1.9-5.9-3.2C290.2,343.5,292.1,344.6,293.9,345.9L293.9,345.9z"/>
<path class="st0" d="M325,343.2l-1-1.2c-1.8,0.8,0,1.8-0.6,3c-0.4-0.9-1-1.7-0.9-2.4c0.2-1.2,1.5-0.8,2.4-1l0.4,1.4L325,343.2z"/>
<path class="st0" d="M296.8,353.8c0.8-1.6,1.9-2.9,3.4-3.8l-2.9,4.1L296.8,353.8z"/>
<path class="st0" d="M306.6,348.9l-0.4,1.2l-3.7,0.7v-0.3L306.6,348.9z"/>
<path class="st0" d="M297.6,326.9l0.2,1.3l2.7-0.4l0.1,0.3l-3.8,1l0.4-2.2L297.6,326.9z"/>
<path class="st0" d="M311.6,351.5l-1.7-1.1v2l-0.4,0.1L309,350C310.1,349.7,311.2,350.3,311.6,351.5
	C311.6,351.5,311.6,351.5,311.6,351.5z"/>
<path class="st0" d="M319.6,340.9c-0.2,0.4-0.5,0.8-0.9,1.1c-1,0.7-2.1,1.2-3.3,1.5L319.6,340.9L319.6,340.9z"/>
<path class="st0" d="M282.9,294.8c0.2-0.9,0.6-1.1,1.2-0.6c0.5,0.3,0.9,0.8,1.1,1.3c0.1,0.2-0.5,0.7-1,0.9l0.3-1.1L282.9,294.8z"/>
<path class="st0" d="M293,348.8c0.6,0.2,1.6-0.3,1.7,0.9l-0.2,0.1c-1-0.1-1.7,0-1.5,1.5C291.2,350.1,293,349.5,293,348.8L293,348.8z
	"/>
<path class="st0" d="M325.6,299.9l-4.8-2.9L325.6,299.9z"/>
<path class="st0" d="M280.9,338.9c1.7-0.2,2.5,1.4,4,1.6l-0.2,0.5L280.9,338.9L280.9,338.9z"/>
<path class="st0" d="M317.1,348.7l-1.5-2.3l1.6,0.6l0.1-1.4C318.1,346.5,318,347.9,317.1,348.7z"/>
<path class="st0" d="M319.7,342.8l1.8,1.3l-0.4,1.5C319.5,345.3,320.2,344,319.7,342.8z"/>
<path class="st0" d="M319.2,343.4l-0.3,2.2l1.6,1.1c-0.6,0-0.9,0.1-1.2,0.1C318.2,346.3,318.1,345.5,319.2,343.4z"/>
<path class="st0" d="M302.6,328.4l-0.4-3l1.5-0.1L302.6,328.4z"/>
<path class="st0" d="M329.1,340.4l-1.2-2.6l0.6-0.2l1.2,2.7L329.1,340.4z"/>
<path class="st0" d="M293.9,346l3.1,1.5C295.7,347.4,294.6,347.1,293.9,346L293.9,346z"/>
<path class="st0" d="M294.5,349.7l0.2-0.1c0.1,0.2,0.3,0.4,0.3,0.5c-0.2,0.5-0.4,1-0.6,1.6l0.1-0.1l-1,0.2L294.5,349.7z"/>
<path class="st0" d="M306.5,351.5c1.3,0.3,1.5,1.4,1.5,2.5L306.5,351.5z"/>
<path class="st0" d="M330.5,334.9l-2,1.4l-0.2-0.5L330.5,334.9L330.5,334.9z"/>
<path class="st0" d="M308.6,347.5l1.7-1l0.2,0.3l-1.6,1.1L308.6,347.5z"/>
<path class="st0" d="M323.5,338.8l1.6-1l0.2,0.3l-1.7,1L323.5,338.8z"/>
<path class="st0" d="M319.6,341l2.3-1.3C321.4,340.6,320.7,341.4,319.6,341L319.6,341z"/>
<path class="st0" d="M280.9,338.8c-0.6-0.6-1.9-0.4-1.7-1.8l0,0C279.8,337.6,280.3,338.2,280.9,338.8L280.9,338.8z"/>
<path class="st0" d="M205.6,308c-15,0.5-29.6,0.7-44.3,0.5c-0.1-0.8-0.1-1.6,0-2.4c0.1-0.6,0.4-1.2,0.9-1.7c2.2-2.3,4.4-4.5,6.6-6.8
	c1.1-1.1,2.2-2,3.3-3c1.4-1.1,3-1.9,4.8-2.2c3.9-0.8,8-0.8,11.9-0.2c3.3,0.4,6.4,1.9,8.8,4.3c2.3,2.3,4.7,4.6,6.2,7.6
	C204.4,305.3,204.9,306.5,205.6,308z M162.2,307l0.3,0.6c13.8,0.3,27.5-0.4,41.5-0.4c-1.3-4-4-7.5-7.5-9.9c-3.2-2-6.8-3.3-10.6-3.6
	c-6.9-0.6-9.4,0.2-14.5,3.3c-2.4,1.5-4.5,3.4-6.3,5.6C164,304,163.1,305.4,162.2,307L162.2,307z"/>
<path class="st0" d="M165.4,332c0.8-0.3,1.6-0.5,2.5-0.7c3.9-0.1,7.7-0.3,11.6-0.3c4.2,0,8.4,0.2,12.5,0.2c1.8,0,3.5-0.2,5.3-0.3
	c1.2,0,2.5,0.1,3.7,0.1c0.3,1.5-0.3,3.1-1.6,3.9c-3.1,2.2-6.6,3.8-10.3,4.8C180.3,341.9,171.1,338.9,165.4,332z M168.4,332.8
	l-0.1,0.4c0.4,0.5,0.9,0.9,1.4,1.3c1.3,0.8,2.6,1.5,3.9,2.3c2.2,1.3,4.8,1.5,7.2,2c2.8,0.7,5.7,0.6,8.4-0.4c2.6-1,5.3-2,7.9-3.1
	c1.5-0.7,2.7-1.9,3.4-3.5C189.7,332.8,179,333.1,168.4,332.8L168.4,332.8z"/>
<path class="st0" d="M161,319.8c0.3-3.1,0.6-6.1,1-9.1c0.2-1.5,1.6-2,3-1.1c0.5,0.3,0.9,0.8,1.4,1.1c0.7,0.4,1,1.3,0.6,2.1
	c-0.3,0.7-0.6,1.4-1.1,2.3c0.4,0.8,1.4,1.7,0.9,3.1s-0.7,1.9-2.3,1.9C163.4,320.1,162.2,320,161,319.8z M162,318.8
	c0.7,0,1.2,0.1,1.8,0.1s1.3,0,1.9,0c0.9-2.8,0.1-3.5-3-2.9L162,318.8z M162.9,314.1l2.4-0.7c0-1.8-0.2-2.4-1-2.9s-1.3-0.3-1.4,0.5
	S162.9,312.9,162.9,314.1L162.9,314.1z"/>
<path class="st0" d="M185.6,319.9c-1.3,0.5-1.2-0.8-1.8-1.2c-0.7-0.5-1.3-1.1-1.9-1.8l-0.6,3.1c-0.4-0.4-0.8-0.7-0.8-0.9
	c-0.1-0.7-0.1-1.4,0-2.2c0.1-1.6,0.2-3.1,0.4-4.7c0-0.6-0.1-1.4,1-1.5l0.3,2.2l2.1-1.6c0.3-0.3,0.6-0.5,1-0.6c0.3-0.1,0.8,0,0.9,0.2
	c0.1,0.3,0.1,0.7-0.1,1c-0.9,1-1.8,1.9-2.8,2.9L185.6,319.9z"/>
<path class="st0" d="M195.3,310.2l2.1,4.5c0.6-0.8,0.3-1.8,0.6-2.6s-0.1-1.8,1.3-1.9l-0.9,8.8c-0.9,0.3-1.1-0.3-1.3-1
	c-0.3-1.1-0.6-2.1-0.9-3.2c-0.2-0.4-0.4-0.9-0.7-1.3l-0.9,6.4c-0.5-0.4-0.9-0.5-0.9-0.7c0.3-2.8,0.6-5.6,1-8.4
	C194.7,310.8,194.9,310.7,195.3,310.2z"/>
<path class="st0" d="M170.3,316.2l0.8,2.9c1.9-1.1,2.3-2.7,2.2-7.2l-2,0.2c-0.4,0.1-0.8,0.1-1.1,0c-0.3-0.1-0.5-0.3-0.6-0.6
	c0-0.2,0.4-0.4,0.6-0.6c0,0,0.1,0,0.2,0c1.5,0,3,0,4.5,0c0.7,0,1.4,0.1,2.1,0.1l0.1,0.4l-2.4,1c-0.1,0.7-0.1,1.6-0.2,2.5
	c-0.1,1.6-0.6,3.1-1.6,4.3c-0.6,1-1.9,1.3-2.9,0.8C168.6,319,168.6,317.7,170.3,316.2z"/>
<path class="st0" d="M166.7,347.3c-4.2-0.9-6.8-4-9.5-6.7c-4.5-4.5-6.9-10.2-8.5-16.2c-0.2-1.2-0.2-2.4,0-3.6
	C150.6,332.4,156.5,341.3,166.7,347.3z"/>
<path class="st0" d="M190.5,316.7c-0.9-0.4-1.4,0.2-1.9,1c-0.3,0.6-0.7,1.2-1.1,1.7c0-1.5,2.5-7.6,3.9-9.7l0.4,9.7
	C190.2,318.9,191.1,317.5,190.5,316.7z"/>
<path class="st0" d="M202.3,314.1l3-0.2c-1,1-2.2,1-3.4,1.2v2.5c1.5,0.6,3.3-0.3,4.9,0.9c-2,0.5-3.9-0.6-5.7,0.9
	c-0.2-0.6-0.3-1.3-0.3-1.9c0.3-2,0.6-4,1-6c0.2-1.4,0.4-1.5,1.8-1.5c0.6,0,1.2-0.1,1.8-0.1s1.1,0.1,1.6,0.1v0.5
	c-0.8,0.1-1.6,0.2-2.4,0.2c-1.8,0.1-2,0.3-2.2,2C202.3,313.2,202.3,313.6,202.3,314.1z"/>
<path class="st0" d="M195.6,282.9c-0.6,0-1.1-0.1-1.7-0.2c-6.5-2-13.4-2.1-19.9-0.3c-0.4,0.1-0.7,0.1-1.1,0.1c2-1,4.3-1.6,6.5-1.7
	c5-0.5,10.1,0,14.9,1.5C194.8,282.5,195.2,282.7,195.6,282.9L195.6,282.9z"/>
<path class="st0" d="M166.8,322.4l1.4,0.3c-0.3,1-2,0.3-1.9,1.8l2.3-0.3l0.1,0.4c-1,0.6-2.2,0.9-3.4,0.6c0.1-3.7,1.1-4.7,4.5-3.9
	l-3,0.8L166.8,322.4z"/>
<path class="st0" d="M184.4,321.4l-0.9,2.9h-0.4l-0.4-2.1c-0.6,0-1.1,0-1.7,0c-0.5,0.1-1.2,0.3-1.3,0.6s0.3,0.9,0.5,1.6
	c-0.5,0.4-1.2,0.4-1.6-0.1c0,0,0,0,0,0c-0.6-0.6-0.2-1.2,0.3-1.8c0.5-0.7,1.3-1.1,2.2-1C182.2,321.6,183.3,321,184.4,321.4z"/>
<path class="st0" d="M218.4,319.7c0.5-6.1-0.6-12.2-3-17.8l0.4-0.1c0.6,1.6,1.3,3.1,1.8,4.8c1.1,4,1.6,8.1,1.3,12.2
	C218.8,319.1,218.5,319.4,218.4,319.7L218.4,319.7z"/>
<path class="st0" d="M164.1,294.3c-0.4,1,0.8,1.7,0.3,2.8l-1.7-1.2c-0.4,1.2,0.8,1.5,1.2,2.3c-1.7,0.3-1.6-1.7-2.8-1.8
	c0.3-1,0.7-1.8,1.9-1.1l0.1-1.4c1.6,0,1.8,0.1,2.8,1.8L164.1,294.3z"/>
<path class="st0" d="M180.1,342.4l-2.7,5.5l-0.5-0.2l0.8-2c-1.6-1-1.7-2-0.1-3C178.4,342.4,179.1,341.8,180.1,342.4z M177.3,344.8
	l1.6-1.5C177.9,343.3,177.2,343.6,177.3,344.8z"/>
<path class="st0" d="M172.3,291c0.3-0.1,0.6-0.2,0.9-0.3s0.4-0.2,0.8-0.4c-0.7,1.3-1.4,1.6-2.3,0.9s-0.9-1.2-0.1-2.1
	s1.5-1.8,3.2-1.1l-2.8,2.4L172.3,291z"/>
<path class="st0" d="M199.9,293.7c0.8-1,1.6-0.5,2.6-0.1l2.7-2.9c-0.6,2.2-2.8,3.2-3.8,5.1C199.1,295.2,199.1,295.1,199.9,293.7
	l0.2,1.5l1.5-1l-0.1-0.4L199.9,293.7z"/>
<path class="st0" d="M178.3,321.4l-2.1,0.9l1.5,0.5l-1.6,1l1.2,0.3v0.3l-1.9,0.5C175.3,322.1,175.4,320.6,178.3,321.4z"/>
<path class="st0" d="M187.4,289.2l-2.4,0.5l1.3-3l-0.3-0.2l-0.9,0.6c0-0.1-0.1-0.3-0.1-0.3c0.3-0.3,0.6-0.8,0.9-0.8
	c0.4,0.1,0.8,0.3,1,0.7C187.1,287.5,187.3,288.3,187.4,289.2z"/>
<path class="st0" d="M183.3,347.5l-0.1-1.7c-1.1-0.3-1.5-0.7-1.1-1.4c0.3-0.5,0.8-1,1.4-1.3c0.5-0.2,1-0.2,1.6-0.2L183.3,347.5z
	 M182.2,344.8c1.3-0.3,1.3-0.3,1.4-1.5L182.2,344.8z"/>
<path class="st0" d="M187.8,350.8c-0.3,0.2-0.6,0.5-0.9,0.5c-2.3,0.1-4.6,0.1-6.8,0c-1-0.1-1.9-0.3-2.8-0.7c1.7,0.1,3.4,0.4,5.2,0.4
	S186,350.9,187.8,350.8L187.8,350.8z"/>
<path class="st0" d="M204.3,321.7l-0.8-0.9v1.8l1.4-0.4c-0.1,0.3-0.1,0.5-0.1,0.5c-1,0.6-1,0.6-2,0.4c-0.1-0.6-0.1-1.2,0-1.7
	c0.1-0.4,0.5-1.1,0.8-1.1C204.4,320.2,204.4,320.9,204.3,321.7z"/>
<path class="st0" d="M170.8,325l1.4-3.8l0.5,0.1L172,324l2,0.6C172.9,325.4,172,324.9,170.8,325z"/>
<path class="st0" d="M190.5,345.8c-0.6-0.4-1.2-0.7-1.9-0.2l1.4-2.8l-2,0.2l-0.1-0.4l2.4-0.8C190.8,343.4,189.5,344.7,190.5,345.8
	L190.5,345.8z"/>
<path class="st0" d="M162,300.4c-1.5,0.7-1.9,0.5-2.1-0.8c-0.1-0.4-0.1-0.9-0.1-1.5l2-0.4c0.3,1,0.8,1.9,0.1,2.8
	c0-0.6-0.1-1.1-0.2-1.7c-0.2-0.2-0.4-0.4-0.7-0.4c-0.3,0.1-0.5,0.4-0.5,0.6C160.2,299.9,160.6,300.2,162,300.4z"/>
<path class="st0" d="M184.6,324l1-3c1,0,1.3,0.3,1.2,0.9C186.8,323.1,186.2,323.8,184.6,324z"/>
<path class="st0" d="M188.3,284.5v5.9C187.6,289.3,187.5,287.1,188.3,284.5z"/>
<path class="st0" d="M189.8,322.5l1.6,0.7c-0.6,1-1.3,0.6-2,0.3c-0.2-2-0.1-2.3,1.8-2.4c-0.2,0.3-0.4,0.5-0.6,0.8
	C190.4,322.1,190.1,322.3,189.8,322.5z"/>
<path class="st0" d="M174,342.5l2-1.4c-0.8,2-1.8,3.8-3.1,5.5C172.6,345,174.5,344.1,174,342.5z"/>
<path class="st0" d="M210.5,311.6l5.4-2.6C214.5,310.5,212.6,311.5,210.5,311.6z"/>
<path class="st0" d="M180.5,286.7l-1.1,2.6l1.8-0.1c-0.4,1.1-1.2,0.9-1.9,0.9C178.6,288.4,178.8,287.8,180.5,286.7z"/>
<path class="st0" d="M170.1,291.8l-1.6-1.1l-0.1,1.8l-1.9-1.1c0.7-0.4,1.4-0.8,2.1-1.2c0.5-0.1,1.2,0.7,1.8,1L170.1,291.8z"/>
<path class="st0" d="M196.9,324c-0.3-1.2,0.3-2.4,1.3-3l-0.1,1.7l1.3,0.5C198.6,323.8,197.8,324,196.9,324z"/>
<path class="st0" d="M191,286.8c1.3,1,1.4,1.7,0.6,2.3c-0.3,0.1-0.7,0.1-1,0c-0.2-0.2-0.3-0.5-0.3-0.8
	C190.5,287.7,190.7,287.2,191,286.8z"/>
<path class="st0" d="M156.2,301.5c-0.4,1.5,0.2,3.1,1.6,3.9l1.5-0.6c-0.2,0.3-0.2,0.5-0.3,0.6c-1.3,0.8-1.7,0.8-2.6-0.5
	C155.7,303.8,155.3,302.7,156.2,301.5z"/>
<path class="st0" d="M196.2,341.5l0.8,1.9c-0.6,0.2-1.2,0.4-1.8,0.5c-0.2,0-0.4-0.4-0.7-0.6L196.2,341.5z"/>
<path class="st0" d="M217.3,325.7c-0.4,2.4-1.3,4.6-2.8,6.5c0.2-0.6,0.4-1.2,0.7-1.8C215.9,328.9,216.7,327.3,217.3,325.7
	L217.3,325.7z"/>
<path class="st0" d="M169.9,341.5l-1.6,2.3l-1-2l2.3-0.8L169.9,341.5z"/>
<path class="st0" d="M202.4,298.3c0.4-1.2,0.4-1.2,1.7-2l-1.1,1.4l0.2,0.3l2.4-1C205,298.1,203.6,298.6,202.4,298.3z"/>
<path class="st0" d="M200.4,323.9l-0.3-3.2h1.9L200.4,323.9z"/>
<path class="st0" d="M207.6,300.2l-0.9-0.1c-0.1,0.7-0.1,1.6-0.5,2c-0.6,0.6-1.2,0-1.8-0.5h1.7l-0.3-1.7h1.9L207.6,300.2z"/>
<path class="st0" d="M211.5,308.8c-0.2,0.6-0.3,1.4-0.5,1.4c-0.7,0-1.4-0.1-2.1-0.2C209.5,308.8,210.3,308.7,211.5,308.8z"/>
<path class="st0" d="M177.1,287.1v3.8C175.9,289.2,176,287.8,177.1,287.1z"/>
<path class="st0" d="M197.6,283.7l4.5,2C200.5,285.4,199,284.7,197.6,283.7L197.6,283.7z"/>
<path class="st0" d="M208.5,303.1l3.4-2.4l0.2,0.4C210.9,301.7,210.1,303,208.5,303.1L208.5,303.1z"/>
<path class="st0" d="M209.7,292.7c-0.1,0-0.2,0-0.3-0.1c-0.9-0.8-1.8-1.7-2.8-2.7C207.8,290.2,208.7,291,209.7,292.7z"/>
<path class="st0" d="M198.4,290.9l1.3-0.6c0.5,1.5-0.4,2.2-1.3,2.8l1.1-2L198.4,290.9L198.4,290.9z"/>
<path class="st0" d="M187.4,323.7l0.6-2.6l0.4,0.1c0.3,0.9,0.1,1.9-0.5,2.6L187.4,323.7z"/>
<path class="st0" d="M197.3,348.3l2.4-1.2l0.1,0.3l-2.5,1.2L197.3,348.3z"/>
<path class="st0" d="M214.2,333.5l-1.6,2.6l-0.3-0.1l1.5-2.6L214.2,333.5z"/>
<path class="st0" d="M187.8,350.8l3.6-0.4C190.3,351,189,351.2,187.8,350.8z"/>
<path class="st0" d="M190.4,345.9c0.5,1.1,0.5,1.1-0.5,2.3l-1.1-1C190.4,347.5,190.5,346.8,190.4,345.9L190.4,345.9z"/>
<path class="st0" d="M164.5,286.5l-2.2,1.4l-0.2-0.3l2.2-1.4L164.5,286.5z"/>
<path class="st0" d="M182.8,289.6l0.2-3.1C183.8,287.4,183.7,288.7,182.8,289.6z"/>
<path class="st0" d="M171.4,349.1l2,0.7l-0.1,0.3l-2-0.8L171.4,349.1z"/>
<path class="st0" d="M210.2,305.3l-2.2,1.1C208.9,304.9,208.9,304.9,210.2,305.3z"/>
<path class="st0" d="M218.2,322.6l-0.9,3.1l0,0C217.1,324.6,217.4,323.5,218.2,322.6L218.2,322.6z"/>
<path class="st0" d="M198.3,290.9c-0.2,0.9-1,1.2-1.6,1.7l-0.3-0.4L198.3,290.9L198.3,290.9z"/>
<path class="st0" d="M160.3,302.7l-0.6,1.8C159.5,303.5,159.5,303.5,160.3,302.7z"/>
<path class="st0" d="M218.3,319.6c0.8,1,0.1,2-0.1,3l0,0C218.3,321.6,218.3,320.6,218.3,319.6L218.3,319.6z"/>
<path class="st0" d="M208.5,303c0.2,1.2-1,1.1-1.5,1.6C207.3,303.9,207.6,303.2,208.5,303L208.5,303z"/>
<path class="st0" d="M208.3,307.7l2.1-0.7c-0.8,0.9-1.2,1.3-2,1.1L208.3,307.7z"/>
<path class="st0" d="M207.5,341.9l-1,1.1l-0.3-0.3l1-1.1L207.5,341.9z"/>
<path class="st0" d="M193.9,291.6l1.6-1.3l0.1,0.1c-0.4,0.5-0.8,0.9-1.3,1.4C194.3,291.9,194.1,291.8,193.9,291.6z"/>
<path class="st0" d="M167.1,292.4l0.4,1.6l-0.2,0.1c-0.1-0.1-0.2-0.3-0.3-0.5c-0.1-0.2-0.1-0.4-0.2-0.5c0-0.2,0-0.5,0-0.7
	L167.1,292.4z"/>
<path class="st0" d="M158.3,291.6l-1.2,1.1l-0.1-0.1l1-1.2L158.3,291.6z"/>
<path class="st0" d="M212.6,296.5l1.2,1.5l-0.4,0.3L212.6,296.5L212.6,296.5z"/>
<path class="st0" d="M197.7,283.7c-0.8,0.3-1.6-0.1-2-0.8v0L197.7,283.7L197.7,283.7z"/>
<path class="st0" d="M169.3,284l-1.2,0.5l-0.1-0.2l1.1-0.7L169.3,284z"/>
<path class="st0" d="M204.1,287.9l-1.3-1.2C203.8,287.1,203.8,287.1,204.1,287.9L204.1,287.9z"/>
<path class="st0" d="M204.1,288c0.9-0.5,1.2,0.3,1.6,0.9L204.1,288L204.1,288z"/>
<path class="st0" d="M211.4,294.9l-1.1-1.2C211,293.7,211.4,294.2,211.4,294.9L211.4,294.9z"/>
<path class="st0" d="M195,349.3l-0.8,0.5l-0.1-0.2l0.9-0.5L195,349.3z"/>
<path class="st0" d="M211.3,294.9c0.9,0.1,1.1,0.8,1.2,1.6l0,0L211.3,294.9z"/>
<path class="st0" d="M148.6,312.5l0.1-1.2h0.2v1.3L148.6,312.5z"/>
<path class="st0" d="M148.8,314.1c0,0.3,0,0.6,0,0.9h-0.3l0.1-0.9L148.8,314.1z"/>
<path class="st0" d="M148.4,318.4l-0.1-1h0.3l0.1,1H148.4z"/>
<path class="st0" d="M192.3,104.5c-4,3.2-8,6.3-12,9.5c-3.4,2.7-6.8,5.3-10.2,7.9c-1.8,1.4-3.7,2.8-5.6,4.1c-0.8,0.5-1.6,1-2.5,1.6
	c-0.3-0.8-0.5-1.7-0.6-2.5c0-0.8,0.2-1.6,0.7-2.3c4.1-4.7,6.9-10.3,10.3-15.4c1.6-2.4,3-4.9,4.5-7.3c0.3-0.5,0.5-1,0.7-1.5l-7.5-0.6
	c-0.4-1.1-0.3-2.3,0.4-3.2c1.1-2.2,2.4-4.3,3.4-6.6c1-2.2,1.9-4.5,2.6-6.8c0.4-1.2,0.9-1.8,2.1-1.9c1.3-0.1,2.7-0.3,4-0.4
	c2.5-0.2,4.9-0.3,7.4-0.3c1.2,0,2.4,0.2,3.6,0.2c2.3,0,4.6,0,6.9,0.1c0.7,0,1.4,0.1,2.2,0.2c-2.6,3.5-5,6.8-7.3,10.1
	c-0.4,0.5-0.8,1.6-0.6,1.9c0.6,0.5,1.3,0.8,2.1,0.8c1.9,0.1,3.8,0,5.8,0l1.1,1.9c-1.8,1.7-3.6,3.4-5.4,5.2c-0.4,0.4-0.7,0.9-1,1.3
	l-0.1,0.1C195.3,101.1,193.9,103,192.3,104.5L192.3,104.5z M191.8,94.9c0.3-1.5-0.6-2.7,0.5-3.8c1.5-1.6,2.9-3.4,4.2-5.2
	c1.2-1.7,2.3-3.5,3.5-5.4l-21.4,1l-6.9,14.8h2.9c1.4,0,2.9,0,4.3,0c1-0.1,2.1,0.4,2.6,1.3c-2.8,4.1-5.5,8.2-8.3,12.3
	c-2.6,3.8-5.4,7.5-8.1,11.3c-0.9,1.2-1.5,2.6-2.3,3.9l0.4,0.3c3.9-3,7.9-6,11.7-9.1c2.3-1.8,4.4-3.9,6.7-5.7
	c3.9-3.1,7.9-6.1,11.8-9.3c2.4-1.9,4.4-4.2,6-6.7L191.8,94.9z"/>
<path class="st0" d="M169.5,128.1c2,0.1,4.2,2.6,3.7,4.4c-0.4,0.8-1.1,1.5-1.9,1.9c-0.8,0.4-1.8,0.2-2.4-0.6
	c-1.3-1.8-2.7-3.5-3.9-5.4c-0.2-0.6-0.2-1.2,0.2-1.7c0.5-0.8,2.8-1.4,3.5-0.7C169.1,126.5,169.2,127.4,169.5,128.1z M170.1,133.9
	c1.1-1.2,1.8-2.2,1.4-3.6c-0.2-0.5-0.7-0.9-1.3-1.1c-0.5,0-1,0.3-1.3,0.7C167.9,131.5,169,132.6,170.1,133.9L170.1,133.9z
	 M167,129.3c0.8-0.8,1.7-1.3,1.1-2.5c-0.9-0.4-1.9,0.1-2.2,0.9c0,0,0,0.1,0,0.1L167,129.3z"/>
<path class="st0" d="M170.6,125.3c-0.1-1.5,2.3-3.7,5.1-4.9l-0.8,1.9c0.5,0.8,1.1,1.6,1.5,2.5c0.6,1.1,1.1,2.3,1.6,3.4
	c0.3,0.7,0.5,1.4-0.2,1.9c-0.7,0.6-1.7,0.7-2.4,0.1c-0.4-0.4-0.8-0.8-1.2-1.2l1.3-0.2c1.2-0.2,1.6-0.6,1.2-1.7
	c-0.5-1.6-1.5-3.1-2.7-4.3L170.6,125.3z"/>
<path class="st0" d="M192.3,104.5c0.9-0.1,1.6-0.2,2.2,0.8c0.9,1.7,2.1,3.3,3.3,5.3l-3.2-0.2l1.4,2.5c-1.7,0-2.1-1.4-2.9-2.1
	s-1.6-1.5-2.4-2.3c1.5-0.9,3.1,0.6,5,0.2L192.3,104.5L192.3,104.5z"/>
<path class="st0" d="M188.1,109.8l5.9,5.4c-1.5,0.6-1.8-0.9-2.6-1.1c-2.5,1-1.3,3.3-1.9,5C188.6,117.8,187.7,111.9,188.1,109.8z
	 M189.3,111.9l0.2,2C190.7,113.2,190.5,112.6,189.3,111.9L189.3,111.9z"/>
<path class="st0" d="M182.2,118.3l1-3.9c1.2,1.8-0.1,3.1,0.2,4.7l3.5,1.5l-0.1,0.5l-3.7-1l3.4,4.9c-1.9-0.6-5.3-5.1-6.6-8.5
	C181.2,116.4,181.3,117.7,182.2,118.3z"/>
<path class="st0" d="M197.7,100.4l0.1-0.1l1.1,0.3l-2,2.3l1.3,1.9c1.4,0.1,1.3-2.4,3.1-1.6l-1.9,3.1l1.3,1l1.9-2.4
	c-0.1,1.5-0.4,2.3-1.3,2.9c-1.2,0.8-1.6,0.8-2.5-0.4c-1-1.4-2-2.8-3.2-4.4L197.7,100.4z"/>
<path class="st0" d="M185.6,128.7l-1.4,3.1c1.6,1.2,1.7-0.8,2.5-1.2c0.1,2.2-0.9,2.6-3.8,1.3c0.9-1.1,0-3.2,2.1-3.6L185.6,128.7z"/>
<path class="st0" d="M178.2,136.3c-0.4,1.9-1,2.7-2.1,2.6c-0.6-0.1-1.1-0.4-1.5-0.9c-0.5-0.8,0.1-2.6,1.1-3.4
	c0.5-0.4,0.5-0.4,1.8,0.5c-1.4-0.1-1.6,1.1-2.3,1.7c-0.1,0.2,0.1,0.7,0.1,1c0.3,0,0.7-0.1,1-0.2
	C176.9,137.2,177.5,136.8,178.2,136.3z"/>
<path class="st0" d="M202.8,112.3l0.6,2.6c1.7-0.2,1.2-1.8,2.2-2.5c0.3,1.2-0.1,2.6-1.1,3.3C202.6,115,202.5,114.8,202.8,112.3z"/>
<path class="st0" d="M191.8,124.9l-0.8,3.2c-2.2,0.3-2.2,0.3-2.8-1.4l1.7,1.3l1.5-3.2L191.8,124.9z"/>
<path class="st0" d="M198.4,117.4l0.4,3.5C196.5,119.1,196.5,118.3,198.4,117.4z"/>
<path class="st0" d="M181,134.7l-2.2-3.6c1.5,0.6,1.7,2.1,2.8,3.1L181,134.7z"/>
<path class="st0" d="M194.8,120.9l-2.1,2.9C192.5,122.1,192.8,121.7,194.8,120.9z"/>
<path class="st0" d="M166.6,48.2c-0.4-1.3,0.1-2.8,0.3-4.2s0.2-2.9,0.3-4.3c0-1.5,0.1-3,0.3-4.5c0.3-1.4-0.8-2.6-0.2-4.1
	c0.5-1.3,0.2-3,0.1-4.5s-0.3-2.9-0.4-4.3s0-3,0-4.6l8.8-1.1c1.1,1,2.2,1.9,3.4,2.8c1.4,0.8,2.3,2.3,2.2,3.9c-0.1,1.5,0,3,0.1,4.6
	c0.2,1.3-0.4,2.5-1.5,3.2c0,0.2,0,0.5,0.1,0.5c2.4,1.8,1.9,4.3,1.7,6.8c0,0.5-0.4,1-0.3,1.4c0.4,2.5-0.6,4.2-2.4,6
	c-1.8,1.7-4.2,2.6-6.7,2.5C170.6,48.3,168.8,48.2,166.6,48.2z M168,47.6c2.6-0.3,5.2-0.6,7.7-0.9c0.5-0.1,1-0.3,1.4-0.7
	c1.1-1.1,2.1-2.2,3-3.4c0.4-0.5,0.6-1.1,0.6-1.7c0.2-1.3,0.2-2.5,0.3-3.8c0.1-1.8,0.2-3.7-1.8-4.8c-0.4-0.2-0.5-0.7-0.8-1.1
	c0.3-0.3,0.4-0.7,0.7-0.8c1.5-0.8,1.8-2.1,1.6-3.6c-0.1-1.7-0.2-3.5-0.3-4.7c-1.6-1.5-2.8-2.6-4-3.7c-0.3-0.3-0.7-0.6-1.2-0.6
	c-2.4,0.3-4.8,0.7-7.2,1c0.2,4.9,0.5,9.6,0.5,14.4S168.2,42.7,168,47.6L168,47.6z"/>
<path class="st0" d="M184.7,55.4c1.7-2,3.4-4.1,5.1-6.1c0.4-0.5,0.9-0.9,1.4-1.3c1-1.1,1.5-2.5,1.3-4c-0.4-6-0.4-12.1-0.6-18.1
	c-0.1-1.5,0-3,0.4-4.5c0.1,2.5,0.2,4.9,0.2,7.4c0.1,4.8,0.2,9.5,0.4,14.3c0,1-0.1,2.2,1.6,2.1l-0.1-0.1c-1.6,3.3-4.4,5.7-6.4,8.7
	c-0.8,1.2-2.3,1-3.2,1.8L184.7,55.4z"/>
<path class="st0" d="M183.4,44.8c-0.2-0.4-0.3-0.8-0.4-1.2c0.1-8.6,0.2-17.1,0.4-25.7c6.8-1.1,7.5-1.1,8.8,0l-8.4,0.3v26.5
	L183.4,44.8z"/>
<path class="st0" d="M184.9,55.6c-0.1,1.2-1.2,2-2.3,1.9c-3.4,0.1-6.8,0.3-10.1,0.4c-1.6,0-3.1,0-5,0c-0.5-2.6-0.4-5.2,0.2-7.8
	l0.4,7c2.7,0,5.3,0,7.9,0c1.9,0,3.8-0.4,5.7-0.4c1.2,0,2.3-0.4,3.2-1.2L184.9,55.6z"/>
<path class="st0" d="M194.5,45c-0.2-0.9-0.4-1.9-0.5-2.8c-0.3-1.1,0.4-2.2,1.5-2.5c0.3-0.1,0.5-0.1,0.8,0c1.2,0,2.5,0.2,3.9,0.3
	c0.2,1.8,0.7,3.6-0.4,5.5c-1.2-1.4,0.8-3.9-1.9-4.7l-0.7,3.4l-1.6-3.2c-0.7,1-0.3,1.9-0.3,2.7S195.3,45,194.5,45L194.5,45z"/>
<path class="st0" d="M197.2,33.1l-3.5-0.7c1.2-1.3,2.4-0.8,3.5-0.8s2.2-0.4,3.2,0.9l-4.3,2.5l4.6,0.9c-1.3,1-2.5,1-7.1,0
	c0.7-0.6,1.2-1,1.7-1.4S196.5,33.7,197.2,33.1z"/>
<path class="st0" d="M193.4,21.9l2.1-3.3l-2.6-0.8c1.8-0.8,2.5-0.9,7.4-0.4c-0.2,1.4-1.5,0.7-2.2,1.2l2.2,2.9
	c-0.9,0.5-0.9,0.5-3.9-2.2l-2.4,2.9L193.4,21.9z"/>
<path class="st0" d="M200.6,27.4l-6.7,1.8l1.8-3.5l-2.7-1.6c0.6-0.2,1-0.5,1.3-0.4c2.3,0.8,4.5,1.8,6.5,3.1L200.6,27.4z M196.4,25.8
	l-0.1,1.4l1.8-0.2v-0.4L196.4,25.8z"/>
<path class="st0" d="M182.3,46.1l-2.8,2.2c0.4-1.2,1.2-2.1,2.2-2.8L182.3,46.1z"/>
<path class="st0" d="M172.8,35.5c2.6-0.7,3.2-0.3,2.9,2c-0.2,1.8-0.6,3.6-0.9,5.4c0,0.9-0.7,1.5-1.6,1.5c-0.1,0-0.1,0-0.2,0
	c-1.1-0.1-1.2-0.9-1.3-1.7c-0.1-0.4-0.1-0.8,0-1.2C172.1,39.5,172.5,37.5,172.8,35.5z M172.6,43.7c0.8-0.3,1.3-0.4,1.4-0.6
	c0.8-2.2,1.2-4.6,1.2-6.9h-1.8L172.6,43.7z"/>
<path class="st0" d="M175.6,30c-2.4-0.3-3.1-0.9-3.2-2.9c-0.1-1.8,0-3.5,0-5.5h3.2L175.6,30z M173.3,28.5l1.7-0.1v-6l-2.3,0.2
	L173.3,28.5z"/>
<path class="st0" d="M171.8,222.9l1.2-3.3c-0.2-0.2-0.4-0.4-0.5-0.4c-3.9,0.3-7.8,0.6-11.6,1c-0.7,0.1-1.4,0.2-2.1,0.2
	c-3-0.1-4.3-1.7-3.4-4.5c1-3.1,2.2-6.2,3.3-9.3c1.4-3.9,2.7-7.7,4-11.6c1.5-4.1,2.9-8.3,4.4-12.4c1.9-5.5,3.9-10.9,5.9-16.4
	c0.9-2.4,1.4-2.9,4-2.3c4,0.8,8-0.2,11.9-0.2c3.5,0,7-0.2,10.4-0.4c3.2-0.1,6.4-0.4,9.6-0.5c1.3-0.1,2.5,0,3.7,0
	c-0.8,1.4-1.6,2.5-2.2,3.7c-1.5,3-2.8,6.2-4.4,9.2c-2.2,4.2-4.6,8.4-7,12.6c-1.4,2.5-2.9,5-4.3,7.6c-0.5,0.9-0.9,1.8-1.6,3
	c1,0.4,2.1,0.6,3.2,0.8c3.8-0.1,7.6-0.4,11.4-0.6c1.4,0.1,2.8,0.3,4.2,0.6c-9.8,9.9-18.9,19.3-28.2,28.6s-17.8,19.4-27.5,28.4
	c-2.1-2.3-2.2-2.5-1-4.5c1.5-2.7,3.3-5.3,4.7-8c3-5.6,5.9-11.3,8.9-16.9c0.9-1.5,1.9-2.9,3-4.3c0.1,0.3,0.1,0.6,0,0.9
	c-1.8,3.7-3.6,7.4-5.4,11c-1.7,3.4-3.6,6.7-5.4,10c-1.5,2.7-3,5.4-4.4,8l0.5,0.4c0.5-0.3,1.1-0.6,1.6-1c0.8-0.8,1.5-1.6,2.3-2.4
	c3.7-3.9,7.4-7.8,11.1-11.6c1.4-1.5,2.8-3.1,4.2-4.5c5.7-5.8,11.4-11.7,17.2-17.4c4.6-4.6,9.4-9,14-13.5c0.6-0.7,1.2-1.4,1.7-2.1
	c-6.3-0.1-12.2,1.3-18.2-0.3c1.7-3.1,3.3-6,4.7-9c1.6-3.6,4.6-6.5,4.6-10.8c0-0.5,0.6-1,0.9-1.5c2.5-4,5-7.9,7.5-11.9
	c0.4-0.8,0.6-1.7,0.8-2.6c-0.6-0.1-1.2-0.1-1.8-0.1c-2.6,0.2-5.2,0.5-7.8,0.6c-7.9,0.3-15.8,0.5-23.7,0.7c-1.2-0.2-2.3,0.7-2.6,1.9
	c-1.7,5.1-3.4,10.3-5.2,15.4c-3.8,10.6-7.6,21.1-11.4,31.7c-0.4,1.4-0.7,2.8-0.8,4.2c6.7,1.1,12.9-0.8,19.3-1
	c-0.8,1.5-1.5,2.8-2.3,4C172.8,222,172.4,222.5,171.8,222.9z"/>
<path class="st0" d="M185.9,197.6v6.3c-2.8-0.1-5.6-0.4-8.3-0.3s-5.3,0.6-7.9,0.9c-1.3-3.3,0.8-6.8,3.8-6.8
	C177.5,197.5,181.4,197.6,185.9,197.6z M171.1,202.5l13.6-0.7l-0.2-2.5c-1.3,0.2-2.5,0.4-3.7,0.4c-2.6,0.2-5.3,0.4-7.9,0.4
	C171.4,200,171.3,200.9,171.1,202.5z"/>
<path class="st0" d="M174.8,185.6c-0.9-2-0.7-4.4,0.7-6.2c4.4-0.4,9.1-0.8,13.8-1.1c2.1-0.1,2.4,0.1,2.6,2.2
	c0.2,1.3,0.2,2.7,0.3,4.1L174.8,185.6z M190.5,180.1l-14.6,1l-0.5,2.9l15.3-0.9L190.5,180.1z"/>
</svg>
