<svg id="Layer_1" data-name="Layer 1" xmlns="http://www.w3.org/2000/svg" width="1502.04" height="841.28" viewBox="0 0 1502.04 841.28"><title>Artboard 1</title><g opacity="0.5"><path d="M160.83,615.95c7.45.61,184.58.61,192,.61,21.77,0,39.18-8.09,39.18-41.66V161.13h68.42v409c0,87.06-46.74,109.47-98.25,109.47-12.45,0-190.19,0-201.38-1.26Z"/><path d="M365.45,261.25v15.54c0,44.79-13.67,73.39-44.14,87.65,36.69,14.32,51,47.27,51,93.28v35.53c0,67.19-35.44,103.25-103.86,103.25H160.83V161.19H264.08C335,161.13,365.45,194.08,365.45,261.25Zm-136.2-38V338.41H256c25.5,0,40.9-11.19,40.9-46V268.14c0-31.08-10.58-44.79-34.82-44.79Zm0,177.25v133.6H268.4c23,0,35.44-10.58,35.44-42.92v-38c0-40.43-13.06-52.85-44.14-52.85Z"/><path d="M979.2,281.14V596.46H917.65V161.16h85.83l70.26,260.57V161.13h60.94V596.43h-70.26Z"/><path d="M1223,344.57h97.67v62.2H1223V534.15h118.18v62.2H1154.58V161h186.57V223.3H1223Z"/><path d="M519.24,665.47c0,13.85-8,14.61-20.45,14.61-16.89,0-20.45-5.38-20.45-22.41,0-15.78,2.51-22.67,20.45-22.67s20.45,5.29,20.45,24.51H488.91c0,9.49.26,12.5,9.73,12.5,5.84,0,10,0,10-6.46ZM508.66,652.7c0-9.06-1.34-9.73-10-9.73-9.14,0-9.73,1.93-9.73,9.73Z"/><path d="M576.74,679.49H566.16v-63h10.58Z"/><path d="M664.53,665.47c0,13.85-8,14.61-20.45,14.61-16.89,0-20.45-5.38-20.45-22.41,0-15.78,2.51-22.67,20.45-22.67s20.45,5.29,20.45,24.51h-30.3c0,9.49.26,12.5,9.73,12.5,5.84,0,10,0,10-6.46ZM654,652.7c0-9.06-1.34-9.73-10-9.73-9.14,0-9.73,1.93-9.73,9.73Z"/><path d="M750.1,662.69c0,14.43-5.2,17.3-20.07,17.3-16.21,0-19.72-4.7-19.72-22.5,0-15.45,2.42-22.58,19.72-22.58,13.09,0,20.07,2,20.07,16H739.52c0-6.72-2.1-7.89-9.49-7.89-9.06,0-9.14,3.18-9.14,14.61S720.71,672,730,672c8.76,0,9.49-1.52,9.49-9.23Z"/><path d="M793.19,635.41h5.55v-10h10.58v10H826.2v8.06H809.32v22.58c0,4,0,5.84,4.53,5.84,5.84,0,5.29-4.7,5.29-9.32h9.32c.18,13.35-3.18,17.38-14.61,17.38s-15.1-2.69-15.1-13.85V643.44h-5.55Z"/><path d="M883.44,635.41l-.26,5.84h.41c2.1-4.88,6.63-6.31,11.69-6.31,9.32,0,11.69,5.55,11.69,13.85v3.54H897V650c0-4.44-.41-7-5.38-7-6.31,0-8.15,3.62-8,9.32v27.2H873.15V635.41Z"/><path d="M962.61,625.5H952v-9h10.58Zm0,54H952V635.41h10.58Z"/><path d="M1049.14,662.69c0,14.43-5.2,17.3-20.07,17.3-16.21,0-19.72-4.7-19.72-22.5,0-15.45,2.42-22.58,19.72-22.58,13.09,0,20.07,2,20.07,16h-10.58c0-6.72-2.1-7.89-9.49-7.89-9.06,0-9.14,3.18-9.14,14.61s-.18,14.43,9.14,14.43c8.76,0,9.49-1.52,9.49-9.23Z"/><path d="M1175.24,679.49h-10.58v-63h10.58Z"/><path d="M1219.88,635.41h5.55v-10H1236v10h16.94v8.06H1236v22.58c0,4,0,5.84,4.53,5.84,5.84,0,5.29-4.7,5.29-9.32h9.32c.18,13.35-3.18,17.38-14.61,17.38s-15.1-2.69-15.1-13.85V643.44h-5.55Z"/><path d="M1330.28,672.86H1330c-2.69,5.84-7.57,7.13-13.76,7.13-16.36,0-16.89-10.31-16.89-23.84,0-12.94,1.75-21.24,16.89-21.24,5.38,0,11,1,13.26,6.37h.41V616.5h10.58v63h-10.58Zm-20.45-16.71c0,10-.26,15.78,9.41,15.78,10.84,0,10.4-5.29,10.4-15.78,0-9.41-1.26-13.18-10.4-13.18-7.27,0-9.38,2.19-9.38,13.18Z"/><path d="M834.91,161.13H734.79L677.24,520.94l-65.38-165.8,95.15-194H620.94L589.5,225.4h23.9L549.86,355.17,569.31,266H545.62l21.12-104.88H480.62V596.43H549V462.74l21.15-39.82,66.52,173.51H728l11.69-78.88h84l11.69,78.88h69ZM748.46,458.39l33-220.14,33,220.14Z"/></g><rect x="111.7" y="419.64" width="936.2" height="1.2" transform="translate(-53.3 754.81) rotate(-63.79)" fill="#fff"/><rect x="459.99" y="0.27" width="1.2" height="840.08" fill="#fff"/><rect x="479.89" y="0.27" width="1.2" height="840.08" fill="#fff"/><rect x="1134.1" y="0.27" width="1.2" height="840.08" fill="#fff"/><rect x="1153.97" y="0.27" width="1.2" height="840.08" fill="#fff"/><rect x="371.67" y="0.27" width="1.2" height="840.08" fill="#fff"/><rect x="391.57" y="0.27" width="1.2" height="840.08" fill="#fff"/><rect x="1320.67" y="0.27" width="1.2" height="840.08" fill="#fff"/><rect x="1340.54" y="0.27" width="1.2" height="840.08" fill="#fff"/><rect x="160.24" y="0.27" width="1.2" height="840.08" fill="#fff"/><rect x="25.7" y="419.84" width="936.2" height="1.2" transform="translate(-101.5 677.78) rotate(-63.79)" fill="#fff"/><rect x="48.88" y="420.05" width="937.07" height="1.2" transform="translate(-88.51 699.08) rotate(-63.79)" fill="#fff"/><rect y="595.85" width="1502.04" height="1.2" fill="#fff"/><rect y="615.74" width="1502.04" height="1.2" fill="#fff"/><rect y="678.88" width="1502.04" height="1.2" fill="#fff"/><rect y="160.51" width="1502.04" height="1.2" fill="#fff"/></svg>