<svg id="Layer_1" data-name="Layer 1" xmlns="http://www.w3.org/2000/svg" width="5.61in" height="2.47in" viewBox="0 0 404.01 177.6"><title>Artboard 1</title><path d="M0,155.71c2.55.21,63.18.21,65.73.21,7.45,0,13.41-2.77,13.41-14.26V0h23.42V140c0,29.8-16,37.47-33.63,37.47-4.26,0-65.1,0-68.93-.43Z" fill="#2e2a25"/><path d="M70,34.27v5.32c0,15.33-4.68,25.12-15.11,30,12.56,4.9,17.46,16.18,17.46,31.93v12.13c0,23-12.13,35.34-35.55,35.34H0V0H35.34C59.6,0,70,11.28,70,34.27Zm-46.62-13V60.67h9.15c8.73,0,14-3.83,14-15.75v-8.3C46.62,26,43,21.29,34.7,21.29Zm0,60.67v45.77H36.83C44.7,127.72,49,124.1,49,113V100C49,86.21,44.49,82,33.85,82Z" fill="#2e2a25"/><path d="M280.12,41.08V149H259V0h29.38l24.05,89.19V0h20.86V149H309.28Z" fill="#eb0029"/><path d="M363.56,62.8H397V84.08H363.56v43.64H404V149H340.14V0H404V21.29H363.56Z" fill="#eb0029"/><path d="M122.67,172.63c0,4.74-2.73,5-7,5-5.78,0-7-1.84-7-7.67,0-5.4.86-7.76,7-7.76s7,1.81,7,8.39H112.3c0,3.25.09,4.28,3.33,4.28,2,0,3.42,0,3.42-2.21Zm-3.62-4.37c0-3.1-.46-3.33-3.42-3.33-3.13,0-3.33.66-3.33,3.33Z" fill="#2e2a25"/><path d="M142.36,177.43h-3.62V155.87h3.62Z" fill="#2e2a25"/><path d="M172.41,172.63c0,4.74-2.73,5-7,5-5.78,0-7-1.84-7-7.67,0-5.4.86-7.76,7-7.76s7,1.81,7,8.39H162c0,3.25.09,4.28,3.33,4.28,2,0,3.42,0,3.42-2.21Zm-3.62-4.37c0-3.1-.46-3.33-3.42-3.33-3.13,0-3.33.66-3.33,3.33Z" fill="#2e2a25"/><path d="M201.69,171.68c0,4.94-1.78,5.92-6.87,5.92-5.55,0-6.75-1.61-6.75-7.7,0-5.29.83-7.73,6.75-7.73,4.48,0,6.87.69,6.87,5.46h-3.62c0-2.3-.72-2.7-3.25-2.7-3.1,0-3.13,1.09-3.13,5s-.06,4.94,3.13,4.94c3,0,3.25-.52,3.25-3.16Z" fill="#2e2a25"/><path d="M216.45,162.34h1.9v-3.42H222v3.42h5.78v2.76H222v7.73c0,1.38,0,2,1.55,2,2,0,1.81-1.61,1.81-3.19h3.19c.06,4.57-1.09,5.95-5,5.95s-5.17-.92-5.17-4.74V165.1h-1.9Z" fill="#2e2a25"/><path d="M247.34,162.34l-.09,2h.14c.72-1.67,2.27-2.16,4-2.16,3.19,0,4,1.9,4,4.74v1.21H252v-.78c0-1.52-.14-2.41-1.84-2.41-2.16,0-2.79,1.24-2.73,3.19v9.31H243.8V162.34Z" fill="#2e2a25"/><path d="M274.43,158.95h-3.62v-3.07h3.62Zm0,18.48h-3.62V162.34h3.62Z" fill="#2e2a25"/><path d="M304.05,171.68c0,4.94-1.78,5.92-6.87,5.92-5.55,0-6.75-1.61-6.75-7.7,0-5.29.83-7.73,6.75-7.73,4.48,0,6.87.69,6.87,5.46h-3.62c0-2.3-.72-2.7-3.25-2.7-3.1,0-3.13,1.09-3.13,5s-.06,4.94,3.13,4.94c3,0,3.25-.52,3.25-3.16Z" fill="#2e2a25"/><path d="M347.21,177.43h-3.62V155.87h3.62Z" fill="#2e2a25"/><path d="M362.5,162.34h1.9v-3.42H368v3.42h5.78v2.76H368v7.73c0,1.38,0,2,1.55,2,2,0,1.81-1.61,1.81-3.19h3.19c.06,4.57-1.09,5.95-5,5.95s-5.17-.92-5.17-4.74V165.1h-1.9Z" fill="#2e2a25"/><path d="M400.28,175.16h-.11c-.92,2-2.59,2.44-4.71,2.44-5.6,0-5.78-3.53-5.78-8.16,0-4.43.6-7.27,5.78-7.27,1.84,0,3.77.34,4.54,2.18h.14v-8.48h3.62v21.55h-3.62Zm-7-5.72c0,3.42-.09,5.4,3.22,5.4,3.71,0,3.56-1.81,3.56-5.4,0-3.22-.43-4.51-3.56-4.51C394,164.93,393.3,165.65,393.3,169.44Z" fill="#2e2a25"/><path d="M230.72,0H196.45l-19.7,123.16L154.37,66.41,186.94,0H157.48L146.73,22h8.18L133.16,66.45l6.63-30.54h-8.11L138.91,0H109.45V149h23.41V103.24l7.24-13.63L162.88,149h31.23l4-27h28.74l4,27h23.63ZM201.13,101.75,212.41,26.4l11.29,75.35Z" fill="#eb0029"/></svg>