<?xml version="1.0" encoding="utf-8"?>
<!-- Generator: Adobe Illustrator 21.1.0, SVG Export Plug-In . SVG Version: 6.00 Build 0)  -->
<svg version="1.1" id="Layer_1" xmlns="http://www.w3.org/2000/svg" xmlns:xlink="http://www.w3.org/1999/xlink" x="0px" y="0px"
	 viewBox="0 0 1502 841.3" style="enable-background:new 0 0 1502 841.3;" xml:space="preserve">
<style type="text/css">
	.st0{opacity:0.5;}
	.st1{fill:#FFFFFF;stroke:#FFFFFF;stroke-miterlimit:10;}
</style>
<title>Artboard 1</title>
<g class="st0">
	<path d="M160.8,615.9c7.4,0.6,184.6,0.6,192,0.6c21.8,0,39.2-8.1,39.2-41.7V161.1h68.4v409c0,87.1-46.7,109.5-98.3,109.5
		c-12.4,0-190.2,0-201.4-1.3V615.9z"/>
	<path d="M365.5,261.2v15.5c0,44.8-13.7,73.4-44.1,87.6c36.7,14.3,51,47.3,51,93.3v35.5c0,67.2-35.4,103.2-103.9,103.2H160.8V161.2
		h103.2C335,161.1,365.5,194.1,365.5,261.2z M229.3,223.3v115.1H256c25.5,0,40.9-11.2,40.9-46v-24.2c0-31.1-10.6-44.8-34.8-44.8
		L229.3,223.3z M229.3,400.5v133.6h39.1c23,0,35.4-10.6,35.4-42.9v-38c0-40.4-13.1-52.9-44.1-52.9L229.3,400.5z"/>
	<path d="M979.2,281.1v315.3h-61.6V161.2h85.8l70.3,260.6V161.1h60.9v435.3h-70.3L979.2,281.1z"/>
	<path d="M1223,344.6h97.7v62.2H1223v127.4h118.2v62.2h-186.6V161h186.6v62.3H1223V344.6z"/>
	<path d="M519.2,665.5c0,13.8-8,14.6-20.5,14.6c-16.9,0-20.5-5.4-20.5-22.4c0-15.8,2.5-22.7,20.5-22.7c17.9,0,20.5,5.3,20.5,24.5
		h-30.3c0,9.5,0.3,12.5,9.7,12.5c5.8,0,10,0,10-6.5L519.2,665.5z M508.7,652.7c0-9.1-1.3-9.7-10-9.7c-9.1,0-9.7,1.9-9.7,9.7H508.7z"
		/>
	<path d="M576.7,679.5h-10.6v-63h10.6V679.5z"/>
	<path d="M664.5,665.5c0,13.8-8,14.6-20.5,14.6c-16.9,0-20.5-5.4-20.5-22.4c0-15.8,2.5-22.7,20.5-22.7c17.9,0,20.5,5.3,20.5,24.5
		h-30.3c0,9.5,0.3,12.5,9.7,12.5c5.8,0,10,0,10-6.5L664.5,665.5z M654,652.7c0-9.1-1.3-9.7-10-9.7c-9.1,0-9.7,1.9-9.7,9.7H654z"/>
	<path d="M750.1,662.7c0,14.4-5.2,17.3-20.1,17.3c-16.2,0-19.7-4.7-19.7-22.5c0-15.5,2.4-22.6,19.7-22.6c13.1,0,20.1,2,20.1,16
		h-10.6c0-6.7-2.1-7.9-9.5-7.9c-9.1,0-9.1,3.2-9.1,14.6c0,11.4-0.2,14.4,9.1,14.4c8.8,0,9.5-1.5,9.5-9.2L750.1,662.7z"/>
	<path d="M793.2,635.4h5.6v-10h10.6v10h16.9v8.1h-16.9v22.6c0,4,0,5.8,4.5,5.8c5.8,0,5.3-4.7,5.3-9.3h9.3
		c0.2,13.4-3.2,17.4-14.6,17.4c-11.4,0-15.1-2.7-15.1-13.8v-22.7h-5.6L793.2,635.4z"/>
	<path d="M883.4,635.4l-0.3,5.8h0.4c2.1-4.9,6.6-6.3,11.7-6.3c9.3,0,11.7,5.6,11.7,13.8v3.5H897V650c0-4.4-0.4-7-5.4-7
		c-6.3,0-8.2,3.6-8,9.3v27.2h-10.5v-44.1H883.4z"/>
	<path d="M962.6,625.5H952v-9h10.6V625.5z M962.6,679.5H952v-44.1h10.6V679.5z"/>
	<path d="M1049.1,662.7c0,14.4-5.2,17.3-20.1,17.3c-16.2,0-19.7-4.7-19.7-22.5c0-15.5,2.4-22.6,19.7-22.6c13.1,0,20.1,2,20.1,16
		h-10.6c0-6.7-2.1-7.9-9.5-7.9c-9.1,0-9.1,3.2-9.1,14.6c0,11.4-0.2,14.4,9.1,14.4c8.8,0,9.5-1.5,9.5-9.2L1049.1,662.7z"/>
	<path d="M1175.2,679.5h-10.6v-63h10.6V679.5z"/>
	<path d="M1219.9,635.4h5.6v-10h10.6v10h16.9v8.1H1236v22.6c0,4,0,5.8,4.5,5.8c5.8,0,5.3-4.7,5.3-9.3h9.3
		c0.2,13.4-3.2,17.4-14.6,17.4s-15.1-2.7-15.1-13.8v-22.7h-5.6V635.4z"/>
	<path d="M1330.3,672.9h-0.3c-2.7,5.8-7.6,7.1-13.8,7.1c-16.4,0-16.9-10.3-16.9-23.8c0-12.9,1.8-21.2,16.9-21.2c5.4,0,11,1,13.3,6.4
		h0.4v-24.8h10.6v63h-10.6L1330.3,672.9z M1309.8,656.1c0,10-0.3,15.8,9.4,15.8c10.8,0,10.4-5.3,10.4-15.8c0-9.4-1.3-13.2-10.4-13.2
		C1312,643,1309.9,645.2,1309.8,656.1L1309.8,656.1z"/>
	<path d="M834.9,161.1H734.8l-57.6,359.8l-65.4-165.8l95.2-194h-86.1l-31.4,64.3h23.9l-63.5,129.8l19.5-89.2h-23.7l21.1-104.9h-86.1
		v435.3H549V462.7l21.2-39.8l66.5,173.5H728l11.7-78.9h84l11.7,78.9h69L834.9,161.1z M748.5,458.4l33-220.1l33,220.1H748.5z"/>
</g>
<g>
	
		<rect x="111.7" y="419.6" transform="matrix(0.4417 -0.8972 0.8972 0.4417 -53.3047 754.8145)" class="st1" width="936.2" height="1.2"/>
	<rect x="460" y="0.3" class="st1" width="1.2" height="840.1"/>
	<rect x="479.9" y="0.3" class="st1" width="1.2" height="840.1"/>
	<rect x="1134.1" y="0.3" class="st1" width="1.2" height="840.1"/>
	<rect x="1154" y="0.3" class="st1" width="1.2" height="840.1"/>
	<rect x="371.7" y="0.3" class="st1" width="1.2" height="840.1"/>
	<rect x="391.6" y="0.3" class="st1" width="1.2" height="840.1"/>
	<rect x="1320.7" y="0.3" class="st1" width="1.2" height="840.1"/>
	<rect x="1340.5" y="0.3" class="st1" width="1.2" height="840.1"/>
	<rect x="160.2" y="0.3" class="st1" width="1.2" height="840.1"/>
	
		<rect x="25.7" y="419.8" transform="matrix(0.4417 -0.8972 0.8972 0.4417 -101.5025 677.7786)" class="st1" width="936.2" height="1.2"/>
	
		<rect x="48.9" y="420.1" transform="matrix(0.4417 -0.8972 0.8972 0.4417 -88.508 699.078)" class="st1" width="937.1" height="1.2"/>
	<rect y="595.8" class="st1" width="1502" height="1.2"/>
	<rect y="615.7" class="st1" width="1502" height="1.2"/>
	<rect y="678.9" class="st1" width="1502" height="1.2"/>
	<rect y="160.5" class="st1" width="1502" height="1.2"/>
</g>
</svg>
