<svg id="Layer_1" data-name="Layer 1" xmlns="http://www.w3.org/2000/svg" width="3.9in" height="3.3in" viewBox="0 0 277.9 239.8"><title>Artboard 1</title><path d="M15.7,212H10.2c-2.7,0-4.3,1.4-4.9,4.1l-1.6,9c-.5,2.7.7,4.1,3.3,4.1h5.5c2.7,0,4.3-1.4,4.9-4.1l.4-2.2H13.4l-.3,1.8c-.1.4-.3.7-.7.7H8.9c-.4,0-.6-.2-.5-.7l1.4-8.2c.1-.4.3-.7.7-.7h3.5c.4,0,.6.2.5.7l-.3,1.8h4.4l.4-2.2C19.4,213.4,18.3,212,15.7,212Z" fill="#fff"/><polygon points="54.8 224.6 53.7 212 49 212 51.9 229.3 49 235 53.4 235 65.2 212 60.6 212 54.8 224.6" fill="#fff"/><path d="M104.3,212H98.8c-2.7,0-4.3,1.4-4.9,4.1l-1.6,9c-.5,2.7.7,4.1,3.3,4.1h5.5c2.7,0,4.3-1.4,4.9-4.1l.4-2.2H102l-.3,1.8c-.1.4-.3.7-.7.7H97.5c-.4,0-.6-.2-.5-.7l1.4-8.2c.1-.4.3-.7.7-.7h3.5c.4,0,.6.2.5.7l-.3,1.8h4.4l.4-2.2C108.1,213.4,107,212,104.3,212Z" fill="#fff"/><polygon points="136.3 229.3 140.7 229.3 145 205.3 140.5 205.3 136.3 229.3" fill="#fff"/><polygon points="175.7 209.4 180.3 209.4 181 205.3 176.4 205.3 175.7 209.4" fill="#fff"/><polygon points="172.3 229.3 176.7 229.3 179.8 212 175.4 212 172.3 229.3" fill="#fff"/><path d="M221.4,212h-1c-2.4,0-4,1.7-5,2.7l.5-2.7h-4.4l-3,17.3h4.4l2.2-12.2a7.7,7.7,0,0,1,3.9-1.1h.9c.4,0,.6.2.5.7l-2.2,12.6h4.4l2.3-13.1C225.2,213.4,224.1,212,221.4,212Z" fill="#fff"/><path d="M266.4,212l-.5,2.7a4.4,4.4,0,0,0-4-2.7h-1.3c-2.7,0-4.3,1.4-4.9,4.1l-1.6,8.7c-.5,2.7.7,4.1,3.3,4.1h1.3c2.4,0,4-1.7,5-2.7l-.8,4.7c-.1.4-.2.6-.6.6h-7.1l-.6,3.5h8.1c2.7,0,4.3-1.4,4.9-4.1l3.3-18.9Zm-2.1,12a7.7,7.7,0,0,1-3.9,1.1h-1.1c-.4,0-.6-.2-.5-.7l1.3-7.9c.1-.4.3-.7.7-.7H262a5.9,5.9,0,0,1,3.5,1.1Z" fill="#fff"/><path d="M277.9,120.8a66.8,66.8,0,0,1-133.6,0h12.4a54.4,54.4,0,1,0,54.4-54.4H191.6l49.7-54h-40l.9-1L212.1.7l.5-.5.2-.2h57.4L219.8,54.6A66.8,66.8,0,0,1,277.9,120.8Z" fill="#faff31"/><path d="M66.9,53.5a65.7,65.7,0,0,0-12.8,1.2L104.4,0H87.1L20.7,72.1A66.7,66.7,0,1,0,66.9,53.5Zm0,121.3a54.4,54.4,0,1,1,54.4-54.4A54.5,54.5,0,0,1,66.9,174.7Z" fill="#eb0029"/><path d="M156.8,109H144.4L159,23.6H144.7L166.5,0h9.1Z" fill="#fff"/><rect x="3" y="198.9" width="268.6" height="2.07" fill="#fff"/><path d="M271.6,239.8H3v-2.1H271.6ZM4,238.8H4Z" fill="#fff"/></svg>