<?xml version="1.0" encoding="utf-8"?>
<!-- Generator: Adobe Illustrator 21.1.0, SVG Export Plug-In . SVG Version: 6.00 Build 0)  -->
<svg version="1.1" id="Layer_1" xmlns="http://www.w3.org/2000/svg" xmlns:xlink="http://www.w3.org/1999/xlink" x="0px" y="0px"
	 viewBox="0 0 243.7 216.5" style="enable-background:new 0 0 243.7 216.5;" xml:space="preserve">
<style type="text/css">
	.st0{opacity:0.5;}
	.st1{fill:#FFFFFF;}
	.st2{fill:#F3EB34;}
</style>
<title>Artboard 1</title>
<g class="st0">
	<path class="st1" d="M34.2,173.8h-3.9c-1.9,0-3.1,1-3.5,2.9l-1.1,6.4c-0.4,1.9,0.5,2.9,2.4,2.9H32c1.9,0,3.1-1,3.5-2.9l0.3-1.5
		h-3.2l-0.2,1.3c-0.1,0.3-0.2,0.5-0.5,0.5h-2.5c-0.3,0-0.4-0.1-0.4-0.5l1-5.8c0.1-0.3,0.2-0.5,0.5-0.5H33c0.3,0,0.4,0.1,0.4,0.5
		l-0.2,1.3h3.2l0.3-1.5C36.8,174.8,36,173.8,34.2,173.8z"/>
	<polygon class="st1" points="61.9,182.7 61.1,173.8 57.8,173.8 59.9,186 57.8,190.1 60.9,190.1 69.3,173.8 66,173.8 	"/>
	<path class="st1" d="M97.1,173.8h-3.9c-1.9,0-3.1,1-3.5,2.9l-1.1,6.4c-0.4,1.9,0.5,2.9,2.4,2.9h3.9c1.9,0,3.1-1,3.5-2.9l0.3-1.5
		h-3.2l-0.2,1.3c-0.1,0.3-0.2,0.5-0.5,0.5h-2.5c-0.3,0-0.4-0.1-0.4-0.5l1-5.8c0.1-0.3,0.2-0.5,0.5-0.5h2.5c0.3,0,0.4,0.1,0.4,0.5
		l-0.2,1.3h3.2l0.3-1.5C99.8,174.8,99,173.8,97.1,173.8z"/>
	<polygon class="st1" points="119.8,186 123,186 126,169 122.8,169 	"/>
	<polygon class="st1" points="147.8,171.9 151.1,171.9 151.6,169 148.3,169 	"/>
	<polygon class="st1" points="145.4,186 148.5,186 150.7,173.8 147.6,173.8 	"/>
	<path class="st1" d="M180.3,173.8h-0.7c-1.7,0-2.8,1.2-3.6,1.9l0.4-1.9h-3.2l-2.1,12.3h3.2l1.5-8.7c0.8-0.5,1.8-0.8,2.8-0.8h0.7
		c0.3,0,0.4,0.1,0.4,0.5l-1.5,9h3.2l1.6-9.3C183,174.8,182.2,173.8,180.3,173.8z"/>
	<path class="st1" d="M212.3,173.8l-0.4,1.9c-0.5-1.1-1.6-1.9-2.8-1.9h-1c-1.9,0-3.1,1-3.5,2.9l-1.1,6.2c-0.4,1.9,0.5,2.9,2.4,2.9h1
		c1.7,0,2.8-1.2,3.6-1.9l-0.6,3.3c-0.1,0.3-0.1,0.4-0.4,0.4h-5.1l-0.4,2.5h5.7c1.9,0,3.1-1,3.5-2.9l2.4-13.4L212.3,173.8z
		 M210.8,182.3c-0.8,0.5-1.8,0.8-2.8,0.8h-0.8c-0.3,0-0.4-0.1-0.4-0.5l1-5.6c0.1-0.3,0.2-0.5,0.5-0.5h0.8c0.9,0,1.8,0.3,2.5,0.8
		L210.8,182.3z"/>
	<path class="st1" d="M220.5,108.9c0,26.2-21.2,47.5-47.4,47.5c-26.2,0-47.5-21.2-47.5-47.4c0,0,0,0,0,0h8.8
		c0,21.3,17.3,38.7,38.6,38.7c21.3,0,38.7-17.3,38.7-38.6S194.4,70.4,173,70.3c0,0,0,0,0,0h-13.8L194.5,32H166l0.6-0.7l7-7.7
		l0.3-0.4l0.1-0.1H215l-35.8,38.8C202.8,65,220.4,85.1,220.5,108.9z"/>
	<path class="st1" d="M70.5,61.1c-3.1,0-6.1,0.3-9.1,0.9l35.8-38.9H84.8L37.7,74.3c-18.9,18.1-19.4,48.1-1.3,67
		c18.1,18.9,48.1,19.4,67,1.3s19.4-48.1,1.3-67C95.7,66.3,83.4,61.1,70.5,61.1z M70.5,147.3c-21.3,0-38.6-17.3-38.6-38.6
		C31.9,87.3,49.2,70,70.5,70s38.6,17.3,38.6,38.6l0,0C109.1,130,91.9,147.3,70.5,147.3L70.5,147.3z"/>
	<polygon class="st1" points="147.7,23.1 141.9,57.1 141.7,58.4 134.4,100.6 125.6,100.6 130.8,70.2 131,68.9 136,39.9 125.8,39.9 
		141.3,23.1 	"/>
	<rect x="25.1" y="164.4" class="st1" width="190.8" height="1.5"/>
	<path class="st1" d="M216,193.5H25.1v-1.5H216V193.5z M25.9,192.8L25.9,192.8z"/>
</g>
<polyline class="st2" points="106.2,0 85.1,22.9 84.7,23.3 84.4,23.6 77.4,31.3 76.7,32 37.6,74.5 37.6,74.5 33.7,78.7 33.7,78.7 
	33.7,78.7 23.3,90 13.8,100.2 13.2,100.9 6.1,108.6 5.5,109.3 0,115.2 "/>
<polygon class="st2" points="106.6,0 85.5,22.9 85.3,23.1 85.2,23.3 84.9,23.6 77.8,31.3 77.2,32 31.5,81.6 31.5,81.6 23.3,90.5 
	14.3,100.2 13.7,100.9 6.6,108.6 6,109.3 0,115.8 0,114.7 5,109.3 5.7,108.6 12.7,100.9 13.4,100.2 23.3,89.5 76.2,32 76.9,31.3 
	83.9,23.6 84.2,23.3 84.6,22.9 105.7,0 "/>
<polyline class="st2" points="118.5,0 97.4,22.9 97.2,23.1 97.1,23.3 96.7,23.6 89.7,31.3 89,32 45.6,79.2 45.6,79.2 39.1,86.2 
	39.1,86.2 26.2,100.2 25.5,100.9 23.3,103.4 23.3,103.4 18.5,108.6 17.8,109.3 0,128.6 "/>
<polygon class="st2" points="119,0 97.9,22.9 97.2,23.6 90.2,31.3 89.5,32 62,61.9 47.4,77.7 37.8,88.1 26.7,100.2 26,100.9 
	23.3,103.9 23.2,104 19,108.6 18.3,109.3 0,129.2 0,128.1 17.4,109.3 18,108.6 23.3,102.9 23.4,102.8 25.1,100.9 25.7,100.2 
	88.6,32 89.2,31.3 96.3,23.6 96.6,23.3 96.7,23.1 96.9,22.9 118,0 "/>
<polyline class="st2" points="162.6,0 141.5,22.9 141.3,23.1 141.2,23.3 140.8,23.6 133.8,31.3 133.1,32 125.8,39.9 98.1,70 
	92,76.6 70.3,100.2 69.6,100.9 62.6,108.6 61.9,109.3 40.3,132.7 34.3,139.3 23.3,151.2 19.2,155.7 18.5,156.4 11.5,164 10.8,164.7 
	0,176.5 "/>
<polygon class="st2" points="163.1,0 142,22.9 141.7,23.1 141.6,23.3 141.3,23.6 134.3,31.3 133.6,32 126.3,39.9 98.4,70.2 
	92.3,76.8 70.8,100.2 70.1,100.9 63.1,108.6 62.4,109.3 40.6,133 34.5,139.6 23.3,151.8 19.7,155.7 19,156.4 12,164 11.3,164.7 
	0,177 0,176 10.4,164.7 11,164 18.1,156.4 18.7,155.7 23.3,150.7 34.1,139 40.1,132.5 61.4,109.3 62.1,108.6 69.1,100.9 69.8,100.2 
	91.7,76.4 97.8,69.8 132.6,32 133.3,31.3 140.4,23.6 140.7,23.3 141,22.9 162.1,0 "/>
<polygon class="st2" points="24.5,216.5 45.7,193.5 45.9,193.2 46.3,192.8 47,192.1 58.7,179.3 61.4,176.5 71.1,165.9 72.2,164.7 
	72.5,164.4 72.8,164 79.9,156.4 80.5,155.7 81.4,154.8 81.4,154.8 117.4,115.7 123.3,109.3 123.9,108.6 131,100.9 131.3,100.6 
	131.6,100.2 135.2,96.4 159.2,70.3 194.5,32 194.5,32 195.1,31.3 202.2,23.6 202.5,23.3 202.6,23.1 202.8,22.9 220.5,3.8 223.9,0 
	"/>
<polygon class="st2" points="224.4,0 220.5,4.3 203.3,22.9 203.1,23.1 203,23.3 202.6,23.6 195.6,31.3 194.9,32 159.6,70.3 135,97 
	132.1,100.2 131.8,100.6 131.4,100.9 124.4,108.6 123.7,109.3 117.3,116.3 82,154.6 81,155.7 80.3,156.4 73.3,164 72.9,164.4 
	72.6,164.7 71.6,165.9 61.4,177 58.8,179.8 47.5,192.1 46.8,192.8 46.4,193.2 46.1,193.5 25,216.5 24,216.5 45.2,193.5 45.5,193.2 
	45.9,192.8 46.5,192.1 58.7,178.9 61.3,176 70.6,165.9 71.7,164.7 72,164.4 72.3,164 79.4,156.4 80,155.7 80.8,154.9 117.5,115.1 
	117.5,115.1 117.5,115 122.8,109.3 123.4,108.6 130.5,100.9 130.8,100.6 131.1,100.2 135.3,95.7 194,32 194,32 194.6,31.3 
	201.7,23.6 202,23.3 202.1,23.1 202.3,22.9 220.5,3.2 223.4,0 "/>
<polygon class="st2" points="236.3,0 220.5,17.2 215.2,22.9 214.9,23.1 214.8,23.3 214.5,23.6 213.8,24.3 207.5,31.3 206.8,32 
	179.2,61.9 171.5,70.3 144,100.2 143.3,100.9 136.3,108.6 135.6,109.3 134.4,110.6 126.6,119 92.9,155.7 92.2,156.4 85.2,164 
	84.8,164.4 84.5,164.7 83.5,165.9 59.4,192.1 58.7,192.8 58.3,193.2 58,193.5 36.8,216.5 "/>
<polygon class="st2" points="236.7,0 220.5,17.7 215.6,22.9 215.3,23.3 215,23.6 207.9,31.3 207.3,32 179.6,62 172,70.3 
	144.4,100.2 143.8,100.9 136.7,108.6 136.1,109.3 134.4,111.1 134.4,111.1 126.7,119.4 93.3,155.7 92.7,156.4 85.6,164 85.3,164.4 
	85,164.7 83.9,165.9 59.8,192.1 59.2,192.8 58.8,193.2 58.5,193.5 37.3,216.5 36.4,216.5 57.5,193.5 57.8,193.2 58.2,192.8 
	58.9,192.1 60.6,190.1 61.2,189.5 61.2,189.5 83,165.9 84,164.7 84.3,164.4 84.7,164 91.7,156.4 92.4,155.7 126.5,118.6 
	134.4,110.1 135.1,109.3 135.8,108.6 142.8,100.9 143.5,100.2 171,70.3 206.3,32 207,31.3 214,23.6 214.3,23.3 214.5,23.1 
	214.7,22.9 220.5,16.6 235.8,0 "/>
<rect y="100.2" class="st2" width="243.7" height="0.7"/>
<rect y="108.6" class="st2" width="243.7" height="0.7"/>
<rect y="22.9" class="st2" width="243.7" height="0.7"/>
<rect y="31.3" class="st2" width="243.7" height="0.7"/>
<rect y="155.7" class="st2" width="243.7" height="0.7"/>
<rect y="164" class="st2" width="243.7" height="0.7"/>
<polygon class="st2" points="195.5,0 191.5,4.3 174.4,22.9 174.1,23.1 174,23.3 173.7,23.6 166.7,31.3 166,32 141.7,58.4 
	130.7,70.3 106.1,97 103.2,100.2 102.8,100.6 102.5,100.9 95.5,108.6 94.8,109.3 88.3,116.3 53.1,154.6 52.1,155.7 51.4,156.4 
	44.4,164 44,164.4 43.7,164.7 42.7,165.9 32.5,177 29.9,179.8 22.9,187.3 18.6,192.1 17.9,192.8 17.5,193.2 17.2,193.5 0,212.2 
	0,211.2 16.2,193.5 16.5,193.2 16.9,192.8 17.6,192.1 22.9,186.3 29.7,178.9 32.4,176 41.7,165.9 42.8,164.7 43,164.4 43.4,164 
	50.5,156.4 51.1,155.7 51.8,154.9 88.5,115.1 88.5,115.1 88.5,115 93.8,109.3 94.5,108.6 101.6,100.9 101.9,100.6 102.2,100.2 
	106.3,95.7 141.9,57.1 165,32 165.1,32 165.7,31.3 172.7,23.6 173.1,23.3 173.2,23.1 173.4,22.9 191.5,3.2 194.5,0 "/>
</svg>
