<svg id="Layer_1" data-name="Layer 1" xmlns="http://www.w3.org/2000/svg" width="367.2" height="460.8" viewBox="0 0 367.2 460.8"><title>Artboard 1</title><path d="M189.48,201.77c.5.28,1.1.94,1.66.89,6.68-.5,13.34-1.16,20-1.67,7.28-.55,14.57-1,21.85-1.45,2.06-.13,4.13-.09,6.19-.21,4.74-.28,9.48-.81,14.22-.84a62,62,0,0,1,10.95.94c3.17.55,5.19,3.72,5.16,7.19,0,3.29-1.87,5.47-5.08,6.46-5.28,1.62-10.76,1.67-16.16,2.32-5.61.68-11.23,1.3-16.86,1.81-4.28.38-8.58.52-12.87.83-4.63.33-9.24.88-13.87,1.09s-9,.12-13.52.13c-3.39,0-6.78,0-10.16-.11-3.74-.18-7.37-.8-9.95-4-1.47-1.83-1.53-4.89.21-6.4,3.14-2.73,6.6-4.83,10.88-5.39C184.56,203,186.93,202.33,189.48,201.77ZM177,208.26c-1.69-.35-2.24,1.07-3.25,1.78l.38.51,2.8-2.4,2.7-1.3-.4-.59Zm35-2.52c2.57.34,1.43,2.51,2,4.4l6.37-7-.38-.76c-5,.54-9.93,1.07-14.89,1.66a2.19,2.19,0,0,0-1.19.89c-1.13,1.46-2.23,2.94-3.25,4.46-.19.28,0,.83.09,1.61,1.22-1.06,2.11-1.89,3.05-2.64,1.77-1.42,1.78-1.4,3.77.06L206.59,211l.37.18Zm18.49,8.44c1.67,0,2.63.07,3.57,0,3.8-.32,7.59-.83,11.39-1,3.6-.15,4.06-.43,4.3-4.46l-4.73,3-1.42-3a45.62,45.62,0,0,0-4.82,2.49c-.94.62-1.62.78-2.46.07-1.16-1-2.15-.29-3.06.38S231.86,213,230.56,214.18Zm6.55-11.55c2.64,1.1,3.11,1,4.81-1l-16.19.37,3.67,5A30.5,30.5,0,0,0,237.1,202.62Zm-43,2.44c-3.48-.73-6.63-.8-8.23,2.86a8.42,8.42,0,0,0-.26,1.52l2.32-2.06,1.71,1.39Zm64.76-3.92-2.06,5.25c1.78-2.11,5.45-1.2,6.88-4.45Zm2.1,9.56.22.49a40.76,40.76,0,0,0,5.29-1.92c1.61-.83,1.55-1.78.05-3.7Zm-39.77,4.39c.17-1,.21-1.81-.95-1.94a2.69,2.69,0,0,0-2.93,1.94Zm-43.11,1.11c1.76.34,3,.86,4.48-.1a8.12,8.12,0,0,1-1.63-.75,8.3,8.3,0,0,1-1.11-1.38Zm6.51.47c2.85.1,1.71-2.54,2.91-3.2Zm43.17-3.89c-.42.45-.83.69-.89,1s.4.68.66.71a1,1,0,0,0,.8-.57C228.39,213.65,228.06,213.3,227.79,212.79Z" fill="#faff31"/><path d="M77.58,65.59c-1.08-.29-.83-3.28-2.94-1.24l.76,1.77c-8.65,2.8-23.06,19.15-25.89,29.38,1.8-.23,3.52-.45,5.23-.68,7.26-1,13.22,1.35,17.73,7.1a20.18,20.18,0,0,1,4.16,15.59A32.81,32.81,0,0,1,71.8,130.3a27.89,27.89,0,0,1-3.31,4c-3.65,4.06-7.05,8.3-11.66,11.47-4.35,3-8.65,3.35-13.49,1.77a37.58,37.58,0,0,0-6.9-1.27,4,4,0,0,1-3.06-2.2c-1.06-1.75-2.2-3.45-3.41-5.1a13.25,13.25,0,0,1-2.77-7.71c0-1-.38-2-.31-3.05a30.73,30.73,0,0,1,.78-6.36c1.68-5.84,3.6-11.59,7.18-16.66,2.74-3.87,5.23-7.91,7.74-11.94A81.7,81.7,0,0,1,51,82.39c2.78-3.14,5.34-6.52,8.37-9.4,4.38-4.15,8.29-8.92,14-11.44,1-.45,2.11-1,2.76,0S78.63,63.68,77.58,65.59ZM71.8,113.17a14.36,14.36,0,0,0-1-9.12c-1.42-3-3.56-4.89-7.16-4.91-3.09,0-6.18-.43-9.27-.58-3.85-.2-7.18.67-9,4.58-.25.56-.7,1-1,1.57-2.39,4.45-4.89,8.86-7.09,13.4a57.62,57.62,0,0,0-2.64,7.6,29.17,29.17,0,0,0-1.37,5.06c-.74,5.71,1.5,9.69,6.32,12.64a2.53,2.53,0,0,0,2.22,0c3.11-2,6.63-2.82,10.09-3.83,5.24-1.54,10.09-3.72,13.23-8.53a63.8,63.8,0,0,1,3.53-5.35c2.13-2.64,2.66-5.76,3.1-8.92A24.62,24.62,0,0,0,71.8,113.17ZM59.47,138.64c-5.55,2.3-12,2.1-17,6.19,1.73,1.64,3.36,1.39,5.07.65a30.6,30.6,0,0,1,4.54-1.73C55.19,143,57.34,140.9,59.47,138.64ZM34.72,143.7l-.33.52,1.84,1.16.31-.48Z" fill="#faff31"/><path d="M120.36,93.61c-.62-1.21-.79-2,.33-2.87,1.69-1.35,3.22-2.93,3.29-5.38,0-.37.55-.91,1-1.06,3-1.11,4.77-3.78,6.95-5.89q5.74-5.54,11.27-11.29c1.39-1.44,2.51-3.14,4.21-5.3-1.7.34-2.69.51-3.66.74-6.42,1.53-12.84,3.11-19.28,4.57a20.34,20.34,0,0,1-4.31.31c-.38,0-.77-.45-1.54-.95,2-.89,3.25-2,5.45-2.08,3.35-.12,6.64-1.38,10-2.1,2.82-.6,5.66-1.08,8.47-1.69,1.95-.43,3.86-1,5.79-1.51,2.94-.76,3.41-.5,4.47,2.42a5.26,5.26,0,0,0,.42.76c-3.24,3.61-7.25,6.38-9.68,10.72a24,24,0,0,1-7.23,7.54c-.66.47-1.27,1-2.07,1.66A26,26,0,0,1,137.86,86c1.57,2.4,2.77,5,4.16,7.56a18.45,18.45,0,0,0,1.66,2.54c2.89,3.64,6,7.16,5.9,12.26a1.37,1.37,0,0,0,.19.88c2.14,2.31,1.86,5.09,1.59,7.88s-.46,5.34-.76,8c-.36,3.15-1.82,5.86-3.4,8.55a29.59,29.59,0,0,1-12.85,11.7,10.35,10.35,0,0,0-1.26.9c-.42.29-.84.57-1.57,1l-1.36-2.3c-1.69.88-3.44,1.77-5.16,2.69a13.39,13.39,0,0,1-12.66.34c-3-1.39-6-2.61-9-4.08-2-1-3.44-2.54-3.34-5.08a4.73,4.73,0,0,0-.66-2.3,9.41,9.41,0,0,1-.28-8.63c1.11-2.71,1.68-5.64,2.54-8.46.28-.93.72-1.82,1.09-2.75,1.78.67,2,1.54,1.3,3a20.94,20.94,0,0,0-2,9c-.08,10.18,9.73,15.48,17.51,14.37A23.17,23.17,0,0,0,133,136a49.17,49.17,0,0,0,11.76-18.76,20.46,20.46,0,0,0,.49-12.2A14.21,14.21,0,0,0,142.5,100a31.34,31.34,0,0,0-4.59-4.15c-4.05-3.33-8.7-4.06-13.73-3ZM139.3,90.5c-1-1.65-1.85-3-2.72-4.4-1.88-2.94-5.77-2.61-7.1,1,4.2,1.63,4.27,1.64,6.32,1.09C136.61,89.19,136.74,91.07,139.3,90.5Zm-16.51,55.05-14.07-1.33C113.17,147.34,117.82,148.43,122.79,145.55ZM135,137.87l.46.43c3.95-3.12,5.93-7.66,8.51-11.77l-.48-.36Zm9.22-13.75.63.23c1.5-1.56,1.59-3.57,1.28-5.71ZM101,134.81l-1-5.36C98.69,132,98.73,132.35,101,134.81Z" fill="#faff31"/><path d="M214.72,124.47c1.33,2.4-1.09,3.78-.57,6.25l2.63-4.23,2,.91c-.27,1-.48,2.05-.86,3.05a51.87,51.87,0,0,1-10,16.16c-2.74,3.07-5.37,6.25-8.32,9.7,2.93.11,5.16-1.31,7.6-1.67a25.3,25.3,0,0,1,3-.51c4.37-.1,7.91,3.15,8.85,8,1,5.19.4,10.22-2.91,14.64-1.05,1.4-2,2.86-3,4.3a27.45,27.45,0,0,1-17.08,11.25c-4.47,1-11.2-1.71-12.8-6.53a78.17,78.17,0,0,1-2.59-8.74,8.43,8.43,0,0,1,.65-4.24c1.42-4,3.1-7.84,6.87-10.33,3.48-2.29,5.81-5.69,8.16-9s4.74-6.71,6.88-10.21c3.1-5.08,6-10.29,9-15.42C212.9,126.73,213.74,125.78,214.72,124.47ZM208,162.62l-.63.28c-3-4.31-5.23-4-8.71-2.24a21.76,21.76,0,0,0-10.07,10.06c-1.07,2.08-2.59,3.93-3.76,6a5.19,5.19,0,0,0-.58,2.65c.15,4.05,4.28,7.41,8.36,7.39,2,0,3.46-1.08,5.12-1.78a34.39,34.39,0,0,0,11.07-6.87c3-3,5.37-6.44,3.92-11-.6-1.86-1.93-3.49-3-5.31,4.24.15,5.11,3.47,6,7,1.23-1.79,1.33-3.23.36-4.87a11.82,11.82,0,0,0-6.87-5.44,13.31,13.31,0,0,0-3.6-.05Zm5.41-5.62-.48.55,2,1.85.51-.58Zm-3.85-15.6-.88-.85c-.12.39-.24.78-.35,1.17s-.18.75-.27,1.12l.37.14Zm2.35-7.23.53.25.71-1.6-.48-.22Z" fill="#faff31"/><path d="M267.48,129.84a23.32,23.32,0,0,0-2.72,0c-5.1.6-10.18,1.34-15.29,1.85a44.58,44.58,0,0,1-6.79,0c-.56,0-1.09-.64-1.68-1l2.63-2.9c5.9.48,12-.18,18.18-1,3.17-.45,6.34-.85,9.53-1.06a12.54,12.54,0,0,1,3.9.66,1.41,1.41,0,0,1,.8,1.12c-.06.53-.56,1.46-.83,1.44-2.52-.12-3.2,2.08-4.4,3.47-4.09,4.75-8,9.62-12,14.47-2.59,3.16-5.11,6.38-7.91,9.89,3.18.42,5.88.73,8.57,1.17a16.24,16.24,0,0,1,4.45,1.14c3.95,1.92,5.45,5.1,5.25,9.58-.41,9.23-4.94,16.13-12,21.29-4.4,3.2-9.52,5.24-15.33,3.31-1.63-.54-3.47-.37-5.18-.7a6.45,6.45,0,0,1-3.09-1.16,73,73,0,0,1-5.92-6.23c-2-2.35-2.33-5.22-2.09-8.2.08-1,.43-1.54,1.8-1.59l2,5.05,3.06-1.74-1.89,4.24a33.45,33.45,0,0,0,16.26,4.87c6.65.16,9.36-1.87,11.63-6.71a47.77,47.77,0,0,0,3.52-12.74,2.76,2.76,0,0,0-1.14-2.92,13.68,13.68,0,0,0-7.91-3.2c-3-.19-4-2.85-5.81-4.42-.81-.69-.21-1.76.5-2.45.87-.86,1.91-1.57,2.68-2.51,1.77-2.14,3.24-4.55,5.17-6.52,2.37-2.42,3.84-5.44,5.93-8,.57-.71,1.33-1.27,1.91-2,1.58-1.9,3.11-3.84,4.66-5.76Zm-4.11,46.07a5.42,5.42,0,0,0,.76-5.55Zm-1.24-12.75.51-.73-2-1.09-.31.53Z" fill="#faff31"/><path d="M212,245.27c6.66-1.16,12.62-2.3,18.61-3.21a39.76,39.76,0,0,1,6.73-.16c.54,0,1.07.53,1.76.9a37,37,0,0,1-5.28,8.31c-4,5.26-7.89,10.57-11.81,15.87a3.45,3.45,0,0,0-.3.93,34.69,34.69,0,0,1,3.93,1.76c1.4.83,3.26,1.65,3.83,2.95a17.89,17.89,0,0,1,1.27,6.9c0,3.21-1.72,5.88-3.69,8.31-2.69,3.32-5.6,6.44-9.87,7.67a22.28,22.28,0,0,1-6,1c-4.24,0-8.39-.4-12.06-3.07-2.9-2.11-4.19-5.08-5.05-8.27a4.84,4.84,0,0,1,1-3.4c1.52-2.19,3.31-4.2,5.11-6.43l2.48,1.1c0,.37,0,.62-.07.74-1.23,1.53-2.57,3-3.7,4.58-3.56,5,.38,9.21,4.6,9.13a38.22,38.22,0,0,0,6.13-.67c.76-.14,1.92-.35,1.65-1.77,0-.24.6-.7,1-.93.8-.47,1.67-.82,2.48-1.28,1.71-1,3.46-1.92,3-4.45.86,0,1.47,0,2.06,0a1.83,1.83,0,0,0,2.15-1.34,30.38,30.38,0,0,0,1.19-3.53A3.27,3.27,0,0,0,219,273.1a5.26,5.26,0,0,1-1.19.29c-.91,0-1.82-.13-2.8-.21l-1.28-3.62c.65-.31,1.19-.6,1.75-.82a2.66,2.66,0,0,0,1.92-3.12c-.27-1.8.6-3.17,1.62-4.51q4.93-6.51,9.81-13.06c.16-.21.14-.56.31-1.26-2.3.29-4.42.4-6.47.85a16.17,16.17,0,0,1-9.07-.59C213.07,246.85,212.76,246.18,212,245.27Z" fill="#faff31"/><path d="M38.82,284.9c5.36-.41,10.69-.94,16-1.16,1.69-.07,3.42.68,5.11,1.14.29.08.46.57,1,1.36-2.57.32-4.73.68-6.91.84-4.2.31-8.41.52-12.61.75a2.27,2.27,0,0,0-2.38,1.49c-2.22,5.22-4.6,10.38-6.88,15.58-.53,1.21-.93,2.47-1.56,4.16a13.64,13.64,0,0,0,1.91-.61c1.9-1,3.77-2,5.66-3,.45-.24,1.06-.65,1.41-.51,2.24.89,4.22-.21,6.3-.6,3-.56,8.62,2.11,10.6,5.66,2.58,4.61,2.11,9.42.74,14.11-.52,1.8-2.35,3.24-3.67,4.77A32.46,32.46,0,0,1,51,331.24l-1-.35a11.57,11.57,0,0,1-1.77,2.69c-2.41,2-4.82,4-8,4.84-2.22.61-4.41,1.41-6.64,2.07-4.34,1.28-8,.27-11.47-2.35-1.07-.81-2.07-1.7-3.11-2.56-3.17-2.61-4.28-6.1-2.77-9.95a18.37,18.37,0,0,1,3.29-5.49c4.42-4.92,7.25-10.68,9.73-16.7a76.31,76.31,0,0,1,9-16.36C38.63,286.67,38.59,286,38.82,284.9Zm7.35,22.3,2-1.38a3.15,3.15,0,0,0-3.25.8l1.39.52c1.83,1.07,4,1.8,5.37,3.32s1.63,3.73,2.49,5.88c.79-4.78-1-8.16-4.6-9A15.83,15.83,0,0,0,46.17,307.19Zm5.31,10.33c0-4.24-1.35-6.38-4.92-6.87a67.24,67.24,0,0,0-8.53-.14l-2.28,0c.09,1.55-1.4,1.16-2,1.3-2.1.48-4,1.06-5.08,3.12-1,1.83-3.25,2.76-3.54,5.09-.58,4.61-1.32,9.2-1.69,13.82-.18,2.32.38,2.77,2.78,3.42A14.54,14.54,0,0,0,37,335.91c5.4-2.85,10.57-5.87,12.84-12.27C50.59,321.59,51.47,319.71,51.48,317.52ZM20.24,334.23c.24-3.88,0-4.35-2.47-5.72C17.82,331.19,18.61,333,20.24,334.23Z" fill="#faff31"/><path d="M187.44,244.37c.51.19.9.31,1.28.47,1.64.69,1.88,1.3.9,2.7a14.85,14.85,0,0,1-1.87,2.07c-6.14,6-12.26,12-17.4,18.89-.59.79-1.09,1.65-1.81,2.77,2.32-.12,4.23-.32,6.14-.28a12.11,12.11,0,0,1,11.24,7.71,6.24,6.24,0,0,1-.07,5.1c-1.61,3.1-3.3,6.24-6.45,8.14s-6.24,3.93-10,4.78c-3.12.71-6.16.33-9.21,0-1.65-.2-2.48-1.43-2.93-3.15-1.52-5.82.06-10.95,3.17-15.78,2-3.18,4.19-6.3,6.31-9.43,2.81-4.15,6.27-7.76,9.45-11.61,1.76-2.13,3.74-4.07,5.6-6.11S185.45,246.57,187.44,244.37Zm-4.68,36.12c-.14-.8,0-1.78-.47-2.37a10.51,10.51,0,0,0-7.23-4.56,10.84,10.84,0,0,0-3.35.1c-3.07.58-6.06,1.61-8,4.21a20.61,20.61,0,0,0-3.83,9.74,7.06,7.06,0,0,0,.64,3.82c1.09,2.16,3.14,2.61,6.22,1.88a23.36,23.36,0,0,0,14-8.85C181.67,283.31,183.14,282.32,182.76,280.49Z" fill="#faff31"/><path d="M100.12,309.14a52.75,52.75,0,0,1,5.9,1.93c4,1.88,5,5.66,5.57,9.61.2,1.43.35,2.87.44,4.32a15.6,15.6,0,0,1-4.36,11.72c-1.29,1.44-2.66,2.81-4,4.24a10,10,0,0,1-5.66,3.54,1.54,1.54,0,0,0-.57.23c-4.14,2.78-8.25,1.17-12.3-.19a4.49,4.49,0,0,1-2.22-1.9,55.77,55.77,0,0,1-3-6.11,8.11,8.11,0,0,1,0-7.16c2.67.23,2.69.22,3.06,2.34.26,1.53.51,3.06.66,4.6.5,5.35,4.92,8,9.89,5.84s9-5.73,12.91-9.45a8.8,8.8,0,0,0,2.75-6.41,45,45,0,0,0-.25-7.43c-.76-4.58-2.93-7.36-8.32-7.41a8.26,8.26,0,0,0-4,1.29,49.63,49.63,0,0,0-4.95,3.67c-.85.66-1.86.94-2.37-.08a3,3,0,0,1,.36-2.4c.38-.66,1.24-1,1.87-1.57,4.79-4.14,9.68-8.17,14.31-12.47,3.18-2.95,6-6.27,9.13-9.57-1.67-1.27-3.22-1.08-4.72-1.09-6.42-.08-12.84-.14-19.26-.24-.87,0-1.89.22-2.61-1.32a21.36,21.36,0,0,1,3.32-.14c6.48.78,13,.34,19.44.15a8.91,8.91,0,0,1,3.84.87,2.89,2.89,0,0,1,1.29,4.61,39.22,39.22,0,0,1-4.92,5.46c-3.31,3.11-6.77,6.06-10.15,9.1A10,10,0,0,0,100.12,309.14Z" fill="#faff31"/><path d="M53.92,199.88a6.63,6.63,0,0,0,1.48.54c3.81-.1,7.15,1.71,10,3.63,5.75,3.86,11.23,8.3,11.43,16.23.08,3-.05,6-.2,9-.22,4.3-2,7.92-3.67,11.6s-4.36,6.26-7.34,8.81c-4.35,3.71-9.56,5.27-14.83,7a39.61,39.61,0,0,1-17.25,1.43c-7.94-1-13.58-5.57-16.41-13.26-1.2-3.27-2.87-6.45-2.2-10.12a24.23,24.23,0,0,1,1.3-5.67c4.09-9,9.37-17.17,17.41-23.19,4.43-3.32,9-6.53,13.6-9.57,3.08-2,6.55-3.44,9.62-5.48,5.67-3.77,11.19-7.76,16.72-11.72,3-2.15,5.92-4.4,8.82-6.67,1.38-1.08,2.67-2.26,3.95-3.46s1.68-1.21,3.06-.11a22.83,22.83,0,0,0,2.71,1.59c.12,1.12-1.11,1.53-1.91,2.23-6.37,5.61-13.46,10.21-20.55,14.85-4.82,3.15-9.43,6.61-14.08,10A10.37,10.37,0,0,0,53.92,199.88Zm-25.28,31.8c.14,1.28.35,2.71.46,4.15.42,5.38,3.45,8.7,8.33,10.51a22,22,0,0,0,15.17,0,16,16,0,0,0,4.53-2.6,22.57,22.57,0,0,0,8-11.48,33.6,33.6,0,0,0,1.57-10.06c-.07-2.94-.46-6.31-3.86-7.9-.72-2.48-3.13-3.18-4.89-4.52a6.52,6.52,0,0,0-3.11-1.11,26.35,26.35,0,0,0-10.51,1.36,8.34,8.34,0,0,0-3,1.48,88.53,88.53,0,0,0-7.74,7.1A18,18,0,0,0,28.64,231.68ZM50,206.25c-1.91-1-1.91-1-4.38-.29-1.13.32-2.25,1.08-3.36-.29-.24-.3-1.52,0-2.18.33A24.23,24.23,0,0,0,32,212.53c-1.32,1.59-2.68,3.15-4.1,4.65-7.9,8.4-10.51,20.73-5,31.27a12.22,12.22,0,0,0,5.44,5.64c4,2,8.09,3,12.52,1.39,3.58-1.32,7.13-2.88,10.84-3.62a24.42,24.42,0,0,0,14.56-9.22c5.35-6.63,7.41-14.4,7.76-22.79.18-4.17-1.61-7.34-4.25-10.24-.87-1-8.86-4.14-10.18-4.11-.21,0-.45-.07-.62,0a5.92,5.92,0,0,1-5.89-.46c-1.13-.65-1.62,0-2,1.22a8.32,8.32,0,0,0,1.59.47,28.16,28.16,0,0,1,10,3.12c5.46,2.59,8.83,9.37,8.5,14.07-.49,6.94-2.39,13.31-7.45,18.49s-10.76,9.13-18.3,8.91a25.1,25.1,0,0,1-14.51-5.56c-9.25-7.08-7.62-16.08-2.82-23.91,1.79-2.92,4.45-5.32,6.81-7.87,3.19-3.44,6.65-6.5,11.57-7.2C47.61,206.62,48.81,206.43,50,206.25ZM27.41,239l.63-.12L27,232.92l-.77.15Z" fill="#faff31"/><path d="M117.67,209.4c6,0,10.48,3,14.12,7.47a6.65,6.65,0,0,1,1.34,3c.77,4.56.63,9-2,13.09-.83,1.31-.73,3.19-1.47,4.59-2.11,4-5.75,6.44-9.51,8.59a49.27,49.27,0,0,1-7.66,3.25c-4.2,1.54-8.31.89-12.39-.71a9.26,9.26,0,0,1-5.26-5,34.71,34.71,0,0,1-2.73-6.57,19.53,19.53,0,0,1,.36-10.5A31,31,0,0,1,102,212.78c1.24-1.06,2.83-1.05,4.18-1.58,2.81-1.09,6-1.29,9-1.78A15.44,15.44,0,0,1,117.67,209.4ZM127,232.23c.69-.38,1.76-.6,2-1.17,1.24-2.93,2.56-5.87,2.23-9.2a8.92,8.92,0,0,0-8.62-8.25c.94.82,1.84,1.47,2.59,2.27,1.67,1.78,3.43,3.57,3.93,6.07.21,1-.44,2.3-.08,3.23,1.15,3-.53,5-2.06,7.06-.07-1.71-.25-3.43-.17-5.13.13-3.07-.09-6-2.29-8.41a17.11,17.11,0,0,0-10.64-5.91c-3.37-.44-5.82.69-8.44,2.57-3.33,2.38-4.27,6.8-8,8.76-.15.08-.18.36-.28.54A25.4,25.4,0,0,0,94.43,235a6.39,6.39,0,0,0,.88,3.84,14.5,14.5,0,0,0,13.49,6.57,16.4,16.4,0,0,0,10.72-5c1.55-1.59,3.31-3,5.06-4.53-.89-1.52,0-2.84,1.16-4.15l1.25,2.44C127,233.1,127,232.66,127,232.23Z" fill="#faff31"/><path d="M91.74,247.31a19.08,19.08,0,0,1,2.63,1.22A25,25,0,0,1,97.55,251c2.33,2.14,5.35,2.24,8.19,2.89.18,0,.54,0,.56-.13.62-2.8,2.78-1.36,4.22-1.39a24.65,24.65,0,0,0,13.09-4c2.84-1.88,6.05-3.5,8.41-6.12a7,7,0,0,0,.94-1.12c2-3.55,4.57-6.92,5.9-10.72s2.06-8.09.81-12.16-4.44-6.86-8-9.15c-2.7-1.74-5.76-2.14-8.81-2.62a2.09,2.09,0,0,0-1.22.13c-2.68,1.4-5.12.19-7.94-.55,1.16-1.16,3.42-.8,3-3,1.27,0,2.29,0,3.32,0,6.46.17,11.5-3,15.18-7.74,3.36-4.34.52-11.87-3.62-13.56s-8.08-1.37-12.16-.77c-3,.43-5.86,1.22-8.81,1.7-2.11.34-2.48,0-3.39-2.31,2.7-.93,5.35-2,8.1-2.74a21.37,21.37,0,0,1,10.2.27c1.47.33,2.94.69,4.4,1.05,4.81,1.18,7.24,4.68,8.79,9,1.41,3.95.66,7.26-2.43,10.29-2.61,2.56-5.18,5-8.76,6.13-.24.07-.4.4-.63.64,1.44.69,2.77,1.42,4.17,2,5,2,8.19,5.74,10.6,10.33a5.64,5.64,0,0,1,.59,1.38c1.13,5.28,1,10.6-1.31,15.43a44.5,44.5,0,0,1-9.69,13c-3.31,3.17-7.41,4.74-11.65,6-5.5,1.64-11.2,1.69-16.83,1.48-2.59-.1-5.18-1.23-7.7-2.09-2.16-.73-2.42-3.11-3.78-4.56Z" fill="#faff31"/><path d="M87.23,192.73c2.63.36,2.74.37,2.46,2.72C89,201,88.16,206.45,87.5,212c-.41,3.45-.53,6.94-.88,10.4-.42,4.23-.88,8.46-1.42,12.67a17.91,17.91,0,0,1-2.1,6.14c-.45.84-.07,2.12-.07,3.4-1.3.66-2.18,2.58-4.65,1.59a22.88,22.88,0,0,1-.19-3.08c.28-4.42.64-8.84,1-13.26.14-1.93.21-3.87.36-5.8a46.49,46.49,0,0,1,3.56-14.27,60,60,0,0,0,2.28-7.62,8.12,8.12,0,0,0-.23-2.3l-3.59,2.78L78.79,200c1-.67,1.75-1.5,2.56-1.6C84.68,198,85.57,195.16,87.23,192.73Z" fill="#faff31"/><path d="M248.49,248.44c1.23-2.36,3.06-2.51,5.47-2.58,6.86-.21,13.71-.94,20.55-1.52,4.51-.38,9-.85,13.52-1.32,3.07-.32,6.12-.79,9.19-1,2-.15,4.11,0,6.17,0l7.37,0c1.4,0,1.4,0,2.83,1.66a17.21,17.21,0,0,1-4,1.46c-4.57.47-9.17.84-13.76,1A231.46,231.46,0,0,0,267.13,249a134.72,134.72,0,0,1-14.44,1.21C251.15,250.26,249.36,250.21,248.49,248.44Z" fill="#faff31"/><path d="M74.08,288.33c-2.94,2.92-5.3,5.69-8.63,7.46.26-.45.84-1,.74-1.34-.73-2.31.76-3.5,2.17-4.81,2-1.87,4-3.78,5.91-5.6,4.37,1.38,4.15,5,4,8.15-.26,4.19-1.18,8.34-1.84,12.51a5.78,5.78,0,0,1-.48,1.79C74,310,73.7,314,72.76,317.74c-.52,2.07-1.28,4.1-1.64,6.19-.59,3.39-.95,6.83-1.4,10.23-2.45.14-3.1-.22-2.62-2,1.28-4.84,1.21-10,3.26-14.63a12.18,12.18,0,0,0,.63-3.3c.47-3.64.86-7.3,1.36-10.94.61-4.48,1.31-8.94,2-13.42A8,8,0,0,0,74.08,288.33Z" fill="#faff31"/><path d="M296.77,130.89c-1.37-.91-3-.85-2.85-2.61.17-.14.38-.4.47-.36,4.91,1.83,10,1.18,15,1,8.18-.36,16.27-1.86,24.49-1.88,4.41,0,8.82-.65,13.24-1,.41,0,.82-.1,1.24-.11,1,0,1.95.27,2,1.42s-1,1.18-1.81,1.23c-3.19.19-6.38.29-9.56.56q-15.21,1.3-30.41,2.72c-5,.47-10,1.1-15,1.67-.3,0-.66.28-.88.18-.42-.19-1-.51-1.06-.86a1.33,1.33,0,0,1,.66-1.14c.87-.18,1.8-.06,2.7-.16A10,10,0,0,0,296.77,130.89Z" fill="#faff31"/><path d="M284.37,259.16c-1.84,1.45-4.13,1.1-6.19,1.51-3.22.64-6.5,1-9.75,1.43a10.81,10.81,0,0,1-3.08.19c-4.25-.69-8.29.84-12.44,1.08-.41,0-.82.05-1.23.1-1.56.17-2.77.07-2-2.07.1-.27-.33-.75-.6-1.32a104.53,104.53,0,0,0,21.91-3c2.85-.69,6-.11,8.9-.62a4.17,4.17,0,0,1,4.25,1.68C284.35,258.38,284.3,258.76,284.37,259.16Z" fill="#faff31"/><path d="M229.11,149c1.4-3.69,5-5.28,8-8.53.19,4.05.66,7.23-.3,10.45-1.41,4.74-2.64,9.53-4,14.29a5.24,5.24,0,0,1-3.44,3.23c-.61.24-1.06.9-2,1.7a7.31,7.31,0,0,1-.28-2.5c.8-2.54,1.82-5,2.66-7.54a102.67,102.67,0,0,0,3.68-13.24l-3.8,2.54Z" fill="#faff31"/><path d="M104.69,111.38a4.21,4.21,0,0,1-2.19-5.1c.67-2.86.68-5.78,1.37-8.62.41-1.68.67-3.4,1-5.11a8.54,8.54,0,0,0-.17-1.68l-6.74,6.61c-.17-1.1-.47-1.78-.3-2.31a6.73,6.73,0,0,1,1.23-1.76c1.54-2.06,4.25-3,5.15-5.76a1.81,1.81,0,0,1,2.4-.84c1,.31,1.92.58,2.53.76-.24,4.12-.46,7.89-.67,11.66,0,.31.11.73-.05.91C105.47,103.3,106.2,107.52,104.69,111.38Z" fill="#faff31"/><path d="M282.11,46.1c2.19-.18,2.29.79,2.34,1.94.24,5.82.85,11.62-.27,17.43-.41,2.13-.42,4.33-.64,6.8l-2-.68c-2.29,1.8-3.84,1.19-4.41-1.72a6.21,6.21,0,0,1,1.39-5.39c.69-.81,2-1.08,3.62-1.87ZM279,71.28c1.19-2.53,2.69-4.28,2.6-6.81C279,65.74,278.26,67.41,279,71.28Z" fill="#faff31"/><path d="M302.39,93.64l-3.44-4L301.67,87c-.74-3.51-.13-4.77,3-6.33,1.21-.6,2.33-1.35,3.52-2a3.92,3.92,0,0,0,2.12-3.37c-1.68-.56-3.15,0-4.8.92L304,74.38c.37-.39.52-.7.75-.77a19.91,19.91,0,0,1,3.29-1A4.12,4.12,0,0,1,312.7,75a4.93,4.93,0,0,1-1.37,5A45.61,45.61,0,0,1,306,83.48c-1.83,1-3.38,4-2.49,5.89C304.31,91,303.76,92.09,302.39,93.64Z" fill="#faff31"/><path d="M199,268.94a2.57,2.57,0,0,1-1.23-3.77c1.38-2.81,2.84-5.58,4.33-8.49l-2.33-1.54c0-1.54.33-3,1.87-3.52,1.78-.63,3.07-2.91,5.57-1.67.32,3.45.11,6.71-2.14,9.77-1.18,1.61-1.65,3.74-2.42,5.65C202,267,201,268.48,199,268.94Z" fill="#faff31"/><path d="M323.58,144.08a10.17,10.17,0,0,1-2.45,1.06c-5.17.49-10.34,1-15.52,1.31-3.45.23-6.91.22-10.37.38-1.12.05-2.06,0-2.3-1.35,1.44-1.39,3.09-1.67,5.12-1.71a113.46,113.46,0,0,0,11.33-1.14c2-.25,4.05-.64,6.08-.95.4-.06.95-.17,1.2,0,1.68,1.32,3.68,1.08,5.59,1.32C322.52,143.07,322.73,143.39,323.58,144.08Z" fill="#faff31"/><path d="M78.58,368a15.21,15.21,0,0,1,2.48.33c2.49.73,3.85,0,4.36-2.58.31-1.59.39-3.22.57-4.83-.18-.11-.35-.29-.52-.3-2.9-.09-3.33-.6-3-3.64.29-2.52,2.95-4.34,5-3.44,1.62.71,1.81,2.54,1.78,3.64A78.53,78.53,0,0,1,88,366.27a10.71,10.71,0,0,1-1.42,4.57c-1.43,2.17-3.49,2.46-5.39.59A32.63,32.63,0,0,1,78.58,368Zm9.09-13.17c-3.08.42-3.39.85-2.85,3.6Z" fill="#faff31"/><path d="M207.59,66.49l4.72-2.93c.16,2.47-.47,3.16-4.27,4.44-1.92-1.06-2.14-2.89-2.21-4.88S205.65,61,203,60.72a7.07,7.07,0,0,1-1.56,6.58,3,3,0,0,1-2.17.93c-.55-.06-1.23-.89-1.48-1.53a3.21,3.21,0,0,1,2.37-4.2,14.4,14.4,0,0,1,1.74-.17l-1.45-2c-2.29.92-2.29.92-3.53.11,2.86-2.36,6.09-.64,9.18-1.09L207,54.2c2.81,1.36.06,3.28.82,5l2.6.83c-1,.82-2.25,1.35-2.68,2.26S207.59,64.49,207.59,66.49Zm-6.18-1.19c-.62-.36-1.1-.82-1.31-.71a1.62,1.62,0,0,0-.64,1.08c0,.15.55.62.75.56C200.58,66.13,200.86,65.75,201.41,65.3Z" fill="#faff31"/><path d="M309.72,225.43c.11,1.12.24,2.32.34,3.52,0,.06-.12.14-.39.42L308,228c-.16.06-.42.08-.5.2-.42.67-.63,1.59-1.21,2-1.83,1.29-1.19,3.13-.92,4.63.36,2,1.86,1.87,3.79-.1-.13-.14-.23-.36-.38-.41-1-.33-2.13-.55-1.87-2,.17-.94,1.43-1.14,3-.56,2.2.84,3,2.23,2.41,4.3a4.76,4.76,0,0,1-5,3.14,5.64,5.64,0,0,1-4.81-6.57,10.42,10.42,0,0,1,2.68-6.39C306.64,224.7,307.83,224.28,309.72,225.43Z" fill="#faff31"/><path d="M294.83,235.53l-.65,4.91c-.87-.79-1.57-1.11-1.64-1.54-.54-3.25-2-6.47-.5-9.87,3.41-.67,2,4.07,4.83,4.26l1.13-7.34c1.81.47,2.52,1.3,2.26,3.09-.41,2.83-.52,5.7-.93,8.52-.13.88-.8,1.69-1.55,3.17Z" fill="#faff31"/><path d="M256.68,82.28a14,14,0,0,0,1.79.24c3.19-.07,4.08.9,4.34,4.44.23,3-.72,4-3.8,4-4-.1-5.44-2.46-4.56-5.43a6.73,6.73,0,0,0,.12-1.42c.11-1.53.25-3.05.3-4.58s0-2.87,0-4.33c2,.36,2.34.74,2.25,2.53C257.07,79.13,256.86,80.55,256.68,82.28Zm4.34,7a25.55,25.55,0,0,0,0-3c-.15-1.07-.49-2.18-1.81-2.24s-1.77.93-2,2-.34,2-.55,3.25Z" fill="#faff31"/><path d="M291.28,47.67c1.34,0,1.4.72,1.37,1.56-.08,2.48-.21,5-.21,7.44,0,4.69.08,9.38.14,14.07,0,1.23-.12,2.32-1.74,2.31C289.85,70.5,290.18,50.49,291.28,47.67Z" fill="#faff31"/><path d="M224.22,63.81c0-2.57,1.93-3.76,3.7-5s3-1.19,4.55.21a2.09,2.09,0,0,1,.79,2.53,36.78,36.78,0,0,1-2.4,4.83,3.79,3.79,0,0,1-3.61,1.87C225.78,68.07,224.26,65.6,224.22,63.81ZM231,61.24c-1.1-.14-2.58-.72-3.08.47s-2.58,2.14-.84,4c2.18-.7,3.11-2.5,3.82-4.48-.05-1.9-.05-1.9-1.45-1.1Z" fill="#faff31"/><path d="M264.86,274.25c-3.16,1.06-5.94,2.92-9.29,3-1,0-2,.26-3,.19-2.91-.19-3.41-.73-4-4.17,2-.17,4-.36,6-.5,2.7-.19,5.4-.36,8.11-.49C263.85,272.24,265,272.4,264.86,274.25Z" fill="#faff31"/><path d="M253.45,50.47c1.45,1,1.45,1,.77,10.2,1.85.08,3.65.49,4.23,2.56s1,4.23-.16,6.59c-2.15-2.31.12-5.28-1.83-7.39-3.08,1.6-1.76,5.27-3.51,7.56-1.81-.77-1.52-2.16-1.34-3.45.47-3.43,1-6.85,1.47-10.28C253.3,54.44,253.32,52.6,253.45,50.47Z" fill="#faff31"/><path d="M259.79,229.52c2.83.52,2.46,3.06,3.95,4.38,1.22-1.36,2.5-2.66,3.63-4.09s2.12-1.37,3.46.15c-1,1.14-2,2.29-3.05,3.37a6.12,6.12,0,0,0-2,5.23,20.73,20.73,0,0,1-.28,4.5,5.5,5.5,0,0,1-.58,1.41l-.71-.47a53,53,0,0,1-2-5.06c-.43-1.48-.39-3.1-.76-4.61S260.4,231.29,259.79,229.52Z" fill="#faff31"/><path d="M291.95,90.39c-.11-1.39-1.28-1.39-2.23-1.82a4.77,4.77,0,0,1-1-8c1.42-1.23,1.86-1.16,3.48.59-.43,1.36-1.51,1-2.66.92a11.62,11.62,0,0,0-.77,2.07,2.24,2.24,0,0,0,1.54,2.72,15.18,15.18,0,0,1,3.24,1.74,2.37,2.37,0,0,1,0,3.75c-1.18,1-5.37,1.16-6.52.21a2.82,2.82,0,0,1-1.18-3.29C288.2,91.27,289.77,91.55,291.95,90.39Z" fill="#faff31"/><path d="M217.7,80.55c1.46,1.27,2.11,2.2,2.09,3.89,0,2.45-.1,5.29,1,7.28,1.48,2.57.52,5.25,1.48,7.7.07.19-.19.52-.4,1l-2.55-.38C218.84,93.59,217.52,87.33,217.7,80.55Z" fill="#faff31"/><path d="M254.58,229.08l2.92,1,1.81,4.24-.49.28-2.15-3c-3,1.81-4.16,5.13-3.1,8.93,1.3.1,2.91-1.77,4.1.65a2.85,2.85,0,0,1-2.63,2.23,3.37,3.37,0,0,1-3.31-1.88c-1.62-2.58-1.13-8,1-10.54C253.21,230.44,253.82,229.88,254.58,229.08Z" fill="#faff31"/><path d="M272.88,240c1.55-.59,3.08-1.29,4,.65,0,.19,0,.45-.14.56-1.23,1.11-2.57,2.51-4.3,1.57a4.76,4.76,0,0,1-2.27-4.75c.39-4,1.4-7.72,5.77-9.4,1.36.47,2.2,1.33,2.07,2.49-1.43,1-2.85,1.61-3.75,2.66A7.06,7.06,0,0,0,272.88,240Z" fill="#faff31"/><path d="M268.76,84.39l2.66.33.2-4.53L267.79,79c4.58-1.33,6.42.31,5.63,4.35a8.65,8.65,0,0,0-.47,2.23c.22,2.43-1.31,3.89-2.77,5.43-.67.7-1.46,1.12-2.28.53a2.69,2.69,0,0,1-1.16-1.72,10.17,10.17,0,0,1,.64-3.32A11,11,0,0,1,268.76,84.39Zm.85,1-1.54,4.06C270.92,88.51,270.92,88.51,269.61,85.39Z" fill="#faff31"/><path d="M299.65,65.14c-.42,1.75-1.37,3.33.21,5.21l3.61-3c-.75,2.61-1.9,4.25-4.67,4.63-.42-.53-1.28-1.14-1.37-1.85a10.14,10.14,0,0,1,.18-4.57,9.83,9.83,0,0,1,2.85-3.86c2.61-2.22,5-1.45,6.63,1.95C305.14,66,302.46,65.18,299.65,65.14Zm5.68-1.65c-2.08-2.3-2.21-2.28-4.13,0Z" fill="#faff31"/><path d="M214.82,93.26c-.63,2.94-.63,2.93-3.19,3.3-1.13.16-2.26.36-3.8.6l1.1,3.67L214,98.32c-.8,2.77-2.83,4.35-4.86,3.74a5.37,5.37,0,0,1-3.27-4,3.65,3.65,0,0,1,2.22-3.44,14.94,14.94,0,0,0,2-1.19A3.88,3.88,0,0,1,214.82,93.26Z" fill="#faff31"/><path d="M174.75,96.2c1.21-1.33,2.31-2.55,3.44-3.75.07-.07.36.06.61.12l.7,4.82c2.77-2.19,3.4-5.09,4.86-7.58.89,2.74-.38,5.86-3.64,9.28-2,.18-1.91-1.83-2.87-2.72-.19.05-.41,0-.5.14-.78.82-1.4,2-2.79,1.63-1.56-.42-1.43-1.93-1.61-3.09a31,31,0,0,1,0-4.27C175.24,92.42,173.41,94.65,174.75,96.2Z" fill="#faff31"/><path d="M203.48,96.89a7,7,0,0,1-4.7,4.53,4.18,4.18,0,0,1-2.86-4.76A5.7,5.7,0,0,1,197,93.55a10.92,10.92,0,0,1,4-2.63,2.92,2.92,0,0,1,3.85,1.76l-1.23,2.72a36.07,36.07,0,0,0-4.25-.15,2.25,2.25,0,0,0-1.71,1,3,3,0,0,0,.36,2.35c.26.35,1.41.31,2,.09A26.06,26.06,0,0,0,203.48,96.89Zm-3.93-3.48c3.25.82,3.25.82,3.06-1.64Z" fill="#faff31"/><path d="M63.56,343.94l-3,14.22-3,.94c.56-3.73,1-6.95,1.54-10.15a20.74,20.74,0,0,1,1.05-4.17C60.9,342.95,61.26,342.92,63.56,343.94Z" fill="#faff31"/><path d="M232.17,92.78c-2.73-.46-4.16.77-4.67,3.44,1.81,1.23,4.25,2.16,4.22,5.08-3.58,2.51-5.79,2.36-6.37-.76,1.69,1.2,3.2,1.44,4.56-.78-1-.58-1.93-1.19-2.92-1.64a3.17,3.17,0,0,1-.83-5.51C228.33,90.69,230,90.67,232.17,92.78Z" fill="#faff31"/><path d="M33.79,361.11,38.37,354l-2.11-5.61c2.78-.15,2.48,2.55,4,3.25,1.74-.6,1.51-3.75,4.39-3.22-.09.7,0,1.52-.3,2-3,4-5.83,8.15-9.84,11.25Z" fill="#faff31"/><path d="M154.29,109.1c-.58-2.51.65-3.51,1.76-4.45,3-2.54,6.06-5,9.1-7.51.94-.78,1.88-1.57,2.94-2.46a1.67,1.67,0,0,1-.15,2.62C163.55,101.13,159.13,104.91,154.29,109.1Z" fill="#faff31"/><path d="M172.39,65.54H159l-1.1-3.33a52.47,52.47,0,0,1,12.35,1.11C170.91,63.46,171.42,64.51,172.39,65.54Z" fill="#faff31"/><path d="M177.53,66a3,3,0,0,0,4,1.22c2-.75,2.2-2.1.61-3.43a11.47,11.47,0,0,0-1.47-.88c-2.19-1.32-2.56-2.42-1.6-4.8.14-.36.36-.68.5-1,.44-1.18,1-2,2.53-1.66,1.94.48,2.46,1,2.59,3.2l-2.74-1.81a13.31,13.31,0,0,0-1.09,1.38c-1.12,1.89-.93,3.07,1,4a5.33,5.33,0,0,1,2.74,3.15,2,2,0,0,1-1.19,2.8,6.88,6.88,0,0,1-5,.39C177.39,68.19,177.38,68.18,177.53,66Z" fill="#faff31"/><path d="M282.19,228.45c2.19,2.92,0,5.83.46,8.38l4,1.94c-2.06,1.27-3.61,2.11-5.55,1.76-1.54-.28-2.58-1.34-2.25-2.74.69-2.89,1.59-5.72,2.44-8.56C281.38,229,281.73,228.85,282.19,228.45Z" fill="#faff31"/><path d="M188.67,83.35c1.55,2.62.31,5.43.46,8.32a4.8,4.8,0,0,1,3.84,5c0,1,.16,2.24-1.59,2.32l-.51-4.31-.69-.1-1.64,4.9c-1.51-.18-1.47-1.29-1.38-2.16C187.61,92.67,188.16,88,188.67,83.35Z" fill="#faff31"/><path d="M75.36,355.52l-1.62,3.75a6.26,6.26,0,0,1-2.24-.62c-.88-.65-.47-1.53,0-2.47,1.52-3.39,2.72-4.24,5.39-3.7,1.06.22,1.7.68,1.78,1.77.15,2,.26,4,.41,6.37l-3.13-.74V355.6Z" fill="#faff31"/><path d="M277.36,92.53c-1.51-2.76-.61-8.48,1.66-11.64a10.19,10.19,0,0,1,5.52,1.22c-1.06,1.52-2.6.55-3.78,1C278.56,85.76,280.3,90,277.36,92.53Z" fill="#faff31"/><path d="M262.75,61c4.44,1.46,5.34,4.5,3.45,10.14l-1-1.45-1.7,2c-2.27-2.27-2.72-4.27-1.79-6.35.74-1.67,2-1.36,3.35-1C265.57,62.57,263.71,62.48,262.75,61Zm.95,3.56-.85,3.92.49.23,2.07-1.52Z" fill="#faff31"/><path d="M188.84,63.39c1.12,3.49,1.67,3.66,5.46,2a2.48,2.48,0,0,1-2.21,2.5,4.66,4.66,0,0,1-4.42-2,4.22,4.22,0,0,1,.49-4.84c1.72-2.08,4.38-2.06,5.75.09a1.94,1.94,0,0,1,.28,1.56,1.9,1.9,0,0,1-1.4.68C191.55,63.46,190.31,63.39,188.84,63.39Zm4-1.36c-.91-.7-1.35-1.31-1.79-1.31s-.84.62-1.67,1.31Z" fill="#faff31"/><path d="M94.11,357.24c3-2.32,7.79-2.44,14.93-.57.24.91.11,1.65-1,1.75a25.91,25.91,0,0,1-3.06,0c-2.76-.1-5.52-.17-8.27-.37A12,12,0,0,1,94.11,357.24Z" fill="#faff31"/><path d="M6.47,349.88a3.57,3.57,0,0,1,3.73-2.13c2.87.27,5.76.37,8.64.53,1.15.06,2.23.39,1.89,1.77a1.61,1.61,0,0,1-2.45.94c-1.84-1.15-4.21.44-5.83-1.32-1.84,1.85-4.29.18-6.8,1.49l.89-1.38Z" fill="#faff31"/><path d="M53.34,349.8l-3.36.8-1.56,2.8c.93,2.7,3.34,1,5,1.93-.28.46-.51,1.21-.79,1.23a16,16,0,0,1-4.55,0c-1.69-.35-2.56-2.71-2-4.6.82-2.71,3-3.6,7.06-2.88Z" fill="#faff31"/><path d="M273,65.21l-2.53,5.18c-1.63-2.5-1.13-5.75.91-7a2.17,2.17,0,0,1,1.59-.21c2.55.79,3.77,5.29,2.05,7.77C273.16,69.48,274.69,67,273,65.21Z" fill="#faff31"/><path d="M242.86,60.15c-.58.37-1.16,1.05-1.74,1-1.66,0-2.07,1-2.36,2.27-.42,1.86-.92,3.7-1.41,5.65-1.12,0-1.89-.17-1.59-1.65a36.09,36.09,0,0,0,.45-4.27c.22-2.88,1.05-3.7,3.79-3.69h2.52Z" fill="#faff31"/><path d="M289.57,240.93a2,2,0,0,1-2.11-2c-.52-3.43-1-6.87.18-10.32,1.75.27,2.52,1.17,2.51,2.75,0,.62,0,1.23,0,1.84C290,235.71,289.76,238.24,289.57,240.93Z" fill="#faff31"/><path d="M32.89,348.26l-2.95-.55a5.87,5.87,0,0,0-2.36,5.08c.08,1.74.68,2.17,2.34,1.67l2.58-.76c0,1.89-.5,3-2.24,2.66a19.15,19.15,0,0,1-4.12-1.73c-.32-.15-.73-.75-.65-1,.68-1.93-.06-4.33,2-5.8C29,346.76,30.64,346.73,32.89,348.26Z" fill="#faff31"/><path d="M65.1,358.66l.47-7.57c3-.41,3.85.29,3.52,2.67-.22,1.6-.68,3.17-1.07,4.9Z" fill="#faff31"/><path d="M293.34,159.18a4.28,4.28,0,0,1,4-1,32.89,32.89,0,0,0,6.47.07c1.06-.05,1.53.31,1.78,1.68a93.86,93.86,0,0,1-9.6.69,4.89,4.89,0,0,1-2-.39C293.64,160.07,293.52,159.52,293.34,159.18Z" fill="#faff31"/><path d="M65.91,347.38l3.69.41C67.59,349.44,67.34,349.41,65.91,347.38Z" fill="#faff31"/><path d="M6.47,349.88l.07-.11-2.43.6C4.95,348.37,5.77,349.87,6.47,349.88Z" fill="#faff31"/><path d="M165.66,407.63c1.65-.58,3.13-1.14,4.63-1.6a1.76,1.76,0,0,1,2.39,1.3,3.14,3.14,0,0,1-.86,2.39C169.64,411.94,167.17,411.22,165.66,407.63Z" fill="#faff31"/><path d="M165.84,344l.08,0v0ZM163,345.43h.07c0-.06,0-.1,0-.14l-.09,0Zm0,.53v-.08L163,346Z" fill="#faff31"/><path d="M289.76,366.89a23.06,23.06,0,0,1-1.65-4.23,4.74,4.74,0,0,1,2-5.43,8.92,8.92,0,0,0,1.71-1.68c1.58-2,1.41-3.77-.53-5.38a8.13,8.13,0,0,0-2.05-1.29c-2.42-1-4.85-2-7.34-2.7-2.18-.66-4.4-1.22-5.65-3.3a31.72,31.72,0,0,1-1.82-4c.7-1.33,1.27-2.28,1.7-3.29.68-1.55,1.2-3.17,1.9-4.71,1.14-2.44,2.35-4.83,3.56-7.23,2-4,4.15-8,6.13-12,1.25-2.55.32-5-2-5.43a15.58,15.58,0,0,0-4-.37c-4.21.29-8.44.58-12.62,1.13-5.15.68-10.28,1.6-15.41,2.5a21.1,21.1,0,0,0-3.27,1.15c.34.56.55.77.58,1,.09.61.07,1.23.11,1.85.18,2.59.66,3.24,3.23,3.66a35.32,35.32,0,0,0,5,.32,54.43,54.43,0,0,0,14.45-1.28,12.66,12.66,0,0,1,3,.07c-1.07,1.44-1.81,2.46-2.58,3.44s-1.72,1.88-2.39,2.94c-2,3.08-3.81,6.24-5.76,9.33-.7,1.11-1.56,2.14-2.33,3.2-.54.75-.91,1.77-1.63,2.2a57.15,57.15,0,0,1-6.23,3.18c-2,.91-4.12,1.4-6-.52-.23-.23-.65-.29-1-.46-2.22-1.21-3.81-.83-5.13,1.34-.6,1-1,2.1-1.51,3.14-.23.46-.48,1.17-.85,1.26-1.5.39-3.08,1.45-4.57.6-1.78-1-3.62-.71-5.44-.83a68,68,0,0,0-7.3-.2c-3.8.14-7.59.47-11.39.74-1.58.11-3.15.2-4.71.37-2.22.24-4.43.69-6.66.8-3.49.17-7,0-10.49.17-2.8.09-10.27-1.22-9.71-1.86.47.89,10.7-7.48,15.56-12.3s10.09-9.51,15.1-14.28c1.13-1.07,2.09-2.32,2.83-3.16-.32-5.09-4.81-6.16-7.51-8.93-4.92,3.88-9.66,7.56-14.34,11.32-3.89,3.12-7.73,6.3-11.57,9.48-2.26,1.87-4.41,3.9-6.73,5.67-3.63,2.77-7.47,5.26-11,8.1-2.46,2-5.37,3.6-6.52,7a12.15,12.15,0,0,0-7.35,2.38c-2.31,1.63-3.88,3.65-3.52,6.79a31.09,31.09,0,0,1,0,5.91,6.35,6.35,0,0,1-1,3.52c-2,2.24-3.7,4.85-6.78,5.89a2.51,2.51,0,0,0-1.56,1.3,13.55,13.55,0,0,0,4.08,14.38c1.87,1.67,2.68,4.8.85,7-.79,1-1.34,2.13-2.11,3.11a5,5,0,0,0-.25,6,19.39,19.39,0,0,0,3.25,3.87,17.17,17.17,0,0,0,4.23,2.49,4.38,4.38,0,0,0,4,.23,10.17,10.17,0,0,1,1.24-.56c2.29-.52,4.5-1.95,7-.93a15.49,15.49,0,0,1,4.63,2.49c3.42,3.19,6.92,3.5,11,1.45,1.75-.87,3.3-2.21,5.86-1.72s5.28-.58,8-.91c1.12-.15,2.28-.23,3.42-.27a50.57,50.57,0,0,0,5.29-.17c4.78-.72,9.53-1.64,14.31-2.43,3.65-.6,7.32-1,10.93-1.72,5.41-1.08,10.8-2.15,16.35-2.09,2,0,3.94-.17,5.91-.28,1.16-.06,2.29,0,2.63-1.63.11-.55,1.27-1.23,2-1.24,3.06-.06,5.29-2,7.89-3.13,3.15-1.38,6.45-2.48,9.95-.47a17.63,17.63,0,0,0,8.36,2.55,6.4,6.4,0,0,0,5.26-2.41,13.35,13.35,0,0,0,2.8-9.67c-.11-1.87-.22-3.9,1.5-5.26a13.26,13.26,0,0,1,3.14-1.92c2.31-1,3.62-2.53,3.65-5A19.19,19.19,0,0,0,289.76,366.89Zm-18.92-37.4c.52-.74,1.14-1.38.74-2.44a1.53,1.53,0,0,1,.29-1.24c2-2.72,4.14-5.39,6.2-8.1.91-1.2,1.77-2.45,3-4.11a9.94,9.94,0,0,0-2.39-.26c-1.59.29-3.16.7-4.72,1.11-4.94,1.32-10,1.25-15,1.21-1.08,0-2.17-.16-3.24-.08a1.94,1.94,0,0,1-2.38-1.93,22.85,22.85,0,0,0-.69-2.62c7.56-1,15.05-2.12,22.59-2.91a51.68,51.68,0,0,1,8.91.2c2.15.15,2.65,1.2,1.89,3.32a60,60,0,0,1-3.46,7.07c-1.4,2.7-2.8,5.4-4.25,8.06-.41.77-1,1.43-1.47,2.19a3.14,3.14,0,0,0-.69,1.64c.16,2.14-1.14,3.64-2.19,6.13-1.52-3.57-3.79-3.08-6.72-2C268.65,332.65,269.73,331.06,270.83,329.49ZM163,345.34l.09,0,2.73-1.32.09,0v0c2.5-.8,4-2.93,5.7-4.67,6.54-6.72,14-12.38,21.29-18.14,2.68-2.1,5.3-4.28,8-6.39,1.38-1.1,2.76-2.23,4.24-3.19a2.92,2.92,0,0,1,3.53.29,24.51,24.51,0,0,1,2.11,2.14c-2.12,2.14-4.12,4.17-6.15,6.16-2.6,2.6-5.2,5.19-7.84,7.75s-5.4,5.26-8.19,7.79c-3.41,3.1-6.91,6.11-10.53,9.29-3.09-2.44-5.82.13-8.73.8-1.09.24-2,1.06-3.51,1.88-.21,0-1-.14-1.81-.22-1-.09-1-.76-1-1.5H163Zm7.76,67.42a5.68,5.68,0,0,1-5.36-1c-1.64-1.27-3.5-2.24-5.19-3.43a7,7,0,0,0-6.71-.75,14.83,14.83,0,0,0-1.76.71c-4.7,2.36-8.72-.85-10.75-4a3.53,3.53,0,0,1,.11-4.06c.77-1.21,1.56-2.4,2.3-3.62,1.52-2.52,1.7-5.06-.07-7.58-1.39-2-2.74-4-4.18-5.92s-1.4-4.41-1.2-6.74a3.58,3.58,0,0,1,1.78-2.56,62.32,62.32,0,0,0,5.87-4.73c2.41-2.16,2.46-5.06,2.25-8a26.06,26.06,0,0,1-.05-3.76,7.87,7.87,0,0,1,7.68-7.57c2.84-.16,5.7,0,8.53-.19a13.88,13.88,0,0,0,3.87-1.12c1.85-.7,3.63-1.57,5.5-2.29,2-.77,2.86-.53,3.67,1.42a4.85,4.85,0,0,0,5.09,3.23c2.33-.09,4.66-.38,7-.6a17.53,17.53,0,0,1,2.14-.26c1.61,0,2.05.45,2.18,2.08s.28,3.25.29,4.86a4.35,4.35,0,0,0,3,4.39c1.5.61,2.93,1.36,4.43,2a8.7,8.7,0,0,1,4,3.52,3.89,3.89,0,0,1-.54,5.41c-1.36,1.44-2.79,2.82-4.26,4.16a3.48,3.48,0,0,0-1.12,4.12,13.81,13.81,0,0,0,.63,2.07c1.89,3.19,1.82,6.75,1.87,10.27a7.51,7.51,0,0,1-2.41,5.84,5,5,0,0,1-4.7,1.58c-.88-.21-1.76-.38-2.63-.62a5.61,5.61,0,0,0-5.9,1.77c-1.34,1.45-2.54,3-3.92,4.45A25.51,25.51,0,0,1,170.77,412.76Zm70.7-11.48c-6.46.52-12.88,1.22-19.25,2.37-5.29,1-10.68,1-16,2-2.63.48-5.22,1.13-7.83,1.7-1.25.28-2.5.61-3.76.79-3,.44-6,.84-8.95,1.17a34.8,34.8,0,0,1-3.63.07c-.06-.22-.12-.44-.17-.66l5.58-6.2a3.14,3.14,0,0,1,2.88-1.13,43.35,43.35,0,0,1,4.82.69c2.72.67,4.61-.61,6.08-2.54A8.2,8.2,0,0,0,203.2,394c-.23-3.41-.48-6.82-.82-10.22a5.79,5.79,0,0,0-1-1.88c-1.11-2-1-2.68.56-4.27a38.06,38.06,0,0,1,3.5-3.38c3.15-2.44,2.58-7.3.19-9.61a35.85,35.85,0,0,0-5-3.59,10.47,10.47,0,0,0-1.94-.93c-3-1.26-3.4-3.89-3.43-6.68,0-.81.33-1.62.26-2.41a10.13,10.13,0,0,0-.8-2.33c2.33-.14,4.51-.31,6.69-.43q6.69-.39,13.38-.73c2.38-.12,4.77-.21,7.17-.31,1.34-.05,2.69-.13,4-.13s2.4-.19,3.51.87c.51.48,1.81.34,2.71.19,3.16-.53,6.29-1.18,9.83-1.85a6.13,6.13,0,0,1-3.5,3.08c-1.57.61-3.3,1.35-3.25,3.45a11,11,0,0,0,.8,3.33,15.31,15.31,0,0,0,1.4,2.61c2.78,4.54,2.36,9-.4,13.33a8.34,8.34,0,0,0-1.35,5.55,4.42,4.42,0,0,0,2.09,3.6c3.79,2.25,5.43,5.85,6.17,10a12.08,12.08,0,0,1-.05,2.95,6,6,0,0,0,2.41,5.66c.17.14.24.43.45.85C244.94,400.93,243.21,401.14,241.47,401.28Zm44.89-21.88a8.21,8.21,0,0,0-4.45,7.72c.19,2.92,0,5.71-1.75,8.23s-4.36,4-7.69,2.49c-.66-.3-1.35-.54-2-.86a15.22,15.22,0,0,0-16.36.89,13.29,13.29,0,0,1-2.34,1.32,4,4,0,0,1-5.49-3.95,47.83,47.83,0,0,0-.18-5.11c-.5-4.26-3.3-7.05-6.4-9.62-1.91-1.57-2.26-2.93-1.39-5.16a13.78,13.78,0,0,1,1-2.23c3.21-5.35,2.44-10.67-.14-16-.31-.65-.75-1.23-1.1-1.86-1-1.85-.68-2.78,1.08-4a38.92,38.92,0,0,0,3.93-3.28c.33-.3.27-1,.45-1.5a22.09,22.09,0,0,1,1.37-3.76c1-1.83,2-2,3.79-1a12.67,12.67,0,0,1,1.9,1c2.55,2,5.1,1.14,7.59,0,1.7-.81,3.26-1.9,5-2.74,2.57-1.28,5.19-2.47,8.14-3.87.45.92.79,1.54,1.06,2.17a32.05,32.05,0,0,1,1.85,4.46c.83,3,3.17,4.1,5.78,4.93,2.4.76,4.81,1.48,7.21,2.24a6.48,6.48,0,0,1,1.49.6c2.8,1.72,2.9,2.41.6,4.75a9.49,9.49,0,0,0-2.89,5.67,5.9,5.9,0,0,0,.67,3.3,27.45,27.45,0,0,1,3,7.91C290.87,375.88,289.9,377.81,286.36,379.4Z" fill="#faff31"/><path d="M339.09,350l1.29-5.14,1.76,2.64,2.38-3.48c3.83.55,4.74,2.6,3.76,8.25a1.83,1.83,0,0,1-2-2,6.09,6.09,0,0,0-.63-2.71l-2.34,5.72L339,350.85c-.58.87-1.08,1.7-1.67,2.46a2.38,2.38,0,0,1-2.88.9c-1.06-.42-1.34-1.27-1.54-2.5-.48-2.83,1.62-3.81,3.19-5.06a2.13,2.13,0,0,0,.93-2.44,9.12,9.12,0,0,1-1.91.67c-.41.05-.88-.29-1.32-.45.23-.33.38-.78.69-1a20.83,20.83,0,0,1,2.14-1.05c2.33,1.2,2.2,1.19,2.16,3.77C338.76,347.32,337.71,348.56,339.09,350Zm-2.17,2.16-.84-4.16c-.67,2-2.52,3-1,5Z" fill="#faff31"/><path d="M312.63,322.17c-1.44-.28-.78-1.43-1-2.21-4.25,3.1-5.87,8.5-3.83,12.74,4-.58,6.94-2.38,7.69-4.83-1.26-.75-3.58,1.49-4.14-1.31,3.53-1.26,5.52-.81,7.48,1.56l-1.76,5.18-2-1.06c-1.82.8-3.41,1.6-5.07,2.2a3.46,3.46,0,0,1-4.56-2.35c-1-4.36-.48-8.4,2.9-11.7.45-.44.84-.93,1.27-1.4,1.19-1.32,2.16-1.57,3.26-.85s1.28,2.07.36,3.58C313.08,321.94,312.8,322,312.63,322.17Z" fill="#faff31"/><path d="M333.39,327.21c-2.27,3.65-5.69,2.34-8.88,1.87,0,2.94.56,3.22,4.65,2.15a1.82,1.82,0,0,1-1.46,2.4,6.45,6.45,0,0,1-3.24-.67c-.56-.25-.85-1.11-1.25-1.7-1.45-2.09-1.2-4,.73-5.71C327.25,322.63,331.28,323.29,333.39,327.21Zm-6.55-.83.32.6,1.88-.69-.15-.48Z" fill="#faff31"/><path d="M326.37,337.93c1.42.62,1.43.69,1.07,6.78,4.1-.09,5.54,3,3.92,8.65-2.41-1.43-1.21-3.9-1.89-5.89-2.25,1.08-2.13,4.06-4.27,5.33l-1.38-1.53Z" fill="#faff31"/><path d="M361.72,327.81c1.29.58,1.83,1.4.94,2.76-.74,1.13-1.39,2.31-2.1,3.45-1,1.67-2.18,3.29-3.11,5a4.7,4.7,0,0,0-.51,2.58,2,2,0,0,1-1.16,2.28c-.52-.67-1.06-1.33-1.54-2-.13-.19-.17-.66,0-.78,1.44-1.36.8-4,2.28-4.88,2.28-1.27,2.22-3.76,4.23-5.56-2.84.21-4.77,2.75-7.59,1.22a9.27,9.27,0,0,1,4.06-2.46C358.6,328.87,360.05,328.4,361.72,327.81Z" fill="#faff31"/><path d="M307,352.17c-1.41,1.6,1.69,4.12-1.73,5.4l-.25-7.2,3.53.28-.71-2.45c.78-.91,2.74-.85,2.23-3-1,.1-2.05.27-3.08.29-1.41,0-2.26-1.38-1.31-2.34,1.3-1.31,1.47-3.16,2.65-4.52,1.18,0,1.63.59,1.09,1.7s-1.06,1.86-1.76,3.07a5.81,5.81,0,0,0,1.66.51c1.27,0,2.39.2,2.76,1.56s-.48,2.18-1.57,2.81a6,6,0,0,0-.71.53c0,1.06.38,2.32-.06,2.77S308,352,307,352.17Z" fill="#faff31"/><path d="M338.39,328.59l.83-3.16-4,1.27a2.35,2.35,0,0,1,2.51-2.2,3.23,3.23,0,0,1,3.07,1.35,1.49,1.49,0,0,1,.14,1c-.36,1.82-.76,3.63-1.22,5.78-1.07.25-2.34,2-4,.56A3,3,0,0,1,335,330C335.53,328.44,336.73,328.35,338.39,328.59Zm-1.29.9c-.1,1.21-.16,1.91-.18,2.6,0,0,.54.21.66.11C338.47,331.52,338.26,330.78,337.1,329.49Z" fill="#faff31"/><path d="M286.06,334.24c3.13-1.92,6.08-3.79,9.1-5.55a28,28,0,0,1,3.55-1.46,2.3,2.3,0,0,1-1.34,2.53c-3,2-6,4-9,5.9C287,336.51,286.68,336.3,286.06,334.24Z" fill="#faff31"/><path d="M322.39,344.83c-3.64,1.64-4.41,2.79-4.07,6,1.88.41,2.76-1.7,4.63-1.95a13.39,13.39,0,0,1-.48,1.6c-.57,1.27-1.44,2.36-2.91,2.36a3.36,3.36,0,0,1-3.12-2.2,3.55,3.55,0,0,1,.48-4c.52-.6,1-1.23,1.56-1.81C319.67,343.55,320.35,343.54,322.39,344.83Z" fill="#faff31"/><path d="M345.2,327.6l-1.62,5.31c-1.63-3.05-.69-5.54-.14-8.19l7.33.58C349.88,328,347.19,325.93,345.2,327.6Z" fill="#faff31"/><path d="M355.18,352.29c-2.86-2-2.83-2.86.41-4.63.66.69,1.94,1.41,2,2.26C357.78,351.32,356.23,351.75,355.18,352.29Z" fill="#faff31"/><path d="M343,342.09a3.48,3.48,0,0,1-1.38.53c-1.09,0-2.33-1.48-2-2.38a1.63,1.63,0,0,1,1.31-.8A2.53,2.53,0,0,1,343,342.09Z" fill="#faff31"/><path d="M216.45,365c-.61-1.35-.12-2.13.75-3,2.17-2.15,4.22-4.42,6.3-6.63a5,5,0,0,1,2.64,5c-.67,3.36-1.55,6.67-2.21,10-.74,3.8-1.29,7.63-2,11.43-.52,2.8-1.21,5.56-1.75,8.36-.31,1.59-.44,3.2-.69,4.8-.13.87-.34,1.72-.52,2.64a16,16,0,0,0-2,0c-2.14.24-3.13-.42-2.89-2.54.3-2.66,1-5.28,1.57-7.91.43-2,.9-4,1.37-6.06.74-3.14,1.5-6.27,2.24-9.4s1.5-6.42,2.23-9.63c0-.12-.14-.28-.22-.43C219.45,362.33,219,365,216.45,365Z" fill="#faff31"/><path d="M280.91,367.34c-.46-2.59.56-5.36-.93-7.8.2-4.14-2.66-6.62-5.17-9.19a8.81,8.81,0,0,0-3.41-1.58c-1.08-.36-2.44-1-3.32-.65-1.29.52-2.14-.73-3.3-.25-2,.85-4.18.33-6.25.46-.21.46-.38.87-.54,1.26-1.37-.63-2.67-1-4,.14a6.12,6.12,0,0,1-1.45.66,9.39,9.39,0,0,0-5.16,5.52,40.44,40.44,0,0,0-1.56,8.66c-.33,3.27-.3,6.56-.43,9.91l1-.41a9.78,9.78,0,0,1,.51,2.31c0,.85-.43,1.69-.51,2.56-.33,3.31,3.24,9.33,6.26,10.68s5.73.73,8.61.63c1.44-.06,3.06-.27,4-1.2a4.52,4.52,0,0,1,3.56-1.75c.26,0,.63-.39.77-.68.59-1.34,1.61-.78,2.6-.59a16.38,16.38,0,0,1,1.65-2.35,26.6,26.6,0,0,0,6-10.64C280.43,371.21,281.24,369.13,280.91,367.34Zm-6.51,11.21h0a25.35,25.35,0,0,1-15.54,10c-4.78,1-7.14-.75-8.07-5.2-.8-3.79-1-7.69-1.65-11.52a52.71,52.71,0,0,1-.13-11.89c.18-2.88,1.7-5.1,3.22-7.34a3,3,0,0,1,1.74-1.06c3.33-.67,6.68-1.38,10.13-.94,2.57.33,5.15.6,7.72,1a3,3,0,0,1,1.24.67c4.55,3.43,5.36,8.22,5.13,13.51A27.15,27.15,0,0,1,274.4,378.55Z" fill="#faff31"/><path d="M270.72,345.07c-1.58-.61-2.81-1.41-2.43-2.94.17-.69,1.3-1.34,2.13-1.63a1.61,1.61,0,0,1,2.15,1.07C273.16,343.35,271.84,344.1,270.72,345.07Z" fill="#faff31"/><path d="M243.75,356.53c-.51-.69-1.21-1.21-1.21-1.74a5.19,5.19,0,0,1,.75-2.48c.41-.73,1.46-.52,2,.28C246,353.77,245.72,354.62,243.75,356.53Z" fill="#faff31"/><path d="M285.28,372c2.2,1,2.2,1,2.59,3.81a1.08,1.08,0,0,1-1.8.07A3.36,3.36,0,0,1,285.28,372Z" fill="#faff31"/><path d="M275.39,388.73c2.55.74,3,1.61,2.27,4.09C275,391.86,274.71,391.44,275.39,388.73Z" fill="#faff31"/><path d="M241.84,377.37c-1.38-2.72-1.15-3.1,2.17-3.31C243.7,375.48,243.57,376.91,241.84,377.37Z" fill="#faff31"/><path d="M249.6,394.63c1.62-1.84,1.62-1.84,3.76-.42C252.11,396,251.21,396.09,249.6,394.63Z" fill="#faff31"/><path d="M285,353.9l1,.62c-.39.58-.46.78-.59.85-.53.3-1.09.57-1.58.82-.16-.06-.28-.07-.32-.13-.35-.55-.69-1.11-1.07-1.72a2.05,2.05,0,0,1,2.57-.2C285,354.06,285,354,285,353.9Z" fill="#faff31"/><path d="M285,353.9c0,.08,0,.16,0,.23-.77-.31-.95-.84-.26-1.32a1.35,1.35,0,0,1,1.23.36C286.14,353.92,285.51,353.94,285,353.9Z" fill="#faff31"/><path d="M172.91,351.53c-.55-.44-.86-.71-1.2-1a1.5,1.5,0,0,1-.51-2.14,1.52,1.52,0,0,1,2.12-.63c1,.52,1.83,1.21,2.76,1.84l-1,2.15c5.31-.42,9.38,2.1,13.08,5.17a23.06,23.06,0,0,1,6.38,8.46c2.11,4.7,2.74,9.58,3,14.56a11.63,11.63,0,0,1-1.92,7.71,33.23,33.23,0,0,0-1.72,3l3.87.05a9.21,9.21,0,0,1,.76,2.57,3.59,3.59,0,0,1-.91,2.07,1.51,1.51,0,0,1-2.21,0,39.47,39.47,0,0,1-2.82-2.86c-1.7,1.54-3.69,3.3-5.62,5.12A22.74,22.74,0,0,1,176,403.07a32.33,32.33,0,0,1-12.32.11c-1-.16-2.14.22-3.17.07a25.46,25.46,0,0,1-8.64-2.84c-3.69-2-4.92-5.47-5.29-9.2a57.94,57.94,0,0,1,1.34-16.92c.74-3.7,3-6.68,5.35-9.51a7.09,7.09,0,0,0,1.74-2.89c.3-1.13,1.6-2,2.57-2.92,3.82-3.46,8.45-5.35,13.32-6.76C171.49,352,172.06,351.81,172.91,351.53Zm-8.38,49.62,0,.22c1.45,0,2.9,0,4.34.08a20.84,20.84,0,0,0,15.36-4.8,54.59,54.59,0,0,0,7.43-7.46c2.93-3.48,4.76-7.48,3.88-12.24-.42-2.3-.76-4.64-1.36-6.89-1.37-5.11-3.94-9.5-8.4-12.54-2.53-1.73-5.13-3.65-8.32-3.64a29.6,29.6,0,0,0-20,7.61,4.43,4.43,0,0,0-.76,1.09,25.67,25.67,0,0,1-2,3.45,25,25,0,0,0-5.82,13.74c-.46,4.47-.85,8.92.07,13.44.31,1.55.41,3.1,1.68,4,2.27,1.57,4.61,3.16,7.49,3.43C160.2,400.83,162.37,401,164.53,401.15Z" fill="#faff31"/><path d="M151.94,354.49c.92-.09,1.77-.23,2.62-.24,1.86,0,3.13.88,3.17,2.16s-1.33,2.47-3,2.59a2.55,2.55,0,0,1-3-2.41A13.19,13.19,0,0,1,151.94,354.49Z" fill="#faff31"/><path d="M151.82,402.53c-.37.74-.59,2-1.23,2.29-1,.44-2.11,1.24-3.45.61s-1.56-1.4-.8-2.54C147.8,400.7,149.56,400.53,151.82,402.53Z" fill="#faff31"/><path d="M203.74,371c-1.08.38-1.86.9-2.57.83a3.17,3.17,0,0,1-2.21-1.16,3.65,3.65,0,0,1-.28-2.79c.53-1.37,3.32-1,4.29.57A11.24,11.24,0,0,1,203.74,371Z" fill="#faff31"/><path d="M189.16,351.6a3.26,3.26,0,0,1,2.55,2.67,2.34,2.34,0,0,1-2.3,1.86c-1.29.06-2.87-1.19-2.81-2.23A3,3,0,0,1,189.16,351.6Z" fill="#faff31"/><path d="M139.75,377.76l2.37-2.21c1.21.64,2.56,1.13,2.3,2.82-.15,1-.56,1.93-1.8,2C140.88,380.48,140.5,379.1,139.75,377.76Z" fill="#faff31"/></svg>