<svg id="Layer_1" data-name="Layer 1" xmlns="http://www.w3.org/2000/svg" width="3.86in" height="3.33in" viewBox="0 0 277.92 239.8"><title>Artboard 1</title><path d="M15.72,212H10.24c-2.69,0-4.34,1.45-4.86,4.14l-1.55,9c-.52,2.69.72,4.14,3.31,4.14h5.48c2.69,0,4.34-1.45,4.86-4.14l.41-2.17H13.44l-.31,1.76c-.1.41-.31.72-.72.72H8.89c-.41,0-.62-.21-.52-.72l1.45-8.17c.1-.41.31-.72.72-.72h3.52c.41,0,.62.21.52.72l-.31,1.76h4.45l.41-2.17C19.44,213.43,18.3,212,15.72,212Z" fill="#fff"/><polygon points="54.8 224.6 53.66 211.99 49.01 211.99 51.9 229.25 49.01 235.04 53.35 235.04 65.24 211.99 60.59 211.99 54.8 224.6" fill="#fff"/><path d="M104.32,212H98.84c-2.69,0-4.34,1.45-4.86,4.14l-1.55,9c-.52,2.69.72,4.14,3.31,4.14h5.48c2.69,0,4.34-1.45,4.86-4.14l.41-2.17H102l-.31,1.76c-.1.41-.31.72-.72.72H97.5c-.41,0-.62-.21-.52-.72l1.45-8.17c.1-.41.31-.72.72-.72h3.52c.41,0,.62.21.52.72l-.31,1.76h4.45l.41-2.17C108.15,213.43,107,212,104.32,212Z" fill="#fff"/><polygon points="136.27 229.25 140.72 229.25 144.96 205.27 140.51 205.27 136.27 229.25" fill="#fff"/><polygon points="175.66 209.4 180.32 209.4 181.04 205.27 176.39 205.27 175.66 209.4" fill="#fff"/><polygon points="172.25 229.25 176.7 229.25 179.8 211.99 175.35 211.99 172.25 229.25" fill="#fff"/><path d="M221.36,212h-1c-2.38,0-4,1.65-5,2.69l.52-2.69h-4.45l-3,17.27h4.45l2.17-12.2a7.71,7.71,0,0,1,3.93-1.14h.93c.41,0,.62.21.52.72l-2.17,12.61h4.45L225,216.12C225.19,213.43,224.05,212,221.36,212Z" fill="#fff"/><path d="M266.44,212l-.52,2.69a4.41,4.41,0,0,0-4-2.69h-1.34c-2.69,0-4.34,1.45-4.86,4.14l-1.55,8.68c-.52,2.69.72,4.14,3.31,4.14h1.34c2.38,0,4-1.65,5-2.69l-.83,4.65c-.1.41-.21.62-.62.62h-7.13l-.62,3.52h8.06c2.69,0,4.34-1.45,4.86-4.14L270.79,212Zm-2.07,12a7.71,7.71,0,0,1-3.93,1.14h-1.14c-.41,0-.62-.21-.52-.72l1.34-7.86c.1-.41.31-.72.72-.72H262a5.87,5.87,0,0,1,3.52,1.14Z" fill="#fff"/><path d="M277.92,120.76a66.79,66.79,0,0,1-133.58,0h12.4a54.39,54.39,0,1,0,54.39-54.38H191.65l49.71-54h-40l.9-1L212.15.66l.46-.5.15-.16h57.4L219.81,54.59A66.84,66.84,0,0,1,277.92,120.76Z" fill="#f3eb34"/><path d="M66.9,53.45a65.74,65.74,0,0,0-12.82,1.24L104.43,0H87.06L20.68,72.06A66.69,66.69,0,1,0,66.9,53.45Zm0,121.28a54.38,54.38,0,1,1,54.38-54.38A54.45,54.45,0,0,1,66.9,174.73Z" fill="#ec2027"/><path d="M156.85,109H144.44L159,23.57H144.74L166.46,0h9.1Z" fill="#fff"/><rect x="3" y="198.86" width="268.61" height="2.07" fill="#fff"/><path d="M271.61,239.8H3v-2.07H271.61ZM4,238.77H4Z" fill="#fff"/></svg>