<svg id="Layer_1" data-name="Layer 1" xmlns="http://www.w3.org/2000/svg" width="1011.67" height="1011.67" viewBox="0 0 1011.67 1011.67"><title>Artboard 1</title><path d="M0,505.83Q0,368.25,67.78,251.9T251.9,67.78Q368.25,0,505.83,0T759.76,67.78Q876.1,135.56,943.88,251.9t67.78,253.93q0,137.59-67.78,253.93T759.76,943.88q-116.34,67.78-253.93,67.78T251.9,943.88Q135.56,876.1,67.78,759.76T0,505.83Zm84,0Q84,663.65,190.19,784,238.75,688.94,344,603T549.33,494.7Q534.16,459.3,520,431q-174,55.64-376.34,55.64-39.45,0-58.68-1,0,4-.51,10.12T84,505.83Zm13.15-104.2q22.26,2,65.76,2,168.95,0,320.7-45.52Q406.69,221.55,314.63,130.5,234.71,171,177.55,242.8T97.12,401.63Zm150.74,437q114.32,89,258,89,74.86,0,148.71-28.33a1485.52,1485.52,0,0,0-78.91-334.86Q482.57,584.74,388,666.69T247.86,838.67ZM402.64,98.13q89,92.06,164.9,229.65,137.59-57.66,207.39-146.69Q657.58,84,505.83,84A388.31,388.31,0,0,0,402.64,98.13ZM604,399.61q15.17,32.37,34.4,81.94,74.86-7.08,162.88-7.08,62.72,0,124.43,3-8.09-137.59-99.14-244.82Q760.77,330.82,604,399.61Zm59.69,152.76a1452.08,1452.08,0,0,1,69.8,307.55A422.1,422.1,0,0,0,864,727.39q50.58-80.93,60.7-175-73.85-5.06-134.55-5.06Q734.47,547.31,663.65,552.37Z" fill="#fffef4"/></svg>