<svg id="Layer_1" data-name="Layer 1" xmlns="http://www.w3.org/2000/svg" width="2500" height="615" viewBox="0 0 2500 615"><title>Artboard 1</title><path d="M764,245.6a51.8,51.8,0,1,0-51.8-51.8A51.8,51.8,0,0,0,764,245.6Zm1709.1,177c-7.9-5.5-14-6.5-19,4.3-87,188.4-233.6,94.4-219,102.7,32.5-14.9,118-83.4,105.1-178.1-7.8-57.9-57.5-83.5-110.2-74.3-92,16-125.9,115.3-108.6,203.2,3,15.1,8.4,27.5,13.8,39.7-104,84.6-145.3-75.7-150-94.9-.2-1,80.3-68.1,102.7-228,23.5-167.5-30-198-84.6-197.1-101.1,1.8-128.5,213.1-91.7,389.2-3.1.8-17.4,8.7-40.4,9.6-16.5-52.1-87.2-97.7-105.8-80.1-46.3,44,11.2,130,51.7,136.7-24.3,149.8-176.4,112.7-148.1-75,49.5-92,87.2-228.8,80.5-311.3C1747,40,1725.4.8,1676.5,2.7c-94,3.7-104.2,215.1-93.2,365.1-.5-3.7-5.8,18.2-44.3,29.1-9.1-50.6-90.6-101.4-109.7-76.9-35.9,45.7,26.3,127.1,55.8,132.8-24.3,149.8-176.4,112.7-148.1-75,49.5-92,87.2-228.7,80.5-311.3-2.4-29.2-24-68.4-72.9-66.5-94,3.7-104.2,215.1-93.2,365.1-.6-3.8-5.9,18.9-46,29.6-1.3-65.6-83.1-95.7-102.7-74.8-35,37.3,8,113.9,47.8,132.8-24.3,149.8-176.4,112.7-148.1-75,49.5-92,87.2-228.7,80.5-311.3-2.4-29.2-24-68.4-72.9-66.5-94,3.7-101.6,225.7-90.6,375.7-31,132.7-134.8,298.3-121.3-33.5,1.3-23.3,2.8-32.1-8.8-40.8-8.7-6.8-28.5-3.5-39.3-3.2-13.1.5-16.4,8.2-19.3,19.8-6.8,30-8,59.1-8.9,98.8-.6,18.6-2.1,27.2-9.3,52.5s-47.9,71.6-70.2,63.8c-30.9-10.6-20.8-98-15-158,4.8-47.4-10.6-68.7-50.3-76.5-23.2-4.8-37.3-4.1-61.5-11.7s-28-50.4-76.8-36c-26.7,7.9-9.5,64.4-15.9,106.3-31.5,206-97.1,211.6-127.5,111.6C432.2,133.3,334.9,1,277.9,1c-59.4,0-127.2,40.9-98.5,302.5-14-4.1-18.3-6.3-33.6-6.3C59.4,297.2.5,367.2.5,453.4S59.4,609.6,145.9,609.6c51.1,0,86.9-23.2,114-59.1,17.7,25.4,39.3,59.5,78.7,58,117.6-4.6,151.8-245.7,155.8-259.2,12.6,1.9,24.5,5.6,36.1,7.5,19.3,2.9,20.7,10.6,20.3,30-5.1,164,25.1,221.4,93.8,221.4,38.3,0,72.3-37.6,95.8-64.5,17.5,36.2,45.5,63.3,83,64.5,90.9,2.3,125.7-142.6,122.5-123.5-2.5,15,29.5,122.7,123,123.1,115.9.5,137.4-126.9,140-148.3.3-4.2.5-3.8,0,0v1.3c36.8-6.8,55.8-26.6,55.8-26.6s29.5,175.5,139,173.6c113.6-2.1,135.1-117.3,137.9-139.7.4-5.3.6-4.7,0,0v.7c43.7-15.9,55.2-31.9,55.2-31.9s23.5,172.1,139,173.6c102.9,1.3,141-104,141.3-148.1,17.4.2,49.5-10.3,48.7-10.9s37.7,150.4,143,158.2c49.4,3.6,86.5-27.8,107.6-42.2,49.7,40.2,215.1,91.6,319.5-85.5,14.7-25.4-17-55.4-22.5-59.3ZM141.7,551.2c-50.5,0-82.8-46.7-82.8-97s29.7-97,80.2-97c22.7,0,35.3,2.5,53,17.9,3.2,12.6,12.3,41.8,16.7,55,5.9,17.7,13,32.8,20.1,49.2-10.2,42.1-43.4,71.8-87.2,71.8Zm123-174.6c-2.1-3.3-1.7-1.3-4-4.4-9.2-25.2-27.1-81.3-29.1-145.1-2.3-72.2,9.7-156.7,45.1-156.7,24,0,49.6,171.4-12,306.3Zm710.5-75.2c-5.7-42.8-6-233.7,39.8-228.5C1040.3,83.2,998.9,263.3,975.2,301.4Zm334.6,0c-5.7-42.8-6-233.7,39.8-228.5C1374.9,83.2,1333.6,263.3,1309.8,301.4Zm332,2.7c-5.7-42.8-6-233.7,39.8-228.5C1706.9,85.9,1665.6,266,1641.8,304.1ZM2008.3,61.8c41.9-4.3,40.2,178.6-43.9,294.1-10.8-41.8-27.5-279.8,43.9-294.1Zm176.1,393.7c-13.5-68,21.3-112.6,57.2-117.5,12.5-2,30.7,6.1,34.3,21.3,6,28.6-.9,71-81.1,124.8a110.4,110.4,0,0,1-10.4-28.6Z" fill="#fffef4"/></svg>