<?xml version="1.0" encoding="utf-8"?>
<!-- Generator: Adobe Illustrator 21.1.0, SVG Export Plug-In . SVG Version: 6.00 Build 0)  -->
<svg version="1.1" id="Layer_1" xmlns="http://www.w3.org/2000/svg" xmlns:xlink="http://www.w3.org/1999/xlink" x="0px" y="0px"
	 viewBox="0 0 207.3 207.3" style="enable-background:new 0 0 207.3 207.3;" xml:space="preserve">
<style type="text/css">
	.st0{fill:#FFFFFF;}
</style>
<g>
	<path class="st0" d="M0,149.9V57.4c0-0.3,0.1-0.5,0.1-0.8c0.2-3.9,0.8-7.7,1.8-11.4C5.5,31.2,14,18.9,26,10.7
		C35.7,3.8,47.2,0.1,59.1,0.1c29.3-0.1,58.6,0,87.8,0c5.3,0,10.6,0.6,15.7,2c9.6,2.5,18.3,7.4,25.5,14.2
		c12.4,11.7,19,26.2,19.1,43.2c0.2,28.8,0.1,57.7,0,86.5c0,2.1-0.1,4.3-0.2,6.4c-0.5,5.9-1.8,11.7-4.1,17.1
		c-5.2,12.8-14.6,23.5-26.7,30.2c-6.9,3.9-14.6,6.4-22.5,7.2l-3.9,0.4H57.5l-2.6-0.2c-6.8-0.5-13.4-2.3-19.6-5.1
		c-11.9-5.4-21.7-14.5-28-26c-3.8-6.8-6.2-14.3-7-22.1C0.2,152.5,0.1,151.2,0,149.9L0,149.9z M103.6,16H61l-5.4,0.2
		c-6.2,0.5-12.2,2.4-17.5,5.6c-14.5,8.8-22,21.7-22.1,38.7c-0.2,28.8,0,57.6,0,86.4c0,3.3,0.3,6.6,1,9.8
		c4.3,20.2,22.1,34.6,42.7,34.7c29,0.1,58,0,87.1,0c2.6,0,5.2-0.2,7.8-0.6c8.1-1.3,15.6-4.8,21.7-10.3c9.8-8.4,15.3-20.7,15.1-33.6
		c0.1-28.8,0.1-57.6,0-86.3c0-1.8-0.1-3.6-0.3-5.4c-0.9-8.5-4.2-16.5-9.7-23c-8.8-10.5-20.1-16-33.7-16.1S118.3,16,103.6,16
		L103.6,16z"/>
	<path class="st0" d="M47.8,103.6c0-30.8,25-55.8,55.8-55.8s55.8,25,55.8,55.8s-25,55.8-55.8,55.8c-0.1,0-0.1,0-0.2,0
		C72.7,159.2,47.9,134.3,47.8,103.6z M63.7,103.7c0,22,17.9,39.9,39.9,39.9s39.9-17.9,39.9-39.9s-17.9-39.9-39.9-39.9l0,0
		C81.6,63.8,63.8,81.6,63.7,103.7L63.7,103.7C63.8,103.7,63.7,103.7,63.7,103.7z M175.4,43.9c0,6.6-5.4,12-12,12s-12-5.4-12-12
		s5.4-12,12-12h0.1C170.1,32,175.4,37.3,175.4,43.9z"/>
</g>
</svg>
