<svg id="Layer_1" data-name="Layer 1" xmlns="http://www.w3.org/2000/svg" width="5.1in" height="4.8in" viewBox="0 0 366.7 347.1"><title>Artboard 1</title><g opacity="0.5"><polygon points="115.1 289.8 104.6 195 115.1 193.8 124.6 279.8 141.5 278 142.4 286.7 115.1 289.8" fill="#fff"/><rect x="152.5" y="190.6" width="10.6" height="95.37" transform="translate(-10.7 7.5) rotate(-2.6)" fill="#fff"/><polygon points="180.8 285.2 182.7 189.8 212.8 190.5 212.7 199.3 193.1 198.9 192.3 237.7 208.7 238 208.5 247 192.1 246.6 191.3 285.4 180.8 285.2" fill="#fff"/><polygon points="230.9 287.5 239.8 201.6 228.5 200.4 229.4 191.5 262.8 195 261.8 203.9 250.5 202.7 241.5 288.6 230.9 287.5" fill="#fff"/><path d="M116.6,170.8a14.4,14.4,0,0,1-15.7-12.9L89.9,49.4a14.3,14.3,0,0,1,12.9-15.7L125,31.4a14.4,14.4,0,0,1,15.7,12.9l2.2,21.5L128,67.2l-2.3-23.3-21,2.1,4.8,47.6,21.7-2.2a14.4,14.4,0,0,1,15.7,12.9l4.9,48.4a14.6,14.6,0,0,1-12.9,15.7ZM132.1,104l-21.5,2.2,5.2,52.1,21.5-2.2Z" fill="#fff"/><polygon points="177.7 165.4 181.3 45.1 167.7 51.3 162.1 40 181.7 30.1 196.7 30.6 192.6 165.9 177.7 165.4" fill="#fff"/><path d="M227.3,168.7a14.4,14.4,0,0,1-12.7-15.9l2.6-23.1,14.9,1.7-2.8,24.9,20.4,2.3,5.6-50.4-21.2-2.4,1.6-14.3,20,2.2,5.1-46.1-20-2.2-2.6,23.3L223.3,67l2.4-21.4a14.3,14.3,0,0,1,15.9-12.7l21.2,2.4a14.4,14.4,0,0,1,12.7,15.9l-4.6,41.4c-.7,6.7-7.4,8.9-9.1,9.1,1.8.8,8.8,4.3,8.1,11l-5.1,45.7A14.6,14.6,0,0,1,249,171.1Z" fill="#fff"/><polygon points="169 316.7 169 295.2 171.4 295.2 171.4 314.7 175.2 314.7 175.2 316.7 169 316.7" fill="#fff"/><polygon points="178.2 316.7 178.2 302.6 176.1 302.6 176.1 300.6 178.2 300.6 178.2 297 180.5 297 180.5 300.6 183 300.6 183 302.6 180.5 302.6 180.5 316.7 178.2 316.7" fill="#fff"/><path d="M186.7,316.7a2.3,2.3,0,0,1-2.3-2.3V302.9a2.3,2.3,0,0,1,2.3-2.3h1.7a2.1,2.1,0,0,1,1.6.6v-6.8h2.4v22.3Zm3.3-14.1h-3.3v12.1h3.3Z" fill="#fff"/><rect x="195.2" y="313.4" width="2.6" height="3.3" fill="#fff"/><rect x="238" y="182.3" width="89.6" height="11.67" transform="translate(51.5 436.9) rotate(-80.7)" fill="#fff"/><rect x="253.5" y="184.8" width="89.6" height="11.67" transform="matrix(0.16, -0.99, 0.99, 0.16, 61.97, 454.23)" fill="#fff"/><rect x="268.9" y="187.3" width="89.6" height="11.67" transform="translate(72.4 471.6) rotate(-80.7)" fill="#fff"/><rect x="321.4" y="189.7" width="14.4" height="11.67" transform="matrix(0.16, -0.99, 0.99, 0.16, 82.52, 488.19)" fill="#fff"/><path d="M274.1,181.4l-1.6,9.2a507.5,507.5,0,0,0-178.3,0l-1.6-9.2a517.1,517.1,0,0,1,181.4.1Z" fill="#fff"/><rect x="78" y="143.3" width="11.7" height="89.61" transform="translate(-29.3 16) rotate(-9.3)" fill="#fff"/><rect x="62.6" y="145.8" width="11.7" height="89.61" transform="translate(-29.9 13.6) rotate(-9.3)" fill="#fff"/><rect x="47.1" y="148.4" width="11.7" height="89.61" transform="translate(-30.5 11.1) rotate(-9.3)" fill="#fff"/><rect x="32.3" y="188.3" width="11.7" height="14.38" transform="translate(-31.1 8.7) rotate(-9.3)" fill="#fff"/></g><polygon points="319.2 0 314.2 30.4 295.5 144.8 289.2 183.8 289.1 184.5 287.7 193.1 287.5 193.8 281.1 233.2 271.4 292.4 271.3 293.1 269.9 301.7 269.8 302.3 267.5 316.7 262.5 347.1 263.2 347.1 268.2 316.7 270.5 302.5 270.6 301.8 272 293.2 272.1 292.5 288.2 193.9 288.3 193.2 288.3 193.2 289.7 184.7 289.9 184 314.9 30.4 319.9 0 319.2 0" fill="#ec1c24"/><polygon points="307.4 0 302.4 30.4 277.7 181.6 277.7 181.6 277.6 182.3 276.2 190.8 276.1 191.5 259.9 290.6 259.8 291.3 258.4 299.8 258.3 300.5 255.6 316.7 250.7 347.1 251.4 347.1 256.4 316.7 259 300.6 259.1 299.9 259.1 299.9 260.5 291.4 260.6 290.7 270.3 231.5 270.3 231.5 276.8 191.6 276.9 190.9 278.3 182.4 278.4 181.7 284.7 143 303.1 30.4 308.1 0 307.4 0" fill="#ec1c24"/><polygon points="303.4 0 298.4 30.4 273.7 181.6 273.7 181.6 273.6 182.3 272.2 190.8 272.1 191.5 255.9 290.6 255.8 291.3 254.4 299.8 254.3 300.5 251.7 316.7 246.7 347.1 247.4 347.1 252.4 316.7 255 300.6 255.1 299.9 255.1 299.9 256.5 291.4 256.6 290.7 266.3 231.5 266.3 231.5 272.8 191.6 272.9 190.9 274.3 182.4 274.4 181.7 280.7 143 299.1 30.4 304.1 0 303.4 0" fill="#ec1c24"/><path d="M275.4,293.1v.7l-1.4,8.5h.7l1.4-8.5v-.7Zm0,0v.7l-1.4,8.5h.7l1.4-8.5v-.7Zm0,0v.7l-1.4,8.5h.7l1.4-8.5v-.7ZM335,0l-5,30.4L311,147.3l-6.5,40v.7l-1.4,8.6v.7l-6.3,38.5-9.7,59.6v.7l-1.4,8.5v.7l-1.9,11.5-5,30.4h.7l5-30.4,1.9-11.3v-.7l1.4-8.5v-.7l16-98.1v-.7l1.4-8.6v-.7l25.6-157,4.4-26.8.4-2.4.2-1.3ZM275.2,293.8l-1.4,8.5h.7l1.4-8.5v-.7h-.7Zm.1-.7v.7l-1.4,8.5h.7l1.4-8.5v-.7Zm0,0v.7l-1.4,8.5h.7l1.4-8.5v-.7ZM323.2,0l-5,30.4L293.1,184.7v.7l-1.4,8.5v.7l-16.1,98.5v.7l-1.4,8.5v.7l-2.2,13.7-5,30.4h.7l5-30.4,2.2-13.5v-.7l1.4-8.5v-.7l9.7-59.3,6.4-39.2v-.7l1.4-8.5v-.7l6.4-39.3L319,30.4l5-30.4Z" fill="#ec1c24"/><path d="M307,198.2h-.3l-16,98v.7l-1.4,8.5h.7l1.4-8.5v-.7l9.8-59.8,6.2-38.2Zm0,0h-.3l-16,98v.7l-1.4,8.5h.7l1.4-8.5v-.7l9.8-59.8,6.2-38.2Zm0,0h-.3l-16,98v.7l-1.4,8.5h.7l1.4-8.5v-.7l9.8-59.8,6.2-38.2ZM350.9,0l-.2,1.3-4.8,29.2-10.8,66-8.7,53.4-6.8,41.3v.7l-1.4,8.6v.7L312,238.3l-9.9,60.4v.7l-1.4,8.6v.7l-1.3,8.1-5,30.4h.7l5-30.4,1.3-7.9v-.7l1.4-8.6v-.7l15.9-97.5v-.7l1.4-8.6v-.7h0l14.8-90.6,11.5-70.3,4.8-29.2.2-1.3ZM307.4,198.3h-.7l-16,98v.7l-1.4,8.5h.7l1.4-8.5v-.7l9.8-59.8Zm-.4-.1h-.3l-16,98v.7l-1.4,8.5h.7l1.4-8.5v-.7l9.8-59.8,6.2-38.2Zm0,0h-.3l-16,98v.7l-1.4,8.5h.7l1.4-8.5v-.7l9.8-59.8,6.2-38.2ZM339.1,0l-.2,1.3L335.2,24l-1.1,6.5L308.3,188.2v.7l-1.4,8.6v.7l-16,98v.7l-1.4,8.5v.7l-1.7,10.7-5,30.4h.7l5-30.4,1.7-10.5v-.7l1.4-8.5v-.7l9.8-59.8,6.2-38.2v-.7l1.4-8.6v-.7l6.6-40.3L334.8,30.4l.3-2.1,4.4-27.1.2-1.3Z" fill="#ec1c24"/><path d="M354.2,0,354,1.3l-4.8,29.2-14.1,86.3-12.3,75.4v.7l-1.4,8.6v.7l-15.9,97.4.7.2,15.9-97.4v-.7l1.4-8.6v-.7l.8-4.7,10.9-66.5L350,30.4l4.8-29.2.2-1.3Zm0,0L354,1.3l-4.8,29.2-14.1,86.3-12.3,75.4v.7l-1.4,8.6v.7l-15.9,97.4.7.2,15.9-97.4v-.7l1.4-8.6v-.7l.8-4.7,10.9-66.5L350,30.4l4.8-29.2.2-1.3Zm0,0L354,1.3l-4.8,29.2-14.1,86.3-12.3,75.4v.7l-1.4,8.6v.7l-15.9,97.4.7.2,15.9-97.4v-.7l1.4-8.6v-.7l.8-4.7,10.9-66.5L350,30.4l4.8-29.2.2-1.3Zm0,0L354,1.3l-4.8,29.2-14.1,86.3-12.3,75.4v.7l-1.4,8.6v.7l-15.9,97.4v.7h0l-1.4,8.6v.7l-1.2,7.3-5,30.4h.7l5-30.4,1.2-7.2h0v-.7l1.4-8.6v-.7l15.9-97.4v-.7l1.4-8.6v-.7l.8-4.7,10.9-66.5L350,30.4l4.8-29.2.2-1.3ZM323.1,192.9l-1.4,8.6h-.3v.7l-15.9,97.4v.7h0l-1.4,8.6.7.2,1.4-8.6v-.7l15.9-97.4v-.7l1.4-8.6Zm0,0-1.4,8.6h-.3v.7l-15.9,97.4v.7h0l-1.4,8.6.7.2,1.4-8.6v-.7l15.9-97.4v-.7l1.4-8.6Zm0,0-1.4,8.6h-.3v.7l-15.9,97.4v.7h0l-1.4,8.6.7.2,1.4-8.6v-.7l15.9-97.4v-.7l1.4-8.6ZM366,0l-.2,1.3-.3,1.6-4.5,27.6L335.2,189.1v.2l-1,6.1v.7l-1.2,7.4-.2,1.2h0v.7l-15.8,96.9h0v.7l-1.4,8.6v.7l-.7,4.4-5,30.4h.7l5-30.4.7-4.2v-.7l1.4-8.6v-.7l15.8-96.9v-.7l1.4-8.6v-.7l.3-2.1,26.6-163,3.8-23.3,1-5.9.2-1.3Zm-43,192.9-1.4,8.6h-.3v.7l-15.9,97.4v.7h0l-1.4,8.6.7.2,1.4-8.6v-.7l15.9-97.4v-.7l1.4-8.6Zm0,0-1.4,8.6h-.3v.7l-15.9,97.4v.7h0l-1.4,8.6.7.2,1.4-8.6v-.7l15.9-97.4v-.7l1.4-8.6Zm0,0-1.4,8.6h-.3v.7l-15.9,97.4v.7h0l-1.4,8.6.7.2,1.4-8.6v-.7l15.9-97.4v-.7l1.4-8.6ZM354.2,0,354,1.3l-4.8,29.2-14.1,86.3-12.3,75.4v.7l-1.4,8.6v.7l-15.9,97.4.7.2,15.9-97.4v-.7l1.4-8.6v-.7l.8-4.7,10.9-66.5L350,30.4l4.8-29.2.2-1.3Zm0,0L354,1.3l-4.8,29.2-14.1,86.3-12.3,75.4v.7l-1.4,8.6v.7l-15.9,97.4.7.2,15.9-97.4v-.7l1.4-8.6v-.7l.8-4.7,10.9-66.5L350,30.4l4.8-29.2.2-1.3Z" fill="#ec1c24"/><polygon points="111.1 316.7 108.5 300.5 108.3 299.8 107 291.3 106.8 290.6 90.7 191.5 90.5 190.8 89.2 182.3 89.2 182.3 89 181.6 64.4 30.4 59.4 0 58.7 0 63.6 30.4 82 143 88.3 181.7 88.5 182.4 89.9 190.9 90 191.6 96.5 231.4 106.2 290.7 106.3 291.4 107.7 299.9 107.8 300.6 110.4 316.7 115.4 347.1 116.1 347.1 111.1 316.7" fill="#ec1c24"/><polygon points="115.2 316.7 112.6 300.5 112.4 299.8 111 291.3 110.9 290.6 94.8 191.5 94.6 190.8 93.2 182.3 93.2 182.3 93.1 181.6 68.4 30.4 63.5 0 62.8 0 67.7 30.4 86.1 143 92.4 181.7 92.6 182.4 94 190.9 94.1 191.6 100.6 231.4 110.2 290.7 110.4 291.4 111.7 299.9 111.9 300.6 114.5 316.7 119.5 347.1 120.2 347.1 115.2 316.7" fill="#ec1c24"/><polygon points="96.9 302.3 96.8 301.6 95.4 293.1 95.3 292.4 85.6 233.2 79.2 193.8 79.1 193.1 77.7 184.5 77.6 183.8 71.2 144.8 52.5 30.4 47.6 0 46.9 0 51.8 30.4 76.9 184 77 184.7 78.4 193.2 78.5 193.9 94.6 292.5 94.7 293.2 96.1 301.8 96.2 302.5 98.6 316.7 103.5 347.1 104.3 347.1 99.3 316.7 96.9 302.3" fill="#ec1c24"/><path d="M95.3,316.7,93,303v-.7l-1.4-8.5v-.7L75.3,194.6v-.7l-1.4-8.5v-.7L48.5,30.4,43.5,0h-.7l5,30.4L66.6,145.5,73,184.8v.7l1.4,8.5v.7L81,234l9.7,59.3v.7l1.4,8.5v.7l2.2,13.6,5,30.4h.7Zm-3.7-22.9v-.7L75.3,194.6h-.7L81,234l9.7,59.3v.7l1.4,8.5h.7Zm0,0v-.7h-.7v.7l1.4,8.5h.7Zm0,0v-.7h-.7v.7l1.4,8.5h.7Zm-10,11.4v-.7L80.1,296v-.7l-9.7-59.6-6.3-38.5v-.7L62.4,188v-.7l-6.5-40L36.7,30.4,31.7,0H31l.2,1.1.4,2.8L36,30.4l25.6,157v.7l1.4,8.6v.7l16,98.1v.7l1.4,8.5v.7l1.9,11.3,5,30.4h.7l-5-30.4Zm10-11.4v-.7h-.7v.7l1.4,8.5h.7Zm0,0v-.7L75.3,194.6h-.7L81,234l9.7,59.3v.7l1.4,8.5h.7Zm0,0v-.7L75.3,194.6h-.7L81,234l9.7,59.3v.7l1.4,8.5h.7Z" fill="#ec1c24"/><path d="M79.4,316.7,77.7,306v-.7l-1.4-8.5v-.7l-16-98v-.7h0l-1.4-8.5v-.7L32.6,30.4l-1-6.3L27.9,1.1,27.7,0H27l.2,1.1,4.5,27.4.3,1.9L51.2,148.1l6.6,40.3v.7l1.4,8.6v.7l6.2,38.2,9.8,59.8v.7l1.4,8.5v.7l1.7,10.5,5,30.4h.7Zm-3.3-19.9v-.7l-16-98h-.7l6.2,38.2,9.8,59.8v.7l1.4,8.5h.7Zm0,0v-.7l-16-98h-.7l6.2,38.2,9.8,59.8v.7l1.4,8.5h.7Zm0,0v-.7l-16-98h-.7l6.2,38.2,9.8,59.8v.7l1.4,8.5h.7Zm-9.9,11.8v-.7l-1.4-8.6v-.7l-9.9-60.4-6.1-37.1v-.7l-1.4-8.6v-.7l-6.7-41.3L31.6,96.5,20.8,30.4,16,1.1,15.9,0h-.7l.2,1.1,4.8,29.4,11.5,70.4,14.8,90.5v.7l1.4,8.6v.7L64,298.8v.7l1.4,8.6v.7l1.3,8,5,30.4h.7l-5-30.4Zm9.9-11.8v-.7l-16-98h-.7l6.2,38.2,9.8,59.8v.7l1.4,8.5h.7Zm0,0v-.7l-16-98h-.7l6.2,38.2,9.8,59.8v.7l1.4,8.5h.7Zm0,0v-.7l-16-98h-.7l6.2,38.2,9.8,59.8v.7l1.4,8.5h.7Z" fill="#ec1c24"/><path d="M61.6,300.1v-.7L45.5,202v-.7H45l-1.4-8.6h-.3l1.4,8.6v.7l15.9,97.4v.7l1.4,8.6.7-.2Zm0,0v-.7L45.5,202v-.7H45l-1.4-8.6h-.3l1.4,8.6v.7l15.9,97.4v.7l1.4,8.6.7-.2Zm0,0v-.7L45.5,202v-.7H45l-1.4-8.6h-.3l1.4,8.6v.7l15.9,97.4v.7l1.4,8.6.7-.2Zm-9.1,16.6-.7-4.4v-.7L50.2,303v-.7l-15.8-97v-.7l-.2-1.2-1.2-7.4v-.7l-1-6h0L5.7,30.4H5L31.6,193.6l.3,2v.7l1.4,8.6v.7l15.8,96.9v.7l1.4,8.6v.7l.7,4.2,5,30.4h.7Zm9.1-16.6v-.7L45.5,202v-.7H45l-1.4-8.6h-.3l1.4,8.6v.7l15.9,97.4v.7l1.4,8.6.7-.2Zm0,0v-.7L45.5,202v-.7H45l-1.4-8.6h-.3l1.4,8.6v.7l15.9,97.4v.7l1.4,8.6.7-.2Zm0,0v-.7L45.5,202v-.7H45l-1.4-8.6h-.3l1.4,8.6v.7l15.9,97.4v.7l1.4,8.6.7-.2Zm2.7,16.6-1.2-7.3v-.7l-1.4-8.6v-.7L45.5,202v-.7L44,192.8v-.7L31.6,116.8,17.5,30.4,12.7,1.1,12.5,0h-.7L12,1.1l4.8,29.4,14.8,90.8,10.8,66.4.8,4.7v.7l1.4,8.6v.7l15.9,97.4v.7l1.4,8.6v.7l1.2,7.2,5,30.4h.7Z" fill="#ec1c24"/><polygon points="5.7 30.4 5 30.4 1.2 7.3 0.2 1.1 0 0 0.7 0 0.9 1.1 1.2 2.9 5.7 30.4" fill="#ec1c24"/><path d="M335.2,205.5l-1.9-.6-.7-.2h0l-8.9-2.7h0l-1.6-.5h-.7l-2.5-.7h-.7l-10.7-2.8h-.7l-3.2-.8h-.7l-10.7-2.5h-.7l-3.2-.7h-.7l-10.8-2.1h-.7l-3.6-.7a513.9,513.9,0,0,0-178.4,0l-3.6.6h-.7l-10.8,2.1h-.7l-3.2.7h-.7l-10.7,2.5h-.7l-3.2.8h-.7l-10.7,2.8h-.7l-2.5.7h-.7l-1.7.5h0l-8.9,2.7-.7.2-1.8.6q-15.4,4.8-30.4,10.6v.8q15.1-5.8,30.4-10.7l2-.6.7-.2,10.6-3.1.7-.2,2.5-.7h.7l10.7-2.8H60l3.2-.8h.7l10.7-2.5h.7l3.2-.7h.7L90,191.6h.7a513.3,513.3,0,0,1,185.4,0h.7l10.8,2.1h.7l3.2.7h.7l10.7,2.5h.7l3.2.8h.7l5.2,1.3,5.4,1.5h.7l2.5.7.7.2,10.6,3.1.7.2,2,.6q15.3,4.8,30.4,10.7v-.8Q350.5,210.3,335.2,205.5Z" fill="#ec1c24"/><path d="M318.8,200.7h-.7l-10.7-2.8h-.7l-3.2-.8h-.7l-10.7-2.5h-.7l-3.2-.7h-.7l-10.8-2.1h-.7l-3.6-.7a513.9,513.9,0,0,0-178.4,0l-3.6.6h-.7l-10.8,2.1h-.7l-3.2.7h-.7l-10.7,2.5h-.7l-3.2.8h-.7l-10.7,2.8h-.7l-2.5.7h-.7l-1.7.5h0l-8.9,2.7-.7.2-1.8.6q-15.4,4.8-30.4,10.6v.8q15.1-5.8,30.4-10.7l2-.6.7-.2,10.6-3.1.7-.2,2.5-.7h.7l10.7-2.8H60l3.2-.8h.7l10.7-2.5h.7l3.2-.7h.7L90,191.6h.7a513.3,513.3,0,0,1,185.4,0h.7l10.8,2.1h.7l3.2.7h.7l10.7,2.5h.7l3.2.8h.7l5.2,1.3,5.4,1.5h.7l2.5.7v-.7Z" fill="#ec1c24"/><path d="M318.8,200.7h-.7l-10.7-2.8h-.7l-3.2-.8h-.7l-10.7-2.5h-.7l-3.2-.7h-.7l-10.8-2.1h-.7l-3.6-.7a513.9,513.9,0,0,0-178.4,0l-3.6.6h-.7l-10.8,2.1h-.7l-3.2.7h-.7l-10.7,2.5h-.7l-3.2.8h-.7l-10.7,2.8h-.7l-2.5.7h-.7l-1.7.5h0l-8.9,2.7-.7.2-1.8.6q-15.4,4.8-30.4,10.6v.8q15.1-5.8,30.4-10.7l2-.6.7-.2,10.6-3.1.7-.2,2.5-.7h.7l10.7-2.8H60l3.2-.8h.7l10.7-2.5h.7l3.2-.7h.7L90,191.6h.7a513.3,513.3,0,0,1,185.4,0h.7l10.8,2.1h.7l3.2.7h.7l10.7,2.5h.7l3.2.8h.7l5.2,1.3,5.4,1.5h.7l2.5.7v-.7Z" fill="#ec1c24"/><path d="M335.2,195.7h-1l-10.6-3.1h-.7l-2.5-.7h-.7L309,188.4h-.7l-3.2-.8h-.7l-10.7-2.5h-.7l-3.2-.7h-.7l-10.8-2.1h-.7a523.3,523.3,0,0,0-188.7,0h-.7l-10.8,2.1h-.7l-3.2.7H73l-10.7,2.5h-.7l-3.2.8h-.7l-10.7,2.8h-.7l-2.5.7h-.7l-10.6,3.1h-1q-15.3,4.7-30.4,10.4v.7q15.1-5.7,30.4-10.4h1.1l10.6-3.1H44l2.5-.7h.7l10.7-2.8h.7l3.2-.8h.7l10.7-2.5h.7l3.2-.7h.7l10.8-2.1h.7l3.6-.6a523.2,523.2,0,0,1,181.3,0l3.6.7h.7l10.8,2.1h.7l3.2.7h.7l10.7,2.4h.7l3.2.8h.7l10.7,2.8h.7l2.5.7h.7l10.6,3.1h1.1q15.3,4.7,30.4,10.4v-.7Q350.5,200.4,335.2,195.7Z" fill="#ec1c24"/><path d="M318.8,200.7h-.7l-10.7-2.8h-.7l-3.2-.8h-.7l-10.7-2.5h-.7l-3.2-.7h-.7l-10.8-2.1h-.7l-3.6-.7a513.9,513.9,0,0,0-178.4,0l-3.6.6h-.7l-10.8,2.1h-.7l-3.2.7h-.7l-10.7,2.5h-.7l-3.2.8h-.7l-10.7,2.8h-.7l-2.5.7h-.7l-1.7.5h0l-8.9,2.7-.7.2-1.8.6q-15.4,4.8-30.4,10.6v.8q15.1-5.8,30.4-10.7l2-.6.7-.2,10.6-3.1.7-.2,2.5-.7h.7l10.7-2.8H60l3.2-.8h.7l10.7-2.5h.7l3.2-.7h.7L90,191.6h.7a513.3,513.3,0,0,1,185.4,0h.7l10.8,2.1h.7l3.2.7h.7l10.7,2.5h.7l3.2.8h.7l5.2,1.3,5.4,1.5h.7l2.5.7v-.7Z" fill="#ec1c24"/><path d="M335.2,205.5l-1.9-.6-.7-.2h0l-8.9-2.7h0l-1.6-.5h-.7l-2.5-.7h-.7l-10.7-2.8h-.7l-3.2-.8h-.7l-10.7-2.5h-.7l-3.2-.7h-.7l-10.8-2.1h-.7l-3.6-.7a513.9,513.9,0,0,0-178.4,0l-3.6.6h-.7l-10.8,2.1h-.7l-3.2.7h-.7l-10.7,2.5h-.7l-3.2.8h-.7l-10.7,2.8h-.7l-2.5.7h-.7l-1.7.5h0l-8.9,2.7-.7.2-1.8.6q-15.4,4.8-30.4,10.6v.8q15.1-5.8,30.4-10.7l2-.6.7-.2,10.6-3.1.7-.2,2.5-.7h.7l10.7-2.8H60l3.2-.8h.7l10.7-2.5h.7l3.2-.7h.7L90,191.6h.7a513.3,513.3,0,0,1,185.4,0h.7l10.8,2.1h.7l3.2.7h.7l10.7,2.5h.7l3.2.8h.7l5.2,1.3,5.4,1.5h.7l2.5.7.7.2,10.6,3.1.7.2,2,.6q15.3,4.8,30.4,10.7v-.8Q350.5,210.3,335.2,205.5Z" fill="#ec1c24"/><path d="M335.2,205.5l-1.9-.6-.7-.2h0l-8.9-2.7h0l-1.6-.5h-.7l-2.5-.7h-.7l-10.7-2.8h-.7l-3.2-.8h-.7l-10.7-2.5h-.7l-3.2-.7h-.7l-10.8-2.1h-.7l-3.6-.7a513.9,513.9,0,0,0-178.4,0l-3.6.6h-.7l-10.8,2.1h-.7l-3.2.7h-.7l-10.7,2.5h-.7l-3.2.8h-.7l-10.7,2.8h-.7l-2.5.7h-.7l-1.7.5h0l-8.9,2.7-.7.2-1.8.6q-15.4,4.8-30.4,10.6v.8q15.1-5.8,30.4-10.7l2-.6.7-.2,10.6-3.1.7-.2,2.5-.7h.7l10.7-2.8H60l3.2-.8h.7l10.7-2.5h.7l3.2-.7h.7L90,191.6h.7a513.3,513.3,0,0,1,185.4,0h.7l10.8,2.1h.7l3.2.7h.7l10.7,2.5h.7l3.2.8h.7l5.2,1.3,5.4,1.5h.7l2.5.7.7.2,10.6,3.1.7.2,2,.6q15.3,4.8,30.4,10.7v-.8Q350.5,210.3,335.2,205.5Z" fill="#ec1c24"/><path d="M301.3,308.1l-.7-.2-10.7-2.4h-.7l-3.2-.7h-.7l-10.8-2.1h-.7l-3.2-.6h-.7l-10.8-1.7h-.7a510.7,510.7,0,0,0-66-5.4h-9.1a511.4,511.4,0,0,0-75,5.5h-.7l-10.8,1.7h-.7l-3.2.6h-.7l-10.8,2.1h-.7l-3.2.7h-.7l-10.7,2.4-.7.2-2.5.6-.7.2-10.7,2.7-.7.2q-8.6,2.3-17.1,4.9l-2.2.7Q16.3,322.2,1.2,328v.8q15.1-5.8,30.4-10.7l4.6-1.4L51,312.5l.7-.2,10.7-2.7.7-.2,2.5-.6.7-.2L77,306.2h.7l3.2-.7h.7l10.8-2.1H93l3.2-.6h.7l10.8-1.7h.7a508.4,508.4,0,0,1,60.5-5.3h1.6l12.8-.2h9.1a510.7,510.7,0,0,1,65.9,5.4h.7l10.8,1.7h.7l3.2.6h.7l10.8,2.1h.7l3.2.7h.7l10.7,2.4.7.2,2.5.6v-.7Z" fill="#ec1c24"/><path d="M335.2,317.4l-2.3-.7q-8.5-2.6-17-4.9l-.7-.2-10.7-2.7-.7-.2-2.5-.6-.7-.2-10.7-2.4h-.7l-3.2-.7h-.7l-10.8-2.1h-.7l-3.2-.6h-.7l-10.8-1.7h-.7a510.7,510.7,0,0,0-66-5.4h-9.1a511.4,511.4,0,0,0-75,5.5h-.7l-10.8,1.7h-.7l-3.2.6h-.7l-10.8,2.1h-.7l-3.2.7h-.7l-10.7,2.4-.7.2-2.5.6-.7.2-10.7,2.7-.7.2q-8.6,2.3-17.1,4.9l-2.2.7Q16.3,322.2,1.2,328v.8q15.1-5.8,30.4-10.7l4.6-1.4L51,312.5l.7-.2,10.7-2.7.7-.2,2.5-.6.7-.2L77,306.2h.7l3.2-.7h.7l10.8-2.1H93l3.2-.6h.7l10.8-1.7h.7a508.4,508.4,0,0,1,60.5-5.3h1.6l12.8-.2h9.1a510.7,510.7,0,0,1,65.9,5.4h.7l10.8,1.7h.7l3.2.6h.7l10.8,2.1h.7l3.2.7h.7l10.7,2.4.7.2,2.5.6.7.2h0l10.7,2.7.7.2,14.7,4.2,4.7,1.5q15.3,4.8,30.4,10.7v-.8Q350.5,322.3,335.2,317.4Z" fill="#ec1c24"/><path d="M335.2,317.4l-2.3-.7q-8.5-2.6-17-4.9l-.7-.2-10.7-2.7-.7-.2-2.5-.6-.7-.2-10.7-2.4h-.7l-3.2-.7h-.7l-10.8-2.1h-.7l-3.2-.6h-.7l-10.8-1.7h-.7a510.7,510.7,0,0,0-66-5.4h-9.1a511.4,511.4,0,0,0-75,5.5h-.7l-10.8,1.7h-.7l-3.2.6h-.7l-10.8,2.1h-.7l-3.2.7h-.7l-10.7,2.4-.7.2-2.5.6-.7.2-10.7,2.7-.7.2q-8.6,2.3-17.1,4.9l-2.2.7Q16.3,322.2,1.2,328v.8q15.1-5.8,30.4-10.7l4.6-1.4L51,312.5l.7-.2,10.7-2.7.7-.2,2.5-.6.7-.2L77,306.2h.7l3.2-.7h.7l10.8-2.1H93l3.2-.6h.7l10.8-1.7h.7a508.4,508.4,0,0,1,60.5-5.3h1.6l12.8-.2h9.1a510.7,510.7,0,0,1,65.9,5.4h.7l10.8,1.7h.7l3.2.6h.7l10.8,2.1h.7l3.2.7h.7l10.7,2.4.7.2,2.5.6.7.2h0l10.7,2.7.7.2,14.7,4.2,4.7,1.5q15.3,4.8,30.4,10.7v-.8Q350.5,322.3,335.2,317.4Z" fill="#ec1c24"/><path d="M335.2,317.4l-2.3-.7q-8.5-2.6-17-4.9l-.7-.2-10.7-2.7-.7-.2-2.5-.6-.7-.2-10.7-2.4h-.7l-3.2-.7h-.7l-10.8-2.1h-.7l-3.2-.6h-.7l-10.8-1.7h-.7a510.7,510.7,0,0,0-66-5.4h-9.1a511.4,511.4,0,0,0-75,5.5h-.7l-10.8,1.7h-.7l-3.2.6h-.7l-10.8,2.1h-.7l-3.2.7h-.7l-10.7,2.4-.7.2-2.5.6-.7.2-10.7,2.7-.7.2q-8.6,2.3-17.1,4.9l-2.2.7Q16.3,322.2,1.2,328v.8q15.1-5.8,30.4-10.7l4.6-1.4L51,312.5l.7-.2,10.7-2.7.7-.2,2.5-.6.7-.2L77,306.2h.7l3.2-.7h.7l10.8-2.1H93l3.2-.6h.7l10.8-1.7h.7a508.4,508.4,0,0,1,60.5-5.3h1.6l12.8-.2h9.1a510.7,510.7,0,0,1,65.9,5.4h.7l10.8,1.7h.7l3.2.6h.7l10.8,2.1h.7l3.2.7h.7l10.7,2.4.7.2,2.5.6.7.2h0l10.7,2.7.7.2,14.7,4.2,4.7,1.5q15.3,4.8,30.4,10.7v-.8Q350.5,322.3,335.2,317.4Z" fill="#ec1c24"/><path d="M335.2,317.4l-2.3-.7q-8.5-2.6-17-4.9l-.7-.2-10.7-2.7-.7-.2-2.5-.6-.7-.2-10.7-2.4h-.7l-3.2-.7h-.7l-10.8-2.1h-.7l-3.2-.6h-.7l-10.8-1.7h-.7a510.7,510.7,0,0,0-66-5.4h-9.1a511.4,511.4,0,0,0-75,5.5h-.7l-10.8,1.7h-.7l-3.2.6h-.7l-10.8,2.1h-.7l-3.2.7h-.7l-10.7,2.4-.7.2-2.5.6-.7.2-10.7,2.7-.7.2q-8.6,2.3-17.1,4.9l-2.2.7Q16.3,322.2,1.2,328v.8q15.1-5.8,30.4-10.7l4.6-1.4L51,312.5l.7-.2,10.7-2.7.7-.2,2.5-.6.7-.2L77,306.2h.7l3.2-.7h.7l10.8-2.1H93l3.2-.6h.7l10.8-1.7h.7a508.4,508.4,0,0,1,60.5-5.3h1.6l12.8-.2h9.1a510.7,510.7,0,0,1,65.9,5.4h.7l10.8,1.7h.7l3.2.6h.7l10.8,2.1h.7l3.2.7h.7l10.7,2.4.7.2,2.5.6.7.2h0l10.7,2.7.7.2,14.7,4.2,4.7,1.5q15.3,4.8,30.4,10.7v-.8Q350.5,322.3,335.2,317.4Z" fill="#ec1c24"/><path d="M335.2,317.4l-2.3-.7q-8.5-2.6-17-4.9l-.7-.2-10.7-2.7-.7-.2-2.5-.6-.7-.2-10.7-2.4h-.7l-3.2-.7h-.7l-10.8-2.1h-.7l-3.2-.6h-.7l-10.8-1.7h-.7a510.7,510.7,0,0,0-66-5.4h-9.1a511.4,511.4,0,0,0-75,5.5h-.7l-10.8,1.7h-.7l-3.2.6h-.7l-10.8,2.1h-.7l-3.2.7h-.7l-10.7,2.4-.7.2-2.5.6-.7.2-10.7,2.7-.7.2q-8.6,2.3-17.1,4.9l-2.2.7Q16.3,322.2,1.2,328v.8q15.1-5.8,30.4-10.7l4.6-1.4L51,312.5l.7-.2,10.7-2.7.7-.2,2.5-.6.7-.2L77,306.2h.7l3.2-.7h.7l10.8-2.1H93l3.2-.6h.7l10.8-1.7h.7a508.4,508.4,0,0,1,60.5-5.3h1.6l12.8-.2h9.1a510.7,510.7,0,0,1,65.9,5.4h.7l10.8,1.7h.7l3.2.6h.7l10.8,2.1h.7l3.2.7h.7l10.7,2.4.7.2,2.5.6.7.2h0l10.7,2.7.7.2,14.7,4.2,4.7,1.5q15.3,4.8,30.4,10.7v-.8Q350.5,322.3,335.2,317.4Z" fill="#ec1c24"/><path d="M1.2,328v.8q15.1-5.8,30.4-10.7v-.7Q16.3,322.2,1.2,328Z" fill="#ec1c24"/><path d="M361.9,316.7q-13.3-4.9-26.8-9.1-8.9-2.7-17.8-5.1l-.7-.2h0L306,299.6l-.7-.2-2.5-.6-.7-.2-10.7-2.4h-.7l-3.2-.7h-.7l-.9-.2-2.8-.6-2-.4-4.5-.8h-1.2l-3.2-.6h-.7l-10.8-1.7h-1.3l-2.3-.3-15.4-2-10.7-1.1-4.3-.4-4.3-.3-6.5-.4-3.2-.2h-2.4l-3.9-.2-9.9-.3H164.8l-4.2.2h-5.9l-3.8.2-4.1.3-4.3.3-3.4.3-3.4.3-5.2.5-5.2.6-3.2.4h0l-6.4.8h-.4l-8.2,1.2h-.7l-3.2.5-1,.2-1.3.2-2,.3-1.1.2-1.1.2-1.1.2h-.7l-3.2.6h-.7l-2,.4H87.5l-2.1.4-4.7.9H79.3l-3.2.7h-.7l-10.7,2.4-.7.2-2.5.6-.7.2-10.7,2.7-.7.2q-8.9,2.4-17.8,5.1-13.5,4.1-26.9,9.1L1.2,318v.7l5.6-2.1q12.3-4.5,24.8-8.4,8.9-2.8,17.9-5.2l.7-.2,10.7-2.7.7-.2,2.5-.6.7-.2,10.7-2.4h.7l3.2-.7h.7l10.8-2.1h.7l3.2-.6h.7l10.8-1.7h.7a524.1,524.1,0,0,1,152.8,0h.7l10.8,1.7h.7l3.2.6h.7l10.8,2.1h.7l3.2.7h.7l10.7,2.4.7.2,2.5.6h0l.7.2,10.7,2.7.7.2q9,2.4,17.9,5.2,12.5,3.8,24.7,8.3l5.7,2.1v-.7Z" fill="#ec1c24"/><path d="M1.2,328.8q15.1-5.8,30.4-10.7v-.7Q16.3,322.2,1.2,328Z" fill="#ec1c24"/><path d="M1.2,328v.8q15.1-5.8,30.4-10.7v-.7Q16.3,322.2,1.2,328Z" fill="#ec1c24"/><path d="M335.2,317.4l-2.3-.7q-8.5-2.6-17-4.9l-.7-.2-10.7-2.7-.7-.2-2.5-.6-.7-.2-10.7-2.4h-.7l-3.2-.7h-.7l-10.8-2.1h-.7l-3.2-.6h-.7l-10.8-1.7h-.7a510.7,510.7,0,0,0-66-5.4h-9.1a511.4,511.4,0,0,0-75,5.5h-.7l-10.8,1.7h-.7l-3.2.6h-.7l-10.8,2.1h-.7l-3.2.7h-.7l-10.7,2.4-.7.2-2.5.6-.7.2-10.7,2.7-.7.2q-8.6,2.3-17.1,4.9l-2.2.7Q16.3,322.2,1.2,328v.8q15.1-5.8,30.4-10.7l4.6-1.4L51,312.5l.7-.2,10.7-2.7.7-.2,2.5-.6.7-.2L77,306.2h.7l3.2-.7h.7l10.8-2.1H93l3.2-.6h.7l10.8-1.7h.7a508.4,508.4,0,0,1,60.5-5.3h1.6l12.8-.2h9.1a510.7,510.7,0,0,1,65.9,5.4h.7l10.8,1.7h.7l3.2.6h.7l10.8,2.1h.7l3.2.7h.7l10.7,2.4.7.2,2.5.6.7.2h0l10.7,2.7.7.2,14.7,4.2,4.7,1.5q15.3,4.8,30.4,10.7v-.8Q350.5,322.3,335.2,317.4Z" fill="#ec1c24"/><path d="M335.2,317.4l-2.3-.7q-8.5-2.6-17-4.9l-.7-.2-10.7-2.7-.7-.2-2.5-.6-.7-.2-10.7-2.4h-.7l-3.2-.7h-.7l-10.8-2.1h-.7l-3.2-.6h-.7l-10.8-1.7h-.7a510.7,510.7,0,0,0-66-5.4h-9.1a511.4,511.4,0,0,0-75,5.5h-.7l-10.8,1.7h-.7l-3.2.6h-.7l-10.8,2.1h-.7l-3.2.7h-.7l-10.7,2.4-.7.2-2.5.6-.7.2-10.7,2.7-.7.2q-8.6,2.3-17.1,4.9l-2.2.7Q16.3,322.2,1.2,328v.8q15.1-5.8,30.4-10.7l4.6-1.4L51,312.5l.7-.2,10.7-2.7.7-.2,2.5-.6.7-.2L77,306.2h.7l3.2-.7h.7l10.8-2.1H93l3.2-.6h.7l10.8-1.7h.7a508.4,508.4,0,0,1,60.5-5.3h1.6l12.8-.2h9.1a510.7,510.7,0,0,1,65.9,5.4h.7l10.8,1.7h.7l3.2.6h.7l10.8,2.1h.7l3.2.7h.7l10.7,2.4.7.2,2.5.6.7.2h0l10.7,2.7.7.2,14.7,4.2,4.7,1.5q15.3,4.8,30.4,10.7v-.8Q350.5,322.3,335.2,317.4Z" fill="#ec1c24"/><path d="M335.2,317.4l-2.3-.7q-8.5-2.6-17-4.9l-.7-.2-10.7-2.7-.7-.2-2.5-.6-.7-.2-10.7-2.4h-.7l-3.2-.7h-.7l-10.8-2.1h-.7l-3.2-.6h-.7l-10.8-1.7h-.7a510.7,510.7,0,0,0-66-5.4h-9.1a511.4,511.4,0,0,0-75,5.5h-.7l-10.8,1.7h-.7l-3.2.6h-.7l-10.8,2.1h-.7l-3.2.7h-.7l-10.7,2.4-.7.2-2.5.6-.7.2-10.7,2.7-.7.2q-8.6,2.3-17.1,4.9l-2.2.7Q16.3,322.2,1.2,328v.8q15.1-5.8,30.4-10.7l4.6-1.4L51,312.5l.7-.2,10.7-2.7.7-.2,2.5-.6.7-.2L77,306.2h.7l3.2-.7h.7l10.8-2.1H93l3.2-.6h.7l10.8-1.7h.7a508.4,508.4,0,0,1,60.5-5.3h1.6l12.8-.2h9.1a510.7,510.7,0,0,1,65.9,5.4h.7l10.8,1.7h.7l3.2.6h.7l10.8,2.1h.7l3.2.7h.7l10.7,2.4.7.2,2.5.6.7.2h0l10.7,2.7.7.2,14.7,4.2,4.7,1.5q15.3,4.8,30.4,10.7v-.8Q350.5,322.3,335.2,317.4Z" fill="#ec1c24"/><path d="M335.2,317.4l-2.3-.7q-8.5-2.6-17-4.9l-.7-.2-10.7-2.7-.7-.2-2.5-.6-.7-.2-10.7-2.4h-.7l-3.2-.7h-.7l-10.8-2.1h-.7l-3.2-.6h-.7l-10.8-1.7h-.7a510.7,510.7,0,0,0-66-5.4h-9.1a511.4,511.4,0,0,0-75,5.5h-.7l-10.8,1.7h-.7l-3.2.6h-.7l-10.8,2.1h-.7l-3.2.7h-.7l-10.7,2.4-.7.2-2.5.6-.7.2-10.7,2.7-.7.2q-8.6,2.3-17.1,4.9l-2.2.7Q16.3,322.2,1.2,328v.8q15.1-5.8,30.4-10.7l4.6-1.4L51,312.5l.7-.2,10.7-2.7.7-.2,2.5-.6.7-.2L77,306.2h.7l3.2-.7h.7l10.8-2.1H93l3.2-.6h.7l10.8-1.7h.7a508.4,508.4,0,0,1,60.5-5.3h1.6l12.8-.2h9.1a510.7,510.7,0,0,1,65.9,5.4h.7l10.8,1.7h.7l3.2.6h.7l10.8,2.1h.7l3.2.7h.7l10.7,2.4.7.2,2.5.6.7.2h0l10.7,2.7.7.2,14.7,4.2,4.7,1.5q15.3,4.8,30.4,10.7v-.8Q350.5,322.3,335.2,317.4Z" fill="#ec1c24"/><path d="M301.3,308.1l-.7-.2-10.7-2.4h-.7l-3.2-.7h-.7l-10.8-2.1h-.7l-3.2-.6h-.7l-10.8-1.7h-.7a510.7,510.7,0,0,0-66-5.4h-9.1a511.4,511.4,0,0,0-75,5.5h-.7l-10.8,1.7h-.7l-3.2.6h-.7l-10.8,2.1h-.7l-3.2.7h-.7l-10.7,2.4-.7.2-2.5.6-.7.2-10.7,2.7-.7.2q-8.6,2.3-17.1,4.9l-2.2.7Q16.3,322.2,1.2,328v.8q15.1-5.8,30.4-10.7l4.6-1.4L51,312.5l.7-.2,10.7-2.7.7-.2,2.5-.6.7-.2L77,306.2h.7l3.2-.7h.7l10.8-2.1H93l3.2-.6h.7l10.8-1.7h.7a508.4,508.4,0,0,1,60.5-5.3h1.6l12.8-.2h9.1a510.7,510.7,0,0,1,65.9,5.4h.7l10.8,1.7h.7l3.2.6h.7l10.8,2.1h.7l3.2.7h.7l10.7,2.4.7.2,2.5.6v-.7Z" fill="#ec1c24"/><path d="M335.2,317.4l-2.3-.7q-8.5-2.6-17-4.9l-.7-.2-10.7-2.7-.7-.2-2.5-.6-.7-.2-10.7-2.4h-.7l-3.2-.7h-.7l-10.8-2.1h-.7l-3.2-.6h-.7l-10.8-1.7h-.7a510.7,510.7,0,0,0-66-5.4h-9.1a511.4,511.4,0,0,0-75,5.5h-.7l-10.8,1.7h-.7l-3.2.6h-.7l-10.8,2.1h-.7l-3.2.7h-.7l-10.7,2.4-.7.2-2.5.6-.7.2-10.7,2.7-.7.2q-8.6,2.3-17.1,4.9l-2.2.7Q16.3,322.2,1.2,328v.8q15.1-5.8,30.4-10.7l4.6-1.4L51,312.5l.7-.2,10.7-2.7.7-.2,2.5-.6.7-.2L77,306.2h.7l3.2-.7h.7l10.8-2.1H93l3.2-.6h.7l10.8-1.7h.7a508.4,508.4,0,0,1,60.5-5.3h1.6l12.8-.2h9.1a510.7,510.7,0,0,1,65.9,5.4h.7l10.8,1.7h.7l3.2.6h.7l10.8,2.1h.7l3.2.7h.7l10.7,2.4.7.2,2.5.6.7.2h0l10.7,2.7.7.2,14.7,4.2,4.7,1.5q15.3,4.8,30.4,10.7v-.8Q350.5,322.3,335.2,317.4Z" fill="#ec1c24"/><path d="M301.3,308.1l-.7-.2-10.7-2.4h-.7l-3.2-.7h-.7l-10.8-2.1h-.7l-3.2-.6h-.7l-10.8-1.7h-.7a510.7,510.7,0,0,0-66-5.4h-9.1a511.4,511.4,0,0,0-75,5.5h-.7l-10.8,1.7h-.7l-3.2.6h-.7l-10.8,2.1h-.7l-3.2.7h-.7l-10.7,2.4-.7.2-2.5.6-.7.2-10.7,2.7-.7.2q-8.6,2.3-17.1,4.9l-2.2.7Q16.3,322.2,1.2,328v.8q15.1-5.8,30.4-10.7l4.6-1.4L51,312.5l.7-.2,10.7-2.7.7-.2,2.5-.6.7-.2L77,306.2h.7l3.2-.7h.7l10.8-2.1H93l3.2-.6h.7l10.8-1.7h.7a508.4,508.4,0,0,1,60.5-5.3h1.6l12.8-.2h9.1a510.7,510.7,0,0,1,65.9,5.4h.7l10.8,1.7h.7l3.2.6h.7l10.8,2.1h.7l3.2.7h.7l10.7,2.4.7.2,2.5.6v-.7Z" fill="#ec1c24"/><path d="M335.2,317.4l-2.3-.7q-8.5-2.6-17-4.9l-.7-.2-10.7-2.7-.7-.2-2.5-.6-.7-.2-10.7-2.4h-.7l-3.2-.7h-.7l-10.8-2.1h-.7l-3.2-.6h-.7l-10.8-1.7h-.7a510.7,510.7,0,0,0-66-5.4h-9.1a511.4,511.4,0,0,0-75,5.5h-.7l-10.8,1.7h-.7l-3.2.6h-.7l-10.8,2.1h-.7l-3.2.7h-.7l-10.7,2.4-.7.2-2.5.6-.7.2-10.7,2.7-.7.2q-8.6,2.3-17.1,4.9l-2.2.7Q16.3,322.2,1.2,328v.8q15.1-5.8,30.4-10.7l4.6-1.4L51,312.5l.7-.2,10.7-2.7.7-.2,2.5-.6.7-.2L77,306.2h.7l3.2-.7h.7l10.8-2.1H93l3.2-.6h.7l10.8-1.7h.7a508.4,508.4,0,0,1,60.5-5.3h1.6l12.8-.2h9.1a510.7,510.7,0,0,1,65.9,5.4h.7l10.8,1.7h.7l3.2.6h.7l10.8,2.1h.7l3.2.7h.7l10.7,2.4.7.2,2.5.6.7.2h0l10.7,2.7.7.2,14.7,4.2,4.7,1.5q15.3,4.8,30.4,10.7v-.8Q350.5,322.3,335.2,317.4Z" fill="#ec1c24"/><path d="M335.2,317.4l-2.3-.7q-8.5-2.6-17-4.9l-.7-.2-10.7-2.7-.7-.2-2.5-.6-.7-.2-10.7-2.4h-.7l-3.2-.7h-.7l-10.8-2.1h-.7l-3.2-.6h-.7l-10.8-1.7h-.7a510.7,510.7,0,0,0-66-5.4h-9.1a511.4,511.4,0,0,0-75,5.5h-.7l-10.8,1.7h-.7l-3.2.6h-.7l-10.8,2.1h-.7l-3.2.7h-.7l-10.7,2.4-.7.2-2.5.6-.7.2-10.7,2.7-.7.2q-8.6,2.3-17.1,4.9l-2.2.7Q16.3,322.2,1.2,328v.8q15.1-5.8,30.4-10.7l4.6-1.4L51,312.5l.7-.2,10.7-2.7.7-.2,2.5-.6.7-.2L77,306.2h.7l3.2-.7h.7l10.8-2.1H93l3.2-.6h.7l10.8-1.7h.7a508.4,508.4,0,0,1,60.5-5.3h1.6l12.8-.2h9.1a510.7,510.7,0,0,1,65.9,5.4h.7l10.8,1.7h.7l3.2.6h.7l10.8,2.1h.7l3.2.7h.7l10.7,2.4.7.2,2.5.6.7.2h0l10.7,2.7.7.2,14.7,4.2,4.7,1.5q15.3,4.8,30.4,10.7v-.8Q350.5,322.3,335.2,317.4Z" fill="#ec1c24"/></svg>