<?xml version="1.0" encoding="utf-8"?>
<!-- Generator: Adobe Illustrator 21.1.0, SVG Export Plug-In . SVG Version: 6.00 Build 0)  -->
<svg version="1.1" id="Layer_1" xmlns="http://www.w3.org/2000/svg" xmlns:xlink="http://www.w3.org/1999/xlink" x="0px" y="0px"
	 viewBox="0 0 1182 635.8" style="enable-background:new 0 0 1182 635.8;" xml:space="preserve">
<style type="text/css">
	.st0{fill:#231F20;}
	.st1{fill:#ED1C24;}
</style>
<title>Artboard 1</title>
<g>
	<path id="path3707_4_" class="st0" d="M244.7,114.2c27.9,0,50.4-22.6,50.4-50.4s-22.6-50.4-50.4-50.4c-27.9,0-50.4,22.6-50.4,50.4
		c-0.1,27.8,22.3,50.3,50,50.4C244.5,114.2,244.6,114.2,244.7,114.2z"/>
	<path class="st0" d="M293.6,198.5L362,433.9h-63.2v176.7c-0.1,31.6-47.5,31.5-47.5,0V434h-14.1v176.6c0.1,31.6-47.5,31.6-47.5,0
		V434h-63.1l68.1-235.5c0,0-43.1-29.9-47.2-43.9c0,0-44.8-148.2-45.1-149.6c14.2-2,28.5-3.7,42.8-5.1L173,93.4
		c6.6,21,26,35.4,48.1,35.4h46.9c22.1,0,41.6-14.3,48.2-35.3l27.8-93.4c14.3,1.4,28.5,3.1,42.6,5.1c-0.2,1.3-45,149.5-45,149.5
		C336.7,168.5,293.6,198.5,293.6,198.5z"/>
	<polygon class="st1" points="1075.7,552 895.7,522.6 899.5,499.2 1079.5,528.7 	"/>
	
		<rect x="970.5" y="465.9" transform="matrix(0.1616 -0.9869 0.9869 0.1616 273.8742 1436.5497)" class="st1" width="23.8" height="182.4"/>
	
		<rect x="965.4" y="497.4" transform="matrix(0.1616 -0.9869 0.9869 0.1616 238.5063 1457.8804)" class="st1" width="23.8" height="182.4"/>
	
		<rect x="960.5" y="604.1" transform="matrix(0.1616 -0.9869 0.9869 0.1616 204.6215 1478.3441)" class="st1" width="23.8" height="29.3"/>
	<path class="st1" d="M1001.2,507.8l-18.7-3.2c4.3-24.2,7.8-48.6,10.3-73.2c1-9.4,1.9-18.8,2.6-28.3l1.2-16.4
		c1.3-21.2,2-42.4,2-63.8c0-21.4-0.6-42.3-1.9-62.8l-1.2-16.7c-0.7-9.5-1.6-18.9-2.6-28.3c-2.6-24.6-6-49-10.3-73.2l18.8-3.2
		c4,22.2,7.2,44.6,9.8,67.3c1.6,14.5,2.9,29.1,4,43.7l0.7,10.4c1.3,20.8,1.9,41.8,1.9,62.8s-0.6,42.3-1.9,63.8l-0.7,10.4
		c-1,14.5-2.3,29-4,43.3C1008.5,463,1005.2,485.5,1001.2,507.8z"/>
	<polygon class="st1" points="899.5,147.1 895.7,123.7 1075.7,94.2 1079.5,117.6 	"/>
	
		<rect x="891.3" y="77.4" transform="matrix(0.9869 -0.1616 0.1616 0.9869 -1.5128 159.9462)" class="st1" width="182.4" height="23.8"/>
	
		<rect x="886.1" y="45.9" transform="matrix(0.9869 -0.1616 0.1616 0.9869 3.5071 158.69)" class="st1" width="182.4" height="23.8"/>
	
		<rect x="957.9" y="15.8" transform="matrix(0.9869 -0.1616 0.1616 0.9869 8.3054 157.5222)" class="st1" width="29.3" height="23.8"/>
	<path class="st0" d="M740.9,208c-3.7,0-6.6,0-10.2,0c0,2.1,0,4,0,5.8c0,128.5,0,257,0,385.5c0,8.7-1,16.9-7,23.8
		c-7.9,9.1-21.3,12.3-33.8,8c-11.2-3.9-18.8-14-19-26.2c-0.3-15-0.1-30-0.1-45.1c0-60.2,0-120.5,0-180.7c0-1.6,0-3.2,0-5.1
		c-3.4,0-6.5,0-10.3,0c0,2,0,4.1,0,6.1c0,74,0,148,0,222c0,12-4.3,21.7-15.2,27.3c-10.9,5.6-21.9,5.2-32.3-1.6
		c-8-5.2-11.3-13.2-12-22.4c-0.1-1.6,0-3.2,0-4.8c0-129,0-257.9,0-386.9c0-1.7,0-3.5,0-5.5c-3.5,0-6.6,0-10.6,0c0,1.8,0,3.6,0,5.5
		c0,45.9,0,91.7,0,137.6c0,11.4-5.2,19.3-14.4,22.5c-15.7,5.3-30-4.9-30.4-21.7c-0.2-9.1,0-18.2,0-27.3c0-42.8,0-85.7,0-128.5
		c0-34.1,21.7-61.4,53.7-67.5c4.2-0.8,8.6-1.1,12.9-1.1c34.7-0.1,69.4,0,104,0c39.8,0,69,28.2,69.3,68.1
		c0.5,51.8,0.2,103.6,0.1,155.3c0,18.7-16.3,29.6-32.3,21.9c-9-4.3-12.3-12.1-12.3-21.6c0-33.1,0-66.2,0-99.2
		C740.9,237.4,740.9,222.9,740.9,208z"/>
	<path class="st0" d="M666,116.1c-27.9,0.4-51.2-22.7-51.4-51c-0.2-28.1,22.6-51.5,50.7-51.8c28.1-0.4,51.5,22.5,51.8,50.6
		C717.3,92.8,695,115.7,666,116.1z"/>
	<path class="st1" d="M1182,13.6h-15v-3h15V13.6z M1152.1,13.6h-15v-3h15V13.6z M1122.2,13.6h-15v-3h15V13.6z M1092.3,13.6h-15v-3
		h15V13.6z M1062.3,13.6h-15v-3h15V13.6z M1032.4,13.6h-15v-3h15V13.6z M1002.5,13.6h-15v-3h15V13.6z M972.6,13.6h-15v-3h15V13.6z
		 M942.6,13.6h-15v-3h15V13.6z M912.7,13.6h-15v-3h15V13.6z M882.8,13.6h-15v-3h15V13.6z M852.9,13.6h-15v-3h15V13.6z M822.9,13.6
		h-15v-3h15V13.6z M793,13.6h-15v-3h15V13.6z M763.1,13.6h-15v-3h15V13.6z M733.2,13.6h-15v-3h15V13.6z M703.2,13.6h-15v-3h15V13.6z
		 M673.3,13.6h-15v-3h15V13.6z M643.4,13.6h-15v-3h15V13.6z M613.5,13.6h-15v-3h15V13.6z M583.5,13.6h-15v-3h15V13.6z M553.6,13.6
		h-15v-3h15V13.6z M523.7,13.6h-15v-3h15V13.6z M493.8,13.6h-15v-3h15V13.6z M463.8,13.6h-15v-3h15V13.6z M433.9,13.6h-15v-3h15
		V13.6z M404,13.6h-15v-3h15V13.6z M374.1,13.6h-15v-3h15V13.6z M344.1,13.6h-15v-3h15V13.6z M314.2,13.6h-15v-3h15V13.6z
		 M284.3,13.6h-15v-3h15V13.6z M254.4,13.6h-15v-3h15V13.6z M224.4,13.6h-15v-3h15V13.6z M194.5,13.6h-15v-3h15V13.6z M164.6,13.6
		h-15v-3h15V13.6z M134.7,13.6h-15v-3h15V13.6z M104.7,13.6h-15v-3h15V13.6z M74.8,13.6h-15v-3h15V13.6z M44.9,13.6h-15v-3h15V13.6z
		 M15,13.6H0v-3h15V13.6z"/>
	<path class="st1" d="M1182,635.8h-15v-3h15V635.8z M1152.1,635.8h-15v-3h15V635.8z M1122.2,635.8h-15v-3h15V635.8z M1092.3,635.8
		h-15v-3h15V635.8z M1062.3,635.8h-15v-3h15V635.8z M1032.4,635.8h-15v-3h15V635.8z M1002.5,635.8h-15v-3h15V635.8z M972.6,635.8
		h-15v-3h15V635.8z M942.6,635.8h-15v-3h15V635.8z M912.7,635.8h-15v-3h15V635.8z M882.8,635.8h-15v-3h15V635.8z M852.9,635.8h-15
		v-3h15V635.8z M822.9,635.8h-15v-3h15V635.8z M793,635.8h-15v-3h15V635.8z M763.1,635.8h-15v-3h15V635.8z M733.2,635.8h-15v-3h15
		V635.8z M703.2,635.8h-15v-3h15V635.8z M673.3,635.8h-15v-3h15V635.8z M643.4,635.8h-15v-3h15V635.8z M613.5,635.8h-15v-3h15V635.8
		z M583.5,635.8h-15v-3h15V635.8z M553.6,635.8h-15v-3h15V635.8z M523.7,635.8h-15v-3h15V635.8z M493.8,635.8h-15v-3h15V635.8z
		 M463.8,635.8h-15v-3h15V635.8z M433.9,635.8h-15v-3h15V635.8z M404,635.8h-15v-3h15V635.8z M374.1,635.8h-15v-3h15V635.8z
		 M344.1,635.8h-15v-3h15V635.8z M314.2,635.8h-15v-3h15V635.8z M284.3,635.8h-15v-3h15V635.8z M254.4,635.8h-15v-3h15V635.8z
		 M224.4,635.8h-15v-3h15V635.8z M194.5,635.8h-15v-3h15V635.8z M164.6,635.8h-15v-3h15V635.8z M134.7,635.8h-15v-3h15V635.8z
		 M104.7,635.8h-15v-3h15V635.8z M74.8,635.8h-15v-3h15V635.8z M44.9,635.8h-15v-3h15V635.8z M15,635.8H0v-3h15V635.8z"/>
</g>
</svg>
