<svg id="Layer_1" data-name="Layer 1" xmlns="http://www.w3.org/2000/svg" width="8.6in" height="8.7in" viewBox="0 0 622.3 623"><title>Artboard 1</title><path d="M306.3,360.5V592.7c-.1,39.7-58.7,40.9-58.6,0V362.4Q276.9,360.6,306.3,360.5Z" fill="#231f20"/><path d="M375,362.5V592.7c.2,40.9-58.7,39.7-58.6,0V360.5Q345.7,360.7,375,362.5Z" fill="#231f20"/><path d="M429,182.8V331.6q-21.7-2.4-43.5-3.9V195.2H375V327q-32-1.9-64.1-1.9T247.7,327V195.2H237.2V327.6q-22,1.5-43.9,4V182.1c-.2-36.9,28.5-66.4,64.2-66.4H363.7C403,115.7,429,148.9,429,182.8Z" fill="#231f20"/><path id="path3713" d="M310.8,101.4a50.7,50.7,0,1,0-50.7-50.7,50.4,50.4,0,0,0,50.7,50.7Z" fill="#231f20"/><polygon points="541.2 274.8 511.6 455.7 488.1 451.9 517.7 271 541.2 274.8" fill="#ed1c24"/><rect x="454.6" y="356.6" width="183.3" height="23.87" transform="translate(94.3 848.1) rotate(-80.7)" fill="#ed1c24"/><rect x="486.2" y="361.8" width="183.3" height="23.87" transform="translate(115.7 883.6) rotate(-80.7)" fill="#ed1c24"/><rect x="593.4" y="366.6" width="29.4" height="23.87" transform="translate(136.4 917.6) rotate(-80.7)" fill="#ed1c24"/><path d="M496.7,349.7l-3.2,18.8Q457,362,419.9,358.1q-14.1-1.5-28.4-2.6L375,354.3q-31.9-2-64.1-2t-63.1,1.9l-16.8,1.2q-14.3,1.1-28.4,2.6-37.1,3.9-73.6,10.4l-3.2-18.9q33.5-6,67.6-9.8,21.9-2.4,43.9-4l10.5-.7q31.4-1.9,63.1-1.9t64.1,1.9l10.5.7q21.9,1.5,43.5,4Q463.1,343.7,496.7,349.7Z" fill="#ed1c24"/><polygon points="134.2 451.9 110.7 455.7 81.1 274.8 104.6 271 134.2 451.9" fill="#ed1c24"/><rect x="64.1" y="276.9" width="23.9" height="183.28" transform="translate(-58.5 17.1) rotate(-9.3)" fill="#ed1c24"/><rect x="32.5" y="282.1" width="23.9" height="183.28" transform="translate(-59.8 12.1) rotate(-9.3)" fill="#ed1c24"/><rect x="2.2" y="363.8" width="23.9" height="29.42" transform="translate(-60.9 7.3) rotate(-9.3)" fill="#ed1c24"/></svg>