<svg id="Layer_1" data-name="Layer 1" xmlns="http://www.w3.org/2000/svg" width="5.1in" height="6.4in" viewBox="0 0 365.9 462.7"><title>Artboard 1</title><path d="M363.5,462.7l.7-.4,1.6-.3v.7Z"/><path d="M118.3,121.4c-.2,1.4-.7,1.7-1.8,1.4a7.8,7.8,0,0,0-1.6-.1,5.2,5.2,0,0,0-1.6-.8l-7.5-.7-8.6-.8a1.4,1.4,0,0,1-.9-.4,3.1,3.1,0,0,1,.8-3.8l-.7-1.6h-.3l.2.6c-.6-.9-1.3-1.5-2.3-.8s-2.2-.2-1.6,1.5l-.6.2-.9-.8c-.2.3-.4.6-.4.9a18.1,18.1,0,0,0,.3,2c-1.3.4-2.3,1-3.2,1a46.4,46.4,0,0,1-6.3-.9l-6.2-1.5-9.6-2.1-11-2.5-7.8-1.6a.6.6,0,0,0-.5,1,2.5,2.5,0,0,0,.8.4c0,.3-.1.5-.1.8s1,.8,1.4,1.2,2.7,2.3,3.9,3.5a9.8,9.8,0,0,1,1.2,2l2.6,2.3,4.1,3.5a17.5,17.5,0,0,0,2.5,1.5l.9.3a3.4,3.4,0,0,0,.1-1.1c0-.3-.3-.5-.5-.8l-6.6-7.2c-1.7-1.9-3.2-4.1-5.9-4.8,0,0-.1-.1-.2-.5a32.4,32.4,0,0,1,3.8.5c1.5.4,2.9,1.1,4.4,1.4l8.3,1.5,20.4,4.2c2.6.5,2.6.5,2.3,2.3l.2.2,1.8-1,2.4,2c.7,2.5,0,4.3-2.5,4.8l2.2.9a2.2,2.2,0,0,1-.1.8c-1,2.1-.5,4.3-.7,6.5s-.1,6.7-.2,10.1-.4,5.8-.4,8.7.1,4.9.1,7.4-.1,4.5-.1,6.7c0,.7-.4,1-1.2,1.1-3,.5-6,0-9,.8s-4.6.4-7.1.5a3.2,3.2,0,0,0,.3-.8,29.6,29.6,0,0,1-.1-3.1,1.4,1.4,0,0,1,.9-1l4.7-.2h.7c-.1-.3-.1-.7-.2-.7a6.2,6.2,0,0,0-2.1-.9,16.4,16.4,0,0,0-2.5.3c-.3,0-.9-.2-1-.4a18.4,18.4,0,0,1-.7-4.6c0-.3,0-.8.2-.9s.8-1.3-.3-1.7-.4-.3-.5-.5a6.2,6.2,0,0,1-1.5.3l-4.7-.5c-1.6-.2-1.8-.5-1.8-2.1,0-3.2-.2-6.5,0-9.7s.8-7.9,1.2-11.9c.1-1.2.7-1.5,1.9-1.5l9.4-.3c1.5-.1,1.9-.6,1.5-2.1l-.3-.7a6.5,6.5,0,0,1-1.4.4l-9.9.4c-.3,0-.7-.4-.9-.6a5.3,5.3,0,0,1-.6-1.1l-.9,1.1a2.4,2.4,0,0,0-.2.7c-.9-.6-1.1,0-1.2.7-.4,3.3-.7,6.7-1.1,10s-1.2,7.9-1.5,11.8-.2,7.3-.2,11-.1,5.4-.2,8.1a1.8,1.8,0,0,1-.5,1.2A42.7,42.7,0,0,0,54,180c-2.5,3.2-5.2,6.2-6.7,10a1.5,1.5,0,0,1-1.7,1,21,21,0,0,0-3.5.2c-.7.1-1.4.7-2.2.9a1,1,0,0,0-.9,1.3h.4c2.5.5,4.8-.3,7.2-.5.3,0,.5-.5.7-.8l1.2-1.5c.3-.3.7-.5.9-.9l3.2-4.9c.7-.9,1.4-1.8,2.2-2.7l6-7.2a8.3,8.3,0,0,1,1.1-.9v9.4l1,.4-.4,2.4h-.8l-.8.5c.3.3.6.9.8.9s1.4.9,1.5,1.9a9.5,9.5,0,0,0,.1,1.3,3.1,3.1,0,0,0,.4.8c.3-.2.7-.3.8-.6s.2-1.2.4-1.7.5-1.1.9-1.2l5.1-.3c.9,0,1.4.3,1.5,1.3a4.6,4.6,0,0,0,.5,1.3h.4l1.8-4.7c-.9-.3-.6-1.2-.5-2.2.1-3.1.2-6.1.3-9.2,0-1,.6-1.1,1.3-1.1l7.5-.3h6.7c1.6,0,1.8.3,1.6,1.9s-.5,3.4-.5,5.1-.2,5-.2,7.5a1.6,1.6,0,0,0,.9,1.1c.7.3,3-1.6,3-2.4s-.1-1.7-.1-2.6c0-2.6-.1-5.2-.1-7.8a32.6,32.6,0,0,1,.4-3.4l3.7.2,10-.3c.3,0,.5-.3.8-.5s-.4-.6-.7-.7l-2-.6v-.6h-1.6l-2.4-.3c-2-.5-3.9.2-5.8.5s-2.2-.1-2.1-1.9.4-3.6.4-5.5-.1-4.1-.3-6.2a88.4,88.4,0,0,1-.1-12.7c.4-5,.6-10,.9-15.1a46,46,0,0,0-.1-6.1c-.1-1.5-.3-1.6,1.3-1.5s5.1.3,7.6.6l11.1,1.8h1.9l1.1,2.4h.3ZM72.1,179.7c-.1,1.5-.3,3-.4,4.5s-.3,1.4-1.3,1.5l-3,.3a1.1,1.1,0,0,1-.7-.7c0-3-.1-6,0-9,0-.4.4-.7.6-1.3s-1-1.7-1-3a1.3,1.3,0,0,1,.8-1.3l4.9-2.5c0,.9.1,1.4.1,1.9,0,2.4.1,4.8.1,7.1C72.3,178.2,72.2,178.9,72.1,179.7Zm-3-11.8a12.9,12.9,0,0,0-2.9,1.6c0-3.6,0-7,0-10.3a1,1,0,0,1,.6-.8,9,9,0,0,1,2.3,0c2.5.3,3.4,1.9,3.4,4.4S71.8,167.2,69.1,167.9Z" fill="#fff"/><path d="M230.5,32.8h-.4l-.7-.6c.2-.2.4-.6.7-.7l4-1a16.4,16.4,0,0,0,2.2-1,2.9,2.9,0,0,1,.6,3.1,3.3,3.3,0,0,0-.2,1.4c.1,2.9.2,5.7.2,8.6,0,1,.5,1.2,1.3,1.2l17.8-.2c2.8,0,5.7-.2,8.5,0s7.9-.7,11.9-.7h8.3l8.7.2h9.1l4.4-.3c-.1-1.1-.1-2.1-.2-3.1-.5-3,.5-5.9.8-8.9a4.3,4.3,0,0,1,1.1-1.9,1.5,1.5,0,0,1,1-.3h3.6c.8,0,1,.2,1,.9A31.5,31.5,0,0,0,314,33c0,4.7.1,9.4.1,14.1s-.1,9.2-.1,13.8c0,1.6.1,3.2.1,4.8s-.5,1.4-1.5,1.2l-4.1-.8a1.5,1.5,0,0,1-.9-.9,51.3,51.3,0,0,1-.8-13.1c.1-1-.4-1.4-1.3-1.4l-13.1.4a48.5,48.5,0,0,0-5,.2c-8.4,1.2-16.7.2-25.1.4s-15.6,0-23.4,0c-1,0-1.5.4-1.5,1.4s.1,4.8,0,7.2-.3,3.7-.5,5.6a3.1,3.1,0,0,1-3.1,3h-1.7c-.9.1-1-.5-1.4-1.2-1.3-3.3-.1-6.6-.4-9.9s.1-5.9.1-8.8-.2-4.4-.2-6.6.2-2,.2-3S230.5,35.1,230.5,32.8Zm54,12.5h-2.2l-2,.2H265.7c-1.6,0-3.2-.2-4.9-.2l-5.6.5c-5.8.5-11.6.9-17.4-.1-.2,0-.8.3-.8.4a30.9,30.9,0,0,0,.3,3.4c0,.2.5.4.7.5h6.2l7.8-.3h19l6.9-.2c4.7.1,9.4.4,14.1.4s9.2-.2,13.7-.4c.3,0,.8-.3.8-.5s.3-2.6.5-3.9h-.6A48.9,48.9,0,0,1,294,45c-.2,0-.6,0-.7.1s-1.4.4-2.1.5-1.3-.2-2-.2h-4.8Zm26.4.1-1.2-.8a3.7,3.7,0,0,0-.4,1.2c0,1.4-.5,3,.9,4.2s.2,1.1-.5,1.1-1.1.5-1.2,1.2a29.8,29.8,0,0,0,.3,11.2,1.9,1.9,0,0,0,1.1,1.2,10.5,10.5,0,0,0,2.4.2,5.2,5.2,0,0,0,.1-.7c.2-5.1.3-10.3.5-15.4a47.8,47.8,0,0,0-.2-5.1c-.2-2.3-.6-4.5-.7-6.8a38.4,38.4,0,0,1,.2-4.9c.1-1-.4-1.4-1.3-1.4s-1.9-.1-1.7,1.3a17,17,0,0,1,0,2.9,5.3,5.3,0,0,1-.5,1.3,1.3,1.3,0,0,1,.4.5,26.9,26.9,0,0,0,.6,2.9c.4,1.3.4,2.9,2,3.5s.2.8.1,1.2A4.9,4.9,0,0,1,310.8,45.4Zm-79-12.7c.2,1.3.3,2.4.5,3.5l1.4,8.7c.5,3,.5,5.9-1.2,8.7a4.7,4.7,0,0,0-.7,2.3c0,2.9.1,5.9.2,8.8a10.7,10.7,0,0,0,.3,1.7l1.2-.4c1.3-.1,1.6-.7,1.5-1.9a16.8,16.8,0,0,1,.1-3c.2-3,.6-5.9.7-8.9s-.2-5.5-.2-8.2.1-6.5.1-9.8c0-.7.1-1.3.1-2.2Zm0,9.3V52.5C233.5,49.1,232.2,45.7,231.8,42Zm4.1,17.9h-.2v4.6h.2Z" fill="#fff"/><path d="M265.2,368.2a13,13,0,0,1,2.6-.8c3.7-.4,7.4-.7,11.1-.8s7.2-.4,10.6.2a43.9,43.9,0,0,0,8.8.4c1.6,0,3.1.2,4.7.3l4.3-.2h9l7.6-.3,3.9.2h7.9l3.9.3a1.2,1.2,0,0,1,.7.9,17.2,17.2,0,0,1,.1,3.6,1.4,1.4,0,0,1-1.9,1.3l.7.5-2.1.2H299.5l-17.3-.2-14.5-.2c-.7,0-1.1-.2-1.1-1a11.8,11.8,0,0,0-.4-2.8A6,6,0,0,0,265.2,368.2Z" fill="#fff"/><path d="M247.6,280.1l-6.4,1.4-1.8.2a1.4,1.4,0,0,1-1.6-1.2c-.9-2.6-1.7-5.2-3.5-7.3l-.2-.3c-.1-2.9-2.4-4.7-3.7-7.1s-1.9-2.8-2.8-4.3a1.2,1.2,0,0,1,.2-1.1c2.6-2.1,5.3-4.2,8-6.1a17.4,17.4,0,0,1,4-1.8,7.7,7.7,0,0,1,2.1-.2,3.1,3.1,0,0,1-1.8,2.6l-9.1,5.7-1.6.6,1.2,1.5c.8,1.2,1.5,2.4,2.4,3.5a1.8,1.8,0,0,0,1.4.5,35.1,35.1,0,0,0,4.9-.9,43,43,0,0,0,5.2-1.9c.4-.2.6-.9,1-1.4s1.8,1.4,2.1,2.3c1,2.8,1.6,5.7,2.4,8.6a2.9,2.9,0,0,1,0,1.2,18.9,18.9,0,0,0-.5,2.5,12.6,12.6,0,0,0,.4,2.5l6.4-.6a47.6,47.6,0,0,1,14,1.2c1.9.4,3.8.5,5.6,1.1a52.6,52.6,0,0,1,6.1,2.8c.1.1.2.7.1.9a1.6,1.6,0,0,1-2.1.6l-2.8-1.1c-3.1-1.4-6.5-1.4-9.7-1.8s-7.7-.8-11.5-1.1a21.8,21.8,0,0,0-9.1,1.6c-2,.7-4.1,1.2-5.9,2.6s-2.2.5-3.4.6-.8-.3-1.2-.5.3-1,.6-1.1l7.7-3.6a28.7,28.7,0,0,1,2.8-.9Zm-12.1-9.7,4.3,7.4c.1.2.6.2.9.1,1.8-.6,3.6-1.4,5.4-1.9s1.1-.8.9-1.7-.9-4.5-1.3-6.8-.5-1.4-1.5-.8l-1.1.5-5.7,3.3Z" fill="#fff"/><path d="M95.7,43.3a4.3,4.3,0,0,1-.9,1.1,2.2,2.2,0,0,1-1.4.3c-2-.3-4.1-.7-6.1-.9a13.4,13.4,0,0,0-3.9.5,1.7,1.7,0,0,0-1,1.2c-.6,3.9-1.3,7.8-1.6,11.7a68.2,68.2,0,0,0,.1,7.6c0,1,.8.9,1.5.9s3.5.1,5.2.4a3.6,3.6,0,0,1,2.9,3.7c0,1,.6,2.1.6,3.1a36.7,36.7,0,0,1-.8,8.9,9.5,9.5,0,0,0-.1,1.4,3.1,3.1,0,0,1-2.6,3.4l-5,1-.9.2a2.3,2.3,0,0,1-3.1-1.9c-.2-1.1-.6-2.2-.8-3.3s-.2-2.3-.4-3.4-.4-1.4-.5-2.2a10.8,10.8,0,0,1-.1-1.9c0-3.4,0-6.8.2-10.2s.6-6.6.7-9.8,1.3-7,.3-10.6c-.5-1.7-.1-1.9,1.7-2.1s3.9-.1,5.8-1.1a5.5,5.5,0,0,1,4.6-.1c.8.3,1.8.2,2.6.4s2.2.9,3.3,1.3ZM80.5,81.4c.1.7.2,1.6.2,2.4s.5,1,1.2.9a7.6,7.6,0,0,0,6.4-7c.2-2.2.4-4.4.5-6.7a1.5,1.5,0,0,0-.6-1.1c-1.9-1.1-4.1-1.3-6.3-1.4-.2,0-.6.4-.7.6a20.3,20.3,0,0,0-.3,2.7C80.7,75,80.6,78.1,80.5,81.4Zm7.2,1.4-2.9,2.3C86.9,85.1,87.8,84.4,87.7,82.8ZM79.4,67.7h-.6V72h.3Zm.2-5.4h-.4c-.2,1-.5,2.1-.6,3.1s.2.4.3.5.5-.3.5-.5S79.6,63.3,79.7,62.2Zm2-17.2c-1.2.8-1.1,2-.7,3.5Z" fill="#fff"/><path d="M118.1,187.5l-2.4-.3a17.5,17.5,0,0,0-6.8.2,2.1,2.1,0,0,1-1.1.1,2,2,0,0,1-.8-.9c0-.1.4-.5.6-.7a10.1,10.1,0,0,1,4.7-.9c2.2,0,2.5-.4,2.4-2.7s-.2-3.7-.1-5.6a19,19,0,0,1,.4-2.4,34.8,34.8,0,0,0,.5-4c.1-2.6,0-5.2,0-7.8,0-1-.5-1.4-1.3-1.5h-5.5c-.3,0-.5.5-.8.6l-1.2.3a3.2,3.2,0,0,1-.1-1.1c1.2-4.2,3.4-8,5.3-11.9a130.5,130.5,0,0,1,7.6-14.1c.7-1,1.1-2.2,1.7-3.4l-.9-.3-5.6.2c-1,0-1.9-.2-2.9-.3l-5-.3c-.4,0-.8-.5-1.2-.8s.7-.7,1-.7c3.4-.5,6.9-1.1,10.3-1.4a25.6,25.6,0,0,1,5,.2,2.2,2.2,0,0,0,2.3-1,3.8,3.8,0,0,1,1-.8l.4.3-1,3,1.6,1a8.4,8.4,0,0,1-1.8.4,1.4,1.4,0,0,0-1.5,1.1c-.6,1.8-1.1,3.6-1.9,5.4a53.5,53.5,0,0,1-3.2,6.9c-2.6,4.4-5.4,8.6-8.1,12.9a13.2,13.2,0,0,0-.7,1.5l4-.3h1c2.9-.1,3,.2,3,2.8s.4,3,.5,4.5.3,5.3.3,8a45.3,45.3,0,0,1-.7,7.4,7,7,0,0,0,.2,2.4C118,184.9,118,186.1,118.1,187.5Z" fill="#fff"/><path d="M342,366.6c0-3.2,0-6.4,0-9.6s-.2-3.8-.2-5.7.5-1.6,1.6-1.5h1.4c.8.1,2.1,0,2.4.5a5.4,5.4,0,0,1,1.2,3.9c-.3,2.9-.2,5.8-.3,8.7s-.2,3.5-.3,5.3.2,1.1.1,1.7-.3,3.4-.3,5.2,0,6.4,0,9.6a20.2,20.2,0,0,1,0,2.6c-.1.9-.8,1.2-1.7,1.2l-3.2.2c-1.7.2-2.3-.3-2.2-1.9.5-5.2,1.2-10.3.9-15.5a42.2,42.2,0,0,1,.2-4.7Z" fill="#fff"/><path d="M127,87c-3.1-.7-5.9.6-9.2,1.6.3-.6.4-1.2.7-1.3l3-1.4a15.7,15.7,0,0,1,2.2-1,10,10,0,0,1,1.8,0l7.1-.7a1.7,1.7,0,0,0,1.1-1.1,32.1,32.1,0,0,0,.7-13.4,44.6,44.6,0,0,1-.3-4.9,11.1,11.1,0,0,0-.2-2,1.1,1.1,0,0,0-.8-.7,36.9,36.9,0,0,0-4.9,0,3.7,3.7,0,0,0-1.7,1.1c-.7.6-1.3,1.3-2.3.3l-.9,2.5c-.6-1-.9-1.7-1.9-1.4s-.8-.5-.4-1.1l1.2-1.5c-1-.3-1.4-.8-1.1-1.8a2.6,2.6,0,0,1,1.9-2c2-.6,3.8-1.8,5.8-2.4s2.7-2.2,3.7-3.6,1.8-2.9,2.8-4.3a25.3,25.3,0,0,0-8.7-1.4c-1.2.1-2.4.5-3.7,0a1.7,1.7,0,0,1-1-2.5,34.8,34.8,0,0,0,8.7.6,18.4,18.4,0,0,1,3.4.3l3.1.7c.4.1.6.5.9.8s0,.2,0,.2,1,1.7-.8,1.5-.9.7-1.2,1.2L129.6,59a7,7,0,0,0-.4,1l2.7-.3h3.9c.3,0,.8.6.9.9,1.1,3.7.8,7.4.4,11.2-.2,1.8.6,3.7.9,5.5s.9,4,1.2,6-.1,1.7-1.5,1.7a1.6,1.6,0,0,0-1.7.8,1.7,1.7,0,0,1-.9.5l-6.9,2.4a1.7,1.7,0,0,1-1.4-.1C126.8,88.5,127,87.8,127,87Zm10-11.6h-.5c-.1,1.1-.2,2.2-.3,3.4s-.3,2.5-.3,3.8.8,1.3,1.8,1.2,1.1-.2.9-.9ZM125.4,58.2,122,60C123.3,60.6,124.3,60.1,125.4,58.2Zm9.7,12h.2l-.4-7.8h-.3Z" fill="#fff"/><path d="M258.2,384.5c0-2.1,0-4.4,0-6.7s.1-4.8.3-7.2.4-7.2.7-10.8.7-5.3,1.1-7.9c.1-.8.7-.9,1.4-.8a19.6,19.6,0,0,1,2.9.5,1.6,1.6,0,0,1,.9,1.3c0,1.6-.3,3.2-.4,4.7s-.4,6.1-.5,9.2-.3,6.4-.5,9.7.3,6.1-.4,9.1a11,11,0,0,0,.1,3.3c.1.8-.3,1.1-1,1.1a14.7,14.7,0,0,1-2.4.3,1.8,1.8,0,0,1-1.4-.9C258.6,387.8,258.4,386.2,258.2,384.5Z" fill="#fff"/><path d="M264.9,69.2l1.6.7V55.6l1.2.5c1.7,1.2,3.6,1.1,5.6,1s4.9,0,7.4,0l.8.3c-.5,1.2-1.1,1.4-2.7,1.3h-2.6l-6.4.2a1.8,1.8,0,0,0-1.8,1.8c0,2.8,0,5.7-.1,8.5-.1,1.3.6,1.6,1.5,1.6a37.6,37.6,0,0,0,5.5-.3c1.1-.2,1.7.2,1.8,1.1s-1,1.1-1.5,1.1c-2.2,0-4.5-.1-6.7-.2h-.8v1l-1.2,12a4,4,0,0,1-.2,1.1,4.4,4.4,0,0,1-.6.8c-.3-.2-.7-.4-.7-.7a9.7,9.7,0,0,1-.6-3.3c.4-3.3,1-6.6,1.6-9.9.2-1.2.3-2.2-1.3-3l.7,1.5c-1.3,1.1-.6,2.7-.8,4.1s-.8,5.7-1.2,8.5a5.4,5.4,0,0,1-.4,1c-1.3-1.3-1.1-3-1.8-4.5-.6,1.8.2,3.8-.8,5.5h-.4a14.5,14.5,0,0,1-.7-1.8,32.6,32.6,0,0,1-.6-3.2,3.3,3.3,0,0,1,.1-1.6,15.9,15.9,0,0,0,.9-7.4,28.1,28.1,0,0,1,.4-6.5c.3-1.9.9-3.7.2-5.5s.4-2.3.9-3.4c1.7.7.5,2.7,1.8,3.6l.2-4.2h.4c.1.3.4.5.4.8.2,3.2.2,6.4.4,9.5A10.2,10.2,0,0,0,264.9,69.2ZM263.2,67l-.2.4c-.6,3.2-1.2,6.3-1.6,9.5a21.5,21.5,0,0,0,.5,4.7A37.8,37.8,0,0,0,263.2,67Zm-1.1-1.4c.4-.9.9-1.7,0-2.6Z" fill="#fff"/><path d="M261.3,234.3a2.8,2.8,0,0,1,0,.9,2.7,2.7,0,0,1-.5.8c-.9-.5-1.3.2-1.9.6s-.9-.2-1-.4-.9-2.2-1.6-3.2l-.3,2.7c-1.5.1-3.2.8-3.4-1.7-1,.3-1.9.6-1.7,1.9s-.1.5-.2.5a6.3,6.3,0,0,1-2.3.2c-.8-.2-2-.4-2.1-1.5s.2-3.2.2-4.8,1-1.2,1.6-1.2.7.9.9,1.4,0,.6.1.8.3.9.6,1,.7-.2,1.1-.5.3-.5.4-.5,1.6-1,1.9-2.3l2.6,1.5a8.8,8.8,0,0,0,2,.6c.1,0,.4-.5.4-.7a12.4,12.4,0,0,0-.1-1.6c1.4-.4,1.5-.3,2.2,1.7a9.4,9.4,0,0,0,.6-1.4.9.9,0,0,0-.2-.7,4.2,4.2,0,0,0-3.4,0c-.8-.6-1.3-1.3-.7-2.4a2.5,2.5,0,0,0,.3-.9q.3-4.5.6-9.1c.1-1.8.1-3.7.3-5.5s-.3-2.1,1.6-1.5,2.6-.3,3.9-.4a29.8,29.8,0,0,1,4.5-.1,1.9,1.9,0,0,1,1.7,2.1,38.5,38.5,0,0,1-.6,4c-.2,1.2-.9,1.2-1.9.9l-2.9-.8v2.3a5.9,5.9,0,0,1,1.5.4c1,.6,1.1,1.9.4,3.8s-1.2,1.2-2.1.9-1.4.2-1.5,1.2-.3,5-.3,7.5a20.1,20.1,0,0,0,.3,2.7l1.1-.2v.4Zm-1.8-23.1a3.2,3.2,0,0,0-.1.7,28.9,28.9,0,0,1-.8,9.9,15.3,15.3,0,0,0-.3,3.2c-.1,1.3,1,1,1.7,1.1a1.3,1.3,0,0,0,1-.8,16.5,16.5,0,0,0,.3-3.1c0-1.8.6-2.3,2.3-2.1h1.5l-.2-.5h-.6a2.3,2.3,0,0,1-2.2-2.4c0-1.1,0-2.2-.1-3.3s.3-1.2,1.1-1.2l2.8.2,1.7.2c.1-.7.1-1.2.2-1.6s-.4-1.4-1.5-1.2Z" fill="#fff"/><path d="M250.5,371.8c.2,2.4-1.6,2.3-3,2.6l-2.4.3c-1.2.1-1.7-.3-1.6-1.5s.4-3.7.7-5.6a1.2,1.2,0,0,1,.8-.8,21.1,21.1,0,0,1,3.7-.4c1,0,1.5.7,1.7,1.7s.3,1.7.4,2.6h.5c0-2.4,0-4.9,0-7.3s.2-3.2.4-4.7.4-.6.7-.7l2-1h.5a3.2,3.2,0,0,1,2.7,3.6c-.3,2.1-.4,4.3-.6,6.4s-.5,6.7-.7,10c-.1,1.6-.1,3.2-.2,4.8a2.7,2.7,0,0,1-3.3,2.6A3.3,3.3,0,0,1,251,382c0-2.8.1-5.7.1-8.5a13.6,13.6,0,0,0-.1-1.5Z" fill="#fff"/><path d="M107.9,44.2a8.2,8.2,0,0,0,.5-1.7c.2-3.1.3-6.2.5-9.3,0-.4,0-.8,0-1.4a5.8,5.8,0,0,0-2.8,2.6,24,24,0,0,1-1.3,2.4c-.1.2-.7.2-1,.3s-.2-.7,0-.9c1-2,2-4.1,3.1-6.1a5,5,0,0,1,3.3-2.9c.9-.2,1.3,0,1.4.9a21.7,21.7,0,0,1,.3,2.7,73.7,73.7,0,0,1-.4,9.2c-.4,3.2-.1,6.5-.2,9.7s-.1,5.8-.3,8.7-.1,3.8-.3,5.7c-.4,4.2-.9,8.4-1.2,12.6a46.9,46.9,0,0,0,.3,5c0,.9.5,2.2-1.3,2h-.2c-.9.8-1.5.6-1.6-.6a17.7,17.7,0,0,1-.2-3.3c.2-4.8.4-9.6.6-14.4.1-2.1-.2-4.3,0-6.4s.6-6.7.8-10C108.1,47.5,107.9,45.9,107.9,44.2Zm.9,16.3c.7-1.6,1.1-8.4.5-9.2Z" fill="#fff"/><path d="M236.6,196.8c-.6-1.2-.1-1.4.8-1.4,2.5.1,5.1.3,7.6.3l19.7-.6h7.2l14.9.4c.2,1.3.4,2.7.6,4s-.6,2.4-2.2,2.8c-4,.8-7.9.6-11.9.6l-15.7.3c-3.9.1-7.7.1-11.6.4a99.7,99.7,0,0,1-14.3.3c-2.9-.2-3-.1-3.3-3.1a10.3,10.3,0,0,1,.6-3.2c0-.1.4-.3.6-.3l2.8-.4Zm.4,1c.2,1.2,0,1.4-1,1.1a7.3,7.3,0,0,0-4.6-.1c-.7.2-1.1.5-1,1.4a7,7,0,0,1,0,1.3c0,.6.1.9.8.9h3l15.4-.6,17.6-.4,12-.2c1.9-.1,3.7-.3,5.6-.5s1.5-.8,1.2-1.9-1-2.3-3-2.4h-1.2l-13.3.3-11.5.4c-3.1.2-6.1.7-9.2.8S240.6,197.8,237,197.8Z" fill="#fff"/><path d="M52,426.6c-.1-.6-.2-1.2-.2-1.8,0-6.7-.1-13.4-.1-20.1,0-4.2.2-8.3.2-12.5s-.2-6.6,0-9.9c.3-5,.8-10,1.1-15,.2-3.3.1-6.7.1-10a2.5,2.5,0,0,0-.3-.9,5.9,5.9,0,0,0,.4-1.6c-.1-3.7-.4-7.5-.4-11.2s.1-5.6.2-8.3a24.7,24.7,0,0,0-.2-2.6c-.3-3.4.3-6.9.2-10.3s.5-5-.7-7.4c-.2-.4.1-1,.1-1.3a13.9,13.9,0,0,0,2.4.3,66.7,66.7,0,0,1,7.3-.5c1.6.1,3.1-.5,4.7-.5s.6.3.9.4-.5.5-.9.6a24,24,0,0,1-3.5.8l-7.2.6-2.2.2c.1,1.5.2,2.9.2,4.4,0,3.6-.2,7.2-.2,10.8s.1,8.7.2,13,.1,6.5.1,9.7c0,5.1,0,10.1-.1,15.2,0,1.1.5,1.3,1.4,1.3h4.4c.7,0,1,.4.9,1.1-.1,2.6-.2,5.2-.4,7.8l-.7,15.4c0,.7-.2,1.5,1.1,1.6-1.3.3-1.3,1.1-1.3,2.1,0,4.3-.1,8.6-.1,12.9s0,9.1.1,13.6-.5,3.9-3.9,2.9a10.9,10.9,0,0,0-2.3-.2,1.8,1.8,0,0,1,1.9-.8l2.4.3c.9.2,1.2-.2,1.2-1.1-.1-2.8-.2-5.5-.2-8.3s.2-6.1.3-9.1,0-6,.2-9.1.4-8.7.6-13,.3-8.5.5-12.7c0-.1,0-.2,0-.4,0-2.4,0-2.5-2.5-2.3l-1.9.2c-1.7.1-1.6,0-1.7,1.8s-.2,3.9-.3,5.9,0,2.3-.1,3.5-.2,3.3-.3,5-.4,4.1-.5,6.2c-.2,4.2-.3,8.5-.3,12.7s0,9.1.1,13.6q0,3,0,6.1a10.7,10.7,0,0,1-.1,1.1Z" fill="#fff"/><path d="M263.6,1.3c-.4.2-.7.5-1.1.5h-11c-.9,0-1.3.3-1.2,1.2.1,3.1.1,6.3.2,9.4,0,.8,0,1.9.4,2.3s1.6.1,2.4.1l9.1.3a2.3,2.3,0,0,1,2.1,2.6,27.7,27.7,0,0,0,0,7.7,30.3,30.3,0,0,1,.4,4.2,8.1,8.1,0,0,1-.3,2.4,1.3,1.3,0,0,1-1,.7c-3,.3-5.9.7-8.9.7s-3.9.1-5.5-1a1.4,1.4,0,0,1-.6-.9c-.1-2.4-.1-4.9-.1-7.3s-.1-5.2-.1-7.9.1-6.8.2-10.2c0-1,0-2,0-3a6.6,6.6,0,0,1,.4-2c.3-.9.9-1.1,2-.9s5.1.1,7.6.3l5,.5ZM250.5,24h.2c0,1.5,0,3,0,4.4s0,2.7,2.8,2.4l8.3-.7c1-.1,1.2-.6,1.2-1.4l-.7-10.7c-.1-1-.6-1.3-1.6-1.3l-9,.2c-.8,0-1.1.2-1.1,1.1S250.5,22.1,250.5,24Z" fill="#fff"/><path d="M252.8,189.3c-.2-2.7-.2-5.3-.4-8s-.5-2-2-2h-6.8c-.9,0-1.3-.2-1.3-1.2a41.5,41.5,0,0,0,.1-4.7c-.1-.8.2-1.3.9-1.5l4.2-.9c1.4-.2,1.7-.6,1.5-2a7.8,7.8,0,0,1-.2-2.2c.3-1.9-.3-2.6-2.2-2.4-4.2.6-8.4,1.1-12.6.2a1.5,1.5,0,0,0-.9.2,8.4,8.4,0,0,0,.3,2.1c.2.6.7.8,1.3.5s1.5-.1,1.6,1c.3,4,.6,8,.7,12s-.3,7-.5,10.5c-.1,1.5.4,2.1,1.9,2.3l4,.4v.3l9.5-1.2a1.3,1.3,0,0,0,.7-.5C253.4,191.2,252.8,190.3,252.8,189.3Zm-14.6.1a77.1,77.1,0,0,0,.3-12.7c-.2-2.7-.5-5.5-.7-8.2s.2-1.6,1.5-1.6l6.1-.6c1.7-.2,1.6-.3,2,1.4l.3,1.3-5.6,1.3a1.3,1.3,0,0,0-1.1,1.6,30.3,30.3,0,0,1,0,4,12.5,12.5,0,0,1-.7,2.4,2.3,2.3,0,0,0,2.3,2.8l6.9-.4c1-.1,1.3.3,1.3,1.2s-.3,4.7-.4,7a1,1,0,0,1-1,1l-9.6,1C238.3,191,238,190.7,238.2,189.4Z" fill="#fff"/><path d="M290.5,3.2h-7.3c-1,0-2.2.4-2.9-.8s-.6-.2-1-.3.3-1.2,1.1-1.3l4-.2,8.2-.2c1.6,0,2.7.8,2.3,1.8a5.4,5.4,0,0,1-1.6,2,34.7,34.7,0,0,0-7,8.4l6.9,1c1.2.1,1.9.7,2.1,1.9.3,3,1,6,.3,9a9.4,9.4,0,0,0,.2,3.2c.3,1.9-.2,2.7-2.1,2.8l-8.1.2a29.8,29.8,0,0,1-5-.5c-.6-.1-1-.7-1.6-1.1s1.4-1.5,2.3-1.2c3.1,1.2,6.3.7,9.5.8s3.2.4,3.1-3.1-.1-5.6-.1-8.4c0-1.1-.2-1.5-1.4-1.5h-9.5l-2.3.2c-1.1.1-1.6-.6-.9-1.5s2.4-2.6,3.7-3.9l5.6-5.6A16.8,16.8,0,0,0,290.5,3.2Z" fill="#fff"/><path d="M351.8,382.8h-.9c-1,0-1.7-.3-1.6-1.5s.3-4.5.4-6.8.1-4.9.1-7.4c0-.7.1-1.5.1-2.2.1-2.7.2-5.3.3-8,0-.3.6-.6.9-.7s2,.7,2.8-.3c.6.6,1.5,1.1,1.7,1.7a12.8,12.8,0,0,1,.1,3.5c0,1.9-.1,3.8-.2,5.7q-.3,5.8-.7,11.5a21.9,21.9,0,0,1-.4,2.8C354.3,382.6,353.9,382.8,351.8,382.8Z" fill="#fff"/><path d="M270.3,277.9c.8-.7,1.3-1.4,1.9-1.4a7.8,7.8,0,0,1,3.1.3,44.5,44.5,0,0,1,4.4,1.8,1,1,0,0,0,1.5-.5l4.7-8.8a.9.9,0,0,0-.5-1.4c-1.8-.7-3.6-1.4-5.5-1.9a5.5,5.5,0,0,1-2.9-1.6c-.8-.9-.6-1.7.5-2.2a4,4,0,0,0,1.8-.9c.8-1,1.9-1.1,2.9-1.6l5.1-2.3a25.7,25.7,0,0,0-3.6-.6c-2.2,0-3.8-1.3-5.6-2.2a1.4,1.4,0,0,1-.4-1.3c.1-.3.8-.6,1.1-.5l8.5,2.1,4.6,1.4,2.1.2c-.5.5-.7,1.1-1.1,1.3l-10,4.3-1.1.6,5.4,3.8a1.9,1.9,0,0,1,.6,1.2c.2,2.4-1.2,4.2-2.5,6a20.8,20.8,0,0,0-1.5,3.4l-.9,2.1a2.6,2.6,0,0,1-3.1,1.6l-8.3-2.1A6.8,6.8,0,0,1,270.3,277.9Z" fill="#fff"/><path d="M281.6,171l-3.9,5.5h2.2c1.1-.1,1.5.5,1.6,1.5s.2,4.9.3,7.4c0,.9-.2,1.8-.1,2.7s-.4,1.4-1.5,1.4-4.1.4-6.2.6a4.6,4.6,0,0,1-2.1-.2,2,2,0,0,1-1-1.4,28.3,28.3,0,0,1,.1-3.1,1.6,1.6,0,0,1,1.6-1.7l2.9-.2c.7,0,1.2-.2,1.2-1s-.7-.7-1.2-.7l-3.8.2c-.9.1-1.4-.8-1.1-1.9s1.3-3.3,1.9-4.9l1.7-4.2c-1.6.7-2.3-.1-2.9-1.1s-.2-2,.1-3.1a2.3,2.3,0,0,1,2.8-1.9l7.4.4a1,1,0,0,1,1.1,1.3c-.2.9-.4,1.7-.6,2.6S281.6,170.6,281.6,171Zm-9.5,9.4h2.4a9.7,9.7,0,0,1,2.1.2,2,2,0,0,1,1.2.9,2.3,2.3,0,0,1-2.1,3.5H275c-2.5.2-2.5.2-2.6,2.6,0,.8.3,1,1,.9l1.8-.2,3.6-.2c1.1-.1,1.6-.7,1.4-1.8a23.1,23.1,0,0,1-.4-6.9c0-.2,0-.4,0-.6s-.1-1-1-.9a14.9,14.9,0,0,1-2.9-.1c-.9,0-1.1-.6-.8-1.3a21.2,21.2,0,0,1,1.3-2.4l4.3-7-.3-.4-6.8.3a1.4,1.4,0,0,0-1.2,1.6c0,.4.7.7,1.1,1l1,.4c1,.3,1.5,1,1.1,2l-2.6,6.4C272.9,179,272.5,179.5,272.1,180.4Z" fill="#fff"/><path d="M269.7,354.6H277l4.9.3c.4,0,1,.7,1,1,0,2.3-.2,4.6-.4,6.9,0,.3-.5.7-.8,1l1,.2-.7.2h-11l-2.3.3c-.8.1-1.4-.3-1.4-1.1s.2-2.4.3-3.5.1-.5.1-.8c.1-2.9.1-5.8.1-8.7s-.1-5.3-.1-8c0-.3,0-.6,0-1s.2-1.7,1.9-1.6,2.7-.2,4-.2l6.6.3a1.8,1.8,0,0,1,1,.4,2.9,2.9,0,0,1,.5.9l-.8.3-5.8.5a19.7,19.7,0,0,1-3.8-.3c-1.1-.2-1.5.2-1.5,1.2-.1,3.3-.2,6.5-.3,9.8C269.6,353.6,269.7,354.2,269.7,354.6Zm11.3,7.2c-.1-1.4-.2-2.5-.2-3.7s-.6-1.6-1.7-1.4l-9.2.7-.6,4.4Z" fill="#fff"/><path d="M293.5,198.9c0-3.6,0-7.2,0-10.7,0-1.1.1-2.1.2-3.2s.4-.9,1-.8l4.8.4c1.6.1,2.1.4,2.2,2s.7,5.8.3,8.7.2,7.1-.4,10.6c-.2,1.1-.4,2.3-.5,3.4s-.2,2-.2,3a1.5,1.5,0,0,1-1.1,1.6l-3.3.9a1.9,1.9,0,0,1-2.3-1.9,11,11,0,0,0-.4-2.9c-1-2.9-.3-5.8-.1-8.7,0-.8.2-1.6.3-2.4Zm7-6.2c-.1-2.1-.3-4-.4-5.9s-.4-.8-1-.7a8.6,8.6,0,0,1-2,.2c-1.4-.1-1.6,0-1.5,1.3s.2,1.3.2,2,0,1.9,0,2.9-.2,4-.2,5.9.3,1,.1,1.7a20,20,0,0,0-.5,4.4c-.1,1.2.2,2.4.1,3.6s.4,2.8.9,4.1a.7.7,0,0,0,.4.4,2.1,2.1,0,0,0,2.5-1.9c0-.8.2-1.5.3-2.3C299.8,203.1,300.2,197.8,300.5,192.7Z" fill="#fff"/><path d="M325.4,364a16.1,16.1,0,0,1,7.2-1.4h5c.7,0,1-.2.9-.9s-.2-3.7-.5-5.6c0-.3-.9-.7-1.4-.7l-5.4.3h-5.4l-1.1-.3,12.1-13.7a22.8,22.8,0,0,1-3.4.4l-6.5-.5h-1.2l-1.1-.6c.3-.3.6-.7.9-.8h4.4l7.1.2a24.1,24.1,0,0,1,3,.6c-3.4,5-8,8.4-11.6,12.9h8.5c1.9,0,2.7.8,2.7,2.7s0,4.5-.1,6.7-.4,1.9-1.9,1.9l-7.4.2C328.7,365.2,326.9,365.8,325.4,364Z" fill="#fff"/><path d="M215.7,209.2c.2-2.1.6-4.8.8-7.5a43.1,43.1,0,0,0,.1-5.1c-.1-3.1-.4-6.3-.6-9.4-.1-1.1.3-1.7,1.5-1.9l4.6-.7a1.1,1.1,0,0,1,1.3,1.2,20.8,20.8,0,0,0,.4,6.1c.4,1.5,0,3.2.4,4.7a23.6,23.6,0,0,1,.3,4.6c.1,1.7.3,3.5.3,5.2s-.3,3.4-.5,5.1a7.2,7.2,0,0,0,0,1.3c.1,1.2-.3,1.7-1.5,1.6l-6.1-.4c-.3,0-.7-.5-.7-.8S215.8,210.9,215.7,209.2Zm1.8,3.4h4c.9,0,1.2-.3,1.2-1.2-.1-3.4,0-6.8-.1-10.3s-.4-7-.6-10.4c0-.9,0-1.8,0-2.7s-.3-1.4-1.4-1.1l-1,.3c-1.5.6-1.5.7-1.4,2.3a26.9,26.9,0,0,1,.3,4.8c-.3,4.3-.7,8.6-1,13C217.4,209,217.5,210.7,217.5,212.6Z" fill="#fff"/><path d="M195,427.4l5.7.4c.8.1,1.1-.3,1.1-1.1.2-4.9.5-9.8.6-14.7.1-1.5-.1-3.1-.1-4.6,0-5.1.2-10.2.2-15.3s-.4-7.7-.3-11.6.4-6,.7-9.1c.1-1.4.1-1.5-1.3-1.6l-3-.3a15,15,0,0,0-2.1.4h-.9c1.4-5.6,3-11,4.2-16.6s1.9-9.9,2.9-14.8c.5-2.7,1.2-5.4,1.8-8l3.8-16.2-13.2-1V313l.9-.3,7.3.2h5.8l.8.3c.1.1,0,.4-.1.6a23,23,0,0,0-1.3,3.1c-1,4.1-1.9,8.3-2.9,12.5s-1.5,5.8-2.1,8.7-1.4,8.8-2.3,13.1-2.3,9-3.4,13.4l-1,3.6c-.2.8.3,1,.9,1H202c1.3,0,1.6.3,1.6,1.7-.1,3.2-.4,6.4-.4,9.6s.2,7,.3,10.5-.1,5.4-.1,8.1.1,6.7.1,10-.1,5.2-.2,7.8-.1,6.8-.2,10.2c0,1.5-.3,1.9-1.7,1.8a44.8,44.8,0,0,1-5-.5C195.9,428.1,195.6,427.8,195,427.4Z" fill="#fff"/><path d="M264.6,190.8l-5.2-.4A1.2,1.2,0,0,1,258,189c.1-2.4.2-4.8.3-7.3s0-3.9-.1-5.9,0-2.5,0-4l-2.4.5c-.8.2-1.2-.1-1.2-.8a14.7,14.7,0,0,1,1.2-6.9,1.3,1.3,0,0,1,1.2-.3,19.6,19.6,0,0,0,6.8,1.1c.3,0,.6.6.7.9a20.6,20.6,0,0,0,.6,2.8c1.3,3,1,6.1,1,9.2s-.6,4.1-.5,6.2A37.1,37.1,0,0,1,264.6,190.8Zm-.9-1.8c.1-1,.2-2,.2-2.9.1-3.6.2-7.2.3-10.7a18.7,18.7,0,0,0-.9-7.3,1.4,1.4,0,0,0-1.7-1.1l-4.3.3a1.2,1.2,0,0,0-.8.8c-.3,1.4-.1,1.6,1.3,1.7s1.9,0,2.1,1.1a16,16,0,0,1,.5,3.5c0,2.7-.2,5.3-.3,8,0,.3-.1.6-.2.9s-.4,2.7-.4,4,.2,1.7,1.8,1.7Z" fill="#fff"/><path d="M242.6,224.3h-1l-2.5-.6a1.2,1.2,0,0,1-.7-.8c0-2.2,0-4.4.1-6.6a10.8,10.8,0,0,0-1.6-6.8,2.8,2.8,0,0,0-1.5-1.1c-2.7-.8-3.3-.3-3.5,2.5s-.6,6.3-1,9.5-.7,5-.9,7,.5,2.9,1.9,2.8l8.3-.9a2,2,0,0,0,1.3-.5,25.7,25.7,0,0,0,2.3-3.5C244.1,224.6,243.5,224.1,242.6,224.3Zm-2.7,3.3-8.3-.3c.4-3.1.9-6.2,1.3-9.4s.4-3.9.6-5.8.4-1.3.7-1.4,1.2.7,1.2,1.4.1,3.1.1,4.6,0,4.3,0,6.4a2.3,2.3,0,0,0,2.6,2.5,6.2,6.2,0,0,1,1.8,0,1.2,1.2,0,0,1,.7.9C240.7,227.1,240.2,227.7,240,227.7Z" fill="#fff"/><path d="M283,221.1c-.3,2.2-.5,4.4-.8,6.6s-2.4,2.1-3.6,1.7-1.9-1.4-1.5-3a18.2,18.2,0,0,0,.4-2.9c.2-2.5.3-4.9.6-7.4s-.2-1.8-1.4-2l-2.6-.6c-.4-.1-.9-.4-1-.7a16.4,16.4,0,0,1-.5-3.2c0-.3.4-.7.8-.8a22.4,22.4,0,0,1,8.3-.8c1.3.1,2.5,0,3.8.1s2,.7,2,2.4-.1,2.1-.2,3.2-.5,1-1.3.8c-2.6-.7-2.6-.7-3,1.9-.1.8-.2,1.6-.2,2.4s0,1.5,0,2.3Zm2.3-8.5a8.3,8.3,0,0,0,0-2,1.3,1.3,0,0,0-1-.7h-7.2c-1.1,0-1.2.9-1.9,1.4s.4.7.6.8l1.8.2c.8.2,1.7.4,1.8,1.5s.1,4.1,0,6.1-.3,4.4-.4,6.6h1.9c.1-1.2.3-2.3.4-3.5s.4-4.6.5-6.9c0-.8,0-1.6,0-2.4S283.7,212.3,285.4,212.6Z" fill="#fff"/><path d="M261.8,250.9l1.8,2.1c-1.1.3-.6,1.5-.3,2.2.9,3,0,5.7-.7,8.5s-1.2,5.6-1.8,8.4c-.2.8-.3,1.5-.4,2.3s.3,1,1,1.1l5.5,1.1.6.5-1.2.3-8.4.6a7.7,7.7,0,0,1-3.9-.8,2.8,2.8,0,0,1,2.9-1.7c.9.1,1.5-.2,1.6-1.1s.3-2.6.4-3.9.3-2,.4-3.1l1.4-10.1c.1-.9.2-1.8.3-2.7s-.2-1.2-1.1-1.2l-5.2-.4c-.5-.1-1.2-.5-1.3-.9s.6-1.1,1.3-1.2l7.2-.4Z" fill="#fff"/><path d="M296.3,61.1a9,9,0,0,1,.6,2.3c0,2.1-.3,4.1-.3,6.2s.1,5.7,0,8.6-.4,5.7-.6,8.6a3.4,3.4,0,0,1-.6,1.1c-1.4-.6-1.4-1.8-1.4-2.9s0-2.5.1-3.7.2-5.4.4-8.1a27.2,27.2,0,0,0-.6-9.1,9.5,9.5,0,0,1-.1-3.6c.1-1.1-.3-1.4-1.2-1.3l-5.5.2h-.2l-1.6-.7c.6-.3,1.2-.9,1.8-.9l13.3-.7a4.5,4.5,0,0,1,3.8,1.7,30.2,30.2,0,0,1-4.6.5C297.7,59.1,296.2,59,296.3,61.1Z" fill="#fff"/><path d="M242.6,58.8c1.5-.1,1.7.6,1.7,1.9s.2,2.9.2,4.3a18.7,18.7,0,0,1-.2,3.2c-.8,5.3-.2,10.5.4,15.7.1.7.4.9,1.1,1l6.6.5,4,.7.5.3.6.9a3.3,3.3,0,0,1-.9.5l-4.7.7c-1.1.1-2.2.1-3.2.3-4.5.9-6-1.6-6.3-5.6s.1-6.3.1-9.4c0-4.8-.1-9.5-.1-14.3A3,3,0,0,1,242.6,58.8Z" fill="#fff"/><path d="M122.4,314.9a2,2,0,0,1,1.9-1.8,28.1,28.1,0,0,1,3.9-.2c.8,0,1.1-.1,1.1-1-.1-2.7,0-5.4.1-8.1s0-3.3,0-5c0-3.4,0-6.9,0-10.3s-.1-7.6,0-11.3c0-2,.3-3.9.4-5.8.2-3.9.3-7.7.4-11.6a9.4,9.4,0,0,0-.6-2.3l-2.8.4a6.8,6.8,0,0,1-1.9.1c-.5-.1-1.5-.5-1.5-.7s.9-.8,1.5-.9h4.3c1,0,1.4.3,1.7,1.4.7,3.5.1,7,0,10.5s-.2,7.5-.3,11.3-.2,6.8-.2,10.2.2,7.4.2,11.1,0,7.2,0,10.7c0,1.2.5,1.7,1.7,1.6l5.3-.5c.9-.1,1,.3.9,1.1Z" fill="#fff"/><path d="M301.6,342c-1.6-.6-3.7,1-5.3-1a17.6,17.6,0,0,1,7-.3,1.2,1.2,0,0,1,1.1,1.5c-.3,2.6-.6,5.2-.8,7.8s-.1,3.3-.1,5,0,4.8,0,7.2h3.9c1.7-.1,2.4.4,2.9,1.8-2.4.8-6.5.9-14.9.1a21.3,21.3,0,0,1,3.3-1.3,24,24,0,0,1,3.6-.3,14.2,14.2,0,0,0-.4-2.6c-.7-2.2-.2-4.4-.1-6.6s.6-6.6,0-9.9A10.9,10.9,0,0,1,301.6,342Z" fill="#fff"/><path d="M271,3.5h-2a5.6,5.6,0,0,1,.8-1.7A11.4,11.4,0,0,1,272,.7c1-.6,1.7-.3,1.8.8a69.1,69.1,0,0,1,.3,8.1c-.2,4.4-.7,8.8-1.2,13.2a38.6,38.6,0,0,1-.8,4.3c-.5,2.2-.2,2.6,1.9,2.9l2,.3c.3.1.5.4.7.6l-.7.4-1.3.6a8.2,8.2,0,0,1-2.2.4l-5.4-.3a3,3,0,0,1-1-.5l.7-.7a3.1,3.1,0,0,1,2.5-.8c.3,0,.9-.5,1-.9a27.2,27.2,0,0,0,.7-3.8c.4-3.4.8-6.7,1.1-10.1.2-1.8.1-3.6.2-5.4a9.8,9.8,0,0,1,.1-1.2C272.8,6.3,272.6,5.7,271,3.5Z" fill="#fff"/><path d="M34.2,113.3c.3-.1.7-.2.7-.3s.2-3.1.3-4.7h-.4c-.3.7-.6,1.5-.8,2.2a17.3,17.3,0,0,1-.8,2.6c-.2.3-.9.4-1.5.7v-6.1h-.4a11.2,11.2,0,0,0-1.1,5.1,8.5,8.5,0,0,1-.3,2.2c-.1.3-.6.4-.9.6s-.6-.7-.6-.9q.5-3.1,1.2-6.1a9.4,9.4,0,0,1,.7-1.9c.6-1.4,1.7-1.6,2.6-.4s.9.5,1.5.2,1.5-.2,1.6.9.3,2.7.3,4,.3,1.3,1.4,1.1a9.7,9.7,0,0,1,2.2,0c1,0,1.3-.3.8-1.2a6.5,6.5,0,0,0-2-2.1c-.8-.5-1.7-.8-1.7-1.9a2.6,2.6,0,0,1,1.8-2.4,9.7,9.7,0,0,1,2.3-.5c.8-.1,2.2,1.6,1.9,2.3a.9.9,0,0,1-.9.3,2.1,2.1,0,0,1-.9-.7c-.7-.9-1.4-.6-2,0a1.6,1.6,0,0,0-.6,1.1c0,.2.5.5.9.6a4.4,4.4,0,0,1,2.9,4,2.2,2.2,0,0,1-1.5,2.1,4,4,0,0,1-2.5.2,12.9,12.9,0,0,0-2.4.2,1.7,1.7,0,0,1-1.1-.2A6.7,6.7,0,0,1,34.2,113.3Z" fill="#fff"/><path d="M309.1,192.6c-.1,2.7-.2,5.4-.2,8.2a17.5,17.5,0,0,0,.4,3.1c.5,2.6.2,3.5-2.3,3.8h-3.3c-.9,0-1.4-.4-1.3-1.4l.7-7.7c.2-2.2.4-4.3.6-6.5s.2-1.6,1.2-1.7a14.1,14.1,0,0,1,2.6-.1C309,190.5,309.2,190.8,309.1,192.6ZM306,206c1.8,0,1.9,0,1.7-1.8s-.6-5.2-.8-7.9.2-2.4.3-3.7-.3-.6-.5-.9-.7.4-.8.7-.1,1.4-.2,2.1c-.4,3.2-.9,6.3-1.3,9.5S304.2,206,306,206Z" fill="#fff"/><path d="M215.3,195.3l-1.1,9.5a5.4,5.4,0,0,0,0,.7c0,2.8-.3,2.8-2.8,2.6l-3-.2c-.9-.1-1.5-.5-1.2-1.5,1.4-4.6,1.4-9.3,1.5-14.1a2.1,2.1,0,0,1,1.7-2.2,12.8,12.8,0,0,1,2.8-.4,1.2,1.2,0,0,1,1,.6C214.5,192.1,214.9,193.8,215.3,195.3Zm-2.4-4.1c-.6.3-1.8.4-1.9.9a34.1,34.1,0,0,0-.7,4.8c-.1,1-.2,2-.3,3.1s-.8,4.1-1.2,6.3l3.5.3C212.6,201.4,214.4,196.5,212.9,191.1Z" fill="#fff"/><path d="M251.6,213.7a8.5,8.5,0,0,0-.5,1.8,60.2,60.2,0,0,0-.3,8,4.8,4.8,0,0,1-1.2,3.4l-.3.3-3.7,1c-1.4.3-2-.2-1.7-1.7.6-3.1,1.2-6.1,1.7-9.1.2-1,.2-2.1.3-3.1s.4-3.5.7-5.3a1,1,0,0,1,.5-.6l1.5-.3c3,0,3.5.6,2.6,3.5C251.1,212.3,250.8,213.2,251.6,213.7Zm-5.9,12.6c1.7-.2,3.1-1.3,3.2-2.4.5-4.4,1-8.9,1.4-13.3,0-.3-.5-.9-.7-.9a5.1,5.1,0,0,0-2,.6c-.2.1-.1.8-.1,1.2s0,.2,0,.4l-1.3,9.8Z" fill="#fff"/><path d="M302.6,399.3c-.3-.4-.7-.8-.7-1.2s.1-3.6.2-5.4c.3-3.8.6-7.5.8-11.3a3.6,3.6,0,0,0-.5-1.7c-.4-.7-.3-1,.6-1l9.1-.7a6,6,0,0,1,2.3.6c.2.1.4.5.3.8s-.4.4-.6.4l-5.8.2h-1.7a1.7,1.7,0,0,0-1.7,1.8c-.1,1.1-.3,2.1-.5,3.2s.4,1.3,1.3,1.3l3.3.3a2.8,2.8,0,0,1,1.1.4.9.9,0,0,1,.4.6c0,.1-.3.4-.5.4h-5.1c-.2,0-.5.5-.5.7-.4,2.7-.7,5.3-1,8l-.3,2.3Z" fill="#fff"/><path d="M330.9,381.1l-1.4,18.2c-1,0-1.6-.5-1.6-1.8s.2-4.3.3-6.4.4-6,.6-9c.1-.8-.3-1.1-1-1h-1.3c-1.7.3-3.3.3-4.7-1.1a4.2,4.2,0,0,1,1.2-.5l8.3-.5h3.5a2.5,2.5,0,0,1,1.2.2,7.7,7.7,0,0,1,1.2,1c-.4.2-.8.6-1.3.7Z" fill="#fff"/><path d="M268.3,377.1a5.2,5.2,0,0,1,.5,1.4c.1,2.4.2,4.8.2,7.3s-.2,6.9-.4,10.4c0,.9.2,1.2,1.1,1.2h4.9a8.5,8.5,0,0,1,2.4.6c.2.1.4.6.4.9s-.4.3-.6.4c-2.4.2-4.7.4-7.1.4a8.1,8.1,0,0,1-2.8-1c-.2-.1-.3-.5-.2-.7s.4-1.8.4-2.6c.1-3.4.2-6.8.1-10.2s.4-4.5.5-6.8a4.9,4.9,0,0,1,.4-1.3Z" fill="#fff"/><path d="M240.6,294c-.2.3-.3.8-.5.8a6,6,0,0,1-2.6.1c-.6-.2-1.1-1-1.6-1.6l-6-8a8.4,8.4,0,0,1-1.2-1.9c-.5-1.3.7-1.8,1.4-2.4s.9.2,1.2.6l5.8,7.3,3.1,4.2A4.8,4.8,0,0,1,240.6,294Z" fill="#fff"/><path d="M349.4,109.9a1.7,1.7,0,0,1-1.3,1.3,1.6,1.6,0,0,0-.9,1.2,20.3,20.3,0,0,0,.1,2.6,4.9,4.9,0,0,1-.3,1.1c-.4-.2-.9-.2-1.1-.5a22.8,22.8,0,0,1-1.1-2.5c-.6,0-1.4.3-1.6,0s1-.8.8-1.6l-1.6-.5c.2-.3.3-.6.5-.6s1.2-1,1.2-2a4.5,4.5,0,0,1,3.7-4.8c2.4-.5,2.8-.3,3,2.3s0,2.1,0,3.1-.5,1.3-1.4,1l-1-3.2a2.2,2.2,0,0,0-.6,1.1C347.2,110,347.3,110,349.4,109.9Zm-3.9-1.8h.4l.7-2.4h-.3Z" fill="#fff"/><path d="M172.2,160.2h1.9c.3,0,.5.3.8.5l-.6.6h-.5c-1,.3-1.8.8-1.6,2.2a11.7,11.7,0,0,1-.3,3c-.1.7-.4.9-1.2.8s-1.9-.7-1.6-2.1a7.4,7.4,0,0,0-.1-1.7h-.4a7.3,7.3,0,0,1-.6,1.3,5.5,5.5,0,0,1-1,.9,3.8,3.8,0,0,1-.7-1.1,9.6,9.6,0,0,1-.4-2.9,32.9,32.9,0,0,1,.8-4.1,23.5,23.5,0,0,1,.7-3c.1-.3.7-.5,1.2-.8l-.9,8.1.4.2.9-.8,1.4-1a2,2,0,0,0,.6-.9c.3-1.2.5-2.4.9-3.6s.6-.5,1-.7a3.4,3.4,0,0,1,.4,1.1c0,.6-.5,1.2.4,1.5s.3.9-.4.4Z" fill="#fff"/><path d="M277.7,88.9l1,.9.4-2.4c1,.7,1.4,1.3,1.3,2.2s-.4,4.2-.8,6.3a1.3,1.3,0,0,0,1.1,1.6l.6-1.2.6,2.1c-1.2.3-2.2.5-2.4,1.9s-.4.5-.6.8-.5-.6-.6-.9,0-1.2-.1-1.8a4.7,4.7,0,0,0-.4-1.1l-1,.5v.2c-.7.6-1.5,1.6-2.3.9a3.5,3.5,0,0,1-1.1-2.6,3.7,3.7,0,0,1,2.5-3.6,1.8,1.8,0,0,0,1.4-2.2,14.6,14.6,0,0,1,0-1.6ZM276.1,95c-1.3.3-1.6,1-1.3,2.3Z" fill="#fff"/><path d="M362.3,370.4c.1,1,.1,1.9.2,2.9s-.1,1.1-.8,1.1l-2.5.3a2.5,2.5,0,0,1-2.9-2.3c-.1-1.7-.1-3.4-.1-5.1s.4-1.2,1.2-1.1h2.7a2.1,2.1,0,0,1,2.3,2.5c0,.6,0,1.1,0,1.7Z" fill="#fff"/><path d="M285.6,288.9l-1.9,1.8a22.8,22.8,0,0,1-2.4,2.5,5.4,5.4,0,0,1-2.2.7c-.1,0-.6-.6-.5-.7a8.3,8.3,0,0,1,1.1-2.6c2.3-2.9,4.7-5.6,7-8.4a2.1,2.1,0,0,1,2.8-.4,1.7,1.7,0,0,1,.7,1.3,2.5,2.5,0,0,1-.7,1.4l-3.7,4c-.1.1-.1.4-.1.6Z" fill="#fff"/><path d="M15.1,192.4l-.4.2-.4.2v-.2a16.9,16.9,0,0,1,.4-1.8,2.4,2.4,0,0,1,.6-1c1.5-1.4,5.5-1.4,7,0a2.3,2.3,0,0,1,.4,2.9,8.3,8.3,0,0,1-1.6,1.7c-.7.5-.7,1-.1,1.4s1.3,2.2.8,3.6a2.2,2.2,0,0,1-1.7,1.5c-1.2.3-1.4.1-1.8-1.1a13.7,13.7,0,0,0-.7-1.9Zm2.8,2.5,3.2-2.3a1.3,1.3,0,0,0,.5-1.1c-.1-.3-.6-.8-.9-.8a32.2,32.2,0,0,0-3.7.8c-.1,0-.2.4-.2.6Zm1,1.4-.5.4,1,2.3h.5c.2-.4.6-1,.4-1.3A6.6,6.6,0,0,0,18.9,196.3Z" fill="#fff"/><path d="M24,168.8l-1.1-.4a1.5,1.5,0,0,1-1.4-1.9c.3-1.4.7-2.9,2-3.8a2.3,2.3,0,0,1,1.7-.2,1.6,1.6,0,0,1,1.1,1.6,21.8,21.8,0,0,1-.9,7.5c0,.1,0,.2-.1.2s-1.9,3.2-3,4.6-1.3.4-1.9.4a5.9,5.9,0,0,1-2.1-.5,1.6,1.6,0,0,1-.8-1c0-.2.5-.6.8-.8l1-.3C22.7,174,23.5,171.6,24,168.8Zm.8-4c-1.6.6-2.1,1.5-1.4,2.4Z" fill="#fff"/><path d="M305.3,109.2l3-.4v-.3l-2.1-.8,1.1-.5c.5-.1,1-.7,1-.7,1.7-.4,2.5-2,3.9-2.7l.2.2-.9,2.6c2.3-.1,3.8-2.4,6.4-1.5l-1.6,1.1,1.2,1.1-4.4,1.4a10.5,10.5,0,0,1,1,1.4,6,6,0,0,1,.3,1.3h-1.3l-.4-.2c-.8,1.4-1.9,1.4-2.7,0s-1-.5-1.6-.3-1.5.2-1.3-.9l-2-.2Z" fill="#fff"/><path d="M.1,158.7c2.6,1.8,2.3,4.8,3.8,7.1a4.8,4.8,0,0,0,.2-.8c0-.7.4-1.1,1-1s1.2.2,1.3,1.1a7.4,7.4,0,0,0,.8,2h.4l4.1-8.2c1.8,1.4.6,2.7,0,3.9s-2.1,4.1-3.2,6.1c-.2.3-.6.5-1,.9l-2-2.6a7.9,7.9,0,0,1-.7,1.6,9.4,9.4,0,0,1-1.3,1.2,5.8,5.8,0,0,1-.9-1.4c-.7-2.2-1.1-4.5-2-6.6A5.1,5.1,0,0,1,.1,158.7Z" fill="#fff"/><path d="M161.2,112.4a4.9,4.9,0,0,1,0,1.1,7.5,7.5,0,0,1-.5,1.2,3.3,3.3,0,0,0-.9-.5h-1.3a29.5,29.5,0,0,1-3.9.7,2,2,0,0,1-1.4-1.3c-.4-1.6-.6-3.3.6-4.6a11.1,11.1,0,0,1,3.4-2.2c.2-.1,1.1.8,1.3,1.4a4.5,4.5,0,0,1,.1,2.1,1.1,1.1,0,0,1-.8.7c-.7.1-1.5,0-2.3.1s-1.1.5-1.2.8.7,2.2,1.4,2.2l2.3-.4a1.7,1.7,0,0,0,1.4-1.8,15.6,15.6,0,0,1,.5-3.2c.3-1.3,1.4-1.9,2.4-2.5s2-1.2,2.9,1a5.9,5.9,0,0,1,.4,1.9c0,.3-.3.6-.5.9a5,5,0,0,1-.7-.8c-.1-.2,0-.6-.2-.8l-1.4-1.1a5.2,5.2,0,0,0-.9,1.3c-.3,1.3-.5,2.6-.8,3.9Zm-6.6-3.1.2.3a10.4,10.4,0,0,0,1.9-.6c.2-.1.3-.6.4-1s-.8-.4-1-.3A11.2,11.2,0,0,0,154.6,109.3Z" fill="#fff"/><path d="M113.2,200.7c-.1-1.4-.2-3-.2-4.7s0-2.2-2-3.1a1.9,1.9,0,0,1-.9-1.4c0-.4.7-1,1.2-1.1a14.9,14.9,0,0,1,2.8,0h3a7.2,7.2,0,0,1,1.6.6c-.3.5-.4,1.2-.8,1.4-2.6,1.2-1.5,3.2-1.3,5s.2,1,.2,1.5-.2,1.2-1.3.9S114.1,200.4,113.2,200.7Z" fill="#fff"/><path d="M18.7,109.6l.7,4.1c0,.2.2.4.1.6a12.6,12.6,0,0,1-.4,1.2c-.3-.3-.8-.5-.9-.9a8.6,8.6,0,0,1-.5-2.3c-.1-1.2-.9-1.3-1.7-1.4s-1.7-.2-2,1a17.7,17.7,0,0,1-.8,2.6c-.1.4-.6.6-.9.9s-.5-.9-.4-1.3c.8-2.8,1.7-5.6,2.5-8.3s.8-2.6,1.1-3.9.7-1.1,1.4-.9.4.8.3,1.2a5.8,5.8,0,0,0,.6,3.7,22,22,0,0,1,1.1,3.6Zm-2.4-3.5H16l-1,3.4c2.3-.5,2.3-.5,1.7-2.3Z" fill="#fff"/><path d="M320.1,113.6l2.6-.4a27.4,27.4,0,0,0,2.9-.1c.5-.1.9-.7,1.3-1s-.7-1-1.2-1.2l-5-2a9.2,9.2,0,0,1-1.6-1.2l1.6-.7,5.2-1.7a4.4,4.4,0,0,1,4,.6c.3.2.4.6.5.9l-1,.3-5.9.2-.2.4a12.8,12.8,0,0,0,1.6,1.1l2.7,1.2c1.2.6,1.3,1.6.6,2.7s-2.5,2-4.3,1.9l-3.1-.2a2.9,2.9,0,0,1-.8-.4Z" fill="#fff"/><path d="M147.9,162.4l1.7-2.9,2-3.3a1,1,0,0,1,.9-.4.9.9,0,0,1,.4.8,16.9,16.9,0,0,1-2.4,6.7,6.8,6.8,0,0,1-1.2,1.3,1.5,1.5,0,0,1-2.5-.4l-.7-1-.4,1.1c-.4.9-1.3,1-1.7.2-1.3-2.5-2.4-5.1-3.6-7.7a1.1,1.1,0,0,1,1.7.5l2.1,4,.5,1C145.9,160.8,145.9,160.8,147.9,162.4Z" fill="#fff"/><path d="M342.5,289a13.2,13.2,0,0,1-1.3,5.6l-1,1.8c-.6,1.4-.9,2.8.8,3.9-1.4.4-1.9-.2-2.3-1.6l-1.9,2.2-1.1.9a7.3,7.3,0,0,1-.7-1.2,6.5,6.5,0,0,1-.2-1.4l-2.7,1.2a6,6,0,0,1-1.9.6c-1.3.1-1.9-1.3-1.3-2.6a5.7,5.7,0,0,1,1.5-1.7,25.4,25.4,0,0,1,2.3-1.5l.3-.3-1-1.3a2.8,2.8,0,0,1,1.1-.3c.2,0,.4.4.5.7s.4,3,.7,4.6a42.2,42.2,0,0,1,4.8-4.3C341.1,293.2,340.4,290.4,342.5,289Zm-3.1,6.6-.4-.2a6.2,6.2,0,0,0-3.3,4c-.1.2.1.5.2.7l.7-.3a21,21,0,0,0,1.9-2.2A11.3,11.3,0,0,0,339.5,295.7Zm-6.5.6c-1.1.9-2.1,1.6-3,2.4s-.1.7.4.9S333.5,298.8,333,296.3Z" fill="#fff"/><path d="M310.8,196.3h6.7c1.7,0,3.3,1.5,3.1,3.1a14.6,14.6,0,0,1-1.2,3.5c-.1.2-.6.3-.9.4a10.3,10.3,0,0,0-2.1.2,5.1,5.1,0,0,1-4-.6,1.7,1.7,0,0,1-.9-1C311.1,199.9,311,198.1,310.8,196.3Zm4.2,5.5c2.1-.1,2.5-.3,2.9-2.2s.1-1.6-1-1.8a19.3,19.3,0,0,0-2.9-.3,1.7,1.7,0,0,0-1.3.7C311.9,199.6,313.4,201.8,314.9,201.8Z" fill="#fff"/><path d="M285.6,289c1.5-.4,1.8-1.9,2.8-2.9a1.4,1.4,0,0,1,2.2-.1c1,.8.9,1.3-.1,2.1l-2.1,2,.3.3,1.7-1.2a20.5,20.5,0,0,1,1,3.2c.2,1.3-.4,1.7-1.6,1.2H289c-1.4-.2-1.7-.9-1.4-1.8l-2.7,2.6h-.6c-1.8-1.4-1.8-1.4-.4-3.2l1.5-2.1Z" fill="#fff"/><path d="M122.7,167.3l1,.8-.2.2-2.4-1.9a12.2,12.2,0,0,1,2.3-1.6c2.8-1.1,5.7-2.3,8.6-3.2s4.3-1.1,6.5-1.6h1.3c-.6.8-.7,1.5-1.7,1.9-4.5,1.7-9.1,3.1-13.7,4.7Z" fill="#fff"/><path d="M96.3,195h2.2c.4.1.7.4,1,.7s-.5.8-.8.8c-3.2.4-2.4.7-2.6,3.2a2.8,2.8,0,0,1-.2,1.2,5.2,5.2,0,0,1-1,1c-.3-.4-.8-.8-.8-1.2s-.1-3.3-.1-5a26.7,26.7,0,0,1,.3-2.7c.1-1.2.7-1.9,1.9-1.8a48.9,48.9,0,0,1,5.1.8c.2,0,.6.5.6.7a1,1,0,0,1-.7.6l-3.5.4C97,193.7,96.3,193.7,96.3,195Z" fill="#fff"/><path d="M29.4,195.3c.1-1-.1-1.9-1.1-2.2s-2,.7-2.7,2l-.3-1.5v.2c-.3-.3-1-.7-.9-.9a1.7,1.7,0,0,1,.9-1l3.4-1.3a1,1,0,0,1,1.4.5,7.6,7.6,0,0,1,.8,5.1c-.1.6-.4,1.1.5,1.4s.2.5.2.7-.3.4-.6.5l-.6.3a11,11,0,0,1-2.7,1.4c-.5.1-1.4-.5-1.8-1a2.5,2.5,0,0,1,1.3-3.4Z" fill="#fff"/><path d="M288.4,378c1.8.3,2,.5,1.8,2.2-.3,3.6-.6,7.3-.9,10.9-.2,2.1-.4,4.1-.7,6.2a8.7,8.7,0,0,1-.6,1.6,1.3,1.3,0,0,1-1.1-1.7c.3-3.4.6-6.8.8-10.1s.4-5.6.6-8.5C288.3,378.5,288.4,378.3,288.4,378Z" fill="#fff"/><path d="M269,91.7a2.3,2.3,0,0,1,2.1-2.8c1.7,0,.9,1.7,1.5,2.7h.5l1.1.7-1,.8c-.4.3-.9.7-1,1.1s0,2.2-.1,3.2a4.7,4.7,0,0,1-.9,1.7c-.1.1-.7,0-.7,0s-2.2-.3-1.9-1.9a12.9,12.9,0,0,0,.2-2.5,1.3,1.3,0,0,0-.4-.9c-1.3-1-1.3-1.4.3-2.1Z" fill="#fff"/><path d="M358.9,107.5c.9-.6.9-1.1-.1-1.6s-1.9-.6-2.5.4a15.2,15.2,0,0,0-1.4,2.7c-.3.9.4.8,1,.9a4.7,4.7,0,0,1,1.6.4c-.1,1-.9.7-1.5.8a1.8,1.8,0,0,0-1.7,1.6,7,7,0,0,1-.7,2c-.1.3-.6.4-.9.5s-.6-1-.5-1.3.6-1.7-.9-2.8l-.3-.3a3.5,3.5,0,0,1-.2-.6c2.3.2,2.6-1.5,3.1-3a17.8,17.8,0,0,1,.9-1.7,3.6,3.6,0,0,1,5.6-1.1,2,2,0,0,1,.2,2.6c-.2.4-.9.5-1.4.8Z" fill="#fff"/><path d="M68.3,204.6c.2-1.2-.1-1.9-1.4-2.1s-1.4-1.4-1.6-2.3-.4-4.4-.5-6.7c0-.4.4-.8.5-1.2,1.7.5,1.8.7,1.7,2.1a16.8,16.8,0,0,0,.2,3.5,2,2,0,0,0,2.1,2c1.2.1,2.4.6,3.7,0s.5.2.5.3-.2.9-.4,1a8.6,8.6,0,0,1-1.8.6C70,202.3,68.6,202.9,68.3,204.6Z" fill="#fff"/><path d="M206.3,197.4c0,1,0,1.8,0,2.5s-.4.9-1.1.8l-5.7-.2a2.6,2.6,0,0,1-1.7-.5c-.2-.3,0-1.1.2-1.6s.4-1.5.5-2.2a2.4,2.4,0,0,1,2.4-2.2l3.6-.4a1.3,1.3,0,0,1,1.5,1.3C206.1,196,206.2,196.8,206.3,197.4Zm-2-2.5-1.6.2c-2.5.2-2.5.2-2.5,2.7,0,.1,0,.2,0,.2s.3.9.9.9h2.4c1,.1,1.3-.3,1.1-1.1Z" fill="#fff"/><path d="M158.1,171.2l.6,1a4.3,4.3,0,0,0,2.4-2.3l.8-2.1c.3-.8.3-1.3-.7-1.8a2.3,2.3,0,0,1-1-1.8c0-2,1.5-3.2,3.1-4.1a1.2,1.2,0,0,1,1.7,1.2c-.8,2.9-1.5,5.7-2.4,8.5a5,5,0,0,1-3.5,3.4,1.9,1.9,0,0,1-1.6-.6c-.2-.3,0-1,.1-1.5Zm4.9-9.1c-1.2.9-1.5,1.7-1,2.8A2.2,2.2,0,0,0,163,162.1Z" fill="#fff"/><path d="M146.2,110.2l-1.6.6-.2-.3c.4-.7.8-1.4,1.8-1.7a1.8,1.8,0,0,0,1.1-.9c.9-2.3,1.6-4.6,2.4-6.9,1,.4,1.2,1.1.8,1.9a15.3,15.3,0,0,0-1.6,5.3l2.7-.2c-.4,1.2-1.4,1.1-2.1,1.3s-.9.2-1.1.5a18.1,18.1,0,0,0-1,3.4c-.2,1.2.3,1.7,1.6,1.5l2.9-.5.2.4-1.3.8-1.2.5c-1,.5-2,.9-3,0s-.8-2-.6-3.1.4-1.5.7-2.3Z" fill="#fff"/><path d="M308.8,294.3l.8-1.4.4,1.1.5.3,3.1-3.8.4.3a4.6,4.6,0,0,1-.5,1c-.8.9-1.9,1.6-2.1,3s-.5.6-.9.7-1.3,1.2-1.2,2.2.5,2-.5,3a5.2,5.2,0,0,0-.8-1.7c-.3-.3-1-.2-1.6-.2v.3c-.1-.2-.3-.3-.3-.5s-.3-2.2-1.8-2.2a5.4,5.4,0,0,1,.1-1.2c1.5-.1,1.8-1,1.6-2.3s.2-.6.6-.9l.3,2.1h.5v-4.8h.4l.5,4.8Z" fill="#fff"/><path d="M229.2,285.3a4.1,4.1,0,0,0,.4,1.1l4.8,6.3c.5.7,1.2,1.4.4,2.4s-1.1,1-2,0-2.5-2.7-3.7-4.1a10.7,10.7,0,0,1-1.8-3.3,1.5,1.5,0,0,1,1.3-2Z" fill="#fff"/><path d="M263.2,289.5c2.8.7,3.2,1,2.8,2.2l-2.3-.4c-1-.2-1.4.2-1.4,1.2a5.6,5.6,0,0,1-.3,1.6c-.1.3-.6.8-.8.8a2.2,2.2,0,0,1-1.1-.9c-.2-.2,0-.7.1-1,.4-2.2.9-4.4,1.3-6.5s.7-1.5,1.7-1.3l4.8,1.1c.4.1.8.7,1.1,1a4.2,4.2,0,0,1-1.5.3l-3.4-.8c-.9-.2-1.3.1-1.1,1.1A11.5,11.5,0,0,1,263.2,289.5Z" fill="#fff"/><path d="M146.4,105.5c-.3-.8-.6-1.4-.9-2s-.5-.8-.8-.9-.8.4-.9.7-1.2,3.6-1.9,5.6c1.1.2,2.1-.5,2.3.9l-.9.4c-1.2.1-1.5.9-1.5,1.9a8.5,8.5,0,0,1-.1,1.8,3.1,3.1,0,0,1-.5.9c-.3-.3-.7-.5-.8-.9a4.9,4.9,0,0,1,0-1.5c0-.7.1-1.4-1-1.4a.8.8,0,0,1-.1-1.5c1.1-.2,1.3-.9,1.4-1.9a9.4,9.4,0,0,1,1.9-5.4,2.5,2.5,0,0,1,1.7-.9c.5,0,1.1.7,1.5,1.2S147.1,104.1,146.4,105.5Z" fill="#fff"/><path d="M157.6,162.3l-3.9.5c-.2,0-.4.7-.4.8a11.6,11.6,0,0,0,1.6,1.6,2.9,2.9,0,0,0,1,.3c-.8,1.4-2.7,1.2-3.7-.3a3.8,3.8,0,0,1,.3-3.9c1.4-1.7,2.4-2.1,3.9-1.4s1.7,1.4,3,1.3.4.5.4.7a31.9,31.9,0,0,1-.6,3.4c-.1.3-.5.6-.7.9s-.8-.6-.8-.9A29.6,29.6,0,0,1,157.6,162.3Z" fill="#fff"/><path d="M264.9,97.4l.9-.4h1.1c-.1.4-.2.9-.5,1.1a6.6,6.6,0,0,1-1.9.7l-2,.3c-1,.1-1.5-.3-2.1-1.3s-.7-3.7-.6-5.7a11.5,11.5,0,0,0-.2-1.7c0-.5,0-1,0-1.7l1.7,1.2c0,1.5-.1,2.9,0,4.3s.8,1.5,1.9,1.3S265.3,95.8,264.9,97.4Z" fill="#fff"/><path d="M133.3,97.2c-.2,1.1-.3,1.9-.5,2.8a64.9,64.9,0,0,0-1.1,14c0,1.2.3,2.6-1.8,2.6a2.9,2.9,0,0,1-.2-.9c.4-4.8.9-9.6,1.3-14.4,0-.2.1-.4,0-.6s.9-2.2,1.3-3.3Z" fill="#fff"/><path d="M36.9,162.4c-1.9-.2-2.2.8-2.2,2.3a21.3,21.3,0,0,1-.5,4c-.1.4-.6.8-.9,1.1s-.7-.8-.7-1.2a33.3,33.3,0,0,1,.3-3.9c.1-.8.1-1.3-.9-1.3s-.8-.6-1.2-.9A4.5,4.5,0,0,1,32,162c.7-.1,1.2-.3,1.3-1.1s.1-2.2.2-3.2.5-.8.7-1.2.8.7.9,1.2a10.9,10.9,0,0,1-.1,2.1c0,.8,0,1.5,1.1,1.6s.5.4.8.6Z" fill="#fff"/><path d="M56.5,166.9,41,166.3c-.4,0-.7-.4-1-.7s.7-.5,1-.6c3.7-.1,7.5-.3,11.2-.3a11.4,11.4,0,0,1,3.4.9C55.9,165.9,56.1,166.3,56.5,166.9Z" fill="#fff"/><path d="M246.2,295.2l3.6-1.1a1.4,1.4,0,0,1,1.6.4c.2.2.4.5.4.6a1.2,1.2,0,0,1-.6.6l-4.7,1.7a1.4,1.4,0,0,1-2-.8c-.2-.5-.4-1.1-.6-1.5l-2.4-4.6a4.8,4.8,0,0,1-.2-1.4c.5.1,1.3.1,1.5.5s2,3.1,2.9,4.6A9,9,0,0,1,246.2,295.2Z" fill="#fff"/><path d="M29.5,154.6a12.2,12.2,0,0,1,.2,1.4c.1,1.1.1,2.2.1,3.3a4.3,4.3,0,0,1-.2,1.4,5.4,5.4,0,0,0,.4,3.9,14.5,14.5,0,0,1,.6,3.8c0,.3-.5.7-.7,1.1l-.7-1.2c-.1-.2,0-.5-.2-.7a1.9,1.9,0,0,1-.3.6c-.2.2-.6.6-.8.5a1.2,1.2,0,0,1-.7-.8,6.4,6.4,0,0,1,.3-1.6,27.2,27.2,0,0,0,.5-2.8c.2-2.5.3-5.1.5-7.6a4.8,4.8,0,0,1,.4-1.2Z" fill="#fff"/><path d="M331.7,110.2c-2.1.9-2-.7-2.4-2.1a5.4,5.4,0,0,1,1.5-.3,1.2,1.2,0,0,0,1.6-1.2c.1-.6.2-1.3.4-1.9a1.4,1.4,0,0,1,1.7-1.1c-.1.4-.1.8-.2,1.2s-.3,1.1-.4,1.6.3,1.3,1.2,1.2h1.8l.2.4-1.2.8-1.7.5a1.4,1.4,0,0,0-.7.8c-.2.9-.2,1.8-.4,2.7s-.4.5-.6.8-.5-.4-.5-.7S331.8,111.3,331.7,110.2Z" fill="#fff"/><path d="M15.2,168.4a2.7,2.7,0,0,1-3.3,1.3,2,2,0,0,1-1.3-2.2,4.8,4.8,0,0,1,4.8-4.5,1.6,1.6,0,0,1,1.6,1.7c.1,1-.5,1.2-1.3,1.4a14.2,14.2,0,0,0-2.7.9c-.3.1-.4.7-.6,1l1,.3Z" fill="#fff"/><path d="M331,283.5l-5.4,1.4c-.9.2-1.5-.5-1.4-1.6.1-2.8,3.3-6.3,6.5-5.7.8.1,1.4.4,1.4,1.3a1.5,1.5,0,0,1-1.3,1.7l-3.9.5c-.5.1-1.1.1-1.3.4a2,2,0,0,0-.4,1.6c.1.3.9.6,1.4.6s2.1-.4,3.2-.6h1.1Zm-.3-4.1v-.5a3.7,3.7,0,0,0-3.1.5v.3Z" fill="#fff"/><path d="M24.8,109.3l-1,5.9a2.3,2.3,0,0,1-.1.6l-.9,1.7c-.3-.6-.8-1.2-.8-1.8.2-2.6.6-5.2.9-7.8a2.2,2.2,0,0,1,2.3-1.6,2.3,2.3,0,0,1,1.1,1.4,2.1,2.1,0,0,1-.2,1.5C26.1,109.4,25.4,109.2,24.8,109.3Z" fill="#fff"/><path d="M173,167.1c1.6.4,2.8.7,3.7-.6-.9-.9-1.9-1.6-2.7-2.5s-.7-1.8.7-2.2a6.3,6.3,0,0,1,1.7-.5,4.3,4.3,0,0,1,1.5.6l-1.2.7-.8.2,1.3,1.1a3,3,0,0,1,.9,3.9c-.9,1.2-3.4,1.8-4.6.9S173.2,167.7,173,167.1Z" fill="#fff"/><path d="M322.2,309.5l-.4,4.8h-.3a3,3,0,0,1-.4-.9c-.5-5.3.6-9.6,3-11.5.8,1.3,1.7,2.6,2.5,3.9a2.4,2.4,0,0,1-.4,3.2,2.6,2.6,0,0,1-3.3.6Zm1.9-5.8h-.4a17.2,17.2,0,0,0-1,2.5c-.5,2,.3,2.7,2.3,2s1.5-.9.9-2A21.9,21.9,0,0,0,324.2,303.7Z" fill="#fff"/><path d="M273.4,289.8l-2.6-1.5c-.2-.1-.2-.5-.3-.8s.6-.2.8-.2l5,1.9a1.8,1.8,0,0,1,.8.6,1,1,0,0,1,0,.9c-.1.1-.6.2-.7,0s-1.4-.2-1.9.7-1.9,3.3-3,4.9-.7.3-1.1.5-.2-.8-.1-1.1Z" fill="#fff"/><path d="M304.5,277.9h5.6c.3,0,.6.6.9,1s-.7.8-1.1.8l-7.4.3a2.7,2.7,0,0,1-1.6-.7c-.2-.2-.2-.9-.1-1.2s.6-.3,1-.3h2.7Z" fill="#fff"/><path d="M294.5,99.6a16.3,16.3,0,0,1,2.6-.1l11.5,1.7,1.7.4a.7.7,0,0,1-.2,1.4,6,6,0,0,1-2.1-.2c-4-1.4-8.3-1.5-12.4-2.2a4.3,4.3,0,0,1-1.1-.5Z" fill="#fff"/><path d="M360.4,285.4h-.8a1.7,1.7,0,0,0-2.4.8,3,3,0,0,1-2.5,1.7c-1.1.1-1.7-.3-1.8-1.4s-.2-2-.3-2.9l4.2-1.7c.5,1.4.2,2-1.3,2.7s-.7.1-.9.3a6.2,6.2,0,0,0-.8,1c.4.2,1,.7,1.2.6a7.3,7.3,0,0,0,2-1.8c.5-.6.8-1.3,1.7-1A2,2,0,0,1,360.4,285.4Z" fill="#fff"/><path d="M34.6,199.7c-1.9-3.4-2.3-6.8-.7-10.4.3-.7.9-1.1,1.6-.3a27.8,27.8,0,0,1,2,2.8c.1.2-.1.6-.1.9l-.8-.4a14.1,14.1,0,0,0-1.7-1.6C34.1,193.7,35,196.7,34.6,199.7Z" fill="#fff"/><path d="M339,281.5l.3-2.2c-1.3-.4-1.9.6-2.7,1.2-.2-1.3,1.8-3.2,2.8-2.8a1.2,1.2,0,0,1,.5,1q-.2,2.7-.5,5.5c0,.3-.4.6-.7.7a13.2,13.2,0,0,1-2.4.8c-.6.1-1.4.2-1.7-.1a2.7,2.7,0,0,1-.5-1.9,2.7,2.7,0,0,1,2.8-2.2Zm-.1,2.3-.7-.8a3.1,3.1,0,0,0-3,.4c-.1.1-.3.5-.2.5s.9,1,1.3.9A12.4,12.4,0,0,0,339,283.8Z" fill="#fff"/><path d="M41.1,162.6v.2c-.7.1-1.8.2-1.9.4a21,21,0,0,0,0,3.4c0,.6.2,1.4-.1,1.9s-1.2,1.4-1.7,1.3a3.6,3.6,0,0,1-1.9-1.6c-.4-.6.2-.8.7-.8s1.9-.3,1.3-1.9a3.6,3.6,0,0,1-.1-3,2.1,2.1,0,0,1,2.2-1.2A1.5,1.5,0,0,1,41.1,162.6Z" fill="#fff"/><path d="M318.9,279.5l.9-1.2c1.2,1.6.9,5.9-.6,8.2l.6-5.9h-.4c-1.6,1.3-1.2,3.6-2.4,5.1-.6-1.3,3-14.4,4.6-16l-2.9,9.7Z" fill="#fff"/><path d="M80.4,201.3a20.5,20.5,0,0,1-.7-2.9,29.2,29.2,0,0,1,0-3.5,2.4,2.4,0,0,1,1.4-2.4l.8-.3a3.1,3.1,0,0,1,.2,1c0,.6-.3,1.2-.3,1.8a17.4,17.4,0,0,0,0,3A3.4,3.4,0,0,1,80.4,201.3Z" fill="#fff"/><path d="M256.6,294.4c-.2.2-.4.8-.6.8a1.4,1.4,0,0,1-1-.7c-.4-1.2-.7-2.5-1-3.8s-.6-2.3-.8-3.5a2.2,2.2,0,0,1,.3-1.3c.5-.8,1-.5,1.2.2C255.4,288.8,255.9,291.5,256.6,294.4Z" fill="#fff"/><path d="M324.3,294.4c.6,1.3.2,2.1-1.3,2.5a3.3,3.3,0,0,0-1.4,1c2,1,3.9-.1,5.9.1-.3.2-.5.5-.7.5a41.9,41.9,0,0,1-4.5,1.1c-1.2.2-1.7-.4-1.5-1.7a17.4,17.4,0,0,1,.7-2.4.8.8,0,0,1,.4-.4Z" fill="#fff"/><path d="M324.5,288.5c-2.8,4.1-6.3,7.7-7.6,12.7l-.5-.2a5.9,5.9,0,0,1,.3-1.7c1-2,1.9-4,3.1-5.9a48.3,48.3,0,0,1,3.3-4.4,6.7,6.7,0,0,1,1-.9Z" fill="#fff"/><path d="M225.8,292.1l1.7-.4c.9-.2,1.8-.2,2.3.8a7.4,7.4,0,0,1,.8,1.5,1.5,1.5,0,0,1-.2,1.2c-.3.3-1.1.4-1.4.2S226.9,293.4,225.8,292.1Z" fill="#fff"/><path d="M263.1,302.5a3.2,3.2,0,0,0-1.2,0c-.9.4-1.1,0-1.2-.8a2.7,2.7,0,0,1,1.4-2.6,1.2,1.2,0,0,0,.7-1.3,19.6,19.6,0,0,1,.2-2.3c.9,1.2,1,6.4.3,7.3Z" fill="#fff"/><path d="M319.9,303.9a12.5,12.5,0,0,1-1.1,2.5,40,40,0,0,1-3,3.7c-.6.7-1.3.4-1.4-.4a8.3,8.3,0,0,1,1-5.5h.4l-.9,4.6c2.5-1,3.4-3.2,4.6-5.1Z" fill="#fff"/><path d="M19,169.8c-1.2-1-1.2-1.4-.7-2.6a15.6,15.6,0,0,0,.8-3.1c.1-.4.1-.8.2-1.2s1.2.7,1.2,1.5A8.7,8.7,0,0,1,19,169.8Z" fill="#fff"/><path d="M100,114.9c1-2,12.5-7.5,16-7.3-3,1.2-5.7,2.2-8.4,3.4S102.4,113.7,100,114.9Z" fill="#fff"/><path d="M342.4,284.1l4.1-4.5.3.3-2.4,3.2-1.8,2.3a1.2,1.2,0,0,1-.8.4.7.7,0,0,1-.5-.5c-.1-2-.4-4,.7-5.9h.3l-.4,4.5Z" fill="#fff"/><path d="M253.6,297.4a9.9,9.9,0,0,1,.1,1.9c-.1.9.2,1.3,1.1,1.2a2.2,2.2,0,0,1,.9.1,1,1,0,0,1,.5.7c0,.2-.3.6-.4.6a8,8,0,0,1-3.1-.4C251.7,300.8,252.2,298.2,253.6,297.4Z" fill="#fff"/><path d="M352,280.7a5.3,5.3,0,0,1-.3,1.4,30.6,30.6,0,0,0-3.9,8.9l-.4.3a3.7,3.7,0,0,1-.2-1.2,22.6,22.6,0,0,1,4.2-8.9Z" fill="#fff"/><path d="M300.9,399.9a7.1,7.1,0,0,1,.4.9c.1.3,0,.7.1.9s-.1,2.4-.6,3.6a.9.9,0,0,1-1.5.5c-.3-.3-.3-1-.3-1.5s.4-.5.6-.7a2.7,2.7,0,0,0,.8-2.8c-.1-.2.1-.5.1-.8Z" fill="#fff"/><path d="M343.6,300.5c.4-.1.9-.2,1.1-.4a13.3,13.3,0,0,0,1.5-2.1,23.6,23.6,0,0,1,1-2.2c.4-.6,1.1-.6,1.7.2l-.8.5a8.1,8.1,0,0,0-1.1,1.5c-.5.9-.7,1.8-1.3,2.7S344.8,301.8,343.6,300.5Z" fill="#fff"/><path d="M340.4,109.3c-.2,1.3-.3,2.4-.5,3.6s-.5.6-.8.9a3.5,3.5,0,0,1-.6-.9,6.2,6.2,0,0,1-.1-1.5C338.4,109.9,338.8,109.5,340.4,109.3Z" fill="#fff"/><path d="M137.1,115.3l-.6.2-.9.5a3.9,3.9,0,0,1-.3-1.2c.2-1.7.4-3.4.6-5.1h.5a4.3,4.3,0,0,1,.2,1.1,22.2,22.2,0,0,0-.3,2.5A7.9,7.9,0,0,0,137.1,115.3Z" fill="#fff"/><path d="M258.2,297.8l1.3,1.7c.1.1.1.5,0,.5s-1.1,1.5-1.3,2.4l-.3.2c-.6-.6,1-2.4-1.4-2.1Z" fill="#fff"/><path d="M340.5,104.1a11.1,11.1,0,0,1-.6,2.5c-.2.3-.9.4-1.3.6a3.3,3.3,0,0,1-.2-1.2C338.6,104.8,339,104.4,340.5,104.1Z" fill="#fff"/><path d="M295.2,403c1.7,0,.2-2,1.5-2.5l.5,3.2-.8,1.9Z" fill="#fff"/><path d="M292,404.8h2.5v.3a15.3,15.3,0,0,1-2.3.6c-.2,0-.7-.5-.7-.8s0-2,0-3.1,0,2.3,2.1,1.4Z" fill="#fff"/><path d="M136.7,105.1a8.5,8.5,0,0,1,.7,2.1c0,.5-.4.9-.6,1.4s-.7-.6-.9-1A2.2,2.2,0,0,1,136.7,105.1Z" fill="#fff"/><path d="M19.5,161.7a5.7,5.7,0,0,1-.4-1.4,2.3,2.3,0,0,1,.4-1s.5.1.6.2a2.4,2.4,0,0,1,.4,1.2,3,3,0,0,1-.5,1Z" fill="#fff"/><path d="M350.8,280.2c.4,1.2-1.1,1.1-1.1,2l-.4-.3,1.1-2Z" fill="#fff"/><path d="M160.3,158.4l-1.1.6c-.1,0-.5-.5-.4-.6a1.5,1.5,0,0,1,.7-.7C159.6,157.7,159.9,158.1,160.3,158.4Z" fill="#fff"/><path d="M241.4,185.1a6.4,6.4,0,0,1,0-1.3,1.3,1.3,0,0,1,.5-.8,5.1,5.1,0,0,1,4.9.7,1.6,1.6,0,0,1,.4.8,24.7,24.7,0,0,1,.3,2.6c0,.3-.2.7-.4.7a40.2,40.2,0,0,1-4.5.9c-.3,0-1-.6-1.1-1a16.7,16.7,0,0,1-.3-2.7Zm1.3-1.1c-.7.7-.9,2.6-.2,3.4s1.3.2,2,.3a7,7,0,0,0,1.1-.3c.9-.2,1.1-.8,1-1.6s-1-1.3-2.3-1.1h-2Z" fill="#fff"/></svg>