<svg id="Layer_1" data-name="Layer 1" xmlns="http://www.w3.org/2000/svg" width="4.5in" height="4.3in" viewBox="0 0 325.6 309.1"><title>Artboard 1</title><path d="M89.8,277.9,78.5,176.4l11.2-1.2,10.2,92,18-2,1,9.4Z" fill="#fff"/><path d="M132.1,273.9l-4.7-102,11.3-.5,4.7,102Z" fill="#fff"/><path d="M160.1,272.9l2.1-102,32.2.7-.2,9.4-20.9-.4-.8,41.5,17.5.4-.2,9.6-17.5-.4-.8,41.5Z" fill="#fff"/><path d="M213.7,275.4l9.6-92-12.2-1.3,1-9.5,35.7,3.7-1,9.5-12.2-1.3-9.6,92Z" fill="#fff"/><path d="M91.3,150.5a15.4,15.4,0,0,1-16.9-13.8L62.8,20.6A15.3,15.3,0,0,1,76.5,3.8l23.8-2.4a15.4,15.4,0,0,1,16.8,13.8l2.3,23-16,1.6-2.5-24.9L78.5,17l5.1,51,23.2-2.3a15.4,15.4,0,0,1,16.9,13.8l5.2,51.8a15.6,15.6,0,0,1-13.8,16.9ZM108,79,85,81.3l5.6,55.8,23-2.3Z" fill="#fff"/><path d="M156.7,144.8,160.6,16l-14.5,6.6-6-12.1L161.1,0l16,.5-4.4,144.8Z" fill="#fff"/><path d="M209.9,148.3a15.4,15.4,0,0,1-13.6-17l2.7-24.7,15.9,1.8L212,135l21.8,2.4,6-54-22.7-2.5,1.7-15.3L240.3,68l5.5-49.4-21.4-2.4-2.8,24.9-15.9-1.8,2.5-22.9a15.3,15.3,0,0,1,17-13.6l22.7,2.5a15.4,15.4,0,0,1,13.6,17l-4.9,44.3c-.8,7.2-7.9,9.5-9.7,9.8,1.9.9,9.4,4.6,8.6,11.8L250,137.2a15.6,15.6,0,0,1-17,13.6Z" fill="#fff"/><path d="M146.7,309.1v-23h2.6V307h4.1v2.1Z" fill="#fff"/><path d="M156.5,309.1V294h-2.2v-2.2h2.2V288H159v3.8h2.7V294H159v15.1Z" fill="#fff"/><path d="M165.7,309.1a2.5,2.5,0,0,1-2.5-2.5V294.3a2.5,2.5,0,0,1,2.5-2.5h1.8a2.3,2.3,0,0,1,1.8.7v-7.3h2.5v23.9Zm3.6-15.1h-3.5V307h3.5Z" fill="#fff"/><path d="M174.7,309.1v-3.5h2.8v3.5Z" fill="#fff"/><rect x="221.3" y="162.8" width="95.9" height="12.49" transform="translate(59 407.5) rotate(-80.7)" fill="#ed1c24"/><rect x="237.9" y="165.5" width="95.9" height="12.49" transform="matrix(0.16, -0.99, 0.99, 0.16, 70.15, 426.08)" fill="#ed1c24"/><rect x="254.4" y="168.2" width="95.9" height="12.49" transform="translate(81.3 444.7) rotate(-80.7)" fill="#ed1c24"/><rect x="310.5" y="170.7" width="15.4" height="12.49" transform="translate(92.1 462.4) rotate(-80.7)" fill="#ed1c24"/><path d="M259.9,161.9l-1.7,9.8a543.1,543.1,0,0,0-190.8,0l-1.7-9.9a553.3,553.3,0,0,1,194.1.1Z" fill="#ed1c24"/><rect x="50.1" y="121.1" width="12.5" height="95.9" transform="translate(-26.6 11.3) rotate(-9.3)" fill="#ed1c24"/><rect x="33.5" y="123.8" width="12.5" height="95.9" transform="translate(-27.2 8.7) rotate(-9.3)" fill="#ed1c24"/><rect x="17" y="126.5" width="12.5" height="95.9" transform="translate(-27.9 6) rotate(-9.3)" fill="#ed1c24"/><rect x="1.2" y="169.3" width="12.5" height="15.39" transform="translate(-28.5 3.5) rotate(-9.3)" fill="#ed1c24"/></svg>