<?xml version="1.0" encoding="utf-8"?>
<!-- Generator: Adobe Illustrator 21.1.0, SVG Export Plug-In . SVG Version: 6.00 Build 0)  -->
<svg version="1.1" id="Layer_1" xmlns="http://www.w3.org/2000/svg" xmlns:xlink="http://www.w3.org/1999/xlink" x="0px" y="0px"
	 viewBox="0 0 324 309.6" style="enable-background:new 0 0 324 309.6;" xml:space="preserve">
<style type="text/css">
	.st0{fill:#FFFFFF;}
	.st1{fill:#231F20;}
</style>
<title>Artboard 1</title>
<path class="st0" d="M89.4,277.5l-11.2-101l11.1-1.2l10.1,91.5l17.9-2l1,9.4L89.4,277.5z"/>
<path class="st0" d="M131.5,273.6l-4.7-101.5l11.2-0.5l4.7,101.5L131.5,273.6z"/>
<path class="st0" d="M159.3,272.6l2.1-101.5l32,0.7l-0.2,9.4l-20.8-0.4l-0.8,41.3l17.4,0.4l-0.2,9.6l-17.4-0.4l-0.8,41.3
	L159.3,272.6z"/>
<path class="st0" d="M212.6,275.1l9.6-91.5l-12.1-1.3l1-9.5l35.5,3.7l-1,9.5l-12.1-1.3l-9.6,91.5L212.6,275.1z"/>
<path class="st0" d="M90.9,150.8c-8.4,0.9-15.9-5.3-16.8-13.7c0,0,0,0,0-0.1L62.5,21.5c-0.9-8.4,5.2-15.8,13.6-16.7c0,0,0,0,0.1,0
	l23.7-2.4c8.4-0.8,15.9,5.3,16.7,13.7l2.3,22.9l-15.9,1.6l-2.5-24.8l-22.3,2.1l5.1,50.7l23.1-2.3c8.4-0.9,15.9,5.3,16.8,13.7
	c0,0,0,0,0,0.1l5.2,51.5c0.8,8.4-5.3,15.9-13.7,16.8L90.9,150.8z M107.5,79.6l-22.9,2.3l5.6,55.5l22.9-2.3L107.5,79.6z"/>
<path class="st0" d="M155.9,145.1l3.9-128.2l-14.4,6.6l-6-12L160.3,1l15.9,0.5l-4.4,144.1L155.9,145.1z"/>
<path class="st0" d="M208.9,148.6c-8.4-0.9-14.5-8.5-13.5-16.9l2.7-24.6l15.8,1.8l-2.9,26.5l21.7,2.4l6-53.7L216,81.5l1.7-15.2
	l21.4,2.4l5.5-49.2l-21.3-2.4l-2.8,24.8l-15.8-1.8l2.5-22.8c0.9-8.4,8.4-14.4,16.7-13.6c0.1,0,0.1,0,0.2,0l22.6,2.5
	c8.4,0.9,14.5,8.5,13.5,16.9l-4.9,44.1c-0.8,7.2-7.9,9.5-9.7,9.8c1.9,0.9,9.4,4.6,8.6,11.7l-5.5,48.8c-1,8.4-8.5,14.4-16.9,13.5
	L208.9,148.6z"/>
<path class="st0" d="M146,308.6v-22.9h2.6v20.8h4.1v2.1H146z"/>
<path class="st0" d="M155.7,308.6v-15h-2.2v-2.2h2.2v-3.8h2.5v3.8h2.7v2.2h-2.7v15H155.7z"/>
<path class="st0" d="M164.9,308.6c-1.4,0-2.5-1.1-2.5-2.5v-12.2c0-1.4,1.1-2.5,2.5-2.5h1.8c0.7,0,1.3,0.2,1.8,0.7v-7.3h2.5v23.8
	H164.9z M168.5,293.6H165v12.9h3.5V293.6z"/>
<path class="st0" d="M173.8,308.6v-3.5h2.8v3.5H173.8z"/>
<rect x="220.3" y="163.1" transform="matrix(0.1616 -0.9869 0.9869 0.1616 57.6389 406.4171)" class="st1" width="95.4" height="12.4"/>
<rect x="236.7" y="165.7" transform="matrix(0.1595 -0.9872 0.9872 0.1595 69.4195 425.3564)" class="st1" width="95.7" height="12.5"/>
<rect x="253.1" y="168.5" transform="matrix(0.1616 -0.9869 0.9869 0.1616 79.8413 443.3134)" class="st1" width="95.4" height="12.4"/>
<rect x="308.9" y="170.9" transform="matrix(0.1616 -0.9869 0.9869 0.1616 90.6287 460.9114)" class="st1" width="15.3" height="12.4"/>
<path class="st1" d="M258.6,162.1l-1.7,9.8c-62.8-11.2-127.1-11.2-189.9,0l-1.7-9.9C129.3,150.7,194.7,150.7,258.6,162.1
	L258.6,162.1z"/>
<rect x="49.8" y="121.5" transform="matrix(0.9869 -0.1616 0.1616 0.9869 -26.6067 11.2822)" class="st1" width="12.4" height="95.4"/>
<rect x="33.4" y="124.2" transform="matrix(0.9869 -0.1616 0.1616 0.9869 -27.2649 8.6574)" class="st1" width="12.4" height="95.4"/>
<rect x="16.9" y="126.8" transform="matrix(0.9869 -0.1616 0.1616 0.9869 -27.9044 6.031)" class="st1" width="12.4" height="95.4"/>
<rect x="1.2" y="169.4" transform="matrix(0.9869 -0.1616 0.1616 0.9869 -28.5232 3.5268)" class="st1" width="12.4" height="15.3"/>
</svg>
