<?xml version="1.0" encoding="utf-8"?>
<!-- Generator: Adobe Illustrator 21.1.0, SVG Export Plug-In . SVG Version: 6.00 Build 0)  -->
<svg version="1.1" id="Layer_1" xmlns="http://www.w3.org/2000/svg" xmlns:xlink="http://www.w3.org/1999/xlink" x="0px" y="0px"
	 viewBox="0 0 619.2 626.4" style="enable-background:new 0 0 619.2 626.4;" xml:space="preserve">
<style type="text/css">
	.st0{fill:#231F20;}
	.st1{fill:#ED1C24;}
	.st2{opacity:0.2;}
	.st3{fill:none;stroke:#ED1C24;stroke-width:2;stroke-miterlimit:10;}
	.st4{fill:none;stroke:#ED1C24;stroke-width:2;stroke-miterlimit:10;stroke-dasharray:11.9502,11.9502;}
	.st5{fill:none;stroke:#ED1C24;stroke-width:2;stroke-miterlimit:10;stroke-dasharray:12.1446,12.1446;}
	.st6{fill:none;stroke:#ED1C24;stroke-width:2;stroke-miterlimit:10;stroke-dasharray:12.276,12.276;}
	.st7{fill:none;stroke:#ED1C24;stroke-width:2;stroke-miterlimit:10;stroke-dasharray:11.9837,11.9837;}
	.st8{fill:#1C1A1A;}
	.st9{clip-path:url(#SVGID_2_);}
	.st10{clip-path:url(#SVGID_4_);}
	.st11{clip-path:url(#SVGID_4_);fill:#FFFFFF;}
	.st12{fill:#FFFFFF;}
</style>
<g>
	<path id="path3707_2_" class="st0" d="M1556.7,104.2c27.9,0,50.4-22.6,50.4-50.4s-22.6-50.4-50.4-50.4c-27.9,0-50.4,22.6-50.4,50.4
		c-0.1,27.8,22.3,50.3,50,50.4C1556.5,104.2,1556.6,104.2,1556.7,104.2z"/>
	<path class="st0" d="M1605.6,188.5l68.5,235.4h-63.2v176.7c-0.1,31.6-47.5,31.5-47.5,0V424h-14.1v176.6c0.1,31.6-47.5,31.6-47.5,0
		V424h-63.1l68.1-235.5c0,0-43.1-29.9-47.2-43.9c0,0-44.8-148.2-45.1-149.6c14.2-2,28.5-3.7,42.8-5.1l27.7,93.4
		c6.6,21,26,35.4,48.1,35.4h46.9c22.1,0,41.6-14.3,48.2-35.3l27.8-93.4c14.3,1.4,28.5,3.1,42.6,5.1c-0.2,1.3-45,149.5-45,149.5
		C1648.7,158.4,1605.6,188.5,1605.6,188.5z"/>
</g>
<title>Artboard 1</title>
<path class="st0" d="M304.8,362v231c-0.1,39.5-58.4,40.7-58.3,0V363.8C265.8,362.7,285.3,362,304.8,362z"/>
<path class="st0" d="M373.1,363.9V593c0.2,40.7-58.4,39.5-58.3,0V362C334.3,362.1,353.7,362.8,373.1,363.9z"/>
<path class="st0" d="M426.9,185.1v148.1c-14.4-1.6-28.8-2.9-43.3-3.9V197.5h-10.4v131.1c-21.2-1.3-42.5-1.9-63.8-1.9
	c-21.3,0-42.3,0.6-62.9,1.9V197.5H236v131.7c-14.6,1-29.2,2.3-43.7,4V184.4c-0.2-36.7,28.4-66.1,63.9-66.1h105.7
	C401,118.4,426.9,151.4,426.9,185.1z"/>
<path id="path3713" class="st0" d="M309.3,104.1c27.9,0,50.4-22.6,50.4-50.4S337.1,3.3,309.3,3.3c-27.9,0-50.4,22.6-50.4,50.4
	c-0.2,27.7,22.2,50.3,49.8,50.4C308.9,104.1,309.1,104.1,309.3,104.1z"/>
<polygon class="st1" points="538.5,276.7 509.1,456.7 485.7,452.9 515.1,272.9 "/>
<rect x="452.4" y="358.1" transform="matrix(0.1616 -0.9869 0.9869 0.1616 90.5678 846.6098)" class="st1" width="182.4" height="23.8"/>
<rect x="483.8" y="363.3" transform="matrix(0.1616 -0.9869 0.9869 0.1616 111.8985 881.9777)" class="st1" width="182.4" height="23.8"/>
<rect x="590.6" y="368.2" transform="matrix(0.1616 -0.9869 0.9869 0.1616 132.3622 915.8625)" class="st1" width="29.3" height="23.8"/>
<path class="st1" d="M494.2,351.2l-3.2,18.7c-24.2-4.3-48.6-7.8-73.2-10.3c-9.4-1-18.8-1.9-28.3-2.6l-16.4-1.2
	c-21.2-1.3-42.4-2-63.8-2c-21.4,0-42.3,0.6-62.8,1.9l-16.7,1.2c-9.5,0.7-18.9,1.6-28.3,2.6c-24.6,2.6-49,6-73.2,10.3l-3.2-18.8
	c22.2-4,44.6-7.2,67.3-9.8c14.5-1.6,29.1-2.9,43.7-4l10.4-0.7c20.8-1.3,41.8-1.9,62.8-1.9c21,0,42.3,0.6,63.8,1.9l10.4,0.7
	c14.5,1,29,2.3,43.3,4C449.5,343.9,471.9,347.2,494.2,351.2z"/>
<polygon class="st1" points="133.5,452.9 110.1,456.7 80.7,276.7 104.1,272.9 "/>
<rect x="63.8" y="278.7" transform="matrix(0.9869 -0.1616 0.1616 0.9869 -58.7854 17.1004)" class="st1" width="23.8" height="182.4"/>
<rect x="32.4" y="284" transform="matrix(0.9869 -0.1616 0.1616 0.9869 -60.0416 12.0806)" class="st1" width="23.8" height="182.4"/>
<rect x="2.3" y="365.3" transform="matrix(0.9869 -0.1616 0.1616 0.9869 -61.2094 7.2823)" class="st1" width="23.8" height="29.3"/>
<g>
	<polygon class="st0" points="2387.7,542 2207.7,512.6 2211.5,489.2 2391.5,518.6 	"/>
	
		<rect x="2282.5" y="455.9" transform="matrix(0.1616 -0.9869 0.9869 0.1616 1383.7299 2722.9001)" class="st0" width="23.8" height="182.4"/>
	
		<rect x="2277.4" y="487.4" transform="matrix(0.1616 -0.9869 0.9869 0.1616 1348.3619 2744.2307)" class="st0" width="23.8" height="182.4"/>
	
		<rect x="2272.5" y="594.1" transform="matrix(0.1616 -0.9869 0.9869 0.1616 1314.4772 2764.6943)" class="st0" width="23.8" height="29.3"/>
	<path class="st0" d="M2313.2,497.8l-18.7-3.2c4.3-24.2,7.8-48.6,10.3-73.2c1-9.4,1.9-18.8,2.6-28.3l1.2-16.4
		c1.3-21.2,2-42.4,2-63.8c0-21.4-0.6-42.3-1.9-62.8l-1.2-16.7c-0.7-9.5-1.6-18.9-2.6-28.3c-2.6-24.6-6-49-10.3-73.2l18.8-3.2
		c4,22.2,7.2,44.6,9.8,67.3c1.6,14.5,2.9,29.1,4,43.7l0.7,10.4c1.3,20.8,1.9,41.8,1.9,62.8s-0.6,42.3-1.9,63.8l-0.7,10.4
		c-1,14.5-2.3,29-4,43.3C2320.5,453,2317.2,475.5,2313.2,497.8z"/>
	<polygon class="st0" points="2211.5,137.1 2207.7,113.7 2387.7,84.2 2391.5,107.6 	"/>
	
		<rect x="2203.3" y="67.4" transform="matrix(0.9869 -0.1616 0.1616 0.9869 17.3512 371.8377)" class="st0" width="182.4" height="23.8"/>
	
		<rect x="2198.1" y="35.9" transform="matrix(0.9869 -0.1616 0.1616 0.9869 22.3711 370.5815)" class="st0" width="182.4" height="23.8"/>
	
		<rect x="2269.8" y="5.8" transform="matrix(0.9869 -0.1616 0.1616 0.9869 27.1693 369.4137)" class="st0" width="29.3" height="23.8"/>
</g>
<g class="st2">
	<path class="st1" d="M-202.8,198c-3.7,0-6.6,0-10.2,0c0,2.1,0,4,0,5.8c0,128.5,0,257,0,385.5c0,8.7-1,16.9-7,23.8
		c-7.9,9.1-21.3,12.3-33.8,8c-11.2-3.9-18.8-14-19-26.2c-0.3-15-0.1-30-0.1-45.1c0-60.2,0-120.5,0-180.7c0-1.6,0-3.2,0-5.1
		c-3.4,0-6.5,0-10.3,0c0,2,0,4.1,0,6.1c0,74,0,148,0,222c0,12-4.3,21.7-15.2,27.3c-10.9,5.6-21.9,5.2-32.3-1.6
		c-8-5.2-11.3-13.2-12-22.4c-0.1-1.6,0-3.2,0-4.8c0-129,0-257.9,0-386.9c0-1.7,0-3.5,0-5.5c-3.5,0-6.6,0-10.6,0c0,1.8,0,3.6,0,5.5
		c0,45.9,0,91.7,0,137.6c0,11.4-5.2,19.3-14.4,22.5c-15.7,5.3-30-4.9-30.4-21.7c-0.2-9.1,0-18.2,0-27.3c0-42.8,0-85.7,0-128.5
		c0-34.1,21.7-61.4,53.7-67.5c4.2-0.8,8.6-1.1,12.9-1.1c34.7-0.1,69.4,0,104,0c39.8,0,69,28.2,69.3,68.1
		c0.5,51.8,0.2,103.6,0.1,155.3c0,18.7-16.3,29.6-32.3,21.9c-9-4.3-12.3-12.1-12.3-21.6c0-33.1,0-66.2,0-99.2
		C-202.8,227.4-202.8,212.9-202.8,198z"/>
	<path class="st1" d="M-277.7,106.1c-27.9,0.4-51.2-22.7-51.4-51c-0.2-28.1,22.6-51.5,50.7-51.8c28.1-0.4,51.5,22.5,51.8,50.6
		C-226.3,82.8-248.7,105.7-277.7,106.1z"/>
</g>
<g>
	<path class="st0" d="M2052.9,198c-3.7,0-6.6,0-10.2,0c0,2.1,0,4,0,5.8c0,128.5,0,257,0,385.5c0,8.7-1,16.9-7,23.8
		c-7.9,9.1-21.3,12.3-33.8,8c-11.2-3.9-18.8-14-19-26.2c-0.3-15-0.1-30-0.1-45.1c0-60.2,0-120.5,0-180.7c0-1.6,0-3.2,0-5.1
		c-3.4,0-6.5,0-10.3,0c0,2,0,4.1,0,6.1c0,74,0,148,0,222c0,12-4.3,21.7-15.2,27.3c-10.9,5.6-21.9,5.2-32.3-1.6
		c-8-5.2-11.3-13.2-12-22.4c-0.1-1.6,0-3.2,0-4.8c0-129,0-257.9,0-386.9c0-1.7,0-3.5,0-5.5c-3.5,0-6.6,0-10.6,0c0,1.8,0,3.6,0,5.5
		c0,45.9,0,91.7,0,137.6c0,11.4-5.2,19.3-14.4,22.5c-15.7,5.3-30-4.9-30.4-21.7c-0.2-9.1,0-18.2,0-27.3c0-42.8,0-85.7,0-128.5
		c0-34.1,21.7-61.4,53.7-67.5c4.2-0.8,8.6-1.1,12.9-1.1c34.7-0.1,69.4,0,104,0c39.8,0,69,28.2,69.3,68.1
		c0.5,51.8,0.2,103.6,0.1,155.3c0,18.7-16.3,29.6-32.3,21.9c-9-4.3-12.3-12.1-12.3-21.6c0-33.1,0-66.2,0-99.2
		C2052.9,227.4,2052.9,212.9,2052.9,198z"/>
	<path class="st0" d="M1977.9,106.1c-27.9,0.4-51.2-22.7-51.4-51c-0.2-28.1,22.6-51.5,50.7-51.8c28.1-0.4,51.5,22.5,51.8,50.6
		C2029.3,82.8,2007,105.7,1977.9,106.1z"/>
</g>
<g>
	<g>
		<line class="st3" x1="1297.5" y1="3.6" x2="1303.5" y2="3.6"/>
		<line class="st4" x1="1315.5" y1="3.6" x2="2504.5" y2="3.6"/>
		<line class="st3" x1="2510.5" y1="3.6" x2="2516.5" y2="3.6"/>
	</g>
</g>
<g>
	<g>
		<line class="st3" x1="1297.5" y1="118.8" x2="1303.5" y2="118.8"/>
		<line class="st5" x1="1315.7" y1="118.8" x2="2135.4" y2="118.8"/>
		<line class="st3" x1="2141.5" y1="118.8" x2="2147.5" y2="118.8"/>
	</g>
</g>
<g>
	<g>
		<line class="st3" x1="1297.5" y1="104.2" x2="1303.5" y2="104.2"/>
		<line class="st5" x1="1315.7" y1="104.2" x2="2135.4" y2="104.2"/>
		<line class="st3" x1="2141.5" y1="104.2" x2="2147.5" y2="104.2"/>
	</g>
</g>
<g>
	<g>
		<line class="st3" x1="1297.5" y1="-10" x2="1303.5" y2="-10"/>
		<line class="st6" x1="1315.8" y1="-10" x2="1800.7" y2="-10"/>
		<line class="st3" x1="1806.9" y1="-10" x2="1812.9" y2="-10"/>
	</g>
</g>
<g>
	<g>
		<line class="st3" x1="1297.5" y1="622.8" x2="1303.5" y2="622.8"/>
		<line class="st4" x1="1315.5" y1="622.8" x2="2504.5" y2="622.8"/>
		<line class="st3" x1="2510.5" y1="622.8" x2="2516.5" y2="622.8"/>
	</g>
</g>
<g>
	<path id="path3707_4_" class="st0" d="M1556.7-722.3c27.9,0,50.4-22.6,50.4-50.4c0-27.9-22.6-50.4-50.4-50.4
		c-27.9,0-50.4,22.6-50.4,50.4c-0.1,27.8,22.3,50.3,50,50.4C1556.5-722.3,1556.6-722.3,1556.7-722.3z"/>
	<path class="st0" d="M1605.6-638.1l68.5,235.4h-63.2v176.7c-0.1,31.6-47.5,31.5-47.5,0v-176.6h-14.1v176.6
		c0.1,31.6-47.5,31.6-47.5,0v-176.6h-63.1l68.1-235.5c0,0-43.1-29.9-47.2-43.9c0,0-44.8-148.2-45.1-149.6c14.2-2,28.5-3.7,42.8-5.1
		l27.7,93.4c6.6,21,26,35.4,48.1,35.4h46.9c22.1,0,41.6-14.3,48.2-35.3l27.8-93.4c14.3,1.4,28.5,3.1,42.6,5.1
		c-0.2,1.3-45,149.5-45,149.5C1648.7-668.1,1605.6-638.1,1605.6-638.1z"/>
</g>
<g>
	<polygon class="st0" points="2387.7,-284.5 2207.7,-314 2211.5,-337.4 2391.5,-307.9 	"/>
	
		<rect x="2282.5" y="-370.7" transform="matrix(0.1616 -0.9869 0.9869 0.1616 2199.417 2029.9225)" class="st0" width="23.8" height="182.4"/>
	
		<rect x="2277.4" y="-339.2" transform="matrix(0.1616 -0.9869 0.9869 0.1616 2164.0491 2051.2532)" class="st0" width="23.8" height="182.4"/>
	
		<rect x="2272.5" y="-232.5" transform="matrix(0.1616 -0.9869 0.9869 0.1616 2130.1641 2071.7168)" class="st0" width="23.8" height="29.3"/>
	<path class="st0" d="M2313.2-328.8l-18.7-3.2c4.3-24.2,7.8-48.6,10.3-73.2c1-9.4,1.9-18.8,2.6-28.3l1.2-16.4
		c1.3-21.2,2-42.4,2-63.8s-0.6-42.3-1.9-62.8l-1.2-16.7c-0.7-9.5-1.6-18.9-2.6-28.3c-2.6-24.6-6-49-10.3-73.2l18.8-3.2
		c4,22.2,7.2,44.6,9.8,67.3c1.6,14.5,2.9,29.1,4,43.7l0.7,10.4c1.3,20.8,1.9,41.8,1.9,62.8c0,21-0.6,42.3-1.9,63.8l-0.7,10.4
		c-1,14.5-2.3,29-4,43.3C2320.5-373.5,2317.2-351.1,2313.2-328.8z"/>
	<polygon class="st0" points="2211.5,-689.5 2207.7,-712.9 2387.7,-742.3 2391.5,-718.9 	"/>
	
		<rect x="2203.3" y="-759.2" transform="matrix(0.9869 -0.1616 0.1616 0.9869 150.9251 360.9733)" class="st0" width="182.4" height="23.8"/>
	
		<rect x="2198.1" y="-790.7" transform="matrix(0.9869 -0.1616 0.1616 0.9869 155.945 359.7171)" class="st0" width="182.4" height="23.8"/>
	
		<rect x="2269.8" y="-820.8" transform="matrix(0.9869 -0.1616 0.1616 0.9869 160.7432 358.5493)" class="st0" width="29.3" height="23.8"/>
</g>
<g>
	<path class="st0" d="M2052.9-628.6c-3.7,0-6.6,0-10.2,0c0,2.1,0,4,0,5.8c0,128.5,0,257,0,385.5c0,8.7-1,16.9-7,23.8
		c-7.9,9.1-21.3,12.3-33.8,8c-11.2-3.9-18.8-14-19-26.2c-0.3-15-0.1-30-0.1-45.1c0-60.2,0-120.5,0-180.7c0-1.6,0-3.2,0-5.1
		c-3.4,0-6.5,0-10.3,0c0,2,0,4.1,0,6.1c0,74,0,148,0,222c0,12-4.3,21.7-15.2,27.3c-10.9,5.6-21.9,5.2-32.3-1.6
		c-8-5.2-11.3-13.2-12-22.4c-0.1-1.6,0-3.2,0-4.8c0-129,0-257.9,0-386.9c0-1.7,0-3.5,0-5.5c-3.5,0-6.6,0-10.6,0c0,1.8,0,3.6,0,5.5
		c0,45.9,0,91.7,0,137.6c0,11.4-5.2,19.3-14.4,22.5c-15.7,5.3-30-4.9-30.4-21.7c-0.2-9.1,0-18.2,0-27.3c0-42.8,0-85.7,0-128.5
		c0-34.1,21.7-61.4,53.7-67.5c4.2-0.8,8.6-1.1,12.9-1.1c34.7-0.1,69.4,0,104,0c39.8,0,69,28.2,69.3,68.1
		c0.5,51.8,0.2,103.6,0.1,155.3c0,18.7-16.3,29.6-32.3,21.9c-9-4.3-12.3-12.1-12.3-21.6c0-33.1,0-66.2,0-99.2
		C2052.9-599.1,2052.9-613.7,2052.9-628.6z"/>
	<path class="st0" d="M1977.9-720.5c-27.9,0.4-51.2-22.7-51.4-51c-0.2-28.1,22.6-51.5,50.7-51.8c28.1-0.4,51.5,22.5,51.8,50.6
		C2029.3-743.7,2007-720.9,1977.9-720.5z"/>
</g>
<g>
	<g>
		<line class="st3" x1="1198.3" y1="-823" x2="1204.3" y2="-823"/>
		<line class="st7" x1="1216.3" y1="-823" x2="2504.5" y2="-823"/>
		<line class="st3" x1="2510.5" y1="-823" x2="2516.5" y2="-823"/>
	</g>
</g>
<g>
	<g>
		<line class="st3" x1="1198.3" y1="-203.7" x2="1204.3" y2="-203.7"/>
		<line class="st7" x1="1216.3" y1="-203.7" x2="2504.5" y2="-203.7"/>
		<line class="st3" x1="2510.5" y1="-203.7" x2="2516.5" y2="-203.7"/>
	</g>
</g>
<g>
	<title>Artboard 1</title>
	<polygon class="st1" points="-1042,149.1 -1065.4,152.9 -1094.9,-27 -1071.5,-30.9 	"/>
	<path id="path3707_1_" class="st0" d="M-865.7,177.2c27.9,0,50.4-22.6,50.4-50.4s-22.6-50.4-50.4-50.4c-27.9,0-50.4,22.6-50.4,50.4
		c-0.1,27.8,22.3,50.3,50,50.4C-866,177.2-865.8,177.2-865.7,177.2z"/>
	<path class="st0" d="M-816.9,261.4l68.5,235.4h-63.2v176.7c-0.1,31.6-47.5,31.5-47.5,0V497h-14.1v176.6c0.1,31.6-47.5,31.6-47.5,0
		V497h-63.1l68.1-235.5c0,0-43.1-29.9-47.2-43.9c0,0-44.8-148.2-45.1-149.6c14.2-2,28.5-3.7,42.8-5.1l27.7,93.4
		c6.6,21,26,35.4,48.1,35.4h46.9c22.1,0,41.6-14.3,48.2-35.3l27.8-93.4c14.3,1.4,28.5,3.1,42.6,5.1c-0.2,1.3-45,149.5-45,149.5
		C-773.8,231.4-816.9,261.4-816.9,261.4z"/>
	<polygon class="st1" points="-637.1,-27 -666.5,152.9 -689.9,149.1 -660.4,-30.9 	"/>
	
		<rect x="-723.1" y="54.3" transform="matrix(0.1616 -0.9869 0.9869 0.1616 -595.1588 -568.1395)" class="st1" width="182.4" height="23.8"/>
	
		<rect x="-691.7" y="59.5" transform="matrix(0.1616 -0.9869 0.9869 0.1616 -573.828 -532.7716)" class="st1" width="182.4" height="23.8"/>
	
		<rect x="-585" y="64.3" transform="matrix(0.1616 -0.9869 0.9869 0.1616 -553.3495 -499.0684)" class="st1" width="29.3" height="23.8"/>
	<path class="st1" d="M-681.3,47.4l-3.2,18.7c-13.1-2.3-26.2-4.4-39.4-6.3c-13.2-1.9-26.6-3.4-40.1-4.8
		c-33.8-3.4-67.8-5.1-102.2-5.1c-34.4,0-68.2,1.7-101.5,5c-13.5,1.3-26.9,2.9-40.3,4.8c-13.4,1.9-26.5,3.9-39.3,6.3l-3.2-18.8
		C-928.4,25.5-803.4,25.5-681.3,47.4L-681.3,47.4z"/>
	
		<rect x="-1111.8" y="-25" transform="matrix(0.9869 -0.1616 0.1616 0.9869 -25.1526 -176.882)" class="st1" width="23.8" height="182.4"/>
	
		<rect x="-1143.2" y="-19.9" transform="matrix(0.9869 -0.1616 0.1616 0.9869 -26.3914 -181.8871)" class="st1" width="23.8" height="182.4"/>
	
		<rect x="-1173.4" y="61.4" transform="matrix(0.9869 -0.1616 0.1616 0.9869 -27.5605 -186.7015)" class="st1" width="23.8" height="29.3"/>
</g>
<g>
	<title>Artboard 1</title>
	<polygon class="st1" points="1431.1,973.8 1407.7,977.5 1378.3,797.6 1401.6,793.8 	"/>
	<path id="path3707_3_" class="st0" d="M1607.4,1001.8c27.9,0,50.4-22.6,50.4-50.4s-22.6-50.4-50.4-50.4s-50.4,22.6-50.4,50.4
		c-0.1,27.8,22.3,50.3,50,50.4C1607.2,1001.8,1607.3,1001.8,1607.4,1001.8z"/>
	<path class="st0" d="M1656.3,1086.1l68.5,235.4h-63.2v176.7c-0.1,31.6-47.5,31.5-47.5,0v-176.6H1600v176.6
		c0.1,31.6-47.5,31.6-47.5,0v-176.6h-63.1l68.1-235.5c0,0-43.1-29.9-47.2-43.9c0,0-44.8-148.2-45.1-149.6c14.2-2,28.5-3.7,42.8-5.1
		l27.7,93.4c6.6,21,26,35.4,48.1,35.4h46.9c22.1,0,41.6-14.3,48.2-35.3l27.8-93.4c14.3,1.4,28.5,3.1,42.6,5.1
		c-0.2,1.3-45,149.5-45,149.5C1699.4,1056,1656.3,1086.1,1656.3,1086.1z"/>
	<polygon class="st1" points="1836.1,797.6 1806.6,977.5 1783.2,973.8 1812.7,793.8 	"/>
	
		<rect x="1750" y="879" transform="matrix(0.1616 -0.9869 0.9869 0.1616 664.4775 2563.8748)" class="st1" width="182.4" height="23.8"/>
	
		<rect x="1781.5" y="884.1" transform="matrix(0.1616 -0.9869 0.9869 0.1616 685.8082 2599.2429)" class="st1" width="182.4" height="23.8"/>
	
		<rect x="1888.1" y="888.9" transform="matrix(0.1616 -0.9869 0.9869 0.1616 706.2867 2632.946)" class="st1" width="29.3" height="23.8"/>
	<path class="st1" d="M1791.8,872.1l-3.2,18.7c-13.1-2.3-26.2-4.4-39.4-6.3s-26.6-3.4-40.1-4.8c-33.8-3.4-67.8-5.1-102.2-5.1
		c-34.4,0-68.2,1.7-101.5,5c-13.5,1.3-26.9,2.9-40.3,4.8c-13.4,1.9-26.5,3.9-39.3,6.3l-3.2-18.8
		C1544.7,850.1,1669.7,850.2,1791.8,872.1L1791.8,872.1z"/>
	
		<rect x="1361.3" y="799.7" transform="matrix(0.9869 -0.1616 0.1616 0.9869 -125.9139 233.6244)" class="st1" width="23.8" height="182.4"/>
	
		<rect x="1329.9" y="804.8" transform="matrix(0.9869 -0.1616 0.1616 0.9869 -127.1527 228.6193)" class="st1" width="23.8" height="182.4"/>
	
		<rect x="1299.7" y="886.1" transform="matrix(0.9869 -0.1616 0.1616 0.9869 -128.3219 223.8049)" class="st1" width="23.8" height="29.3"/>
</g>
<rect x="3628.5" y="-55.4" class="st8" width="642.7" height="361.5"/>
<g>
	<g>
		<defs>
			<rect id="SVGID_1_" x="3669.4" y="-14.4" width="222.9" height="281.9"/>
		</defs>
		<clipPath id="SVGID_2_">
			<use xlink:href="#SVGID_1_"  style="overflow:visible;"/>
		</clipPath>
		<g class="st9">
			<defs>
				<rect id="SVGID_3_" x="3669.4" y="-14.4" width="222.9" height="281.9"/>
			</defs>
			<clipPath id="SVGID_4_">
				<use xlink:href="#SVGID_3_"  style="overflow:visible;"/>
			</clipPath>
			<path class="st10" d="M3890.8,267.5c0.1-0.1,0.3-0.2,0.4-0.2c0.3-0.1,0.6-0.1,1-0.2c0,0.1,0,0.3,0,0.4H3890.8z"/>
			<path class="st11" d="M3741.5,59.6c-0.1,0.9-0.4,1-1.1,0.8c-0.3-0.1-0.6,0-1-0.1c-0.2-0.1-0.6-0.4-1-0.5c-1.5-0.2-3-0.3-4.6-0.4
				c-1.7-0.2-3.5-0.3-5.2-0.5c-0.2,0-0.5-0.1-0.6-0.3c-0.4-0.7-0.2-1.9,0.5-2.3c-0.1-0.3-0.3-0.7-0.4-1c-0.1,0-0.1,0.1-0.2,0.1
				c0,0.1,0.1,0.2,0.1,0.4c-0.4-0.5-0.8-0.9-1.4-0.5c-0.4,0.2-1.3-0.1-1,0.9c-0.2,0-0.3,0.1-0.3,0.1c-0.3-0.2-0.4-0.3-0.5-0.5
				c-0.1,0.2-0.3,0.4-0.3,0.5c0,0.4,0.1,0.9,0.2,1.2c-0.8,0.3-1.4,0.6-2,0.6c-1.3-0.1-2.6-0.3-3.8-0.6c-1.3-0.3-2.5-0.6-3.8-0.9
				c-1.9-0.4-3.9-0.8-5.9-1.3c-2.2-0.5-4.5-1-6.7-1.5c-1.6-0.3-3.2-0.7-4.8-1c-0.1,0-0.4,0-0.4,0.1c-0.1,0.1,0,0.3,0.1,0.4
				c0.1,0.1,0.3,0.2,0.5,0.2c0,0.2,0,0.3,0,0.5c0,0.6,0.6,0.5,0.9,0.7c0.8,0.7,1.6,1.4,2.4,2.1c0.3,0.3,0.4,0.7,0.7,1.2
				c0.4,0.4,1,0.9,1.6,1.4c0.8,0.7,1.6,1.4,2.5,2.1c0.5,0.4,1,0.6,1.5,0.9c0.2,0.1,0.4,0.1,0.6,0.2c0-0.2,0.1-0.5,0.1-0.7
				c0-0.2-0.2-0.3-0.3-0.5c-1.3-1.5-2.7-2.9-4-4.4c-1.1-1.1-2-2.5-3.6-3c0,0,0-0.1-0.1-0.3c0.8,0.1,1.6,0.1,2.3,0.3
				c0.9,0.2,1.8,0.7,2.7,0.9c1.7,0.4,3.4,0.6,5.1,0.9c4.1,0.8,8.3,1.7,12.4,2.6c1.6,0.3,1.6,0.3,1.4,1.4c0,0,0.1,0.1,0.1,0.1
				c0.4-0.2,0.8-0.4,1.1-0.6c0.5,0.4,0.9,0.7,1.5,1.2c0.4,1.5,0,2.6-1.5,2.9c0.5,0.2,0.9,0.4,1.3,0.5c0,0.2,0,0.4,0,0.5
				c-0.6,1.3-0.3,2.6-0.4,3.9c-0.1,2,0,4.1-0.1,6.1c0,1.8-0.2,3.5-0.3,5.3c0,1.5,0,3,0,4.5c0,1.4,0,2.7-0.1,4.1
				c0,0.4-0.3,0.6-0.7,0.7c-1.8,0.3-3.6,0-5.5,0.5c-1.3,0.4-2.8,0.2-4.3,0.3c0.1-0.2,0.2-0.4,0.2-0.5c0-0.6-0.1-1.3,0-1.9
				c0-0.2,0.3-0.6,0.5-0.6c1-0.1,1.9-0.1,2.9-0.1c0.1,0,0.3,0,0.4-0.1c0-0.2,0-0.4-0.1-0.5c-0.4-0.2-0.8-0.5-1.3-0.5
				c-0.5-0.1-1,0.2-1.5,0.2c-0.2,0-0.6-0.1-0.6-0.2c-0.2-0.9-0.5-1.8-0.4-2.8c0-0.2,0-0.5,0.1-0.5c0.9-0.5,0.5-0.8-0.2-1
				c-0.1,0-0.2-0.2-0.3-0.3c-0.3,0.1-0.6,0.2-0.9,0.2c-1-0.1-1.9-0.2-2.9-0.3c-1-0.1-1.1-0.3-1.1-1.3c0-2-0.1-3.9,0-5.9
				c0.2-2.4,0.5-4.8,0.8-7.2c0.1-0.7,0.4-0.9,1.1-0.9c1.9,0,3.8-0.1,5.7-0.2c0.9,0,1.1-0.4,0.9-1.3c-0.1-0.2-0.2-0.3-0.2-0.5
				c-0.3,0.1-0.6,0.2-0.9,0.3c-2,0.1-4,0.2-6,0.3c-0.2,0-0.4-0.2-0.6-0.4c-0.2-0.2-0.2-0.4-0.3-0.6c-0.2,0.2-0.4,0.5-0.5,0.7
				c-0.1,0.1-0.1,0.2-0.1,0.4c-0.5-0.3-0.7,0-0.7,0.4c-0.2,2-0.4,4.1-0.7,6.1c-0.3,2.4-0.7,4.8-0.9,7.2c-0.2,2.2-0.1,4.5-0.1,6.7
				c0,1.7-0.1,3.3-0.1,5c0,0.3-0.1,0.6-0.3,0.8c-1.7,1.4-3.3,2.9-4.6,4.6c-1.5,1.9-3.2,3.8-4.1,6.1c-0.2,0.5-0.5,0.6-1,0.6
				c-0.7,0-1.5,0-2.2,0.1c-0.5,0.1-0.9,0.4-1.3,0.5c-0.5,0.1-0.6,0.3-0.6,0.8c0.1,0,0.2,0.1,0.2,0.1c1.5,0.3,2.9-0.2,4.4-0.3
				c0.2,0,0.3-0.3,0.4-0.5c0.2-0.3,0.5-0.6,0.7-0.9c0.2-0.2,0.4-0.3,0.6-0.5c0.7-1,1.3-2,2-3c0.4-0.6,0.9-1.1,1.3-1.6
				c1.2-1.5,2.4-2.9,3.7-4.4c0.2-0.2,0.4-0.3,0.7-0.5v5.7c0.2,0.1,0.4,0.1,0.6,0.2c-0.1,0.5-0.1,1-0.2,1.5c-0.2,0-0.3,0-0.5,0.1
				c-0.2,0.1-0.3,0.2-0.5,0.3c0.2,0.2,0.3,0.5,0.5,0.5c0.9-0.1,0.9,0.6,0.9,1.1c0,0.3,0,0.5,0,0.8c0,0.2,0.2,0.3,0.2,0.5
				c0.2-0.1,0.4-0.2,0.5-0.4c0.1-0.3,0.1-0.7,0.2-1.1c0.1-0.3,0.3-0.7,0.5-0.7c1-0.1,2.1-0.1,3.1-0.2c0.5,0,0.9,0.2,0.9,0.8
				c0,0.3,0.2,0.5,0.3,0.8c0.1,0,0.2,0,0.3,0c0.3-0.9,0.7-1.9,1.1-2.9c-0.6-0.2-0.3-0.8-0.3-1.3c0.1-1.9,0.1-3.7,0.2-5.6
				c0-0.6,0.4-0.7,0.8-0.7c1.5-0.1,3-0.2,4.6-0.2c1.4,0,2.7,0,4.1,0c1,0,1.1,0.2,1,1.1c-0.1,1-0.3,2.1-0.3,3.1
				c-0.1,1.5-0.1,3-0.1,4.6c0,0.2,0.3,0.6,0.6,0.7c0.4,0.2,1.8-1,1.8-1.5c0-0.5,0-1.1-0.1-1.6c0-1.6-0.1-3.2-0.1-4.7
				c0-0.7,0.1-1.3,0.2-2.1c0.8,0,1.5,0.1,2.3,0.1c2,0,4.1-0.1,6.1-0.2c0.2,0,0.3-0.2,0.5-0.3c-0.1-0.1-0.2-0.4-0.4-0.4
				c-0.4-0.2-0.8-0.2-1.2-0.3c0-0.2,0.1-0.3,0.1-0.4c-0.4,0-0.7,0-1,0c-0.5,0-1-0.1-1.5-0.2c-1.2-0.3-2.4,0.1-3.5,0.3
				c-1.1,0.2-1.4,0-1.3-1.2c0.1-1.1,0.2-2.2,0.2-3.3c0-1.3-0.1-2.5-0.2-3.8c-0.2-2.6-0.2-5.2-0.1-7.7c0.2-3.1,0.4-6.1,0.5-9.2
				c0.1-1.2,0.1-2.5,0-3.7c-0.1-0.9-0.2-1,0.8-0.9c1.5,0.1,3.1,0.2,4.6,0.4c2.3,0.3,4.5,0.7,6.8,1.1c0.3,0.1,0.7,0,1.1,0
				c0.2,0.4,0.4,0.9,0.7,1.5c0,0,0.1,0,0.2-0.1C3742,61.5,3741.7,60.6,3741.5,59.6 M3713.3,95.1c-0.1,0.9-0.2,1.8-0.2,2.7
				c0,0.6-0.2,0.9-0.8,0.9c-0.6,0.1-1.2,0.2-1.8,0.2c-0.2,0-0.5-0.3-0.5-0.4c0-1.8,0-3.6,0-5.5c0-0.2,0.2-0.5,0.4-0.8
				c-0.5-0.4-0.6-1-0.6-1.8c0-0.4,0.1-0.6,0.5-0.8c1-0.5,1.9-0.9,3-1.5c0,0.5,0.1,0.8,0.1,1.1c0,1.4,0.1,2.9,0.1,4.3
				C3713.4,94.2,3713.4,94.6,3713.3,95.1 M3711.5,87.9c-0.6,0.2-1.1,0.6-1.7,1c0-2.2,0-4.2,0-6.3c0-0.2,0.2-0.4,0.4-0.5
				c0.5-0.1,0.9-0.1,1.4,0c1.5,0.2,2,1.2,2.1,2.7C3713.6,86.5,3713.1,87.5,3711.5,87.9"/>
			<path class="st11" d="M3809.8,5.6c0,0-0.1,0-0.2-0.1c-0.2-0.1-0.3-0.3-0.4-0.4c0.1-0.1,0.3-0.4,0.4-0.4c0.8-0.2,1.6-0.4,2.4-0.6
				c0.5-0.1,0.9-0.4,1.4-0.6c0.4,0.5,0.7,1.1,0.4,1.9c-0.1,0.3-0.1,0.6-0.1,0.9c0,1.7,0.1,3.5,0.1,5.2c0,0.6,0.3,0.7,0.8,0.7
				c3.6,0,7.2-0.1,10.8-0.1c1.7,0,3.5-0.1,5.2,0c2.4,0.2,4.8-0.4,7.2-0.4c1.7,0,3.4,0.1,5.1,0.1c1.8,0,3.5,0.1,5.3,0.1
				c1.8,0,3.7,0,5.5,0c0.9,0,1.8-0.1,2.7-0.2c0-0.7,0-1.3-0.1-1.9c-0.3-1.9,0.3-3.6,0.5-5.4c0-0.4,0.4-0.8,0.7-1.2
				c0.1-0.1,0.4-0.2,0.6-0.2c0.7,0,1.5,0.1,2.2,0.1c0.5,0,0.6,0.1,0.6,0.6c-0.1,0.7-0.2,1.3-0.2,2c0,2.9,0,5.7,0,8.6
				c0,2.8,0,5.6,0,8.4c0,1,0,1.9,0.1,2.9c0,0.7-0.3,0.9-0.9,0.7c-0.8-0.2-1.7-0.3-2.5-0.5c-0.2-0.1-0.5-0.3-0.5-0.6
				c-0.5-2.6-0.7-5.3-0.5-8c0-0.6-0.2-0.9-0.8-0.8c-2.7,0.1-5.3,0.2-8,0.3c-1,0-2,0-3.1,0.1c-5.1,0.7-10.2,0.1-15.3,0.2
				c-4.8,0.1-9.5,0-14.3,0c-0.6,0-0.9,0.2-0.9,0.8c0,1.5,0,2.9,0,4.4c0,1.1-0.2,2.3-0.3,3.4c-0.1,1.1-0.8,1.7-1.9,1.8
				c-0.3,0-0.7,0-1,0.1c-0.6,0-0.6-0.3-0.8-0.8c-0.8-2-0.1-4-0.2-6c-0.1-1.8,0.1-3.6,0.1-5.4c0-1.3-0.1-2.7-0.1-4
				c0-0.6,0.1-1.2,0.1-1.8C3809.8,8.4,3809.8,7,3809.8,5.6 M3842.7,13.2c-0.4,0-0.9-0.1-1.3-0.1c-0.4,0-0.8,0.1-1.2,0.1
				c-1,0-2,0-3-0.1c-2,0-3.9,0-5.9-0.1c-1,0-2-0.1-3-0.1c-1.1,0-2.3,0.2-3.4,0.3c-3.5,0.3-7.1,0.5-10.6-0.1c-0.1,0-0.5,0.2-0.5,0.2
				c0,0.7,0.1,1.4,0.2,2.1c0,0.1,0.3,0.3,0.4,0.3c1.3,0,2.5,0.1,3.8,0c1.6,0,3.2-0.2,4.7-0.2c3.9,0,7.7,0,11.6,0
				c1.4,0,2.8-0.1,4.2-0.1c2.9,0,5.7,0.2,8.6,0.2c2.8,0,5.6-0.1,8.4-0.2c0.2,0,0.5-0.2,0.5-0.3c0.1-0.8,0.2-1.6,0.3-2.4
				c-0.2,0-0.3-0.1-0.3-0.1c-2.5,0.5-5.1,0.3-7.6,0.2c-0.1,0-0.4,0-0.4,0c-0.3,0.7-0.9,0.3-1.3,0.3c-0.4,0-0.8-0.1-1.2-0.1
				c-1,0-2,0.1-3.1,0.1c0,0,0,0-0.1-0.1C3842.5,13.3,3842.6,13.2,3842.7,13.2 M3858.7,13.3c-0.3-0.2-0.5-0.3-0.7-0.5
				c-0.1,0.2-0.3,0.5-0.3,0.7c0,0.9-0.3,1.8,0.5,2.5c0.3,0.3,0.1,0.7-0.3,0.6c-0.6,0-0.6,0.3-0.7,0.7c-0.4,2.3-0.3,4.6,0.2,6.8
				c0.1,0.3,0.4,0.6,0.7,0.7c0.5,0.1,1,0.1,1.5,0.1c0-0.2,0.1-0.3,0.1-0.4c0.1-3.1,0.2-6.3,0.3-9.4c0-1,0-2.1-0.1-3.1
				c-0.1-1.4-0.4-2.7-0.5-4.1c-0.1-1,0-2,0.1-3c0-0.6-0.3-0.9-0.8-0.8c-0.5,0-1.1-0.1-1.1,0.8c0.1,0.6,0,1.2,0,1.7
				c0,0.2-0.2,0.5-0.3,0.8c0,0,0.2,0.2,0.2,0.3c0.1,0.6,0.1,1.2,0.3,1.8c0.3,0.8,0.3,1.8,1.2,2.2c0.1,0,0.1,0.5,0.1,0.7
				C3859.1,12.9,3858.9,13.1,3858.7,13.3 M3810.6,5.5c0.1,0.8,0.2,1.5,0.3,2.1c0.3,1.8,0.6,3.5,0.8,5.3c0.3,1.8,0.3,3.6-0.7,5.3
				c-0.3,0.4-0.5,0.9-0.5,1.4c0,1.8,0,3.6,0.1,5.4c0,0.3,0.1,0.7,0.2,1.1c0.3-0.1,0.5-0.2,0.7-0.2c0.8,0,1-0.4,0.9-1.2
				c-0.1-0.6,0-1.2,0.1-1.8c0.1-1.8,0.4-3.6,0.4-5.4c0.1-1.7-0.1-3.3-0.1-5c0-2,0-4,0.1-6c0-0.4,0-0.8,0.1-1.3
				C3812.2,5.3,3811.4,5.4,3810.6,5.5 M3810.6,11.2v6.4C3811.6,15.5,3810.8,13.5,3810.6,11.2 M3813,22.1h-0.1v2.8c0,0,0.1,0,0.1,0
				V22.1z"/>
			<path class="st11" d="M3831,209.9c0.5-0.2,1.1-0.4,1.6-0.5c2.2-0.2,4.5-0.4,6.8-0.5c2.2-0.1,4.4-0.2,6.5,0.2
				c1.8,0.3,3.6,0.2,5.3,0.2c1,0,1.9,0.1,2.9,0.2c0.9,0,1.7-0.1,2.6-0.1c1.8,0,3.7,0.1,5.5,0c1.5,0,3.1-0.2,4.6-0.2
				c0.8,0,1.6,0.1,2.4,0.1c1.6,0,3.2,0,4.8,0c0.8,0,1.6,0.1,2.4,0.2c0.2,0,0.4,0.3,0.4,0.5c0.1,0.7,0.2,1.5,0.1,2.2
				c-0.1,0.6-0.5,1-1.2,0.8c0.1,0.1,0.2,0.1,0.4,0.3c-0.5,0-0.9,0.1-1.3,0.1c-4.8,0-9.7-0.1-14.5-0.1c-2.8,0-5.6,0.1-8.4,0.1
				c-3.5,0-7-0.1-10.6-0.1c-2.9,0-5.9-0.1-8.8-0.1c-0.4,0-0.7-0.1-0.7-0.6c0-0.6-0.1-1.2-0.2-1.7
				C3831.5,210.6,3831.2,210.3,3831,209.9"/>
			<path class="st11" d="M3820.2,156.3c-1.3,0.3-2.6,0.6-3.9,0.9c-0.4,0.1-0.7,0.1-1.1,0.1c-0.5,0-0.8-0.2-1-0.7
				c-0.5-1.6-1-3.1-2.1-4.4c0-0.1-0.1-0.1-0.1-0.2c-0.1-1.8-1.5-2.9-2.3-4.3c-0.5-0.9-1.2-1.7-1.7-2.6c-0.1-0.2,0-0.6,0.1-0.7
				c1.6-1.3,3.2-2.5,4.9-3.7c0.7-0.5,1.6-0.8,2.4-1.1c0.4-0.1,0.8-0.1,1.3-0.1c-0.1,0.8-0.5,1.2-1.1,1.6c-1.9,1.1-3.7,2.3-5.5,3.5
				c-0.3,0.2-0.6,0.2-1,0.4c0.3,0.3,0.5,0.6,0.7,0.9c0.5,0.7,0.9,1.5,1.5,2.2c0.2,0.2,0.6,0.3,0.8,0.3c1-0.1,2-0.3,3-0.6
				c1.1-0.3,2.2-0.7,3.2-1.2c0.3-0.1,0.4-0.5,0.6-0.9c0.8,0.1,1.1,0.8,1.3,1.4c0.6,1.7,1,3.5,1.5,5.2c0.1,0.2,0.1,0.5,0,0.7
				c-0.1,0.5-0.3,1-0.3,1.5c0,0.5,0.2,1,0.2,1.5c1.3-0.1,2.6-0.3,3.9-0.4c2.9-0.2,5.7,0.1,8.5,0.8c1.1,0.3,2.3,0.3,3.4,0.7
				c1.3,0.4,2.5,1.1,3.7,1.7c0.1,0,0.1,0.4,0,0.5c-0.3,0.5-0.8,0.6-1.3,0.4c-0.6-0.2-1.1-0.4-1.7-0.7c-1.9-0.8-3.9-0.8-5.9-1.1
				c-2.3-0.3-4.7-0.5-7-0.7c-1.9-0.2-3.8,0.3-5.6,1c-1.2,0.4-2.5,0.7-3.6,1.6c-0.5,0.4-1.3,0.3-2,0.4c-0.2,0-0.5-0.2-0.7-0.3
				c0.1-0.2,0.2-0.6,0.4-0.7c1.5-0.8,3.1-1.5,4.7-2.2c0.5-0.2,1.1-0.4,1.7-0.6C3820.2,156.4,3820.2,156.3,3820.2,156.3
				 M3812.9,150.4c0.9,1.6,1.8,3.1,2.6,4.5c0.1,0.1,0.4,0.1,0.6,0.1c1.1-0.4,2.2-0.8,3.3-1.1c0.6-0.2,0.7-0.5,0.6-1
				c-0.3-1.4-0.6-2.7-0.8-4.1c-0.1-0.7-0.3-0.8-0.9-0.5c-0.2,0.1-0.5,0.2-0.7,0.3c-1.1,0.6-2.2,1.3-3.5,2
				C3813.8,150.5,3813.4,150.5,3812.9,150.4"/>
			<path class="st11" d="M3727.7,12c-0.2,0.2-0.3,0.5-0.5,0.7c-0.2,0.1-0.6,0.2-0.8,0.2c-1.2-0.2-2.5-0.4-3.7-0.5
				c-0.8-0.1-1.6,0.1-2.4,0.3c-0.3,0.1-0.6,0.5-0.6,0.7c-0.4,2.4-0.8,4.7-1,7.1c-0.1,1.5,0,3.1,0,4.7c0,0.6,0.5,0.5,0.9,0.6
				c1.1,0.1,2.1,0.1,3.2,0.2c1.1,0.2,1.7,1.1,1.8,2.2c0,0.6,0.3,1.3,0.4,1.9c0.1,1.8-0.2,3.6-0.5,5.4c-0.1,0.3,0,0.6-0.1,0.9
				c0,1.2-0.5,1.8-1.6,2c-1,0.3-2,0.4-3.1,0.6c-0.2,0-0.4,0.1-0.6,0.1c-0.9,0.3-1.7-0.2-1.9-1.2c-0.1-0.7-0.4-1.3-0.5-2
				c-0.1-0.7-0.1-1.4-0.3-2.1c-0.1-0.4-0.2-0.9-0.3-1.3c-0.1-0.4-0.1-0.8-0.1-1.2c0-2.1,0-4.1,0.1-6.2c0.1-2,0.4-4,0.4-6
				c0.1-2.2,0.8-4.3,0.2-6.5c-0.3-1,0-1.2,1-1.3c1.2-0.1,2.4-0.1,3.5-0.7c0.9-0.5,1.9-0.4,2.8-0.1c0.5,0.2,1.1,0.1,1.6,0.3
				c0.7,0.2,1.4,0.5,2,0.8C3727.8,11.9,3727.8,11.9,3727.7,12 M3718.4,35.2c0,0.5,0.1,1,0.1,1.5c0,0.5,0.3,0.6,0.7,0.5
				c2.3-0.5,3.6-2,3.9-4.3c0.2-1.3,0.2-2.7,0.3-4.1c0-0.2-0.2-0.6-0.4-0.7c-1.2-0.7-2.5-0.8-3.8-0.8c-0.1,0-0.4,0.2-0.4,0.4
				c-0.1,0.5-0.2,1.1-0.2,1.7C3718.6,31.3,3718.5,33.2,3718.4,35.2 M3722.8,36.1c-0.6,0.5-1.2,0.9-1.8,1.4
				C3722.3,37.5,3722.9,37.1,3722.8,36.1 M3717.8,26.8c-0.1,0-0.2,0-0.3,0v2.7c0.1,0,0.1,0,0.2,0
				C3717.6,28.6,3717.7,27.7,3717.8,26.8 M3717.9,23.5c-0.1,0-0.2,0-0.2-0.1c-0.1,0.6-0.3,1.3-0.4,1.9c0,0.1,0.1,0.2,0.2,0.3
				c0.1-0.1,0.3-0.2,0.3-0.3C3717.8,24.8,3717.9,24.2,3717.9,23.5 M3719.1,13.1c-0.7,0.5-0.7,1.2-0.4,2.1
				C3718.9,14.4,3719,13.7,3719.1,13.1"/>
			<path class="st11" d="M3741.3,99.9c-0.6-0.1-1-0.1-1.5-0.2c-1.4-0.3-2.8-0.2-4.1,0.1c-0.2,0-0.5,0.1-0.6,0.1
				c-0.2-0.1-0.4-0.3-0.5-0.5c0-0.1,0.2-0.3,0.4-0.4c0.9-0.5,1.9-0.5,2.9-0.5c1.4,0,1.5-0.3,1.4-1.6c-0.1-1.1-0.1-2.3-0.1-3.4
				c0-0.5,0.2-1,0.3-1.4c0.1-0.8,0.3-1.6,0.3-2.4c0-1.6,0-3.2,0-4.7c0-0.6-0.3-0.9-0.8-0.9c-1.1,0-2.2,0-3.3,0
				c-0.2,0-0.3,0.3-0.5,0.4c-0.2,0.1-0.5,0.1-0.7,0.2c0-0.2-0.1-0.4,0-0.6c0.7-2.6,2.1-4.9,3.2-7.2c1.4-2.9,2.9-5.8,4.6-8.6
				c0.4-0.6,0.7-1.3,1-2c-0.2-0.1-0.4-0.2-0.5-0.2c-1.1,0-2.3,0.1-3.4,0.1c-0.6,0-1.2-0.1-1.8-0.2c-1-0.1-2-0.1-3-0.2
				c-0.2,0-0.5-0.3-0.7-0.5c0.2-0.1,0.4-0.4,0.6-0.4c2.1-0.3,4.2-0.7,6.3-0.9c1-0.1,2,0,3.1,0.1c0.6,0.1,1.1-0.1,1.4-0.6
				c0.1-0.2,0.4-0.3,0.6-0.5c0.1,0.1,0.2,0.1,0.3,0.2c-0.2,0.6-0.4,1.3-0.6,1.8c0.4,0.2,0.7,0.4,1,0.6c-0.4,0.1-0.7,0.2-1.1,0.2
				c-0.5,0-0.8,0.3-0.9,0.7c-0.4,1.1-0.7,2.2-1.1,3.3c-0.6,1.4-1.1,2.9-1.9,4.2c-1.6,2.7-3.3,5.2-4.9,7.8c-0.1,0.2-0.2,0.5-0.4,0.9
				c0.9-0.1,1.7-0.1,2.4-0.2c0.2,0,0.4-0.1,0.6-0.1c1.7-0.1,1.8,0.1,1.8,1.7c0,0.9,0.2,1.8,0.3,2.7c0.1,1.6,0.2,3.3,0.2,4.9
				c0,1.5-0.1,3.1-0.4,4.5c-0.1,0.6,0.1,1,0.1,1.5C3741.3,98.3,3741.3,99,3741.3,99.9"/>
			<path class="st11" d="M3877.7,209c0-1.9,0-3.9,0-5.8c0-1.2-0.1-2.3-0.2-3.5c0-0.7,0.3-1,1-0.9c0.3,0,0.6,0,0.9,0.1
				c0.5,0.1,1.3,0,1.5,0.3c0.5,0.7,0.9,1.4,0.8,2.4c-0.2,1.7-0.1,3.5-0.2,5.3c0,1.1-0.1,2.2-0.2,3.2c0,0.3,0.1,0.7,0.1,1
				c0,1-0.2,2.1-0.2,3.1c0,1.9,0,3.9,0,5.8c0,0.5,0.1,1.1,0,1.6c-0.1,0.5-0.5,0.7-1,0.8c-0.6,0-1.3,0-1.9,0.1
				c-1,0.1-1.4-0.2-1.3-1.2c0.3-3.2,0.8-6.3,0.5-9.5c-0.1-0.9,0.1-1.9,0.1-2.8C3877.6,209,3877.7,209,3877.7,209"/>
			<path class="st11" d="M3746.7,38.6c-1.9-0.4-3.6,0.4-5.6,1c0.2-0.4,0.2-0.7,0.4-0.8c0.6-0.3,1.2-0.6,1.8-0.9
				c0.4-0.2,0.9-0.5,1.3-0.6c0.3-0.1,0.7,0,1.1,0c1.5-0.1,2.9-0.2,4.3-0.4c0.3,0,0.6-0.4,0.7-0.7c0.7-2.7,0.9-5.4,0.4-8.1
				c-0.2-1-0.1-2-0.2-3c0-0.4,0-0.8-0.1-1.2c0-0.2-0.3-0.4-0.5-0.4c-1,0-2-0.1-3,0c-0.4,0-0.7,0.4-1.1,0.7c-0.4,0.4-0.8,0.8-1.4,0.2
				c-0.2,0.5-0.3,0.9-0.6,1.5c-0.3-0.6-0.5-1-1.2-0.9c-0.4,0.1-0.5-0.3-0.3-0.7c0.2-0.3,0.4-0.6,0.7-0.9c-0.6-0.2-0.9-0.5-0.7-1.1
				c0.2-0.6,0.4-1,1.1-1.2c1.2-0.4,2.3-1.1,3.6-1.5c1.1-0.4,1.6-1.3,2.2-2.2c0.6-0.8,1.1-1.7,1.7-2.6c-1.8-0.5-3.5-0.9-5.3-0.9
				c-0.7,0-1.5,0.3-2.2,0c-0.7-0.3-1-0.9-0.6-1.5c1.8,0.3,3.5,0.4,5.3,0.4c0.7,0,1.4,0.1,2.1,0.2c0.6,0.1,1.3,0.2,1.9,0.4
				c0.2,0.1,0.4,0.3,0.6,0.5c0,0,0,0.1,0,0.1c0.6,0.7,0.6,1-0.5,0.9c-0.2,0-0.6,0.4-0.8,0.7c-1.3,2-2.5,4-3.8,6
				c-0.1,0.1-0.1,0.3-0.2,0.6c0.6-0.1,1.1-0.2,1.7-0.2c0.8,0,1.6-0.1,2.4,0c0.2,0,0.5,0.3,0.5,0.6c0.7,2.3,0.5,4.5,0.3,6.8
				c-0.1,1.1,0.3,2.2,0.6,3.4c0.2,1.2,0.6,2.4,0.8,3.6c0.1,0.8-0.1,1-0.9,1c-0.5,0-0.8,0.1-1,0.5c-0.1,0.2-0.3,0.3-0.5,0.3
				c-1.4,0.5-2.8,1-4.2,1.5c-0.3,0.1-0.7,0.1-0.9-0.1C3746.6,39.5,3746.7,39.1,3746.7,38.6 M3752.8,31.6c-0.1,0-0.2,0-0.3,0
				c-0.1,0.7-0.1,1.4-0.2,2.1c-0.1,0.8-0.2,1.5-0.2,2.3c0,0.7,0.5,0.8,1.1,0.7c0.4,0,0.6-0.1,0.6-0.6
				C3753.5,34.6,3753.1,33.1,3752.8,31.6 M3745.8,21.1c-0.8,0.4-1.4,0.7-2.1,1.1C3744.5,22.5,3745.1,22.2,3745.8,21.1 M3751.7,28.4
				C3751.7,28.4,3751.8,28.4,3751.7,28.4c0-1.6-0.1-3.2-0.1-4.8c-0.1,0-0.1,0-0.2,0C3751.5,25.2,3751.6,26.8,3751.7,28.4"/>
			<path class="st11" d="M3826.7,219.9c0-1.3,0-2.7,0-4.1c0-1.5,0.1-2.9,0.2-4.4c0.1-2.2,0.2-4.4,0.4-6.6c0.1-1.6,0.4-3.2,0.7-4.8
				c0.1-0.5,0.4-0.6,0.9-0.5c0.6,0.1,1.2,0.1,1.8,0.3c0.2,0.1,0.5,0.5,0.5,0.8c0,1-0.2,1.9-0.2,2.9c-0.1,1.9-0.2,3.7-0.3,5.6
				c-0.1,2-0.2,3.9-0.3,5.9c-0.1,1.9,0.2,3.7-0.3,5.6c-0.1,0.6,0,1.3,0.1,2c0,0.5-0.2,0.7-0.6,0.7c-0.5,0-1,0.2-1.4,0.2
				c-0.3,0-0.8-0.3-0.8-0.6C3826.9,221.9,3826.8,220.9,3826.7,219.9"/>
			<path class="st11" d="M3830.7,27.8c0.3,0.1,0.5,0.2,1,0.4v-8.7c0.4,0.2,0.6,0.2,0.7,0.3c1,0.7,2.2,0.7,3.4,0.6c1.5-0.1,3,0,4.5,0
				c0.2,0,0.3,0.1,0.5,0.2c-0.3,0.7-0.6,0.9-1.6,0.8c-0.5,0-1.1,0-1.6,0.1c-1.3,0.1-2.6,0.1-3.9,0.2c-0.6,0-1.1,0.5-1.1,1.1
				c0,1.7,0,3.4-0.1,5.2c0,0.8,0.4,1,0.9,1c1.1,0,2.2,0,3.3-0.2c0.7-0.1,1,0.2,1.1,0.7c0,0.2-0.6,0.6-0.9,0.7
				c-1.4,0-2.7-0.1-4.1-0.1c-0.1,0-0.3,0-0.5,0c0,0.2-0.1,0.4-0.1,0.6c-0.3,2.4-0.5,4.9-0.8,7.3c0,0.2,0,0.4-0.1,0.6
				c-0.1,0.2-0.2,0.3-0.3,0.5c-0.2-0.1-0.4-0.2-0.5-0.4c-0.2-0.7-0.5-1.4-0.4-2c0.2-2,0.6-4,1-6c0.1-0.7,0.2-1.3-0.8-1.8
				c0.2,0.4,0.3,0.7,0.4,0.9c-0.8,0.7-0.3,1.6-0.5,2.5c-0.3,1.7-0.5,3.4-0.8,5.2c0,0.2-0.1,0.3-0.3,0.6c-0.8-0.8-0.7-1.9-1.1-2.7
				c-0.4,1.1,0.1,2.3-0.5,3.3l-0.3,0.1c-0.1-0.4-0.3-0.7-0.4-1.1c-0.2-0.6-0.3-1.3-0.4-2c0-0.3-0.1-0.7,0.1-1
				c0.6-1.5,0.7-2.9,0.6-4.5c-0.1-1.3,0-2.7,0.2-4c0.2-1.1,0.6-2.2,0.1-3.4c-0.3-0.9,0.2-1.4,0.6-2.1c1.1,0.4,0.3,1.6,1.1,2.2
				c0-0.9,0.1-1.7,0.1-2.6c0.1,0,0.2,0,0.3,0c0.1,0.2,0.3,0.3,0.3,0.5c0.1,1.9,0.2,3.9,0.3,5.8C3830.4,26.9,3830.6,27.3,3830.7,27.8
				 M3829.7,26.4c0,0.1-0.1,0.1-0.1,0.2c-0.3,1.9-0.8,3.9-1,5.8c-0.1,0.9,0.2,1.9,0.3,2.8C3829.8,32.4,3830,29.4,3829.7,26.4
				 M3829,25.6c0.3-0.5,0.5-1.1,0-1.6V25.6z"/>
			<path class="st11" d="M3828.6,128.3c0,0.2,0.1,0.4,0,0.6c-0.1,0.2-0.3,0.5-0.3,0.5c-0.5-0.3-0.8,0.1-1.2,0.4
				c-0.1,0.1-0.5-0.1-0.6-0.3c-0.3-0.6-0.6-1.3-0.9-2c-0.1,0.6-0.1,1.1-0.2,1.7c-0.9,0-2,0.5-2.1-1c-0.6,0.2-1.2,0.4-1.1,1.2
				c0,0.1-0.1,0.3-0.1,0.3c-0.5,0.1-1,0.2-1.4,0.1c-0.5-0.1-1.2-0.2-1.3-0.9c0-1,0.1-1.9,0.2-2.9c0-0.6,0.6-0.7,1-0.7
				c0.2,0,0.4,0.5,0.6,0.8c0.1,0.1,0,0.3,0.1,0.5c0.1,0.2,0.2,0.5,0.4,0.6c0.2,0,0.5-0.2,0.7-0.3c0.1-0.1,0.2-0.3,0.3-0.3
				c1,0.2,1-0.6,1.2-1.4c0.6,0.3,1.1,0.7,1.6,0.9c0.4,0.2,0.8,0.3,1.2,0.4c0.1,0,0.2-0.3,0.2-0.4c0-0.3,0-0.7-0.1-1
				c0.9-0.2,0.9-0.2,1.3,1c0.1-0.3,0.3-0.6,0.3-0.8c0-0.1,0-0.3-0.1-0.4c-0.3-0.3-1.7-0.3-2.1,0c-0.5-0.4-0.8-0.8-0.4-1.5
				c0.1-0.2,0.1-0.4,0.2-0.6c0.1-1.8,0.3-3.7,0.4-5.5c0.1-1.1,0.1-2.2,0.2-3.3c0.1-0.5-0.2-1.3,1-0.9c0.7,0.2,1.6-0.2,2.4-0.3
				c0.9-0.1,1.8-0.1,2.8,0c0.7,0.1,1.1,0.6,1,1.3c0,0.8-0.2,1.6-0.4,2.4c-0.1,0.7-0.6,0.7-1.1,0.5c-0.5-0.2-1.1-0.3-1.8-0.5v1.4
				c0.3,0.1,0.6,0.1,0.9,0.3c0.6,0.4,0.7,1.2,0.2,2.3c-0.2,0.7-0.7,0.7-1.3,0.6c-0.7-0.2-0.9,0.1-0.9,0.8c0,1.5-0.2,3-0.2,4.6
				c0,0.5,0.1,1,0.2,1.6c0.2,0,0.5-0.1,0.7-0.1c0,0.1,0,0.2,0.1,0.2C3829.6,128.1,3829.1,128.2,3828.6,128.3 M3827.5,114.3
				c0,0.1-0.1,0.2,0,0.4c0.2,2,0,4.1-0.5,6.1c-0.2,0.6-0.2,1.3-0.2,1.9c0,0.8,0.6,0.6,1,0.7c0.2,0,0.6-0.3,0.6-0.5
				c0.1-0.6,0.2-1.2,0.2-1.9c0-1.1,0.4-1.4,1.4-1.3c0.3,0,0.6,0,0.9,0c-0.1-0.2-0.1-0.3-0.2-0.3c-0.1,0-0.2-0.1-0.3-0.1
				c-0.8-0.1-1.3-0.6-1.4-1.4c0-0.7,0-1.4,0-2c0-0.5,0.2-0.7,0.7-0.7c0.6,0,1.2,0.1,1.7,0.1c0.3,0,0.7,0.1,1,0.1
				c0-0.4,0.1-0.7,0.1-1c0-0.6-0.3-0.8-0.9-0.7C3830.3,113.9,3829,114,3827.5,114.3"/>
			<path class="st11" d="M3822,212.2c0.1,1.5-1,1.4-1.8,1.6c-0.5,0.1-1,0.1-1.4,0.2c-0.7,0.1-1-0.2-1-0.9c0.1-1.1,0.2-2.3,0.4-3.4
				c0-0.2,0.3-0.5,0.5-0.5c0.7-0.1,1.5-0.2,2.2-0.2c0.6,0,0.9,0.4,1,1c0.1,0.5,0.2,1.1,0.3,1.6l0.3,0c0-1.5,0-3,0-4.5
				c0-1,0.1-1.9,0.2-2.9c0-0.2,0.2-0.4,0.4-0.5c0.4-0.2,0.8-0.4,1.2-0.6c0.1,0,0.2-0.1,0.3-0.1c1,0,1.8,1.2,1.7,2.2
				c-0.2,1.3-0.3,2.6-0.3,3.9c-0.1,2-0.3,4.1-0.4,6.1c-0.1,1,0,1.9-0.1,2.9c-0.1,1.1-0.9,1.8-2,1.6c-0.4-0.1-1.1-0.9-1.1-1.3
				c0-1.7,0-3.5,0.1-5.2c0-0.3-0.1-0.6-0.1-0.9C3822.2,212.2,3822.1,212.2,3822,212.2"/>
			<path class="st11" d="M3735.1,12.6c0.1-0.3,0.3-0.7,0.3-1.1c0.1-1.9,0.2-3.8,0.3-5.7c0-0.2,0-0.5,0-0.8c-0.8,0.4-1.3,0.9-1.7,1.6
				c-0.3,0.5-0.5,1-0.8,1.5c-0.1,0.1-0.4,0.1-0.6,0.2c0-0.2-0.1-0.4,0-0.6c0.6-1.2,1.2-2.5,1.9-3.7c0.4-0.8,1-1.5,2-1.8
				c0.5-0.1,0.8,0,0.8,0.5c0.1,0.6,0.2,1.1,0.2,1.7c0,1.9,0,3.7-0.2,5.6c-0.3,1.9-0.1,3.9-0.1,5.9c0,1.8-0.1,3.5-0.2,5.3
				c0,1.2-0.1,2.3-0.2,3.5c-0.2,2.6-0.5,5.1-0.7,7.7c-0.1,1,0.2,2,0.2,3c0,0.6,0.3,1.3-0.8,1.2c0,0-0.1,0.1-0.1,0.1
				c-0.6,0.5-0.9,0.4-1-0.4c-0.1-0.7-0.1-1.4-0.1-2c0.1-2.9,0.3-5.8,0.4-8.7c0-1.3-0.1-2.6,0-3.9c0.1-2,0.4-4.1,0.5-6.1
				C3735.2,14.6,3735.1,13.6,3735.1,12.6 M3735.7,22.5c0.5-1,0.7-5.1,0.3-5.6C3735.8,18.9,3735.7,20.7,3735.7,22.5"/>
			<path class="st11" d="M3813.5,105.5c-0.4-0.7-0.1-0.9,0.5-0.8c1.6,0.1,3.1,0.2,4.7,0.2c4-0.1,8-0.2,12-0.4c1.5,0,2.9-0.1,4.4-0.1
				c3,0.1,6.1,0.2,9.1,0.2c0.1,0.8,0.3,1.6,0.4,2.4c0.1,1-0.3,1.5-1.3,1.7c-2.4,0.5-4.8,0.4-7.3,0.4c-3.2,0-6.4,0.1-9.6,0.2
				c-2.4,0.1-4.7,0.1-7.1,0.3c-2.9,0.2-5.8,0.4-8.7,0.2c-1.8-0.1-1.8-0.1-2-1.9c-0.1-0.6,0.2-1.3,0.4-1.9c0-0.1,0.2-0.2,0.4-0.2
				c0.6-0.1,1.2-0.2,1.7-0.2C3811.8,105.5,3812.6,105.5,3813.5,105.5 M3813.8,106.1c0.1,0.8,0,0.9-0.6,0.6c-0.9-0.3-1.9-0.3-2.8,0
				c-0.4,0.1-0.7,0.3-0.6,0.8c0,0.3,0,0.5,0,0.8c0,0.3,0.1,0.5,0.5,0.5c0.6,0,1.2,0.1,1.8,0.1c3.1-0.1,6.3-0.3,9.4-0.4
				c3.6-0.1,7.1-0.2,10.7-0.2c2.4-0.1,4.9-0.1,7.3-0.2c1.1,0,2.3-0.2,3.4-0.3c0.7-0.1,0.9-0.5,0.7-1.2c-0.3-1.2-0.6-1.4-1.8-1.5
				c-0.2,0-0.5,0-0.7,0c-2.7,0-5.4,0.1-8.1,0.2c-2.3,0.1-4.7,0.1-7,0.2c-1.9,0.1-3.7,0.4-5.6,0.5
				C3818.1,106.2,3816,106.1,3813.8,106.1"/>
			<path class="st11" d="M3701.1,245.5c0-0.4-0.1-0.7-0.1-1.1c0-4.1-0.1-8.2,0-12.3c0-2.5,0.1-5.1,0.2-7.6c0-2-0.1-4,0-6
				c0.2-3.1,0.5-6.1,0.7-9.2c0.1-2,0.1-4.1,0.1-6.1c0-0.2-0.2-0.4-0.2-0.5c0.1-0.4,0.3-0.7,0.3-1c-0.1-2.3-0.2-4.6-0.3-6.9
				c0-1.7,0.1-3.4,0.1-5.1c0-0.5-0.1-1.1-0.1-1.6c-0.2-2.1,0.2-4.2,0.1-6.3c-0.1-1.5,0.3-3.1-0.4-4.5c-0.1-0.2,0.1-0.6,0.1-0.8
				c0.6,0.1,1,0.2,1.4,0.2c1.5-0.1,3-0.4,4.4-0.3c1,0.1,1.9-0.3,2.8-0.3c0.2,0,0.4,0.2,0.6,0.3c-0.2,0.1-0.3,0.3-0.5,0.4
				c-0.7,0.2-1.4,0.4-2.1,0.5c-1.5,0.2-2.9,0.2-4.4,0.4c-0.4,0-0.9,0.1-1.4,0.1c0.1,0.9,0.1,1.8,0.1,2.7c0,2.2-0.1,4.4-0.1,6.6
				c0,2.6,0.1,5.3,0.1,7.9c0,2,0.1,3.9,0.1,5.9c0,3.1,0,6.2-0.1,9.3c0,0.7,0.3,0.8,0.8,0.8c0.9,0,1.8,0,2.7,0c0.4,0,0.6,0.2,0.6,0.7
				c-0.1,1.6-0.1,3.2-0.2,4.7c-0.1,3.1-0.3,6.3-0.4,9.4c0,0.4-0.1,0.9,0.6,1c-0.8,0.2-0.8,0.7-0.8,1.3c0,2.6,0,5.3,0,7.9
				c0,2.8,0,5.5,0,8.3c0,2.2-0.3,2.4-2.4,1.8c-0.4-0.1-0.9-0.1-1.4-0.1c0.3-0.4,0.7-0.5,1.2-0.5c0.5,0.1,1,0.1,1.4,0.2
				c0.6,0.1,0.7-0.1,0.7-0.7c-0.1-1.7-0.1-3.4-0.1-5c0-1.8,0.1-3.7,0.2-5.5c0-1.8,0-3.7,0.1-5.5c0.1-2.6,0.3-5.3,0.4-7.9
				c0.1-2.6,0.2-5.2,0.3-7.7c0-0.1,0-0.1,0-0.2c0-1.5,0-1.5-1.5-1.4c-0.4,0-0.8,0.1-1.2,0.1c-1,0-1,0-1,1.1c0,1.2-0.1,2.4-0.2,3.6
				c0,0.7,0,1.4-0.1,2.1c0,1-0.1,2-0.2,3c-0.1,1.3-0.2,2.5-0.3,3.8c-0.1,2.6-0.2,5.2-0.2,7.7c0,2.8,0,5.5,0,8.3c0,1.2,0,2.5,0,3.7
				c0,0.2,0,0.4-0.1,0.7C3701.2,245.5,3701.1,245.5,3701.1,245.5"/>
			<path class="st11" d="M3830-13.6c-0.2,0.1-0.5,0.3-0.7,0.3c-2.2,0-4.5,0-6.7-0.1c-0.6,0-0.8,0.2-0.8,0.7c0,1.9,0.1,3.8,0.1,5.8
				c0,0.5,0,1.2,0.3,1.4c0.3,0.2,0.9,0,1.4,0.1c1.8,0.1,3.7,0.1,5.5,0.2c0.8,0,1.3,0.8,1.3,1.6c-0.2,1.6-0.3,3.1,0,4.7
				c0.2,0.8,0.2,1.7,0.3,2.5c0,0.5,0,1-0.2,1.5c0,0.2-0.4,0.4-0.6,0.4c-1.8,0.2-3.6,0.4-5.4,0.4c-1.1,0-2.3,0.1-3.4-0.6
				c-0.2-0.1-0.4-0.4-0.4-0.6c-0.1-1.5-0.1-3-0.1-4.4c0-1.6-0.1-3.2,0-4.8c0-2.1,0.1-4.2,0.1-6.2c0-0.6,0-1.2,0-1.8
				c0-0.4,0.1-0.8,0.2-1.2c0.2-0.5,0.6-0.6,1.2-0.6c1.5,0.2,3.1,0.1,4.6,0.2c1,0,2,0.2,3.1,0.3C3830-13.8,3830-13.7,3830-13.6
				 M3822,0.3c0,0,0.1,0,0.1,0c0,0.9,0,1.8,0,2.7c0,1.7,0,1.6,1.7,1.5c1.7-0.2,3.4-0.3,5.1-0.4c0.6,0,0.7-0.3,0.7-0.8
				c-0.1-2.2-0.3-4.4-0.4-6.5c0-0.6-0.4-0.8-1-0.8c-1.8,0.1-3.7,0.1-5.5,0.2c-0.5,0-0.7,0.1-0.7,0.6C3822-2.1,3822-0.9,3822,0.3"/>
			<path class="st11" d="M3823.4,101c-0.1-1.6-0.1-3.2-0.2-4.9c0-0.9-0.3-1.2-1.2-1.2c-1.4,0-2.8,0-4.1,0c-0.5,0-0.8-0.1-0.8-0.7
				c0.1-1,0.1-1.9,0.1-2.9c0-0.5,0.1-0.8,0.6-0.9c0.8-0.2,1.7-0.4,2.6-0.6c0.8-0.1,1-0.3,0.9-1.2c-0.1-0.5-0.2-0.9-0.1-1.4
				c0.2-1.1-0.2-1.6-1.3-1.4c-2.6,0.4-5.1,0.7-7.7,0.1c-0.2,0-0.6,0.1-0.6,0.1c0,0.4,0,0.9,0.2,1.3c0.1,0.4,0.4,0.5,0.8,0.3
				c0.5-0.2,0.9-0.1,1,0.6c0.2,2.4,0.4,4.9,0.4,7.3c0,2.1-0.2,4.3-0.3,6.4c0,0.9,0.3,1.3,1.2,1.4c0.8,0.1,1.6,0.1,2.5,0.2
				c0,0,0,0.1,0,0.2c1.9-0.2,3.9-0.5,5.8-0.7c0.2,0,0.3-0.2,0.4-0.3C3823.8,102.1,3823.4,101.5,3823.4,101 M3814.5,101
				c0.2-2.6,0.4-5.2,0.2-7.7c-0.1-1.7-0.3-3.3-0.5-5c-0.1-0.8,0.1-1,0.9-1c1.2-0.1,2.5-0.2,3.7-0.3c1-0.1,1-0.2,1.2,0.8
				c0.1,0.3,0.1,0.5,0.2,0.8c-1.2,0.3-2.3,0.5-3.4,0.8c-0.5,0.1-0.7,0.4-0.7,0.9c0,0.8,0.1,1.6,0,2.5c0,0.5-0.3,1-0.4,1.5
				c-0.2,0.9,0.5,1.8,1.4,1.7c1.4-0.1,2.8-0.1,4.2-0.2c0.6,0,0.8,0.2,0.8,0.7c-0.1,1.4-0.2,2.9-0.3,4.3c0,0.4-0.2,0.6-0.6,0.6
				c-1.9,0.2-3.9,0.4-5.8,0.6C3814.6,102,3814.4,101.8,3814.5,101"/>
			<path class="st11" d="M3846.4-12.4c-1.6,0-3,0-4.5,0c-0.6,0-1.3,0.3-1.7-0.5c-0.1-0.1-0.4-0.1-0.6-0.2c0-0.5,0.2-0.8,0.7-0.8
				c0.8,0,1.6-0.1,2.5-0.1c1.7-0.1,3.3-0.1,5-0.1c1,0,1.6,0.5,1.4,1.1c-0.2,0.5-0.6,0.9-1,1.2c-1.7,1.5-3.2,3.2-4.3,5.1
				c1.4,0.2,2.8,0.5,4.2,0.6c0.8,0.1,1.2,0.4,1.2,1.2c0.2,1.8,0.6,3.6,0.2,5.5c-0.1,0.6,0,1.3,0.1,1.9c0.2,1.2-0.1,1.6-1.3,1.7
				c-1.6,0.1-3.3,0.1-4.9,0.1c-1,0-2-0.1-3-0.3c-0.3-0.1-0.6-0.4-1-0.7c0.3-0.6,0.9-0.9,1.4-0.7c1.9,0.7,3.9,0.4,5.8,0.5
				c2.2,0,1.9,0.2,1.9-1.9c0-1.7-0.1-3.4-0.1-5.1c0-0.6-0.1-0.9-0.9-0.9c-1.9,0-3.9,0-5.8,0c-0.5,0-0.9,0.1-1.4,0.1
				c-0.7,0-1-0.4-0.5-0.9c0.7-0.8,1.5-1.6,2.2-2.4c1.1-1.1,2.3-2.3,3.4-3.4C3845.9-11.7,3846.1-12,3846.4-12.4"/>
			<path class="st11" d="M3883.7,218.8c-0.1,0-0.3,0-0.5,0c-0.6,0-1-0.2-1-0.9c0.1-1.4,0.2-2.7,0.3-4.1c0.1-1.5,0.1-3,0.1-4.5
				c0-0.5,0-0.9,0.1-1.4c0.1-1.6,0.1-3.2,0.2-4.9c0-0.2,0.4-0.4,0.6-0.4c0.6-0.1,1.2,0.4,1.7-0.2c0.4,0.3,0.9,0.6,1,1.1
				c0.2,0.7,0.1,1.4,0.1,2.1c0,1.2-0.1,2.3-0.1,3.5c-0.1,2.3-0.3,4.7-0.4,7c0,0.6-0.1,1.2-0.2,1.7
				C3885.2,218.7,3884.9,218.9,3883.7,218.8"/>
			<path class="st11" d="M3834,154.9c0.5-0.4,0.8-0.8,1.1-0.9c0.6-0.1,1.3,0,1.9,0.2c0.9,0.3,1.8,0.7,2.7,1.1
				c0.4,0.2,0.7,0.1,0.9-0.3c0.9-1.8,1.9-3.6,2.9-5.4c0.2-0.4,0.1-0.7-0.3-0.9c-1.1-0.4-2.2-0.8-3.4-1.1c-0.7-0.2-1.3-0.5-1.7-1
				c-0.5-0.6-0.4-1.1,0.3-1.3c0.4-0.1,0.9-0.3,1.1-0.6c0.5-0.6,1.2-0.7,1.8-1c0.9-0.5,1.9-0.9,3.1-1.4c-0.9-0.1-1.5-0.3-2.2-0.3
				c-1.3,0-2.3-0.8-3.4-1.3c-0.2-0.1-0.3-0.5-0.3-0.8c0-0.2,0.5-0.4,0.7-0.3c1.7,0.4,3.5,0.8,5.2,1.3c0.9,0.3,1.9,0.6,2.8,0.9
				c0.3,0.1,0.7,0.1,1.3,0.1c-0.3,0.3-0.4,0.7-0.7,0.8c-2,0.9-4,1.8-6.1,2.6c-0.2,0.1-0.4,0.2-0.7,0.4c1.2,0.8,2.2,1.5,3.3,2.3
				c0.2,0.2,0.4,0.5,0.4,0.8c0.1,1.5-0.8,2.5-1.5,3.7c-0.4,0.6-0.6,1.4-0.9,2.1c-0.2,0.4-0.3,0.9-0.5,1.3c-0.3,0.8-1.1,1.2-1.9,1
				c-1.7-0.4-3.4-0.8-5.1-1.3C3834.6,155.3,3834.4,155.1,3834,154.9"/>
			<path class="st11" d="M3840.9,89.8c-0.8,1.1-1.5,2.1-2.4,3.3c0.6,0,1,0.1,1.4,0.1c0.7-0.1,0.9,0.3,0.9,0.9c0.1,1.5,0.1,3,0.2,4.5
				c0,0.5-0.1,1.1-0.1,1.6c0,0.7-0.2,0.8-0.9,0.9c-1.3,0.1-2.5,0.3-3.8,0.4c-0.4,0-0.9,0.1-1.3-0.1c-0.3-0.1-0.6-0.5-0.6-0.8
				c-0.1-0.6,0-1.3,0-1.9c0-0.7,0.4-1,1-1.1c0.6-0.1,1.2-0.1,1.7-0.1c0.4,0,0.7-0.1,0.7-0.6c0-0.5-0.4-0.4-0.7-0.4
				c-0.8,0-1.6,0.1-2.3,0.1c-0.5,0-0.9-0.5-0.7-1.2c0.3-1,0.8-2,1.2-3c0.3-0.8,0.6-1.5,1.1-2.5c-1,0.4-1.4-0.1-1.7-0.6
				c-0.4-0.7-0.1-1.2,0.1-1.9c0.3-0.9,0.8-1.2,1.7-1.2c1.5,0.1,3,0.2,4.5,0.2c0.5,0,0.8,0.3,0.7,0.8c-0.1,0.5-0.3,1-0.4,1.6
				C3841,89.2,3840.9,89.5,3840.9,89.8 M3835.1,95.5c0.6,0,1.1,0,1.5,0c0.4,0,0.9,0,1.3,0.1c0.3,0.1,0.6,0.3,0.8,0.5
				c0.5,1.1-0.1,2.1-1.3,2.1c-0.1,0-0.3,0-0.4,0c-1.5,0.1-1.5,0.1-1.6,1.6c0,0.5,0.2,0.6,0.6,0.5c0.4-0.1,0.7-0.1,1.1-0.2
				c0.7,0,1.4-0.1,2.2-0.1c0.7,0,1-0.4,0.9-1.1c-0.3-1.4-0.4-2.8-0.2-4.2c0-0.1,0-0.2,0-0.4c0-0.4-0.1-0.6-0.6-0.5
				c-0.6,0.1-1.2,0-1.7,0c-0.5,0-0.7-0.3-0.5-0.8c0.2-0.5,0.5-1,0.8-1.5c0.9-1.4,1.8-2.9,2.6-4.3c-0.1-0.1-0.1-0.2-0.2-0.2
				c-1.4,0.1-2.8,0.1-4.1,0.2c-0.6,0-0.8,0.5-0.8,1c0,0.2,0.4,0.4,0.7,0.6c0.2,0.1,0.4,0.2,0.6,0.2c0.6,0.2,0.9,0.6,0.6,1.2
				c-0.5,1.3-1,2.6-1.6,3.9C3835.6,94.7,3835.4,95,3835.1,95.5"/>
			<path class="st11" d="M3833.6,201.7c1.6,0,3,0,4.5,0c1,0,2,0.1,3,0.2c0.2,0,0.6,0.4,0.6,0.6c0,1.4-0.1,2.8-0.2,4.2
				c0,0.2-0.3,0.4-0.5,0.6c0.1,0,0.3,0.1,0.6,0.1c-0.3,0.1-0.3,0.1-0.4,0.1c-2.2,0-4.5,0-6.7,0.1c-0.5,0-0.9,0.1-1.4,0.2
				c-0.5,0.1-0.9-0.2-0.8-0.6c0-0.7,0.1-1.4,0.2-2.2c0-0.2,0.1-0.3,0.1-0.5c0-1.8,0.1-3.5,0.1-5.3c0-1.6-0.1-3.2-0.1-4.9
				c0-0.2,0-0.4,0-0.6c0.1-1,0.1-1,1.2-1c0.8,0,1.6-0.1,2.4-0.1c1.3,0,2.7,0.1,4,0.2c0.2,0,0.4,0.1,0.6,0.2c0.1,0.1,0.2,0.3,0.3,0.5
				c-0.2,0.1-0.3,0.2-0.5,0.2c-1.2,0.1-2.4,0.2-3.6,0.3c-0.8,0-1.6,0-2.3-0.2c-0.6-0.1-0.9,0.1-0.9,0.7c-0.1,2-0.1,4-0.2,6
				C3833.6,201,3833.6,201.4,3833.6,201.7 M3840.6,206.1c0-0.8-0.1-1.5-0.1-2.2c0-0.8-0.4-0.9-1-0.9c-1.8,0.2-3.6,0.3-5.6,0.4
				c-0.1,0.8-0.2,1.7-0.4,2.7H3840.6z"/>
			<path class="st11" d="M3848.2,106.8c0-2.2,0-4.4,0-6.5c0-0.7,0.1-1.3,0.1-2c0-0.4,0.2-0.5,0.6-0.5c1,0.1,2,0.2,2.9,0.3
				c1,0.1,1.3,0.3,1.4,1.2c0.1,1.8,0.4,3.6,0.2,5.3c-0.3,2.2,0.2,4.3-0.3,6.4c-0.1,0.7-0.2,1.4-0.3,2.1c-0.1,0.6-0.1,1.2-0.1,1.8
				c0,0.5-0.2,0.8-0.7,1c-0.7,0.2-1.4,0.4-2,0.5c-0.7,0.2-1.4-0.4-1.4-1.2c0-0.6-0.1-1.2-0.3-1.8c-0.6-1.8-0.2-3.5-0.1-5.3
				c0-0.5,0.1-1,0.2-1.4L3848.2,106.8z M3852.5,103c-0.1-1.3-0.2-2.4-0.2-3.6c0-0.4-0.2-0.5-0.6-0.4c-0.4,0.1-0.8,0.2-1.2,0.1
				c-0.8-0.1-1,0-0.9,0.8c0,0.4,0.1,0.8,0.1,1.2c0,0.6,0,1.2,0,1.7c0,1.2-0.1,2.4-0.1,3.6c0,0.3,0.2,0.6,0.1,1.1
				c-0.2,0.9-0.3,1.8-0.3,2.7c0,0.7,0.1,1.5,0,2.2c-0.1,0.9,0.3,1.7,0.6,2.5c0,0.1,0.2,0.2,0.3,0.2c0.7,0.2,1.5-0.4,1.5-1.2
				c0-0.5,0.1-0.9,0.2-1.4C3852,109.4,3852.2,106.1,3852.5,103"/>
			<path class="st11" d="M3867.6,207.4c1.4-0.7,2.9-0.9,4.4-0.9c1,0,2,0,3.1,0c0.4,0,0.6-0.1,0.6-0.5c-0.1-1.1-0.1-2.3-0.3-3.4
				c0-0.2-0.5-0.4-0.8-0.4c-1.1,0-2.2,0.1-3.3,0.2c-1.1,0-2.2,0-3.3,0c-0.2,0-0.3-0.1-0.7-0.2c2.5-2.8,4.9-5.6,7.4-8.4
				c-0.7,0.1-1.4,0.3-2,0.2c-1.3,0-2.6-0.2-4-0.3c-0.2,0-0.5,0-0.7-0.1c-0.2-0.1-0.4-0.3-0.7-0.4c0.2-0.2,0.4-0.4,0.5-0.5
				c0.9-0.1,1.8-0.1,2.7-0.1c1.4,0,2.9,0,4.3,0.1c0.6,0,1.1,0.2,1.9,0.3c-2,3-4.9,5.1-7,7.9c1,0,1.9,0,2.8,0c0.8,0,1.6-0.1,2.4-0.1
				c1.2,0,1.6,0.5,1.6,1.6c0,1.4,0,2.7,0,4.1c0,1-0.3,1.2-1.1,1.2c-1.5,0-3,0.1-4.5,0.1C3869.6,208.1,3868.5,208.5,3867.6,207.4"/>
			<path class="st11" d="M3800.8,113.1c0.1-1.3,0.4-2.9,0.5-4.5c0.1-1,0.1-2.1,0-3.1c-0.1-1.9-0.2-3.8-0.3-5.7
				c0-0.7,0.2-1.1,0.9-1.2c0.9-0.1,1.9-0.3,2.8-0.4c0.5-0.1,0.8,0.3,0.8,0.7c0,1.2-0.1,2.5,0.2,3.7c0.3,0.9,0,1.9,0.2,2.9
				c0.2,0.9,0.1,1.9,0.2,2.8c0,1.1,0.2,2.1,0.2,3.2c0,1-0.2,2.1-0.3,3.1c0,0.3,0,0.5,0,0.8c0.1,0.7-0.2,1-0.9,1
				c-1.2-0.1-2.5-0.1-3.7-0.2c-0.2,0-0.4-0.3-0.4-0.5C3800.9,114.8,3800.8,114.1,3800.8,113.1 M3801.9,115.2c0.9,0,1.7,0,2.4,0
				c0.5,0,0.7-0.2,0.7-0.7c0-2.1,0-4.2-0.1-6.2c-0.1-2.1-0.2-4.2-0.4-6.4c0-0.6,0-1.1,0-1.7c0-0.7-0.2-0.8-0.8-0.7
				c-0.2,0.1-0.4,0.1-0.6,0.2c-0.9,0.3-0.9,0.4-0.8,1.4c0.1,1,0.3,1.9,0.2,2.9c-0.2,2.6-0.4,5.3-0.6,7.9
				C3801.8,113,3801.9,114,3801.9,115.2"/>
			<path class="st11" d="M3788.2,246c1.3,0.1,2.4,0.2,3.5,0.2c0.5,0,0.6-0.2,0.7-0.7c0.1-3,0.3-6,0.4-9c0-0.9-0.1-1.9-0.1-2.8
				c0-3.1,0.1-6.2,0.1-9.3c0-2.4-0.2-4.7-0.2-7.1c0-1.8,0.2-3.7,0.4-5.5c0.1-0.8,0.1-0.9-0.8-1c-0.6,0-1.2-0.2-1.8-0.2
				c-0.4,0-0.8,0.2-1.3,0.2c-0.2,0-0.4,0-0.5,0c0.9-3.4,1.8-6.7,2.6-10.1c0.7-3,1.2-6,1.8-9c0.3-1.6,0.7-3.3,1.1-4.9
				c0.8-3.3,1.5-6.5,2.3-9.9c-2.7-0.2-5.4-0.4-8-0.6c0-0.1,0-0.1,0-0.2c0.2-0.1,0.4-0.2,0.6-0.2c1.5,0,3,0.1,4.4,0.1
				c1.2,0,2.4,0,3.5,0c0.2,0,0.4,0.1,0.5,0.2c0.1,0,0,0.3-0.1,0.4c-0.3,0.6-0.6,1.2-0.8,1.9c-0.6,2.5-1.2,5.1-1.8,7.6
				c-0.4,1.8-0.9,3.5-1.2,5.3c-0.5,2.6-0.8,5.3-1.4,8c-0.6,2.8-1.4,5.5-2.1,8.2c-0.2,0.7-0.4,1.4-0.6,2.2c-0.1,0.5,0.2,0.6,0.6,0.6
				c0.9,0,1.7,0,2.6,0c0.8,0,1,0.2,1,1c-0.1,1.9-0.3,3.9-0.3,5.8c0,2.1,0.2,4.3,0.2,6.4c0,1.6-0.1,3.3-0.1,5c0,2,0.1,4.1,0,6.1
				c0,1.6-0.1,3.2-0.1,4.7c0,2.1-0.1,4.1-0.1,6.2c0,0.9-0.2,1.1-1,1.1c-1,0-2-0.2-3-0.3C3788.7,246.4,3788.5,246.2,3788.2,246"/>
			<path class="st11" d="M3830.6,101.9c-1.1-0.1-2.2-0.2-3.2-0.3c-0.6,0-0.8-0.3-0.8-0.9c0-1.5,0.1-3,0.2-4.4c0-1.2,0-2.4,0-3.6
				c0-0.8,0-1.5,0-2.4c-0.5,0.1-1,0.2-1.4,0.3c-0.5,0.1-0.7-0.1-0.8-0.5c0-1.4,0.1-2.9,0.7-4.2c0.1-0.2,0.5-0.3,0.7-0.2
				c1.3,0.5,2.7,0.6,4.1,0.6c0.2,0,0.4,0.3,0.4,0.6c0.2,0.6,0.1,1.2,0.4,1.7c0.8,1.8,0.6,3.7,0.6,5.6c0,1.3-0.3,2.5-0.3,3.8
				C3831.2,99.4,3830.8,100.6,3830.6,101.9 M3830,100.8c0-0.6,0.1-1.2,0.1-1.8c0.1-2.2,0.1-4.4,0.2-6.5c0.1-1.5,0-3-0.5-4.4
				c-0.2-0.5-0.5-0.7-1-0.7c-0.9,0.1-1.7,0.1-2.6,0.2c-0.2,0-0.4,0.3-0.5,0.5c-0.2,0.9-0.1,1,0.8,1.1c0.5,0,1.2,0,1.3,0.7
				c0.2,0.7,0.3,1.4,0.3,2.2c0,1.6-0.1,3.2-0.2,4.8c0,0.2-0.1,0.4-0.1,0.6c-0.1,0.8-0.2,1.6-0.2,2.4c0,0.9,0.1,1,1.1,1
				C3829.1,100.8,3829.5,100.8,3830,100.8"/>
			<path class="st11" d="M3817.2,122.3c-0.2,0-0.4,0.1-0.6,0.1c-0.5-0.1-1-0.2-1.5-0.4c-0.2-0.1-0.4-0.3-0.4-0.5c0-1.3,0-2.7,0.1-4
				c0.1-1.5-0.2-2.9-1-4.1c-0.2-0.3-0.6-0.6-0.9-0.7c-1.7-0.5-2-0.2-2.1,1.5c-0.2,1.9-0.4,3.9-0.6,5.8c-0.2,1.5-0.4,3-0.6,4.3
				c0.1,1.5,0.3,1.8,1.1,1.7c1.7-0.2,3.4-0.3,5-0.5c0.3,0,0.6-0.1,0.8-0.3c0.5-0.7,1-1.4,1.4-2.1
				C3818.1,122.5,3817.7,122.2,3817.2,122.3 M3815.6,124.3c-1.6,0-3.3-0.1-5.1-0.2c0.3-1.9,0.6-3.8,0.8-5.7c0.2-1.2,0.2-2.4,0.4-3.5
				c0-0.3,0.2-0.8,0.4-0.8c0.6-0.1,0.7,0.5,0.8,0.9c0.1,0.9,0.1,1.9,0.1,2.8c0,1.3,0,2.6,0,3.9c0,1,0.6,1.6,1.6,1.5
				c0.4,0,0.7-0.1,1.1,0c0.2,0.1,0.5,0.4,0.4,0.6C3816,124,3815.7,124.3,3815.6,124.3"/>
			<path class="st11" d="M3841.8,120.3c-0.2,1.3-0.3,2.7-0.5,4c-0.1,0.6-1.5,1.3-2.2,1.1c-0.9-0.3-1.1-0.8-0.9-1.8
				c0.1-0.6,0.2-1.2,0.3-1.8c0.1-1.5,0.2-3,0.3-4.5c0.1-0.7-0.1-1.1-0.8-1.2c-0.5-0.1-1.1-0.2-1.6-0.4c-0.2-0.1-0.6-0.2-0.6-0.4
				c-0.2-0.6-0.3-1.3-0.3-1.9c0-0.2,0.3-0.4,0.5-0.5c1.6-0.5,3.3-0.6,5-0.5c0.8,0.1,1.6,0,2.3,0.1c1,0.1,1.2,0.4,1.2,1.4
				c0,0.6-0.1,1.3-0.1,1.9c0,0.5-0.3,0.6-0.8,0.5c-1.6-0.5-1.6-0.5-1.8,1.2c-0.1,0.5-0.1,1-0.1,1.4
				C3841.7,119.4,3841.7,119.8,3841.8,120.3C3841.7,120.3,3841.8,120.3,3841.8,120.3 M3843.2,115.1c0-0.5,0.1-0.9,0-1.2
				c-0.1-0.2-0.4-0.4-0.6-0.4c-1.5,0-2.9,0.1-4.4,0c-0.7,0-0.8,0.6-1.1,0.8c0.1,0.2,0.2,0.4,0.4,0.5c0.3,0.1,0.7,0,1.1,0.1
				c0.5,0.1,1.1,0.3,1.1,0.9c0,1.2,0,2.5,0,3.7c0,1.3-0.2,2.7-0.2,4c0.5,0,0.8,0,1.2,0.1c0.1-0.7,0.2-1.4,0.2-2.1
				c0.1-1.4,0.2-2.8,0.3-4.2c0-0.5,0-1,0-1.4C3841.3,114.8,3842.2,115,3843.2,115.1"/>
			<path class="st11" d="M3828.9,138.5c0.4,0.4,0.7,0.9,1.1,1.3c-0.7,0.2-0.3,0.9-0.2,1.4c0.5,1.8,0,3.4-0.4,5.2
				c-0.5,1.7-0.7,3.4-1.1,5.1c-0.1,0.5-0.2,0.9-0.3,1.4c-0.1,0.5,0.2,0.6,0.6,0.7c1.1,0.2,2.2,0.5,3.3,0.7c0.1,0,0.1,0.1,0.3,0.3
				c-0.3,0.1-0.5,0.2-0.7,0.2c-1.7,0.1-3.4,0.3-5.1,0.4c-0.8,0-1.6-0.1-2.3-0.5c0.4-0.8,1-1.1,1.8-1c0.6,0.1,0.9-0.1,1-0.7
				c0.1-0.8,0.2-1.6,0.3-2.4c0.1-0.6,0.2-1.2,0.3-1.9c0.3-2.1,0.6-4.1,0.8-6.2c0.1-0.6,0.1-1.1,0.2-1.7c0.1-0.5-0.1-0.7-0.7-0.8
				c-1.1,0-2.1-0.1-3.2-0.3c-0.3,0-0.7-0.3-0.8-0.5c-0.1-0.5,0.3-0.7,0.8-0.7c1.5-0.1,2.9-0.2,4.4-0.2
				C3828.9,138.3,3828.9,138.4,3828.9,138.5"/>
			<path class="st11" d="M3849.9,22.8c0.1,0.5,0.4,0.9,0.3,1.4c0,1.3-0.2,2.5-0.2,3.8c0,1.7,0,3.5,0,5.2c-0.1,1.7-0.2,3.5-0.4,5.2
				c0,0.2-0.2,0.4-0.3,0.7c-0.9-0.4-0.8-1.1-0.8-1.8c0-0.8,0-1.5,0-2.3c0.1-1.6,0.1-3.3,0.2-4.9c0.1-1.9,0.2-3.7-0.4-5.5
				c-0.2-0.7-0.2-1.5-0.1-2.2c0.1-0.7-0.2-0.8-0.8-0.8c-1.1,0-2.2,0.1-3.3,0.1c0,0-0.1,0-0.1,0c-0.3-0.1-0.7-0.3-1-0.4
				c0.4-0.2,0.7-0.5,1.1-0.6c2.7-0.2,5.4-0.3,8.1-0.4c0.9,0,1.6,0.2,2.3,1c-1.1,0.1-2,0.4-2.8,0.3
				C3850.7,21.6,3849.8,21.5,3849.9,22.8"/>
			<path class="st11" d="M3817.2,21.4c0.9-0.1,1.1,0.4,1,1.1c0,0.9,0.1,1.7,0.1,2.6c0,0.7,0,1.3-0.1,2c-0.5,3.2-0.1,6.4,0.2,9.6
				c0,0.4,0.3,0.6,0.7,0.6c1.3,0.1,2.7,0.2,4,0.3c0.8,0.1,1.6,0.3,2.5,0.4c0.1,0,0.2,0.1,0.3,0.2c0.1,0.2,0.3,0.4,0.4,0.6
				c-0.2,0.1-0.4,0.3-0.5,0.3c-0.9,0.2-1.9,0.3-2.9,0.4c-0.7,0.1-1.3,0.1-2,0.2c-2.8,0.6-3.6-1-3.8-3.4c-0.1-1.9,0.1-3.8,0.1-5.8
				c0-2.9-0.1-5.8-0.1-8.7C3817,21.7,3817.1,21.6,3817.2,21.4"/>
			<path class="st11" d="M3743.9,177.4c0.2-0.8,0.7-1,1.2-1.1c0.8-0.1,1.6-0.1,2.4-0.1c0.5,0,0.7-0.1,0.7-0.6c0-1.6,0-3.3,0-4.9
				c0-1,0-2,0-3.1c0-2.1,0-4.2,0-6.3c0-2.3,0-4.6,0-6.9c0-1.2,0.2-2.4,0.3-3.6c0.1-2.4,0.2-4.7,0.2-7.1c0-0.5-0.2-0.9-0.4-1.4
				c-0.6,0.1-1.2,0.2-1.7,0.2c-0.4,0-0.8,0.1-1.2,0.1c-0.3-0.1-0.9-0.3-0.9-0.5c0-0.6,0.6-0.5,0.9-0.5c0.9-0.1,1.7,0,2.6-0.1
				c0.6,0,0.9,0.2,1,0.8c0.4,2.1,0.1,4.3,0,6.4c-0.1,2.3-0.1,4.6-0.2,6.9c0,2.1-0.1,4.1-0.1,6.2c0,2.3,0.1,4.5,0.1,6.8
				c0,2.2,0,4.4,0,6.5c0,0.7,0.3,1,1,1c1.1-0.1,2.2-0.2,3.2-0.3c0.5-0.1,0.6,0.2,0.5,0.7C3750.5,176.9,3747.3,177.1,3743.9,177.4"/>
			<path class="st11" d="M3853.1,194c-1-0.4-2.2,0.6-3.2-0.6c1.5-0.3,2.9-0.5,4.2-0.2c0.5,0.1,0.7,0.4,0.6,0.9
				c-0.2,1.6-0.4,3.2-0.5,4.8c-0.1,1-0.1,2-0.1,3.1c0,1.5,0,2.9,0,4.4c0.9,0,1.7,0,2.4,0c1,0,1.5,0.2,1.7,1.1
				c-1.5,0.5-4,0.5-9.1,0.1c0.7-0.3,1.3-0.7,2-0.8c0.7-0.2,1.4-0.1,2.2-0.2c-0.1-0.6-0.1-1.1-0.2-1.6c-0.5-1.3-0.1-2.7-0.1-4
				c0.1-2,0.4-4,0-6C3853.1,194.6,3853.1,194.3,3853.1,194"/>
			<path class="st11" d="M3834.5-12.2c-0.1,0-0.2,0.1-0.2,0.1c-0.3,0-0.7,0-1,0.1c0.2-0.3,0.2-0.8,0.5-1c0.4-0.3,0.8-0.6,1.3-0.8
				c0.6-0.4,1-0.2,1.1,0.5c0.1,1.6,0.3,3.3,0.2,4.9c-0.1,2.7-0.4,5.4-0.7,8.1c-0.1,0.9-0.3,1.8-0.5,2.6c-0.3,1.3-0.1,1.6,1.2,1.8
				c0.4,0.1,0.8,0.1,1.2,0.2c0.2,0,0.3,0.2,0.4,0.4c-0.1,0.1-0.3,0.2-0.4,0.3c-0.3,0.1-0.5,0.3-0.8,0.3c-0.4,0.1-0.9,0.3-1.3,0.3
				c-1.1,0-2.2-0.1-3.3-0.2c-0.2,0-0.4-0.2-0.6-0.3c0.1-0.1,0.3-0.3,0.4-0.4c0.4-0.4,0.9-0.6,1.5-0.5c0.2,0,0.6-0.3,0.6-0.6
				c0.2-0.7,0.3-1.5,0.4-2.3c0.2-2,0.5-4.1,0.7-6.2c0.1-1.1,0.1-2.2,0.1-3.3c0-0.2,0-0.5,0.1-0.7
				C3835.6-10.5,3835.5-10.9,3834.5-12.2"/>
			<path class="st11" d="M3690.2,54.6c0.2-0.1,0.4-0.1,0.4-0.2c0.1-0.9,0.1-1.9,0.2-2.8c-0.1,0-0.2,0-0.2,0
				c-0.2,0.4-0.3,0.9-0.5,1.3c-0.2,0.5-0.2,1.1-0.5,1.6c-0.1,0.2-0.5,0.3-0.9,0.4v-3.7c-0.1,0-0.1,0-0.2,0c-0.5,1-0.7,2-0.7,3.1
				c0,0.4-0.1,0.9-0.2,1.3c0,0.2-0.3,0.3-0.5,0.4c-0.1-0.2-0.4-0.4-0.4-0.6c0.2-1.2,0.4-2.5,0.7-3.7c0.1-0.4,0.3-0.8,0.5-1.2
				c0.4-0.8,1.1-1,1.6-0.3c0.3,0.4,0.6,0.3,0.9,0.1c0.6-0.2,0.9-0.1,1,0.6c0.1,0.8,0.2,1.6,0.2,2.5c0,0.6,0.2,0.8,0.8,0.7
				c0.4-0.1,0.9,0,1.4,0c0.6,0,0.8-0.2,0.5-0.7c-0.3-0.5-0.7-1-1.2-1.3c-0.5-0.3-1.1-0.5-1-1.2c0-0.7,0.5-1.2,1.1-1.5
				c0.4-0.2,0.9-0.2,1.4-0.3c0.5-0.1,1.3,1,1.2,1.4c0,0.1-0.4,0.2-0.5,0.2c-0.2-0.1-0.4-0.3-0.5-0.5c-0.4-0.6-0.9-0.3-1.2,0
				c-0.2,0.1-0.4,0.4-0.4,0.6c0,0.1,0.3,0.3,0.5,0.4c1.1,0.4,1.8,1.4,1.8,2.4c0,0.6-0.3,1-0.9,1.3c-0.5,0.3-1,0.2-1.5,0.1
				c-0.5-0.1-1,0.1-1.5,0.1c-0.2,0-0.5,0-0.6-0.1C3690.6,55.1,3690.4,54.9,3690.2,54.6"/>
			<path class="st11" d="M3857.7,102.9c-0.1,1.7-0.1,3.3-0.1,5c0,0.6,0.1,1.3,0.3,1.9c0.3,1.6,0.1,2.1-1.4,2.3
				c-0.7,0.1-1.4,0.1-2,0.1c-0.6,0-0.9-0.2-0.8-0.8c0.1-1.6,0.3-3.1,0.4-4.7c0.1-1.3,0.3-2.6,0.4-4c0-0.5,0.1-1,0.8-1
				c0.5-0.1,1.1-0.1,1.6-0.1C3857.6,101.7,3857.7,101.9,3857.7,102.9 M3855.8,111.1c1.1,0,1.1,0,1-1.1c-0.2-1.6-0.4-3.2-0.5-4.8
				c0-0.7,0.1-1.5,0.2-2.2c0-0.2-0.2-0.4-0.3-0.5c-0.2,0.1-0.4,0.3-0.5,0.4c-0.1,0.4-0.1,0.9-0.1,1.3c-0.3,1.9-0.6,3.8-0.8,5.8
				C3854.6,111,3854.7,111.1,3855.8,111.1"/>
			<path class="st11" d="M3800.5,104.6c-0.2,2.1-0.5,3.9-0.7,5.8c0,0.1,0,0.3,0,0.4c0,1.7-0.2,1.7-1.7,1.6c-0.6,0-1.2-0.1-1.8-0.1
				c-0.5-0.1-0.9-0.3-0.8-0.9c0.8-2.8,0.8-5.7,0.9-8.6c0-0.8,0.4-1.2,1.1-1.3c0.6-0.1,1.1-0.2,1.7-0.2c0.2,0,0.5,0.2,0.6,0.4
				C3800.1,102.6,3800.3,103.7,3800.5,104.6 M3799.1,102.1c-0.4,0.2-1.1,0.3-1.1,0.5c-0.3,0.9-0.3,2-0.4,2.9
				c-0.1,0.6-0.1,1.2-0.2,1.9c-0.2,1.3-0.5,2.5-0.7,3.9c0.8,0.1,1.5,0.1,2.2,0.2C3798.9,108.3,3800,105.3,3799.1,102.1"/>
			<path class="st11" d="M3822.7,115.8c-0.1,0.4-0.3,0.7-0.3,1.1c-0.1,1.6-0.3,3.3-0.2,4.9c0.1,0.9-0.3,1.4-0.7,2.1
				c-0.1,0.1-0.1,0.2-0.2,0.2c-0.7,0.2-1.5,0.5-2.2,0.6c-0.9,0.2-1.2-0.1-1-1c0.3-1.9,0.7-3.7,1.1-5.6c0.1-0.6,0.1-1.3,0.2-1.9
				c0.1-1.1,0.3-2.2,0.4-3.2c0-0.1,0.2-0.3,0.3-0.4c0.3-0.1,0.6-0.2,0.9-0.2c1.8,0,2.1,0.3,1.6,2.1
				C3822.3,115,3822.2,115.5,3822.7,115.8 M3819.1,123.5c1-0.1,1.9-0.8,1.9-1.5c0.3-2.7,0.6-5.4,0.9-8.1c0-0.2-0.3-0.6-0.4-0.6
				c-0.4,0-0.9,0.2-1.2,0.4c-0.1,0.1,0,0.5,0,0.7c0,0.1,0,0.1,0,0.2c-0.3,2-0.5,4-0.8,6C3819.3,121.6,3819.2,122.5,3819.1,123.5"/>
			<path class="st11" d="M3853.7,228.9c-0.2-0.2-0.4-0.5-0.4-0.7c0-1.1,0.1-2.2,0.1-3.3c0.2-2.3,0.3-4.6,0.5-6.9
				c0-0.3-0.1-0.7-0.3-1c-0.2-0.4-0.2-0.6,0.4-0.6c1.8-0.1,3.7-0.3,5.5-0.4c0.5,0,0.9,0.2,1.4,0.4c0.1,0,0.2,0.3,0.2,0.5
				c0,0.1-0.2,0.2-0.4,0.3c-1.2,0-2.4,0.1-3.5,0.1c-0.3,0-0.7,0-1,0c-0.6,0.1-1,0.4-1,1.1c-0.1,0.7-0.2,1.3-0.3,1.9
				c-0.1,0.6,0.2,0.8,0.8,0.8c0.7,0,1.3,0.1,2,0.2c0.2,0,0.5,0.1,0.7,0.3c0.1,0.1,0.2,0.3,0.2,0.4c0,0.1-0.2,0.2-0.3,0.2
				c-0.5,0-1.1,0-1.6,0c-0.5,0-1,0-1.5,0c-0.1,0-0.3,0.3-0.3,0.4c-0.2,1.6-0.4,3.2-0.6,4.9c-0.1,0.5-0.1,0.9-0.2,1.4L3853.7,228.9z"
				/>
			<path class="st11" d="M3871,217.8c-0.3,3.8-0.6,7.4-0.8,11.1c-0.6,0-1-0.3-0.9-1.1c0-1.3,0.1-2.6,0.2-3.9
				c0.1-1.8,0.3-3.7,0.4-5.5c0-0.5-0.2-0.7-0.6-0.6c-0.3,0-0.5,0-0.8,0.1c-1,0.2-2,0.2-2.9-0.7c0.3-0.1,0.5-0.3,0.7-0.3
				c1.7-0.1,3.4-0.2,5.1-0.3c0.7,0,1.4,0,2.1,0c0.2,0,0.5,0,0.7,0.1c0.3,0.2,0.5,0.4,0.7,0.6c-0.3,0.1-0.5,0.4-0.8,0.4
				C3873,217.7,3872,217.8,3871,217.8"/>
			<path class="st11" d="M3832.8,215.4c0.1,0.3,0.3,0.6,0.3,0.9c0.1,1.5,0.1,3,0.1,4.4c0,2.1-0.1,4.2-0.2,6.3c0,0.5,0.1,0.7,0.7,0.7
				c1,0,2,0,3,0.1c0.5,0,1,0.2,1.4,0.4c0.1,0.1,0.2,0.3,0.3,0.5c0,0-0.3,0.2-0.4,0.2c-1.4,0.1-2.9,0.2-4.3,0.2
				c-0.6,0-1.2-0.4-1.7-0.6c-0.1,0-0.2-0.3-0.1-0.4c0.1-0.5,0.2-1.1,0.2-1.6c0.1-2.1,0.1-4.1,0.1-6.2c0-1.4,0.2-2.8,0.3-4.1
				c0-0.3,0.2-0.5,0.3-0.8C3832.7,215.4,3832.7,215.4,3832.8,215.4"/>
			<path class="st11" d="M3816,164.7c-0.1,0.2-0.2,0.5-0.3,0.5c-0.5,0.1-1.1,0.2-1.6,0c-0.4-0.1-0.7-0.6-0.9-1
				c-1.2-1.6-2.4-3.2-3.7-4.8c-0.3-0.4-0.6-0.7-0.7-1.2c-0.3-0.8,0.4-1.1,0.8-1.4c0.4-0.4,0.6,0.2,0.8,0.4c1.2,1.5,2.4,3,3.5,4.4
				c0.6,0.8,1.3,1.7,1.9,2.6C3815.8,164.3,3815.9,164.5,3816,164.7"/>
			<path class="st11" d="M3882.2,52.6c-0.1,0.4-0.3,0.7-0.8,0.8c-0.2,0.1-0.5,0.4-0.6,0.7c-0.1,0.5,0.1,1.1,0.1,1.6
				c0,0.2-0.1,0.5-0.2,0.7c-0.2-0.1-0.6-0.1-0.7-0.3c-0.3-0.5-0.5-1.1-0.6-1.5c-0.3,0-0.8,0.2-1,0c-0.5-0.6,0.6-0.5,0.5-1
				c-0.3-0.1-0.6-0.2-1-0.3c0.1-0.2,0.2-0.4,0.3-0.4c0.7-0.1,0.8-0.6,0.7-1.2c-0.1-1.5,0.8-2.6,2.3-2.9c1.5-0.3,1.7-0.2,1.8,1.4
				c0,0.6,0,1.3,0,1.9C3883.1,52.7,3882.8,52.8,3882.2,52.6c-0.2-0.6-0.4-1.3-0.6-2c-0.2,0.2-0.3,0.4-0.4,0.7
				C3880.9,52.6,3880.9,52.6,3882.2,52.6 M3879.9,51.5c0.1,0,0.2,0.1,0.3,0.1c0.1-0.5,0.3-1,0.4-1.5c-0.1,0-0.1,0-0.2-0.1
				C3880.2,50.5,3880,51,3879.9,51.5"/>
			<path class="st11" d="M3774.3,83.2c0.5,0,0.8,0,1.1,0c0.2,0,0.3,0.2,0.5,0.3c-0.1,0.1-0.2,0.3-0.4,0.4c-0.1,0.1-0.2,0.1-0.3,0.1
				c-0.6,0.2-1.1,0.5-1,1.3c0.1,0.6-0.1,1.2-0.2,1.8c-0.1,0.4-0.2,0.6-0.7,0.5c-0.8-0.1-1.1-0.5-1-1.3c0.1-0.3,0-0.7,0-1
				c-0.1,0-0.1,0-0.2,0c-0.1,0.3-0.2,0.6-0.4,0.8c-0.2,0.2-0.4,0.3-0.6,0.5c-0.1-0.2-0.4-0.4-0.4-0.6c-0.1-0.6-0.3-1.2-0.3-1.8
				c0.1-0.8,0.3-1.7,0.5-2.5c0.1-0.6,0.2-1.2,0.4-1.8c0.1-0.2,0.4-0.3,0.8-0.5c-0.2,1.8-0.4,3.4-0.6,5c0.1,0,0.2,0.1,0.2,0.1
				c0.2-0.2,0.3-0.3,0.5-0.5c0.3-0.2,0.6-0.4,0.8-0.6c0.2-0.1,0.3-0.4,0.4-0.6c0.2-0.7,0.3-1.5,0.5-2.2c0.1-0.2,0.4-0.3,0.6-0.4
				c0.1,0.2,0.2,0.4,0.2,0.6c0,0.3-0.3,0.7,0.2,0.9c-0.1,0.1,0.2,0.6-0.3,0.2C3774.7,82.4,3774.5,82.7,3774.3,83.2"/>
			<path class="st11" d="M3838.5,39.8c0.2,0.2,0.4,0.4,0.6,0.6c0.1-0.4,0.1-0.9,0.2-1.4c0.6,0.4,0.9,0.8,0.8,1.4
				c-0.1,1.3-0.3,2.6-0.5,3.8c-0.1,0.6,0.1,0.8,0.6,1c0.1-0.2,0.2-0.3,0.4-0.7c0.1,0.5,0.2,0.9,0.3,1.3c-0.7,0.2-1.4,0.3-1.5,1.2
				c0,0.2-0.2,0.3-0.4,0.5c-0.1-0.2-0.3-0.3-0.4-0.5c-0.1-0.4,0-0.7,0-1.1c0-0.2-0.2-0.4-0.2-0.6c-0.2,0.1-0.4,0.2-0.6,0.3
				c0,0-0.1,0.1-0.1,0.1c-0.4,0.4-0.9,1-1.4,0.6c-0.4-0.3-0.7-1-0.7-1.6c0-1,0.5-1.8,1.5-2.2c0.7-0.2,1-0.6,0.9-1.3c0-0.3,0-0.7,0-1
				C3838.4,39.9,3838.5,39.8,3838.5,39.8 M3837.6,43.5c-0.8,0.2-1,0.6-0.8,1.4C3837.1,44.4,3837.3,44,3837.6,43.5"/>
			<path class="st11" d="M3890.1,211.3c0,0.6,0.1,1.2,0.1,1.7c0.1,0.4-0.1,0.6-0.5,0.7c-0.5,0-1,0.1-1.5,0.2
				c-0.9,0.1-1.7-0.4-1.8-1.4c-0.1-1-0.1-2.1-0.1-3.1c0-0.4,0.2-0.7,0.7-0.7c0.6,0,1.1,0,1.7,0c1,0,1.5,0.6,1.4,1.5
				C3890.1,210.6,3890.2,210.9,3890.1,211.3C3890.1,211.3,3890.1,211.3,3890.1,211.3"/>
			<path class="st11" d="M3843.3,161.6c-0.4,0.4-0.8,0.7-1.1,1.1c-0.5,0.5-0.9,1.1-1.5,1.5c-0.4,0.3-0.9,0.3-1.4,0.4
				c-0.1,0-0.3-0.3-0.3-0.4c0.2-0.5,0.3-1.1,0.7-1.6c1.4-1.7,2.8-3.4,4.3-5.1c0.5-0.6,1.1-0.5,1.7-0.3c0.2,0.1,0.4,0.5,0.4,0.8
				c0,0.3-0.2,0.6-0.4,0.8c-0.7,0.8-1.5,1.6-2.3,2.4C3843.4,161.4,3843.4,161.5,3843.3,161.6L3843.3,161.6z"/>
			<path class="st11" d="M3678.6,102.8c-0.1,0-0.2,0.1-0.3,0.1c-0.1,0-0.2,0.1-0.2,0.1c0-0.1-0.1-0.1-0.1-0.1
				c0.1-0.4,0.1-0.7,0.2-1.1c0.1-0.2,0.2-0.5,0.3-0.6c0.9-0.9,3.3-0.8,4.3,0c0.5,0.5,0.6,1.2,0.2,1.8c-0.3,0.4-0.6,0.8-1,1.1
				c-0.4,0.3-0.4,0.6-0.1,0.9c0.8,0.6,0.8,1.3,0.5,2.2c-0.2,0.5-0.5,0.8-1,0.9c-0.7,0.2-0.9,0.1-1.1-0.7c-0.1-0.4-0.3-0.8-0.4-1.2
				C3679.5,105.1,3679,104,3678.6,102.8 M3680.3,104.3c0.8-0.5,1.4-0.9,2-1.4c0.2-0.1,0.3-0.5,0.3-0.6c0-0.2-0.4-0.5-0.5-0.5
				c-0.8,0.1-1.5,0.3-2.2,0.5c-0.1,0-0.1,0.3-0.1,0.4C3679.8,103.2,3680,103.7,3680.3,104.3 M3680.9,105.2c-0.1,0.1-0.2,0.2-0.3,0.2
				c0.2,0.5,0.4,1,0.6,1.4c0.1,0,0.2,0,0.3,0c0.1-0.3,0.4-0.6,0.3-0.8C3681.6,105.7,3681.2,105.5,3680.9,105.2"/>
			<path class="st11" d="M3684,88.5c-0.2-0.1-0.4-0.2-0.6-0.3c-0.7-0.1-0.9-0.7-0.8-1.2c0.2-0.8,0.4-1.8,1.2-2.3
				c0.3-0.2,0.7-0.2,1-0.1c0.4,0.1,0.7,0.5,0.7,1c0.1,1.6-0.1,3.1-0.6,4.6c0,0,0,0.1,0,0.1c-0.6,0.9-1.2,1.9-1.9,2.8
				c-0.2,0.2-0.8,0.2-1.2,0.2c-0.4,0-0.9-0.1-1.3-0.3c-0.2-0.1-0.4-0.4-0.5-0.6c0-0.1,0.3-0.4,0.5-0.5c0.2-0.1,0.4-0.2,0.6-0.2
				C3683.2,91.6,3683.7,90.2,3684,88.5 M3684.5,86c-1,0.4-1.3,0.9-0.9,1.5C3683.9,87,3684.1,86.6,3684.5,86"/>
			<path class="st11" d="M3855.4,52.1c0.6-0.1,1.2-0.2,1.8-0.2c0-0.1,0-0.1,0.1-0.2c-0.4-0.2-0.8-0.3-1.3-0.5
				c0.3-0.2,0.5-0.3,0.7-0.3c0.3-0.1,0.6-0.4,0.6-0.4c1-0.2,1.5-1.2,2.4-1.7c0,0,0.1,0.1,0.1,0.1c-0.2,0.5-0.3,1-0.5,1.6
				c1.4-0.1,2.3-1.5,3.9-0.9c-0.4,0.3-0.7,0.5-1,0.7c0.3,0.2,0.4,0.4,0.7,0.7c-1,0.3-1.8,0.6-2.7,0.9c0.2,0.3,0.4,0.6,0.6,0.9
				c0.1,0.2,0.1,0.5,0.2,0.8c-0.3,0-0.5,0-0.8-0.1c-0.1,0-0.2-0.1-0.2-0.1c-0.5,0.9-1.1,0.9-1.7,0c-0.3-0.5-0.6-0.3-1-0.2
				c-0.6,0.2-0.9,0.1-0.8-0.6c-0.4,0-0.8-0.1-1.2-0.1V52.1z"/>
			<path class="st11" d="M3669.4,82.3c1.6,1.1,1.4,3,2.3,4.3c0-0.2,0.1-0.4,0.1-0.5c0-0.4,0.2-0.7,0.6-0.6c0.4,0.1,0.7,0.1,0.8,0.7
				c0,0.4,0.3,0.8,0.5,1.2c0.1,0,0.2,0,0.2,0c0.8-1.7,1.7-3.4,2.5-5c1.1,0.8,0.3,1.6,0,2.4c-0.6,1.3-1.3,2.5-2,3.7
				c-0.1,0.2-0.3,0.3-0.6,0.5c-0.4-0.5-0.8-1-1.2-1.6c-0.2,0.4-0.2,0.7-0.4,1c-0.2,0.3-0.5,0.5-0.8,0.8c-0.2-0.3-0.5-0.5-0.6-0.8
				c-0.4-1.3-0.7-2.8-1.2-4C3669.5,83.6,3669.3,83.1,3669.4,82.3"/>
			<path class="st11" d="M3767.6,54.1c0,0.2,0,0.4,0,0.7c-0.1,0.2-0.2,0.5-0.3,0.7c-0.2-0.1-0.4-0.3-0.6-0.3c-0.3-0.1-0.5-0.1-0.8,0
				c-0.8,0.1-1.6,0.4-2.4,0.4c-0.3,0-0.8-0.4-0.9-0.8c-0.2-0.9-0.3-2,0.4-2.8c0.5-0.6,1.3-1,2.1-1.4c0.1-0.1,0.6,0.5,0.8,0.8
				c0.1,0.4,0.1,0.9,0,1.3c0,0.2-0.3,0.4-0.5,0.4c-0.5,0.1-0.9,0-1.4,0.1c-0.3,0-0.7,0.3-0.7,0.5c-0.1,0.6,0.4,1.3,0.9,1.3
				c0.5,0,1-0.1,1.4-0.3c0.5-0.2,0.8-0.5,0.8-1.1c0-0.6,0.2-1.3,0.3-1.9c0.2-0.8,0.9-1.1,1.5-1.5c1.2-0.8,1.2-0.7,1.7,0.6
				c0.1,0.4,0.2,0.7,0.2,1.1c0,0.2-0.2,0.4-0.3,0.6c-0.2-0.2-0.3-0.3-0.5-0.5c-0.1-0.1,0-0.4-0.1-0.5c-0.3-0.3-0.6-0.5-0.9-0.7
				c-0.2,0.3-0.4,0.5-0.5,0.8c-0.2,0.8-0.3,1.6-0.5,2.4C3767.5,54.1,3767.6,54.1,3767.6,54.1 M3763.6,52.2c0,0.1,0.1,0.1,0.1,0.2
				c0.4-0.1,0.8-0.2,1.1-0.4c0.1-0.1,0.2-0.4,0.2-0.6c-0.2-0.1-0.5-0.2-0.6-0.2C3764.1,51.5,3763.9,51.9,3763.6,52.2"/>
			<path class="st11" d="M3738.3,107.9c0-0.8-0.1-1.9-0.1-2.9c0-1.4,0-1.3-1.2-1.9c-0.3-0.1-0.6-0.6-0.6-0.9c0-0.2,0.4-0.6,0.7-0.6
				c0.6-0.1,1.1,0,1.7,0c0.6,0,1.2,0,1.8,0.1c0.3,0,0.7,0.2,1,0.4c-0.2,0.3-0.2,0.7-0.5,0.8c-1.6,0.7-0.9,2-0.8,3.1
				c0,0.3,0.1,0.6,0.1,0.9c0,0.7-0.1,0.7-0.8,0.6C3739.3,107.4,3738.9,107.7,3738.3,107.9"/>
			<path class="st11" d="M3680.8,52.4c0.1,0.8,0.3,1.7,0.4,2.5c0,0.1,0.1,0.2,0.1,0.4c-0.1,0.3-0.2,0.5-0.3,0.8
				c-0.2-0.2-0.5-0.3-0.6-0.5c-0.2-0.5-0.3-0.9-0.3-1.4c0-0.7-0.5-0.8-1.1-0.8c-0.5-0.1-1-0.1-1.2,0.6c-0.1,0.5-0.3,1.1-0.5,1.6
				c-0.1,0.2-0.4,0.3-0.6,0.5c-0.1-0.3-0.3-0.6-0.2-0.8c0.5-1.7,1-3.4,1.5-5.1c0.2-0.8,0.5-1.6,0.7-2.4c0.1-0.5,0.4-0.7,0.8-0.5
				c0.1,0.1,0.2,0.5,0.2,0.7c-0.1,0.8,0,1.5,0.3,2.2c0.3,0.7,0.5,1.4,0.7,2.2C3680.9,52.4,3680.8,52.4,3680.8,52.4 M3679.3,50.3
				c-0.1,0-0.1,0-0.2,0c-0.2,0.7-0.4,1.3-0.6,2.1c1.4-0.3,1.4-0.3,1-1.4C3679.4,50.7,3679.4,50.5,3679.3,50.3"/>
			<path class="st11" d="M3864.4,54.8c0.5-0.1,1-0.2,1.6-0.2c0.6,0,1.2,0,1.7-0.1c0.3-0.1,0.5-0.4,0.8-0.6c-0.2-0.2-0.4-0.6-0.7-0.7
				c-1-0.4-2-0.8-3-1.2c-0.3-0.1-0.6-0.4-1-0.8c0.4-0.2,0.7-0.4,1-0.5c1.1-0.4,2.1-0.7,3.2-1c0.9-0.3,1.7-0.1,2.4,0.4
				c0.2,0.1,0.2,0.3,0.3,0.5c-0.2,0.1-0.4,0.2-0.6,0.2c-1.2,0.1-2.4,0.1-3.6,0.1c0,0.1-0.1,0.2-0.1,0.3c0.3,0.2,0.6,0.5,1,0.7
				c0.5,0.3,1.1,0.4,1.7,0.7c0.7,0.4,0.8,0.9,0.4,1.7c-0.6,1-1.5,1.2-2.6,1.2c-0.6,0-1.3-0.1-1.9-0.1c-0.2,0-0.3-0.2-0.5-0.2
				C3864.3,55,3864.4,54.9,3864.4,54.8"/>
			<path class="st11" d="M3759.5,84.6c0.4-0.6,0.7-1.2,1.1-1.8c0.4-0.7,0.8-1.3,1.2-2c0.1-0.1,0.4-0.3,0.5-0.2
				c0.1,0,0.3,0.3,0.3,0.5c-0.3,1.4-0.6,2.9-1.5,4.1c-0.2,0.3-0.5,0.6-0.7,0.8c-0.6,0.5-1.1,0.4-1.5-0.2c-0.1-0.2-0.2-0.3-0.4-0.6
				c-0.1,0.3-0.2,0.5-0.3,0.7c-0.3,0.5-0.8,0.6-1,0.1c-0.8-1.5-1.5-3.1-2.2-4.7c0.5-0.3,0.8,0,1,0.3c0.5,0.8,0.9,1.6,1.3,2.4
				c0.1,0.2,0.2,0.4,0.3,0.6C3758.2,83.6,3758.2,83.6,3759.5,84.6"/>
			<path class="st11" d="M3878.1,161.7c-0.1,1.3-0.2,2.4-0.8,3.4c-0.2,0.4-0.4,0.7-0.6,1.1c-0.4,0.8-0.6,1.7,0.5,2.3
				c-0.8,0.3-1.2-0.1-1.4-1c-0.5,0.5-0.8,1-1.2,1.3c-0.2,0.2-0.4,0.4-0.7,0.6c-0.2-0.2-0.3-0.4-0.4-0.7c-0.1-0.2-0.1-0.5-0.1-0.8
				c-0.6,0.3-1.1,0.5-1.7,0.8c-0.4,0.2-0.8,0.3-1.2,0.4c-0.8,0-1.2-0.8-0.8-1.6c0.2-0.4,0.5-0.7,0.9-1c0.4-0.3,0.9-0.6,1.4-0.9
				c0,0,0.1-0.1,0.2-0.2c-0.2-0.2-0.3-0.5-0.6-0.8c0.2-0.1,0.5-0.2,0.6-0.2c0.1,0,0.3,0.3,0.3,0.4c0.1,0.9,0.3,1.8,0.4,2.8
				c0.9-0.9,1.8-1.9,2.9-2.6C3877.1,164.2,3876.8,162.5,3878.1,161.7 M3876.2,165.7c-0.1,0-0.2-0.1-0.2-0.1c-1,0.5-1.7,1.3-2,2.4
				c0,0.1,0.1,0.3,0.1,0.5c0.1-0.1,0.3-0.1,0.4-0.2c0.4-0.4,0.8-0.9,1.2-1.4C3875.9,166.6,3876,166.1,3876.2,165.7 M3872.2,166.1
				c-0.7,0.5-1.3,1-1.8,1.5c-0.3,0.3,0,0.5,0.3,0.5C3871.9,168.4,3872.6,167.7,3872.2,166.1"/>
			<path class="st11" d="M3858.7,105.2c1.5,0,2.8,0,4.1,0c1.1,0,2,0.9,1.9,1.9c-0.1,0.7-0.4,1.4-0.7,2.1c-0.1,0.1-0.4,0.2-0.6,0.2
				c-0.4,0-0.9,0-1.3,0.1c-0.9,0.3-1.7,0-2.4-0.3c-0.2-0.1-0.5-0.4-0.5-0.6C3858.9,107.4,3858.8,106.3,3858.7,105.2 M3861.2,108.5
				c1.3,0,1.5-0.2,1.7-1.3c0.1-0.5,0.1-1-0.6-1.1c-0.6-0.1-1.2-0.2-1.8-0.2c-0.3,0-0.7,0.2-0.8,0.4
				C3859.4,107.2,3860.3,108.6,3861.2,108.5"/>
			<path class="st11" d="M3843.3,161.7c0.9-0.2,1.1-1.2,1.7-1.7c0.5-0.5,0.9-0.5,1.3-0.1c0.6,0.5,0.6,0.8,0,1.3
				c-0.4,0.4-0.8,0.8-1.3,1.2c0.1,0.1,0.1,0.1,0.2,0.2c0.3-0.2,0.6-0.4,1-0.7c0.2,0.7,0.5,1.3,0.6,2c0.1,0.8-0.2,1-1,0.7
				c-0.1-0.1-0.3,0-0.4-0.1c-0.9-0.1-1.1-0.5-0.8-1.1c-0.4,0.4-1.1,1-1.6,1.6c-0.3,0-0.3,0-0.4,0c-1.1-0.9-1.1-0.9-0.2-2
				C3842.7,162.5,3843,162.1,3843.3,161.7L3843.3,161.7z"/>
			<path class="st11" d="M3744.1,87.5c0.3,0.2,0.4,0.4,0.6,0.5c0,0-0.1,0.1-0.1,0.1c-0.4-0.4-0.9-0.7-1.4-1.2c0.5-0.3,0.9-0.8,1.4-1
				c1.7-0.7,3.5-1.4,5.2-2c1.3-0.4,2.6-0.7,3.9-1c0.2,0,0.4,0,0.8,0c-0.4,0.5-0.4,0.9-1,1.1c-2.8,1-5.5,1.9-8.3,2.8
				C3744.8,87.1,3744.5,87.3,3744.1,87.5"/>
			<path class="st11" d="M3728.1,104.4c0.5,0,0.9,0,1.3,0c0.2,0,0.4,0.3,0.6,0.4c-0.2,0.2-0.3,0.5-0.5,0.5c-1.9,0.2-1.4,0.4-1.6,2
				c0,0.2,0,0.5-0.1,0.7c-0.1,0.2-0.4,0.4-0.6,0.6c-0.2-0.2-0.5-0.5-0.5-0.7c-0.1-1-0.1-2-0.1-3.1c0-0.6,0.1-1.1,0.2-1.7
				c0.1-0.8,0.4-1.2,1.2-1.1c1,0.1,2.1,0.3,3.1,0.5c0.1,0,0.4,0.3,0.3,0.4c0,0.2-0.2,0.4-0.4,0.4c-0.7,0.1-1.4,0.2-2.2,0.3
				C3728.5,103.7,3728,103.7,3728.1,104.4"/>
			<path class="st11" d="M3687.3,104.6c0.1-0.6,0-1.2-0.7-1.4c-0.9-0.3-1.2,0.4-1.6,1.2c-0.1-0.4-0.2-0.7-0.2-0.9
				c0,0-0.1,0.1-0.1,0.1c-0.2-0.2-0.6-0.4-0.6-0.6c0-0.2,0.3-0.5,0.6-0.6c0.7-0.3,1.4-0.5,2-0.8c0.4-0.2,0.6,0,0.8,0.3
				c0.6,1,0.7,2,0.5,3.1c-0.1,0.4-0.2,0.7,0.3,0.9c0.1,0,0.1,0.3,0.1,0.4c0,0.1-0.2,0.2-0.3,0.3c-0.1,0.1-0.3,0.1-0.4,0.2
				c-0.5,0.3-1,0.7-1.6,0.9c-0.3,0.1-0.9-0.3-1.1-0.6c-0.5-0.7,0-1.8,0.8-2.1C3686.3,104.9,3686.7,104.8,3687.3,104.6"/>
			<path class="st11" d="M3845.1,215.9c1.1,0.2,1.2,0.3,1.1,1.3c-0.2,2.2-0.4,4.4-0.6,6.7c-0.1,1.3-0.3,2.5-0.4,3.7
				c0,0.3-0.2,0.7-0.4,1c-0.6-0.2-0.7-0.5-0.7-1c0.2-2.1,0.3-4.1,0.5-6.2c0.1-1.7,0.2-3.4,0.4-5.2
				C3845,216.2,3845.1,216.1,3845.1,215.9"/>
			<path class="st11" d="M3833.2,41.5c-0.1-0.8,0.4-1.7,1.3-1.7c1.1,0,0.5,1.1,0.9,1.6c0,0,0.2,0,0.3,0.1c0.2,0.1,0.4,0.3,0.7,0.4
				c-0.2,0.2-0.4,0.3-0.6,0.5c-0.2,0.2-0.6,0.4-0.6,0.7c-0.1,0.6,0,1.3-0.1,2c-0.1,0.4-0.3,0.7-0.5,1.1c0,0.1-0.4,0-0.4,0
				c-0.1-0.6-1.3-0.2-1.1-1.2c0.1-0.5,0.1-1,0.1-1.5c0-0.2-0.1-0.4-0.2-0.6c-0.8-0.6-0.8-0.8,0.2-1.3
				C3833.2,41.5,3833.2,41.5,3833.2,41.5"/>
			<path class="st11" d="M3888,51.1c0.5-0.4,0.5-0.7-0.1-1c-0.6-0.3-1.1-0.4-1.5,0.3c-0.3,0.5-0.6,1.1-0.8,1.7
				c-0.2,0.5,0.3,0.5,0.6,0.5c0.3,0.1,1,0.2,1,0.3c0,0.6-0.6,0.4-0.9,0.5c-0.6,0.1-0.9,0.3-1,1c-0.1,0.4-0.2,0.8-0.4,1.2
				c-0.1,0.2-0.4,0.2-0.5,0.3c-0.1-0.3-0.4-0.6-0.3-0.8c0.3-1.1,0.3-1.1-0.6-1.7c-0.1-0.1-0.2-0.1-0.2-0.2c0-0.1-0.1-0.2-0.1-0.4
				c1.4,0.1,1.6-0.9,1.9-1.9c0.1-0.4,0.4-0.7,0.6-1c0.6-1.3,2.4-1.7,3.4-0.7c0.5,0.5,0.4,1.1,0.1,1.6c-0.1,0.2-0.6,0.3-0.9,0.5
				C3888.1,51.3,3888,51.2,3888,51.1"/>
			<path class="st11" d="M3710.9,110.3c0.1-0.8-0.1-1.2-0.8-1.3c-0.8-0.1-0.9-0.8-1-1.4c-0.2-1.3-0.2-2.7-0.3-4.1
				c0-0.2,0.2-0.5,0.3-0.8c1,0.3,1.1,0.4,1,1.3c0,0.7,0,1.4,0.1,2.2c0.1,0.7,0.4,1.1,1.3,1.2c0.8,0.1,1.5,0.3,2.2,0
				c0.1,0,0.3,0.1,0.3,0.2c-0.1,0.2-0.1,0.5-0.3,0.6c-0.3,0.2-0.7,0.3-1.1,0.4C3712,108.9,3711.2,109.2,3710.9,110.3"/>
			<path class="st11" d="M3795,105.9c0,0.6,0,1.1,0,1.5c0,0.4-0.2,0.5-0.7,0.5c-1.2-0.1-2.3,0-3.5-0.1c-0.4,0-0.8-0.1-1-0.3
				c-0.1-0.2,0-0.6,0.1-1c0.1-0.5,0.2-0.9,0.3-1.3c0.2-0.9,0.6-1.2,1.5-1.3c0.7-0.1,1.4-0.2,2.2-0.2c0.5,0,0.8,0.3,0.9,0.8
				C3794.9,105,3795,105.5,3795,105.9 M3793.8,104.4c-0.3,0-0.6,0.1-1,0.1c-1.5,0.1-1.5,0.1-1.5,1.6c0,0,0,0.1,0,0.1
				c0,0.4,0.2,0.6,0.6,0.6c0.5,0,1,0,1.4,0c0.6,0.1,0.8-0.2,0.7-0.7C3794,105.6,3793.9,105,3793.8,104.4"/>
			<path class="st11" d="M3765.7,89.9c0.1,0.2,0.2,0.4,0.4,0.6c0.7-0.3,1.2-0.7,1.4-1.4c0.2-0.4,0.4-0.9,0.5-1.3
				c0.2-0.5,0.2-0.8-0.4-1.1c-0.3-0.1-0.6-0.7-0.6-1.1c0-1.2,0.9-1.9,1.9-2.5c0.5-0.3,1.2,0.2,1.1,0.7c-0.5,1.7-0.9,3.5-1.5,5.2
				c-0.3,1.1-1.1,1.8-2.2,2.1c-0.3,0.1-0.8-0.1-1-0.4c-0.1-0.2,0-0.6,0-0.9C3765.5,89.9,3765.6,89.9,3765.7,89.9 M3768.7,84.4
				c-0.7,0.6-0.9,1-0.6,1.7C3768.7,85.7,3768.9,85.2,3768.7,84.4"/>
			<path class="st11" d="M3758.5,52.8c-0.3,0.1-0.7,0.2-1,0.3c0-0.1-0.1-0.1-0.1-0.2c0.3-0.4,0.5-0.9,1.1-1c0.3-0.1,0.6-0.3,0.6-0.6
				c0.5-1.4,1-2.8,1.5-4.2c0.6,0.3,0.7,0.7,0.5,1.2c-0.5,1-0.9,2-1,3.3c0.6,0,1-0.1,1.6-0.1c-0.3,0.7-0.8,0.6-1.3,0.8
				c-0.2,0.1-0.6,0.1-0.6,0.3c-0.3,0.7-0.5,1.4-0.6,2.1c-0.1,0.7,0.2,1,0.9,0.9c0.6-0.1,1.2-0.2,1.8-0.3c0,0.1,0.1,0.2,0.1,0.3
				c-0.3,0.2-0.5,0.3-0.8,0.5c-0.2,0.1-0.5,0.2-0.7,0.3c-0.6,0.3-1.2,0.5-1.8,0c-0.6-0.5-0.5-1.2-0.4-1.9c0.1-0.5,0.3-0.9,0.4-1.4
				C3758.6,52.9,3758.5,52.8,3758.5,52.8"/>
			<path class="st11" d="M3857.5,164.9c0.1-0.3,0.3-0.5,0.5-0.8c0.1,0.3,0.2,0.5,0.2,0.7c0.1,0.1,0.2,0.1,0.3,0.2l1.9-2.3
				c0.1,0.1,0.2,0.1,0.3,0.2c-0.1,0.2-0.2,0.4-0.3,0.6c-0.5,0.6-1.2,1-1.3,1.8c0,0.2-0.3,0.4-0.5,0.4c-0.8,0.2-0.8,0.7-0.7,1.4
				c0.1,0.6,0.3,1.2-0.3,1.8c-0.2-0.4-0.3-0.8-0.5-1c-0.2-0.2-0.6-0.1-1-0.1c0,0.1,0,0.1-0.1,0.2c-0.1-0.1-0.2-0.2-0.2-0.3
				c-0.1-0.7-0.2-1.3-1.1-1.3c0-0.3,0-0.7,0.1-0.8c0.9-0.1,1.1-0.6,1-1.4c0-0.2,0.1-0.4,0.4-0.5c0.1,0.4,0.1,0.9,0.2,1.3l0.3,0V162
				c0.1,0,0.2,0,0.3,0c0.1,1,0.2,1.9,0.3,2.9C3857.3,164.9,3857.4,164.9,3857.5,164.9"/>
			<path class="st11" d="M3809,159.5c0.1,0.2,0.1,0.5,0.2,0.7c1,1.3,2,2.6,2.9,3.9c0.3,0.4,0.8,0.9,0.2,1.5c-0.5,0.6-0.7,0.6-1.2,0
				c-0.7-0.8-1.6-1.6-2.2-2.5c-0.5-0.6-0.9-1.3-1.1-2c-0.2-0.7,0.3-1.2,0.8-1.2C3808.8,159.7,3808.9,159.6,3809,159.5"/>
			<path class="st11" d="M3829.7,162c1.7,0.4,1.9,0.6,1.7,1.4c-0.5-0.1-1-0.1-1.4-0.2c-0.6-0.2-0.8,0.1-0.9,0.7c0,0.3,0,0.7-0.2,1
				c-0.1,0.2-0.4,0.5-0.5,0.5c-0.3-0.1-0.5-0.3-0.7-0.5c-0.1-0.1,0-0.4,0-0.6c0.3-1.3,0.6-2.7,0.8-4c0.1-0.6,0.4-0.9,1.1-0.8
				c1,0.2,1.9,0.4,2.9,0.7c0.3,0.1,0.5,0.4,0.7,0.6c-0.3,0.1-0.6,0.3-0.9,0.2c-0.7-0.1-1.4-0.3-2-0.5c-0.5-0.1-0.8,0.1-0.7,0.7
				C3829.7,161.3,3829.7,161.6,3829.7,162"/>
			<path class="st11" d="M3758.5,49.9c-0.2-0.5-0.3-0.9-0.5-1.2c-0.1-0.2-0.3-0.5-0.5-0.5c-0.2,0-0.5,0.2-0.6,0.4
				c-0.4,1.1-0.8,2.2-1.1,3.4c0.6,0.1,1.3-0.3,1.4,0.6c-0.2,0.1-0.4,0.2-0.6,0.2c-0.7,0.1-0.9,0.5-0.9,1.2c0,0.4,0,0.7,0,1.1
				c0,0.2-0.2,0.4-0.3,0.6c-0.2-0.2-0.4-0.3-0.5-0.5c-0.1-0.3,0-0.6,0-0.9c0-0.4,0.1-0.8-0.6-0.8c-0.2,0-0.4-0.3-0.5-0.4
				c0-0.2,0.2-0.4,0.4-0.5c0.7-0.1,0.8-0.6,0.9-1.1c0.1-1.2,0.4-2.4,1.2-3.3c0.3-0.3,0.7-0.6,1.1-0.6c0.3,0,0.7,0.4,0.9,0.8
				C3758.6,48.6,3759,49.1,3758.5,49.9"/>
			<path class="st11" d="M3765.4,84.5c-0.8,0.1-1.6,0.2-2.4,0.3c-0.1,0-0.3,0.4-0.2,0.5c0.3,0.3,0.6,0.7,1,1
				c0.1,0.1,0.4,0.1,0.6,0.2c-0.5,0.8-1.6,0.7-2.2-0.2c-0.4-0.6-0.3-1.8,0.2-2.4c0.9-1,1.4-1.3,2.4-0.8c0.6,0.3,1.1,0.8,1.8,0.8
				c0.1,0,0.3,0.3,0.2,0.4c-0.1,0.7-0.2,1.4-0.4,2.1c-0.1,0.2-0.3,0.4-0.4,0.6c-0.2-0.2-0.5-0.3-0.5-0.5
				C3765.4,85.7,3765.4,85.1,3765.4,84.5"/>
			<path class="st11" d="M3830.8,45c0.2-0.1,0.4-0.2,0.6-0.2c0.2,0,0.4,0,0.7,0c-0.1,0.2-0.1,0.6-0.3,0.7c-0.3,0.2-0.7,0.3-1.1,0.4
				c-0.4,0.1-0.8,0.1-1.2,0.2c-0.6,0.1-0.9-0.2-1.3-0.8c-0.6-1.1-0.4-2.3-0.4-3.4c0-0.3-0.1-0.7-0.1-1c0-0.3,0-0.6,0-1
				c0.5,0.4,0.9,0.6,1.1,0.8c0,0.9-0.1,1.8,0,2.6c0,0.7,0.5,0.9,1.2,0.8C3830.8,43.7,3831,44,3830.8,45"/>
			<path class="st11" d="M3750.6,44.8c-0.1,0.6-0.2,1.2-0.3,1.7c-0.6,2.8-0.7,5.7-0.6,8.6c0,0.7,0.2,1.6-1.1,1.6
				c0-0.1-0.1-0.3-0.1-0.5c0.3-2.9,0.5-5.8,0.8-8.8c0-0.1,0.1-0.3,0-0.4c-0.5-1,0.5-1.4,0.8-2C3750.1,44.9,3750.3,44.9,3750.6,44.8"
				/>
			<path class="st11" d="M3691.9,84.6c-1.2-0.1-1.3,0.5-1.3,1.4c0,0.8-0.1,1.6-0.3,2.5c-0.1,0.3-0.4,0.5-0.6,0.7
				c-0.1-0.2-0.4-0.5-0.4-0.7c0-0.8,0.1-1.6,0.2-2.4c0.1-0.5,0.1-0.8-0.6-0.8c-0.3,0-0.5-0.4-0.7-0.6c0.2-0.1,0.5-0.3,0.7-0.3
				c0.4,0,0.8-0.2,0.8-0.7c0-0.7,0-1.3,0.1-2c0-0.3,0.3-0.5,0.4-0.7c0.2,0.2,0.5,0.4,0.5,0.7c0.1,0.4,0,0.9-0.1,1.3
				c0,0.5,0,0.9,0.6,1c0.2,0,0.3,0.2,0.5,0.4C3691.8,84.4,3691.8,84.5,3691.9,84.6"/>
			<path class="st11" d="M3703.8,87.3c-3.3-0.1-6.4-0.2-9.5-0.3c-0.2,0-0.4-0.3-0.6-0.4c0.2-0.1,0.4-0.3,0.6-0.3
				c2.3-0.1,4.6-0.2,6.8-0.2c0.7,0,1.4,0.3,2.1,0.6C3703.4,86.7,3703.5,86.9,3703.8,87.3"/>
			<path class="st11" d="M3819.4,165.5c0.8-0.2,1.5-0.4,2.2-0.7c0.4-0.2,0.7,0,1,0.2c0.1,0.1,0.3,0.3,0.2,0.4
				c-0.1,0.2-0.2,0.3-0.4,0.4c-0.9,0.4-1.9,0.7-2.9,1c-0.6,0.2-1,0.1-1.2-0.5c-0.1-0.3-0.2-0.6-0.4-0.9c-0.5-0.9-1-1.9-1.4-2.8
				c-0.1-0.2-0.1-0.6-0.1-0.8c0.3,0.1,0.8,0.1,0.9,0.3c0.6,0.9,1.2,1.9,1.8,2.8C3819.2,165,3819.3,165.3,3819.4,165.5"/>
			<path class="st11" d="M3687.3,79.8c0,0.3,0.1,0.6,0.1,0.8c0,0.7,0.1,1.3,0.1,2c0,0.3,0,0.6-0.1,0.8c-0.3,0.8,0,1.6,0.3,2.4
				c0.3,0.7,0.3,1.5,0.4,2.3c0,0.2-0.3,0.4-0.4,0.6c-0.2-0.2-0.3-0.5-0.4-0.7c-0.1-0.1,0-0.3-0.1-0.5c-0.1,0.1-0.1,0.3-0.2,0.3
				c-0.1,0.1-0.4,0.4-0.5,0.3c-0.2-0.1-0.4-0.3-0.4-0.5c0-0.3,0.1-0.7,0.2-1c0.1-0.6,0.3-1.1,0.3-1.7c0.1-1.5,0.2-3.1,0.3-4.6
				c0-0.2,0.2-0.5,0.2-0.7L3687.3,79.8z"/>
			<path class="st11" d="M3871.4,52.8c-1.3,0.6-1.2-0.4-1.5-1.3c0.3-0.1,0.6-0.2,0.9-0.2c0.6,0.1,0.9-0.2,1-0.7
				c0.1-0.4,0.1-0.8,0.2-1.1c0.1-0.5,0.4-0.8,1-0.7c0,0.3-0.1,0.5-0.1,0.7c-0.1,0.3-0.2,0.6-0.2,1c0,0.5,0.2,0.8,0.7,0.7
				c0.3,0,0.7,0,1.1,0l0.1,0.2c-0.2,0.2-0.5,0.4-0.7,0.5c-0.3,0.1-0.7,0.2-1,0.3c-0.2,0.1-0.4,0.3-0.4,0.5c-0.1,0.5-0.1,1.1-0.3,1.6
				c0,0.2-0.2,0.3-0.4,0.5c-0.1-0.1-0.3-0.3-0.3-0.4C3871.5,53.9,3871.5,53.4,3871.4,52.8"/>
			<path class="st11" d="M3678.6,88.2c-0.4,0.8-1.2,1.1-2,0.8c-0.6-0.2-0.8-0.7-0.8-1.3c0-1.5,1.5-2.9,2.9-2.7
				c0.6,0.1,0.9,0.4,1,1.1c0,0.6-0.3,0.7-0.8,0.8c-0.6,0.1-1.1,0.3-1.7,0.5c-0.2,0.1-0.2,0.4-0.4,0.6c0.2,0.1,0.4,0.2,0.6,0.2
				C3677.9,88.2,3678.2,88.2,3678.6,88.2"/>
			<path class="st11" d="M3871,158.3c-1.1,0.3-2.2,0.6-3.3,0.9c-0.5,0.1-0.9-0.3-0.9-1c0-1.7,2-3.9,4-3.5c0.5,0.1,0.9,0.2,0.9,0.8
				c0,0.5-0.3,0.9-0.8,1c-0.8,0.1-1.6,0.2-2.4,0.3c-0.3,0-0.7,0-0.8,0.2c-0.2,0.3-0.3,0.7-0.3,1c0.1,0.2,0.6,0.4,0.8,0.4
				c0.6-0.1,1.3-0.2,1.9-0.4c0.2,0,0.5,0,0.7,0C3871,158.1,3871,158.2,3871,158.3 M3870.8,155.8c0-0.1,0-0.2,0-0.3
				c-0.7-0.3-1.3,0-1.9,0.3l0,0.2C3869.6,156,3870.2,155.9,3870.8,155.8"/>
			<path class="st11" d="M3684.5,52.2c-0.2,1.1-0.4,2.4-0.6,3.6c0,0.1,0,0.3-0.1,0.4c-0.2,0.4-0.4,0.7-0.5,1
				c-0.2-0.4-0.5-0.7-0.5-1.1c0.1-1.6,0.3-3.2,0.6-4.8c0.1-0.5,0.9-1.1,1.4-1c0.3,0.1,0.6,0.5,0.7,0.8c0.1,0.3,0,0.7-0.1,0.9
				C3685.3,52.2,3684.9,52.2,3684.5,52.2"/>
			<path class="st11" d="M3774.8,87.4c1,0.2,1.7,0.4,2.3-0.4c-0.6-0.5-1.2-1-1.7-1.5c-0.6-0.7-0.5-1.1,0.4-1.4
				c0.3-0.1,0.7-0.3,1-0.3c0.3,0,0.6,0.2,0.9,0.3c-0.3,0.1-0.5,0.3-0.8,0.4c-0.1,0-0.2,0.1-0.5,0.1c0.3,0.3,0.6,0.5,0.8,0.7
				c0.8,0.6,1,1.7,0.6,2.4c-0.5,0.7-2.1,1.1-2.8,0.6C3774.9,88.2,3774.9,87.8,3774.8,87.4"/>
			<path class="st11" d="M3865.7,174.2c-0.1,1-0.2,2-0.2,2.9c-0.1,0-0.1,0-0.2,0.1c-0.1-0.2-0.2-0.3-0.2-0.5c-0.3-3.2,0.4-5.8,1.9-7
				c0.5,0.8,1,1.6,1.5,2.4c0.4,0.7,0.3,1.4-0.2,1.9c-0.6,0.6-1.2,0.7-2,0.4C3866.1,174.3,3865.9,174.3,3865.7,174.2 M3866.9,170.6
				c-0.1,0-0.2,0-0.3,0c-0.2,0.5-0.5,1-0.6,1.5c-0.3,1.2,0.2,1.6,1.4,1.2c0.7-0.2,0.9-0.6,0.6-1.2
				C3867.7,171.6,3867.2,171.2,3866.9,170.6"/>
			<path class="st11" d="M3835.9,162.2c-0.5-0.3-1-0.6-1.6-0.9c-0.1-0.1-0.1-0.3-0.2-0.5c0.2,0,0.4-0.2,0.5-0.1c1,0.4,2,0.8,3,1.2
				c0.2,0.1,0.4,0.2,0.5,0.4c0.1,0.1,0.1,0.4,0,0.5c0,0.1-0.3,0.1-0.4,0c-0.6-0.4-0.8-0.1-1.1,0.4c-0.5,1-1.2,2-1.8,3
				c-0.1,0.2-0.4,0.2-0.7,0.3c0-0.2-0.2-0.5-0.1-0.7C3834.7,164.6,3835.3,163.4,3835.9,162.2"/>
			<path class="st11" d="M3854.9,154.9c1.1,0,2.3,0,3.4,0c0.2,0,0.4,0.4,0.6,0.6c-0.2,0.2-0.4,0.5-0.7,0.5c-1.5,0.1-3,0.2-4.5,0.2
				c-0.3,0-0.7-0.2-1-0.4c-0.1-0.1-0.1-0.5,0-0.7c0-0.1,0.4-0.2,0.6-0.2C3853.8,154.8,3854.3,154.9,3854.9,154.9
				C3854.9,154.9,3854.9,154.9,3854.9,154.9"/>
			<path class="st11" d="M3848.8,46.3c0.5,0,1.1-0.1,1.6,0c2.3,0.3,4.7,0.7,7,1c0.4,0.1,0.7,0.1,1.1,0.3c0.2,0.1,0.3,0.3,0.3,0.5
				c0,0.1-0.3,0.3-0.5,0.4c-0.4,0-0.9,0-1.3-0.1c-2.5-0.8-5-0.9-7.6-1.3c-0.2,0-0.5-0.2-0.7-0.3
				C3848.7,46.5,3848.8,46.4,3848.8,46.3"/>
			<path class="st11" d="M3888.9,159.5c-0.2,0-0.4,0-0.5-0.1c-0.7-0.3-1.1-0.1-1.5,0.5c-0.3,0.6-0.8,0.9-1.5,1
				c-0.7,0.1-1-0.2-1.1-0.9c-0.1-0.6-0.1-1.2-0.2-1.8c0.8-0.3,1.7-0.7,2.5-1c0.3,0.9,0.1,1.2-0.8,1.6c-0.2,0.1-0.4,0.1-0.5,0.2
				c-0.2,0.2-0.3,0.4-0.5,0.6c0.3,0.1,0.6,0.4,0.8,0.3c0.5-0.3,0.9-0.7,1.2-1.1c0.3-0.4,0.5-0.8,1-0.6
				C3888.4,158.5,3888.9,158.8,3888.9,159.5"/>
			<path class="st11" d="M3690.5,107.2c-1.1-2.1-1.4-4.2-0.4-6.3c0.2-0.5,0.6-0.7,1-0.2c0.4,0.5,0.8,1.1,1.2,1.7
				c0.1,0.1-0.1,0.4-0.1,0.6c-0.2-0.1-0.4-0.1-0.5-0.2c-0.3-0.3-0.6-0.7-1.1-1C3690.2,103.6,3690.7,105.5,3690.5,107.2"/>
			<path class="st11" d="M3875.9,157.1c0.1-0.5,0.1-0.9,0.2-1.3c-0.8-0.3-1.2,0.4-1.6,0.7c-0.1-0.8,1.1-1.9,1.7-1.7
				c0.2,0.1,0.3,0.4,0.3,0.6c-0.1,1.1-0.2,2.2-0.3,3.3c0,0.2-0.2,0.3-0.4,0.4c-0.5,0.2-0.9,0.4-1.4,0.5c-0.3,0.1-0.9,0.1-1,0
				c-0.2-0.3-0.4-0.8-0.3-1.2c0.1-0.8,0.8-1.3,1.7-1.3C3875,157.1,3875.4,157.1,3875.9,157.1 M3875.9,158.5
				c-0.3-0.3-0.3-0.4-0.4-0.5c-0.4-0.3-1.5-0.2-1.8,0.2c-0.1,0.1-0.2,0.3-0.1,0.3c0.3,0.2,0.6,0.6,0.8,0.6
				C3874.8,159,3875.3,158.7,3875.9,158.5"/>
			<path class="st11" d="M3694.4,84.7C3694.3,84.8,3694.3,84.8,3694.4,84.7c-0.5,0.2-1.2,0.2-1.2,0.3c-0.1,0.7,0,1.4,0,2.1
				c0,0.4,0.1,0.9,0,1.2c-0.2,0.4-0.8,0.8-1.1,0.8c-0.4-0.1-0.9-0.5-1.2-1c-0.3-0.4,0.1-0.5,0.4-0.5c1,0,1.1-0.2,0.8-1.2
				c-0.2-0.6-0.3-1.2,0-1.8c0.3-0.6,0.8-0.7,1.3-0.7C3693.9,84,3694.3,84.2,3694.4,84.7"/>
			<path class="st11" d="M3863.7,155.9c0.2-0.2,0.4-0.5,0.6-0.7c0.7,1,0.6,3.6-0.4,5c0.1-1.3,0.2-2.4,0.3-3.6l-0.3-0.1
				c-1,0.8-0.7,2.2-1.5,3.1c-0.4-0.8,1.8-8.8,2.8-9.7c-0.6,2-1.2,3.9-1.8,5.9L3863.7,155.9z"/>
			<path class="st11" d="M3718.3,108.3c-0.2-0.6-0.4-1.2-0.4-1.7c-0.1-0.7,0-1.4,0-2.1c0-0.6,0.2-1.2,0.9-1.4
				c0.2-0.1,0.3-0.1,0.5-0.2c0.1,0.2,0.2,0.4,0.2,0.6c0,0.4-0.2,0.7-0.2,1.1c0,0.6-0.1,1.2,0,1.8
				C3719.3,107,3719,107.8,3718.3,108.3"/>
			<path class="st11" d="M3825.7,165c-0.1,0.1-0.3,0.5-0.4,0.5c-0.2,0-0.5-0.2-0.6-0.4c-0.3-0.8-0.4-1.5-0.6-2.3
				c-0.2-0.7-0.4-1.4-0.5-2.1c0-0.2,0.1-0.6,0.2-0.8c0.3-0.5,0.6-0.3,0.7,0.1C3825,161.6,3825.3,163.2,3825.7,165"/>
			<path class="st11" d="M3867,165c0.4,0.8,0.1,1.3-0.8,1.5c-0.3,0.1-0.6,0.3-0.9,0.6c1.2,0.6,2.4,0,3.6,0.1
				c-0.2,0.1-0.3,0.3-0.4,0.3c-0.9,0.2-1.8,0.5-2.7,0.7c-0.7,0.1-1-0.3-0.9-1c0.1-0.5,0.3-1,0.4-1.5c0-0.1,0.2-0.2,0.3-0.2
				C3866,165.3,3866.5,165.1,3867,165"/>
			<path class="st11" d="M3867,161.4c-1.7,2.5-3.9,4.7-4.6,7.8c-0.1,0-0.2-0.1-0.3-0.1c0-0.4,0-0.7,0.2-1c0.6-1.2,1.2-2.4,1.9-3.6
				c0.6-0.9,1.3-1.8,2-2.7c0.2-0.2,0.4-0.4,0.6-0.5C3866.9,161.3,3867,161.3,3867,161.4"/>
			<path class="st11" d="M3806.9,163.6c0.5-0.1,0.8-0.2,1-0.2c0.6-0.1,1.1-0.1,1.4,0.5c0.2,0.3,0.4,0.6,0.5,0.9
				c0.1,0.2,0,0.6-0.1,0.8c-0.2,0.2-0.7,0.3-0.8,0.1C3808.2,165.1,3807.6,164.4,3806.9,163.6"/>
			<path class="st11" d="M3829.7,169.9c-0.2,0-0.5-0.1-0.7,0c-0.5,0.2-0.7,0-0.7-0.5c0-0.7,0.2-1.3,0.8-1.6c0.4-0.2,0.4-0.4,0.4-0.8
				c0-0.4,0.1-0.8,0.1-1.4c0.5,0.8,0.6,3.9,0.2,4.4C3829.7,170.1,3829.7,170,3829.7,169.9"/>
			<path class="st11" d="M3864.3,170.8c-0.2,0.5-0.3,1.1-0.6,1.5c-0.6,0.8-1.2,1.5-1.8,2.2c-0.4,0.4-0.8,0.2-0.9-0.2
				c-0.2-1.2,0-2.3,0.6-3.4l0.3,0c-0.2,0.9-0.4,1.9-0.6,2.8c1.5-0.6,2.1-2,2.8-3.1C3864.1,170.7,3864.2,170.7,3864.3,170.8"/>
			<path class="st11" d="M3681,89.1c-0.7-0.6-0.7-0.9-0.4-1.6c0.3-0.6,0.3-1.3,0.5-1.9c0.1-0.2,0.1-0.5,0.1-0.7
				c0.6,0.1,0.7,0.4,0.7,0.9C3682,87,3681.6,88,3681,89.1"/>
			<path class="st11" d="M3730.3,55.6c0.6-1.2,7.6-4.6,9.7-4.5c-1.8,0.7-3.5,1.4-5.1,2.1C3733.3,54,3731.8,54.9,3730.3,55.6"/>
			<path class="st11" d="M3878,158.7c0.8-0.9,1.7-1.8,2.5-2.7c0.1,0.1,0.1,0.1,0.2,0.2c-0.5,0.7-1,1.3-1.5,2c-0.4,0.5-0.7,1-1.1,1.4
				c-0.1,0.1-0.3,0.2-0.5,0.3c-0.1,0-0.3-0.2-0.3-0.3c-0.1-1.2-0.3-2.5,0.4-3.6c0.1,0,0.1,0,0.2,0c-0.1,0.9-0.2,1.8-0.3,2.8
				C3877.8,158.6,3877.9,158.6,3878,158.7"/>
			<path class="st11" d="M3823.9,166.8c0,0.4,0.1,0.8,0,1.2c-0.1,0.6,0.1,0.8,0.7,0.7c0.2,0,0.4,0,0.6,0c0.1,0.1,0.3,0.2,0.3,0.4
				c0,0.1-0.2,0.4-0.2,0.4c-0.6,0-1.4,0-1.9-0.2C3822.7,168.9,3823,167.3,3823.9,166.8"/>
			<path class="st11" d="M3883.8,156.6c-0.1,0.4-0.1,0.7-0.2,0.8c-1.1,1.7-1.9,3.5-2.4,5.4c0,0-0.1,0.1-0.2,0.2
				c-0.1-0.3-0.2-0.5-0.1-0.7c0.5-2,1.3-3.8,2.5-5.4C3883.5,156.8,3883.6,156.8,3883.8,156.6"/>
			<path class="st11" d="M3852.7,229.3c0.1,0.2,0.2,0.4,0.2,0.6c0,0.2,0,0.4,0.1,0.6c0.6,0.8-0.1,1.5-0.3,2.2
				c-0.2,0.4-0.6,0.6-0.9,0.3c-0.2-0.2-0.2-0.6-0.2-0.9c0-0.2,0.2-0.3,0.3-0.5c0.4-0.5,0.7-1,0.5-1.7c0-0.1,0-0.3,0.1-0.5
				C3852.5,229.3,3852.6,229.3,3852.7,229.3"/>
			<path class="st11" d="M3878.7,168.7c0.3-0.1,0.5-0.1,0.7-0.2c0.3-0.4,0.7-0.8,0.9-1.3c0.2-0.4,0.4-0.9,0.6-1.3
				c0.3-0.3,0.7-0.4,1,0.1c-0.2,0.1-0.4,0.2-0.5,0.3c-0.2,0.3-0.5,0.6-0.7,0.9c-0.3,0.5-0.5,1.1-0.8,1.6
				C3879.5,169.5,3879.4,169.5,3878.7,168.7"/>
			<path class="st11" d="M3876.7,52.2c-0.1,0.8-0.2,1.5-0.3,2.2c0,0.2-0.3,0.4-0.5,0.5c-0.1-0.2-0.3-0.4-0.4-0.6
				c-0.1-0.3-0.1-0.6-0.1-0.9C3875.5,52.6,3875.8,52.3,3876.7,52.2"/>
			<path class="st11" d="M3752.9,55.9c-0.1,0-0.2,0.1-0.4,0.1c-0.2,0.1-0.4,0.2-0.6,0.3c-0.1-0.2-0.2-0.5-0.2-0.7
				c0.1-1,0.2-2.1,0.4-3.1c0.1,0,0.2,0,0.3,0c0.1,0.2,0.2,0.5,0.1,0.7c0,0.5-0.2,1-0.2,1.5C3752.5,55,3752.7,55.4,3752.9,55.9"/>
			<path class="st11" d="M3826.7,167.1c0.2,0.3,0.5,0.7,0.8,1c0.1,0.1,0,0.3,0,0.3c-0.6,0.3-0.7,0.9-0.8,1.5c0,0-0.1,0.1-0.2,0.1
				c-0.4-0.4,0.6-1.5-0.9-1.3C3826,168.1,3826.4,167.5,3826.7,167.1"/>
			<path class="st11" d="M3876.8,49c-0.1,0.6-0.2,1.1-0.4,1.5c-0.1,0.2-0.5,0.3-0.8,0.4c0-0.2-0.2-0.5-0.1-0.7
				C3875.7,49.5,3875.9,49.2,3876.8,49"/>
			<path class="st11" d="M3849.2,231.1c1,0,0.1-1.2,0.9-1.5c0.1,0.6,0.2,1.2,0.3,2c-0.1,0.2-0.3,0.7-0.5,1.1
				C3849.7,232.2,3849.5,231.7,3849.2,231.1"/>
			<path class="st11" d="M3847.3,232.2c0.7,0,1.1,0,1.5,0.1c0,0.1,0,0.1,0,0.2c-0.5,0.1-0.9,0.3-1.4,0.4c-0.1,0-0.4-0.3-0.4-0.5
				c-0.1-0.6,0-1.2,0-1.9c0.7,0.1,0,1.4,1.3,0.9C3847.8,231.7,3847.6,231.9,3847.3,232.2"/>
			<path class="st11" d="M3752.6,49.6c0.2,0.5,0.4,0.9,0.4,1.3c0,0.3-0.2,0.6-0.4,0.8c-0.2-0.2-0.4-0.4-0.5-0.6
				C3751.9,50.6,3752.1,50.1,3752.6,49.6"/>
			<path class="st11" d="M3681.3,84.1c-0.1-0.3-0.2-0.5-0.2-0.8c0-0.2,0.1-0.4,0.2-0.6c0,0,0.3,0,0.4,0.1c0.1,0.2,0.2,0.5,0.2,0.7
				c0,0.2-0.2,0.4-0.3,0.6C3681.4,84.1,3681.4,84.1,3681.3,84.1"/>
			<path class="st11" d="M3883.1,156.3c0.3,0.7-0.7,0.7-0.7,1.2c-0.1-0.1-0.2-0.1-0.3-0.2c0.2-0.4,0.5-0.8,0.7-1.2
				C3882.9,156.2,3883,156.3,3883.1,156.3"/>
			<path class="st11" d="M3767,82.1c-0.3,0.2-0.5,0.3-0.7,0.4c-0.1,0-0.3-0.3-0.3-0.4c0.1-0.2,0.3-0.3,0.4-0.4
				C3766.6,81.7,3766.8,81.9,3767,82.1"/>
			<path class="st11" d="M3816.4,98.4c0-0.3,0-0.5,0-0.8c0-0.2,0.2-0.4,0.3-0.5c0.8-0.4,2.4-0.2,3,0.4c0.1,0.1,0.2,0.3,0.2,0.5
				c0.1,0.5,0.1,1.1,0.2,1.6c0,0.2-0.1,0.4-0.2,0.5c-0.9,0.2-1.8,0.4-2.8,0.5c-0.2,0-0.6-0.3-0.6-0.6
				C3816.4,99.5,3816.4,99,3816.4,98.4C3816.4,98.4,3816.4,98.4,3816.4,98.4 M3817.2,97.7c-0.4,0.4-0.6,1.6-0.1,2.1
				c0.2,0.2,0.8,0.2,1.2,0.2c0.2,0,0.5-0.1,0.7-0.2c0.6-0.1,0.7-0.5,0.6-1c-0.1-0.6-0.6-0.8-1.4-0.7c-0.4,0.1-0.8,0-1.2,0.1
				C3817.1,97.9,3817.2,97.8,3817.2,97.7"/>
		</g>
	</g>
</g>
<rect x="3993.4" y="-3" style="fill:none;" width="252.6" height="261.2"/>
<text transform="matrix(1 0 0 1 3993.4463 5.5527)"><tspan x="0" y="0" class="st12" style="font-family:'MyriadPro-Regular'; font-size:12px;">Initially I explored possibilities such as trying to </tspan><tspan x="0" y="14.4" class="st12" style="font-family:'MyriadPro-Regular'; font-size:12px;">find elements of the human form within the </tspan><tspan x="0" y="28.8" class="st12" style="font-family:'MyriadPro-Regular'; font-size:12px;">numbers .  Came back to an arrangement we had </tspan><tspan x="0" y="43.2" class="st12" style="font-family:'MyriadPro-Regular'; font-size:12px;">discussed initally, having the bar in the center of </tspan><tspan x="0" y="57.6" class="st12" style="font-family:'MyriadPro-Regular'; font-size:12px;">the two logo components/words. It looked okay </tspan><tspan x="0" y="72" class="st12" style="font-family:'MyriadPro-Regular'; font-size:12px;">but the straight bar felt too stiff and didnt lead </tspan><tspan x="0" y="86.4" class="st12" style="font-family:'MyriadPro-Regular'; font-size:12px;">the eye. Incorporating the curved bar was a way to </tspan><tspan x="0" y="100.8" class="st12" style="font-family:'MyriadPro-Regular'; font-size:12px;">give it weight and make it feel heavy, it also </tspan><tspan x="0" y="115.2" class="st12" style="font-family:'MyriadPro-Regular'; font-size:12px;">served to lead the viewers eye up at the logo,.</tspan></text>
<text transform="matrix(1 0 0 1 3942.5039 -80.5986)" style="font-family:'MyriadPro-Regular'; font-size:12px;">Lorem ipsum</text>
</svg>
