<svg id="Layer_1" data-name="Layer 1" xmlns="http://www.w3.org/2000/svg" width="8.6in" height="10.2in" viewBox="0 0 622.3 731.9"><title>Artboard 1</title><polygon points="134.2 180.9 110.7 184.7 81.1 3.9 104.6 0 134.2 180.9" fill="#ed1c24"/><path id="path3707" d="M311.4,209.1a50.7,50.7,0,1,0-50.7-50.7,50.5,50.5,0,0,0,50.7,50.7Z" fill="#231f20"/><path d="M360.5,293.8l68.8,236.6H365.8V708c-.1,31.8-47.7,31.7-47.7,0V530.5H303.9V708c.1,31.8-47.7,31.8-47.7,0V530.5H192.8l68.4-236.7s-43.3-30-47.4-44.1c0,0-45-148.9-45.3-150.3q21.4-3,43-5.1l27.8,93.9a50.7,50.7,0,0,0,48.3,35.6h47.1a50.6,50.6,0,0,0,48.4-35.5L411,94.4q21.5,2.1,42.8,5.1c-.2,1.3-45.2,150.2-45.2,150.2C403.8,263.6,360.5,293.8,360.5,293.8Z" fill="#231f20"/><polygon points="541.2 3.9 511.6 184.7 488.1 180.9 517.7 0 541.2 3.9" fill="#ed1c24"/><rect x="454.6" y="85.6" width="183.3" height="23.87" transform="translate(361.8 620.9) rotate(-80.7)" fill="#ed1c24"/><rect x="486.2" y="90.8" width="183.3" height="23.87" transform="translate(383.2 656.4) rotate(-80.7)" fill="#ed1c24"/><rect x="593.4" y="95.6" width="29.4" height="23.87" transform="translate(403.8 690.3) rotate(-80.7)" fill="#ed1c24"/><path d="M496.7,78.7l-3.2,18.8q-19.7-3.5-39.6-6.3t-40.3-4.8q-50.9-5.1-102.7-5.1t-102,5q-20.3,2-40.5,4.8t-39.5,6.3l-3.2-18.9a1057.4,1057.4,0,0,1,371,.1Z" fill="#ed1c24"/><rect x="64.1" y="5.9" width="23.9" height="183.28" transform="translate(-14.8 13.6) rotate(-9.3)" fill="#ed1c24"/><rect x="32.5" y="11.1" width="23.9" height="183.28" transform="translate(-16 8.5) rotate(-9.3)" fill="#ed1c24"/><rect x="2.2" y="92.8" width="23.9" height="29.42" transform="translate(-17.2 3.7) rotate(-9.3)" fill="#ed1c24"/></svg>