<?xml version="1.0" encoding="utf-8"?>
<!-- Generator: Adobe Illustrator 21.1.0, SVG Export Plug-In . SVG Version: 6.00 Build 0)  -->
<svg version="1.1" id="Layer_1" xmlns="http://www.w3.org/2000/svg" xmlns:xlink="http://www.w3.org/1999/xlink" x="0px" y="0px"
	 viewBox="0 0 366.5 347" style="enable-background:new 0 0 366.5 347;" xml:space="preserve">
<style type="text/css">
	.st0{opacity:0.5;fill:#FFFFFF;}
	.st1{fill:#EC1C24;}
	.st2{opacity:0.5;fill:#EC1C24;}
</style>
<title>Artboard 1</title>
<g>
	<polygon class="st0" points="115,289.6 104.5,194.9 115,193.8 124.6,279.7 141.4,277.8 142.3,286.6 	"/>
	
		<rect x="152.3" y="190.5" transform="matrix(0.999 -4.571169e-02 4.571169e-02 0.999 -10.7218 7.454)" class="st0" width="10.6" height="95.3"/>
	<polygon class="st0" points="180.7,285.1 182.6,189.8 212.7,190.4 212.5,199.2 193,198.8 192.2,237.6 208.5,237.9 208.3,246.9 
		192,246.5 191.2,285.3 	"/>
	<polygon class="st0" points="230.7,287.4 239.6,201.5 228.3,200.4 229.2,191.4 262.6,194.9 261.6,203.8 250.3,202.6 241.3,288.5 	
		"/>
	<path class="st0" d="M116.5,170.7c-7.9,0.8-14.9-5-15.7-12.9L89.8,49.4c-0.8-7.8,4.8-14.9,12.7-15.7c0.1,0,0.1,0,0.2,0l22.2-2.2
		c7.9-0.8,14.9,5,15.7,12.9l2.2,21.4l-14.9,1.5L125.6,44l-21,2.1l4.8,47.6l21.6-2.2c7.9-0.8,14.9,5,15.7,12.9l4.9,48.4
		c0.7,7.9-5,14.8-12.9,15.7L116.5,170.7z M132,104l-21.4,2.2l5.2,52.1l21.4-2.2L132,104z"/>
	<polygon class="st0" points="177.5,165.4 181.1,45.2 167.6,51.3 162,40.1 181.6,30.2 196.6,30.7 192.5,165.8 	"/>
	<path class="st0" d="M227.2,168.6c-7.9-0.9-13.5-8-12.7-15.9l2.6-23.1l14.9,1.6l-2.8,24.9l20.4,2.3l5.6-50.4l-21.2-2.4l1.6-14.3
		l20,2.2l5.1-46.1l-20-2.2l-2.6,23.3L223.2,67l2.4-21.4c0.8-7.8,7.8-13.5,15.7-12.7c0.1,0,0.1,0,0.2,0l21.2,2.4
		c7.9,0.9,13.5,8,12.7,15.9l-4.6,41.4c-0.7,6.7-7.4,8.9-9.1,9.1c1.8,0.8,8.8,4.3,8.1,11l-5.1,45.7c-1,7.8-8,13.4-15.9,12.7
		L227.2,168.6z"/>
	<polygon class="st0" points="168.9,316.6 168.9,295 171.2,295 171.2,314.6 175.1,314.6 175.1,316.6 	"/>
	<polygon class="st0" points="178,316.6 178,302.4 176,302.4 176,300.4 178,300.4 178,296.8 180.4,296.8 180.4,300.4 182.9,300.4 
		182.9,302.4 180.4,302.4 180.4,316.6 	"/>
	<path class="st0" d="M186.6,316.6c-1.3,0-2.3-1-2.3-2.3v-11.5c0-1.3,1-2.3,2.3-2.3h1.7c0.6,0,1.2,0.2,1.6,0.6v-6.8h2.3v22.3H186.6z
		 M189.9,302.5h-3.3v12.1h3.3V302.5z"/>
	<rect x="195" y="313.3" class="st0" width="2.6" height="3.3"/>
	
		<rect x="237.8" y="182.2" transform="matrix(0.1614 -0.9869 0.9869 0.1614 51.4219 436.5804)" class="st0" width="89.5" height="11.7"/>
	
		<rect x="253.3" y="184.8" transform="matrix(0.1595 -0.9872 0.9872 0.1595 62.4675 454.5932)" class="st0" width="89.8" height="11.7"/>
	
		<rect x="268.7" y="187.3" transform="matrix(0.1614 -0.9869 0.9869 0.1614 72.3228 471.2946)" class="st0" width="89.5" height="11.7"/>
	
		<rect x="321.2" y="188.3" transform="matrix(0.1595 -0.9872 0.9872 0.1595 84.3677 487.3894)" class="st0" width="14.4" height="11.7"/>
	<path class="st0" d="M273.9,181.4l-1.6,9.2c-58.9-10.5-119.2-10.5-178.1,0l-1.6-9.2C152.6,170.7,213.9,170.7,273.9,181.4
		L273.9,181.4z"/>
	<rect x="78" y="143.3" transform="matrix(0.9869 -0.1614 0.1614 0.9869 -29.26 15.9915)" class="st0" width="11.7" height="89.5"/>
	
		<rect x="62.5" y="145.8" transform="matrix(0.9869 -0.1614 0.1614 0.9869 -29.8707 13.5326)" class="st0" width="11.7" height="89.5"/>
	
		<rect x="47.1" y="148.3" transform="matrix(0.9869 -0.1614 0.1614 0.9869 -30.4815 11.0737)" class="st0" width="11.7" height="89.5"/>
	
		<rect x="32.3" y="188.3" transform="matrix(0.9869 -0.1614 0.1614 0.9869 -31.0555 8.7146)" class="st0" width="11.7" height="14.4"/>
	<polygon class="st1" points="319,0.1 314,30.5 295.3,144.8 289,183.8 288.8,184.5 287.4,193 287.3,193.7 280.9,233.1 271.2,292.3 
		271.1,293 269.7,301.5 269.6,302.2 267.3,316.6 262.3,347 263,347 268,316.6 270.3,302.3 270.4,301.6 271.8,293.1 271.9,292.4 
		288,193.8 288.1,193.2 288.1,193.2 289.5,184.6 289.6,183.9 314.7,30.5 319.7,0.1 	"/>
	<polygon class="st1" points="307.2,0.1 302.2,30.5 277.5,181.5 277.5,181.5 277.4,182.2 276,190.8 275.9,191.4 259.7,290.4 
		259.6,291.1 258.2,299.7 258.1,300.4 255.5,316.6 250.5,347 251.2,347 256.2,316.6 258.8,300.5 258.9,299.8 258.9,299.8 
		260.3,291.2 260.4,290.6 270.1,231.4 270.1,231.4 276.6,191.6 276.7,190.9 278.1,182.4 278.2,181.7 284.5,143 302.9,30.5 
		307.9,0.1 	"/>
	<polygon class="st1" points="303.2,0.1 298.2,30.5 273.5,181.5 273.5,181.5 273.4,182.2 272,190.8 271.9,191.4 255.7,290.4 
		255.6,291.1 254.2,299.7 254.1,300.4 251.5,316.6 246.5,347 247.2,347 252.2,316.6 254.8,300.5 254.9,299.8 254.9,299.8 
		256.3,291.2 256.4,290.6 266.1,231.4 266.1,231.4 272.6,191.6 272.7,190.9 274.1,182.4 274.2,181.7 280.5,143 298.9,30.5 
		303.9,0.1 	"/>
	<path class="st1" d="M275.1,293l-0.1,0.7l-1.4,8.5l0.7,0.1l1.4-8.5l0.1-0.7C275.6,293.1,275.4,293,275.1,293z M275.1,293l-0.1,0.7
		l-1.4,8.5l0.7,0.1l1.4-8.5l0.1-0.7C275.6,293.1,275.4,293,275.1,293z M275.1,293l-0.1,0.7l-1.4,8.5l0.7,0.1l1.4-8.5l0.1-0.7
		C275.6,293.1,275.4,293,275.1,293z M334.8,0.1l-5,30.4l-19,116.8l-6.5,40l-0.1,0.7l-1.4,8.6l-0.1,0.7l-6.3,38.5l-9.7,59.5l-0.1,0.7
		l-1.4,8.5l-0.1,0.7l-1.9,11.5l-5,30.4h0.7l5-30.4l1.8-11.3l0.1-0.7l1.4-8.5l0.1-0.7l16-98l0.1-0.7l1.4-8.6l0.1-0.7l25.6-156.9
		l4.4-26.8l0.4-2.4l0.2-1.3H334.8z M275,293.7l-1.4,8.5l0.7,0.1l1.4-8.5l0.1-0.7c-0.2,0-0.5-0.1-0.7-0.1L275,293.7z M275.1,293
		l-0.1,0.7l-1.4,8.5l0.7,0.1l1.4-8.5l0.1-0.7C275.6,293.1,275.4,293,275.1,293L275.1,293z M275.1,293l-0.1,0.7l-1.4,8.5l0.7,0.1
		l1.4-8.5l0.1-0.7C275.6,293.1,275.4,293,275.1,293L275.1,293z M323,0.1l-5,30.4l-25.1,154.1l-0.1,0.7l-1.4,8.5l-0.1,0.7L275.2,293
		l-0.1,0.7l-1.4,8.5l-0.1,0.7l-2.2,13.7l-5,30.4h0.7l5-30.4l2.2-13.5l0.1-0.7l1.4-8.5l0.1-0.7l9.7-59.2l6.4-39.2l0.1-0.7l1.4-8.5
		l0.1-0.7l6.4-39.2l18.8-115.1l5-30.4H323z"/>
	<path class="st1" d="M306.8,198.2l-0.3-0.1l-16,97.9l-0.1,0.7l-1.4,8.5l0.7,0.1l1.4-8.5l0.1-0.7l9.8-59.7l6.2-38.1L306.8,198.2z
		 M306.8,198.2l-0.3-0.1l-16,97.9l-0.1,0.7l-1.4,8.5l0.7,0.1l1.4-8.5l0.1-0.7l9.8-59.7l6.2-38.1L306.8,198.2z M306.8,198.2l-0.3-0.1
		l-16,97.9l-0.1,0.7l-1.4,8.5l0.7,0.1l1.4-8.5l0.1-0.7l9.8-59.7l6.2-38.1L306.8,198.2z M350.6,0.1l-0.2,1.2l-4.8,29.1l-10.8,66
		l-8.7,53.4l-6.8,41.3l-0.1,0.7l-1.4,8.6l-0.1,0.7l-6,37.1l-9.9,60.3l-0.1,0.7l-1.4,8.6l-0.1,0.7l-1.3,8.1l-5,30.4h0.7l5-30.4
		l1.3-7.9l0.1-0.7l1.4-8.6l0.1-0.7l15.9-97.4l0.1-0.7l1.4-8.6l0.1-0.7l0,0l14.8-90.6l11.5-70.3l4.8-29.1l0.2-1.3H350.6z
		 M307.2,198.3l-0.4-0.1l-0.3-0.1l-16,97.9l-0.1,0.7l-1.4,8.5l0.7,0.1l1.4-8.5l0.1-0.7l9.8-59.7L307.2,198.3z M306.8,198.2l-0.3-0.1
		l-16,97.9l-0.1,0.7l-1.4,8.5l0.7,0.1l1.4-8.5l0.1-0.7l9.8-59.7l6.2-38.1L306.8,198.2z M306.8,198.2l-0.3-0.1l-16,97.9l-0.1,0.7
		l-1.4,8.5l0.7,0.1l1.4-8.5l0.1-0.7l9.8-59.7l6.2-38.1L306.8,198.2z M338.8,0.1l-0.2,1.2l-3.7,22.7l-1.1,6.5l-25.8,157.7l-0.1,0.7
		l-1.4,8.6l-0.1,0.7l-16,97.9l-0.1,0.7l-1.4,8.5l-0.1,0.7l-1.7,10.7l-5,30.4h0.7l5-30.4l1.7-10.5l0.1-0.7l1.4-8.5l0.1-0.7l9.8-59.7
		l6.2-38.1l0.1-0.7l1.4-8.6l0.1-0.7l6.6-40.3l19.2-117.6l0.3-2.1l4.4-27l0.2-1.2H338.8z"/>
	<path class="st1" d="M354,0.1l-0.2,1.2L349,30.5l-14.1,86.2L322.6,192l-0.1,0.7l-1.4,8.6L321,202l-15.9,97.3l0.7,0.2l15.9-97.3
		l0.1-0.5v-0.2l1.4-8.6l0.1-0.7l0.8-4.7l10.9-66.4l14.9-90.6l4.8-29.1l0.2-1.2H354z M354,0.1l-0.2,1.2L349,30.5l-14.1,86.2
		L322.6,192l-0.1,0.7l-1.4,8.6L321,202l-15.9,97.3l0.7,0.2l15.9-97.3l0.1-0.5v-0.2l1.4-8.6l0.1-0.7l0.8-4.7l10.9-66.4l14.9-90.6
		l4.8-29.1l0.2-1.2H354z M354,0.1l-0.2,1.2L349,30.5l-14.1,86.2L322.6,192l-0.1,0.7l-1.4,8.6L321,202l-15.9,97.3l0.7,0.2l15.9-97.3
		l0.1-0.5v-0.2l1.4-8.6l0.1-0.7l0.8-4.7l10.9-66.4l14.9-90.6l4.8-29.1l0.2-1.2H354z M354,0.1l-0.2,1.2L349,30.5l-14.1,86.2
		L322.6,192l-0.1,0.7l-1.4,8.6L321,202l-15.9,97.3L305,300l0,0l-1.4,8.6l-0.1,0.7l-1.2,7.3l-5,30.4h0.7l5-30.4l1.2-7.2l0,0l0.1-0.7
		l1.4-8.6l0.1-0.7l15.9-97.3l0.1-0.5v-0.2l1.4-8.6l0.1-0.7l0.8-4.7l10.9-66.4l14.9-90.6l4.8-29.1l0.2-1.2H354z M322.8,192.8
		l-1.4,8.6l-0.3-0.1L321,202l-15.9,97.3L305,300l0,0l-1.4,8.6c0.2,0,0.5,0.1,0.7,0.2l1.4-8.6l0.1-0.7l15.9-97.3l0.1-0.5v-0.2
		l1.4-8.6L322.8,192.8z M322.8,192.8l-1.4,8.6l-0.3-0.1L321,202l-15.9,97.3L305,300l0,0l-1.4,8.6c0.2,0,0.5,0.1,0.7,0.2l1.4-8.6
		l0.1-0.7l15.9-97.3l0.1-0.5v-0.2l1.4-8.6L322.8,192.8z M322.8,192.8l-1.4,8.6l-0.3-0.1L321,202l-15.9,97.3L305,300l0,0l-1.4,8.6
		c0.2,0,0.5,0.1,0.7,0.2l1.4-8.6l0.1-0.7l15.9-97.3l0.1-0.5v-0.2l1.4-8.6L322.8,192.8z M365.7,0.1l-0.2,1.2l-0.2,1.5l-4.5,27.6
		L334.9,189v0.2l-1,6.1l-0.1,0.7l-1.2,7.4l-0.2,1.2l0,0l-0.1,0.7l-15.8,96.9l0,0l-0.1,0.7l-1.4,8.6l-0.1,0.7l-0.7,4.4l-5,30.4h0.7
		l5-30.4l0.7-4.2l0.1-0.7l1.4-8.6l0.1-0.7l15.8-96.9l0.1-0.7l1.4-8.6l0.1-0.7l0.3-2.1l26.6-162.9l3.8-23.3l1-5.9l0.1-1.2H365.7z
		 M322.8,192.8l-1.4,8.6l-0.3-0.1l-0.1,0.7L305,299.3l-0.1,0.7l0,0l-1.4,8.6c0.2,0,0.5,0.1,0.7,0.2l1.4-8.6l0.1-0.7l15.9-97.3
		l0.1-0.5v-0.2l1.4-8.6L322.8,192.8z M322.8,192.8l-1.4,8.6l-0.3-0.1l-0.1,0.7L305,299.3l-0.1,0.7l0,0l-1.4,8.6
		c0.2,0,0.5,0.1,0.7,0.2l1.4-8.6l0.1-0.7l15.9-97.3l0.1-0.5v-0.2l1.4-8.6L322.8,192.8z M322.8,192.8l-1.4,8.6l-0.3-0.1l-0.1,0.7
		L305,299.3l-0.1,0.7l0,0l-1.4,8.6c0.2,0,0.5,0.1,0.7,0.2l1.4-8.6l0.1-0.7l15.9-97.3l0.1-0.5v-0.2l1.4-8.6L322.8,192.8z M354,0.1
		l-0.2,1.2L349,30.5l-14.1,86.2L322.6,192l-0.1,0.7l-1.4,8.6L321,202l-15.9,97.3l0.7,0.2l15.9-97.3l0.1-0.5v-0.2l1.4-8.6l0.1-0.7
		l0.8-4.7l10.9-66.4l14.9-90.6l4.8-29.1l0.2-1.2H354z M354,0.1l-0.2,1.2L349,30.5l-14.1,86.2L322.6,192l-0.1,0.7l-1.4,8.6L321,202
		l-15.9,97.3l0.7,0.2l15.9-97.3l0.1-0.5v-0.2l1.4-8.6l0.1-0.7l0.8-4.7l10.9-66.4l14.9-90.6l4.8-29.1l0.2-1.2H354z"/>
	<polygon class="st1" points="111,316.6 108.4,300.3 108.3,299.7 106.9,291.1 106.8,290.4 90.6,191.4 90.5,190.7 89.1,182.2 
		89.1,182.2 89,181.5 64.3,30.5 59.3,0.1 58.6,0.1 63.6,30.5 82,143 88.3,181.7 88.4,182.3 89.8,190.9 89.9,191.6 96.4,231.4 
		106.1,290.5 106.2,291.2 107.6,299.7 107.7,300.4 110.3,316.6 115.3,347 116,347 	"/>
	<polygon class="st1" points="115.1,316.6 112.5,300.3 112.4,299.7 111,291.1 110.8,290.4 94.7,191.4 94.6,190.7 93.2,182.2 
		93.2,182.2 93.1,181.5 68.4,30.5 63.4,0.1 62.7,0.1 67.7,30.5 86.1,143 92.4,181.7 92.5,182.3 93.9,190.9 94,191.6 100.5,231.4 
		110.2,290.5 110.3,291.2 111.7,299.7 111.8,300.4 114.4,316.6 119.4,347 120.1,347 	"/>
	<polygon class="st1" points="96.9,302.2 96.7,301.5 95.4,293 95.2,292.3 85.6,233.1 79.2,193.7 79,193 77.6,184.5 77.5,183.8 
		71.2,144.8 52.5,30.5 47.5,0.1 46.8,0.1 51.8,30.5 76.8,183.9 77,184.6 78.4,193.1 78.5,193.8 94.6,292.4 94.7,293.1 96.1,301.6 
		96.2,302.3 98.5,316.6 103.5,347 104.2,347 99.2,316.6 	"/>
	<path class="st1" d="M95.2,316.6l-2.2-13.7l-0.1-0.7l-1.4-8.5l-0.1-0.7l-16.1-98.4l-0.1-0.7l-1.4-8.5l-0.1-0.7L48.5,30.5l-5-30.4
		h-0.7l5,30.4l18.8,115l6.4,39.2l0.1,0.7l1.4,8.5l0.1,0.7l6.4,39.2l9.7,59.2l0.1,0.7l1.4,8.5l0.1,0.7l2.2,13.6l5,30.4h0.7
		L95.2,316.6z M91.5,293.7l-0.1-0.7l-16.1-98.5l-0.3,0.1l-0.3,0.1l6.4,39.3l9.7,59.2l0.1,0.7l1.4,8.5l0.7-0.1L91.5,293.7z
		 M91.5,293.7l-0.1-0.7l-0.7,0.1l0.1,0.7l1.4,8.5l0.7-0.1L91.5,293.7z M91.5,293.7l-0.1-0.7l-0.7,0.1l0.1,0.7l1.4,8.5l0.7-0.1
		L91.5,293.7z M81.5,305.1l-0.1-0.7l-1.3-8.5l-0.1-0.7l-9.7-59.5l-6.3-38.5l-0.1-0.7l-1.4-8.5l-0.1-0.7l-6.5-40L36.7,30.5l-5-30.4
		H31l0.2,1.1l0.4,2.8L36,30.5l25.6,156.9l0.1,0.7l1.4,8.6l0.1,0.7l16,98l0.1,0.7l1.4,8.5l0.1,0.7l1.8,11.3l5,30.4h0.7l-5-30.4
		L81.5,305.1z M91.5,293.7l-0.1-0.7l-0.7,0.1l0.1,0.7l1.4,8.5l0.7-0.1L91.5,293.7z M91.5,293.7l-0.1-0.7l-16.1-98.5l-0.3,0.1
		l-0.3,0.1l6.4,39.3l9.7,59.2l0.1,0.7l1.4,8.5l0.7-0.1L91.5,293.7z M91.5,293.7l-0.1-0.7l-16.1-98.5l-0.3,0.1l-0.3,0.1l6.4,39.3
		l9.7,59.2l0.1,0.7l1.4,8.5l0.7-0.1L91.5,293.7z"/>
	<path class="st1" d="M79.4,316.6l-1.7-10.7l-0.1-0.7l-1.4-8.5l-0.1-0.7L60,198l-0.1-0.7l0,0l-1.4-8.5l-0.1-0.7L32.6,30.5l-1-6.3
		l-3.8-23l-0.2-1.1H27l0.2,1.1l4.5,27.4l0.3,1.9L51.1,148l6.6,40.3l0.1,0.7l1.4,8.6l0.1,0.7l6.2,38.1l9.8,59.7l0.1,0.7l1.4,8.5
		l0.1,0.7l1.7,10.5l5,30.4h0.7L79.4,316.6z M76.1,296.7L76,296l-16-97.9l-0.3,0.1l-0.3,0.1l6.2,38.2l9.8,59.7l0.1,0.7l1.4,8.5
		l0.7-0.1L76.1,296.7z M76.1,296.7L76,296l-16-97.9l-0.3,0.1l-0.3,0.1l6.2,38.2l9.8,59.7l0.1,0.7l1.4,8.5l0.7-0.1L76.1,296.7z
		 M76.1,296.7L76,296l-16-97.9l-0.3,0.1l-0.3,0.1l6.2,38.2l9.8,59.7l0.1,0.7l1.4,8.5l0.7-0.1L76.1,296.7z M66.2,308.5l-0.1-0.7
		l-1.4-8.6l-0.1-0.7l-9.9-60.3l-6.1-37.1l-0.1-0.7l-1.4-8.6l-0.1-0.7l-6.7-41.3l-8.7-53.3L20.8,30.5L16,1.1l-0.1-1.1h-0.7l0.2,1.1
		l4.8,29.3l11.5,70.4l14.8,90.4l0.1,0.7l1.4,8.6l0.1,0.7l16,97.4l0.1,0.7l1.4,8.6l0.1,0.7l1.3,8l5,30.4h0.7l-5-30.4L66.2,308.5z
		 M76.1,296.7L76,296l-16-97.9l-0.3,0.1l-0.3,0.1l6.2,38.2l9.8,59.7l0.1,0.7l1.4,8.5l0.7-0.1L76.1,296.7z M76.1,296.7L76,296
		l-16-97.9l-0.3,0.1l-0.3,0.1l6.2,38.2l9.8,59.7l0.1,0.7l1.4,8.5l0.7-0.1L76.1,296.7z M76.1,296.7L76,296l-16-97.9l-0.3,0.1
		l-0.3,0.1l6.2,38.2l9.8,59.7l0.1,0.7l1.4,8.5l0.7-0.1L76.1,296.7z"/>
	<path class="st1" d="M61.5,300l-0.1-0.7l-15.9-97.4l-0.1-0.7l-0.4,0.1l-1.4-8.6l-0.3,0.1l1.4,8.6v0.2l0.1,0.5l15.9,97.3l0.1,0.7
		l1.4,8.6l0.7-0.2L61.5,300z M61.5,300l-0.1-0.7l-15.9-97.4l-0.1-0.7l-0.4,0.1l-1.4-8.6l-0.3,0.1l1.4,8.6v0.2l0.1,0.5l15.9,97.3
		l0.1,0.7l1.4,8.6l0.7-0.2L61.5,300z M61.5,300l-0.1-0.7l-15.9-97.4l-0.1-0.7l-0.4,0.1l-1.4-8.6l-0.3,0.1l1.4,8.6v0.2l0.1,0.5
		l15.9,97.3l0.1,0.7l1.4,8.6l0.7-0.2L61.5,300z M52.4,316.6l-0.7-4.4l-0.1-0.7l-1.4-8.6l-0.1-0.7l-15.8-96.9l-0.1-0.7l-0.2-1.2
		l-1.2-7.4l-0.1-0.7l-1-6v-0.1L5.7,30.5H5l26.6,163l0.3,2l0.1,0.7l1.4,8.6l0.1,0.7l15.8,96.8l0.1,0.7l1.4,8.6l0.1,0.7l0.7,4.2
		l5,30.4h0.7L52.4,316.6z M61.5,300l-0.1-0.7l-15.9-97.4l-0.1-0.7l-0.4,0.1l-1.4-8.6l-0.3,0.1l1.4,8.6v0.2l0.1,0.5l15.9,97.3
		l0.1,0.7l1.4,8.6l0.7-0.2L61.5,300z M61.5,300l-0.1-0.7l-15.9-97.4l-0.1-0.7l-0.4,0.1l-1.4-8.6l-0.3,0.1l1.4,8.6v0.2l0.1,0.5
		l15.9,97.3l0.1,0.7l1.4,8.6l0.7-0.2L61.5,300z M61.5,300l-0.1-0.7l-15.9-97.4l-0.1-0.7l-0.4,0.1l-1.4-8.6l-0.3,0.1l1.4,8.6v0.2
		l0.1,0.5l15.9,97.3l0.1,0.7l1.4,8.6l0.7-0.2L61.5,300z M64.2,316.6l-1.2-7.3l-0.1-0.7l-1.4-8.6l-0.1-0.7l-15.9-97.4l-0.1-0.7
		l-1.4-8.6l-0.1-0.7l-12.3-75.2L17.5,30.5L12.7,1.1l-0.2-1.1h-0.7L12,1.1l4.8,29.3l14.8,90.7l10.8,66.3l0.8,4.7l0.1,0.7l1.4,8.6v0.2
		l0.1,0.5l15.9,97.3l0.1,0.7l1.4,8.6l0.1,0.7l1.2,7.2l5,30.4h0.7L64.2,316.6z"/>
	<polygon class="st1" points="5.7,30.5 5,30.5 1.2,7.3 0.2,1.1 0,0.1 0.7,0.1 0.9,1.1 1.2,3 	"/>
	<path class="st1" d="M334.9,205.4l-1.9-0.6l-0.7-0.2l0,0c-3-0.9-5.9-1.8-8.9-2.7l0,0l-1.6-0.5l-0.3-0.1l-0.3-0.1l-2.5-0.7l-0.4-0.1
		l-0.3-0.1c-3.5-1-7.1-1.9-10.7-2.8l-0.4-0.1l-0.3-0.1c-1.1-0.3-2.1-0.5-3.2-0.8l-0.4-0.1l-0.3-0.1c-3.6-0.9-7.1-1.7-10.7-2.5
		l-0.4-0.1l-0.3-0.1c-1.1-0.2-2.1-0.5-3.2-0.7l0,0l-0.4-0.1l-0.3-0.1c-3.6-0.7-7.2-1.5-10.8-2.1l-0.4-0.1H276
		c-1.2-0.2-2.4-0.4-3.6-0.7c-59-10.4-119.3-10.4-178.3,0l-3.6,0.6l-0.3,0.1l-0.4,0.1c-3.6,0.7-7.2,1.4-10.8,2.1l-0.3,0.1l-0.4,0.1
		l-3.2,0.7l-0.3,0.1l-0.3,0.1c-3.6,0.8-7.2,1.6-10.7,2.5l-0.3,0.1l-0.3,0.1l-3.2,0.8l0,0l-0.3,0.1l-0.3,0.1
		c-3.6,0.9-7.1,1.8-10.6,2.7l-0.3,0.1l-0.3,0.1l-2.5,0.7l-0.4,0.1l-0.3,0.1l-1.7,0.5l0,0c-3,0.9-5.9,1.7-8.9,2.6l-0.7,0.2l-1.8,0.6
		c-10.2,3.2-20.4,6.7-30.4,10.6v0.8c10-3.9,20.1-7.4,30.4-10.6l2-0.6l0.7-0.2c3.5-1.1,7.1-2.1,10.6-3.1l0.7-0.2l2.5-0.7l0.3-0.1
		l0.3-0.1c3.5-1,7.1-1.9,10.6-2.8l0.3-0.1l0.3-0.1l3.2-0.8l0.3-0.1l0.3-0.1c3.6-0.9,7.1-1.7,10.7-2.5l0.3-0.1l0.3-0.1l3.2-0.7
		l0.4-0.1l0.3-0.1c3.6-0.7,7.2-1.5,10.8-2.1l0.4-0.1l0.3-0.1c61.3-11.2,124-11.2,185.3,0l0.3,0.1l0.4,0.1c3.6,0.7,7.2,1.4,10.8,2.1
		l0.3,0.1l0.4,0.1l3.2,0.7l0.3,0.1l0.4,0.1c3.6,0.8,7.1,1.6,10.7,2.5l0.3,0.1l0.4,0.1l3.2,0.8l0.3,0.1l0.4,0.1
		c1.7,0.4,3.5,0.9,5.2,1.3c1.8,0.5,3.6,1,5.4,1.5l0.3,0.1l0.4,0.1l2.5,0.7l0.7,0.2c3.5,1,7.1,2,10.6,3.1l0.7,0.2l2,0.6
		c10.2,3.2,20.4,6.8,30.4,10.7v-0.8C355.3,212.2,345.1,208.6,334.9,205.4z"/>
	<path class="st2" d="M318.6,200.6l-0.4-0.1l-0.3-0.1c-3.5-1-7.1-1.9-10.7-2.8l-0.4-0.1l-0.3-0.1c-1.1-0.3-2.1-0.5-3.2-0.8l-0.4-0.1
		l-0.3-0.1c-3.6-0.9-7.1-1.7-10.7-2.5l-0.4-0.1l-0.3-0.1c-1.1-0.2-2.1-0.5-3.2-0.7l0,0l-0.4-0.1l-0.3-0.1c-3.6-0.7-7.2-1.5-10.8-2.1
		l-0.4-0.1H276c-1.2-0.2-2.4-0.4-3.6-0.7c-59-10.4-119.3-10.4-178.3,0l-3.6,0.6l-0.3,0.1l-0.4,0.1c-3.6,0.7-7.2,1.4-10.8,2.1
		l-0.3,0.1l-0.4,0.1l-3.2,0.7l-0.3,0.1l-0.3,0.1c-3.6,0.8-7.2,1.6-10.7,2.5l-0.3,0.1l-0.3,0.1l-3.2,0.8l0,0l-0.3,0.1l-0.3,0.1
		c-3.5,0.9-7.1,1.8-10.6,2.8l-0.3,0.1l-0.3,0.1l-2.5,0.7l-0.4,0.1l-0.3,0.1l-1.7,0.5l0,0c-3,0.9-5.9,1.7-8.9,2.6l-0.7,0.2l-1.8,0.6
		c-10.2,3.2-20.4,6.7-30.4,10.6v0.8c10-3.9,20.1-7.4,30.4-10.6l2-0.6l0.7-0.2c3.5-1.1,7.1-2.1,10.6-3.1l0.7-0.2l2.5-0.7l0.3-0.1
		l0.3-0.1c3.5-1,7.1-1.9,10.6-2.8l0.3-0.1l0.3-0.1l3.2-0.8l0.3-0.1l0.3-0.1c3.6-0.9,7.1-1.7,10.7-2.5l0.3-0.1l0.3-0.1l3.2-0.7
		l0.4-0.1l0.3-0.1c3.6-0.7,7.2-1.5,10.8-2.1l0.4-0.1l0.3-0.1c61.3-11.2,124-11.2,185.3,0l0.3,0.1l0.4,0.1c3.6,0.7,7.2,1.4,10.8,2.1
		l0.3,0.1l0.4,0.1l3.2,0.7l0.3,0.1l0.4,0.1c3.6,0.8,7.1,1.6,10.7,2.5l0.3,0.1l0.4,0.1l3.2,0.8l0.3,0.1l0.4,0.1
		c1.7,0.4,3.5,0.9,5.2,1.3c1.8,0.5,3.6,1,5.4,1.5l0.3,0.1l0.4,0.1l2.5,0.7l0.1-0.7L318.6,200.6z"/>
	<path class="st2" d="M318.6,200.6l-0.4-0.1l-0.3-0.1c-3.5-1-7.1-1.9-10.7-2.8l-0.4-0.1l-0.3-0.1c-1.1-0.3-2.1-0.5-3.2-0.8l-0.4-0.1
		l-0.3-0.1c-3.6-0.9-7.1-1.7-10.7-2.5l-0.4-0.1l-0.3-0.1c-1.1-0.2-2.1-0.5-3.2-0.7l0,0l-0.4-0.1l-0.3-0.1c-3.6-0.7-7.2-1.5-10.8-2.1
		l-0.4-0.1H276c-1.2-0.2-2.4-0.4-3.6-0.7c-59-10.4-119.3-10.4-178.3,0l-3.6,0.6l-0.3,0.1l-0.4,0.1c-3.6,0.7-7.2,1.4-10.8,2.1
		l-0.3,0.1l-0.4,0.1l-3.2,0.7l-0.3,0.1l-0.3,0.1c-3.6,0.8-7.2,1.6-10.7,2.5l-0.3,0.1l-0.3,0.1l-3.2,0.8l0,0l-0.3,0.1l-0.3,0.1
		c-3.5,0.9-7.1,1.8-10.6,2.8l-0.3,0.1l-0.3,0.1l-2.5,0.7l-0.4,0.1l-0.3,0.1l-1.7,0.5l0,0c-3,0.9-5.9,1.7-8.9,2.6l-0.7,0.2l-1.8,0.6
		c-10.2,3.2-20.4,6.7-30.4,10.6v0.8c10-3.9,20.1-7.4,30.4-10.6l2-0.6l0.7-0.2c3.5-1.1,7.1-2.1,10.6-3.1l0.7-0.2l2.5-0.7l0.3-0.1
		l0.3-0.1c3.5-1,7.1-1.9,10.6-2.8l0.3-0.1l0.3-0.1l3.2-0.8l0.3-0.1l0.3-0.1c3.6-0.9,7.1-1.7,10.7-2.5l0.3-0.1l0.3-0.1l3.2-0.7
		l0.4-0.1l0.3-0.1c3.6-0.7,7.2-1.5,10.8-2.1l0.4-0.1l0.3-0.1c61.3-11.2,124-11.2,185.3,0l0.3,0.1l0.4,0.1c3.6,0.7,7.2,1.4,10.8,2.1
		l0.3,0.1l0.4,0.1l3.2,0.7l0.3,0.1l0.4,0.1c3.6,0.8,7.1,1.6,10.7,2.5l0.3,0.1l0.4,0.1l3.2,0.8l0.3,0.1l0.4,0.1
		c1.7,0.4,3.5,0.9,5.2,1.3c1.8,0.5,3.6,1,5.4,1.5l0.3,0.1l0.4,0.1l2.5,0.7l0.1-0.7L318.6,200.6z"/>
	<path class="st1" d="M334.9,195.6l-0.3-0.1l-0.3-0.1l-0.3-0.1c-3.5-1.1-7-2.1-10.6-3.1l-0.3-0.1l-0.3-0.1c-0.8-0.2-1.6-0.5-2.5-0.7
		l0,0l-0.4-0.1l-0.3-0.1c-3.5-1-7.1-1.9-10.7-2.8l-0.4-0.1l-0.3-0.1l-3.2-0.8l-0.4-0.1l-0.3-0.1c-3.6-0.9-7.1-1.7-10.7-2.5l-0.4-0.1
		l-0.3-0.1l-3.2-0.7l-0.4-0.1l-0.3-0.1c-3.6-0.7-7.2-1.5-10.8-2.1l-0.4-0.1h-0.3l0,0c-62.3-11.4-126.2-11.4-188.5,0l-0.3,0.1
		l-0.4,0.1c-3.6,0.7-7.2,1.4-10.8,2.1l-0.3,0.1l-0.3,0.1l-3.2,0.7l-0.3,0.1l-0.3,0.1c-3.6,0.7-7.1,1.5-10.7,2.3l-0.3,0.1l-0.3,0.1
		l-3.2,0.8l-0.3,0.1l-0.3,0.1c-3.6,0.9-7.1,1.8-10.7,2.8l-0.3,0.1l-0.3,0.1l-2.5,0.7l-0.4,0.1l-0.3,0.1c-3.5,1-7.1,2-10.6,3.1
		l-0.4,0.1l-0.3,0.1l-0.3,0.1c-10.2,3.2-20.3,6.7-30.4,10.5v0.7c10-3.8,20.2-7.3,30.4-10.4l0.4-0.1l0.3-0.1l0.4-0.1
		c3.5-1.1,7.1-2.1,10.6-3.1l0.3-0.1l0.4-0.1l2.5-0.7l0.3-0.1l0.4-0.1c3.5-1,7.1-1.9,10.6-2.8l0.3-0.1l0.3-0.1l3.2-0.8L62,188
		l0.3-0.1c3.6-0.9,7.1-1.7,10.7-2.5l0.3-0.1l0.3-0.1l3.2-0.7l0.3-0.1l0.3-0.1c3.6-0.7,7.2-1.4,10.8-2.1l0.4-0.1l0.3-0.1l0,0l3.5-0.6
		c59.9-10.5,121.3-10.5,181.2,0l3.6,0.6h0.3l0.4,0.1c3.6,0.7,7.2,1.4,10.8,2.1l0.3,0.1l0.4,0.1l3.2,0.7l0.3,0.1l0.4,0.1
		c3.6,0.8,7.1,1.6,10.7,2.4l0.3,0.1l0.4,0.1l3.2,0.8l0.3,0.1l0.4,0.1c3.6,0.9,7.1,1.8,10.7,2.8l0.3,0.1l0.4,0.1l2.5,0.7l0.3,0.1
		l0.3,0.1c3.5,1,7.1,2,10.6,3.1l0.3,0.1l0.3,0.1l0.5,0.1c10.2,3.1,20.4,6.6,30.4,10.4V206C355.3,202.2,345.1,198.8,334.9,195.6z"/>
	<path class="st2" d="M318.6,200.6l-0.4-0.1l-0.3-0.1c-3.5-1-7.1-1.9-10.7-2.8l-0.4-0.1l-0.3-0.1c-1.1-0.3-2.1-0.5-3.2-0.8l-0.4-0.1
		l-0.3-0.1c-3.6-0.9-7.1-1.7-10.7-2.5l-0.4-0.1l-0.3-0.1c-1.1-0.2-2.1-0.5-3.2-0.7l0,0l-0.4-0.1l-0.3-0.1c-3.6-0.7-7.2-1.5-10.8-2.1
		l-0.4-0.1H276c-1.2-0.2-2.4-0.4-3.6-0.7c-59-10.4-119.3-10.4-178.3,0l-3.6,0.6l-0.3,0.1l-0.4,0.1c-3.6,0.7-7.2,1.4-10.8,2.1
		l-0.3,0.1l-0.4,0.1l-3.2,0.7l-0.3,0.1l-0.3,0.1c-3.6,0.8-7.2,1.6-10.7,2.5l-0.3,0.1l-0.3,0.1l-3.2,0.8l0,0l-0.3,0.1l-0.3,0.1
		c-3.5,0.9-7.1,1.8-10.6,2.8l-0.3,0.1l-0.3,0.1l-2.5,0.7l-0.4,0.1l-0.3,0.1l-1.7,0.5l0,0c-3,0.9-5.9,1.7-8.9,2.6l-0.7,0.2l-1.8,0.6
		c-10.2,3.2-20.4,6.7-30.4,10.6v0.8c10-3.9,20.1-7.4,30.4-10.6l2-0.6l0.7-0.2c3.5-1.1,7.1-2.1,10.6-3.1l0.7-0.2l2.5-0.7l0.3-0.1
		l0.3-0.1c3.5-1,7.1-1.9,10.6-2.8l0.3-0.1l0.3-0.1l3.2-0.8l0.3-0.1l0.3-0.1c3.6-0.9,7.1-1.7,10.7-2.5l0.3-0.1l0.3-0.1l3.2-0.7
		l0.4-0.1l0.3-0.1c3.6-0.7,7.2-1.5,10.8-2.1l0.4-0.1l0.3-0.1c61.3-11.2,124-11.2,185.3,0l0.3,0.1l0.4,0.1c3.6,0.7,7.2,1.4,10.8,2.1
		l0.3,0.1l0.4,0.1l3.2,0.7l0.3,0.1l0.4,0.1c3.6,0.8,7.1,1.6,10.7,2.5l0.3,0.1l0.4,0.1l3.2,0.8l0.3,0.1l0.4,0.1
		c1.7,0.4,3.5,0.9,5.2,1.3c1.8,0.5,3.6,1,5.4,1.5l0.3,0.1l0.4,0.1l2.5,0.7l0.1-0.7L318.6,200.6z"/>
	<path class="st1" d="M334.9,205.4l-1.9-0.6l-0.7-0.2l0,0c-3-0.9-5.9-1.8-8.9-2.7l0,0l-1.6-0.5l-0.3-0.1l-0.3-0.1l-2.5-0.7l-0.4-0.1
		l-0.3-0.1c-3.5-1-7.1-1.9-10.7-2.8l-0.4-0.1l-0.3-0.1c-1.1-0.3-2.1-0.5-3.2-0.8l-0.4-0.1l-0.3-0.1c-3.6-0.9-7.1-1.7-10.7-2.5
		l-0.4-0.1l-0.3-0.1c-1.1-0.2-2.1-0.5-3.2-0.7l0,0l-0.4-0.1l-0.3-0.1c-3.6-0.7-7.2-1.5-10.8-2.1l-0.4-0.1H276
		c-1.2-0.2-2.4-0.4-3.6-0.7c-59-10.4-119.3-10.4-178.3,0l-3.6,0.6l-0.3,0.1l-0.4,0.1c-3.6,0.7-7.2,1.4-10.8,2.1l-0.3,0.1l-0.4,0.1
		l-3.2,0.7l-0.3,0.1l-0.3,0.1c-3.6,0.8-7.2,1.6-10.7,2.5l-0.3,0.1l-0.3,0.1l-3.2,0.8l0,0l-0.3,0.1l-0.3,0.1
		c-3.6,0.9-7.1,1.8-10.6,2.7l-0.3,0.1l-0.3,0.1l-2.5,0.7l-0.4,0.1l-0.3,0.1l-1.7,0.5l0,0c-3,0.9-5.9,1.7-8.9,2.6l-0.7,0.2l-1.8,0.6
		c-10.2,3.2-20.4,6.7-30.4,10.6v0.8c10-3.9,20.1-7.4,30.4-10.6l2-0.6l0.7-0.2c3.5-1.1,7.1-2.1,10.6-3.1l0.7-0.2l2.5-0.7l0.3-0.1
		l0.3-0.1c3.5-1,7.1-1.9,10.6-2.8l0.3-0.1l0.3-0.1l3.2-0.8l0.3-0.1l0.3-0.1c3.6-0.9,7.1-1.7,10.7-2.5l0.3-0.1l0.3-0.1l3.2-0.7
		l0.4-0.1l0.3-0.1c3.6-0.7,7.2-1.5,10.8-2.1l0.4-0.1l0.3-0.1c61.3-11.2,124-11.2,185.3,0l0.3,0.1l0.4,0.1c3.6,0.7,7.2,1.4,10.8,2.1
		l0.3,0.1l0.4,0.1l3.2,0.7l0.3,0.1l0.4,0.1c3.6,0.8,7.1,1.6,10.7,2.5l0.3,0.1l0.4,0.1l3.2,0.8l0.3,0.1l0.4,0.1
		c1.7,0.4,3.5,0.9,5.2,1.3c1.8,0.5,3.6,1,5.4,1.5l0.3,0.1l0.4,0.1l2.5,0.7l0.7,0.2c3.5,1,7.1,2,10.6,3.1l0.7,0.2l2,0.6
		c10.2,3.2,20.4,6.8,30.4,10.7v-0.8C355.3,212.2,345.1,208.6,334.9,205.4z"/>
	<path class="st1" d="M334.9,205.4l-1.9-0.6l-0.7-0.2l0,0c-3-0.9-5.9-1.8-8.9-2.7l0,0l-1.6-0.5l-0.3-0.1l-0.3-0.1l-2.5-0.7l-0.4-0.1
		l-0.3-0.1c-3.5-1-7.1-1.9-10.7-2.8l-0.4-0.1l-0.3-0.1c-1.1-0.3-2.1-0.5-3.2-0.8l-0.4-0.1l-0.3-0.1c-3.6-0.9-7.1-1.7-10.7-2.5
		l-0.4-0.1l-0.3-0.1c-1.1-0.2-2.1-0.5-3.2-0.7l0,0l-0.4-0.1l-0.3-0.1c-3.6-0.7-7.2-1.5-10.8-2.1l-0.4-0.1H276
		c-1.2-0.2-2.4-0.4-3.6-0.7c-59-10.4-119.3-10.4-178.3,0l-3.6,0.6l-0.3,0.1l-0.4,0.1c-3.6,0.7-7.2,1.4-10.8,2.1l-0.3,0.1l-0.4,0.1
		l-3.2,0.7l-0.3,0.1l-0.3,0.1c-3.6,0.8-7.2,1.6-10.7,2.5l-0.3,0.1l-0.3,0.1l-3.2,0.8l0,0l-0.3,0.1l-0.3,0.1
		c-3.6,0.9-7.1,1.8-10.6,2.7l-0.3,0.1l-0.3,0.1l-2.5,0.7l-0.4,0.1l-0.3,0.1l-1.7,0.5l0,0c-3,0.9-5.9,1.7-8.9,2.6l-0.7,0.2l-1.8,0.6
		c-10.2,3.2-20.4,6.7-30.4,10.6v0.8c10-3.9,20.1-7.4,30.4-10.6l2-0.6l0.7-0.2c3.5-1.1,7.1-2.1,10.6-3.1l0.7-0.2l2.5-0.7l0.3-0.1
		l0.3-0.1c3.5-1,7.1-1.9,10.6-2.8l0.3-0.1l0.3-0.1l3.2-0.8l0.3-0.1l0.3-0.1c3.6-0.9,7.1-1.7,10.7-2.5l0.3-0.1l0.3-0.1l3.2-0.7
		l0.4-0.1l0.3-0.1c3.6-0.7,7.2-1.5,10.8-2.1l0.4-0.1l0.3-0.1c61.3-11.2,124-11.2,185.3,0l0.3,0.1l0.4,0.1c3.6,0.7,7.2,1.4,10.8,2.1
		l0.3,0.1l0.4,0.1l3.2,0.7l0.3,0.1l0.4,0.1c3.6,0.8,7.1,1.6,10.7,2.5l0.3,0.1l0.4,0.1l3.2,0.8l0.3,0.1l0.4,0.1
		c1.7,0.4,3.5,0.9,5.2,1.3c1.8,0.5,3.6,1,5.4,1.5l0.3,0.1l0.4,0.1l2.5,0.7l0.7,0.2c3.5,1,7.1,2,10.6,3.1l0.7,0.2l2,0.6
		c10.2,3.2,20.4,6.8,30.4,10.7v-0.8C355.3,212.2,345.1,208.6,334.9,205.4z"/>
	<path class="st2" d="M301.1,307.9l-0.7-0.2c-3.6-0.9-7.1-1.7-10.7-2.4l-0.7-0.1l-3.2-0.7l-0.7-0.1c-3.6-0.7-7.2-1.4-10.8-2.1
		l-0.7-0.1l-3.2-0.6l-0.7-0.1c-3.6-0.6-7.2-1.2-10.8-1.7l0,0l-0.7-0.1c-21.8-3.2-43.9-5-66-5.4h-0.1c-3,0-6-0.1-9-0.1
		c-25.1,0-50.1,1.8-74.9,5.5l-0.7,0.1c-3.6,0.6-7.2,1.1-10.8,1.7l-0.7,0.1l-3.2,0.6l-0.7,0.1c-3.6,0.7-7.2,1.4-10.8,2.1l-0.7,0.1
		c-1.1,0.2-2.1,0.4-3.2,0.7l-0.7,0.1c-3.6,0.8-7.2,1.6-10.7,2.4c-0.2,0.1-0.5,0.1-0.7,0.2c-0.8,0.2-1.7,0.4-2.5,0.6l-0.7,0.2
		c-3.6,0.9-7.1,1.8-10.7,2.7l-0.7,0.2c-5.7,1.5-11.4,3.2-17.1,4.9l-2.2,0.7c-10.2,3.2-20.4,6.7-30.4,10.6v0.8
		c10-3.8,20.2-7.4,30.4-10.6c1.5-0.5,3.1-1,4.6-1.4c4.9-1.5,9.8-2.9,14.8-4.2l0.7-0.2c3.5-1,7.1-1.9,10.7-2.7l0.7-0.2l2.5-0.6
		l0.7-0.2c3.6-0.9,7.1-1.7,10.7-2.4l0.7-0.1l3.2-0.7l0.7-0.1c3.6-0.7,7.2-1.4,10.8-2.1l0.7-0.1l3.2-0.6l0.7-0.1
		c3.6-0.6,7.2-1.2,10.8-1.7l0.7-0.1c20-3,40.3-4.7,60.5-5.3h1.6c4.3-0.1,8.5-0.2,12.8-0.2c2.2,0,4.5,0,6.7,0h2.3
		c22,0.4,44,2.2,65.8,5.4l0.7,0.1c3.6,0.5,7.2,1.1,10.8,1.7l0.7,0.1l3.2,0.6l0.7,0.1c3.6,0.7,7.2,1.4,10.8,2.1l0.7,0.1l3.2,0.7
		l0.7,0.1c3.6,0.8,7.2,1.6,10.7,2.4l0.7,0.2l2.5,0.6l0.1-0.7L301.1,307.9z"/>
	<path class="st1" d="M334.9,317.3l-2.3-0.7c-5.6-1.7-11.3-3.4-17-4.9l-0.7-0.2c-3.6-1-7.1-1.9-10.7-2.7c-0.2-0.1-0.5-0.1-0.7-0.2
		l-2.5-0.6l-0.7-0.2c-3.6-0.9-7.1-1.7-10.7-2.4l-0.7-0.1l-3.2-0.7l-0.7-0.1c-3.6-0.7-7.2-1.4-10.8-2.1l-0.7-0.1l-3.2-0.6l-0.7-0.1
		c-3.6-0.6-7.2-1.2-10.8-1.7l0,0l-0.7-0.1c-21.8-3.2-43.9-5-66-5.4h-0.1c-3,0-6-0.1-9-0.1c-25.1,0-50.1,1.8-74.9,5.5l-0.7,0.1
		c-3.6,0.6-7.2,1.1-10.8,1.7l-0.7,0.1l-3.2,0.6l-0.7,0.1c-3.6,0.7-7.2,1.4-10.8,2.1l-0.7,0.1c-1.1,0.2-2.1,0.4-3.2,0.7l-0.7,0.1
		c-3.6,0.8-7.2,1.6-10.7,2.4c-0.2,0.1-0.5,0.1-0.7,0.2c-0.8,0.2-1.7,0.4-2.5,0.6l-0.7,0.2c-3.6,0.9-7.1,1.8-10.7,2.7l-0.7,0.2
		c-5.7,1.5-11.4,3.2-17.1,4.9l-2.2,0.7c-10.2,3.2-20.4,6.7-30.4,10.6v0.8c10-3.8,20.2-7.4,30.4-10.6c1.5-0.5,3.1-1,4.6-1.4
		c4.9-1.5,9.8-2.9,14.8-4.2l0.7-0.2c3.5-1,7.1-1.9,10.7-2.7l0.7-0.2l2.5-0.6l0.7-0.2c3.6-0.9,7.1-1.7,10.7-2.4l0.7-0.1l3.2-0.7
		l0.7-0.1c3.6-0.7,7.2-1.4,10.8-2.1l0.7-0.1l3.2-0.6l0.7-0.1c3.6-0.6,7.2-1.2,10.8-1.7l0.7-0.1c20-3,40.3-4.7,60.5-5.3h1.6
		c4.3-0.1,8.5-0.2,12.8-0.2c2.2,0,4.5,0,6.7,0h2.3c22,0.4,44,2.2,65.8,5.4l0.7,0.1c3.6,0.5,7.2,1.1,10.8,1.7l0.7,0.1l3.2,0.6
		l0.7,0.1c3.6,0.7,7.2,1.4,10.8,2.1l0.7,0.1l3.2,0.7l0.7,0.1c3.6,0.8,7.2,1.6,10.7,2.4l0.7,0.2l2.5,0.6l0.7,0.2l0,0
		c3.6,0.9,7.1,1.8,10.7,2.7l0.7,0.2c4.9,1.3,9.8,2.7,14.7,4.2c1.6,0.5,3.2,1,4.7,1.5c10.2,3.2,20.4,6.8,30.4,10.7v-0.8
		C355.3,324,345.1,320.5,334.9,317.3z"/>
	<path class="st1" d="M334.9,317.3l-2.3-0.7c-5.6-1.7-11.3-3.4-17-4.9l-0.7-0.2c-3.6-1-7.1-1.9-10.7-2.7c-0.2-0.1-0.5-0.1-0.7-0.2
		l-2.5-0.6l-0.7-0.2c-3.6-0.9-7.1-1.7-10.7-2.4l-0.7-0.1l-3.2-0.7l-0.7-0.1c-3.6-0.7-7.2-1.4-10.8-2.1l-0.7-0.1l-3.2-0.6l-0.7-0.1
		c-3.6-0.6-7.2-1.2-10.8-1.7l0,0l-0.7-0.1c-21.8-3.2-43.9-5-66-5.4h-0.1c-3,0-6-0.1-9-0.1c-25.1,0-50.1,1.8-74.9,5.5l-0.7,0.1
		c-3.6,0.6-7.2,1.1-10.8,1.7l-0.7,0.1l-3.2,0.6l-0.7,0.1c-3.6,0.7-7.2,1.4-10.8,2.1l-0.7,0.1c-1.1,0.2-2.1,0.4-3.2,0.7l-0.7,0.1
		c-3.6,0.8-7.2,1.6-10.7,2.4c-0.2,0.1-0.5,0.1-0.7,0.2c-0.8,0.2-1.7,0.4-2.5,0.6l-0.7,0.2c-3.6,0.9-7.1,1.8-10.7,2.7l-0.7,0.2
		c-5.7,1.5-11.4,3.2-17.1,4.9l-2.2,0.7c-10.2,3.2-20.4,6.7-30.4,10.6v0.8c10-3.8,20.2-7.4,30.4-10.6c1.5-0.5,3.1-1,4.6-1.4
		c4.9-1.5,9.8-2.9,14.8-4.2l0.7-0.2c3.5-1,7.1-1.9,10.7-2.7l0.7-0.2l2.5-0.6l0.7-0.2c3.6-0.9,7.1-1.7,10.7-2.4l0.7-0.1l3.2-0.7
		l0.7-0.1c3.6-0.7,7.2-1.4,10.8-2.1l0.7-0.1l3.2-0.6l0.7-0.1c3.6-0.6,7.2-1.2,10.8-1.7l0.7-0.1c20-3,40.3-4.7,60.5-5.3h1.6
		c4.3-0.1,8.5-0.2,12.8-0.2c2.2,0,4.5,0,6.7,0h2.3c22,0.4,44,2.2,65.8,5.4l0.7,0.1c3.6,0.5,7.2,1.1,10.8,1.7l0.7,0.1l3.2,0.6
		l0.7,0.1c3.6,0.7,7.2,1.4,10.8,2.1l0.7,0.1l3.2,0.7l0.7,0.1c3.6,0.8,7.2,1.6,10.7,2.4l0.7,0.2l2.5,0.6l0.7,0.2l0,0
		c3.6,0.9,7.1,1.8,10.7,2.7l0.7,0.2c4.9,1.3,9.8,2.7,14.7,4.2c1.6,0.5,3.2,1,4.7,1.5c10.2,3.2,20.4,6.8,30.4,10.7v-0.8
		C355.3,324,345.1,320.5,334.9,317.3z"/>
	<path class="st1" d="M334.9,317.3l-2.3-0.7c-5.6-1.7-11.3-3.4-17-4.9l-0.7-0.2c-3.6-1-7.1-1.9-10.7-2.7c-0.2-0.1-0.5-0.1-0.7-0.2
		l-2.5-0.6l-0.7-0.2c-3.6-0.9-7.1-1.7-10.7-2.4l-0.7-0.1l-3.2-0.7l-0.7-0.1c-3.6-0.7-7.2-1.4-10.8-2.1l-0.7-0.1l-3.2-0.6l-0.7-0.1
		c-3.6-0.6-7.2-1.2-10.8-1.7l0,0l-0.7-0.1c-21.8-3.2-43.9-5-66-5.4h-0.1c-3,0-6-0.1-9-0.1c-25.1,0-50.1,1.8-74.9,5.5l-0.7,0.1
		c-3.6,0.6-7.2,1.1-10.8,1.7l-0.7,0.1l-3.2,0.6l-0.7,0.1c-3.6,0.7-7.2,1.4-10.8,2.1l-0.7,0.1c-1.1,0.2-2.1,0.4-3.2,0.7l-0.7,0.1
		c-3.6,0.8-7.2,1.6-10.7,2.4c-0.2,0.1-0.5,0.1-0.7,0.2c-0.8,0.2-1.7,0.4-2.5,0.6l-0.7,0.2c-3.6,0.9-7.1,1.8-10.7,2.7l-0.7,0.2
		c-5.7,1.5-11.4,3.2-17.1,4.9l-2.2,0.7c-10.2,3.2-20.4,6.7-30.4,10.6v0.8c10-3.8,20.2-7.4,30.4-10.6c1.5-0.5,3.1-1,4.6-1.4
		c4.9-1.5,9.8-2.9,14.8-4.2l0.7-0.2c3.5-1,7.1-1.9,10.7-2.7l0.7-0.2l2.5-0.6l0.7-0.2c3.6-0.9,7.1-1.7,10.7-2.4l0.7-0.1l3.2-0.7
		l0.7-0.1c3.6-0.7,7.2-1.4,10.8-2.1l0.7-0.1l3.2-0.6l0.7-0.1c3.6-0.6,7.2-1.2,10.8-1.7l0.7-0.1c20-3,40.3-4.7,60.5-5.3h1.6
		c4.3-0.1,8.5-0.2,12.8-0.2c2.2,0,4.5,0,6.7,0h2.3c22,0.4,44,2.2,65.8,5.4l0.7,0.1c3.6,0.5,7.2,1.1,10.8,1.7l0.7,0.1l3.2,0.6
		l0.7,0.1c3.6,0.7,7.2,1.4,10.8,2.1l0.7,0.1l3.2,0.7l0.7,0.1c3.6,0.8,7.2,1.6,10.7,2.4l0.7,0.2l2.5,0.6l0.7,0.2l0,0
		c3.6,0.9,7.1,1.8,10.7,2.7l0.7,0.2c4.9,1.3,9.8,2.7,14.7,4.2c1.6,0.5,3.2,1,4.7,1.5c10.2,3.2,20.4,6.8,30.4,10.7v-0.8
		C355.3,324,345.1,320.5,334.9,317.3z"/>
	<path class="st1" d="M334.9,317.3l-2.3-0.7c-5.6-1.7-11.3-3.4-17-4.9l-0.7-0.2c-3.6-1-7.1-1.9-10.7-2.7c-0.2-0.1-0.5-0.1-0.7-0.2
		l-2.5-0.6l-0.7-0.2c-3.6-0.9-7.1-1.7-10.7-2.4l-0.7-0.1l-3.2-0.7l-0.7-0.1c-3.6-0.7-7.2-1.4-10.8-2.1l-0.7-0.1l-3.2-0.6l-0.7-0.1
		c-3.6-0.6-7.2-1.2-10.8-1.7l0,0l-0.7-0.1c-21.8-3.2-43.9-5-66-5.4h-0.1c-3,0-6-0.1-9-0.1c-25.1,0-50.1,1.8-74.9,5.5l-0.7,0.1
		c-3.6,0.6-7.2,1.1-10.8,1.7l-0.7,0.1l-3.2,0.6l-0.7,0.1c-3.6,0.7-7.2,1.4-10.8,2.1l-0.7,0.1c-1.1,0.2-2.1,0.4-3.2,0.7l-0.7,0.1
		c-3.6,0.8-7.2,1.6-10.7,2.4c-0.2,0.1-0.5,0.1-0.7,0.2c-0.8,0.2-1.7,0.4-2.5,0.6l-0.7,0.2c-3.6,0.9-7.1,1.8-10.7,2.7l-0.7,0.2
		c-5.7,1.5-11.4,3.2-17.1,4.9l-2.2,0.7c-10.2,3.2-20.4,6.7-30.4,10.6v0.8c10-3.8,20.2-7.4,30.4-10.6c1.5-0.5,3.1-1,4.6-1.4
		c4.9-1.5,9.8-2.9,14.8-4.2l0.7-0.2c3.5-1,7.1-1.9,10.7-2.7l0.7-0.2l2.5-0.6l0.7-0.2c3.6-0.9,7.1-1.7,10.7-2.4l0.7-0.1l3.2-0.7
		l0.7-0.1c3.6-0.7,7.2-1.4,10.8-2.1l0.7-0.1l3.2-0.6l0.7-0.1c3.6-0.6,7.2-1.2,10.8-1.7l0.7-0.1c20-3,40.3-4.7,60.5-5.3h1.6
		c4.3-0.1,8.5-0.2,12.8-0.2c2.2,0,4.5,0,6.7,0h2.3c22,0.4,44,2.2,65.8,5.4l0.7,0.1c3.6,0.5,7.2,1.1,10.8,1.7l0.7,0.1l3.2,0.6
		l0.7,0.1c3.6,0.7,7.2,1.4,10.8,2.1l0.7,0.1l3.2,0.7l0.7,0.1c3.6,0.8,7.2,1.6,10.7,2.4l0.7,0.2l2.5,0.6l0.7,0.2l0,0
		c3.6,0.9,7.1,1.8,10.7,2.7l0.7,0.2c4.9,1.3,9.8,2.7,14.7,4.2c1.6,0.5,3.2,1,4.7,1.5c10.2,3.2,20.4,6.8,30.4,10.7v-0.8
		C355.3,324,345.1,320.5,334.9,317.3z"/>
	<path class="st1" d="M334.9,317.3l-2.3-0.7c-5.6-1.7-11.3-3.4-17-4.9l-0.7-0.2c-3.6-1-7.1-1.9-10.7-2.7c-0.2-0.1-0.5-0.1-0.7-0.2
		l-2.5-0.6l-0.7-0.2c-3.6-0.9-7.1-1.7-10.7-2.4l-0.7-0.1l-3.2-0.7l-0.7-0.1c-3.6-0.7-7.2-1.4-10.8-2.1l-0.7-0.1l-3.2-0.6l-0.7-0.1
		c-3.6-0.6-7.2-1.2-10.8-1.7l0,0l-0.7-0.1c-21.8-3.2-43.9-5-66-5.4h-0.1c-3,0-6-0.1-9-0.1c-25.1,0-50.1,1.8-74.9,5.5l-0.7,0.1
		c-3.6,0.6-7.2,1.1-10.8,1.7l-0.7,0.1l-3.2,0.6l-0.7,0.1c-3.6,0.7-7.2,1.4-10.8,2.1l-0.7,0.1c-1.1,0.2-2.1,0.4-3.2,0.7l-0.7,0.1
		c-3.6,0.8-7.2,1.6-10.7,2.4c-0.2,0.1-0.5,0.1-0.7,0.2c-0.8,0.2-1.7,0.4-2.5,0.6l-0.7,0.2c-3.6,0.9-7.1,1.8-10.7,2.7l-0.7,0.2
		c-5.7,1.5-11.4,3.2-17.1,4.9l-2.2,0.7c-10.2,3.2-20.4,6.7-30.4,10.6v0.8c10-3.8,20.2-7.4,30.4-10.6c1.5-0.5,3.1-1,4.6-1.4
		c4.9-1.5,9.8-2.9,14.8-4.2l0.7-0.2c3.5-1,7.1-1.9,10.7-2.7l0.7-0.2l2.5-0.6l0.7-0.2c3.6-0.9,7.1-1.7,10.7-2.4l0.7-0.1l3.2-0.7
		l0.7-0.1c3.6-0.7,7.2-1.4,10.8-2.1l0.7-0.1l3.2-0.6l0.7-0.1c3.6-0.6,7.2-1.2,10.8-1.7l0.7-0.1c20-3,40.3-4.7,60.5-5.3h1.6
		c4.3-0.1,8.5-0.2,12.8-0.2c2.2,0,4.5,0,6.7,0h2.3c22,0.4,44,2.2,65.8,5.4l0.7,0.1c3.6,0.5,7.2,1.1,10.8,1.7l0.7,0.1l3.2,0.6
		l0.7,0.1c3.6,0.7,7.2,1.4,10.8,2.1l0.7,0.1l3.2,0.7l0.7,0.1c3.6,0.8,7.2,1.6,10.7,2.4l0.7,0.2l2.5,0.6l0.7,0.2l0,0
		c3.6,0.9,7.1,1.8,10.7,2.7l0.7,0.2c4.9,1.3,9.8,2.7,14.7,4.2c1.6,0.5,3.2,1,4.7,1.5c10.2,3.2,20.4,6.8,30.4,10.7v-0.8
		C355.3,324,345.1,320.5,334.9,317.3z"/>
	<path class="st2" d="M1.2,327.8v0.8c10-3.8,20.2-7.4,30.4-10.6v-0.7C21.4,320.5,11.2,324,1.2,327.8z"/>
	<path class="st1" d="M361.7,316.6c-8.8-3.3-17.8-6.3-26.8-9c-5.9-1.8-11.8-3.5-17.8-5.1l-0.7-0.2l0,0c-3.6-0.9-7.1-1.9-10.7-2.7
		l-0.7-0.2l-2.5-0.6l-0.7-0.2c-3.6-0.8-7.1-1.6-10.7-2.4l-0.7-0.1c-1.1-0.2-2.1-0.4-3.2-0.7l-0.7-0.1l-0.9-0.2l-2.8-0.6l-2-0.4
		l-4.5-0.8l-0.5-0.1c-0.2,0-0.5-0.1-0.7-0.1c-1.1-0.2-2.2-0.4-3.2-0.6l-0.7-0.1c-3.6-0.6-7.2-1.2-10.8-1.7l-0.7-0.1l-0.6-0.1
		l-2.3-0.3c-5.1-0.7-10.3-1.4-15.4-2c-3.5-0.4-7.1-0.8-10.6-1.1l-4.3-0.4l-4.3-0.3c-2.1-0.2-4.3-0.3-6.5-0.4l-3.2-0.2l-2.4-0.1
		l-3.9-0.2c-3.3-0.1-6.6-0.3-9.9-0.3l-3.2-0.1h-1.8h-1h-1c-2,0-4,0-6,0h-2.5c-3.1,0-6.3,0-9.4,0.1H170l-4.9,0.1h-0.4l-4.2,0.2
		l-1.8,0.1l-2.1,0.1l-2.1,0.1c-1.3,0.1-2.5,0.1-3.8,0.2l-4.1,0.3c-1.4,0.1-2.9,0.2-4.3,0.3l-3.4,0.3l-3.4,0.3l-5.2,0.5
		c-1.7,0.2-3.5,0.4-5.2,0.6c-1.1,0.1-2.1,0.2-3.2,0.4l0,0c-2.1,0.3-4.3,0.5-6.4,0.8l-0.4,0.1c-2.7,0.4-5.5,0.8-8.2,1.2l-0.7,0.1
		L103,291l-1,0.2l-1.3,0.2l-2,0.3l-1.1,0.2l-1.1,0.2l-1.1,0.2l-0.7,0.1l-3.2,0.6l-0.7,0.1c-0.7,0.1-1.4,0.2-2,0.4l-0.3,0.1l-0.3,0.1
		l0,0H88l-0.4,0.1l-2.1,0.4l-4.6,0.9l-0.7,0.1l-0.7,0.1c-1.1,0.2-2.1,0.4-3.2,0.7l-0.7,0.1c-3.6,0.8-7.2,1.6-10.7,2.4l-0.7,0.2
		l-2.5,0.6l-0.7,0.2c-3.6,0.9-7.1,1.8-10.7,2.7l-0.7,0.2c-6,1.6-11.9,3.3-17.8,5.1c-9,2.8-18,5.8-26.8,9.1l-3.7,1.3v0.7
		c1.9-0.7,3.7-1.4,5.6-2.1c8.2-3,16.5-5.8,24.8-8.3c5.9-1.8,11.9-3.6,17.9-5.2l0.7-0.2c3.5-1,7.1-1.9,10.7-2.7l0.7-0.2l2.5-0.6
		l0.7-0.2c3.6-0.8,7.1-1.6,10.7-2.4l0.7-0.1l3.2-0.7l0.7-0.1c3.6-0.7,7.2-1.4,10.8-2.1l0.7-0.1l3.2-0.6l0.7-0.1
		c3.6-0.6,7.2-1.2,10.8-1.7l0.7-0.1c50.6-7.5,102.1-7.5,152.7,0l0.7,0.1c3.6,0.5,7.2,1.1,10.8,1.7l0.7,0.1l3.2,0.6l0.7,0.1
		c3.6,0.7,7.2,1.4,10.8,2.1l0.7,0.1l3.2,0.7l0.7,0.1c3.6,0.8,7.2,1.6,10.7,2.4l0.7,0.2l2.5,0.6l0,0c0.2,0,0.5,0.1,0.7,0.2
		c3.6,0.9,7.1,1.8,10.7,2.7l0.7,0.2c6,1.6,12,3.3,17.9,5.2c8.3,2.6,16.5,5.3,24.7,8.3c1.9,0.7,3.8,1.4,5.7,2.1v-0.7L361.7,316.6z"/>
	<path class="st2" d="M1.2,328.6c10-3.9,20.2-7.4,30.4-10.7v-0.7c-10.2,3.2-20.4,6.7-30.4,10.6V328.6z"/>
	<path class="st2" d="M1.2,327.8v0.8c10-3.8,20.2-7.4,30.4-10.6v-0.7C21.4,320.5,11.2,324,1.2,327.8z"/>
	<path class="st1" d="M334.9,317.3l-2.3-0.7c-5.6-1.7-11.3-3.4-17-4.9l-0.7-0.2c-3.6-1-7.1-1.9-10.7-2.7c-0.2-0.1-0.5-0.1-0.7-0.2
		l-2.5-0.6l-0.7-0.2c-3.6-0.9-7.1-1.7-10.7-2.4l-0.7-0.1l-3.2-0.7l-0.7-0.1c-3.6-0.7-7.2-1.4-10.8-2.1l-0.7-0.1l-3.2-0.6l-0.7-0.1
		c-3.6-0.6-7.2-1.2-10.8-1.7l0,0l-0.7-0.1c-21.8-3.2-43.9-5-66-5.4h-0.1c-3,0-6-0.1-9-0.1c-25.1,0-50.1,1.8-74.9,5.5l-0.7,0.1
		c-3.6,0.6-7.2,1.1-10.8,1.7l-0.7,0.1l-3.2,0.6l-0.7,0.1c-3.6,0.7-7.2,1.4-10.8,2.1l-0.7,0.1c-1.1,0.2-2.1,0.4-3.2,0.7l-0.7,0.1
		c-3.6,0.8-7.2,1.6-10.7,2.4c-0.2,0.1-0.5,0.1-0.7,0.2c-0.8,0.2-1.7,0.4-2.5,0.6l-0.7,0.2c-3.6,0.9-7.1,1.8-10.7,2.7l-0.7,0.2
		c-5.7,1.5-11.4,3.2-17.1,4.9l-2.2,0.7c-10.2,3.2-20.4,6.7-30.4,10.6v0.8c10-3.8,20.2-7.4,30.4-10.6c1.5-0.5,3.1-1,4.6-1.4
		c4.9-1.5,9.8-2.9,14.8-4.2l0.7-0.2c3.5-1,7.1-1.9,10.7-2.7l0.7-0.2l2.5-0.6l0.7-0.2c3.6-0.9,7.1-1.7,10.7-2.4l0.7-0.1l3.2-0.7
		l0.7-0.1c3.6-0.7,7.2-1.4,10.8-2.1l0.7-0.1l3.2-0.6l0.7-0.1c3.6-0.6,7.2-1.2,10.8-1.7l0.7-0.1c20-3,40.3-4.7,60.5-5.3h1.6
		c4.3-0.1,8.5-0.2,12.8-0.2c2.2,0,4.5,0,6.7,0h2.3c22,0.4,44,2.2,65.8,5.4l0.7,0.1c3.6,0.5,7.2,1.1,10.8,1.7l0.7,0.1l3.2,0.6
		l0.7,0.1c3.6,0.7,7.2,1.4,10.8,2.1l0.7,0.1l3.2,0.7l0.7,0.1c3.6,0.8,7.2,1.6,10.7,2.4l0.7,0.2l2.5,0.6l0.7,0.2l0,0
		c3.6,0.9,7.1,1.8,10.7,2.7l0.7,0.2c4.9,1.3,9.8,2.7,14.7,4.2c1.6,0.5,3.2,1,4.7,1.5c10.2,3.2,20.4,6.8,30.4,10.7v-0.8
		C355.3,324,345.1,320.5,334.9,317.3z"/>
	<path class="st1" d="M334.9,317.3l-2.3-0.7c-5.6-1.7-11.3-3.4-17-4.9l-0.7-0.2c-3.6-1-7.1-1.9-10.7-2.7c-0.2-0.1-0.5-0.1-0.7-0.2
		l-2.5-0.6l-0.7-0.2c-3.6-0.9-7.1-1.7-10.7-2.4l-0.7-0.1l-3.2-0.7l-0.7-0.1c-3.6-0.7-7.2-1.4-10.8-2.1l-0.7-0.1l-3.2-0.6l-0.7-0.1
		c-3.6-0.6-7.2-1.2-10.8-1.7l0,0l-0.7-0.1c-21.8-3.2-43.9-5-66-5.4h-0.1c-3,0-6-0.1-9-0.1c-25.1,0-50.1,1.8-74.9,5.5l-0.7,0.1
		c-3.6,0.6-7.2,1.1-10.8,1.7l-0.7,0.1l-3.2,0.6l-0.7,0.1c-3.6,0.7-7.2,1.4-10.8,2.1l-0.7,0.1c-1.1,0.2-2.1,0.4-3.2,0.7l-0.7,0.1
		c-3.6,0.8-7.2,1.6-10.7,2.4c-0.2,0.1-0.5,0.1-0.7,0.2c-0.8,0.2-1.7,0.4-2.5,0.6l-0.7,0.2c-3.6,0.9-7.1,1.8-10.7,2.7l-0.7,0.2
		c-5.7,1.5-11.4,3.2-17.1,4.9l-2.2,0.7c-10.2,3.2-20.4,6.7-30.4,10.6v0.8c10-3.8,20.2-7.4,30.4-10.6c1.5-0.5,3.1-1,4.6-1.4
		c4.9-1.5,9.8-2.9,14.8-4.2l0.7-0.2c3.5-1,7.1-1.9,10.7-2.7l0.7-0.2l2.5-0.6l0.7-0.2c3.6-0.9,7.1-1.7,10.7-2.4l0.7-0.1l3.2-0.7
		l0.7-0.1c3.6-0.7,7.2-1.4,10.8-2.1l0.7-0.1l3.2-0.6l0.7-0.1c3.6-0.6,7.2-1.2,10.8-1.7l0.7-0.1c20-3,40.3-4.7,60.5-5.3h1.6
		c4.3-0.1,8.5-0.2,12.8-0.2c2.2,0,4.5,0,6.7,0h2.3c22,0.4,44,2.2,65.8,5.4l0.7,0.1c3.6,0.5,7.2,1.1,10.8,1.7l0.7,0.1l3.2,0.6
		l0.7,0.1c3.6,0.7,7.2,1.4,10.8,2.1l0.7,0.1l3.2,0.7l0.7,0.1c3.6,0.8,7.2,1.6,10.7,2.4l0.7,0.2l2.5,0.6l0.7,0.2l0,0
		c3.6,0.9,7.1,1.8,10.7,2.7l0.7,0.2c4.9,1.3,9.8,2.7,14.7,4.2c1.6,0.5,3.2,1,4.7,1.5c10.2,3.2,20.4,6.8,30.4,10.7v-0.8
		C355.3,324,345.1,320.5,334.9,317.3z"/>
	<path class="st1" d="M334.9,317.3l-2.3-0.7c-5.6-1.7-11.3-3.4-17-4.9l-0.7-0.2c-3.6-1-7.1-1.9-10.7-2.7c-0.2-0.1-0.5-0.1-0.7-0.2
		l-2.5-0.6l-0.7-0.2c-3.6-0.9-7.1-1.7-10.7-2.4l-0.7-0.1l-3.2-0.7l-0.7-0.1c-3.6-0.7-7.2-1.4-10.8-2.1l-0.7-0.1l-3.2-0.6l-0.7-0.1
		c-3.6-0.6-7.2-1.2-10.8-1.7l0,0l-0.7-0.1c-21.8-3.2-43.9-5-66-5.4h-0.1c-3,0-6-0.1-9-0.1c-25.1,0-50.1,1.8-74.9,5.5l-0.7,0.1
		c-3.6,0.6-7.2,1.1-10.8,1.7l-0.7,0.1l-3.2,0.6l-0.7,0.1c-3.6,0.7-7.2,1.4-10.8,2.1l-0.7,0.1c-1.1,0.2-2.1,0.4-3.2,0.7l-0.7,0.1
		c-3.6,0.8-7.2,1.6-10.7,2.4c-0.2,0.1-0.5,0.1-0.7,0.2c-0.8,0.2-1.7,0.4-2.5,0.6l-0.7,0.2c-3.6,0.9-7.1,1.8-10.7,2.7l-0.7,0.2
		c-5.7,1.5-11.4,3.2-17.1,4.9l-2.2,0.7c-10.2,3.2-20.4,6.7-30.4,10.6v0.8c10-3.8,20.2-7.4,30.4-10.6c1.5-0.5,3.1-1,4.6-1.4
		c4.9-1.5,9.8-2.9,14.8-4.2l0.7-0.2c3.5-1,7.1-1.9,10.7-2.7l0.7-0.2l2.5-0.6l0.7-0.2c3.6-0.9,7.1-1.7,10.7-2.4l0.7-0.1l3.2-0.7
		l0.7-0.1c3.6-0.7,7.2-1.4,10.8-2.1l0.7-0.1l3.2-0.6l0.7-0.1c3.6-0.6,7.2-1.2,10.8-1.7l0.7-0.1c20-3,40.3-4.7,60.5-5.3h1.6
		c4.3-0.1,8.5-0.2,12.8-0.2c2.2,0,4.5,0,6.7,0h2.3c22,0.4,44,2.2,65.8,5.4l0.7,0.1c3.6,0.5,7.2,1.1,10.8,1.7l0.7,0.1l3.2,0.6
		l0.7,0.1c3.6,0.7,7.2,1.4,10.8,2.1l0.7,0.1l3.2,0.7l0.7,0.1c3.6,0.8,7.2,1.6,10.7,2.4l0.7,0.2l2.5,0.6l0.7,0.2l0,0
		c3.6,0.9,7.1,1.8,10.7,2.7l0.7,0.2c4.9,1.3,9.8,2.7,14.7,4.2c1.6,0.5,3.2,1,4.7,1.5c10.2,3.2,20.4,6.8,30.4,10.7v-0.8
		C355.3,324,345.1,320.5,334.9,317.3z"/>
	<path class="st1" d="M334.9,317.3l-2.3-0.7c-5.6-1.7-11.3-3.4-17-4.9l-0.7-0.2c-3.6-1-7.1-1.9-10.7-2.7c-0.2-0.1-0.5-0.1-0.7-0.2
		l-2.5-0.6l-0.7-0.2c-3.6-0.9-7.1-1.7-10.7-2.4l-0.7-0.1l-3.2-0.7l-0.7-0.1c-3.6-0.7-7.2-1.4-10.8-2.1l-0.7-0.1l-3.2-0.6l-0.7-0.1
		c-3.6-0.6-7.2-1.2-10.8-1.7l0,0l-0.7-0.1c-21.8-3.2-43.9-5-66-5.4h-0.1c-3,0-6-0.1-9-0.1c-25.1,0-50.1,1.8-74.9,5.5l-0.7,0.1
		c-3.6,0.6-7.2,1.1-10.8,1.7l-0.7,0.1l-3.2,0.6l-0.7,0.1c-3.6,0.7-7.2,1.4-10.8,2.1l-0.7,0.1c-1.1,0.2-2.1,0.4-3.2,0.7l-0.7,0.1
		c-3.6,0.8-7.2,1.6-10.7,2.4c-0.2,0.1-0.5,0.1-0.7,0.2c-0.8,0.2-1.7,0.4-2.5,0.6l-0.7,0.2c-3.6,0.9-7.1,1.8-10.7,2.7l-0.7,0.2
		c-5.7,1.5-11.4,3.2-17.1,4.9l-2.2,0.7c-10.2,3.2-20.4,6.7-30.4,10.6v0.8c10-3.8,20.2-7.4,30.4-10.6c1.5-0.5,3.1-1,4.6-1.4
		c4.9-1.5,9.8-2.9,14.8-4.2l0.7-0.2c3.5-1,7.1-1.9,10.7-2.7l0.7-0.2l2.5-0.6l0.7-0.2c3.6-0.9,7.1-1.7,10.7-2.4l0.7-0.1l3.2-0.7
		l0.7-0.1c3.6-0.7,7.2-1.4,10.8-2.1l0.7-0.1l3.2-0.6l0.7-0.1c3.6-0.6,7.2-1.2,10.8-1.7l0.7-0.1c20-3,40.3-4.7,60.5-5.3h1.6
		c4.3-0.1,8.5-0.2,12.8-0.2c2.2,0,4.5,0,6.7,0h2.3c22,0.4,44,2.2,65.8,5.4l0.7,0.1c3.6,0.5,7.2,1.1,10.8,1.7l0.7,0.1l3.2,0.6
		l0.7,0.1c3.6,0.7,7.2,1.4,10.8,2.1l0.7,0.1l3.2,0.7l0.7,0.1c3.6,0.8,7.2,1.6,10.7,2.4l0.7,0.2l2.5,0.6l0.7,0.2l0,0
		c3.6,0.9,7.1,1.8,10.7,2.7l0.7,0.2c4.9,1.3,9.8,2.7,14.7,4.2c1.6,0.5,3.2,1,4.7,1.5c10.2,3.2,20.4,6.8,30.4,10.7v-0.8
		C355.3,324,345.1,320.5,334.9,317.3z"/>
	<path class="st2" d="M301.1,307.9l-0.7-0.2c-3.6-0.9-7.1-1.7-10.7-2.4l-0.7-0.1l-3.2-0.7l-0.7-0.1c-3.6-0.7-7.2-1.4-10.8-2.1
		l-0.7-0.1l-3.2-0.6l-0.7-0.1c-3.6-0.6-7.2-1.2-10.8-1.7l0,0l-0.7-0.1c-21.8-3.2-43.9-5-66-5.4h-0.1c-3,0-6-0.1-9-0.1
		c-25.1,0-50.1,1.8-74.9,5.5l-0.7,0.1c-3.6,0.6-7.2,1.1-10.8,1.7l-0.7,0.1l-3.2,0.6l-0.7,0.1c-3.6,0.7-7.2,1.4-10.8,2.1l-0.7,0.1
		c-1.1,0.2-2.1,0.4-3.2,0.7l-0.7,0.1c-3.6,0.8-7.2,1.6-10.7,2.4c-0.2,0.1-0.5,0.1-0.7,0.2c-0.8,0.2-1.7,0.4-2.5,0.6l-0.7,0.2
		c-3.6,0.9-7.1,1.8-10.7,2.7l-0.7,0.2c-5.7,1.5-11.4,3.2-17.1,4.9l-2.2,0.7c-10.2,3.2-20.4,6.7-30.4,10.6v0.8
		c10-3.8,20.2-7.4,30.4-10.6c1.5-0.5,3.1-1,4.6-1.4c4.9-1.5,9.8-2.9,14.8-4.2l0.7-0.2c3.5-1,7.1-1.9,10.7-2.7l0.7-0.2l2.5-0.6
		l0.7-0.2c3.6-0.9,7.1-1.7,10.7-2.4l0.7-0.1l3.2-0.7l0.7-0.1c3.6-0.7,7.2-1.4,10.8-2.1l0.7-0.1l3.2-0.6l0.7-0.1
		c3.6-0.6,7.2-1.2,10.8-1.7l0.7-0.1c20-3,40.3-4.7,60.5-5.3h1.6c4.3-0.1,8.5-0.2,12.8-0.2c2.2,0,4.5,0,6.7,0h2.3
		c22,0.4,44,2.2,65.8,5.4l0.7,0.1c3.6,0.5,7.2,1.1,10.8,1.7l0.7,0.1l3.2,0.6l0.7,0.1c3.6,0.7,7.2,1.4,10.8,2.1l0.7,0.1l3.2,0.7
		l0.7,0.1c3.6,0.8,7.2,1.6,10.7,2.4l0.7,0.2l2.5,0.6l0.1-0.7L301.1,307.9z"/>
	<path class="st1" d="M334.9,317.3l-2.3-0.7c-5.6-1.7-11.3-3.4-17-4.9l-0.7-0.2c-3.6-1-7.1-1.9-10.7-2.7c-0.2-0.1-0.5-0.1-0.7-0.2
		l-2.5-0.6l-0.7-0.2c-3.6-0.9-7.1-1.7-10.7-2.4l-0.7-0.1l-3.2-0.7l-0.7-0.1c-3.6-0.7-7.2-1.4-10.8-2.1l-0.7-0.1l-3.2-0.6l-0.7-0.1
		c-3.6-0.6-7.2-1.2-10.8-1.7l0,0l-0.7-0.1c-21.8-3.2-43.9-5-66-5.4h-0.1c-3,0-6-0.1-9-0.1c-25.1,0-50.1,1.8-74.9,5.5l-0.7,0.1
		c-3.6,0.6-7.2,1.1-10.8,1.7l-0.7,0.1l-3.2,0.6l-0.7,0.1c-3.6,0.7-7.2,1.4-10.8,2.1l-0.7,0.1c-1.1,0.2-2.1,0.4-3.2,0.7l-0.7,0.1
		c-3.6,0.8-7.2,1.6-10.7,2.4c-0.2,0.1-0.5,0.1-0.7,0.2c-0.8,0.2-1.7,0.4-2.5,0.6l-0.7,0.2c-3.6,0.9-7.1,1.8-10.7,2.7l-0.7,0.2
		c-5.7,1.5-11.4,3.2-17.1,4.9l-2.2,0.7c-10.2,3.2-20.4,6.7-30.4,10.6v0.8c10-3.8,20.2-7.4,30.4-10.6c1.5-0.5,3.1-1,4.6-1.4
		c4.9-1.5,9.8-2.9,14.8-4.2l0.7-0.2c3.5-1,7.1-1.9,10.7-2.7l0.7-0.2l2.5-0.6l0.7-0.2c3.6-0.9,7.1-1.7,10.7-2.4l0.7-0.1l3.2-0.7
		l0.7-0.1c3.6-0.7,7.2-1.4,10.8-2.1l0.7-0.1l3.2-0.6l0.7-0.1c3.6-0.6,7.2-1.2,10.8-1.7l0.7-0.1c20-3,40.3-4.7,60.5-5.3h1.6
		c4.3-0.1,8.5-0.2,12.8-0.2c2.2,0,4.5,0,6.7,0h2.3c22,0.4,44,2.2,65.8,5.4l0.7,0.1c3.6,0.5,7.2,1.1,10.8,1.7l0.7,0.1l3.2,0.6
		l0.7,0.1c3.6,0.7,7.2,1.4,10.8,2.1l0.7,0.1l3.2,0.7l0.7,0.1c3.6,0.8,7.2,1.6,10.7,2.4l0.7,0.2l2.5,0.6l0.7,0.2l0,0
		c3.6,0.9,7.1,1.8,10.7,2.7l0.7,0.2c4.9,1.3,9.8,2.7,14.7,4.2c1.6,0.5,3.2,1,4.7,1.5c10.2,3.2,20.4,6.8,30.4,10.7v-0.8
		C355.3,324,345.1,320.5,334.9,317.3z"/>
	<path class="st2" d="M301.1,307.9l-0.7-0.2c-3.6-0.9-7.1-1.7-10.7-2.4l-0.7-0.1l-3.2-0.7l-0.7-0.1c-3.6-0.7-7.2-1.4-10.8-2.1
		l-0.7-0.1l-3.2-0.6l-0.7-0.1c-3.6-0.6-7.2-1.2-10.8-1.7l0,0l-0.7-0.1c-21.8-3.2-43.9-5-66-5.4h-0.1c-3,0-6-0.1-9-0.1
		c-25.1,0-50.1,1.8-74.9,5.5l-0.7,0.1c-3.6,0.6-7.2,1.1-10.8,1.7l-0.7,0.1l-3.2,0.6l-0.7,0.1c-3.6,0.7-7.2,1.4-10.8,2.1l-0.7,0.1
		c-1.1,0.2-2.1,0.4-3.2,0.7l-0.7,0.1c-3.6,0.8-7.2,1.6-10.7,2.4c-0.2,0.1-0.5,0.1-0.7,0.2c-0.8,0.2-1.7,0.4-2.5,0.6l-0.7,0.2
		c-3.6,0.9-7.1,1.8-10.7,2.7l-0.7,0.2c-5.7,1.5-11.4,3.2-17.1,4.9l-2.2,0.7c-10.2,3.2-20.4,6.7-30.4,10.6v0.8
		c10-3.8,20.2-7.4,30.4-10.6c1.5-0.5,3.1-1,4.6-1.4c4.9-1.5,9.8-2.9,14.8-4.2l0.7-0.2c3.5-1,7.1-1.9,10.7-2.7l0.7-0.2l2.5-0.6
		l0.7-0.2c3.6-0.9,7.1-1.7,10.7-2.4l0.7-0.1l3.2-0.7l0.7-0.1c3.6-0.7,7.2-1.4,10.8-2.1l0.7-0.1l3.2-0.6l0.7-0.1
		c3.6-0.6,7.2-1.2,10.8-1.7l0.7-0.1c20-3,40.3-4.7,60.5-5.3h1.6c4.3-0.1,8.5-0.2,12.8-0.2c2.2,0,4.5,0,6.7,0h2.3
		c22,0.4,44,2.2,65.8,5.4l0.7,0.1c3.6,0.5,7.2,1.1,10.8,1.7l0.7,0.1l3.2,0.6l0.7,0.1c3.6,0.7,7.2,1.4,10.8,2.1l0.7,0.1l3.2,0.7
		l0.7,0.1c3.6,0.8,7.2,1.6,10.7,2.4l0.7,0.2l2.5,0.6l0.1-0.7L301.1,307.9z"/>
	<path class="st1" d="M334.9,317.3l-2.3-0.7c-5.6-1.7-11.3-3.4-17-4.9l-0.7-0.2c-3.6-1-7.1-1.9-10.7-2.7c-0.2-0.1-0.5-0.1-0.7-0.2
		l-2.5-0.6l-0.7-0.2c-3.6-0.9-7.1-1.7-10.7-2.4l-0.7-0.1l-3.2-0.7l-0.7-0.1c-3.6-0.7-7.2-1.4-10.8-2.1l-0.7-0.1l-3.2-0.6l-0.7-0.1
		c-3.6-0.6-7.2-1.2-10.8-1.7l0,0l-0.7-0.1c-21.8-3.2-43.9-5-66-5.4h-0.1c-3,0-6-0.1-9-0.1c-25.1,0-50.1,1.8-74.9,5.5l-0.7,0.1
		c-3.6,0.6-7.2,1.1-10.8,1.7l-0.7,0.1l-3.2,0.6l-0.7,0.1c-3.6,0.7-7.2,1.4-10.8,2.1l-0.7,0.1c-1.1,0.2-2.1,0.4-3.2,0.7l-0.7,0.1
		c-3.6,0.8-7.2,1.6-10.7,2.4c-0.2,0.1-0.5,0.1-0.7,0.2c-0.8,0.2-1.7,0.4-2.5,0.6l-0.7,0.2c-3.6,0.9-7.1,1.8-10.7,2.7l-0.7,0.2
		c-5.7,1.5-11.4,3.2-17.1,4.9l-2.2,0.7c-10.2,3.2-20.4,6.7-30.4,10.6v0.8c10-3.8,20.2-7.4,30.4-10.6c1.5-0.5,3.1-1,4.6-1.4
		c4.9-1.5,9.8-2.9,14.8-4.2l0.7-0.2c3.5-1,7.1-1.9,10.7-2.7l0.7-0.2l2.5-0.6l0.7-0.2c3.6-0.9,7.1-1.7,10.7-2.4l0.7-0.1l3.2-0.7
		l0.7-0.1c3.6-0.7,7.2-1.4,10.8-2.1l0.7-0.1l3.2-0.6l0.7-0.1c3.6-0.6,7.2-1.2,10.8-1.7l0.7-0.1c20-3,40.3-4.7,60.5-5.3h1.6
		c4.3-0.1,8.5-0.2,12.8-0.2c2.2,0,4.5,0,6.7,0h2.3c22,0.4,44,2.2,65.8,5.4l0.7,0.1c3.6,0.5,7.2,1.1,10.8,1.7l0.7,0.1l3.2,0.6
		l0.7,0.1c3.6,0.7,7.2,1.4,10.8,2.1l0.7,0.1l3.2,0.7l0.7,0.1c3.6,0.8,7.2,1.6,10.7,2.4l0.7,0.2l2.5,0.6l0.7,0.2l0,0
		c3.6,0.9,7.1,1.8,10.7,2.7l0.7,0.2c4.9,1.3,9.8,2.7,14.7,4.2c1.6,0.5,3.2,1,4.7,1.5c10.2,3.2,20.4,6.8,30.4,10.7v-0.8
		C355.3,324,345.1,320.5,334.9,317.3z"/>
	<path class="st1" d="M334.9,317.3l-2.3-0.7c-5.6-1.7-11.3-3.4-17-4.9l-0.7-0.2c-3.6-1-7.1-1.9-10.7-2.7c-0.2-0.1-0.5-0.1-0.7-0.2
		l-2.5-0.6l-0.7-0.2c-3.6-0.9-7.1-1.7-10.7-2.4l-0.7-0.1l-3.2-0.7l-0.7-0.1c-3.6-0.7-7.2-1.4-10.8-2.1l-0.7-0.1l-3.2-0.6l-0.7-0.1
		c-3.6-0.6-7.2-1.2-10.8-1.7l0,0l-0.7-0.1c-21.8-3.2-43.9-5-66-5.4h-0.1c-3,0-6-0.1-9-0.1c-25.1,0-50.1,1.8-74.9,5.5l-0.7,0.1
		c-3.6,0.6-7.2,1.1-10.8,1.7l-0.7,0.1l-3.2,0.6l-0.7,0.1c-3.6,0.7-7.2,1.4-10.8,2.1l-0.7,0.1c-1.1,0.2-2.1,0.4-3.2,0.7l-0.7,0.1
		c-3.6,0.8-7.2,1.6-10.7,2.4c-0.2,0.1-0.5,0.1-0.7,0.2c-0.8,0.2-1.7,0.4-2.5,0.6l-0.7,0.2c-3.6,0.9-7.1,1.8-10.7,2.7l-0.7,0.2
		c-5.7,1.5-11.4,3.2-17.1,4.9l-2.2,0.7c-10.2,3.2-20.4,6.7-30.4,10.6v0.8c10-3.8,20.2-7.4,30.4-10.6c1.5-0.5,3.1-1,4.6-1.4
		c4.9-1.5,9.8-2.9,14.8-4.2l0.7-0.2c3.5-1,7.1-1.9,10.7-2.7l0.7-0.2l2.5-0.6l0.7-0.2c3.6-0.9,7.1-1.7,10.7-2.4l0.7-0.1l3.2-0.7
		l0.7-0.1c3.6-0.7,7.2-1.4,10.8-2.1l0.7-0.1l3.2-0.6l0.7-0.1c3.6-0.6,7.2-1.2,10.8-1.7l0.7-0.1c20-3,40.3-4.7,60.5-5.3h1.6
		c4.3-0.1,8.5-0.2,12.8-0.2c2.2,0,4.5,0,6.7,0h2.3c22,0.4,44,2.2,65.8,5.4l0.7,0.1c3.6,0.5,7.2,1.1,10.8,1.7l0.7,0.1l3.2,0.6
		l0.7,0.1c3.6,0.7,7.2,1.4,10.8,2.1l0.7,0.1l3.2,0.7l0.7,0.1c3.6,0.8,7.2,1.6,10.7,2.4l0.7,0.2l2.5,0.6l0.7,0.2l0,0
		c3.6,0.9,7.1,1.8,10.7,2.7l0.7,0.2c4.9,1.3,9.8,2.7,14.7,4.2c1.6,0.5,3.2,1,4.7,1.5c10.2,3.2,20.4,6.8,30.4,10.7v-0.8
		C355.3,324,345.1,320.5,334.9,317.3z"/>
</g>
</svg>
