<svg id="Layer_1" data-name="Layer 1" xmlns="http://www.w3.org/2000/svg" width="6.47in" height="5.61in" viewBox="0 0 466.13 403.74"><title>Artboard 1</title><g id="Layer_1-2" data-name="Layer_1"><path d="M392.64,0l2.29.05h0q35.16,1,53.18,22.75,17.71,21.36,18,62.24l0,0v2.76l0,0Q466.1,90,466,92c0,1.51-.09,2.92-.15,4.22v0q-1.62,34.37-25.24,80.81-23.34,45.88-68.42,104.06h0q-46.7,60.83-86.44,91.39-40.6,31.23-74.36,31.23-22,0-40.33-20.07-17.41-19.1-31.43-56.8l-.15-.42q-6.06-22.3-12.14-44.61c-7.87-28.88-15.73-57.76-24.57-90.45h0q-10-36.13-20.62-53.94-9.52-16-18.46-16-1.15,0-9,4.73-8.79,5.3-23.78,15.83l-3.84,2.71L24.21,141,2.83,113.4,0,109.75l3.47-3.06C15.7,95.91,26.76,86.08,36.84,77.06S58,58,69.69,47.4l.1-.08q22.71-19.7,39.83-30.14,17.74-10.81,30.1-12h0q28.93-2.79,46.89,17.21Q203.86,41.66,210.25,82v0q6.38,40.82,11.09,67.64,4.59,26.19,7.13,36.26l0,.14q7.54,34.24,15.67,51.08,7.05,14.59,13.17,14.6,5,0,14.21-9.71,10.32-10.87,24.38-33h0q14.05-22.2,21.53-39,7.28-16.34,8.22-27.32l0-.1q1.83-17.45-4.57-25.6-6.14-7.82-21-7.82a74.55,74.55,0,0,0-15.58,1.68,94.7,94.7,0,0,0-16.21,5.08l-9.63,4,3.05-10Q278.36,55.72,309.9,28.2,341.76.39,388.37,0l0,0h2l0,0,2.25,0Z" fill="#fffef4"/></g></svg>