<?xml version="1.0" encoding="utf-8"?>
<!-- Generator: Adobe Illustrator 21.1.0, SVG Export Plug-In . SVG Version: 6.00 Build 0)  -->
<svg version="1.1" id="Layer_1" xmlns="http://www.w3.org/2000/svg" xmlns:xlink="http://www.w3.org/1999/xlink" x="0px" y="0px"
	 viewBox="0 0 131.8 13" style="enable-background:new 0 0 131.8 13;" xml:space="preserve">
<style type="text/css">
	.st0{fill:#FFFDF3;}
	.st1{fill:none;stroke:#FFFDF3;stroke-width:0.275;stroke-miterlimit:10;}
</style>
<title>Artboard 1</title>
<path class="st0" d="M7.8,3.9C7.5,3.5,6.9,3.2,6.4,3.2c-1.8,0-2.5,1.9-2.8,3.2c-0.2,1.4,0,3.3,1.7,3.3c0.7,0,1.4-0.3,1.9-0.8
	l-0.8,3.5c-0.7,0.3-1.4,0.4-2.1,0.4c-2.8,0-4.8-2.1-4.1-6.3C1,1.1,5,0.1,6.6,0.1c0.6,0,1.2,0.1,1.7,0.3L7.8,3.9z"/>
<path class="st0" d="M13.2,12.6V11h-2.3l-0.6,1.6H6.9l5-12.3h4.2l0.7,12.3H13.2z M13.3,8.4l0.1-2.9c0.1-0.8,0.1-1.5,0.1-2.3h-0.1
	C13.2,4,13,4.8,12.7,5.6l-0.9,2.9h1.5V8.4z"/>
<path class="st0" d="M26.4,12.6l0.9-7.8h-0.1c-0.3,0.9-0.6,1.8-0.9,2.7l-1.8,5.1h-2.8V4.9h-0.1c-0.2,0.9-0.3,1.8-0.5,2.8l-1.1,5
	h-3.5L20,0.4h4.2l-0.1,6.5h0.1c0.2-0.8,0.4-1.5,0.7-2.3l1.5-4.2h4.2L30,12.6H26.4z"/>
<path class="st0" d="M32.7,0.3H39l-0.5,2.9h-2.9l-0.3,1.7H38l-0.5,2.9h-2.6l-0.3,1.9h2.9L37,12.6h-6.3L32.7,0.3z"/>
<path class="st0" d="M43.2,12.6l-1-5.1h-0.1C42,8.1,42,8.7,41.8,9.3l-0.6,3.3h-3.4l2-12.3h3.3c3,0,5,0.8,4.5,4.1
	c-0.2,1.4-1.2,2.6-2.5,3.1l1.7,5.1H43.2z M42.6,6c0.8-0.1,1.5-0.7,1.7-1.5C44.5,3.4,43.9,3,42.9,3l-0.5,3H42.6z"/>
<path class="st0" d="M53.6,0.1c3.5,0,4.3,3.4,3.8,6.4s-2.4,6.4-5.8,6.4c-3.5,0-4.2-3.4-3.8-6.4C48.2,3.4,50.1,0.1,53.6,0.1z
	 M52.1,9.7c1.3,0,1.8-2.5,1.9-3.2c0.1-0.8,0.5-3.2-0.8-3.2s-1.8,2.5-1.9,3.2C51.1,7.2,50.8,9.7,52.1,9.7z"/>
<path class="st0" d="M59.1,0.3h3.2l1.5,7.4H64c0.1-1.4,0.1-2.8,0.3-4.2l0.5-3.1H68l-2,12.3h-3.3l-1.4-7.1h-0.1c0,1.1,0,2.2-0.2,3.4
	l-0.6,3.6h-3.3L59.1,0.3z"/>
<path class="st1" d="M69.1,8.5c0.3,0.8,1.1,1.3,1.9,1.4c0.6,0.1,1-0.3,1.2-0.8c0.1-0.2,0-0.5-0.2-0.7c-0.1-0.2-0.3-0.4-0.5-0.5
	c-0.6-0.4-1-0.9-1.4-1.5c-0.4-0.7-0.5-1.4-0.3-2.1c0.2-1.4,1.6-4.1,4.5-4.1c0.8,0,1.6,0.2,2.3,0.6L76,4.5c-0.3-0.7-1-1.2-1.8-1.3
	c-0.5,0-0.9,0.3-1,0.8c0,0.2,0.1,0.5,0.2,0.7L74,5.2c0.6,0.4,1,0.9,1.4,1.5c0.3,0.7,0.4,1.4,0.3,2.1c-0.3,2.3-2.3,4.1-4.7,4.1
	c-0.8,0-1.7-0.2-2.5-0.5L69.1,8.5z"/>
<path class="st1" d="M77.5,12.7L79,3.4h-1.8l0.5-3h7.2l-0.5,3h-1.9L81,12.7H77.5z"/>
<path class="st1" d="M85.6,0.4h6.3l-0.5,2.9h-2.9L88.2,5h2.6l-0.5,2.9h-2.6l-0.3,1.9h2.9l-0.5,2.9h-6.3L85.6,0.4z"/>
<path class="st1" d="M98.9,12.7l-0.1-5c0-1,0.1-1.9,0.1-2.7h-0.1c-0.2,0.8-0.4,1.7-0.7,2.7l-1.5,5h-3.3L92.5,0.4h3.4v5
	c0,0.9-0.1,1.8-0.1,2.8h0.1c0.3-0.9,0.4-1.8,0.7-2.8l1.7-5h2.9v5c0,0.9-0.1,1.8-0.1,2.7h0.1c0.2-0.8,0.4-1.7,0.7-2.7l1.5-5h3.3
	l-4.5,12.3H98.9z"/>
<path class="st1" d="M109.2,12.7v-1.6h-2.3l-0.6,1.6h-3.5l5-12.3h4.2l0.7,12.3H109.2z M109.3,8.5l0.1-2.9c0.1-0.8,0.1-1.5,0.1-2.3
	h-0.1c-0.2,0.8-0.4,1.5-0.7,2.3l-0.9,2.9H109.3z"/>
<path class="st1" d="M118.6,12.7l-1-5.1h-0.1c-0.1,0.6-0.1,1.2-0.2,1.8l-0.6,3.3h-3.4l2-12.3h3.3c3,0,5,0.8,4.5,4.1
	c-0.2,1.4-1.2,2.6-2.5,3.1l1.7,5.1C122.3,12.7,118.6,12.7,118.6,12.7z M118,6.1c0.8-0.1,1.5-0.7,1.7-1.5c0.2-1.1-0.4-1.5-1.4-1.5
	l-0.5,3H118z"/>
<path class="st1" d="M124.2,12.7l1.5-9.3h-1.9l0.5-3h7.3l-0.5,3h-2l-1.5,9.3H124.2z"/>
</svg>
