<?xml version="1.0" encoding="utf-8"?>
<!-- Generator: Adobe Illustrator 21.1.0, SVG Export Plug-In . SVG Version: 6.00 Build 0)  -->
<svg version="1.1" id="Layer_1" xmlns="http://www.w3.org/2000/svg" xmlns:xlink="http://www.w3.org/1999/xlink" x="0px" y="0px"
	 viewBox="0 0 167.8 52" style="enable-background:new 0 0 167.8 52;" xml:space="preserve">
<style type="text/css">
	.st0{fill:#FFFDF3;}
	.st1{fill:none;stroke:#FFFDF3;stroke-width:0.5;stroke-miterlimit:10;}
</style>
<title>Artboard 1</title>
<path class="st0" d="M14.8,7.5c-0.6-0.8-1.6-1.3-2.6-1.3c-3.2,0-4.6,3.5-5,5.9C6.9,14.5,7.1,18,10.2,18c1.3,0,2.5-0.5,3.5-1.4
	l-1.4,6.3c-1.2,0.5-2.6,0.8-3.9,0.8c-5.1,0-8.8-3.8-7.5-11.4C2.5,2.3,9.8,0.6,12.7,0.6c1.1,0,2.1,0.1,3.1,0.5L14.8,7.5z"/>
<path class="st0" d="M24.7,23.3v-2.9h-4.2l-1,2.9h-6.3l9.1-22.3h7.6l1.2,22.3H24.7z M24.8,15.7l0.2-5.2c0.1-1.4,0.2-2.8,0.2-4.2
	h-0.1c-0.4,1.4-0.8,2.8-1.3,4.2l-1.7,5.2H24.8z"/>
<path class="st0" d="M48.6,23.3l1.7-14.1h-0.1c-0.5,1.6-1,3.3-1.6,4.9l-3.3,9.2h-5V9.2h-0.1c-0.3,1.7-0.5,3.3-0.9,5l-2,9.1H31
	l6.3-22.3H45l-0.2,11.9h0.1c0.4-1.4,0.8-2.8,1.3-4.2l2.7-7.7h7.6l-1.3,22.3H48.6z"/>
<path class="st0" d="M60.1,0.9h11.5l-0.9,5.3h-5.3l-0.5,3.1h4.8l-0.9,5.3H64L63.5,18h5.3l-0.9,5.3H56.4L60.1,0.9z"/>
<path class="st0" d="M79.1,23.3L77.2,14h-0.1c-0.1,1.1-0.2,2.2-0.4,3.3l-1,6h-6.2l3.6-22.3h6c5.4,0,9,1.5,8.1,7.4
	c-0.3,2.6-2.1,4.7-4.5,5.6l3.1,9.3L79.1,23.3z M78,11.3c1.5-0.1,2.8-1.3,3-2.8c0.3-2-0.8-2.8-2.5-2.7l-0.9,5.4L78,11.3z"/>
<path class="st0" d="M98.1,0.5c6.3,0,7.8,6.1,6.9,11.6c-0.9,5.5-4.3,11.6-10.6,11.6c-6.3,0-7.7-6.1-6.9-11.6S91.8,0.5,98.1,0.5z
	 M95.3,18c2.3,0,3.2-4.5,3.4-5.9s0.9-5.9-1.5-5.9s-3.2,4.5-3.4,5.9S92.9,18,95.3,18z"/>
<path class="st0" d="M108.1,0.9h5.9l2.8,13.5h0.1c0.2-2.6,0.1-5.1,0.5-7.7l0.9-5.7h6l-3.6,22.3h-6l-2.5-12.9h-0.1
	c-0.2,2.1-0.3,4.2-0.6,6.3l-1.1,6.6h-6L108.1,0.9z"/>
<path class="st1" d="M53.6,43.5c0.6,1.4,2,2.3,3.5,2.5c1,0.1,1.9-0.6,2.1-1.5c0.1-0.4,0-0.9-0.3-1.2c-0.2-0.4-0.5-0.7-0.9-0.9
	c-1-0.8-1.9-1.7-2.6-2.8c-0.7-1.2-0.9-2.6-0.6-3.9c0.4-2.6,2.9-7.4,8.2-7.4c1.5,0,2.9,0.4,4.2,1.1l-1.1,6.8
	c-0.6-1.3-1.8-2.2-3.3-2.4c-0.9,0-1.6,0.6-1.8,1.4c0,0.4,0.1,0.9,0.4,1.2l1,0.9c1,0.7,1.9,1.6,2.6,2.7c0.6,1.2,0.8,2.6,0.5,3.9
	c-0.6,4.2-4.2,7.4-8.5,7.5c-1.5,0-3.1-0.3-4.5-0.9L53.6,43.5z"/>
<path class="st1" d="M68.8,51.1l2.7-16.9h-3.3l0.9-5.5h13.1l-0.9,5.5h-3.5L75,51.1H68.8z"/>
<path class="st1" d="M83.6,28.8H95L94.1,34h-5.2l-0.5,3.1h4.8l-0.9,5.3h-4.8L87,45.8h5.3l-0.9,5.3H80L83.6,28.8z"/>
<path class="st1" d="M107.8,51.1l-0.2-9.1c0-1.8,0.2-3.4,0.2-4.9h-0.1c-0.4,1.5-0.7,3.1-1.3,4.9l-2.8,9.1h-6l-1.5-22.3h6.1v9
	c0,1.7-0.1,3.3-0.2,5h0.1c0.5-1.7,0.7-3.3,1.3-5l3.1-9h5.3v9c0,1.6-0.1,3.2-0.1,4.9h0.1c0.4-1.4,0.8-3.1,1.3-4.9l2.8-9h6l-8.1,22.3
	H107.8z"/>
<path class="st1" d="M126.5,51.1v-2.9h-4.2l-1,2.9H115l9.1-22.3h7.6l1.3,22.3H126.5z M126.6,43.5l0.2-5.2c0.1-1.4,0.2-2.8,0.2-4.2
	h-0.1c-0.4,1.4-0.8,2.8-1.3,4.2l-1.7,5.2H126.6z"/>
<path class="st1" d="M143.6,51.1l-1.9-9.3h-0.1c-0.1,1.1-0.2,2.2-0.4,3.3l-1,6H134l3.6-22.3h6c5.4,0,9,1.5,8.1,7.4
	c-0.3,2.6-2.1,4.7-4.5,5.6l3.1,9.3L143.6,51.1z M142.5,39.1c1.5-0.1,2.8-1.3,3-2.8c0.3-2-0.8-2.8-2.5-2.7l-0.9,5.5H142.5z"/>
<path class="st1" d="M153.8,51.1l2.7-16.9h-3.4l0.9-5.5h13.2l-0.9,5.5h-3.6L160,51.1H153.8z"/>
</svg>
