<?xml version="1.0" encoding="utf-8"?>
<!-- Generator: Adobe Illustrator 21.1.0, SVG Export Plug-In . SVG Version: 6.00 Build 0)  -->
<svg version="1.1" id="Layer_1" xmlns="http://www.w3.org/2000/svg" xmlns:xlink="http://www.w3.org/1999/xlink" x="0px" y="0px"
	 viewBox="0 0 16.5 13" style="enable-background:new 0 0 16.5 13;" xml:space="preserve">
<style type="text/css">
	.st0{fill:#FFFDF3;}
	.st1{fill:none;stroke:#FFFDF3;stroke-width:0.275;stroke-miterlimit:10;}
</style>
<title>Artboard 1</title>
<path class="st0" d="M7.7,3.8C7.4,3.4,6.8,3.1,6.3,3.1C4.5,3.1,3.8,5,3.5,6.3c-0.2,1.4,0,3.3,1.7,3.3c0.7,0,1.4-0.3,1.9-0.8
	l-0.8,3.5c-0.7,0.3-1.4,0.4-2.1,0.4c-2.8,0-4.8-2.1-4.1-6.3C0.9,1,4.9,0,6.5,0c0.6,0,1.2,0.1,1.7,0.3L7.7,3.8z"/>
<path class="st1" d="M8.8,8.4c0.3,0.8,1.1,1.3,1.9,1.4c0.6,0.1,1-0.3,1.2-0.8c0.1-0.2,0-0.5-0.2-0.7c-0.1-0.2-0.3-0.4-0.5-0.5
	c-0.6-0.4-1-0.9-1.4-1.5C9.4,5.6,9.3,4.9,9.5,4.2c0.2-1.4,1.6-4.1,4.5-4.1c0.8,0,1.6,0.2,2.3,0.6l-0.6,3.7c-0.3-0.7-1-1.2-1.8-1.3
	c-0.5,0-0.9,0.3-1,0.8c0,0.2,0.1,0.5,0.2,0.7l0.6,0.5c0.6,0.4,1,0.9,1.4,1.5c0.3,0.7,0.4,1.4,0.3,2.1c-0.3,2.3-2.3,4.1-4.7,4.1
	c-0.8,0-1.7-0.2-2.5-0.5L8.8,8.4z"/>
</svg>
