<svg id="Layer_1" data-name="Layer 1" xmlns="http://www.w3.org/2000/svg" width="2.6in" height="2.6in" viewBox="0 0 187.7 187.7"><title>Artboard 1</title><path d="M24.6,75.3A3.2,3.2,0,0,0,22,74c-3.2,0-4.6,3.5-5,5.9s-.2,5.9,2.9,5.9a5.4,5.4,0,0,0,3.5-1.4l-1.4,6.3a9.9,9.9,0,0,1-3.9.8c-5.1,0-8.8-3.8-7.5-11.4,1.6-10,8.9-11.7,11.9-11.7a8.2,8.2,0,0,1,3.1.5Z" fill="#fffdf3"/><path d="M34.5,91.1V88.2H30.3l-1,2.9H23l9.1-22.4h7.6l1.2,22.4Zm.1-7.6.2-5.2c.1-1.4.2-2.8.2-4.2h-.1c-.4,1.4-.8,2.8-1.3,4.2l-1.7,5.2Z" fill="#fffdf3"/><path d="M58.5,91.1,60.2,77h-.1c-.5,1.6-1,3.3-1.6,4.9l-3.3,9.2h-5V77h-.1c-.3,1.7-.5,3.3-.9,5l-2,9.1H40.8l6.3-22.4h7.7l-.2,11.9h.1c.4-1.4.8-2.8,1.3-4.2l2.7-7.7h7.6L65,91.1Z" fill="#fffdf3"/><path d="M70,68.7H81.5L80.6,74H75.3l-.5,3.1h4.8l-.9,5.3H73.9l-.5,3.4h5.3l-.9,5.3H66.3Z" fill="#fffdf3"/><path d="M89,91.1l-1.9-9.3H87c-.1,1.1-.2,2.2-.4,3.3l-1,6H79.4L83,68.7h6c5.4,0,9,1.5,8.1,7.4a6.9,6.9,0,0,1-4.5,5.6l3.1,9.3Zm-1.1-12a3.2,3.2,0,0,0,3-2.8c.3-2-.8-2.8-2.5-2.7L87.5,79Z" fill="#fffdf3"/><path d="M108.1,68.3c6.3,0,7.8,6.1,6.9,11.6s-4.3,11.6-10.6,11.6-7.7-6.1-6.9-11.6S101.8,68.3,108.1,68.3Zm-2.8,17.5c2.3,0,3.2-4.5,3.4-5.9s.9-5.9-1.5-5.9-3.2,4.5-3.4,5.9S102.9,85.8,105.3,85.8Z" fill="#fffdf3"/><path d="M118.1,68.7H124l2.8,13.5h.1c.2-2.6.1-5.1.5-7.7l.9-5.7h6l-3.6,22.4h-6l-2.5-12.9h-.1c-.2,2.1-.3,4.2-.6,6.3l-1.1,6.6h-6Z" fill="#fffdf3"/><path d="M63.5,111.4a4.3,4.3,0,0,0,3.5,2.5,2,2,0,0,0,2.1-1.5,1.4,1.4,0,0,0-.3-1.2,3.4,3.4,0,0,0-.9-.9,12.1,12.1,0,0,1-2.6-2.8,5.7,5.7,0,0,1-.6-3.9c.4-2.6,2.9-7.4,8.2-7.4a8.8,8.8,0,0,1,4.2,1.1L76,104.1a4.1,4.1,0,0,0-3.3-2.4,1.8,1.8,0,0,0-1.8,1.4,1.6,1.6,0,0,0,.4,1.2l1,.9a9.2,9.2,0,0,1,2.6,2.7,5.8,5.8,0,0,1,.5,3.9,8.8,8.8,0,0,1-8.5,7.5,11.4,11.4,0,0,1-4.5-.9Z" fill="none" stroke="#fffdf3" stroke-miterlimit="10" stroke-width="0.5"/><path d="M78.7,119l2.7-16.9H78.1l.9-5.5H92.1l-.9,5.5H87.7L84.9,119Z" fill="none" stroke="#fffdf3" stroke-miterlimit="10" stroke-width="0.5"/><path d="M93.5,96.6H105l-.9,5.3H98.9l-.5,3.1h4.8l-.9,5.3H97.5l-.5,3.4h5.3l-.9,5.3H89.9Z" fill="none" stroke="#fffdf3" stroke-miterlimit="10" stroke-width="0.5"/><path d="M117.8,119l-.2-9.1c0-1.8.2-3.4.2-4.9h-.1c-.4,1.5-.7,3.1-1.3,4.9l-2.8,9.1h-6l-1.5-22.4h6.1v9c0,1.7-.1,3.3-.2,5h.1c.5-1.7.7-3.3,1.3-5l3.1-9h5.3v9c0,1.6-.1,3.2-.1,4.9h.1c.4-1.4.8-3.1,1.3-4.9l2.8-9h6L123.8,119Z" fill="none" stroke="#fffdf3" stroke-miterlimit="10" stroke-width="0.5"/><path d="M136.6,119v-2.9h-4.2l-1,2.9h-6.4l9.1-22.4h7.6L143,119Zm.1-7.6.2-5.2c.1-1.4.2-2.8.2-4.2H137c-.4,1.4-.8,2.8-1.3,4.2l-1.7,5.2Z" fill="none" stroke="#fffdf3" stroke-miterlimit="10" stroke-width="0.5"/><path d="M153.7,119l-1.9-9.3h-.1c-.1,1.1-.2,2.2-.4,3.3l-1,6h-6.2l3.6-22.4h6c5.4,0,9,1.5,8.1,7.4a6.9,6.9,0,0,1-4.5,5.6l3.1,9.3Zm-1.1-12a3.2,3.2,0,0,0,3-2.8c.3-2-.8-2.8-2.5-2.7l-.9,5.5Z" fill="none" stroke="#fffdf3" stroke-miterlimit="10" stroke-width="0.5"/><path d="M163.9,119l2.7-16.9h-3.4l.9-5.5h13.2l-.9,5.5h-3.6L170.1,119Z" fill="none" stroke="#fffdf3" stroke-miterlimit="10" stroke-width="0.5"/></svg>